# MagicaVoxel @ Ephtracy

# group
o 

# material
mtllib BluePlayer1.mtl
usemtl palette

# normals
vn -1 0 0
vn 1 0 0
vn 0 0 1
vn 0 0 -1
vn 0 -1 0
vn 0 1 0

# texcoords
vt 0.0292969 0.5
vt 0.349609 0.5
vt 0.759766 0.5
vt 0.763672 0.5
vt 0.767578 0.5
vt 0.787109 0.5
vt 0.798828 0.5
vt 0.994141 0.5

# verts
v -0.7 2.2 0
v -0.7 2.2 -0.1
v -0.7 2.5 0
v -0.7 2.5 -0.1
v -0.6 1.3 0.1
v -0.6 1.3 -0.1
v -0.6 1.4 0.1
v -0.6 1.4 0
v -0.6 1.4 -0.1
v -0.6 1.9 0.1
v -0.6 1.9 0
v -0.6 1.9 -0.1
v -0.5 1.9 0.3
v -0.5 1.9 0.1
v -0.5 1.9 0
v -0.5 1.9 -0.1
v -0.5 1.9 -0.3
v -0.5 2 0.5
v -0.5 2 0.3
v -0.5 2 -0.3
v -0.5 2 -0.4
v -0.5 2.2 0
v -0.5 2.2 -0.1
v -0.5 2.2 -0.2
v -0.5 2.2 -0.3
v -0.5 2.2 -0.4
v -0.5 2.3 0.5
v -0.5 2.3 0
v -0.5 2.4 -0.2
v -0.5 2.4 -0.3
v -0.5 2.5 0
v -0.5 2.5 -0.1
v -0.5 2.5 -0.3
v -0.5 2.5 -0.4
v -0.5 2.7 0.5
v -0.5 2.7 0.4
v -0.5 2.7 -0.3
v -0.5 2.7 -0.4
v -0.5 2.8 0.4
v -0.5 2.8 -0.3
v -0.4 1 0.2
v -0.4 1 -0.2
v -0.4 1.2 0.2
v -0.4 1.2 -0.1
v -0.4 1.2 -0.2
v -0.4 1.3 0.1
v -0.4 1.3 -0.1
v -0.4 1.4 0.3
v -0.4 1.4 0.2
v -0.4 1.4 0.1
v -0.4 1.4 -0.1
v -0.4 1.4 -0.2
v -0.4 1.5 0.3
v -0.4 1.5 0.1
v -0.4 1.5 -0.1
v -0.4 1.5 -0.2
v -0.4 1.6 0.3
v -0.4 1.6 0.2
v -0.4 1.6 0.1
v -0.4 1.6 -0.1
v -0.4 1.6 -0.2
v -0.4 1.9 0.5
v -0.4 1.9 0.3
v -0.4 1.9 0.2
v -0.4 1.9 0.1
v -0.4 1.9 -0.1
v -0.4 1.9 -0.2
v -0.4 2 0.5
v -0.4 2 0.3
v -0.4 2.5 -0.4
v -0.4 2.5 -0.5
v -0.4 2.6 -0.4
v -0.4 2.6 -0.5
v -0.4 2.7 0.5
v -0.4 2.7 0.4
v -0.4 2.7 -0.3
v -0.4 2.7 -0.4
v -0.4 2.8 0.5
v -0.4 2.8 0.4
v -0.4 2.8 -0.3
v -0.4 2.8 -0.4
v -0.3 1.8 0.4
v -0.3 1.8 0.3
v -0.3 1.8 -0.2
v -0.3 1.8 -0.3
v -0.3 1.9 0.4
v -0.3 1.9 0.3
v -0.3 1.9 -0.2
v -0.3 1.9 -0.3
v -0.3 1.9 -0.4
v -0.3 2 -0.3
v -0.3 2 -0.4
v -0.3 2 -0.5
v -0.3 2.1 -0.4
v -0.3 2.1 -0.5
v -0.3 2.8 -0.1
v -0.3 2.8 -0.3
v -0.3 2.9 -0.1
v -0.3 2.9 -0.3
v -0.2 2.8 0
v -0.2 2.8 -0.1
v -0.2 2.8 -0.3
v -0.2 2.8 -0.4
v -0.2 2.9 0
v -0.2 2.9 -0.1
v -0.2 2.9 -0.2
v -0.2 2.9 -0.3
v -0.2 3 -0.2
v -0.2 3 -0.4
v -0.1 2.1 -0.4
v -0.1 2.1 -0.5
v -0.1 2.4 -0.4
v -0.1 2.4 -0.5
v -0.1 2.7 -0.4
v -0.1 2.7 -0.5
v -0.1 2.9 -0.1
v -0.1 2.9 -0.2
v -0.1 2.9 -0.4
v -0.1 2.9 -0.5
v -0.1 3 -0.1
v -0.1 3 -0.2
v 0 2.6 -0.4
v 0 2.6 -0.5
v 0 2.7 -0.4
v 0 2.7 -0.5
v 0.1 1 0.2
v 0.1 1 -0.2
v 0.1 1.2 0.2
v 0.1 1.2 -0.1
v 0.1 1.2 -0.2
v 0.1 1.4 0.3
v 0.1 1.4 0.2
v 0.1 1.4 0
v 0.1 1.4 -0.1
v 0.1 1.5 0.3
v 0.1 1.5 0.2
v 0.1 2.5 -0.4
v 0.1 2.5 -0.5
v 0.1 2.6 -0.4
v 0.1 2.6 -0.5
v -0.1 1 0.2
v -0.1 1 -0.2
v -0.1 1.2 0.2
v -0.1 1.2 -0.1
v -0.1 1.2 -0.2
v -0.1 1.4 0.3
v -0.1 1.4 0.2
v -0.1 1.4 0
v -0.1 1.4 -0.1
v -0.1 1.5 0.3
v -0.1 1.5 0.2
v -0.1 2.5 -0.4
v -0.1 2.5 -0.5
v -0.1 2.6 -0.4
v -0.1 2.6 -0.5
v 0.1 2.1 -0.4
v 0.1 2.1 -0.5
v 0.1 2.4 -0.4
v 0.1 2.4 -0.5
v 0.1 2.6 -0.4
v 0.1 2.6 -0.5
v 0.1 2.7 -0.4
v 0.1 2.7 -0.5
v 0.2 2.7 -0.4
v 0.2 2.7 -0.5
v 0.2 2.9 -0.1
v 0.2 2.9 -0.4
v 0.2 2.9 -0.5
v 0.2 3 -0.1
v 0.2 3 -0.4
v 0.3 1.8 0.4
v 0.3 1.8 0.3
v 0.3 1.8 -0.2
v 0.3 1.8 -0.3
v 0.3 1.9 0.4
v 0.3 1.9 0.3
v 0.3 1.9 -0.2
v 0.3 1.9 -0.3
v 0.3 1.9 -0.4
v 0.3 2 -0.3
v 0.3 2 -0.4
v 0.3 2 -0.5
v 0.3 2.1 -0.4
v 0.3 2.1 -0.5
v 0.3 2.8 0
v 0.3 2.8 -0.4
v 0.3 2.9 0
v 0.3 2.9 -0.4
v 0.4 1 0.2
v 0.4 1 -0.2
v 0.4 1.2 0.2
v 0.4 1.2 -0.1
v 0.4 1.2 -0.2
v 0.4 1.3 0.1
v 0.4 1.3 -0.1
v 0.4 1.4 0.3
v 0.4 1.4 0.2
v 0.4 1.4 0.1
v 0.4 1.4 -0.1
v 0.4 1.4 -0.2
v 0.4 1.5 0.3
v 0.4 1.5 0.1
v 0.4 1.5 -0.1
v 0.4 1.5 -0.2
v 0.4 1.6 0.3
v 0.4 1.6 0.2
v 0.4 1.6 0.1
v 0.4 1.6 -0.1
v 0.4 1.6 -0.2
v 0.4 1.9 0.5
v 0.4 1.9 0.3
v 0.4 1.9 0.2
v 0.4 1.9 0.1
v 0.4 1.9 -0.1
v 0.4 1.9 -0.2
v 0.4 2 0.5
v 0.4 2 0.3
v 0.4 2.5 -0.4
v 0.4 2.5 -0.5
v 0.4 2.6 -0.4
v 0.4 2.6 -0.5
v 0.4 2.7 0.5
v 0.4 2.7 0.4
v 0.4 2.7 -0.3
v 0.4 2.7 -0.4
v 0.4 2.8 0.5
v 0.4 2.8 0.4
v 0.4 2.8 -0.3
v 0.4 2.8 -0.4
v 0.5 1.9 0.3
v 0.5 1.9 0.1
v 0.5 1.9 0
v 0.5 1.9 -0.1
v 0.5 1.9 -0.3
v 0.5 2 0.5
v 0.5 2 0.3
v 0.5 2 -0.3
v 0.5 2 -0.4
v 0.5 2.2 0
v 0.5 2.2 -0.1
v 0.5 2.2 -0.2
v 0.5 2.2 -0.3
v 0.5 2.2 -0.4
v 0.5 2.3 0.5
v 0.5 2.3 0
v 0.5 2.4 -0.2
v 0.5 2.4 -0.3
v 0.5 2.5 0
v 0.5 2.5 -0.1
v 0.5 2.5 -0.3
v 0.5 2.5 -0.4
v 0.5 2.7 0.5
v 0.5 2.7 0.4
v 0.5 2.7 -0.3
v 0.5 2.7 -0.4
v 0.5 2.8 0.4
v 0.5 2.8 -0.3
v 0.6 1.3 0.1
v 0.6 1.3 -0.1
v 0.6 1.4 0.1
v 0.6 1.4 0
v 0.6 1.4 -0.1
v 0.6 1.9 0.1
v 0.6 1.9 0
v 0.6 1.9 -0.1
v 0.7 2.2 0
v 0.7 2.2 -0.1
v 0.7 2.5 0
v 0.7 2.5 -0.1
v -0.5 2 0.5
v -0.5 2.3 0.5
v -0.5 2.7 0.5
v -0.4 1.9 0.5
v -0.4 2 0.5
v -0.4 2.2 0.5
v -0.4 2.3 0.5
v -0.4 2.7 0.5
v -0.4 2.8 0.5
v 0.4 1.9 0.5
v 0.4 2 0.5
v 0.4 2.2 0.5
v 0.4 2.3 0.5
v 0.4 2.7 0.5
v 0.4 2.8 0.5
v 0.5 2 0.5
v 0.5 2.3 0.5
v 0.5 2.7 0.5
v -0.5 2.7 0.4
v -0.5 2.8 0.4
v -0.4 2.7 0.4
v -0.4 2.8 0.4
v -0.3 1.8 0.4
v -0.3 1.9 0.4
v -0.2 1.8 0.4
v -0.2 1.9 0.4
v -0.1 1.8 0.4
v -0.1 1.9 0.4
v 0 1.8 0.4
v 0 1.9 0.4
v 0.1 1.8 0.4
v 0.1 1.9 0.4
v 0.2 1.8 0.4
v 0.2 1.9 0.4
v 0.3 1.8 0.4
v 0.3 1.9 0.4
v 0.4 2.7 0.4
v 0.4 2.8 0.4
v 0.5 2.7 0.4
v 0.5 2.8 0.4
v -0.5 1.9 0.3
v -0.5 2 0.3
v -0.4 1.4 0.3
v -0.4 1.5 0.3
v -0.4 1.6 0.3
v -0.4 1.9 0.3
v -0.4 2 0.3
v -0.3 1.6 0.3
v -0.3 1.8 0.3
v -0.3 1.9 0.3
v -0.2 1.6 0.3
v -0.2 1.8 0.3
v -0.1 1.4 0.3
v -0.1 1.5 0.3
v -0.1 1.6 0.3
v -0.1 1.8 0.3
v 0 1.6 0.3
v 0 1.8 0.3
v 0.1 1.4 0.3
v 0.1 1.5 0.3
v 0.1 1.6 0.3
v 0.1 1.8 0.3
v 0.2 1.6 0.3
v 0.2 1.8 0.3
v 0.3 1.6 0.3
v 0.3 1.8 0.3
v 0.3 1.9 0.3
v 0.4 1.4 0.3
v 0.4 1.5 0.3
v 0.4 1.6 0.3
v 0.4 1.9 0.3
v 0.4 2 0.3
v 0.5 1.9 0.3
v 0.5 2 0.3
v -0.4 1 0.2
v -0.4 1.2 0.2
v -0.4 1.4 0.2
v -0.1 1 0.2
v -0.1 1.2 0.2
v -0.1 1.4 0.2
v -0.1 1.5 0.2
v 0.1 1 0.2
v 0.1 1.2 0.2
v 0.1 1.4 0.2
v 0.1 1.5 0.2
v 0.4 1 0.2
v 0.4 1.2 0.2
v 0.4 1.4 0.2
v -0.6 1.3 0.1
v -0.6 1.4 0.1
v -0.6 1.9 0.1
v -0.5 1.4 0.1
v -0.5 1.9 0.1
v -0.4 1.3 0.1
v -0.4 1.4 0.1
v -0.4 1.5 0.1
v -0.4 1.6 0.1
v -0.4 1.9 0.1
v 0.4 1.3 0.1
v 0.4 1.4 0.1
v 0.4 1.5 0.1
v 0.4 1.6 0.1
v 0.4 1.9 0.1
v 0.5 1.4 0.1
v 0.5 1.9 0.1
v 0.6 1.3 0.1
v 0.6 1.4 0.1
v 0.6 1.9 0.1
v -0.7 2.2 0
v -0.7 2.5 0
v -0.5 2.2 0
v -0.5 2.3 0
v -0.5 2.5 0
v -0.2 2.8 0
v -0.2 2.9 0
v 0.3 2.8 0
v 0.3 2.9 0
v 0.5 2.2 0
v 0.5 2.3 0
v 0.5 2.5 0
v 0.7 2.2 0
v 0.7 2.5 0
v -0.3 2.8 -0.1
v -0.3 2.9 -0.1
v -0.2 2.8 -0.1
v -0.2 2.9 -0.1
v -0.1 2.9 -0.1
v -0.1 3 -0.1
v 0.2 2.9 -0.1
v 0.2 3 -0.1
v -0.2 2.9 -0.2
v -0.2 3 -0.2
v -0.1 2.9 -0.2
v -0.1 3 -0.2
v -0.7 2.2 -0.1
v -0.7 2.5 -0.1
v -0.6 1.3 -0.1
v -0.6 1.4 -0.1
v -0.6 1.9 -0.1
v -0.5 1.4 -0.1
v -0.5 1.9 -0.1
v -0.5 2.2 -0.1
v -0.5 2.5 -0.1
v -0.4 1.2 -0.1
v -0.4 1.3 -0.1
v -0.4 1.4 -0.1
v -0.4 1.5 -0.1
v -0.4 1.6 -0.1
v -0.4 1.9 -0.1
v -0.1 1.2 -0.1
v -0.1 1.4 -0.1
v 0.1 1.2 -0.1
v 0.1 1.4 -0.1
v 0.4 1.2 -0.1
v 0.4 1.3 -0.1
v 0.4 1.4 -0.1
v 0.4 1.5 -0.1
v 0.4 1.6 -0.1
v 0.4 1.9 -0.1
v 0.5 1.4 -0.1
v 0.5 1.9 -0.1
v 0.5 2.2 -0.1
v 0.5 2.5 -0.1
v 0.6 1.3 -0.1
v 0.6 1.4 -0.1
v 0.6 1.9 -0.1
v 0.7 2.2 -0.1
v 0.7 2.5 -0.1
v -0.4 1 -0.2
v -0.4 1.2 -0.2
v -0.4 1.4 -0.2
v -0.4 1.5 -0.2
v -0.4 1.6 -0.2
v -0.4 1.9 -0.2
v -0.3 1.6 -0.2
v -0.3 1.8 -0.2
v -0.3 1.9 -0.2
v -0.2 1.6 -0.2
v -0.2 1.8 -0.2
v -0.1 1 -0.2
v -0.1 1.2 -0.2
v -0.1 1.5 -0.2
v -0.1 1.6 -0.2
v -0.1 1.8 -0.2
v 0 1.6 -0.2
v 0 1.8 -0.2
v 0.1 1 -0.2
v 0.1 1.2 -0.2
v 0.1 1.5 -0.2
v 0.1 1.6 -0.2
v 0.1 1.8 -0.2
v 0.2 1.6 -0.2
v 0.2 1.8 -0.2
v 0.3 1.6 -0.2
v 0.3 1.8 -0.2
v 0.3 1.9 -0.2
v 0.4 1 -0.2
v 0.4 1.2 -0.2
v 0.4 1.4 -0.2
v 0.4 1.5 -0.2
v 0.4 1.6 -0.2
v 0.4 1.9 -0.2
v -0.5 1.9 -0.3
v -0.5 2 -0.3
v -0.5 2.7 -0.3
v -0.5 2.8 -0.3
v -0.4 2.7 -0.3
v -0.4 2.8 -0.3
v -0.3 1.8 -0.3
v -0.3 1.9 -0.3
v -0.3 2 -0.3
v -0.3 2.8 -0.3
v -0.3 2.9 -0.3
v -0.2 1.8 -0.3
v -0.2 1.9 -0.3
v -0.2 2.8 -0.3
v -0.2 2.9 -0.3
v -0.1 1.8 -0.3
v -0.1 1.9 -0.3
v 0 1.8 -0.3
v 0 1.9 -0.3
v 0.1 1.8 -0.3
v 0.1 1.9 -0.3
v 0.2 1.8 -0.3
v 0.2 1.9 -0.3
v 0.3 1.8 -0.3
v 0.3 1.9 -0.3
v 0.3 2 -0.3
v 0.4 2.7 -0.3
v 0.4 2.8 -0.3
v 0.5 1.9 -0.3
v 0.5 2 -0.3
v 0.5 2.7 -0.3
v 0.5 2.8 -0.3
v -0.5 2 -0.4
v -0.5 2.2 -0.4
v -0.5 2.5 -0.4
v -0.5 2.7 -0.4
v -0.4 2.5 -0.4
v -0.4 2.6 -0.4
v -0.4 2.7 -0.4
v -0.4 2.8 -0.4
v -0.3 1.9 -0.4
v -0.3 2 -0.4
v -0.3 2.1 -0.4
v -0.3 2.2 -0.4
v -0.3 2.5 -0.4
v -0.2 2.2 -0.4
v -0.2 2.5 -0.4
v -0.2 2.8 -0.4
v -0.2 3 -0.4
v -0.1 2.1 -0.4
v -0.1 2.4 -0.4
v -0.1 2.5 -0.4
v -0.1 2.6 -0.4
v -0.1 2.7 -0.4
v -0.1 2.9 -0.4
v 0 2.6 -0.4
v 0 2.7 -0.4
v 0.1 2.1 -0.4
v 0.1 2.4 -0.4
v 0.1 2.5 -0.4
v 0.1 2.6 -0.4
v 0.1 2.7 -0.4
v 0.2 2.2 -0.4
v 0.2 2.5 -0.4
v 0.2 2.7 -0.4
v 0.2 2.9 -0.4
v 0.2 3 -0.4
v 0.3 1.9 -0.4
v 0.3 2 -0.4
v 0.3 2.1 -0.4
v 0.3 2.2 -0.4
v 0.3 2.5 -0.4
v 0.3 2.8 -0.4
v 0.3 2.9 -0.4
v 0.4 2.5 -0.4
v 0.4 2.6 -0.4
v 0.4 2.7 -0.4
v 0.4 2.8 -0.4
v 0.5 2 -0.4
v 0.5 2.2 -0.4
v 0.5 2.5 -0.4
v 0.5 2.7 -0.4
v -0.4 2.5 -0.5
v -0.4 2.6 -0.5
v -0.3 2 -0.5
v -0.3 2.1 -0.5
v -0.1 2.1 -0.5
v -0.1 2.4 -0.5
v -0.1 2.5 -0.5
v -0.1 2.6 -0.5
v -0.1 2.7 -0.5
v -0.1 2.9 -0.5
v 0 2.6 -0.5
v 0 2.7 -0.5
v 0.1 2.1 -0.5
v 0.1 2.4 -0.5
v 0.1 2.5 -0.5
v 0.1 2.6 -0.5
v 0.1 2.7 -0.5
v 0.2 2.7 -0.5
v 0.2 2.9 -0.5
v 0.3 2 -0.5
v 0.3 2.1 -0.5
v 0.4 2.5 -0.5
v 0.4 2.6 -0.5
v -0.4 1 0.2
v -0.1 1 0.2
v 0.1 1 0.2
v 0.4 1 0.2
v -0.4 1 -0.2
v -0.1 1 -0.2
v 0.1 1 -0.2
v 0.4 1 -0.2
v -0.6 1.3 0.1
v -0.4 1.3 0.1
v 0.4 1.3 0.1
v 0.6 1.3 0.1
v -0.6 1.3 -0.1
v -0.4 1.3 -0.1
v 0.4 1.3 -0.1
v 0.6 1.3 -0.1
v -0.4 1.4 0.3
v -0.1 1.4 0.3
v 0.1 1.4 0.3
v 0.4 1.4 0.3
v -0.4 1.4 0.2
v -0.1 1.4 0.2
v 0.1 1.4 0.2
v 0.4 1.4 0.2
v -0.1 1.4 0
v 0.1 1.4 0
v -0.4 1.4 -0.1
v -0.1 1.4 -0.1
v 0.1 1.4 -0.1
v 0.4 1.4 -0.1
v -0.4 1.4 -0.2
v 0.4 1.4 -0.2
v -0.1 1.5 0.3
v 0.1 1.5 0.3
v -0.1 1.5 0.2
v 0.1 1.5 0.2
v -0.3 1.8 0.4
v -0.2 1.8 0.4
v -0.1 1.8 0.4
v 0 1.8 0.4
v 0.1 1.8 0.4
v 0.2 1.8 0.4
v 0.3 1.8 0.4
v -0.3 1.8 0.3
v -0.2 1.8 0.3
v -0.1 1.8 0.3
v 0 1.8 0.3
v 0.1 1.8 0.3
v 0.2 1.8 0.3
v 0.3 1.8 0.3
v -0.3 1.8 -0.2
v -0.2 1.8 -0.2
v -0.1 1.8 -0.2
v 0 1.8 -0.2
v 0.1 1.8 -0.2
v 0.2 1.8 -0.2
v 0.3 1.8 -0.2
v -0.3 1.8 -0.3
v -0.2 1.8 -0.3
v -0.1 1.8 -0.3
v 0 1.8 -0.3
v 0.1 1.8 -0.3
v 0.2 1.8 -0.3
v 0.3 1.8 -0.3
v -0.4 1.9 0.5
v 0.4 1.9 0.5
v -0.3 1.9 0.4
v -0.2 1.9 0.4
v -0.1 1.9 0.4
v 0 1.9 0.4
v 0.1 1.9 0.4
v 0.2 1.9 0.4
v 0.3 1.9 0.4
v -0.5 1.9 0.3
v -0.4 1.9 0.3
v -0.3 1.9 0.3
v 0.3 1.9 0.3
v 0.4 1.9 0.3
v 0.5 1.9 0.3
v -0.4 1.9 0.2
v 0.4 1.9 0.2
v -0.5 1.9 0.1
v -0.4 1.9 0.1
v 0.4 1.9 0.1
v 0.5 1.9 0.1
v -0.5 1.9 -0.1
v -0.4 1.9 -0.1
v 0.4 1.9 -0.1
v 0.5 1.9 -0.1
v -0.4 1.9 -0.2
v -0.3 1.9 -0.2
v 0.3 1.9 -0.2
v 0.4 1.9 -0.2
v -0.5 1.9 -0.3
v -0.3 1.9 -0.3
v -0.2 1.9 -0.3
v -0.1 1.9 -0.3
v 0 1.9 -0.3
v 0.1 1.9 -0.3
v 0.2 1.9 -0.3
v 0.3 1.9 -0.3
v 0.5 1.9 -0.3
v -0.3 1.9 -0.4
v 0.3 1.9 -0.4
v -0.5 2 0.5
v -0.4 2 0.5
v 0.4 2 0.5
v 0.5 2 0.5
v -0.5 2 0.3
v -0.4 2 0.3
v 0.4 2 0.3
v 0.5 2 0.3
v -0.5 2 -0.3
v -0.3 2 -0.3
v 0.3 2 -0.3
v 0.5 2 -0.3
v -0.5 2 -0.4
v -0.3 2 -0.4
v 0.3 2 -0.4
v 0.5 2 -0.4
v -0.3 2 -0.5
v 0.3 2 -0.5
v -0.7 2.2 0
v -0.5 2.2 0
v 0.5 2.2 0
v 0.7 2.2 0
v -0.7 2.2 -0.1
v -0.5 2.2 -0.1
v 0.5 2.2 -0.1
v 0.7 2.2 -0.1
v -0.4 2.5 -0.4
v -0.3 2.5 -0.4
v -0.2 2.5 -0.4
v -0.1 2.5 -0.4
v 0.1 2.5 -0.4
v 0.2 2.5 -0.4
v 0.3 2.5 -0.4
v 0.4 2.5 -0.4
v -0.4 2.5 -0.5
v -0.1 2.5 -0.5
v 0.1 2.5 -0.5
v 0.4 2.5 -0.5
v 0 2.6 -0.4
v 0.1 2.6 -0.4
v 0 2.6 -0.5
v 0.1 2.6 -0.5
v -0.1 2.7 -0.4
v 0 2.7 -0.4
v 0.1 2.7 -0.4
v 0.2 2.7 -0.4
v -0.1 2.7 -0.5
v 0 2.7 -0.5
v 0.1 2.7 -0.5
v 0.2 2.7 -0.5
v -0.4 1.2 -0.1
v -0.1 1.2 -0.1
v 0.1 1.2 -0.1
v 0.4 1.2 -0.1
v -0.4 1.2 -0.2
v -0.1 1.2 -0.2
v 0.1 1.2 -0.2
v 0.4 1.2 -0.2
v -0.6 1.9 0.1
v -0.5 1.9 0.1
v 0.5 1.9 0.1
v 0.6 1.9 0.1
v -0.6 1.9 0
v -0.5 1.9 0
v 0.5 1.9 0
v 0.6 1.9 0
v -0.6 1.9 -0.1
v -0.5 1.9 -0.1
v 0.5 1.9 -0.1
v 0.6 1.9 -0.1
v -0.3 2.1 -0.4
v -0.1 2.1 -0.4
v 0.1 2.1 -0.4
v 0.3 2.1 -0.4
v -0.3 2.1 -0.5
v -0.1 2.1 -0.5
v 0.1 2.1 -0.5
v 0.3 2.1 -0.5
v -0.1 2.4 -0.4
v 0.1 2.4 -0.4
v -0.1 2.4 -0.5
v 0.1 2.4 -0.5
v -0.7 2.5 0
v -0.5 2.5 0
v 0.5 2.5 0
v 0.7 2.5 0
v -0.7 2.5 -0.1
v -0.5 2.5 -0.1
v 0.5 2.5 -0.1
v 0.7 2.5 -0.1
v -0.4 2.6 -0.4
v -0.1 2.6 -0.4
v 0.1 2.6 -0.4
v 0.4 2.6 -0.4
v -0.4 2.6 -0.5
v -0.1 2.6 -0.5
v 0.1 2.6 -0.5
v 0.4 2.6 -0.5
v -0.5 2.7 0.5
v -0.4 2.7 0.5
v 0.4 2.7 0.5
v 0.5 2.7 0.5
v -0.5 2.7 0.4
v -0.4 2.7 0.4
v 0.4 2.7 0.4
v 0.5 2.7 0.4
v -0.5 2.7 -0.3
v -0.4 2.7 -0.3
v 0.4 2.7 -0.3
v 0.5 2.7 -0.3
v -0.5 2.7 -0.4
v -0.4 2.7 -0.4
v 0.4 2.7 -0.4
v 0.5 2.7 -0.4
v -0.4 2.8 0.5
v 0.4 2.8 0.5
v -0.5 2.8 0.4
v -0.4 2.8 0.4
v 0.4 2.8 0.4
v 0.5 2.8 0.4
v -0.2 2.8 0
v 0.3 2.8 0
v -0.3 2.8 -0.1
v -0.2 2.8 -0.1
v -0.5 2.8 -0.3
v -0.4 2.8 -0.3
v -0.3 2.8 -0.3
v -0.2 2.8 -0.3
v 0.4 2.8 -0.3
v 0.5 2.8 -0.3
v -0.4 2.8 -0.4
v -0.2 2.8 -0.4
v 0.3 2.8 -0.4
v 0.4 2.8 -0.4
v -0.2 2.9 0
v 0.3 2.9 0
v -0.3 2.9 -0.1
v -0.2 2.9 -0.1
v -0.1 2.9 -0.1
v 0.2 2.9 -0.1
v -0.2 2.9 -0.2
v -0.1 2.9 -0.2
v -0.3 2.9 -0.3
v -0.2 2.9 -0.3
v -0.1 2.9 -0.4
v 0.2 2.9 -0.4
v 0.3 2.9 -0.4
v -0.1 2.9 -0.5
v 0.2 2.9 -0.5
v -0.1 3 -0.1
v 0.2 3 -0.1
v -0.2 3 -0.2
v -0.1 3 -0.2
v -0.2 3 -0.4
v 0.2 3 -0.4

# faces
f 3/1/1 2/1/1 1/1/1
f 4/1/1 2/1/1 3/1/1
f 7/2/1 6/2/1 5/2/1
f 8/2/1 6/2/1 7/2/1
f 9/2/1 6/2/1 8/2/1
f 10/6/1 8/6/1 7/6/1
f 11/7/1 9/7/1 8/7/1
f 11/6/1 8/6/1 10/6/1
f 12/7/1 9/7/1 11/7/1
f 19/2/1 14/2/1 13/2/1
f 19/2/1 17/2/1 16/2/1
f 19/2/1 16/2/1 15/2/1
f 19/2/1 15/2/1 14/2/1
f 20/2/1 17/2/1 19/2/1
f 22/2/1 19/2/1 18/2/1
f 22/2/1 20/2/1 19/2/1
f 23/2/1 20/2/1 22/2/1
f 24/2/1 20/2/1 23/2/1
f 25/1/1 21/1/1 20/1/1
f 25/2/1 20/2/1 24/2/1
f 26/1/1 21/1/1 25/1/1
f 27/2/1 22/2/1 18/2/1
f 28/2/1 22/2/1 27/2/1
f 29/4/1 24/4/1 23/4/1
f 29/2/1 26/2/1 25/2/1
f 29/2/1 25/2/1 24/2/1
f 30/2/1 26/2/1 29/2/1
f 31/4/1 28/4/1 27/4/1
f 32/4/1 29/4/1 23/4/1
f 32/4/1 30/4/1 29/4/1
f 33/2/1 26/2/1 30/2/1
f 33/4/1 30/4/1 32/4/1
f 34/2/1 26/2/1 33/2/1
f 35/4/1 32/4/1 31/4/1
f 35/4/1 31/4/1 27/4/1
f 35/4/1 34/4/1 33/4/1
f 35/4/1 33/4/1 32/4/1
f 36/4/1 34/4/1 35/4/1
f 37/4/1 34/4/1 36/4/1
f 38/4/1 34/4/1 37/4/1
f 39/4/1 37/4/1 36/4/1
f 40/4/1 37/4/1 39/4/1
f 43/5/1 42/5/1 41/5/1
f 44/5/1 42/5/1 43/5/1
f 45/5/1 42/5/1 44/5/1
f 46/6/1 44/6/1 43/6/1
f 47/6/1 44/6/1 46/6/1
f 49/6/1 46/6/1 43/6/1
f 50/6/1 46/6/1 49/6/1
f 53/6/1 50/6/1 49/6/1
f 53/6/1 49/6/1 48/6/1
f 54/6/1 50/6/1 53/6/1
f 55/6/1 52/6/1 51/6/1
f 56/6/1 52/6/1 55/6/1
f 57/5/1 54/5/1 53/5/1
f 58/5/1 54/5/1 57/5/1
f 59/5/1 54/5/1 58/5/1
f 60/5/1 56/5/1 55/5/1
f 61/5/1 56/5/1 60/5/1
f 63/7/1 58/7/1 57/7/1
f 64/6/1 59/6/1 58/6/1
f 64/7/1 58/7/1 63/7/1
f 65/6/1 59/6/1 64/6/1
f 66/7/1 61/7/1 60/7/1
f 67/7/1 61/7/1 66/7/1
f 68/2/1 63/2/1 62/2/1
f 69/2/1 63/2/1 68/2/1
f 72/4/1 71/4/1 70/4/1
f 73/4/1 71/4/1 72/4/1
f 78/4/1 75/4/1 74/4/1
f 79/4/1 75/4/1 78/4/1
f 80/4/1 77/4/1 76/4/1
f 81/4/1 77/4/1 80/4/1
f 86/6/1 83/6/1 82/6/1
f 87/6/1 83/6/1 86/6/1
f 88/6/1 85/6/1 84/6/1
f 89/6/1 85/6/1 88/6/1
f 91/2/1 90/2/1 89/2/1
f 92/2/1 90/2/1 91/2/1
f 94/4/1 93/4/1 92/4/1
f 95/4/1 93/4/1 94/4/1
f 98/4/1 97/4/1 96/4/1
f 99/4/1 97/4/1 98/4/1
f 104/4/1 101/4/1 100/4/1
f 105/4/1 101/4/1 104/4/1
f 107/4/1 103/4/1 102/4/1
f 108/4/1 107/4/1 106/4/1
f 109/4/1 103/4/1 107/4/1
f 109/4/1 107/4/1 108/4/1
f 112/1/1 111/1/1 110/1/1
f 113/1/1 111/1/1 112/1/1
f 118/4/1 115/4/1 114/4/1
f 119/4/1 115/4/1 118/4/1
f 120/4/1 117/4/1 116/4/1
f 121/4/1 117/4/1 120/4/1
f 124/4/1 123/4/1 122/4/1
f 125/4/1 123/4/1 124/4/1
f 128/5/1 127/5/1 126/5/1
f 129/5/1 127/5/1 128/5/1
f 130/5/1 127/5/1 129/5/1
f 132/6/1 129/6/1 128/6/1
f 133/6/1 129/6/1 132/6/1
f 134/6/1 129/6/1 133/6/1
f 135/6/1 132/6/1 131/6/1
f 136/6/1 132/6/1 135/6/1
f 139/4/1 138/4/1 137/4/1
f 140/4/1 138/4/1 139/4/1
f 141/5/2 142/5/2 143/5/2
f 143/5/2 142/5/2 144/5/2
f 144/5/2 142/5/2 145/5/2
f 143/6/2 144/6/2 147/6/2
f 147/6/2 144/6/2 148/6/2
f 148/6/2 144/6/2 149/6/2
f 146/6/2 147/6/2 150/6/2
f 150/6/2 147/6/2 151/6/2
f 152/4/2 153/4/2 154/4/2
f 154/4/2 153/4/2 155/4/2
f 156/1/2 157/1/2 158/1/2
f 158/1/2 157/1/2 159/1/2
f 160/4/2 161/4/2 162/4/2
f 162/4/2 161/4/2 163/4/2
f 164/4/2 165/4/2 167/4/2
f 167/4/2 165/4/2 168/4/2
f 166/4/2 167/4/2 169/4/2
f 169/4/2 167/4/2 170/4/2
f 171/7/2 172/7/2 175/7/2
f 175/7/2 172/7/2 176/7/2
f 173/7/2 174/7/2 177/7/2
f 177/7/2 174/7/2 178/7/2
f 178/2/2 179/2/2 180/2/2
f 180/2/2 179/2/2 181/2/2
f 181/4/2 182/4/2 183/4/2
f 183/4/2 182/4/2 184/4/2
f 185/4/2 186/4/2 187/4/2
f 187/4/2 186/4/2 188/4/2
f 189/5/2 190/5/2 191/5/2
f 191/5/2 190/5/2 192/5/2
f 192/5/2 190/5/2 193/5/2
f 191/6/2 192/6/2 194/6/2
f 194/6/2 192/6/2 195/6/2
f 191/6/2 194/6/2 197/6/2
f 197/6/2 194/6/2 198/6/2
f 197/6/2 198/6/2 201/6/2
f 196/6/2 197/6/2 201/6/2
f 201/6/2 198/6/2 202/6/2
f 199/6/2 200/6/2 203/6/2
f 203/6/2 200/6/2 204/6/2
f 201/5/2 202/5/2 205/5/2
f 205/5/2 202/5/2 206/5/2
f 206/5/2 202/5/2 207/5/2
f 203/5/2 204/5/2 208/5/2
f 208/5/2 204/5/2 209/5/2
f 205/6/2 206/6/2 211/6/2
f 206/7/2 207/7/2 212/7/2
f 211/6/2 206/6/2 212/6/2
f 212/7/2 207/7/2 213/7/2
f 208/6/2 209/6/2 214/6/2
f 214/6/2 209/6/2 215/6/2
f 210/2/2 211/2/2 216/2/2
f 216/2/2 211/2/2 217/2/2
f 218/4/2 219/4/2 220/4/2
f 220/4/2 219/4/2 221/4/2
f 222/4/2 223/4/2 226/4/2
f 226/4/2 223/4/2 227/4/2
f 224/4/2 225/4/2 228/4/2
f 228/4/2 225/4/2 229/4/2
f 230/2/2 231/2/2 236/2/2
f 233/2/2 234/2/2 236/2/2
f 232/2/2 233/2/2 236/2/2
f 231/2/2 232/2/2 236/2/2
f 236/2/2 234/2/2 237/2/2
f 235/2/2 236/2/2 239/2/2
f 236/2/2 237/2/2 239/2/2
f 239/2/2 237/2/2 240/2/2
f 240/2/2 237/2/2 241/2/2
f 237/1/2 238/1/2 242/1/2
f 241/2/2 237/2/2 242/2/2
f 242/1/2 238/1/2 243/1/2
f 235/2/2 239/2/2 244/2/2
f 244/2/2 239/2/2 245/2/2
f 240/4/2 241/4/2 246/4/2
f 242/2/2 243/2/2 246/2/2
f 241/2/2 242/2/2 246/2/2
f 246/2/2 243/2/2 247/2/2
f 244/4/2 245/4/2 248/4/2
f 240/4/2 246/4/2 249/4/2
f 246/4/2 247/4/2 249/4/2
f 247/2/2 243/2/2 250/2/2
f 249/4/2 247/4/2 250/4/2
f 250/2/2 243/2/2 251/2/2
f 248/4/2 249/4/2 252/4/2
f 244/4/2 248/4/2 252/4/2
f 250/4/2 251/4/2 252/4/2
f 249/4/2 250/4/2 252/4/2
f 252/4/2 251/4/2 253/4/2
f 253/4/2 251/4/2 254/4/2
f 254/4/2 251/4/2 255/4/2
f 253/4/2 254/4/2 256/4/2
f 256/4/2 254/4/2 257/4/2
f 258/2/2 259/2/2 260/2/2
f 260/2/2 259/2/2 261/2/2
f 261/2/2 259/2/2 262/2/2
f 260/7/2 261/7/2 263/7/2
f 261/6/2 262/6/2 264/6/2
f 263/7/2 261/7/2 264/7/2
f 264/6/2 262/6/2 265/6/2
f 266/1/2 267/1/2 268/1/2
f 268/1/2 267/1/2 269/1/2
f 274/2/3 271/2/3 270/2/3
f 275/2/3 271/2/3 274/2/3
f 276/4/3 272/4/3 271/4/3
f 276/2/3 271/2/3 275/2/3
f 277/4/3 272/4/3 276/4/3
f 279/2/3 275/2/3 274/2/3
f 279/2/3 274/2/3 273/2/3
f 280/2/3 275/2/3 279/2/3
f 281/4/3 278/4/3 277/4/3
f 281/2/3 275/2/3 280/2/3
f 281/4/3 277/4/3 276/4/3
f 281/4/3 276/4/3 275/4/3
f 282/4/3 278/4/3 281/4/3
f 283/4/3 278/4/3 282/4/3
f 284/4/3 278/4/3 283/4/3
f 285/2/3 281/2/3 280/2/3
f 285/2/3 282/2/3 281/2/3
f 286/4/3 283/4/3 282/4/3
f 286/2/3 282/2/3 285/2/3
f 287/4/3 283/4/3 286/4/3
f 290/4/3 289/4/3 288/4/3
f 291/4/3 289/4/3 290/4/3
f 294/6/3 293/6/3 292/6/3
f 295/6/3 293/6/3 294/6/3
f 296/7/3 295/7/3 294/7/3
f 297/7/3 295/7/3 296/7/3
f 298/6/3 297/6/3 296/6/3
f 299/6/3 297/6/3 298/6/3
f 300/7/3 299/7/3 298/7/3
f 301/7/3 299/7/3 300/7/3
f 302/6/3 301/6/3 300/6/3
f 303/6/3 301/6/3 302/6/3
f 304/7/3 303/7/3 302/7/3
f 305/7/3 303/7/3 304/7/3
f 308/4/3 307/4/3 306/4/3
f 309/4/3 307/4/3 308/4/3
f 315/2/3 311/2/3 310/2/3
f 316/2/3 311/2/3 315/2/3
f 317/5/3 314/5/3 313/5/3
f 317/7/3 315/7/3 314/7/3
f 318/7/3 315/7/3 317/7/3
f 319/7/3 315/7/3 318/7/3
f 320/5/3 317/5/3 313/5/3
f 320/6/3 318/6/3 317/6/3
f 321/6/3 318/6/3 320/6/3
f 322/6/3 313/6/3 312/6/3
f 323/5/3 320/5/3 313/5/3
f 323/6/3 313/6/3 322/6/3
f 324/7/3 321/7/3 320/7/3
f 324/5/3 320/5/3 323/5/3
f 325/7/3 321/7/3 324/7/3
f 326/5/3 324/5/3 323/5/3
f 326/6/3 325/6/3 324/6/3
f 327/6/3 325/6/3 326/6/3
f 329/5/3 326/5/3 323/5/3
f 330/7/3 327/7/3 326/7/3
f 330/5/3 326/5/3 329/5/3
f 331/7/3 327/7/3 330/7/3
f 332/5/3 330/5/3 329/5/3
f 332/6/3 331/6/3 330/6/3
f 333/6/3 331/6/3 332/6/3
f 334/5/3 332/5/3 329/5/3
f 334/7/3 333/7/3 332/7/3
f 335/7/3 333/7/3 334/7/3
f 337/6/3 329/6/3 328/6/3
f 338/5/3 334/5/3 329/5/3
f 338/6/3 329/6/3 337/6/3
f 339/6/3 335/6/3 334/6/3
f 339/5/3 334/5/3 338/5/3
f 339/6/3 336/6/3 335/6/3
f 340/6/3 336/6/3 339/6/3
f 342/2/3 341/2/3 340/2/3
f 343/2/3 341/2/3 342/2/3
f 347/5/3 345/5/3 344/5/3
f 348/6/3 346/6/3 345/6/3
f 348/5/3 345/5/3 347/5/3
f 349/6/3 346/6/3 348/6/3
f 353/6/3 350/6/3 349/6/3
f 354/6/3 350/6/3 353/6/3
f 355/5/3 352/5/3 351/5/3
f 356/6/3 353/6/3 352/6/3
f 356/5/3 352/5/3 355/5/3
f 357/6/3 353/6/3 356/6/3
f 361/2/3 359/2/3 358/2/3
f 361/6/3 360/6/3 359/6/3
f 362/6/3 360/6/3 361/6/3
f 363/2/3 361/2/3 358/2/3
f 364/7/3 362/7/3 361/7/3
f 364/2/3 361/2/3 363/2/3
f 365/7/3 362/7/3 364/7/3
f 366/7/3 362/7/3 365/7/3
f 367/7/3 362/7/3 366/7/3
f 373/2/3 369/2/3 368/2/3
f 373/6/3 372/6/3 371/6/3
f 373/6/3 371/6/3 370/6/3
f 373/6/3 370/6/3 369/6/3
f 374/6/3 372/6/3 373/6/3
f 375/2/3 373/2/3 368/2/3
f 376/7/3 374/7/3 373/7/3
f 376/2/3 373/2/3 375/2/3
f 377/7/3 374/7/3 376/7/3
f 380/1/3 379/1/3 378/1/3
f 381/1/3 379/1/3 380/1/3
f 382/1/3 379/1/3 381/1/3
f 385/4/3 384/4/3 383/4/3
f 386/4/3 384/4/3 385/4/3
f 390/1/3 388/1/3 387/1/3
f 390/1/3 389/1/3 388/1/3
f 391/1/3 389/1/3 390/1/3
f 394/4/3 393/4/3 392/4/3
f 395/4/3 393/4/3 394/4/3
f 398/4/3 397/4/3 396/4/3
f 399/4/3 397/4/3 398/4/3
f 402/4/3 401/4/3 400/4/3
f 403/4/3 401/4/3 402/4/3
f 406/2/4 407/2/4 409/2/4
f 407/7/4 408/7/4 409/7/4
f 409/7/4 408/7/4 410/7/4
f 404/1/4 405/1/4 411/1/4
f 411/1/4 405/1/4 412/1/4
f 406/2/4 409/2/4 414/2/4
f 409/6/4 410/6/4 415/6/4
f 414/2/4 409/2/4 415/2/4
f 415/6/4 410/6/4 416/6/4
f 416/6/4 410/6/4 417/6/4
f 417/6/4 410/6/4 418/6/4
f 413/6/4 414/6/4 419/6/4
f 414/6/4 415/6/4 419/6/4
f 419/6/4 415/6/4 420/6/4
f 421/6/4 422/6/4 423/6/4
f 423/6/4 422/6/4 424/6/4
f 424/6/4 422/6/4 425/6/4
f 424/2/4 425/2/4 429/2/4
f 427/7/4 428/7/4 429/7/4
f 426/7/4 427/7/4 429/7/4
f 425/7/4 426/7/4 429/7/4
f 429/7/4 428/7/4 430/7/4
f 424/2/4 429/2/4 433/2/4
f 429/6/4 430/6/4 434/6/4
f 433/2/4 429/2/4 434/2/4
f 434/6/4 430/6/4 435/6/4
f 431/1/4 432/1/4 436/1/4
f 436/1/4 432/1/4 437/1/4
f 441/5/4 442/5/4 444/5/4
f 442/7/4 443/7/4 444/7/4
f 444/7/4 443/7/4 445/7/4
f 445/7/4 443/7/4 446/7/4
f 441/5/4 444/5/4 447/5/4
f 444/6/4 445/6/4 447/6/4
f 447/6/4 445/6/4 448/6/4
f 438/5/4 439/5/4 449/5/4
f 449/5/4 439/5/4 450/5/4
f 440/6/4 441/6/4 451/6/4
f 441/5/4 447/5/4 451/5/4
f 447/7/4 448/7/4 452/7/4
f 451/5/4 447/5/4 452/5/4
f 452/7/4 448/7/4 453/7/4
f 451/3/4 452/3/4 454/3/4
f 452/6/4 453/6/4 454/6/4
f 454/6/4 453/6/4 455/6/4
f 440/6/4 451/6/4 458/6/4
f 451/3/4 454/3/4 458/3/4
f 454/7/4 455/7/4 459/7/4
f 458/3/4 454/3/4 459/3/4
f 459/7/4 455/7/4 460/7/4
f 458/5/4 459/5/4 461/5/4
f 459/6/4 460/6/4 461/6/4
f 461/6/4 460/6/4 462/6/4
f 458/5/4 461/5/4 463/5/4
f 461/7/4 462/7/4 463/7/4
f 463/7/4 462/7/4 464/7/4
f 456/5/4 457/5/4 466/5/4
f 466/5/4 457/5/4 467/5/4
f 440/6/4 458/6/4 468/6/4
f 458/5/4 463/5/4 469/5/4
f 468/6/4 458/6/4 469/6/4
f 463/6/4 464/6/4 470/6/4
f 469/5/4 463/5/4 470/5/4
f 464/6/4 465/6/4 470/6/4
f 470/6/4 465/6/4 471/6/4
f 474/4/4 475/4/4 476/4/4
f 476/4/4 475/4/4 477/4/4
f 472/2/4 473/2/4 479/2/4
f 479/2/4 473/2/4 480/2/4
f 478/6/4 479/6/4 483/6/4
f 483/6/4 479/6/4 484/6/4
f 481/4/4 482/4/4 485/4/4
f 485/4/4 482/4/4 486/4/4
f 483/7/4 484/7/4 487/7/4
f 487/7/4 484/7/4 488/7/4
f 487/6/4 488/6/4 489/6/4
f 489/6/4 488/6/4 490/6/4
f 489/7/4 490/7/4 491/7/4
f 491/7/4 490/7/4 492/7/4
f 491/6/4 492/6/4 493/6/4
f 493/6/4 492/6/4 494/6/4
f 493/7/4 494/7/4 495/7/4
f 495/7/4 494/7/4 496/7/4
f 496/2/4 497/2/4 500/2/4
f 500/2/4 497/2/4 501/2/4
f 498/4/4 499/4/4 502/4/4
f 502/4/4 499/4/4 503/4/4
f 505/2/4 506/2/4 508/2/4
f 506/4/4 507/4/4 508/4/4
f 508/4/4 507/4/4 509/4/4
f 509/4/4 507/4/4 510/4/4
f 504/1/4 505/1/4 513/1/4
f 513/1/4 505/1/4 514/1/4
f 505/2/4 508/2/4 515/2/4
f 514/1/4 505/1/4 515/1/4
f 515/2/4 508/2/4 516/2/4
f 514/2/4 515/2/4 517/2/4
f 515/8/4 516/8/4 517/8/4
f 517/8/4 516/8/4 518/8/4
f 510/4/4 511/4/4 519/4/4
f 517/2/4 518/2/4 521/2/4
f 514/2/4 517/2/4 521/2/4
f 521/2/4 518/2/4 522/2/4
f 522/2/4 518/2/4 523/2/4
f 509/2/4 510/2/4 524/2/4
f 519/4/4 520/4/4 525/4/4
f 510/4/4 519/4/4 525/4/4
f 524/2/4 510/2/4 525/2/4
f 525/4/4 520/4/4 526/4/4
f 522/2/4 523/2/4 527/2/4
f 523/2/4 524/2/4 527/2/4
f 524/2/4 525/2/4 527/2/4
f 527/2/4 525/2/4 528/2/4
f 522/2/4 527/2/4 530/2/4
f 530/2/4 527/2/4 531/2/4
f 531/2/4 527/2/4 532/2/4
f 529/2/4 530/2/4 534/2/4
f 530/2/4 531/2/4 534/2/4
f 534/2/4 531/2/4 535/2/4
f 532/2/4 533/2/4 536/2/4
f 526/4/4 520/4/4 537/4/4
f 537/4/4 520/4/4 538/4/4
f 512/2/4 513/2/4 539/2/4
f 539/2/4 513/2/4 540/2/4
f 529/2/4 534/2/4 541/2/4
f 534/8/4 535/8/4 542/8/4
f 541/2/4 534/2/4 542/2/4
f 542/8/4 535/8/4 543/8/4
f 536/4/4 537/4/4 544/4/4
f 544/4/4 537/4/4 545/4/4
f 542/2/4 543/2/4 546/2/4
f 532/2/4 536/2/4 547/2/4
f 536/4/4 544/4/4 548/4/4
f 547/2/4 536/2/4 548/2/4
f 548/4/4 544/4/4 549/4/4
f 540/1/4 541/1/4 550/1/4
f 541/1/4 542/1/4 550/1/4
f 542/2/4 546/2/4 551/2/4
f 550/1/4 542/1/4 551/1/4
f 546/4/4 547/4/4 552/4/4
f 551/2/4 546/2/4 552/2/4
f 547/4/4 548/4/4 552/4/4
f 552/4/4 548/4/4 553/4/4
f 556/4/4 557/4/4 558/4/4
f 554/4/4 555/4/4 560/4/4
f 560/4/4 555/4/4 561/4/4
f 562/4/4 563/4/4 565/4/4
f 558/1/4 559/1/4 566/1/4
f 556/4/4 558/4/4 566/4/4
f 566/1/4 559/1/4 567/1/4
f 564/4/4 565/4/4 569/4/4
f 565/4/4 563/4/4 570/4/4
f 569/4/4 565/4/4 570/4/4
f 570/4/4 563/4/4 571/4/4
f 571/4/4 563/4/4 572/4/4
f 556/4/4 566/4/4 573/4/4
f 573/4/4 566/4/4 574/4/4
f 568/4/4 569/4/4 575/4/4
f 575/4/4 569/4/4 576/4/4
f 581/5/5 578/5/5 577/5/5
f 582/5/5 578/5/5 581/5/5
f 583/5/5 580/5/5 579/5/5
f 584/5/5 580/5/5 583/5/5
f 589/2/5 586/2/5 585/2/5
f 590/2/5 586/2/5 589/2/5
f 591/2/5 588/2/5 587/2/5
f 592/2/5 588/2/5 591/2/5
f 597/6/5 594/6/5 593/6/5
f 598/6/5 594/6/5 597/6/5
f 599/6/5 596/6/5 595/6/5
f 600/6/5 596/6/5 599/6/5
f 601/6/5 599/6/5 598/6/5
f 602/6/5 599/6/5 601/6/5
f 604/5/5 602/5/5 601/5/5
f 605/5/5 602/5/5 604/5/5
f 607/6/5 605/6/5 604/6/5
f 607/6/5 606/6/5 605/6/5
f 607/6/5 604/6/5 603/6/5
f 608/6/5 606/6/5 607/6/5
f 611/5/5 610/5/5 609/5/5
f 612/5/5 610/5/5 611/5/5
f 620/6/5 614/6/5 613/6/5
f 621/7/5 615/7/5 614/7/5
f 621/6/5 614/6/5 620/6/5
f 622/6/5 616/6/5 615/6/5
f 622/7/5 615/7/5 621/7/5
f 623/7/5 617/7/5 616/7/5
f 623/6/5 616/6/5 622/6/5
f 624/6/5 618/6/5 617/6/5
f 624/7/5 617/7/5 623/7/5
f 625/7/5 619/7/5 618/7/5
f 625/6/5 618/6/5 624/6/5
f 626/7/5 619/7/5 625/7/5
f 634/6/5 628/6/5 627/6/5
f 635/7/5 629/7/5 628/7/5
f 635/6/5 628/6/5 634/6/5
f 636/6/5 630/6/5 629/6/5
f 636/7/5 629/7/5 635/7/5
f 637/7/5 631/7/5 630/7/5
f 637/6/5 630/6/5 636/6/5
f 638/6/5 632/6/5 631/6/5
f 638/7/5 631/7/5 637/7/5
f 639/7/5 633/7/5 632/7/5
f 639/6/5 632/6/5 638/6/5
f 640/7/5 633/7/5 639/7/5
f 643/2/5 642/2/5 641/2/5
f 644/2/5 642/2/5 643/2/5
f 645/2/5 642/2/5 644/2/5
f 646/2/5 642/2/5 645/2/5
f 647/2/5 642/2/5 646/2/5
f 648/2/5 642/2/5 647/2/5
f 649/2/5 642/2/5 648/2/5
f 651/2/5 643/2/5 641/2/5
f 652/2/5 643/2/5 651/2/5
f 653/2/5 642/2/5 649/2/5
f 654/2/5 642/2/5 653/2/5
f 656/2/5 651/2/5 650/2/5
f 657/2/5 655/2/5 654/2/5
f 658/2/5 656/2/5 650/2/5
f 659/2/5 656/2/5 658/2/5
f 660/2/5 655/2/5 657/2/5
f 661/2/5 655/2/5 660/2/5
f 666/2/5 663/2/5 662/2/5
f 669/2/5 665/2/5 664/2/5
f 670/2/5 667/2/5 666/2/5
f 670/2/5 666/2/5 662/2/5
f 671/2/5 667/2/5 670/2/5
f 677/2/5 669/2/5 668/2/5
f 678/2/5 665/2/5 669/2/5
f 678/2/5 669/2/5 677/2/5
f 679/2/5 676/2/5 675/2/5
f 679/2/5 677/2/5 676/2/5
f 679/2/5 675/2/5 674/2/5
f 679/2/5 674/2/5 673/2/5
f 679/2/5 673/2/5 672/2/5
f 679/2/5 672/2/5 671/2/5
f 680/2/5 677/2/5 679/2/5
f 685/2/5 682/2/5 681/2/5
f 686/2/5 682/2/5 685/2/5
f 687/2/5 684/2/5 683/2/5
f 688/2/5 684/2/5 687/2/5
f 693/1/5 690/1/5 689/1/5
f 694/1/5 690/1/5 693/1/5
f 695/1/5 692/1/5 691/1/5
f 696/1/5 692/1/5 695/1/5
f 697/4/5 695/4/5 694/4/5
f 698/4/5 695/4/5 697/4/5
f 703/1/5 700/1/5 699/1/5
f 704/1/5 700/1/5 703/1/5
f 705/1/5 702/1/5 701/1/5
f 706/1/5 702/1/5 705/1/5
f 715/4/5 708/4/5 707/4/5
f 715/4/5 709/4/5 708/4/5
f 715/4/5 710/4/5 709/4/5
f 716/4/5 710/4/5 715/4/5
f 717/4/5 714/4/5 713/4/5
f 717/4/5 713/4/5 712/4/5
f 717/4/5 712/4/5 711/4/5
f 718/4/5 714/4/5 717/4/5
f 721/4/5 720/4/5 719/4/5
f 722/4/5 720/4/5 721/4/5
f 727/4/5 724/4/5 723/4/5
f 728/4/5 724/4/5 727/4/5
f 729/4/5 726/4/5 725/4/5
f 730/4/5 726/4/5 729/4/5
f 731/5/6 732/5/6 735/5/6
f 735/5/6 732/5/6 736/5/6
f 733/5/6 734/5/6 737/5/6
f 737/5/6 734/5/6 738/5/6
f 739/6/6 740/6/6 743/6/6
f 743/6/6 740/6/6 744/6/6
f 741/7/6 742/7/6 745/7/6
f 745/7/6 742/7/6 746/7/6
f 743/7/6 744/7/6 747/7/6
f 747/7/6 744/7/6 748/7/6
f 745/6/6 746/6/6 749/6/6
f 749/6/6 746/6/6 750/6/6
f 751/4/6 752/4/6 755/4/6
f 755/4/6 752/4/6 756/4/6
f 753/4/6 754/4/6 757/4/6
f 757/4/6 754/4/6 758/4/6
f 759/1/6 760/1/6 761/1/6
f 761/1/6 760/1/6 762/1/6
f 763/1/6 764/1/6 767/1/6
f 767/1/6 764/1/6 768/1/6
f 765/1/6 766/1/6 769/1/6
f 769/1/6 766/1/6 770/1/6
f 771/4/6 772/4/6 775/4/6
f 775/4/6 772/4/6 776/4/6
f 773/4/6 774/4/6 777/4/6
f 777/4/6 774/4/6 778/4/6
f 779/4/6 780/4/6 783/4/6
f 783/4/6 780/4/6 784/4/6
f 781/4/6 782/4/6 785/4/6
f 785/4/6 782/4/6 786/4/6
f 787/4/6 788/4/6 791/4/6
f 791/4/6 788/4/6 792/4/6
f 789/4/6 790/4/6 793/4/6
f 793/4/6 790/4/6 794/4/6
f 795/4/6 796/4/6 798/4/6
f 798/4/6 796/4/6 799/4/6
f 797/4/6 798/4/6 801/4/6
f 799/4/6 800/4/6 801/4/6
f 798/4/6 799/4/6 801/4/6
f 801/4/6 800/4/6 802/4/6
f 797/4/6 801/4/6 803/4/6
f 803/4/6 801/4/6 804/4/6
f 797/4/6 803/4/6 805/4/6
f 805/4/6 803/4/6 806/4/6
f 806/4/6 803/4/6 807/4/6
f 802/4/6 800/4/6 809/4/6
f 809/4/6 800/4/6 810/4/6
f 807/4/6 808/4/6 811/4/6
f 806/4/6 807/4/6 811/4/6
f 811/4/6 808/4/6 812/4/6
f 802/4/6 809/4/6 813/4/6
f 813/4/6 809/4/6 814/4/6
f 815/4/6 816/4/6 818/4/6
f 818/4/6 816/4/6 819/4/6
f 819/4/6 816/4/6 820/4/6
f 817/4/6 818/4/6 821/4/6
f 818/4/6 819/4/6 821/4/6
f 821/4/6 819/4/6 822/4/6
f 817/4/6 821/4/6 823/4/6
f 823/4/6 821/4/6 824/4/6
f 820/4/6 816/4/6 826/4/6
f 826/4/6 816/4/6 827/4/6
f 825/4/6 826/4/6 828/4/6
f 828/4/6 826/4/6 829/4/6
f 830/4/6 831/4/6 833/4/6
f 832/4/6 833/4/6 834/4/6
f 833/4/6 831/4/6 835/4/6
f 834/4/6 833/4/6 835/4/6
