# MagicaVoxel @ Ephtracy

# group
o 

# material
mtllib BluePlayer2.mtl
usemtl palette

# normals
vn -1 0 0
vn 1 0 0
vn 0 0 1
vn 0 0 -1
vn 0 -1 0
vn 0 1 0

# texcoords
vt 0.185547 0.5
vt 0.224609 0.5
vt 0.759766 0.5
vt 0.763672 0.5
vt 0.787109 0.5
vt 0.794922 0.5
vt 0.798828 0.5
vt 0.994141 0.5

# verts
v -0.7 2.2 0
v -0.7 2.2 -0.1
v -0.7 2.5 0
v -0.7 2.5 -0.1
v -0.6 1.3 0.1
v -0.6 1.3 -0.1
v -0.6 1.6 0.1
v -0.6 1.6 -0.1
v -0.6 1.8 0.4
v -0.6 1.8 0.3
v -0.6 1.9 0.5
v -0.6 1.9 0.4
v -0.6 1.9 0.3
v -0.6 1.9 0.2
v -0.6 1.9 0.1
v -0.6 1.9 0
v -0.6 1.9 -0.1
v -0.6 2 0.4
v -0.6 2 0.3
v -0.6 2 -0.1
v -0.6 2 -0.2
v -0.6 2 -0.3
v -0.6 2 -0.4
v -0.6 2.1 0.1
v -0.6 2.1 0
v -0.6 2.1 -0.1
v -0.6 2.2 0.4
v -0.6 2.2 0.3
v -0.6 2.2 0.2
v -0.6 2.2 0.1
v -0.6 2.2 0
v -0.6 2.2 -0.1
v -0.6 2.3 0.5
v -0.6 2.3 0.4
v -0.6 2.3 0.3
v -0.6 2.3 -0.2
v -0.6 2.3 -0.3
v -0.6 2.3 -0.4
v -0.6 2.4 0.3
v -0.6 2.4 0.2
v -0.6 2.4 0.1
v -0.6 2.5 0.1
v -0.6 2.5 0
v -0.6 2.5 -0.1
v -0.6 2.6 0.4
v -0.6 2.6 0.3
v -0.6 2.6 0.2
v -0.6 2.6 0.1
v -0.6 2.6 0
v -0.6 2.6 -0.2
v -0.6 2.7 -0.2
v -0.6 2.7 -0.3
v -0.5 1.8 0.2
v -0.5 1.8 0.1
v -0.5 1.9 0.3
v -0.5 1.9 0.2
v -0.5 1.9 0.1
v -0.5 1.9 0
v -0.5 1.9 -0.1
v -0.5 1.9 -0.4
v -0.5 2 0.3
v -0.5 2 -0.1
v -0.5 2 -0.2
v -0.5 2 -0.3
v -0.5 2 -0.4
v -0.5 2.1 0.1
v -0.5 2.1 0
v -0.5 2.1 -0.1
v -0.5 2.2 0.4
v -0.5 2.2 0.3
v -0.5 2.2 0.2
v -0.5 2.2 0.1
v -0.5 2.2 0
v -0.5 2.2 -0.1
v -0.5 2.3 0.5
v -0.5 2.3 0.4
v -0.5 2.3 0.3
v -0.5 2.3 0.2
v -0.5 2.3 0.1
v -0.5 2.3 -0.2
v -0.5 2.3 -0.3
v -0.5 2.3 -0.4
v -0.5 2.4 0.3
v -0.5 2.4 0.2
v -0.5 2.4 0.1
v -0.5 2.5 0.1
v -0.5 2.5 0
v -0.5 2.6 0.4
v -0.5 2.6 0.3
v -0.5 2.6 0.2
v -0.5 2.6 0.1
v -0.5 2.6 0
v -0.5 2.6 -0.2
v -0.5 2.6 -0.3
v -0.5 2.6 -0.4
v -0.5 2.6 -0.5
v -0.5 2.7 0.5
v -0.5 2.7 0.4
v -0.5 2.7 -0.2
v -0.5 2.7 -0.3
v -0.5 2.7 -0.4
v -0.5 2.7 -0.5
v -0.5 2.8 0.4
v -0.5 2.8 -0.4
v -0.4 1 0.2
v -0.4 1 -0.2
v -0.4 1.2 0.2
v -0.4 1.2 -0.1
v -0.4 1.2 -0.2
v -0.4 1.3 0.1
v -0.4 1.3 -0.1
v -0.4 1.4 0.3
v -0.4 1.4 0.2
v -0.4 1.4 -0.1
v -0.4 1.4 -0.2
v -0.4 1.6 0.3
v -0.4 1.6 0.1
v -0.4 1.6 -0.1
v -0.4 1.6 -0.2
v -0.4 1.8 0.3
v -0.4 1.8 0.2
v -0.4 1.8 0.1
v -0.4 1.8 -0.1
v -0.4 1.8 -0.2
v -0.4 1.9 0.6
v -0.4 1.9 0.5
v -0.4 1.9 0.3
v -0.4 2 0.5
v -0.4 2 0.3
v -0.4 2.2 0.5
v -0.4 2.3 0.6
v -0.4 2.3 0.5
v -0.4 2.7 0.5
v -0.4 2.7 0.4
v -0.4 2.7 -0.4
v -0.4 2.7 -0.5
v -0.4 2.8 0.5
v -0.4 2.8 0.4
v -0.4 2.8 -0.4
v -0.4 2.8 -0.5
v -0.3 1.8 0.3
v -0.3 1.8 0.2
v -0.3 1.8 -0.1
v -0.3 1.8 -0.2
v -0.3 1.9 0.3
v -0.3 1.9 0.2
v -0.3 1.9 -0.1
v -0.3 1.9 -0.2
v -0.3 2.3 0.6
v -0.3 2.3 0.5
v -0.3 2.7 0.6
v -0.3 2.7 0.5
v -0.2 1.8 0.6
v -0.2 1.8 0.5
v -0.2 1.9 0.5
v -0.2 2.2 0.5
v -0.2 2.3 0.6
v -0.2 2.3 0.5
v -0.1 2.1 -0.4
v -0.1 2.1 -0.5
v -0.1 2.4 -0.4
v -0.1 2.4 -0.5
v -0.1 2.5 0.6
v -0.1 2.5 0.5
v -0.1 2.7 0.6
v -0.1 2.7 0.5
v 0 2.1 0.6
v 0 2.1 0.5
v 0 2.2 0.5
v 0 2.5 0.6
v 0 2.5 0.5
v 0.1 1 0.2
v 0.1 1 -0.2
v 0.1 1.2 0.2
v 0.1 1.2 -0.1
v 0.1 1.2 -0.2
v 0.1 1.4 0.3
v 0.1 1.4 0.2
v 0.1 1.4 -0.1
v 0.1 1.5 0.3
v 0.1 1.5 0.2
v 0.1 1.8 0.6
v 0.1 1.8 0.5
v 0.1 1.9 0.5
v 0.1 2.1 0.6
v 0.1 2.1 0.5
v 0.1 2.6 -0.4
v 0.1 2.6 -0.5
v 0.1 2.7 -0.4
v 0.1 2.7 -0.5
v 0.2 2.1 0.6
v 0.2 2.1 0.5
v 0.2 2.2 0.6
v 0.2 2.2 0.5
v 0.2 2.3 0.6
v 0.2 2.3 0.5
v 0.2 2.7 0.6
v 0.2 2.7 0.5
v 0.3 1.9 0.6
v 0.3 1.9 0.5
v 0.3 2.1 0.6
v 0.3 2.1 0.5
v 0.3 2.2 0.6
v 0.3 2.2 0.5
v 0.3 2.3 0.6
v 0.3 2.3 0.5
v 0.4 2.3 0.6
v 0.4 2.3 0.5
v 0.4 2.4 0.6
v 0.4 2.4 0.5
v 0.5 1.9 0.4
v 0.5 1.9 0.3
v 0.5 2 0.4
v 0.5 2 0.3
v -0.5 1.8 0.4
v -0.5 1.8 0.3
v -0.5 1.9 0.5
v -0.5 1.9 0.4
v -0.5 1.9 0.3
v -0.5 2 0.5
v -0.5 2 0.4
v -0.3 1.9 0.6
v -0.3 1.9 0.5
v -0.3 2.2 0.5
v -0.3 2.3 0.6
v -0.3 2.3 0.5
v -0.2 2.5 0.6
v -0.2 2.5 0.5
v -0.2 2.7 0.6
v -0.2 2.7 0.5
v -0.1 1 0.2
v -0.1 1 -0.2
v -0.1 1.2 0.2
v -0.1 1.2 -0.1
v -0.1 1.2 -0.2
v -0.1 1.4 0.3
v -0.1 1.4 0.2
v -0.1 1.4 -0.1
v -0.1 1.5 0.3
v -0.1 1.5 0.2
v -0.1 1.8 0.6
v -0.1 1.8 0.5
v -0.1 1.9 0.5
v -0.1 2 0.6
v -0.1 2 0.5
v -0.1 2.1 0.6
v -0.1 2.1 0.5
v -0.1 2.2 0.5
v -0.1 2.5 0.6
v -0.1 2.5 0.5
v 0 2 0.6
v 0 2 0.5
v 0 2.1 0.6
v 0 2.1 0.5
v 0 2.5 0.6
v 0 2.5 0.5
v 0 2.6 -0.4
v 0 2.6 -0.5
v 0 2.7 0.6
v 0 2.7 0.5
v 0 2.7 -0.4
v 0 2.7 -0.5
v 0.1 2.1 0.6
v 0.1 2.1 0.5
v 0.1 2.1 -0.4
v 0.1 2.1 -0.5
v 0.1 2.2 0.5
v 0.1 2.4 -0.4
v 0.1 2.4 -0.5
v 0.1 2.5 0.6
v 0.1 2.5 0.5
v 0.2 1.8 0.6
v 0.2 1.8 0.5
v 0.2 1.9 0.5
v 0.2 2.1 0.6
v 0.2 2.1 0.5
v 0.3 1.8 0.3
v 0.3 1.8 0.2
v 0.3 1.8 -0.1
v 0.3 1.8 -0.2
v 0.3 1.9 0.3
v 0.3 1.9 0.2
v 0.3 1.9 -0.1
v 0.3 1.9 -0.2
v 0.3 2.3 0.6
v 0.3 2.3 0.5
v 0.3 2.7 0.6
v 0.3 2.7 0.5
v 0.4 1 0.2
v 0.4 1 -0.2
v 0.4 1.2 0.2
v 0.4 1.2 -0.1
v 0.4 1.2 -0.2
v 0.4 1.3 0.1
v 0.4 1.3 -0.1
v 0.4 1.4 0.3
v 0.4 1.4 0.2
v 0.4 1.4 -0.1
v 0.4 1.4 -0.2
v 0.4 1.6 0.3
v 0.4 1.6 0.1
v 0.4 1.6 -0.1
v 0.4 1.6 -0.2
v 0.4 1.8 0.3
v 0.4 1.8 0.2
v 0.4 1.8 -0.1
v 0.4 1.8 -0.2
v 0.4 1.9 0.6
v 0.4 1.9 0.5
v 0.4 1.9 0.3
v 0.4 1.9 0.2
v 0.4 1.9 0.1
v 0.4 2 0.5
v 0.4 2 0.3
v 0.4 2.1 0.6
v 0.4 2.1 0.5
v 0.4 2.7 0.5
v 0.4 2.7 0.4
v 0.4 2.7 -0.4
v 0.4 2.7 -0.5
v 0.4 2.8 0.5
v 0.4 2.8 0.4
v 0.4 2.8 -0.4
v 0.4 2.8 -0.5
v 0.5 1.9 0.3
v 0.5 1.9 0.1
v 0.5 1.9 -0.1
v 0.5 1.9 -0.4
v 0.5 2 0.5
v 0.5 2 0.4
v 0.5 2 0.2
v 0.5 2 0.1
v 0.5 2 -0.3
v 0.5 2 -0.4
v 0.5 2.1 0.6
v 0.5 2.1 0.5
v 0.5 2.1 0
v 0.5 2.1 -0.1
v 0.5 2.1 -0.3
v 0.5 2.1 -0.4
v 0.5 2.2 0.5
v 0.5 2.2 0.4
v 0.5 2.2 0
v 0.5 2.2 -0.1
v 0.5 2.2 -0.2
v 0.5 2.3 0.5
v 0.5 2.3 0.4
v 0.5 2.3 0.3
v 0.5 2.3 0.2
v 0.5 2.3 0.1
v 0.5 2.3 0
v 0.5 2.4 0.6
v 0.5 2.4 0.5
v 0.5 2.4 0.4
v 0.5 2.4 0.3
v 0.5 2.4 0.2
v 0.5 2.4 0.1
v 0.5 2.4 0
v 0.5 2.4 -0.2
v 0.5 2.4 -0.3
v 0.5 2.4 -0.4
v 0.5 2.5 0.2
v 0.5 2.5 0
v 0.5 2.6 0.4
v 0.5 2.6 0.3
v 0.5 2.6 0.1
v 0.5 2.6 0
v 0.5 2.6 -0.1
v 0.5 2.6 -0.3
v 0.5 2.6 -0.4
v 0.5 2.6 -0.5
v 0.5 2.7 0.5
v 0.5 2.7 0.4
v 0.5 2.7 0.3
v 0.5 2.7 0.2
v 0.5 2.7 0.1
v 0.5 2.7 0
v 0.5 2.7 -0.1
v 0.5 2.7 -0.3
v 0.5 2.7 -0.4
v 0.5 2.7 -0.5
v 0.5 2.8 0.4
v 0.5 2.8 -0.4
v 0.6 1.3 0.1
v 0.6 1.3 -0.1
v 0.6 1.6 0.1
v 0.6 1.6 -0.1
v 0.6 1.9 0.4
v 0.6 1.9 0.3
v 0.6 1.9 0.1
v 0.6 1.9 -0.1
v 0.6 2 0.2
v 0.6 2 0.1
v 0.6 2.1 0
v 0.6 2.1 -0.1
v 0.6 2.1 -0.3
v 0.6 2.1 -0.4
v 0.6 2.2 0
v 0.6 2.2 -0.1
v 0.6 2.2 -0.2
v 0.6 2.3 0.5
v 0.6 2.3 0.4
v 0.6 2.4 0.5
v 0.6 2.4 0.4
v 0.6 2.4 0.3
v 0.6 2.4 0.2
v 0.6 2.4 0.1
v 0.6 2.4 0
v 0.6 2.4 -0.2
v 0.6 2.4 -0.3
v 0.6 2.4 -0.4
v 0.6 2.5 0.2
v 0.6 2.5 0
v 0.6 2.5 -0.1
v 0.6 2.6 0.4
v 0.6 2.6 0.3
v 0.6 2.6 0.1
v 0.6 2.6 0
v 0.6 2.6 -0.1
v 0.6 2.7 0.3
v 0.6 2.7 0.2
v 0.6 2.7 0.1
v 0.6 2.7 0
v 0.6 2.7 -0.1
v 0.6 2.7 -0.3
v 0.7 2.2 0
v 0.7 2.2 -0.1
v 0.7 2.5 0
v 0.7 2.5 -0.1
v -0.4 1.9 0.6
v -0.4 2.3 0.6
v -0.3 1.9 0.6
v -0.3 2.3 0.6
v -0.3 2.7 0.6
v -0.2 1.8 0.6
v -0.2 2.3 0.6
v -0.2 2.5 0.6
v -0.2 2.7 0.6
v -0.1 1.8 0.6
v -0.1 2 0.6
v -0.1 2.1 0.6
v -0.1 2.5 0.6
v -0.1 2.7 0.6
v 0 2 0.6
v 0 2.1 0.6
v 0 2.5 0.6
v 0 2.7 0.6
v 0.1 1.8 0.6
v 0.1 2.1 0.6
v 0.1 2.5 0.6
v 0.2 1.8 0.6
v 0.2 2.1 0.6
v 0.2 2.2 0.6
v 0.2 2.3 0.6
v 0.2 2.7 0.6
v 0.3 1.9 0.6
v 0.3 2.1 0.6
v 0.3 2.2 0.6
v 0.3 2.3 0.6
v 0.3 2.7 0.6
v 0.4 1.9 0.6
v 0.4 2.1 0.6
v 0.4 2.3 0.6
v 0.4 2.4 0.6
v 0.5 2.1 0.6
v 0.5 2.4 0.6
v -0.6 1.9 0.5
v -0.6 2.3 0.5
v -0.5 1.9 0.5
v -0.5 2 0.5
v -0.5 2.2 0.5
v -0.5 2.3 0.5
v -0.5 2.7 0.5
v -0.4 2 0.5
v -0.4 2.2 0.5
v -0.4 2.3 0.5
v -0.4 2.7 0.5
v -0.4 2.8 0.5
v -0.3 1.9 0.5
v -0.3 2.2 0.5
v -0.3 2.3 0.5
v -0.3 2.7 0.5
v -0.2 1.9 0.5
v -0.2 2.2 0.5
v -0.2 2.3 0.5
v -0.2 2.5 0.5
v -0.2 2.7 0.5
v -0.1 1.9 0.5
v -0.1 2 0.5
v -0.1 2.1 0.5
v -0.1 2.2 0.5
v -0.1 2.5 0.5
v -0.1 2.7 0.5
v 0 2 0.5
v 0 2.1 0.5
v 0 2.2 0.5
v 0 2.5 0.5
v 0 2.7 0.5
v 0.1 1.9 0.5
v 0.1 2.1 0.5
v 0.1 2.2 0.5
v 0.1 2.5 0.5
v 0.2 1.9 0.5
v 0.2 2.1 0.5
v 0.2 2.2 0.5
v 0.2 2.3 0.5
v 0.2 2.7 0.5
v 0.3 1.9 0.5
v 0.3 2.1 0.5
v 0.3 2.2 0.5
v 0.3 2.3 0.5
v 0.3 2.7 0.5
v 0.4 2 0.5
v 0.4 2.1 0.5
v 0.4 2.3 0.5
v 0.4 2.4 0.5
v 0.4 2.7 0.5
v 0.4 2.8 0.5
v 0.5 2 0.5
v 0.5 2.1 0.5
v 0.5 2.3 0.5
v 0.5 2.4 0.5
v 0.5 2.7 0.5
v 0.6 2.3 0.5
v 0.6 2.4 0.5
v -0.6 1.8 0.4
v -0.6 1.9 0.4
v -0.6 2.3 0.4
v -0.6 2.6 0.4
v -0.5 1.8 0.4
v -0.5 1.9 0.4
v -0.5 2.3 0.4
v -0.5 2.6 0.4
v -0.5 2.7 0.4
v -0.5 2.8 0.4
v -0.4 2.7 0.4
v -0.4 2.8 0.4
v 0.4 2.7 0.4
v 0.4 2.8 0.4
v 0.5 1.9 0.4
v 0.5 2 0.4
v 0.5 2.2 0.4
v 0.5 2.3 0.4
v 0.5 2.4 0.4
v 0.5 2.6 0.4
v 0.5 2.7 0.4
v 0.5 2.8 0.4
v 0.6 1.9 0.4
v 0.6 2.3 0.4
v 0.6 2.4 0.4
v 0.6 2.6 0.4
v -0.6 2.2 0.3
v -0.6 2.3 0.3
v -0.5 1.9 0.3
v -0.5 2 0.3
v -0.5 2.2 0.3
v -0.5 2.3 0.3
v -0.4 1.4 0.3
v -0.4 1.6 0.3
v -0.4 1.8 0.3
v -0.4 1.9 0.3
v -0.4 2 0.3
v -0.3 1.8 0.3
v -0.3 1.9 0.3
v -0.2 1.7 0.3
v -0.2 1.8 0.3
v -0.2 1.9 0.3
v -0.1 1.4 0.3
v -0.1 1.5 0.3
v -0.1 1.6 0.3
v -0.1 1.7 0.3
v -0.1 1.8 0.3
v 0.1 1.4 0.3
v 0.1 1.5 0.3
v 0.1 1.6 0.3
v 0.1 1.7 0.3
v 0.1 1.8 0.3
v 0.2 1.7 0.3
v 0.2 1.8 0.3
v 0.2 1.9 0.3
v 0.3 1.8 0.3
v 0.3 1.9 0.3
v 0.4 1.4 0.3
v 0.4 1.6 0.3
v 0.4 1.8 0.3
v 0.4 1.9 0.3
v 0.4 2 0.3
v 0.5 1.9 0.3
v 0.5 2 0.3
v 0.5 2.6 0.3
v 0.5 2.7 0.3
v 0.6 2.6 0.3
v 0.6 2.7 0.3
v -0.6 1.9 0.2
v -0.6 2.2 0.2
v -0.6 2.4 0.2
v -0.6 2.6 0.2
v -0.5 1.8 0.2
v -0.5 1.9 0.2
v -0.5 2.2 0.2
v -0.5 2.4 0.2
v -0.5 2.6 0.2
v -0.4 1 0.2
v -0.4 1.2 0.2
v -0.4 1.4 0.2
v -0.4 1.8 0.2
v -0.4 1.9 0.2
v -0.3 1.8 0.2
v -0.3 1.9 0.2
v -0.1 1 0.2
v -0.1 1.2 0.2
v -0.1 1.4 0.2
v -0.1 1.5 0.2
v 0.1 1 0.2
v 0.1 1.2 0.2
v 0.1 1.4 0.2
v 0.1 1.5 0.2
v 0.3 1.8 0.2
v 0.3 1.9 0.2
v 0.4 1 0.2
v 0.4 1.2 0.2
v 0.4 1.4 0.2
v 0.4 1.8 0.2
v 0.4 1.9 0.2
v 0.5 2 0.2
v 0.5 2.3 0.2
v 0.5 2.4 0.2
v 0.6 2 0.2
v 0.6 2.4 0.2
v -0.6 1.3 0.1
v -0.6 1.6 0.1
v -0.6 1.9 0.1
v -0.6 2.2 0.1
v -0.6 2.4 0.1
v -0.5 1.8 0.1
v -0.5 1.9 0.1
v -0.5 2.2 0.1
v -0.5 2.3 0.1
v -0.5 2.4 0.1
v -0.4 1.3 0.1
v -0.4 1.6 0.1
v -0.4 1.8 0.1
v 0.4 1.3 0.1
v 0.4 1.6 0.1
v 0.4 1.9 0.1
v 0.5 1.9 0.1
v 0.5 2.6 0.1
v 0.5 2.7 0.1
v 0.6 1.3 0.1
v 0.6 1.6 0.1
v 0.6 1.9 0.1
v 0.6 2.6 0.1
v 0.6 2.7 0.1
v -0.7 2.2 0
v -0.7 2.5 0
v -0.6 1.9 0
v -0.6 2.1 0
v -0.6 2.2 0
v -0.6 2.5 0
v -0.6 2.6 0
v -0.5 1.9 0
v -0.5 2.1 0
v -0.5 2.5 0
v -0.5 2.6 0
v 0.5 2.1 0
v 0.5 2.2 0
v 0.5 2.3 0
v 0.5 2.4 0
v 0.5 2.5 0
v 0.5 2.6 0
v 0.6 2.1 0
v 0.6 2.2 0
v 0.6 2.4 0
v 0.6 2.5 0
v 0.6 2.6 0
v 0.7 2.2 0
v 0.7 2.5 0
v -0.6 2.1 -0.1
v -0.6 2.2 -0.1
v -0.5 2.1 -0.1
v -0.5 2.2 -0.1
v 0.5 2.6 -0.1
v 0.5 2.7 -0.1
v 0.6 2.6 -0.1
v 0.6 2.7 -0.1
v -0.6 2.6 -0.2
v -0.6 2.7 -0.2
v -0.5 2.6 -0.2
v -0.5 2.7 -0.2
v -0.6 2 -0.3
v -0.6 2.3 -0.3
v -0.5 2 -0.3
v -0.5 2.3 -0.3
v 0.5 2.1 -0.3
v 0.5 2.4 -0.3
v 0.6 2.1 -0.3
v 0.6 2.4 -0.3
v -0.2 1.8 0.5
v -0.2 1.9 0.5
v -0.1 1.8 0.5
v -0.1 1.9 0.5
v 0.1 1.8 0.5
v 0.1 1.9 0.5
v 0.2 1.8 0.5
v 0.2 1.9 0.5
v -0.6 1.9 0.4
v -0.6 2 0.4
v -0.6 2.2 0.4
v -0.6 2.3 0.4
v -0.5 1.9 0.4
v -0.5 2 0.4
v -0.5 2.2 0.4
v -0.5 2.3 0.4
v -0.6 1.8 0.3
v -0.6 1.9 0.3
v -0.6 2 0.3
v -0.6 2.2 0.3
v -0.6 2.4 0.3
v -0.6 2.6 0.3
v -0.5 1.8 0.3
v -0.5 1.9 0.3
v -0.5 2 0.3
v -0.5 2.2 0.3
v -0.5 2.4 0.3
v -0.5 2.6 0.3
v 0.5 1.9 0.3
v 0.5 2.3 0.3
v 0.5 2.4 0.3
v 0.6 1.9 0.3
v 0.6 2.4 0.3
v -0.6 2.2 0.2
v -0.6 2.4 0.2
v -0.5 2.2 0.2
v -0.5 2.3 0.2
v -0.5 2.4 0.2
v 0.5 2.5 0.2
v 0.5 2.7 0.2
v 0.6 2.5 0.2
v 0.6 2.7 0.2
v -0.6 1.9 0.1
v -0.6 2.1 0.1
v -0.6 2.5 0.1
v -0.6 2.6 0.1
v -0.5 1.9 0.1
v -0.5 2.1 0.1
v -0.5 2.5 0.1
v -0.5 2.6 0.1
v 0.5 2 0.1
v 0.5 2.3 0.1
v 0.5 2.4 0.1
v 0.6 2 0.1
v 0.6 2.4 0.1
v -0.6 2.1 0
v -0.6 2.2 0
v -0.5 2.1 0
v -0.5 2.2 0
v 0.5 2.6 0
v 0.5 2.7 0
v 0.6 2.6 0
v 0.6 2.7 0
v -0.7 2.2 -0.1
v -0.7 2.5 -0.1
v -0.6 1.3 -0.1
v -0.6 1.6 -0.1
v -0.6 1.9 -0.1
v -0.6 2 -0.1
v -0.6 2.2 -0.1
v -0.6 2.5 -0.1
v -0.5 1.9 -0.1
v -0.5 2 -0.1
v -0.4 1.2 -0.1
v -0.4 1.3 -0.1
v -0.4 1.4 -0.1
v -0.4 1.6 -0.1
v -0.4 1.8 -0.1
v -0.3 1.8 -0.1
v -0.3 1.9 -0.1
v -0.1 1.2 -0.1
v -0.1 1.4 -0.1
v 0.1 1.2 -0.1
v 0.1 1.4 -0.1
v 0.3 1.8 -0.1
v 0.3 1.9 -0.1
v 0.4 1.2 -0.1
v 0.4 1.3 -0.1
v 0.4 1.4 -0.1
v 0.4 1.6 -0.1
v 0.4 1.8 -0.1
v 0.5 1.9 -0.1
v 0.5 2.1 -0.1
v 0.5 2.2 -0.1
v 0.6 1.3 -0.1
v 0.6 1.6 -0.1
v 0.6 1.9 -0.1
v 0.6 2.1 -0.1
v 0.6 2.2 -0.1
v 0.6 2.5 -0.1
v 0.7 2.2 -0.1
v 0.7 2.5 -0.1
v -0.6 2 -0.2
v -0.6 2.3 -0.2
v -0.5 2 -0.2
v -0.5 2.3 -0.2
v -0.4 1 -0.2
v -0.4 1.2 -0.2
v -0.4 1.4 -0.2
v -0.4 1.6 -0.2
v -0.4 1.8 -0.2
v -0.3 1.5 -0.2
v -0.3 1.6 -0.2
v -0.3 1.8 -0.2
v -0.3 1.9 -0.2
v -0.2 1.5 -0.2
v -0.2 1.6 -0.2
v -0.2 1.8 -0.2
v -0.2 1.9 -0.2
v -0.1 1 -0.2
v -0.1 1.2 -0.2
v 0.1 1 -0.2
v 0.1 1.2 -0.2
v 0.2 1.5 -0.2
v 0.2 1.6 -0.2
v 0.2 1.8 -0.2
v 0.2 1.9 -0.2
v 0.3 1.5 -0.2
v 0.3 1.6 -0.2
v 0.3 1.8 -0.2
v 0.3 1.9 -0.2
v 0.4 1 -0.2
v 0.4 1.2 -0.2
v 0.4 1.4 -0.2
v 0.4 1.6 -0.2
v 0.4 1.8 -0.2
v 0.5 2.2 -0.2
v 0.5 2.4 -0.2
v 0.6 2.2 -0.2
v 0.6 2.4 -0.2
v -0.6 2.3 -0.3
v -0.6 2.7 -0.3
v -0.5 2.3 -0.3
v -0.5 2.6 -0.3
v -0.5 2.7 -0.3
v 0.5 2.4 -0.3
v 0.5 2.6 -0.3
v 0.5 2.7 -0.3
v 0.6 2.4 -0.3
v 0.6 2.7 -0.3
v -0.6 2 -0.4
v -0.6 2.3 -0.4
v -0.5 1.9 -0.4
v -0.5 2 -0.4
v -0.5 2.2 -0.4
v -0.5 2.3 -0.4
v -0.5 2.6 -0.4
v -0.5 2.7 -0.4
v -0.5 2.8 -0.4
v -0.4 2.4 -0.4
v -0.4 2.5 -0.4
v -0.4 2.7 -0.4
v -0.4 2.8 -0.4
v -0.3 2 -0.4
v -0.3 2.2 -0.4
v -0.3 2.4 -0.4
v -0.2 2.2 -0.4
v -0.2 2.5 -0.4
v -0.1 2.1 -0.4
v -0.1 2.4 -0.4
v 0 2.6 -0.4
v 0 2.7 -0.4
v 0.1 2.1 -0.4
v 0.1 2.4 -0.4
v 0.1 2.6 -0.4
v 0.1 2.7 -0.4
v 0.2 2.2 -0.4
v 0.2 2.5 -0.4
v 0.3 2 -0.4
v 0.3 2.2 -0.4
v 0.3 2.4 -0.4
v 0.4 2.4 -0.4
v 0.4 2.5 -0.4
v 0.4 2.7 -0.4
v 0.4 2.8 -0.4
v 0.5 1.9 -0.4
v 0.5 2 -0.4
v 0.5 2.1 -0.4
v 0.5 2.2 -0.4
v 0.5 2.4 -0.4
v 0.5 2.6 -0.4
v 0.5 2.7 -0.4
v 0.5 2.8 -0.4
v 0.6 2.1 -0.4
v 0.6 2.4 -0.4
v -0.5 2.6 -0.5
v -0.5 2.7 -0.5
v -0.4 2.7 -0.5
v -0.4 2.8 -0.5
v -0.1 2.1 -0.5
v -0.1 2.4 -0.5
v 0 2.6 -0.5
v 0 2.7 -0.5
v 0.1 2.1 -0.5
v 0.1 2.4 -0.5
v 0.1 2.6 -0.5
v 0.1 2.7 -0.5
v 0.4 2.7 -0.5
v 0.4 2.8 -0.5
v 0.5 2.6 -0.5
v 0.5 2.7 -0.5
v -0.4 1 0.2
v -0.1 1 0.2
v 0.1 1 0.2
v 0.4 1 0.2
v -0.4 1 -0.2
v -0.1 1 -0.2
v 0.1 1 -0.2
v 0.4 1 -0.2
v -0.6 1.3 0.1
v -0.4 1.3 0.1
v 0.4 1.3 0.1
v 0.6 1.3 0.1
v -0.6 1.3 -0.1
v -0.4 1.3 -0.1
v 0.4 1.3 -0.1
v 0.6 1.3 -0.1
v -0.4 1.4 0.3
v -0.1 1.4 0.3
v 0.1 1.4 0.3
v 0.4 1.4 0.3
v -0.4 1.4 0.2
v -0.1 1.4 0.2
v 0.1 1.4 0.2
v 0.4 1.4 0.2
v -0.4 1.4 -0.1
v -0.1 1.4 -0.1
v 0.1 1.4 -0.1
v 0.4 1.4 -0.1
v -0.4 1.4 -0.2
v 0.4 1.4 -0.2
v -0.1 1.5 0.3
v 0.1 1.5 0.3
v -0.1 1.5 0.2
v 0.1 1.5 0.2
v -0.2 1.8 0.6
v -0.1 1.8 0.6
v 0.1 1.8 0.6
v 0.2 1.8 0.6
v -0.2 1.8 0.5
v -0.1 1.8 0.5
v 0.1 1.8 0.5
v 0.2 1.8 0.5
v -0.6 1.8 0.4
v -0.5 1.8 0.4
v -0.6 1.8 0.3
v -0.5 1.8 0.3
v -0.5 1.8 0.2
v -0.4 1.8 0.2
v -0.5 1.8 0.1
v -0.4 1.8 0.1
v -0.4 1.9 0.6
v -0.3 1.9 0.6
v 0.3 1.9 0.6
v 0.4 1.9 0.6
v -0.6 1.9 0.5
v -0.5 1.9 0.5
v -0.4 1.9 0.5
v -0.3 1.9 0.5
v -0.2 1.9 0.5
v -0.1 1.9 0.5
v 0.1 1.9 0.5
v 0.2 1.9 0.5
v 0.3 1.9 0.5
v 0.4 1.9 0.5
v -0.6 1.9 0.4
v -0.5 1.9 0.4
v 0.5 1.9 0.4
v 0.6 1.9 0.4
v -0.5 1.9 0.3
v -0.4 1.9 0.3
v -0.3 1.9 0.3
v -0.2 1.9 0.3
v 0.2 1.9 0.3
v 0.3 1.9 0.3
v 0.4 1.9 0.3
v 0.5 1.9 0.3
v 0.6 1.9 0.3
v -0.6 1.9 0.2
v -0.5 1.9 0.2
v -0.4 1.9 0.2
v -0.3 1.9 0.2
v 0.3 1.9 0.2
v 0.4 1.9 0.2
v -0.6 1.9 0.1
v -0.5 1.9 0.1
v 0.4 1.9 0.1
v 0.5 1.9 0.1
v -0.5 1.9 -0.1
v -0.3 1.9 -0.1
v 0.3 1.9 -0.1
v 0.5 1.9 -0.1
v -0.3 1.9 -0.2
v -0.2 1.9 -0.2
v 0.2 1.9 -0.2
v 0.3 1.9 -0.2
v -0.5 1.9 -0.4
v 0.5 1.9 -0.4
v -0.1 2 0.6
v 0 2 0.6
v -0.5 2 0.5
v -0.4 2 0.5
v -0.1 2 0.5
v 0 2 0.5
v 0.4 2 0.5
v 0.5 2 0.5
v -0.6 2 0.4
v -0.5 2 0.4
v 0.5 2 0.4
v -0.6 2 0.3
v -0.5 2 0.3
v -0.4 2 0.3
v 0.4 2 0.3
v 0.5 2 0.3
v 0.5 2 0.2
v 0.6 2 0.2
v 0.5 2 0.1
v 0.6 2 0.1
v -0.6 2 -0.1
v -0.5 2 -0.1
v -0.6 2 -0.2
v -0.5 2 -0.2
v -0.6 2 -0.3
v -0.5 2 -0.3
v -0.6 2 -0.4
v -0.5 2 -0.4
v 0 2.1 0.6
v 0.1 2.1 0.6
v 0.2 2.1 0.6
v 0.3 2.1 0.6
v 0.4 2.1 0.6
v 0.5 2.1 0.6
v 0 2.1 0.5
v 0.1 2.1 0.5
v 0.2 2.1 0.5
v 0.3 2.1 0.5
v 0.4 2.1 0.5
v 0.5 2.1 0.5
v -0.6 2.1 0.1
v -0.5 2.1 0.1
v -0.6 2.1 0
v -0.5 2.1 0
v 0.5 2.1 0
v 0.6 2.1 0
v 0.5 2.1 -0.1
v 0.6 2.1 -0.1
v 0.5 2.1 -0.3
v 0.6 2.1 -0.3
v -0.1 2.1 -0.4
v 0.1 2.1 -0.4
v 0.5 2.1 -0.4
v 0.6 2.1 -0.4
v -0.1 2.1 -0.5
v 0.1 2.1 -0.5
v -0.6 2.2 0.3
v -0.5 2.2 0.3
v -0.6 2.2 0.2
v -0.5 2.2 0.2
v -0.7 2.2 0
v -0.6 2.2 0
v -0.5 2.2 0
v 0.6 2.2 0
v 0.7 2.2 0
v -0.7 2.2 -0.1
v -0.6 2.2 -0.1
v -0.5 2.2 -0.1
v 0.5 2.2 -0.1
v 0.6 2.2 -0.1
v 0.7 2.2 -0.1
v 0.5 2.2 -0.2
v 0.6 2.2 -0.2
v -0.3 2.3 0.6
v -0.2 2.3 0.6
v 0.2 2.3 0.6
v 0.3 2.3 0.6
v -0.3 2.3 0.5
v -0.2 2.3 0.5
v 0.2 2.3 0.5
v 0.3 2.3 0.5
v 0.5 2.3 0.5
v 0.6 2.3 0.5
v -0.6 2.3 0.4
v -0.5 2.3 0.4
v 0.5 2.3 0.4
v 0.6 2.3 0.4
v -0.6 2.3 0.3
v -0.5 2.3 0.3
v -0.6 2.3 -0.2
v -0.5 2.3 -0.2
v -0.6 2.3 -0.3
v -0.5 2.3 -0.3
v 0.5 2.4 0.3
v 0.6 2.4 0.3
v -0.6 2.4 0.2
v -0.5 2.4 0.2
v 0.5 2.4 0.2
v 0.6 2.4 0.2
v -0.6 2.4 0.1
v -0.5 2.4 0.1
v 0.5 2.4 0.1
v 0.6 2.4 0.1
v 0.5 2.4 0
v 0.6 2.4 0
v 0.5 2.4 -0.2
v 0.6 2.4 -0.2
v 0.5 2.4 -0.3
v 0.6 2.4 -0.3
v -0.1 2.5 0.6
v 0 2.5 0.6
v -0.1 2.5 0.5
v 0 2.5 0.5
v 0.5 2.6 0.1
v 0.6 2.6 0.1
v 0.5 2.6 0
v 0.6 2.6 0
v -0.5 2.6 -0.4
v 0 2.6 -0.4
v 0.1 2.6 -0.4
v 0.5 2.6 -0.4
v -0.5 2.6 -0.5
v 0 2.6 -0.5
v 0.1 2.6 -0.5
v 0.5 2.6 -0.5
v 0 2.7 -0.4
v 0.1 2.7 -0.4
v 0 2.7 -0.5
v 0.1 2.7 -0.5
v -0.4 1.2 -0.1
v -0.1 1.2 -0.1
v 0.1 1.2 -0.1
v 0.4 1.2 -0.1
v -0.4 1.2 -0.2
v -0.1 1.2 -0.2
v 0.1 1.2 -0.2
v 0.4 1.2 -0.2
v -0.4 1.8 0.3
v -0.3 1.8 0.3
v 0.3 1.8 0.3
v 0.4 1.8 0.3
v -0.4 1.8 0.2
v -0.3 1.8 0.2
v 0.3 1.8 0.2
v 0.4 1.8 0.2
v -0.4 1.8 -0.1
v -0.3 1.8 -0.1
v 0.3 1.8 -0.1
v 0.4 1.8 -0.1
v -0.4 1.8 -0.2
v -0.3 1.8 -0.2
v 0.3 1.8 -0.2
v 0.4 1.8 -0.2
v -0.6 1.9 0.4
v -0.5 1.9 0.4
v -0.6 1.9 0.3
v -0.5 1.9 0.3
v -0.6 1.9 0.1
v -0.5 1.9 0.1
v 0.5 1.9 0.1
v 0.6 1.9 0.1
v -0.6 1.9 0
v -0.5 1.9 0
v 0.5 1.9 -0.1
v 0.6 1.9 -0.1
v -0.1 2.1 0.6
v 0 2.1 0.6
v 0.1 2.1 0.6
v 0.2 2.1 0.6
v -0.1 2.1 0.5
v 0 2.1 0.5
v 0.1 2.1 0.5
v 0.2 2.1 0.5
v -0.6 2.1 0
v -0.5 2.1 0
v -0.6 2.1 -0.1
v -0.5 2.1 -0.1
v 0.2 2.2 0.6
v 0.3 2.2 0.6
v 0.2 2.2 0.5
v 0.3 2.2 0.5
v -0.6 2.2 0.4
v -0.5 2.2 0.4
v -0.6 2.2 0.3
v -0.5 2.2 0.3
v -0.6 2.2 0.2
v -0.5 2.2 0.2
v -0.6 2.2 0.1
v -0.5 2.2 0.1
v -0.4 2.3 0.6
v -0.3 2.3 0.6
v 0.3 2.3 0.6
v 0.4 2.3 0.6
v -0.6 2.3 0.5
v -0.5 2.3 0.5
v -0.4 2.3 0.5
v -0.3 2.3 0.5
v 0.3 2.3 0.5
v 0.4 2.3 0.5
v -0.6 2.3 0.4
v -0.5 2.3 0.4
v -0.6 2.3 -0.3
v -0.5 2.3 -0.3
v -0.6 2.3 -0.4
v -0.5 2.3 -0.4
v 0.4 2.4 0.6
v 0.5 2.4 0.6
v 0.4 2.4 0.5
v 0.5 2.4 0.5
v 0.6 2.4 0.5
v 0.5 2.4 0.4
v 0.6 2.4 0.4
v -0.6 2.4 0.3
v -0.5 2.4 0.3
v -0.6 2.4 0.2
v -0.5 2.4 0.2
v 0.5 2.4 -0.3
v 0.6 2.4 -0.3
v -0.1 2.4 -0.4
v 0.1 2.4 -0.4
v 0.5 2.4 -0.4
v 0.6 2.4 -0.4
v -0.1 2.4 -0.5
v 0.1 2.4 -0.5
v -0.2 2.5 0.6
v -0.1 2.5 0.6
v 0 2.5 0.6
v 0.1 2.5 0.6
v -0.2 2.5 0.5
v -0.1 2.5 0.5
v 0 2.5 0.5
v 0.1 2.5 0.5
v 0.5 2.5 0.2
v 0.6 2.5 0.2
v -0.6 2.5 0.1
v -0.5 2.5 0.1
v -0.7 2.5 0
v -0.6 2.5 0
v -0.5 2.5 0
v 0.5 2.5 0
v 0.6 2.5 0
v 0.7 2.5 0
v -0.7 2.5 -0.1
v -0.6 2.5 -0.1
v 0.6 2.5 -0.1
v 0.7 2.5 -0.1
v -0.6 2.6 0.4
v -0.5 2.6 0.4
v 0.5 2.6 0.4
v 0.6 2.6 0.4
v -0.6 2.6 0.3
v -0.5 2.6 0.3
v 0.5 2.6 0.3
v 0.6 2.6 0.3
v -0.6 2.6 0.2
v -0.5 2.6 0.2
v -0.6 2.6 0.1
v -0.5 2.6 0.1
v -0.6 2.6 0
v -0.5 2.6 0
v 0.5 2.6 0
v 0.6 2.6 0
v 0.5 2.6 -0.1
v 0.6 2.6 -0.1
v -0.6 2.6 -0.2
v -0.5 2.6 -0.2
v -0.3 2.7 0.6
v -0.2 2.7 0.6
v -0.1 2.7 0.6
v 0 2.7 0.6
v 0.2 2.7 0.6
v 0.3 2.7 0.6
v -0.5 2.7 0.5
v -0.4 2.7 0.5
v -0.3 2.7 0.5
v -0.2 2.7 0.5
v -0.1 2.7 0.5
v 0 2.7 0.5
v 0.2 2.7 0.5
v 0.3 2.7 0.5
v 0.4 2.7 0.5
v 0.5 2.7 0.5
v -0.5 2.7 0.4
v -0.4 2.7 0.4
v 0.4 2.7 0.4
v 0.5 2.7 0.4
v 0.5 2.7 0.3
v 0.6 2.7 0.3
v 0.5 2.7 0.2
v 0.6 2.7 0.2
v 0.5 2.7 0.1
v 0.6 2.7 0.1
v 0.5 2.7 0
v 0.6 2.7 0
v 0.5 2.7 -0.1
v 0.6 2.7 -0.1
v -0.6 2.7 -0.2
v -0.5 2.7 -0.2
v -0.6 2.7 -0.3
v -0.5 2.7 -0.3
v 0.5 2.7 -0.3
v 0.6 2.7 -0.3
v -0.5 2.7 -0.4
v -0.4 2.7 -0.4
v 0.4 2.7 -0.4
v 0.5 2.7 -0.4
v -0.5 2.7 -0.5
v -0.4 2.7 -0.5
v 0.4 2.7 -0.5
v 0.5 2.7 -0.5
v -0.4 2.8 0.5
v 0.4 2.8 0.5
v -0.5 2.8 0.4
v -0.4 2.8 0.4
v 0.4 2.8 0.4
v 0.5 2.8 0.4
v -0.5 2.8 -0.4
v -0.4 2.8 -0.4
v 0.4 2.8 -0.4
v 0.5 2.8 -0.4
v -0.4 2.8 -0.5
v 0.4 2.8 -0.5

# faces
f 3/1/1 2/1/1 1/1/1
f 4/1/1 2/1/1 3/1/1
f 7/2/1 6/2/1 5/2/1
f 8/2/1 6/2/1 7/2/1
f 12/4/1 10/4/1 9/4/1
f 13/4/1 10/4/1 12/4/1
f 15/7/1 8/7/1 7/7/1
f 16/7/1 8/7/1 15/7/1
f 17/7/1 8/7/1 16/7/1
f 18/4/1 12/4/1 11/4/1
f 20/4/1 17/4/1 16/4/1
f 24/4/1 15/4/1 14/4/1
f 25/4/1 20/4/1 16/4/1
f 25/4/1 21/4/1 20/4/1
f 26/4/1 21/4/1 25/4/1
f 27/4/1 18/4/1 11/4/1
f 27/4/1 19/4/1 18/4/1
f 28/4/1 19/4/1 27/4/1
f 29/4/1 24/4/1 14/4/1
f 29/4/1 25/4/1 24/4/1
f 30/4/1 25/4/1 29/4/1
f 31/4/1 25/4/1 30/4/1
f 32/4/1 21/4/1 26/4/1
f 33/4/1 27/4/1 11/4/1
f 34/4/1 27/4/1 33/4/1
f 35/4/1 29/4/1 28/4/1
f 36/4/1 21/4/1 32/4/1
f 37/4/1 23/4/1 22/4/1
f 38/4/1 23/4/1 37/4/1
f 39/4/1 35/4/1 34/4/1
f 39/4/1 29/4/1 35/4/1
f 40/4/1 29/4/1 39/4/1
f 41/4/1 31/4/1 30/4/1
f 42/4/1 41/4/1 40/4/1
f 42/4/1 31/4/1 41/4/1
f 43/4/1 31/4/1 42/4/1
f 44/4/1 36/4/1 32/4/1
f 44/4/1 37/4/1 36/4/1
f 45/4/1 39/4/1 34/4/1
f 46/4/1 39/4/1 45/4/1
f 47/4/1 42/4/1 40/4/1
f 48/4/1 42/4/1 47/4/1
f 49/4/1 44/4/1 43/4/1
f 50/4/1 37/4/1 44/4/1
f 50/4/1 44/4/1 49/4/1
f 51/4/1 37/4/1 50/4/1
f 52/4/1 37/4/1 51/4/1
f 56/4/1 54/4/1 53/4/1
f 57/4/1 54/4/1 56/4/1
f 61/2/1 56/2/1 55/2/1
f 62/2/1 60/2/1 59/2/1
f 63/2/1 60/2/1 62/2/1
f 64/2/1 60/2/1 63/2/1
f 65/2/1 60/2/1 64/2/1
f 66/2/1 58/2/1 57/2/1
f 67/2/1 58/2/1 66/2/1
f 70/2/1 56/2/1 61/2/1
f 71/2/1 56/2/1 70/2/1
f 73/2/1 68/2/1 67/2/1
f 74/2/1 68/2/1 73/2/1
f 76/2/1 70/2/1 69/2/1
f 77/2/1 70/2/1 76/2/1
f 78/2/1 72/2/1 71/2/1
f 79/2/1 72/2/1 78/2/1
f 80/2/1 64/2/1 63/2/1
f 81/2/1 64/2/1 80/2/1
f 84/4/1 79/4/1 78/4/1
f 85/4/1 79/4/1 84/4/1
f 88/4/1 76/4/1 75/4/1
f 89/4/1 84/4/1 83/4/1
f 90/4/1 84/4/1 89/4/1
f 91/4/1 87/4/1 86/4/1
f 92/4/1 87/4/1 91/4/1
f 94/2/1 82/2/1 81/2/1
f 95/2/1 82/2/1 94/2/1
f 97/4/1 93/4/1 92/4/1
f 97/4/1 90/4/1 89/4/1
f 97/4/1 88/4/1 75/4/1
f 97/4/1 92/4/1 91/4/1
f 97/4/1 91/4/1 90/4/1
f 97/4/1 89/4/1 88/4/1
f 98/4/1 93/4/1 97/4/1
f 99/4/1 93/4/1 98/4/1
f 100/4/1 96/4/1 95/4/1
f 100/4/1 95/4/1 94/4/1
f 101/4/1 96/4/1 100/4/1
f 102/4/1 96/4/1 101/4/1
f 103/4/1 99/4/1 98/4/1
f 103/4/1 101/4/1 100/4/1
f 103/4/1 100/4/1 99/4/1
f 104/4/1 101/4/1 103/4/1
f 107/3/1 106/3/1 105/3/1
f 108/3/1 106/3/1 107/3/1
f 109/3/1 106/3/1 108/3/1
f 110/5/1 108/5/1 107/5/1
f 111/5/1 108/5/1 110/5/1
f 113/5/1 110/5/1 107/5/1
f 116/5/1 113/5/1 112/5/1
f 117/5/1 110/5/1 113/5/1
f 117/5/1 113/5/1 116/5/1
f 118/5/1 115/5/1 114/5/1
f 119/5/1 115/5/1 118/5/1
f 120/7/1 117/7/1 116/7/1
f 121/7/1 117/7/1 120/7/1
f 122/7/1 117/7/1 121/7/1
f 123/7/1 119/7/1 118/7/1
f 124/7/1 119/7/1 123/7/1
f 128/4/1 126/4/1 125/4/1
f 128/2/1 127/2/1 126/2/1
f 129/2/1 127/2/1 128/2/1
f 130/4/1 128/4/1 125/4/1
f 131/4/1 130/4/1 125/4/1
f 132/4/1 130/4/1 131/4/1
f 137/4/1 134/4/1 133/4/1
f 138/4/1 134/4/1 137/4/1
f 139/4/1 136/4/1 135/4/1
f 140/4/1 136/4/1 139/4/1
f 145/5/1 142/5/1 141/5/1
f 146/5/1 142/5/1 145/5/1
f 147/5/1 144/5/1 143/5/1
f 148/5/1 144/5/1 147/5/1
f 151/4/1 150/4/1 149/4/1
f 152/4/1 150/4/1 151/4/1
f 155/4/1 154/4/1 153/4/1
f 156/4/1 155/4/1 153/4/1
f 157/4/1 156/4/1 153/4/1
f 158/4/1 156/4/1 157/4/1
f 161/1/1 160/1/1 159/1/1
f 162/1/1 160/1/1 161/1/1
f 165/4/1 164/4/1 163/4/1
f 166/4/1 164/4/1 165/4/1
f 169/4/1 168/4/1 167/4/1
f 170/4/1 169/4/1 167/4/1
f 171/4/1 169/4/1 170/4/1
f 174/3/1 173/3/1 172/3/1
f 175/3/1 173/3/1 174/3/1
f 176/3/1 173/3/1 175/3/1
f 178/5/1 175/5/1 174/5/1
f 179/5/1 175/5/1 178/5/1
f 180/5/1 178/5/1 177/5/1
f 181/5/1 178/5/1 180/5/1
f 184/4/1 183/4/1 182/4/1
f 185/4/1 184/4/1 182/4/1
f 186/4/1 184/4/1 185/4/1
f 189/4/1 188/4/1 187/4/1
f 190/4/1 188/4/1 189/4/1
f 193/4/1 192/4/1 191/4/1
f 194/4/1 192/4/1 193/4/1
f 197/4/1 196/4/1 195/4/1
f 198/4/1 196/4/1 197/4/1
f 201/4/1 200/4/1 199/4/1
f 202/4/1 200/4/1 201/4/1
f 205/4/1 204/4/1 203/4/1
f 206/4/1 204/4/1 205/4/1
f 209/4/1 208/4/1 207/4/1
f 210/4/1 208/4/1 209/4/1
f 213/4/1 212/4/1 211/4/1
f 214/4/1 212/4/1 213/4/1
f 215/4/2 216/4/2 218/4/2
f 218/4/2 216/4/2 219/4/2
f 217/4/2 218/4/2 220/4/2
f 220/4/2 218/4/2 221/4/2
f 222/4/2 223/4/2 224/4/2
f 222/4/2 224/4/2 225/4/2
f 225/4/2 224/4/2 226/4/2
f 227/4/2 228/4/2 229/4/2
f 229/4/2 228/4/2 230/4/2
f 231/3/2 232/3/2 233/3/2
f 233/3/2 232/3/2 234/3/2
f 234/3/2 232/3/2 235/3/2
f 233/5/2 234/5/2 237/5/2
f 237/5/2 234/5/2 238/5/2
f 236/5/2 237/5/2 239/5/2
f 239/5/2 237/5/2 240/5/2
f 241/4/2 242/4/2 243/4/2
f 241/4/2 243/4/2 244/4/2
f 244/4/2 243/4/2 245/4/2
f 246/4/2 247/4/2 248/4/2
f 246/4/2 248/4/2 249/4/2
f 249/4/2 248/4/2 250/4/2
f 251/4/2 252/4/2 253/4/2
f 253/4/2 252/4/2 254/4/2
f 255/4/2 256/4/2 259/4/2
f 259/4/2 256/4/2 260/4/2
f 257/4/2 258/4/2 261/4/2
f 261/4/2 258/4/2 262/4/2
f 263/4/2 264/4/2 267/4/2
f 265/1/2 266/1/2 268/1/2
f 268/1/2 266/1/2 269/1/2
f 263/4/2 267/4/2 270/4/2
f 270/4/2 267/4/2 271/4/2
f 272/4/2 273/4/2 274/4/2
f 272/4/2 274/4/2 275/4/2
f 275/4/2 274/4/2 276/4/2
f 277/5/2 278/5/2 281/5/2
f 281/5/2 278/5/2 282/5/2
f 279/5/2 280/5/2 283/5/2
f 283/5/2 280/5/2 284/5/2
f 285/4/2 286/4/2 287/4/2
f 287/4/2 286/4/2 288/4/2
f 289/3/2 290/3/2 291/3/2
f 291/3/2 290/3/2 292/3/2
f 292/3/2 290/3/2 293/3/2
f 291/5/2 292/5/2 294/5/2
f 294/5/2 292/5/2 295/5/2
f 291/5/2 294/5/2 297/5/2
f 296/5/2 297/5/2 300/5/2
f 297/5/2 294/5/2 301/5/2
f 300/5/2 297/5/2 301/5/2
f 298/5/2 299/5/2 302/5/2
f 302/5/2 299/5/2 303/5/2
f 300/7/2 301/7/2 304/7/2
f 304/7/2 301/7/2 305/7/2
f 302/7/2 303/7/2 306/7/2
f 306/7/2 303/7/2 307/7/2
f 305/7/2 301/7/2 311/7/2
f 311/7/2 301/7/2 312/7/2
f 309/2/2 310/2/2 313/2/2
f 308/4/2 309/4/2 313/4/2
f 313/2/2 310/2/2 314/2/2
f 308/4/2 313/4/2 315/4/2
f 315/4/2 313/4/2 316/4/2
f 317/4/2 318/4/2 321/4/2
f 321/4/2 318/4/2 322/4/2
f 319/4/2 320/4/2 323/4/2
f 323/4/2 320/4/2 324/4/2
f 325/2/2 326/2/2 331/2/2
f 326/2/2 327/2/2 331/2/2
f 327/2/2 328/2/2 331/2/2
f 331/2/2 328/2/2 332/2/2
f 332/2/2 328/2/2 333/2/2
f 333/2/2 328/2/2 334/2/2
f 329/2/2 330/2/2 336/2/2
f 332/2/2 333/2/2 337/2/2
f 337/2/2 333/2/2 338/2/2
f 333/1/2 334/1/2 339/1/2
f 338/2/2 333/2/2 339/2/2
f 339/1/2 334/1/2 340/1/2
f 335/4/2 336/4/2 341/4/2
f 336/2/2 330/2/2 341/2/2
f 341/2/2 330/2/2 342/2/2
f 332/2/2 337/2/2 343/2/2
f 338/2/2 339/2/2 344/2/2
f 344/2/2 339/2/2 345/2/2
f 341/4/2 342/4/2 346/4/2
f 335/4/2 341/4/2 346/4/2
f 346/4/2 342/4/2 347/4/2
f 325/2/2 331/2/2 348/2/2
f 348/2/2 331/2/2 349/2/2
f 332/2/2 343/2/2 350/2/2
f 350/2/2 343/2/2 351/2/2
f 335/4/2 346/4/2 352/4/2
f 352/4/2 346/4/2 353/4/2
f 348/4/2 349/4/2 355/4/2
f 355/4/2 349/4/2 356/4/2
f 350/4/2 351/4/2 357/4/2
f 357/4/2 351/4/2 358/4/2
f 345/2/2 339/2/2 359/2/2
f 359/2/2 339/2/2 360/2/2
f 353/4/2 354/4/2 364/4/2
f 362/4/2 363/4/2 366/4/2
f 366/4/2 363/4/2 367/4/2
f 360/2/2 361/2/2 369/2/2
f 369/2/2 361/2/2 370/2/2
f 364/4/2 365/4/2 372/4/2
f 353/4/2 364/4/2 372/4/2
f 372/4/2 365/4/2 373/4/2
f 373/4/2 365/4/2 374/4/2
f 362/4/2 366/4/2 375/4/2
f 375/4/2 366/4/2 376/4/2
f 367/4/2 368/4/2 377/4/2
f 377/4/2 368/4/2 378/4/2
f 369/4/2 370/4/2 379/4/2
f 370/4/2 371/4/2 379/4/2
f 379/4/2 371/4/2 380/4/2
f 380/4/2 371/4/2 381/4/2
f 377/4/2 378/4/2 382/4/2
f 375/4/2 376/4/2 382/4/2
f 379/4/2 380/4/2 382/4/2
f 378/4/2 379/4/2 382/4/2
f 376/4/2 377/4/2 382/4/2
f 373/4/2 374/4/2 382/4/2
f 374/4/2 375/4/2 382/4/2
f 382/4/2 380/4/2 383/4/2
f 384/2/2 385/2/2 386/2/2
f 386/2/2 385/2/2 387/2/2
f 386/7/2 387/7/2 390/7/2
f 390/7/2 387/7/2 391/7/2
f 394/4/2 395/4/2 398/4/2
f 398/4/2 395/4/2 399/4/2
f 388/4/2 389/4/2 402/4/2
f 401/4/2 402/4/2 403/4/2
f 402/4/2 389/4/2 404/4/2
f 403/4/2 402/4/2 404/4/2
f 404/4/2 389/4/2 405/4/2
f 392/4/2 393/4/2 406/4/2
f 406/4/2 393/4/2 407/4/2
f 399/4/2 400/4/2 409/4/2
f 396/4/2 397/4/2 410/4/2
f 410/4/2 397/4/2 411/4/2
f 407/4/2 408/4/2 412/4/2
f 404/4/2 405/4/2 412/4/2
f 405/4/2 406/4/2 412/4/2
f 406/4/2 407/4/2 412/4/2
f 412/4/2 408/4/2 413/4/2
f 399/4/2 409/4/2 414/4/2
f 409/4/2 410/4/2 414/4/2
f 404/4/2 412/4/2 415/4/2
f 415/4/2 412/4/2 416/4/2
f 413/4/2 414/4/2 418/4/2
f 414/4/2 410/4/2 419/4/2
f 418/4/2 414/4/2 419/4/2
f 416/4/2 412/4/2 420/4/2
f 420/4/2 412/4/2 421/4/2
f 417/4/2 418/4/2 422/4/2
f 422/4/2 418/4/2 423/4/2
f 419/4/2 410/4/2 424/4/2
f 424/4/2 410/4/2 425/4/2
f 426/1/2 427/1/2 428/1/2
f 428/1/2 427/1/2 429/1/2
f 432/4/3 431/4/3 430/4/3
f 433/4/3 431/4/3 432/4/3
f 436/4/3 434/4/3 433/4/3
f 437/4/3 434/4/3 436/4/3
f 438/4/3 434/4/3 437/4/3
f 439/4/3 436/4/3 435/4/3
f 439/4/3 437/4/3 436/4/3
f 440/4/3 437/4/3 439/4/3
f 441/4/3 437/4/3 440/4/3
f 442/4/3 437/4/3 441/4/3
f 444/4/3 441/4/3 440/4/3
f 445/4/3 441/4/3 444/4/3
f 446/4/3 443/4/3 442/4/3
f 447/4/3 443/4/3 446/4/3
f 449/4/3 446/4/3 445/4/3
f 450/4/3 446/4/3 449/4/3
f 451/4/3 449/4/3 448/4/3
f 452/4/3 449/4/3 451/4/3
f 457/4/3 453/4/3 452/4/3
f 458/4/3 453/4/3 457/4/3
f 459/4/3 455/4/3 454/4/3
f 460/4/3 455/4/3 459/4/3
f 461/4/3 458/4/3 457/4/3
f 461/4/3 457/4/3 456/4/3
f 461/4/3 459/4/3 458/4/3
f 462/4/3 459/4/3 461/4/3
f 463/4/3 459/4/3 462/4/3
f 465/4/3 464/4/3 463/4/3
f 465/4/3 463/4/3 462/4/3
f 466/4/3 464/4/3 465/4/3
f 469/4/3 468/4/3 467/4/3
f 470/4/3 468/4/3 469/4/3
f 471/4/3 468/4/3 470/4/3
f 472/4/3 468/4/3 471/4/3
f 474/2/3 471/2/3 470/2/3
f 475/4/3 473/4/3 472/4/3
f 475/2/3 471/2/3 474/2/3
f 475/4/3 472/4/3 471/4/3
f 476/4/3 473/4/3 475/4/3
f 477/4/3 473/4/3 476/4/3
f 481/4/3 478/4/3 477/4/3
f 481/4/3 477/4/3 476/4/3
f 482/4/3 478/4/3 481/4/3
f 483/2/3 480/2/3 479/2/3
f 484/4/3 481/4/3 480/4/3
f 484/2/3 480/2/3 483/2/3
f 485/4/3 481/4/3 484/4/3
f 487/4/3 478/4/3 482/4/3
f 492/4/3 487/4/3 486/4/3
f 493/4/3 478/4/3 487/4/3
f 493/4/3 487/4/3 492/4/3
f 494/2/3 489/2/3 488/2/3
f 495/2/3 491/2/3 490/2/3
f 496/4/3 492/4/3 491/4/3
f 496/2/3 491/2/3 495/2/3
f 497/4/3 492/4/3 496/4/3
f 498/4/3 478/4/3 493/4/3
f 499/2/3 494/2/3 488/2/3
f 499/2/3 495/2/3 494/2/3
f 500/2/3 495/2/3 499/2/3
f 502/4/3 498/4/3 497/4/3
f 504/2/3 501/2/3 500/2/3
f 505/4/3 502/4/3 501/4/3
f 505/2/3 501/2/3 504/2/3
f 506/4/3 502/4/3 505/4/3
f 507/4/3 498/4/3 502/4/3
f 507/4/3 502/4/3 506/4/3
f 507/4/3 478/4/3 498/4/3
f 508/2/3 504/2/3 503/2/3
f 509/2/3 504/2/3 508/2/3
f 510/4/3 506/4/3 505/4/3
f 511/4/3 506/4/3 510/4/3
f 512/4/3 478/4/3 507/4/3
f 515/4/3 512/4/3 511/4/3
f 516/4/3 512/4/3 515/4/3
f 517/4/3 478/4/3 512/4/3
f 517/4/3 512/4/3 516/4/3
f 518/4/3 478/4/3 517/4/3
f 519/2/3 514/2/3 513/2/3
f 520/2/3 514/2/3 519/2/3
f 522/4/3 517/4/3 516/4/3
f 523/4/3 517/4/3 522/4/3
f 524/4/3 522/4/3 521/4/3
f 525/4/3 522/4/3 524/4/3
f 530/4/3 527/4/3 526/4/3
f 531/4/3 527/4/3 530/4/3
f 532/4/3 529/4/3 528/4/3
f 533/4/3 529/4/3 532/4/3
f 536/4/3 535/4/3 534/4/3
f 537/4/3 535/4/3 536/4/3
f 546/4/3 539/4/3 538/4/3
f 547/4/3 539/4/3 546/4/3
f 548/4/3 541/4/3 540/4/3
f 548/4/3 542/4/3 541/4/3
f 548/4/3 543/4/3 542/4/3
f 549/4/3 543/4/3 548/4/3
f 550/4/3 545/4/3 544/4/3
f 551/4/3 545/4/3 550/4/3
f 556/4/3 553/4/3 552/4/3
f 557/4/3 553/4/3 556/4/3
f 561/2/3 555/2/3 554/2/3
f 562/2/3 555/2/3 561/2/3
f 563/7/3 560/7/3 559/7/3
f 565/7/3 563/7/3 559/7/3
f 566/5/3 564/5/3 563/5/3
f 566/7/3 563/7/3 565/7/3
f 567/5/3 564/5/3 566/5/3
f 568/5/3 559/5/3 558/5/3
f 569/5/3 559/5/3 568/5/3
f 570/7/3 565/7/3 559/7/3
f 570/5/3 559/5/3 569/5/3
f 571/5/3 566/5/3 565/5/3
f 571/7/3 565/7/3 570/7/3
f 572/7/3 567/7/3 566/7/3
f 572/5/3 566/5/3 571/5/3
f 574/5/3 570/5/3 569/5/3
f 574/5/3 571/5/3 570/5/3
f 575/5/3 571/5/3 574/5/3
f 576/7/3 572/7/3 571/7/3
f 576/5/3 571/5/3 575/5/3
f 577/7/3 567/7/3 572/7/3
f 577/7/3 572/7/3 576/7/3
f 578/7/3 576/7/3 575/7/3
f 578/5/3 577/5/3 576/5/3
f 579/7/3 567/7/3 577/7/3
f 579/5/3 577/5/3 578/5/3
f 580/7/3 567/7/3 579/7/3
f 581/7/3 579/7/3 578/7/3
f 581/5/3 580/5/3 579/5/3
f 582/5/3 580/5/3 581/5/3
f 583/5/3 575/5/3 574/5/3
f 583/5/3 574/5/3 573/5/3
f 584/7/3 578/7/3 575/7/3
f 584/5/3 575/5/3 583/5/3
f 584/7/3 581/7/3 578/7/3
f 585/7/3 581/7/3 584/7/3
f 588/2/3 587/2/3 586/2/3
f 589/2/3 587/2/3 588/2/3
f 592/4/3 591/4/3 590/4/3
f 593/4/3 591/4/3 592/4/3
f 599/4/3 595/4/3 594/4/3
f 600/4/3 595/4/3 599/4/3
f 601/4/3 597/4/3 596/4/3
f 602/4/3 597/4/3 601/4/3
f 606/4/3 599/4/3 598/4/3
f 607/4/3 599/4/3 606/4/3
f 608/7/3 607/7/3 606/7/3
f 609/7/3 607/7/3 608/7/3
f 610/3/3 604/3/3 603/3/3
f 611/5/3 605/5/3 604/5/3
f 611/3/3 604/3/3 610/3/3
f 612/5/3 605/5/3 611/5/3
f 616/5/3 613/5/3 612/5/3
f 617/5/3 613/5/3 616/5/3
f 620/3/3 615/3/3 614/3/3
f 621/5/3 616/5/3 615/5/3
f 621/3/3 615/3/3 620/3/3
f 622/5/3 616/5/3 621/5/3
f 623/7/3 619/7/3 618/7/3
f 624/7/3 619/7/3 623/7/3
f 628/4/3 626/4/3 625/4/3
f 628/4/3 627/4/3 626/4/3
f 629/4/3 627/4/3 628/4/3
f 635/7/3 632/7/3 631/7/3
f 636/7/3 632/7/3 635/7/3
f 637/4/3 634/4/3 633/4/3
f 638/4/3 634/4/3 637/4/3
f 639/4/3 634/4/3 638/4/3
f 640/2/3 631/2/3 630/2/3
f 641/7/3 635/7/3 631/7/3
f 641/2/3 631/2/3 640/2/3
f 642/7/3 635/7/3 641/7/3
f 646/7/3 645/7/3 644/7/3
f 649/2/3 644/2/3 643/2/3
f 650/7/3 646/7/3 644/7/3
f 650/2/3 644/2/3 649/2/3
f 651/7/3 646/7/3 650/7/3
f 652/4/3 648/4/3 647/4/3
f 653/4/3 648/4/3 652/4/3
f 658/1/3 655/1/3 654/1/3
f 659/1/3 655/1/3 658/1/3
f 661/4/3 657/4/3 656/4/3
f 662/4/3 657/4/3 661/4/3
f 663/4/3 660/4/3 659/4/3
f 664/4/3 660/4/3 663/4/3
f 671/4/3 666/4/3 665/4/3
f 672/1/3 667/1/3 666/1/3
f 672/4/3 666/4/3 671/4/3
f 672/1/3 668/1/3 667/1/3
f 673/1/3 668/1/3 672/1/3
f 674/4/3 670/4/3 669/4/3
f 675/4/3 670/4/3 674/4/3
f 676/1/3 673/1/3 672/1/3
f 676/1/3 674/1/3 673/1/3
f 677/1/3 674/1/3 676/1/3
f 680/4/3 679/4/3 678/4/3
f 681/4/3 679/4/3 680/4/3
f 684/4/3 683/4/3 682/4/3
f 685/4/3 683/4/3 684/4/3
f 688/4/3 687/4/3 686/4/3
f 689/4/3 687/4/3 688/4/3
f 692/4/3 691/4/3 690/4/3
f 693/4/3 691/4/3 692/4/3
f 696/4/3 695/4/3 694/4/3
f 697/4/3 695/4/3 696/4/3
f 698/4/4 699/4/4 700/4/4
f 700/4/4 699/4/4 701/4/4
f 702/4/4 703/4/4 704/4/4
f 704/4/4 703/4/4 705/4/4
f 706/4/4 707/4/4 710/4/4
f 710/4/4 707/4/4 711/4/4
f 708/4/4 709/4/4 712/4/4
f 712/4/4 709/4/4 713/4/4
f 714/4/4 715/4/4 720/4/4
f 720/4/4 715/4/4 721/4/4
f 716/4/4 717/4/4 722/4/4
f 722/4/4 717/4/4 723/4/4
f 718/4/4 719/4/4 724/4/4
f 724/4/4 719/4/4 725/4/4
f 726/4/4 727/4/4 729/4/4
f 727/4/4 728/4/4 729/4/4
f 729/4/4 728/4/4 730/4/4
f 731/4/4 732/4/4 733/4/4
f 733/4/4 732/4/4 734/4/4
f 734/4/4 732/4/4 735/4/4
f 736/4/4 737/4/4 738/4/4
f 738/4/4 737/4/4 739/4/4
f 740/4/4 741/4/4 744/4/4
f 744/4/4 741/4/4 745/4/4
f 742/4/4 743/4/4 746/4/4
f 746/4/4 743/4/4 747/4/4
f 748/4/4 749/4/4 751/4/4
f 749/4/4 750/4/4 751/4/4
f 751/4/4 750/4/4 752/4/4
f 753/4/4 754/4/4 755/4/4
f 755/4/4 754/4/4 756/4/4
f 757/4/4 758/4/4 759/4/4
f 759/4/4 758/4/4 760/4/4
f 761/1/4 762/1/4 767/1/4
f 767/1/4 762/1/4 768/1/4
f 765/4/4 766/4/4 769/4/4
f 764/7/4 765/7/4 769/7/4
f 769/4/4 766/4/4 770/4/4
f 763/2/4 764/2/4 772/2/4
f 772/2/4 764/2/4 773/2/4
f 764/7/4 769/7/4 774/7/4
f 773/2/4 764/2/4 774/2/4
f 774/7/4 769/7/4 775/7/4
f 775/7/4 769/7/4 776/7/4
f 776/7/4 769/7/4 777/7/4
f 772/5/4 773/5/4 778/5/4
f 771/5/4 772/5/4 778/5/4
f 778/5/4 773/5/4 779/5/4
f 780/5/4 781/5/4 784/5/4
f 784/5/4 781/5/4 785/5/4
f 785/5/4 781/5/4 786/5/4
f 782/7/4 783/7/4 788/7/4
f 787/7/4 788/7/4 789/7/4
f 788/7/4 783/7/4 789/7/4
f 785/2/4 786/2/4 792/2/4
f 786/2/4 787/2/4 792/2/4
f 787/7/4 789/7/4 793/7/4
f 792/2/4 787/2/4 793/2/4
f 793/7/4 789/7/4 794/7/4
f 790/4/4 791/4/4 795/4/4
f 795/4/4 791/4/4 796/4/4
f 796/1/4 797/1/4 798/1/4
f 798/1/4 797/1/4 799/1/4
f 800/4/4 801/4/4 802/4/4
f 802/4/4 801/4/4 803/4/4
f 806/5/4 807/5/4 809/5/4
f 807/7/4 808/7/4 810/7/4
f 809/5/4 807/5/4 810/5/4
f 810/7/4 808/7/4 811/7/4
f 806/5/4 809/5/4 813/5/4
f 809/6/4 810/6/4 813/6/4
f 811/5/4 812/5/4 814/5/4
f 813/6/4 810/6/4 814/6/4
f 810/5/4 811/5/4 814/5/4
f 814/5/4 812/5/4 815/5/4
f 815/5/4 812/5/4 816/5/4
f 804/3/4 805/3/4 817/3/4
f 817/3/4 805/3/4 818/3/4
f 806/5/4 813/5/4 821/5/4
f 813/5/4 814/5/4 821/5/4
f 814/7/4 815/7/4 822/7/4
f 821/5/4 814/5/4 822/5/4
f 815/2/4 816/2/4 823/2/4
f 822/7/4 815/7/4 823/7/4
f 823/2/4 816/2/4 824/2/4
f 806/5/4 821/5/4 825/5/4
f 821/6/4 822/6/4 825/6/4
f 823/5/4 824/5/4 826/5/4
f 825/6/4 822/6/4 826/6/4
f 822/5/4 823/5/4 826/5/4
f 826/5/4 824/5/4 827/5/4
f 827/5/4 824/5/4 828/5/4
f 819/3/4 820/3/4 829/3/4
f 829/3/4 820/3/4 830/3/4
f 806/5/4 825/5/4 831/5/4
f 825/5/4 826/5/4 831/5/4
f 826/7/4 827/7/4 832/7/4
f 831/5/4 826/5/4 832/5/4
f 832/7/4 827/7/4 833/7/4
f 834/4/4 835/4/4 836/4/4
f 836/4/4 835/4/4 837/4/4
f 838/4/4 839/4/4 840/4/4
f 840/4/4 839/4/4 841/4/4
f 841/4/4 839/4/4 842/4/4
f 843/4/4 844/4/4 846/4/4
f 844/4/4 845/4/4 846/4/4
f 846/4/4 845/4/4 847/4/4
f 848/4/4 849/4/4 851/4/4
f 851/4/4 849/4/4 852/4/4
f 852/4/4 849/4/4 853/4/4
f 852/2/4 853/2/4 857/2/4
f 853/2/4 854/2/4 857/2/4
f 857/2/4 854/2/4 858/2/4
f 855/4/4 856/4/4 859/4/4
f 859/4/4 856/4/4 860/4/4
f 850/2/4 851/2/4 861/2/4
f 851/1/4 852/1/4 861/1/4
f 852/2/4 857/2/4 862/2/4
f 861/1/4 852/1/4 862/1/4
f 857/8/4 858/8/4 863/8/4
f 862/2/4 857/2/4 863/2/4
f 861/2/4 862/2/4 864/2/4
f 862/8/4 863/8/4 864/8/4
f 858/2/4 854/2/4 865/2/4
f 864/8/4 863/8/4 865/8/4
f 863/8/4 858/8/4 865/8/4
f 861/2/4 864/2/4 866/2/4
f 864/2/4 865/2/4 866/2/4
f 866/2/4 865/2/4 867/2/4
f 865/2/4 854/2/4 868/2/4
f 867/2/4 865/2/4 868/2/4
f 861/2/4 866/2/4 870/2/4
f 868/2/4 869/2/4 871/2/4
f 867/2/4 868/2/4 871/2/4
f 871/2/4 869/2/4 872/2/4
f 872/2/4 869/2/4 873/2/4
f 870/2/4 871/2/4 874/2/4
f 871/2/4 872/2/4 874/2/4
f 874/2/4 872/2/4 875/2/4
f 861/2/4 870/2/4 876/2/4
f 850/2/4 861/2/4 876/2/4
f 870/2/4 874/2/4 876/2/4
f 874/8/4 875/8/4 877/8/4
f 876/2/4 874/2/4 877/2/4
f 877/8/4 875/8/4 878/8/4
f 877/2/4 878/2/4 879/2/4
f 878/8/4 875/8/4 879/8/4
f 875/2/4 872/2/4 880/2/4
f 879/8/4 875/8/4 880/8/4
f 850/2/4 876/2/4 883/2/4
f 876/1/4 877/1/4 884/1/4
f 883/2/4 876/2/4 884/2/4
f 884/1/4 877/1/4 885/1/4
f 877/2/4 879/2/4 886/2/4
f 885/1/4 877/1/4 886/1/4
f 879/2/4 880/2/4 886/2/4
f 886/2/4 880/2/4 887/2/4
f 880/2/4 872/2/4 888/2/4
f 887/2/4 880/2/4 888/2/4
f 881/4/4 882/4/4 889/4/4
f 889/4/4 882/4/4 890/4/4
f 886/4/4 887/4/4 891/4/4
f 885/4/4 886/4/4 891/4/4
f 891/4/4 887/4/4 892/4/4
f 893/4/4 894/4/4 895/4/4
f 893/4/4 895/4/4 899/4/4
f 895/4/4 896/4/4 899/4/4
f 899/4/4 896/4/4 900/4/4
f 897/1/4 898/1/4 901/1/4
f 901/1/4 898/1/4 902/1/4
f 900/4/4 896/4/4 904/4/4
f 903/4/4 904/4/4 905/4/4
f 904/4/4 896/4/4 905/4/4
f 905/4/4 896/4/4 906/4/4
f 903/4/4 905/4/4 907/4/4
f 907/4/4 905/4/4 908/4/4
f 913/3/5 910/3/5 909/3/5
f 914/3/5 910/3/5 913/3/5
f 915/3/5 912/3/5 911/3/5
f 916/3/5 912/3/5 915/3/5
f 921/2/5 918/2/5 917/2/5
f 922/2/5 918/2/5 921/2/5
f 923/2/5 920/2/5 919/2/5
f 924/2/5 920/2/5 923/2/5
f 929/5/5 926/5/5 925/5/5
f 930/5/5 926/5/5 929/5/5
f 931/5/5 928/5/5 927/5/5
f 932/5/5 928/5/5 931/5/5
f 934/5/5 931/5/5 930/5/5
f 935/5/5 931/5/5 934/5/5
f 937/5/5 934/5/5 933/5/5
f 937/5/5 936/5/5 935/5/5
f 937/5/5 935/5/5 934/5/5
f 938/5/5 936/5/5 937/5/5
f 941/5/5 940/5/5 939/5/5
f 942/5/5 940/5/5 941/5/5
f 947/4/5 944/4/5 943/4/5
f 948/4/5 944/4/5 947/4/5
f 949/4/5 946/4/5 945/4/5
f 950/4/5 946/4/5 949/4/5
f 953/4/5 952/4/5 951/4/5
f 954/4/5 952/4/5 953/4/5
f 957/4/5 956/4/5 955/4/5
f 958/4/5 956/4/5 957/4/5
f 965/4/5 960/4/5 959/4/5
f 966/4/5 960/4/5 965/4/5
f 971/4/5 962/4/5 961/4/5
f 972/4/5 962/4/5 971/4/5
f 973/4/5 964/4/5 963/4/5
f 974/4/5 964/4/5 973/4/5
f 978/2/5 970/2/5 969/2/5
f 978/2/5 966/2/5 965/2/5
f 978/2/5 972/2/5 971/2/5
f 978/2/5 971/2/5 970/2/5
f 978/2/5 967/2/5 966/2/5
f 978/2/5 969/2/5 968/2/5
f 978/2/5 968/2/5 967/2/5
f 979/2/5 972/2/5 978/2/5
f 980/2/5 972/2/5 979/2/5
f 981/2/5 972/2/5 980/2/5
f 982/2/5 972/2/5 981/2/5
f 983/2/5 972/2/5 982/2/5
f 984/4/5 976/4/5 975/4/5
f 985/4/5 976/4/5 984/4/5
f 987/2/5 978/2/5 977/2/5
f 987/2/5 979/2/5 978/2/5
f 988/2/5 979/2/5 987/2/5
f 989/2/5 979/2/5 988/2/5
f 990/2/5 983/2/5 982/2/5
f 990/2/5 984/2/5 983/2/5
f 991/2/5 984/2/5 990/2/5
f 992/4/5 987/4/5 986/4/5
f 993/4/5 987/4/5 992/4/5
f 994/2/5 984/2/5 991/2/5
f 995/2/5 984/2/5 994/2/5
f 1000/2/5 997/2/5 996/2/5
f 1003/2/5 999/2/5 998/2/5
f 1004/2/5 1002/2/5 1001/2/5
f 1004/2/5 1003/2/5 1002/2/5
f 1004/2/5 1000/2/5 996/2/5
f 1004/2/5 1001/2/5 1000/2/5
f 1005/2/5 999/2/5 1003/2/5
f 1005/2/5 1003/2/5 1004/2/5
f 1010/4/5 1007/4/5 1006/4/5
f 1011/4/5 1007/4/5 1010/4/5
f 1015/2/5 1009/2/5 1008/2/5
f 1016/2/5 1013/2/5 1012/2/5
f 1017/4/5 1015/4/5 1014/4/5
f 1018/2/5 1009/2/5 1015/2/5
f 1018/4/5 1015/4/5 1017/4/5
f 1019/2/5 1009/2/5 1018/2/5
f 1020/2/5 1016/2/5 1012/2/5
f 1021/2/5 1016/2/5 1020/2/5
f 1024/4/5 1023/4/5 1022/4/5
f 1025/4/5 1023/4/5 1024/4/5
f 1028/4/5 1027/4/5 1026/4/5
f 1029/4/5 1027/4/5 1028/4/5
f 1032/4/5 1031/4/5 1030/4/5
f 1033/4/5 1031/4/5 1032/4/5
f 1040/4/5 1035/4/5 1034/4/5
f 1041/4/5 1035/4/5 1040/4/5
f 1042/4/5 1037/4/5 1036/4/5
f 1043/4/5 1037/4/5 1042/4/5
f 1044/4/5 1039/4/5 1038/4/5
f 1045/4/5 1039/4/5 1044/4/5
f 1048/4/5 1047/4/5 1046/4/5
f 1049/4/5 1047/4/5 1048/4/5
f 1052/4/5 1051/4/5 1050/4/5
f 1053/4/5 1051/4/5 1052/4/5
f 1058/4/5 1055/4/5 1054/4/5
f 1059/4/5 1055/4/5 1058/4/5
f 1060/1/5 1057/1/5 1056/1/5
f 1061/1/5 1057/1/5 1060/1/5
f 1064/4/5 1063/4/5 1062/4/5
f 1065/4/5 1063/4/5 1064/4/5
f 1071/1/5 1068/1/5 1067/1/5
f 1071/1/5 1067/1/5 1066/1/5
f 1072/1/5 1068/1/5 1071/1/5
f 1073/1/5 1068/1/5 1072/1/5
f 1075/1/5 1070/1/5 1069/1/5
f 1076/1/5 1070/1/5 1075/1/5
f 1077/4/5 1075/4/5 1074/4/5
f 1078/4/5 1075/4/5 1077/4/5
f 1083/4/5 1080/4/5 1079/4/5
f 1084/4/5 1080/4/5 1083/4/5
f 1085/4/5 1082/4/5 1081/4/5
f 1086/4/5 1082/4/5 1085/4/5
f 1091/4/5 1088/4/5 1087/4/5
f 1092/4/5 1088/4/5 1091/4/5
f 1093/4/5 1090/4/5 1089/4/5
f 1094/4/5 1090/4/5 1093/4/5
f 1097/4/5 1096/4/5 1095/4/5
f 1098/4/5 1096/4/5 1097/4/5
f 1103/4/5 1100/4/5 1099/4/5
f 1104/4/5 1100/4/5 1103/4/5
f 1105/4/5 1102/4/5 1101/4/5
f 1106/4/5 1102/4/5 1105/4/5
f 1109/4/5 1108/4/5 1107/4/5
f 1110/4/5 1108/4/5 1109/4/5
f 1113/4/5 1112/4/5 1111/4/5
f 1114/4/5 1112/4/5 1113/4/5
f 1117/4/5 1116/4/5 1115/4/5
f 1118/4/5 1116/4/5 1117/4/5
f 1121/4/5 1120/4/5 1119/4/5
f 1122/4/5 1120/4/5 1121/4/5
f 1127/4/5 1124/4/5 1123/4/5
f 1128/4/5 1124/4/5 1127/4/5
f 1129/4/5 1126/4/5 1125/4/5
f 1130/4/5 1126/4/5 1129/4/5
f 1133/4/5 1132/4/5 1131/4/5
f 1134/4/5 1132/4/5 1133/4/5
f 1135/3/6 1136/3/6 1139/3/6
f 1139/3/6 1136/3/6 1140/3/6
f 1137/3/6 1138/3/6 1141/3/6
f 1141/3/6 1138/3/6 1142/3/6
f 1143/7/6 1144/7/6 1147/7/6
f 1147/7/6 1144/7/6 1148/7/6
f 1145/7/6 1146/7/6 1149/7/6
f 1149/7/6 1146/7/6 1150/7/6
f 1151/7/6 1152/7/6 1155/7/6
f 1155/7/6 1152/7/6 1156/7/6
f 1153/7/6 1154/7/6 1157/7/6
f 1157/7/6 1154/7/6 1158/7/6
f 1159/4/6 1160/4/6 1161/4/6
f 1161/4/6 1160/4/6 1162/4/6
f 1163/7/6 1164/7/6 1167/7/6
f 1167/7/6 1164/7/6 1168/7/6
f 1165/7/6 1166/7/6 1169/7/6
f 1169/7/6 1166/7/6 1170/7/6
f 1171/4/6 1172/4/6 1175/4/6
f 1175/4/6 1172/4/6 1176/4/6
f 1173/4/6 1174/4/6 1177/4/6
f 1177/4/6 1174/4/6 1178/4/6
f 1179/4/6 1180/4/6 1181/4/6
f 1181/4/6 1180/4/6 1182/4/6
f 1183/4/6 1184/4/6 1185/4/6
f 1185/4/6 1184/4/6 1186/4/6
f 1187/4/6 1188/4/6 1189/4/6
f 1189/4/6 1188/4/6 1190/4/6
f 1191/4/6 1192/4/6 1193/4/6
f 1193/4/6 1192/4/6 1194/4/6
f 1195/4/6 1196/4/6 1201/4/6
f 1201/4/6 1196/4/6 1202/4/6
f 1197/4/6 1198/4/6 1203/4/6
f 1203/4/6 1198/4/6 1204/4/6
f 1199/4/6 1200/4/6 1205/4/6
f 1205/4/6 1200/4/6 1206/4/6
f 1207/4/6 1208/4/6 1209/4/6
f 1209/4/6 1208/4/6 1210/4/6
f 1211/4/6 1212/4/6 1213/4/6
f 1213/4/6 1212/4/6 1214/4/6
f 1214/4/6 1215/4/6 1216/4/6
f 1216/4/6 1215/4/6 1217/4/6
f 1218/4/6 1219/4/6 1220/4/6
f 1220/4/6 1219/4/6 1221/4/6
f 1222/4/6 1223/4/6 1226/4/6
f 1226/4/6 1223/4/6 1227/4/6
f 1224/1/6 1225/1/6 1228/1/6
f 1228/1/6 1225/1/6 1229/1/6
f 1230/4/6 1231/4/6 1234/4/6
f 1234/4/6 1231/4/6 1235/4/6
f 1232/4/6 1233/4/6 1236/4/6
f 1236/4/6 1233/4/6 1237/4/6
f 1240/4/6 1241/4/6 1243/4/6
f 1243/4/6 1241/4/6 1244/4/6
f 1238/4/6 1239/4/6 1245/4/6
f 1245/4/6 1239/4/6 1246/4/6
f 1242/1/6 1243/1/6 1248/1/6
f 1248/1/6 1243/1/6 1249/1/6
f 1246/1/6 1247/1/6 1250/1/6
f 1250/1/6 1247/1/6 1251/1/6
f 1252/4/6 1253/4/6 1256/4/6
f 1256/4/6 1253/4/6 1257/4/6
f 1254/4/6 1255/4/6 1258/4/6
f 1258/4/6 1255/4/6 1259/4/6
f 1260/4/6 1261/4/6 1262/4/6
f 1262/4/6 1261/4/6 1263/4/6
f 1266/4/6 1267/4/6 1268/4/6
f 1268/4/6 1267/4/6 1269/4/6
f 1264/4/6 1265/4/6 1270/4/6
f 1270/4/6 1265/4/6 1271/4/6
f 1272/4/6 1273/4/6 1280/4/6
f 1280/4/6 1273/4/6 1281/4/6
f 1274/4/6 1275/4/6 1282/4/6
f 1282/4/6 1275/4/6 1283/4/6
f 1276/4/6 1277/4/6 1284/4/6
f 1284/4/6 1277/4/6 1285/4/6
f 1278/4/6 1279/4/6 1288/4/6
f 1288/4/6 1279/4/6 1289/4/6
f 1286/4/6 1287/4/6 1290/4/6
f 1290/4/6 1287/4/6 1291/4/6
f 1292/4/6 1293/4/6 1294/4/6
f 1294/4/6 1293/4/6 1295/4/6
f 1296/4/6 1297/4/6 1298/4/6
f 1298/4/6 1297/4/6 1299/4/6
f 1302/4/6 1303/4/6 1304/4/6
f 1304/4/6 1303/4/6 1305/4/6
f 1300/4/6 1301/4/6 1306/4/6
f 1306/4/6 1301/4/6 1307/4/6
f 1308/4/6 1309/4/6 1312/4/6
f 1312/4/6 1309/4/6 1313/4/6
f 1310/4/6 1311/4/6 1314/4/6
f 1314/4/6 1311/4/6 1315/4/6
f 1316/4/6 1317/4/6 1319/4/6
f 1319/4/6 1317/4/6 1320/4/6
f 1318/4/6 1319/4/6 1322/4/6
f 1320/4/6 1321/4/6 1322/4/6
f 1319/4/6 1320/4/6 1322/4/6
f 1322/4/6 1321/4/6 1323/4/6
f 1323/4/6 1321/4/6 1324/4/6
f 1324/4/6 1321/4/6 1325/4/6
f 1323/4/6 1324/4/6 1326/4/6
f 1326/4/6 1324/4/6 1327/4/6
