# MagicaVoxel @ Ephtracy

# group
o 

# material
mtllib BrownPlayer1.mtl
usemtl palette

# normals
vn -1 0 0
vn 1 0 0
vn 0 0 1
vn 0 0 -1
vn 0 -1 0
vn 0 1 0

# texcoords
vt 0.0839844 0.5
vt 0.119141 0.5
vt 0.201172 0.5
vt 0.224609 0.5
vt 0.955078 0.5
vt 0.986328 0.5
vt 0.994141 0.5

# verts
v -0.7 2.2 0
v -0.7 2.2 -0.1
v -0.7 2.5 0
v -0.7 2.5 -0.1
v -0.6 1.3 0.1
v -0.6 1.3 -0.1
v -0.6 1.9 0.1
v -0.6 1.9 -0.1
v -0.6 2.1 -0.3
v -0.6 2.1 -0.4
v -0.6 2.2 0.4
v -0.6 2.2 0
v -0.6 2.2 -0.1
v -0.6 2.2 -0.3
v -0.6 2.2 -0.4
v -0.6 2.3 0.5
v -0.6 2.3 0.4
v -0.6 2.5 0
v -0.6 2.5 -0.1
v -0.6 2.7 0.5
v -0.6 2.7 0.4
v -0.6 2.7 -0.3
v -0.6 2.7 -0.4
v -0.6 2.8 0.4
v -0.6 2.8 -0.4
v -0.5 1.9 0.4
v -0.5 1.9 0.1
v -0.5 1.9 -0.1
v -0.5 1.9 -0.3
v -0.5 2 0.5
v -0.5 2 0.4
v -0.5 2 -0.3
v -0.5 2 -0.4
v -0.5 2.1 0.5
v -0.5 2.1 -0.1
v -0.5 2.1 -0.3
v -0.5 2.1 -0.4
v -0.5 2.2 0.4
v -0.5 2.2 0
v -0.5 2.2 -0.1
v -0.5 2.2 -0.3
v -0.5 2.2 -0.4
v -0.5 2.3 0.6
v -0.5 2.3 0.5
v -0.5 2.3 0.4
v -0.5 2.3 -0.3
v -0.5 2.3 -0.4
v -0.5 2.4 -0.3
v -0.5 2.4 -0.4
v -0.5 2.6 0.6
v -0.5 2.6 0.5
v -0.5 2.6 -0.4
v -0.5 2.6 -0.5
v -0.5 2.7 -0.3
v -0.5 2.7 -0.4
v -0.5 2.8 0.3
v -0.5 2.8 -0.4
v -0.5 2.8 -0.5
v -0.5 2.9 0.3
v -0.5 2.9 -0.4
v -0.4 1 0.2
v -0.4 1 -0.2
v -0.4 1.2 0.2
v -0.4 1.2 0.1
v -0.4 1.2 0
v -0.4 1.2 -0.1
v -0.4 1.2 -0.2
v -0.4 1.3 0.2
v -0.4 1.3 0.1
v -0.4 1.3 0
v -0.4 1.3 -0.1
v -0.4 1.4 0.3
v -0.4 1.4 0.2
v -0.4 1.4 -0.1
v -0.4 1.4 -0.2
v -0.4 1.5 0.3
v -0.4 1.5 0.1
v -0.4 1.5 -0.1
v -0.4 1.5 -0.2
v -0.4 1.6 0.3
v -0.4 1.6 0.1
v -0.4 1.6 -0.1
v -0.4 1.6 -0.2
v -0.4 1.8 0.3
v -0.4 1.8 0.2
v -0.4 1.8 0.1
v -0.4 1.8 -0.1
v -0.4 1.8 -0.2
v -0.4 1.9 0.5
v -0.4 1.9 0.4
v -0.4 1.9 0.2
v -0.4 1.9 0.1
v -0.4 2 0.5
v -0.4 2 0.4
v -0.4 2.2 0.6
v -0.4 2.2 0.5
v -0.4 2.3 0.6
v -0.4 2.3 0.5
v -0.4 2.5 -0.4
v -0.4 2.5 -0.5
v -0.4 2.6 0.6
v -0.4 2.6 0.5
v -0.4 2.6 -0.4
v -0.4 2.6 -0.5
v -0.4 2.7 0.6
v -0.4 2.7 0.5
v -0.4 2.7 0.4
v -0.4 2.8 0.5
v -0.4 2.8 0.4
v -0.4 2.8 0.3
v -0.4 2.8 -0.4
v -0.4 2.8 -0.5
v -0.4 2.9 0.4
v -0.4 2.9 0.3
v -0.4 2.9 -0.4
v -0.4 2.9 -0.5
v -0.3 1.8 0.3
v -0.3 1.8 0.2
v -0.3 1.8 -0.1
v -0.3 1.8 -0.2
v -0.3 1.9 0.3
v -0.3 1.9 0.2
v -0.3 1.9 -0.1
v -0.3 1.9 -0.2
v -0.3 1.9 -0.3
v -0.3 1.9 -0.4
v -0.3 2 -0.3
v -0.3 2 -0.4
v -0.3 2.7 0.6
v -0.3 2.7 0.5
v -0.3 2.8 0.6
v -0.3 2.8 0.5
v -0.2 2.8 0.5
v -0.2 2.8 0.4
v -0.2 2.9 0.5
v -0.2 2.9 0.4
v -0.1 2.1 -0.4
v -0.1 2.1 -0.5
v -0.1 2.2 -0.4
v -0.1 2.4 -0.4
v -0.1 2.4 -0.5
v 0.1 1 0.2
v 0.1 1 -0.2
v 0.1 1.2 0.2
v 0.1 1.2 0.1
v 0.1 1.2 -0.1
v 0.1 1.2 -0.2
v 0.1 1.3 0.2
v 0.1 1.3 0.1
v 0.1 1.3 0
v 0.1 1.3 -0.1
v 0.1 1.4 0.3
v 0.1 1.4 0.2
v 0.1 1.4 0
v 0.1 1.4 -0.1
v 0.1 1.5 0.3
v 0.1 1.5 0.2
v 0.1 2.5 -0.4
v 0.1 2.5 -0.5
v 0.1 2.6 -0.4
v 0.1 2.6 -0.5
v -0.1 1 0.2
v -0.1 1 -0.2
v -0.1 1.2 0.2
v -0.1 1.2 0.1
v -0.1 1.2 -0.1
v -0.1 1.2 -0.2
v -0.1 1.3 0.2
v -0.1 1.3 0.1
v -0.1 1.3 0
v -0.1 1.3 -0.1
v -0.1 1.4 0.3
v -0.1 1.4 0.2
v -0.1 1.4 0
v -0.1 1.4 -0.1
v -0.1 1.5 0.3
v -0.1 1.5 0.2
v -0.1 2.5 -0.4
v -0.1 2.5 -0.5
v -0.1 2.6 -0.4
v -0.1 2.6 -0.5
v 0.1 2.1 -0.4
v 0.1 2.1 -0.5
v 0.1 2.2 -0.4
v 0.1 2.4 -0.4
v 0.1 2.4 -0.5
v 0.2 2.8 0.5
v 0.2 2.8 0.4
v 0.2 2.9 0.5
v 0.2 2.9 0.4
v 0.3 1.8 0.3
v 0.3 1.8 0.2
v 0.3 1.8 -0.1
v 0.3 1.8 -0.2
v 0.3 1.9 0.3
v 0.3 1.9 0.2
v 0.3 1.9 -0.1
v 0.3 1.9 -0.2
v 0.3 1.9 -0.3
v 0.3 1.9 -0.4
v 0.3 2 -0.3
v 0.3 2 -0.4
v 0.3 2.7 0.6
v 0.3 2.7 0.5
v 0.3 2.8 0.6
v 0.3 2.8 0.5
v 0.4 1 0.2
v 0.4 1 -0.2
v 0.4 1.2 0.2
v 0.4 1.2 0.1
v 0.4 1.2 0
v 0.4 1.2 -0.1
v 0.4 1.2 -0.2
v 0.4 1.3 0.2
v 0.4 1.3 0.1
v 0.4 1.3 0
v 0.4 1.3 -0.1
v 0.4 1.4 0.3
v 0.4 1.4 0.2
v 0.4 1.4 -0.1
v 0.4 1.4 -0.2
v 0.4 1.5 0.3
v 0.4 1.5 0.1
v 0.4 1.5 -0.1
v 0.4 1.5 -0.2
v 0.4 1.6 0.3
v 0.4 1.6 0.1
v 0.4 1.6 -0.1
v 0.4 1.6 -0.2
v 0.4 1.8 0.3
v 0.4 1.8 0.2
v 0.4 1.8 0.1
v 0.4 1.8 -0.1
v 0.4 1.8 -0.2
v 0.4 1.9 0.5
v 0.4 1.9 0.4
v 0.4 1.9 0.2
v 0.4 1.9 0.1
v 0.4 2 0.5
v 0.4 2 0.4
v 0.4 2.2 0.6
v 0.4 2.2 0.5
v 0.4 2.3 0.6
v 0.4 2.3 0.5
v 0.4 2.5 -0.4
v 0.4 2.5 -0.5
v 0.4 2.6 0.6
v 0.4 2.6 0.5
v 0.4 2.6 -0.4
v 0.4 2.6 -0.5
v 0.4 2.7 0.6
v 0.4 2.7 0.5
v 0.4 2.7 0.4
v 0.4 2.8 0.5
v 0.4 2.8 0.4
v 0.4 2.8 0.3
v 0.4 2.8 -0.4
v 0.4 2.8 -0.5
v 0.4 2.9 0.4
v 0.4 2.9 0.3
v 0.4 2.9 -0.4
v 0.4 2.9 -0.5
v 0.5 1.9 0.4
v 0.5 1.9 0.1
v 0.5 1.9 -0.1
v 0.5 1.9 -0.3
v 0.5 2 0.5
v 0.5 2 0.4
v 0.5 2 -0.3
v 0.5 2 -0.4
v 0.5 2.1 0.5
v 0.5 2.1 -0.1
v 0.5 2.1 -0.3
v 0.5 2.1 -0.4
v 0.5 2.2 0.4
v 0.5 2.2 0
v 0.5 2.2 -0.1
v 0.5 2.2 -0.3
v 0.5 2.2 -0.4
v 0.5 2.3 0.6
v 0.5 2.3 0.5
v 0.5 2.3 0.4
v 0.5 2.3 -0.3
v 0.5 2.3 -0.4
v 0.5 2.4 -0.3
v 0.5 2.4 -0.4
v 0.5 2.6 0.6
v 0.5 2.6 0.5
v 0.5 2.6 -0.4
v 0.5 2.6 -0.5
v 0.5 2.7 -0.3
v 0.5 2.7 -0.4
v 0.5 2.8 0.3
v 0.5 2.8 -0.4
v 0.5 2.8 -0.5
v 0.5 2.9 0.3
v 0.5 2.9 -0.4
v 0.6 1.3 0.1
v 0.6 1.3 -0.1
v 0.6 1.9 0.1
v 0.6 1.9 -0.1
v 0.6 2.1 -0.3
v 0.6 2.1 -0.4
v 0.6 2.2 0.4
v 0.6 2.2 0
v 0.6 2.2 -0.1
v 0.6 2.2 -0.3
v 0.6 2.2 -0.4
v 0.6 2.3 0.5
v 0.6 2.3 0.4
v 0.6 2.5 0
v 0.6 2.5 -0.1
v 0.6 2.7 0.5
v 0.6 2.7 0.4
v 0.6 2.7 -0.3
v 0.6 2.7 -0.4
v 0.6 2.8 0.4
v 0.6 2.8 -0.4
v 0.7 2.2 0
v 0.7 2.2 -0.1
v 0.7 2.5 0
v 0.7 2.5 -0.1
v -0.5 2.3 0.6
v -0.5 2.6 0.6
v -0.4 2.2 0.6
v -0.4 2.3 0.6
v -0.4 2.6 0.6
v -0.4 2.7 0.6
v -0.3 2.7 0.6
v -0.3 2.8 0.6
v 0.3 2.7 0.6
v 0.3 2.8 0.6
v 0.4 2.2 0.6
v 0.4 2.3 0.6
v 0.4 2.6 0.6
v 0.4 2.7 0.6
v 0.5 2.3 0.6
v 0.5 2.6 0.6
v -0.6 2.3 0.5
v -0.6 2.7 0.5
v -0.5 2 0.5
v -0.5 2.1 0.5
v -0.5 2.3 0.5
v -0.5 2.6 0.5
v -0.4 1.9 0.5
v -0.4 2 0.5
v -0.4 2.2 0.5
v -0.4 2.3 0.5
v -0.4 2.6 0.5
v -0.4 2.7 0.5
v -0.4 2.8 0.5
v -0.3 2.7 0.5
v -0.3 2.8 0.5
v -0.2 2.8 0.5
v -0.2 2.9 0.5
v 0.2 2.8 0.5
v 0.2 2.9 0.5
v 0.3 2.7 0.5
v 0.3 2.8 0.5
v 0.4 1.9 0.5
v 0.4 2 0.5
v 0.4 2.2 0.5
v 0.4 2.3 0.5
v 0.4 2.6 0.5
v 0.4 2.7 0.5
v 0.4 2.8 0.5
v 0.5 2 0.5
v 0.5 2.1 0.5
v 0.5 2.3 0.5
v 0.5 2.6 0.5
v 0.6 2.3 0.5
v 0.6 2.7 0.5
v -0.6 2.2 0.4
v -0.6 2.3 0.4
v -0.6 2.7 0.4
v -0.6 2.8 0.4
v -0.5 1.9 0.4
v -0.5 2 0.4
v -0.5 2.2 0.4
v -0.5 2.3 0.4
v -0.4 1.9 0.4
v -0.4 2 0.4
v -0.4 2.7 0.4
v -0.4 2.8 0.4
v -0.4 2.9 0.4
v -0.2 2.8 0.4
v -0.2 2.9 0.4
v 0.2 2.8 0.4
v 0.2 2.9 0.4
v 0.4 1.9 0.4
v 0.4 2 0.4
v 0.4 2.7 0.4
v 0.4 2.8 0.4
v 0.4 2.9 0.4
v 0.5 1.9 0.4
v 0.5 2 0.4
v 0.5 2.2 0.4
v 0.5 2.3 0.4
v 0.6 2.2 0.4
v 0.6 2.3 0.4
v 0.6 2.7 0.4
v 0.6 2.8 0.4
v -0.5 2.8 0.3
v -0.5 2.9 0.3
v -0.4 1.4 0.3
v -0.4 1.5 0.3
v -0.4 1.6 0.3
v -0.4 1.8 0.3
v -0.4 2.8 0.3
v -0.4 2.9 0.3
v -0.3 1.8 0.3
v -0.3 1.9 0.3
v -0.1 1.4 0.3
v -0.1 1.5 0.3
v 0.1 1.4 0.3
v 0.1 1.5 0.3
v 0.2 1.4 0.3
v 0.2 1.5 0.3
v 0.3 1.8 0.3
v 0.3 1.9 0.3
v 0.4 1.4 0.3
v 0.4 1.5 0.3
v 0.4 1.6 0.3
v 0.4 1.8 0.3
v 0.4 2.8 0.3
v 0.4 2.9 0.3
v 0.5 2.8 0.3
v 0.5 2.9 0.3
v -0.4 1 0.2
v -0.4 1.2 0.2
v -0.4 1.3 0.2
v -0.4 1.4 0.2
v -0.4 1.8 0.2
v -0.4 1.9 0.2
v -0.3 1.2 0.2
v -0.3 1.3 0.2
v -0.3 1.8 0.2
v -0.3 1.9 0.2
v -0.2 1.2 0.2
v -0.2 1.3 0.2
v -0.1 1 0.2
v -0.1 1.2 0.2
v -0.1 1.3 0.2
v -0.1 1.4 0.2
v -0.1 1.5 0.2
v 0.1 1 0.2
v 0.1 1.2 0.2
v 0.1 1.3 0.2
v 0.1 1.4 0.2
v 0.1 1.5 0.2
v 0.2 1.2 0.2
v 0.2 1.3 0.2
v 0.2 1.4 0.2
v 0.3 1.2 0.2
v 0.3 1.3 0.2
v 0.3 1.8 0.2
v 0.3 1.9 0.2
v 0.4 1 0.2
v 0.4 1.2 0.2
v 0.4 1.3 0.2
v 0.4 1.4 0.2
v 0.4 1.8 0.2
v 0.4 1.9 0.2
v -0.6 1.3 0.1
v -0.6 1.9 0.1
v -0.5 1.8 0.1
v -0.5 1.9 0.1
v -0.4 1.3 0.1
v -0.4 1.5 0.1
v -0.4 1.6 0.1
v -0.4 1.8 0.1
v -0.4 1.9 0.1
v 0.4 1.3 0.1
v 0.4 1.5 0.1
v 0.4 1.6 0.1
v 0.4 1.8 0.1
v 0.4 1.9 0.1
v 0.5 1.8 0.1
v 0.5 1.9 0.1
v 0.6 1.3 0.1
v 0.6 1.9 0.1
v -0.7 2.2 0
v -0.7 2.5 0
v -0.6 2.2 0
v -0.6 2.5 0
v 0.6 2.2 0
v 0.6 2.5 0
v 0.7 2.2 0
v 0.7 2.5 0
v -0.6 2.1 -0.3
v -0.6 2.2 -0.3
v -0.5 2.1 -0.3
v -0.5 2.2 -0.3
v 0.5 2.1 -0.3
v 0.5 2.2 -0.3
v 0.6 2.1 -0.3
v 0.6 2.2 -0.3
v -0.7 2.2 -0.1
v -0.7 2.5 -0.1
v -0.6 1.3 -0.1
v -0.6 1.9 -0.1
v -0.6 2.2 -0.1
v -0.6 2.5 -0.1
v -0.5 1.9 -0.1
v -0.4 1.2 -0.1
v -0.4 1.3 -0.1
v -0.4 1.4 -0.1
v -0.4 1.5 -0.1
v -0.4 1.6 -0.1
v -0.4 1.8 -0.1
v -0.4 1.9 -0.1
v -0.3 1.2 -0.1
v -0.3 1.3 -0.1
v -0.3 1.8 -0.1
v -0.3 1.9 -0.1
v -0.2 1.3 -0.1
v -0.2 1.4 -0.1
v -0.1 1.2 -0.1
v -0.1 1.3 -0.1
v -0.1 1.4 -0.1
v 0.1 1.2 -0.1
v 0.1 1.3 -0.1
v 0.1 1.4 -0.1
v 0.2 1.3 -0.1
v 0.2 1.4 -0.1
v 0.3 1.2 -0.1
v 0.3 1.3 -0.1
v 0.3 1.8 -0.1
v 0.3 1.9 -0.1
v 0.4 1.2 -0.1
v 0.4 1.3 -0.1
v 0.4 1.4 -0.1
v 0.4 1.5 -0.1
v 0.4 1.6 -0.1
v 0.4 1.8 -0.1
v 0.4 1.9 -0.1
v 0.5 1.9 -0.1
v 0.6 1.3 -0.1
v 0.6 1.9 -0.1
v 0.6 2.2 -0.1
v 0.6 2.5 -0.1
v 0.7 2.2 -0.1
v 0.7 2.5 -0.1
v -0.4 1 -0.2
v -0.4 1.2 -0.2
v -0.4 1.4 -0.2
v -0.4 1.5 -0.2
v -0.4 1.6 -0.2
v -0.4 1.8 -0.2
v -0.3 1.8 -0.2
v -0.3 1.9 -0.2
v -0.2 1.8 -0.2
v -0.2 1.9 -0.2
v -0.1 1 -0.2
v -0.1 1.2 -0.2
v -0.1 1.5 -0.2
v -0.1 1.6 -0.2
v 0.1 1 -0.2
v 0.1 1.2 -0.2
v 0.1 1.5 -0.2
v 0.1 1.6 -0.2
v 0.2 1.8 -0.2
v 0.2 1.9 -0.2
v 0.3 1.8 -0.2
v 0.3 1.9 -0.2
v 0.4 1 -0.2
v 0.4 1.2 -0.2
v 0.4 1.4 -0.2
v 0.4 1.5 -0.2
v 0.4 1.6 -0.2
v 0.4 1.8 -0.2
v -0.6 2.2 -0.3
v -0.6 2.7 -0.3
v -0.5 1.9 -0.3
v -0.5 2 -0.3
v -0.5 2.2 -0.3
v -0.5 2.3 -0.3
v -0.5 2.4 -0.3
v -0.5 2.7 -0.3
v -0.3 1.9 -0.3
v -0.3 2 -0.3
v 0.3 1.9 -0.3
v 0.3 2 -0.3
v 0.5 1.9 -0.3
v 0.5 2 -0.3
v 0.5 2.2 -0.3
v 0.5 2.3 -0.3
v 0.5 2.4 -0.3
v 0.5 2.7 -0.3
v 0.6 2.2 -0.3
v 0.6 2.7 -0.3
v -0.6 2.1 -0.4
v -0.6 2.2 -0.4
v -0.6 2.7 -0.4
v -0.6 2.8 -0.4
v -0.5 2 -0.4
v -0.5 2.1 -0.4
v -0.5 2.2 -0.4
v -0.5 2.3 -0.4
v -0.5 2.4 -0.4
v -0.5 2.6 -0.4
v -0.5 2.7 -0.4
v -0.5 2.8 -0.4
v -0.5 2.9 -0.4
v -0.4 2.2 -0.4
v -0.4 2.3 -0.4
v -0.4 2.4 -0.4
v -0.4 2.5 -0.4
v -0.4 2.6 -0.4
v -0.4 2.8 -0.4
v -0.4 2.9 -0.4
v -0.3 1.9 -0.4
v -0.3 2 -0.4
v -0.3 2.2 -0.4
v -0.3 2.3 -0.4
v -0.3 2.4 -0.4
v -0.2 2.3 -0.4
v -0.2 2.4 -0.4
v -0.2 2.5 -0.4
v -0.1 2.1 -0.4
v -0.1 2.2 -0.4
v -0.1 2.4 -0.4
v -0.1 2.5 -0.4
v -0.1 2.6 -0.4
v 0.1 2.1 -0.4
v 0.1 2.2 -0.4
v 0.1 2.4 -0.4
v 0.1 2.5 -0.4
v 0.1 2.6 -0.4
v 0.2 2.3 -0.4
v 0.2 2.4 -0.4
v 0.2 2.5 -0.4
v 0.3 1.9 -0.4
v 0.3 2 -0.4
v 0.3 2.2 -0.4
v 0.3 2.3 -0.4
v 0.3 2.4 -0.4
v 0.4 2.2 -0.4
v 0.4 2.3 -0.4
v 0.4 2.4 -0.4
v 0.4 2.5 -0.4
v 0.4 2.6 -0.4
v 0.4 2.8 -0.4
v 0.4 2.9 -0.4
v 0.5 2 -0.4
v 0.5 2.1 -0.4
v 0.5 2.2 -0.4
v 0.5 2.3 -0.4
v 0.5 2.4 -0.4
v 0.5 2.6 -0.4
v 0.5 2.7 -0.4
v 0.5 2.8 -0.4
v 0.5 2.9 -0.4
v 0.6 2.1 -0.4
v 0.6 2.2 -0.4
v 0.6 2.7 -0.4
v 0.6 2.8 -0.4
v -0.5 2.6 -0.5
v -0.5 2.8 -0.5
v -0.4 2.5 -0.5
v -0.4 2.6 -0.5
v -0.4 2.8 -0.5
v -0.4 2.9 -0.5
v -0.1 2.1 -0.5
v -0.1 2.4 -0.5
v -0.1 2.5 -0.5
v -0.1 2.6 -0.5
v 0.1 2.1 -0.5
v 0.1 2.4 -0.5
v 0.1 2.5 -0.5
v 0.1 2.6 -0.5
v 0.4 2.5 -0.5
v 0.4 2.6 -0.5
v 0.4 2.8 -0.5
v 0.4 2.9 -0.5
v 0.5 2.6 -0.5
v 0.5 2.8 -0.5
v -0.4 1 0.2
v -0.1 1 0.2
v 0.1 1 0.2
v 0.4 1 0.2
v -0.4 1 -0.2
v -0.1 1 -0.2
v 0.1 1 -0.2
v 0.4 1 -0.2
v -0.6 1.3 0.1
v -0.4 1.3 0.1
v 0.4 1.3 0.1
v 0.6 1.3 0.1
v -0.4 1.3 0
v 0.4 1.3 0
v -0.6 1.3 -0.1
v -0.4 1.3 -0.1
v 0.4 1.3 -0.1
v 0.6 1.3 -0.1
v -0.4 1.4 0.3
v -0.1 1.4 0.3
v 0.1 1.4 0.3
v 0.2 1.4 0.3
v 0.4 1.4 0.3
v -0.4 1.4 0.2
v -0.1 1.4 0.2
v 0.1 1.4 0.2
v 0.2 1.4 0.2
v 0.4 1.4 0.2
v -0.1 1.4 0
v 0.1 1.4 0
v -0.4 1.4 -0.1
v -0.2 1.4 -0.1
v -0.1 1.4 -0.1
v 0.1 1.4 -0.1
v 0.2 1.4 -0.1
v 0.4 1.4 -0.1
v -0.4 1.4 -0.2
v 0.4 1.4 -0.2
v -0.1 1.5 0.3
v 0.1 1.5 0.3
v -0.1 1.5 0.2
v 0.1 1.5 0.2
v -0.4 1.9 0.5
v 0.4 1.9 0.5
v -0.5 1.9 0.4
v -0.4 1.9 0.4
v 0.4 1.9 0.4
v 0.5 1.9 0.4
v -0.3 1.9 0.3
v 0.3 1.9 0.3
v -0.4 1.9 0.2
v -0.3 1.9 0.2
v 0.3 1.9 0.2
v 0.4 1.9 0.2
v -0.5 1.9 0.1
v -0.4 1.9 0.1
v 0.4 1.9 0.1
v 0.5 1.9 0.1
v -0.5 1.9 -0.1
v -0.4 1.9 -0.1
v -0.3 1.9 -0.1
v 0.3 1.9 -0.1
v 0.4 1.9 -0.1
v 0.5 1.9 -0.1
v -0.3 1.9 -0.2
v -0.2 1.9 -0.2
v 0.2 1.9 -0.2
v 0.3 1.9 -0.2
v -0.5 1.9 -0.3
v -0.3 1.9 -0.3
v 0.3 1.9 -0.3
v 0.5 1.9 -0.3
v -0.3 1.9 -0.4
v 0.3 1.9 -0.4
v -0.5 2 0.5
v -0.4 2 0.5
v 0.4 2 0.5
v 0.5 2 0.5
v -0.5 2 0.4
v -0.4 2 0.4
v 0.4 2 0.4
v 0.5 2 0.4
v -0.5 2 -0.3
v -0.3 2 -0.3
v 0.3 2 -0.3
v 0.5 2 -0.3
v -0.5 2 -0.4
v -0.3 2 -0.4
v 0.3 2 -0.4
v 0.5 2 -0.4
v -0.6 2.1 -0.3
v -0.5 2.1 -0.3
v 0.5 2.1 -0.3
v 0.6 2.1 -0.3
v -0.6 2.1 -0.4
v -0.5 2.1 -0.4
v -0.1 2.1 -0.4
v 0.1 2.1 -0.4
v 0.5 2.1 -0.4
v 0.6 2.1 -0.4
v -0.1 2.1 -0.5
v 0.1 2.1 -0.5
v -0.4 2.2 0.6
v 0.4 2.2 0.6
v -0.4 2.2 0.5
v 0.4 2.2 0.5
v -0.6 2.2 0.4
v -0.5 2.2 0.4
v 0.5 2.2 0.4
v 0.6 2.2 0.4
v -0.7 2.2 0
v -0.6 2.2 0
v -0.5 2.2 0
v 0.5 2.2 0
v 0.6 2.2 0
v 0.7 2.2 0
v -0.7 2.2 -0.1
v -0.6 2.2 -0.1
v -0.5 2.2 -0.1
v 0.5 2.2 -0.1
v 0.6 2.2 -0.1
v 0.7 2.2 -0.1
v -0.6 2.2 -0.3
v -0.5 2.2 -0.3
v 0.5 2.2 -0.3
v 0.6 2.2 -0.3
v -0.5 2.3 0.6
v -0.4 2.3 0.6
v 0.4 2.3 0.6
v 0.5 2.3 0.6
v -0.6 2.3 0.5
v -0.5 2.3 0.5
v -0.4 2.3 0.5
v 0.4 2.3 0.5
v 0.5 2.3 0.5
v 0.6 2.3 0.5
v -0.6 2.3 0.4
v -0.5 2.3 0.4
v 0.5 2.3 0.4
v 0.6 2.3 0.4
v -0.4 2.5 -0.4
v -0.2 2.5 -0.4
v -0.1 2.5 -0.4
v 0.1 2.5 -0.4
v 0.2 2.5 -0.4
v 0.4 2.5 -0.4
v -0.4 2.5 -0.5
v -0.1 2.5 -0.5
v 0.1 2.5 -0.5
v 0.4 2.5 -0.5
v -0.5 2.6 -0.4
v -0.4 2.6 -0.4
v -0.1 2.6 -0.4
v 0.1 2.6 -0.4
v 0.4 2.6 -0.4
v 0.5 2.6 -0.4
v -0.5 2.6 -0.5
v -0.4 2.6 -0.5
v -0.1 2.6 -0.5
v 0.1 2.6 -0.5
v 0.4 2.6 -0.5
v 0.5 2.6 -0.5
v -0.6 2.7 -0.3
v -0.5 2.7 -0.3
v 0.5 2.7 -0.3
v 0.6 2.7 -0.3
v -0.6 2.7 -0.4
v -0.5 2.7 -0.4
v 0.5 2.7 -0.4
v 0.6 2.7 -0.4
v -0.4 1.2 -0.1
v -0.3 1.2 -0.1
v -0.1 1.2 -0.1
v 0.1 1.2 -0.1
v 0.3 1.2 -0.1
v 0.4 1.2 -0.1
v -0.4 1.2 -0.2
v -0.1 1.2 -0.2
v 0.1 1.2 -0.2
v 0.4 1.2 -0.2
v -0.4 1.8 0.3
v -0.3 1.8 0.3
v 0.3 1.8 0.3
v 0.4 1.8 0.3
v -0.4 1.8 0.2
v -0.3 1.8 0.2
v 0.3 1.8 0.2
v 0.4 1.8 0.2
v -0.4 1.8 -0.1
v -0.3 1.8 -0.1
v 0.3 1.8 -0.1
v 0.4 1.8 -0.1
v -0.4 1.8 -0.2
v -0.3 1.8 -0.2
v 0.3 1.8 -0.2
v 0.4 1.8 -0.2
v -0.6 1.9 0.1
v -0.5 1.9 0.1
v 0.5 1.9 0.1
v 0.6 1.9 0.1
v -0.6 1.9 -0.1
v -0.5 1.9 -0.1
v 0.5 1.9 -0.1
v 0.6 1.9 -0.1
v -0.6 2.2 -0.3
v -0.5 2.2 -0.3
v 0.5 2.2 -0.3
v 0.6 2.2 -0.3
v -0.6 2.2 -0.4
v -0.5 2.2 -0.4
v 0.5 2.2 -0.4
v 0.6 2.2 -0.4
v -0.1 2.4 -0.4
v 0.1 2.4 -0.4
v -0.1 2.4 -0.5
v 0.1 2.4 -0.5
v -0.7 2.5 0
v -0.6 2.5 0
v 0.6 2.5 0
v 0.7 2.5 0
v -0.7 2.5 -0.1
v -0.6 2.5 -0.1
v 0.6 2.5 -0.1
v 0.7 2.5 -0.1
v -0.5 2.6 0.6
v -0.4 2.6 0.6
v 0.4 2.6 0.6
v 0.5 2.6 0.6
v -0.5 2.6 0.5
v -0.4 2.6 0.5
v 0.4 2.6 0.5
v 0.5 2.6 0.5
v -0.4 2.7 0.6
v -0.3 2.7 0.6
v 0.3 2.7 0.6
v 0.4 2.7 0.6
v -0.6 2.7 0.5
v -0.4 2.7 0.5
v -0.3 2.7 0.5
v 0.3 2.7 0.5
v 0.4 2.7 0.5
v 0.6 2.7 0.5
v -0.6 2.7 0.4
v -0.4 2.7 0.4
v 0.4 2.7 0.4
v 0.6 2.7 0.4
v -0.3 2.8 0.6
v 0.3 2.8 0.6
v -0.4 2.8 0.5
v -0.3 2.8 0.5
v -0.2 2.8 0.5
v 0.2 2.8 0.5
v 0.3 2.8 0.5
v 0.4 2.8 0.5
v -0.6 2.8 0.4
v -0.4 2.8 0.4
v -0.2 2.8 0.4
v 0.2 2.8 0.4
v 0.4 2.8 0.4
v 0.6 2.8 0.4
v -0.5 2.8 0.3
v -0.4 2.8 0.3
v 0.4 2.8 0.3
v 0.5 2.8 0.3
v -0.6 2.8 -0.4
v -0.5 2.8 -0.4
v -0.4 2.8 -0.4
v 0.4 2.8 -0.4
v 0.5 2.8 -0.4
v 0.6 2.8 -0.4
v -0.5 2.8 -0.5
v -0.4 2.8 -0.5
v 0.4 2.8 -0.5
v 0.5 2.8 -0.5
v -0.2 2.9 0.5
v 0.2 2.9 0.5
v -0.4 2.9 0.4
v -0.2 2.9 0.4
v 0.2 2.9 0.4
v 0.4 2.9 0.4
v -0.5 2.9 0.3
v -0.4 2.9 0.3
v 0.4 2.9 0.3
v 0.5 2.9 0.3
v -0.5 2.9 -0.4
v -0.4 2.9 -0.4
v 0.4 2.9 -0.4
v 0.5 2.9 -0.4
v -0.4 2.9 -0.5
v 0.4 2.9 -0.5

# faces
f 3/1/1 2/1/1 1/1/1
f 4/1/1 2/1/1 3/1/1
f 7/3/1 6/3/1 5/3/1
f 8/3/1 6/3/1 7/3/1
f 14/4/1 10/4/1 9/4/1
f 15/4/1 10/4/1 14/4/1
f 17/4/1 12/4/1 11/4/1
f 18/4/1 12/4/1 17/4/1
f 18/4/1 17/4/1 16/4/1
f 19/4/1 14/4/1 13/4/1
f 20/4/1 18/4/1 16/4/1
f 20/4/1 19/4/1 18/4/1
f 21/4/1 19/4/1 20/4/1
f 22/4/1 14/4/1 19/4/1
f 22/4/1 19/4/1 21/4/1
f 24/4/1 23/4/1 22/4/1
f 24/4/1 22/4/1 21/4/1
f 25/4/1 23/4/1 24/4/1
f 31/3/1 27/3/1 26/3/1
f 31/3/1 29/3/1 28/3/1
f 31/3/1 28/3/1 27/3/1
f 32/3/1 29/3/1 31/3/1
f 34/3/1 31/3/1 30/3/1
f 34/3/1 32/3/1 31/3/1
f 35/3/1 32/3/1 34/3/1
f 36/1/1 33/1/1 32/1/1
f 36/3/1 32/3/1 35/3/1
f 37/1/1 33/1/1 36/1/1
f 38/4/1 35/4/1 34/4/1
f 39/4/1 35/4/1 38/4/1
f 40/3/1 36/3/1 35/3/1
f 40/4/1 35/4/1 39/4/1
f 41/3/1 36/3/1 40/3/1
f 44/4/1 38/4/1 34/4/1
f 45/4/1 38/4/1 44/4/1
f 46/3/1 42/3/1 41/3/1
f 47/3/1 42/3/1 46/3/1
f 48/6/1 47/6/1 46/6/1
f 49/6/1 47/6/1 48/6/1
f 50/4/1 44/4/1 43/4/1
f 51/4/1 44/4/1 50/4/1
f 52/3/1 49/3/1 48/3/1
f 54/3/1 52/3/1 48/3/1
f 55/4/1 53/4/1 52/4/1
f 55/3/1 52/3/1 54/3/1
f 57/4/1 53/4/1 55/4/1
f 58/4/1 53/4/1 57/4/1
f 59/4/1 57/4/1 56/4/1
f 60/4/1 57/4/1 59/4/1
f 63/5/1 62/5/1 61/5/1
f 64/5/1 62/5/1 63/5/1
f 65/5/1 62/5/1 64/5/1
f 66/5/1 62/5/1 65/5/1
f 67/5/1 62/5/1 66/5/1
f 68/2/1 64/2/1 63/2/1
f 69/4/1 65/4/1 64/4/1
f 69/2/1 64/2/1 68/2/1
f 70/2/1 66/2/1 65/2/1
f 70/4/1 65/4/1 69/4/1
f 71/2/1 66/2/1 70/2/1
f 73/4/1 69/4/1 68/4/1
f 76/4/1 73/4/1 72/4/1
f 77/4/1 69/4/1 73/4/1
f 77/4/1 73/4/1 76/4/1
f 78/4/1 75/4/1 74/4/1
f 79/4/1 75/4/1 78/4/1
f 80/5/1 77/5/1 76/5/1
f 81/5/1 77/5/1 80/5/1
f 82/5/1 79/5/1 78/5/1
f 83/5/1 79/5/1 82/5/1
f 84/2/1 81/2/1 80/2/1
f 85/2/1 81/2/1 84/2/1
f 86/2/1 81/2/1 85/2/1
f 87/2/1 83/2/1 82/2/1
f 88/2/1 83/2/1 87/2/1
f 91/2/1 86/2/1 85/2/1
f 92/2/1 86/2/1 91/2/1
f 93/3/1 90/3/1 89/3/1
f 94/3/1 90/3/1 93/3/1
f 97/4/1 96/4/1 95/4/1
f 98/4/1 96/4/1 97/4/1
f 103/4/1 100/4/1 99/4/1
f 104/4/1 100/4/1 103/4/1
f 105/4/1 102/4/1 101/4/1
f 106/4/1 102/4/1 105/4/1
f 108/4/1 107/4/1 106/4/1
f 109/4/1 107/4/1 108/4/1
f 113/4/1 110/4/1 109/4/1
f 114/4/1 110/4/1 113/4/1
f 115/4/1 112/4/1 111/4/1
f 116/4/1 112/4/1 115/4/1
f 121/2/1 118/2/1 117/2/1
f 122/2/1 118/2/1 121/2/1
f 123/2/1 120/2/1 119/2/1
f 124/2/1 120/2/1 123/2/1
f 127/3/1 126/3/1 125/3/1
f 128/3/1 126/3/1 127/3/1
f 131/4/1 130/4/1 129/4/1
f 132/4/1 130/4/1 131/4/1
f 135/4/1 134/4/1 133/4/1
f 136/4/1 134/4/1 135/4/1
f 139/1/1 138/1/1 137/1/1
f 140/1/1 138/1/1 139/1/1
f 141/1/1 138/1/1 140/1/1
f 144/5/1 143/5/1 142/5/1
f 145/5/1 143/5/1 144/5/1
f 146/5/1 143/5/1 145/5/1
f 147/5/1 143/5/1 146/5/1
f 148/2/1 145/2/1 144/2/1
f 149/4/1 146/4/1 145/4/1
f 149/2/1 145/2/1 148/2/1
f 150/4/1 146/4/1 149/4/1
f 151/4/1 146/4/1 150/4/1
f 153/4/1 149/4/1 148/4/1
f 153/4/1 150/4/1 149/4/1
f 154/2/1 151/2/1 150/2/1
f 154/4/1 150/4/1 153/4/1
f 155/2/1 151/2/1 154/2/1
f 156/2/1 153/2/1 152/2/1
f 157/2/1 153/2/1 156/2/1
f 160/4/1 159/4/1 158/4/1
f 161/4/1 159/4/1 160/4/1
f 162/5/2 163/5/2 164/5/2
f 164/5/2 163/5/2 165/5/2
f 165/5/2 163/5/2 166/5/2
f 166/5/2 163/5/2 167/5/2
f 164/2/2 165/2/2 168/2/2
f 165/4/2 166/4/2 169/4/2
f 168/2/2 165/2/2 169/2/2
f 169/4/2 166/4/2 170/4/2
f 170/4/2 166/4/2 171/4/2
f 168/4/2 169/4/2 173/4/2
f 169/4/2 170/4/2 173/4/2
f 170/2/2 171/2/2 174/2/2
f 173/4/2 170/4/2 174/4/2
f 174/2/2 171/2/2 175/2/2
f 172/4/2 173/4/2 176/4/2
f 176/4/2 173/4/2 177/4/2
f 178/4/2 179/4/2 180/4/2
f 180/4/2 179/4/2 181/4/2
f 182/1/2 183/1/2 184/1/2
f 184/1/2 183/1/2 185/1/2
f 185/1/2 183/1/2 186/1/2
f 187/4/2 188/4/2 189/4/2
f 189/4/2 188/4/2 190/4/2
f 191/2/2 192/2/2 195/2/2
f 195/2/2 192/2/2 196/2/2
f 193/2/2 194/2/2 197/2/2
f 197/2/2 194/2/2 198/2/2
f 199/3/2 200/3/2 201/3/2
f 201/3/2 200/3/2 202/3/2
f 203/4/2 204/4/2 205/4/2
f 205/4/2 204/4/2 206/4/2
f 207/5/2 208/5/2 209/5/2
f 209/5/2 208/5/2 210/5/2
f 210/5/2 208/5/2 211/5/2
f 211/5/2 208/5/2 212/5/2
f 212/5/2 208/5/2 213/5/2
f 209/2/2 210/2/2 214/2/2
f 210/4/2 211/4/2 215/4/2
f 214/2/2 210/2/2 215/2/2
f 211/2/2 212/2/2 216/2/2
f 215/4/2 211/4/2 216/4/2
f 216/2/2 212/2/2 217/2/2
f 214/4/2 215/4/2 219/4/2
f 218/4/2 219/4/2 222/4/2
f 219/4/2 215/4/2 223/4/2
f 222/4/2 219/4/2 223/4/2
f 220/4/2 221/4/2 224/4/2
f 224/4/2 221/4/2 225/4/2
f 222/5/2 223/5/2 226/5/2
f 226/5/2 223/5/2 227/5/2
f 224/5/2 225/5/2 228/5/2
f 228/5/2 225/5/2 229/5/2
f 226/2/2 227/2/2 230/2/2
f 230/2/2 227/2/2 231/2/2
f 231/2/2 227/2/2 232/2/2
f 228/2/2 229/2/2 233/2/2
f 233/2/2 229/2/2 234/2/2
f 231/2/2 232/2/2 237/2/2
f 237/2/2 232/2/2 238/2/2
f 235/3/2 236/3/2 239/3/2
f 239/3/2 236/3/2 240/3/2
f 241/4/2 242/4/2 243/4/2
f 243/4/2 242/4/2 244/4/2
f 245/4/2 246/4/2 249/4/2
f 249/4/2 246/4/2 250/4/2
f 247/4/2 248/4/2 251/4/2
f 251/4/2 248/4/2 252/4/2
f 252/4/2 253/4/2 254/4/2
f 254/4/2 253/4/2 255/4/2
f 255/4/2 256/4/2 259/4/2
f 259/4/2 256/4/2 260/4/2
f 257/4/2 258/4/2 261/4/2
f 261/4/2 258/4/2 262/4/2
f 263/3/2 264/3/2 268/3/2
f 265/3/2 266/3/2 268/3/2
f 264/3/2 265/3/2 268/3/2
f 268/3/2 266/3/2 269/3/2
f 267/3/2 268/3/2 271/3/2
f 268/3/2 269/3/2 271/3/2
f 271/3/2 269/3/2 272/3/2
f 269/1/2 270/1/2 273/1/2
f 272/3/2 269/3/2 273/3/2
f 273/1/2 270/1/2 274/1/2
f 271/4/2 272/4/2 275/4/2
f 275/4/2 272/4/2 276/4/2
f 272/3/2 273/3/2 277/3/2
f 276/4/2 272/4/2 277/4/2
f 277/3/2 273/3/2 278/3/2
f 271/4/2 275/4/2 281/4/2
f 281/4/2 275/4/2 282/4/2
f 278/3/2 279/3/2 283/3/2
f 283/3/2 279/3/2 284/3/2
f 283/6/2 284/6/2 285/6/2
f 285/6/2 284/6/2 286/6/2
f 280/4/2 281/4/2 287/4/2
f 287/4/2 281/4/2 288/4/2
f 285/3/2 286/3/2 289/3/2
f 285/3/2 289/3/2 291/3/2
f 289/4/2 290/4/2 292/4/2
f 291/3/2 289/3/2 292/3/2
f 292/4/2 290/4/2 294/4/2
f 294/4/2 290/4/2 295/4/2
f 293/4/2 294/4/2 296/4/2
f 296/4/2 294/4/2 297/4/2
f 298/3/2 299/3/2 300/3/2
f 300/3/2 299/3/2 301/3/2
f 302/4/2 303/4/2 307/4/2
f 307/4/2 303/4/2 308/4/2
f 304/4/2 305/4/2 310/4/2
f 310/4/2 305/4/2 311/4/2
f 309/4/2 310/4/2 311/4/2
f 306/4/2 307/4/2 312/4/2
f 309/4/2 311/4/2 313/4/2
f 311/4/2 312/4/2 313/4/2
f 313/4/2 312/4/2 314/4/2
f 312/4/2 307/4/2 315/4/2
f 314/4/2 312/4/2 315/4/2
f 315/4/2 316/4/2 317/4/2
f 314/4/2 315/4/2 317/4/2
f 317/4/2 316/4/2 318/4/2
f 319/1/2 320/1/2 321/1/2
f 321/1/2 320/1/2 322/1/2
f 326/4/3 324/4/3 323/4/3
f 327/4/3 324/4/3 326/4/3
f 329/4/3 326/4/3 325/4/3
f 329/4/3 328/4/3 327/4/3
f 329/4/3 327/4/3 326/4/3
f 331/4/3 329/4/3 325/4/3
f 331/4/3 330/4/3 329/4/3
f 332/4/3 330/4/3 331/4/3
f 333/4/3 331/4/3 325/4/3
f 334/4/3 331/4/3 333/4/3
f 335/4/3 331/4/3 334/4/3
f 336/4/3 331/4/3 335/4/3
f 337/4/3 335/4/3 334/4/3
f 338/4/3 335/4/3 337/4/3
f 343/4/3 340/4/3 339/4/3
f 344/4/3 340/4/3 343/4/3
f 346/3/3 342/3/3 341/3/3
f 347/4/3 343/4/3 342/4/3
f 348/4/3 343/4/3 347/4/3
f 349/4/3 340/4/3 344/4/3
f 350/4/3 340/4/3 349/4/3
f 352/4/3 351/4/3 350/4/3
f 353/4/3 351/4/3 352/4/3
f 356/4/3 355/4/3 354/4/3
f 357/4/3 355/4/3 356/4/3
f 360/3/3 346/3/3 345/3/3
f 361/3/3 342/3/3 346/3/3
f 361/3/3 346/3/3 360/3/3
f 362/4/3 347/4/3 342/4/3
f 365/4/3 359/4/3 358/4/3
f 366/4/3 359/4/3 365/4/3
f 367/3/3 342/3/3 361/3/3
f 368/4/3 363/4/3 362/4/3
f 368/3/3 342/3/3 367/3/3
f 368/4/3 362/4/3 342/4/3
f 369/4/3 363/4/3 368/4/3
f 370/4/3 365/4/3 364/4/3
f 371/4/3 370/4/3 369/4/3
f 372/4/3 365/4/3 370/4/3
f 372/4/3 370/4/3 371/4/3
f 379/4/3 374/4/3 373/4/3
f 380/4/3 374/4/3 379/4/3
f 381/3/3 378/3/3 377/3/3
f 382/3/3 378/3/3 381/3/3
f 383/4/3 376/4/3 375/4/3
f 384/4/3 376/4/3 383/4/3
f 386/4/3 385/4/3 384/4/3
f 387/4/3 385/4/3 386/4/3
f 393/4/3 389/4/3 388/4/3
f 394/4/3 389/4/3 393/4/3
f 395/3/3 391/3/3 390/3/3
f 396/3/3 391/3/3 395/3/3
f 399/4/3 398/4/3 397/4/3
f 400/4/3 398/4/3 399/4/3
f 401/4/3 393/4/3 392/4/3
f 402/4/3 393/4/3 401/4/3
f 409/4/3 404/4/3 403/4/3
f 410/4/3 404/4/3 409/4/3
f 411/2/3 408/2/3 407/2/3
f 413/4/3 406/4/3 405/4/3
f 414/5/3 407/5/3 406/5/3
f 414/4/3 406/4/3 413/4/3
f 416/5/3 407/5/3 414/5/3
f 417/2/3 416/2/3 415/2/3
f 418/5/3 407/5/3 416/5/3
f 418/2/3 416/2/3 417/2/3
f 419/2/3 412/2/3 411/2/3
f 419/2/3 411/2/3 407/2/3
f 420/2/3 412/2/3 419/2/3
f 421/4/3 418/4/3 417/4/3
f 422/5/3 407/5/3 418/5/3
f 422/4/3 418/4/3 421/4/3
f 423/2/3 419/2/3 407/2/3
f 423/5/3 407/5/3 422/5/3
f 424/2/3 419/2/3 423/2/3
f 427/4/3 426/4/3 425/4/3
f 428/4/3 426/4/3 427/4/3
f 435/5/3 430/5/3 429/5/3
f 435/2/3 431/2/3 430/2/3
f 436/4/3 432/4/3 431/4/3
f 436/2/3 431/2/3 435/2/3
f 437/2/3 434/2/3 433/2/3
f 438/2/3 434/2/3 437/2/3
f 439/5/3 435/5/3 429/5/3
f 439/4/3 436/4/3 435/4/3
f 440/4/3 432/4/3 436/4/3
f 440/4/3 436/4/3 439/4/3
f 441/5/3 439/5/3 429/5/3
f 442/2/3 440/2/3 439/2/3
f 442/5/3 439/5/3 441/5/3
f 443/4/3 432/4/3 440/4/3
f 443/2/3 440/2/3 442/2/3
f 444/4/3 432/4/3 443/4/3
f 449/4/3 445/4/3 444/4/3
f 450/4/3 445/4/3 449/4/3
f 451/2/3 448/2/3 447/2/3
f 451/5/3 447/5/3 446/5/3
f 452/4/3 449/4/3 448/4/3
f 452/2/3 448/2/3 451/2/3
f 453/4/3 449/4/3 452/4/3
f 454/5/3 451/5/3 446/5/3
f 454/4/3 452/4/3 451/4/3
f 454/4/3 453/4/3 452/4/3
f 455/4/3 453/4/3 454/4/3
f 458/5/3 454/5/3 446/5/3
f 459/2/3 455/2/3 454/2/3
f 459/5/3 454/5/3 458/5/3
f 460/4/3 453/4/3 455/4/3
f 460/2/3 455/2/3 459/2/3
f 461/4/3 453/4/3 460/4/3
f 462/2/3 457/2/3 456/2/3
f 463/2/3 457/2/3 462/2/3
f 466/3/3 465/3/3 464/3/3
f 467/3/3 465/3/3 466/3/3
f 468/3/3 466/3/3 464/3/3
f 469/3/3 466/3/3 468/3/3
f 470/3/3 466/3/3 469/3/3
f 471/2/3 467/2/3 466/2/3
f 471/3/3 466/3/3 470/3/3
f 472/2/3 467/2/3 471/2/3
f 478/3/3 474/3/3 473/3/3
f 478/2/3 477/2/3 476/2/3
f 478/3/3 476/3/3 475/3/3
f 478/3/3 475/3/3 474/3/3
f 479/2/3 477/2/3 478/2/3
f 480/3/3 478/3/3 473/3/3
f 480/3/3 479/3/3 478/3/3
f 481/3/3 479/3/3 480/3/3
f 484/1/3 483/1/3 482/1/3
f 485/1/3 483/1/3 484/1/3
f 488/1/3 487/1/3 486/1/3
f 489/1/3 487/1/3 488/1/3
f 492/4/3 491/4/3 490/4/3
f 493/4/3 491/4/3 492/4/3
f 496/4/3 495/4/3 494/4/3
f 497/4/3 495/4/3 496/4/3
f 498/1/4 499/1/4 502/1/4
f 502/1/4 499/1/4 503/1/4
f 500/3/4 501/3/4 504/3/4
f 500/3/4 504/3/4 506/3/4
f 506/3/4 504/3/4 507/3/4
f 507/3/4 504/3/4 508/3/4
f 508/3/4 504/3/4 509/3/4
f 509/3/4 504/3/4 510/3/4
f 510/3/4 504/3/4 511/3/4
f 505/2/4 506/2/4 512/2/4
f 506/4/4 507/4/4 513/4/4
f 512/2/4 506/2/4 513/2/4
f 510/2/4 511/2/4 514/2/4
f 514/2/4 511/2/4 515/2/4
f 513/4/4 507/4/4 516/4/4
f 512/4/4 513/4/4 516/4/4
f 516/4/4 507/4/4 517/4/4
f 512/4/4 516/4/4 518/4/4
f 516/2/4 517/2/4 519/2/4
f 518/4/4 516/4/4 519/4/4
f 519/2/4 517/2/4 520/2/4
f 521/4/4 522/4/4 524/4/4
f 522/2/4 523/2/4 524/2/4
f 524/2/4 523/2/4 525/2/4
f 521/4/4 524/4/4 526/4/4
f 524/4/4 525/4/4 526/4/4
f 526/4/4 525/4/4 527/4/4
f 526/2/4 527/2/4 530/2/4
f 527/4/4 525/4/4 531/4/4
f 530/2/4 527/2/4 531/2/4
f 531/4/4 525/4/4 532/4/4
f 528/2/4 529/2/4 535/2/4
f 535/2/4 529/2/4 536/2/4
f 533/3/4 534/3/4 537/3/4
f 535/3/4 536/3/4 537/3/4
f 534/3/4 535/3/4 537/3/4
f 531/3/4 532/3/4 537/3/4
f 532/3/4 533/3/4 537/3/4
f 531/3/4 537/3/4 538/3/4
f 538/3/4 537/3/4 539/3/4
f 540/1/4 541/1/4 542/1/4
f 542/1/4 541/1/4 543/1/4
f 548/2/4 549/2/4 550/2/4
f 548/2/4 550/2/4 552/2/4
f 550/2/4 551/2/4 552/2/4
f 552/2/4 551/2/4 553/2/4
f 544/5/4 545/5/4 554/5/4
f 554/5/4 545/5/4 555/5/4
f 546/4/4 547/4/4 556/4/4
f 547/5/4 548/5/4 556/5/4
f 548/2/4 552/2/4 557/2/4
f 556/5/4 548/5/4 557/5/4
f 546/4/4 556/4/4 560/4/4
f 556/6/4 557/6/4 560/6/4
f 557/2/4 552/2/4 561/2/4
f 560/6/4 557/6/4 561/6/4
f 552/3/4 553/3/4 562/3/4
f 561/2/4 552/2/4 562/2/4
f 562/3/4 553/3/4 563/3/4
f 561/2/4 562/2/4 564/2/4
f 562/2/4 563/2/4 564/2/4
f 564/2/4 563/2/4 565/2/4
f 558/5/4 559/5/4 566/5/4
f 566/5/4 559/5/4 567/5/4
f 546/4/4 560/4/4 568/4/4
f 560/5/4 561/5/4 569/5/4
f 568/4/4 560/4/4 569/4/4
f 561/2/4 564/2/4 570/2/4
f 569/5/4 561/5/4 570/5/4
f 570/2/4 564/2/4 571/2/4
f 572/4/4 573/4/4 576/4/4
f 576/4/4 573/4/4 577/4/4
f 577/4/4 573/4/4 578/4/4
f 578/4/4 573/4/4 579/4/4
f 574/3/4 575/3/4 580/3/4
f 580/3/4 575/3/4 581/3/4
f 582/3/4 583/3/4 584/3/4
f 584/3/4 583/3/4 585/3/4
f 588/4/4 589/4/4 590/4/4
f 587/4/4 588/4/4 590/4/4
f 586/4/4 587/4/4 590/4/4
f 590/4/4 589/4/4 591/4/4
f 592/4/4 593/4/4 597/4/4
f 597/4/4 593/4/4 598/4/4
f 594/4/4 595/4/4 602/4/4
f 602/4/4 595/4/4 603/4/4
f 596/1/4 597/1/4 605/1/4
f 597/1/4 598/1/4 605/1/4
f 598/3/4 599/3/4 605/3/4
f 599/6/4 600/6/4 606/6/4
f 605/3/4 599/3/4 606/3/4
f 600/3/4 601/3/4 607/3/4
f 606/6/4 600/6/4 607/6/4
f 607/3/4 601/3/4 608/3/4
f 608/3/4 601/3/4 609/3/4
f 603/4/4 604/4/4 610/4/4
f 610/4/4 604/4/4 611/4/4
f 596/1/4 605/1/4 613/1/4
f 605/6/4 606/6/4 614/6/4
f 606/6/4 607/6/4 614/6/4
f 613/1/4 605/1/4 614/1/4
f 614/6/4 607/6/4 615/6/4
f 607/7/4 608/7/4 616/7/4
f 615/6/4 607/6/4 616/6/4
f 614/6/4 615/6/4 617/6/4
f 615/7/4 616/7/4 617/7/4
f 616/7/4 608/7/4 618/7/4
f 617/7/4 616/7/4 618/7/4
f 618/7/4 608/7/4 619/7/4
f 612/3/4 613/3/4 620/3/4
f 613/3/4 614/3/4 620/3/4
f 614/6/4 617/6/4 621/6/4
f 620/3/4 614/3/4 621/3/4
f 617/6/4 618/6/4 621/6/4
f 618/3/4 619/3/4 622/3/4
f 621/6/4 618/6/4 622/6/4
f 622/3/4 619/3/4 623/3/4
f 612/3/4 620/3/4 625/3/4
f 622/3/4 623/3/4 627/3/4
f 623/3/4 624/3/4 627/3/4
f 627/3/4 624/3/4 628/3/4
f 628/3/4 624/3/4 629/3/4
f 626/6/4 627/6/4 630/6/4
f 627/3/4 628/3/4 631/3/4
f 630/6/4 627/6/4 631/6/4
f 631/3/4 628/3/4 632/3/4
f 625/3/4 626/3/4 633/3/4
f 612/3/4 625/3/4 633/3/4
f 633/3/4 626/3/4 634/3/4
f 626/6/4 630/6/4 635/6/4
f 634/3/4 626/3/4 635/3/4
f 631/7/4 632/7/4 636/7/4
f 635/6/4 630/6/4 636/6/4
f 630/7/4 631/7/4 636/7/4
f 636/7/4 632/7/4 637/7/4
f 634/1/4 635/1/4 638/1/4
f 636/6/4 637/6/4 638/6/4
f 635/6/4 636/6/4 638/6/4
f 638/6/4 637/6/4 639/6/4
f 637/7/4 632/7/4 640/7/4
f 639/6/4 637/6/4 640/6/4
f 640/7/4 632/7/4 641/7/4
f 634/1/4 638/1/4 645/1/4
f 645/1/4 638/1/4 646/1/4
f 638/3/4 639/3/4 647/3/4
f 646/1/4 638/1/4 647/1/4
f 639/6/4 640/6/4 648/6/4
f 647/3/4 639/3/4 648/3/4
f 640/3/4 641/3/4 649/3/4
f 648/6/4 640/6/4 649/6/4
f 641/3/4 642/3/4 649/3/4
f 649/3/4 642/3/4 650/3/4
f 643/4/4 644/4/4 652/4/4
f 652/4/4 644/4/4 653/4/4
f 646/4/4 647/4/4 654/4/4
f 654/4/4 647/4/4 655/4/4
f 651/4/4 652/4/4 656/4/4
f 656/4/4 652/4/4 657/4/4
f 658/4/4 659/4/4 661/4/4
f 661/4/4 659/4/4 662/4/4
f 660/4/4 661/4/4 666/4/4
f 661/4/4 662/4/4 666/4/4
f 662/4/4 663/4/4 666/4/4
f 666/4/4 663/4/4 667/4/4
f 664/1/4 665/1/4 668/1/4
f 668/1/4 665/1/4 669/1/4
f 667/4/4 663/4/4 671/4/4
f 670/4/4 671/4/4 672/4/4
f 671/4/4 663/4/4 673/4/4
f 672/4/4 671/4/4 673/4/4
f 673/4/4 663/4/4 674/4/4
f 674/4/4 663/4/4 675/4/4
f 673/4/4 674/4/4 676/4/4
f 676/4/4 674/4/4 677/4/4
f 682/5/5 679/5/5 678/5/5
f 683/5/5 679/5/5 682/5/5
f 684/5/5 681/5/5 680/5/5
f 685/5/5 681/5/5 684/5/5
f 690/3/5 687/3/5 686/3/5
f 691/3/5 689/3/5 688/3/5
f 692/3/5 690/3/5 686/3/5
f 693/3/5 690/3/5 692/3/5
f 694/3/5 689/3/5 691/3/5
f 695/3/5 689/3/5 694/3/5
f 701/4/5 697/4/5 696/4/5
f 702/4/5 697/4/5 701/4/5
f 703/2/5 699/2/5 698/2/5
f 704/4/5 700/4/5 699/4/5
f 704/2/5 699/2/5 703/2/5
f 705/4/5 700/4/5 704/4/5
f 706/4/5 703/4/5 702/4/5
f 707/4/5 703/4/5 706/4/5
f 710/4/5 707/4/5 706/4/5
f 711/4/5 707/4/5 710/4/5
f 714/4/5 709/4/5 708/4/5
f 714/4/5 713/4/5 712/4/5
f 714/4/5 712/4/5 711/4/5
f 714/4/5 710/4/5 709/4/5
f 714/4/5 711/4/5 710/4/5
f 715/4/5 713/4/5 714/4/5
f 718/5/5 717/5/5 716/5/5
f 719/5/5 717/5/5 718/5/5
f 723/3/5 721/3/5 720/3/5
f 724/3/5 721/3/5 723/3/5
f 726/3/5 723/3/5 722/3/5
f 726/3/5 725/3/5 724/3/5
f 726/3/5 724/3/5 723/3/5
f 727/3/5 725/3/5 726/3/5
f 728/3/5 726/3/5 722/3/5
f 729/3/5 726/3/5 728/3/5
f 730/3/5 725/3/5 727/3/5
f 731/3/5 725/3/5 730/3/5
f 732/3/5 728/3/5 722/3/5
f 733/3/5 728/3/5 732/3/5
f 734/3/5 725/3/5 731/3/5
f 735/3/5 725/3/5 734/3/5
f 742/3/5 737/3/5 736/3/5
f 742/3/5 738/3/5 737/3/5
f 745/3/5 741/3/5 740/3/5
f 745/3/5 740/3/5 739/3/5
f 746/3/5 744/3/5 743/3/5
f 746/3/5 745/3/5 744/3/5
f 746/3/5 743/3/5 742/3/5
f 746/3/5 742/3/5 736/3/5
f 747/3/5 745/3/5 746/3/5
f 748/3/5 741/3/5 745/3/5
f 748/3/5 745/3/5 747/3/5
f 749/3/5 741/3/5 748/3/5
f 750/3/5 748/3/5 747/3/5
f 751/3/5 748/3/5 750/3/5
f 756/3/5 753/3/5 752/3/5
f 757/3/5 753/3/5 756/3/5
f 758/3/5 755/3/5 754/3/5
f 759/3/5 755/3/5 758/3/5
f 764/1/5 761/1/5 760/1/5
f 765/1/5 761/1/5 764/1/5
f 766/1/5 763/1/5 762/1/5
f 767/1/5 763/1/5 766/1/5
f 772/4/5 769/4/5 768/4/5
f 773/4/5 769/4/5 772/4/5
f 776/4/5 771/4/5 770/4/5
f 777/4/5 771/4/5 776/4/5
f 778/1/5 775/1/5 774/1/5
f 779/1/5 775/1/5 778/1/5
f 782/4/5 781/4/5 780/4/5
f 783/4/5 781/4/5 782/4/5
f 789/4/5 785/4/5 784/4/5
f 790/4/5 785/4/5 789/4/5
f 791/4/5 787/4/5 786/4/5
f 792/4/5 787/4/5 791/4/5
f 794/1/5 790/1/5 789/1/5
f 794/1/5 789/1/5 788/1/5
f 795/1/5 790/1/5 794/1/5
f 796/1/5 790/1/5 795/1/5
f 797/1/5 793/1/5 792/1/5
f 797/1/5 792/1/5 791/1/5
f 798/1/5 793/1/5 797/1/5
f 799/1/5 793/1/5 798/1/5
f 800/4/5 796/4/5 795/4/5
f 801/4/5 796/4/5 800/4/5
f 802/4/5 798/4/5 797/4/5
f 803/4/5 798/4/5 802/4/5
f 809/4/5 805/4/5 804/4/5
f 810/4/5 805/4/5 809/4/5
f 811/4/5 807/4/5 806/4/5
f 812/4/5 807/4/5 811/4/5
f 814/4/5 809/4/5 808/4/5
f 815/4/5 809/4/5 814/4/5
f 816/4/5 813/4/5 812/4/5
f 817/4/5 813/4/5 816/4/5
f 824/4/5 819/4/5 818/4/5
f 824/4/5 820/4/5 819/4/5
f 825/4/5 820/4/5 824/4/5
f 826/4/5 823/4/5 822/4/5
f 826/4/5 822/4/5 821/4/5
f 827/4/5 823/4/5 826/4/5
f 834/4/5 829/4/5 828/4/5
f 835/4/5 829/4/5 834/4/5
f 836/4/5 831/4/5 830/4/5
f 837/4/5 831/4/5 836/4/5
f 838/4/5 833/4/5 832/4/5
f 839/4/5 833/4/5 838/4/5
f 844/4/5 841/4/5 840/4/5
f 845/4/5 841/4/5 844/4/5
f 846/4/5 843/4/5 842/4/5
f 847/4/5 843/4/5 846/4/5
f 848/5/6 849/5/6 854/5/6
f 849/5/6 850/5/6 854/5/6
f 854/5/6 850/5/6 855/5/6
f 852/5/6 853/5/6 856/5/6
f 851/5/6 852/5/6 856/5/6
f 856/5/6 853/5/6 857/5/6
f 858/2/6 859/2/6 862/2/6
f 862/2/6 859/2/6 863/2/6
f 860/2/6 861/2/6 864/2/6
f 864/2/6 861/2/6 865/2/6
f 866/2/6 867/2/6 870/2/6
f 870/2/6 867/2/6 871/2/6
f 868/2/6 869/2/6 872/2/6
f 872/2/6 869/2/6 873/2/6
f 874/3/6 875/3/6 878/3/6
f 878/3/6 875/3/6 879/3/6
f 876/3/6 877/3/6 880/3/6
f 880/3/6 877/3/6 881/3/6
f 882/4/6 883/4/6 886/4/6
f 886/4/6 883/4/6 887/4/6
f 884/4/6 885/4/6 888/4/6
f 888/4/6 885/4/6 889/4/6
f 890/1/6 891/1/6 892/1/6
f 892/1/6 891/1/6 893/1/6
f 894/1/6 895/1/6 898/1/6
f 898/1/6 895/1/6 899/1/6
f 896/1/6 897/1/6 900/1/6
f 900/1/6 897/1/6 901/1/6
f 902/4/6 903/4/6 906/4/6
f 906/4/6 903/4/6 907/4/6
f 904/4/6 905/4/6 908/4/6
f 908/4/6 905/4/6 909/4/6
f 910/4/6 911/4/6 915/4/6
f 915/4/6 911/4/6 916/4/6
f 912/4/6 913/4/6 917/4/6
f 917/4/6 913/4/6 918/4/6
f 914/4/6 915/4/6 920/4/6
f 920/4/6 915/4/6 921/4/6
f 918/4/6 919/4/6 922/4/6
f 922/4/6 919/4/6 923/4/6
f 924/4/6 925/4/6 927/4/6
f 927/4/6 925/4/6 928/4/6
f 928/4/6 925/4/6 929/4/6
f 929/4/6 925/4/6 930/4/6
f 926/4/6 927/4/6 933/4/6
f 927/4/6 928/4/6 933/4/6
f 933/4/6 928/4/6 934/4/6
f 929/4/6 930/4/6 935/4/6
f 930/4/6 931/4/6 935/4/6
f 935/4/6 931/4/6 936/4/6
f 932/4/6 933/4/6 938/4/6
f 938/4/6 933/4/6 939/4/6
f 936/4/6 937/4/6 940/4/6
f 940/4/6 937/4/6 941/4/6
f 932/4/6 938/4/6 942/4/6
f 942/4/6 938/4/6 943/4/6
f 941/4/6 937/4/6 946/4/6
f 946/4/6 937/4/6 947/4/6
f 943/4/6 944/4/6 948/4/6
f 948/4/6 944/4/6 949/4/6
f 945/4/6 946/4/6 950/4/6
f 950/4/6 946/4/6 951/4/6
f 952/4/6 953/4/6 955/4/6
f 955/4/6 953/4/6 956/4/6
f 954/4/6 955/4/6 959/4/6
f 956/4/6 957/4/6 959/4/6
f 955/4/6 956/4/6 959/4/6
f 959/4/6 957/4/6 960/4/6
f 958/4/6 959/4/6 962/4/6
f 960/4/6 961/4/6 962/4/6
f 959/4/6 960/4/6 962/4/6
f 962/4/6 961/4/6 963/4/6
f 963/4/6 961/4/6 964/4/6
f 964/4/6 961/4/6 965/4/6
f 963/4/6 964/4/6 966/4/6
f 966/4/6 964/4/6 967/4/6
