# MagicaVoxel @ Ephtracy

# group
o 

# material
mtllib BrownPlayer2.mtl
usemtl palette

# normals
vn -1 0 0
vn 1 0 0
vn 0 0 1
vn 0 0 -1
vn 0 -1 0
vn 0 1 0

# texcoords
vt 0.0410156 0.5
vt 0.119141 0.5
vt 0.224609 0.5
vt 0.236328 0.5
vt 0.263672 0.5
vt 0.310547 0.5
vt 0.353516 0.5
vt 0.955078 0.5
vt 0.986328 0.5
vt 0.994141 0.5

# verts
v -0.7 2.2 0
v -0.7 2.2 -0.1
v -0.7 2.5 0
v -0.7 2.5 -0.1
v -0.6 1.3 0.1
v -0.6 1.3 -0.1
v -0.6 1.5 0.1
v -0.6 1.5 -0.1
v -0.6 1.9 0.1
v -0.6 1.9 -0.1
v -0.5 1.9 0.5
v -0.5 1.9 0.1
v -0.5 1.9 -0.1
v -0.5 1.9 -0.4
v -0.5 2 -0.3
v -0.5 2 -0.4
v -0.5 2.2 0
v -0.5 2.2 -0.1
v -0.5 2.2 -0.3
v -0.5 2.2 -0.4
v -0.5 2.3 0.5
v -0.5 2.3 0
v -0.5 2.4 -0.1
v -0.5 2.4 -0.2
v -0.5 2.5 0
v -0.5 2.5 -0.1
v -0.5 2.6 -0.2
v -0.5 2.6 -0.3
v -0.5 2.7 0.5
v -0.5 2.7 0.4
v -0.5 2.7 -0.3
v -0.5 2.7 -0.4
v -0.5 2.8 0.4
v -0.5 2.8 -0.4
v -0.4 1 0.2
v -0.4 1 -0.2
v -0.4 1.2 0.2
v -0.4 1.2 0.1
v -0.4 1.2 0
v -0.4 1.2 -0.1
v -0.4 1.2 -0.2
v -0.4 1.3 0.2
v -0.4 1.3 0.1
v -0.4 1.3 0
v -0.4 1.3 -0.1
v -0.4 1.4 0.3
v -0.4 1.4 0.2
v -0.4 1.4 -0.1
v -0.4 1.4 -0.2
v -0.4 1.5 0.3
v -0.4 1.5 0.1
v -0.4 1.5 -0.1
v -0.4 1.5 -0.2
v -0.4 1.6 0.3
v -0.4 1.6 0.1
v -0.4 1.6 -0.1
v -0.4 1.6 -0.2
v -0.4 1.8 0.3
v -0.4 1.8 0.2
v -0.4 1.8 -0.1
v -0.4 1.8 -0.2
v -0.4 1.9 0.2
v -0.4 1.9 0.1
v -0.4 2.5 -0.4
v -0.4 2.5 -0.5
v -0.4 2.6 -0.4
v -0.4 2.6 -0.5
v -0.4 2.7 0.5
v -0.4 2.7 0.4
v -0.4 2.8 0.5
v -0.4 2.8 0.4
v -0.3 1.8 0.3
v -0.3 1.8 0.2
v -0.3 1.8 -0.1
v -0.3 1.8 -0.2
v -0.3 1.9 0.3
v -0.3 1.9 0.2
v -0.3 1.9 -0.1
v -0.3 1.9 -0.2
v -0.2 2.7 -0.4
v -0.2 2.7 -0.5
v -0.2 2.8 -0.4
v -0.2 2.8 -0.5
v -0.1 2.1 -0.4
v -0.1 2.1 -0.5
v -0.1 2.4 -0.4
v -0.1 2.4 -0.5
v 0.1 1 0.2
v 0.1 1 -0.2
v 0.1 1.2 0.2
v 0.1 1.2 0.1
v 0.1 1.2 -0.1
v 0.1 1.2 -0.2
v 0.1 1.3 0.2
v 0.1 1.3 0.1
v 0.1 1.3 0
v 0.1 1.3 -0.1
v 0.1 1.4 0.3
v 0.1 1.4 0.2
v 0.1 1.4 0
v 0.1 1.4 -0.1
v 0.1 1.5 0.3
v 0.1 1.5 0.2
v 0.1 2.5 -0.4
v 0.1 2.5 -0.5
v 0.1 2.6 -0.4
v 0.1 2.6 -0.5
v -0.1 1 0.2
v -0.1 1 -0.2
v -0.1 1.2 0.2
v -0.1 1.2 0.1
v -0.1 1.2 -0.1
v -0.1 1.2 -0.2
v -0.1 1.3 0.2
v -0.1 1.3 0.1
v -0.1 1.3 0
v -0.1 1.3 -0.1
v -0.1 1.4 0.3
v -0.1 1.4 0.2
v -0.1 1.4 0
v -0.1 1.4 -0.1
v -0.1 1.5 0.3
v -0.1 1.5 0.2
v -0.1 2.5 -0.4
v -0.1 2.5 -0.5
v -0.1 2.6 -0.4
v -0.1 2.6 -0.5
v 0.1 2.1 -0.4
v 0.1 2.1 -0.5
v 0.1 2.4 -0.4
v 0.1 2.4 -0.5
v 0.2 2.7 -0.4
v 0.2 2.7 -0.5
v 0.2 2.8 -0.4
v 0.2 2.8 -0.5
v 0.3 1.8 0.3
v 0.3 1.8 0.2
v 0.3 1.8 -0.1
v 0.3 1.8 -0.2
v 0.3 1.9 0.3
v 0.3 1.9 0.2
v 0.3 1.9 -0.1
v 0.3 1.9 -0.2
v 0.4 1 0.2
v 0.4 1 -0.2
v 0.4 1.2 0.2
v 0.4 1.2 0.1
v 0.4 1.2 0
v 0.4 1.2 -0.1
v 0.4 1.2 -0.2
v 0.4 1.3 0.2
v 0.4 1.3 0.1
v 0.4 1.3 0
v 0.4 1.3 -0.1
v 0.4 1.4 0.3
v 0.4 1.4 0.2
v 0.4 1.4 -0.1
v 0.4 1.4 -0.2
v 0.4 1.5 0.3
v 0.4 1.5 0.1
v 0.4 1.5 -0.1
v 0.4 1.5 -0.2
v 0.4 1.6 0.3
v 0.4 1.6 0.1
v 0.4 1.6 -0.1
v 0.4 1.6 -0.2
v 0.4 1.8 0.3
v 0.4 1.8 0.2
v 0.4 1.8 -0.1
v 0.4 1.8 -0.2
v 0.4 1.9 0.2
v 0.4 1.9 0.1
v 0.4 2.5 -0.4
v 0.4 2.5 -0.5
v 0.4 2.6 -0.4
v 0.4 2.6 -0.5
v 0.4 2.7 0.5
v 0.4 2.7 0.4
v 0.4 2.8 0.5
v 0.4 2.8 0.4
v 0.5 1.9 0.5
v 0.5 1.9 0.1
v 0.5 1.9 -0.1
v 0.5 1.9 -0.4
v 0.5 2 -0.3
v 0.5 2 -0.4
v 0.5 2.2 0
v 0.5 2.2 -0.1
v 0.5 2.2 -0.3
v 0.5 2.2 -0.4
v 0.5 2.3 0.5
v 0.5 2.3 0
v 0.5 2.4 -0.1
v 0.5 2.4 -0.2
v 0.5 2.5 0
v 0.5 2.5 -0.1
v 0.5 2.6 -0.2
v 0.5 2.6 -0.3
v 0.5 2.7 0.5
v 0.5 2.7 0.4
v 0.5 2.7 -0.3
v 0.5 2.7 -0.4
v 0.5 2.8 0.4
v 0.5 2.8 -0.4
v 0.6 1.3 0.1
v 0.6 1.3 -0.1
v 0.6 1.5 0.1
v 0.6 1.5 -0.1
v 0.6 1.9 0.1
v 0.6 1.9 -0.1
v 0.7 2.2 0
v 0.7 2.2 -0.1
v 0.7 2.5 0
v 0.7 2.5 -0.1
v -0.5 1.9 0.5
v -0.5 2.3 0.5
v -0.5 2.7 0.5
v -0.4 2.7 0.5
v -0.4 2.8 0.5
v 0.4 2.7 0.5
v 0.4 2.8 0.5
v 0.5 1.9 0.5
v 0.5 2.3 0.5
v 0.5 2.7 0.5
v -0.5 2.7 0.4
v -0.5 2.8 0.4
v -0.4 2.7 0.4
v -0.4 2.8 0.4
v 0.4 2.7 0.4
v 0.4 2.8 0.4
v 0.5 2.7 0.4
v 0.5 2.8 0.4
v -0.4 1.4 0.3
v -0.4 1.5 0.3
v -0.4 1.6 0.3
v -0.4 1.8 0.3
v -0.3 1.8 0.3
v -0.3 1.9 0.3
v -0.2 1.4 0.3
v -0.2 1.5 0.3
v -0.1 1.4 0.3
v -0.1 1.5 0.3
v 0.1 1.4 0.3
v 0.1 1.5 0.3
v 0.2 1.4 0.3
v 0.2 1.5 0.3
v 0.3 1.8 0.3
v 0.3 1.9 0.3
v 0.4 1.4 0.3
v 0.4 1.5 0.3
v 0.4 1.6 0.3
v 0.4 1.8 0.3
v -0.4 1 0.2
v -0.4 1.2 0.2
v -0.4 1.3 0.2
v -0.4 1.4 0.2
v -0.4 1.8 0.2
v -0.4 1.9 0.2
v -0.3 1.2 0.2
v -0.3 1.3 0.2
v -0.3 1.8 0.2
v -0.3 1.9 0.2
v -0.2 1.2 0.2
v -0.2 1.3 0.2
v -0.2 1.4 0.2
v -0.1 1 0.2
v -0.1 1.2 0.2
v -0.1 1.3 0.2
v -0.1 1.4 0.2
v -0.1 1.5 0.2
v 0.1 1 0.2
v 0.1 1.2 0.2
v 0.1 1.3 0.2
v 0.1 1.4 0.2
v 0.1 1.5 0.2
v 0.2 1.2 0.2
v 0.2 1.3 0.2
v 0.2 1.4 0.2
v 0.3 1.2 0.2
v 0.3 1.3 0.2
v 0.3 1.8 0.2
v 0.3 1.9 0.2
v 0.4 1 0.2
v 0.4 1.2 0.2
v 0.4 1.3 0.2
v 0.4 1.4 0.2
v 0.4 1.8 0.2
v 0.4 1.9 0.2
v -0.6 1.3 0.1
v -0.6 1.5 0.1
v -0.6 1.9 0.1
v -0.5 1.9 0.1
v -0.4 1.3 0.1
v -0.4 1.5 0.1
v -0.4 1.6 0.1
v -0.4 1.9 0.1
v 0.4 1.3 0.1
v 0.4 1.5 0.1
v 0.4 1.6 0.1
v 0.4 1.9 0.1
v 0.5 1.9 0.1
v 0.6 1.3 0.1
v 0.6 1.5 0.1
v 0.6 1.9 0.1
v -0.7 2.2 0
v -0.7 2.5 0
v -0.5 2.2 0
v -0.5 2.3 0
v -0.5 2.5 0
v 0.5 2.2 0
v 0.5 2.3 0
v 0.5 2.5 0
v 0.7 2.2 0
v 0.7 2.5 0
v -0.7 2.2 -0.1
v -0.7 2.5 -0.1
v -0.6 1.3 -0.1
v -0.6 1.5 -0.1
v -0.6 1.9 -0.1
v -0.5 1.9 -0.1
v -0.5 2.2 -0.1
v -0.5 2.4 -0.1
v -0.5 2.5 -0.1
v -0.4 1.2 -0.1
v -0.4 1.3 -0.1
v -0.4 1.4 -0.1
v -0.4 1.5 -0.1
v -0.4 1.6 -0.1
v -0.4 1.8 -0.1
v -0.3 1.2 -0.1
v -0.3 1.3 -0.1
v -0.3 1.4 -0.1
v -0.3 1.8 -0.1
v -0.3 1.9 -0.1
v -0.2 1.3 -0.1
v -0.2 1.4 -0.1
v -0.1 1.2 -0.1
v -0.1 1.3 -0.1
v -0.1 1.4 -0.1
v 0.1 1.2 -0.1
v 0.1 1.3 -0.1
v 0.1 1.4 -0.1
v 0.2 1.3 -0.1
v 0.2 1.4 -0.1
v 0.3 1.2 -0.1
v 0.3 1.3 -0.1
v 0.3 1.4 -0.1
v 0.3 1.8 -0.1
v 0.3 1.9 -0.1
v 0.4 1.2 -0.1
v 0.4 1.3 -0.1
v 0.4 1.4 -0.1
v 0.4 1.5 -0.1
v 0.4 1.6 -0.1
v 0.4 1.8 -0.1
v 0.5 1.9 -0.1
v 0.5 2.2 -0.1
v 0.5 2.4 -0.1
v 0.5 2.5 -0.1
v 0.6 1.3 -0.1
v 0.6 1.5 -0.1
v 0.6 1.9 -0.1
v 0.7 2.2 -0.1
v 0.7 2.5 -0.1
v -0.4 1 -0.2
v -0.4 1.2 -0.2
v -0.4 1.4 -0.2
v -0.4 1.5 -0.2
v -0.4 1.6 -0.2
v -0.4 1.8 -0.2
v -0.3 1.4 -0.2
v -0.3 1.5 -0.2
v -0.3 1.8 -0.2
v -0.3 1.9 -0.2
v -0.2 1.6 -0.2
v -0.2 1.8 -0.2
v -0.2 1.9 -0.2
v -0.1 1 -0.2
v -0.1 1.2 -0.2
v -0.1 1.5 -0.2
v -0.1 1.6 -0.2
v -0.1 1.8 -0.2
v -0.1 1.9 -0.2
v 0.1 1 -0.2
v 0.1 1.2 -0.2
v 0.1 1.5 -0.2
v 0.1 1.6 -0.2
v 0.1 1.8 -0.2
v 0.1 1.9 -0.2
v 0.2 1.6 -0.2
v 0.2 1.8 -0.2
v 0.2 1.9 -0.2
v 0.3 1.4 -0.2
v 0.3 1.5 -0.2
v 0.3 1.8 -0.2
v 0.3 1.9 -0.2
v 0.4 1 -0.2
v 0.4 1.2 -0.2
v 0.4 1.4 -0.2
v 0.4 1.5 -0.2
v 0.4 1.6 -0.2
v 0.4 1.8 -0.2
v -0.5 1.9 -0.4
v -0.5 2 -0.4
v -0.5 2.2 -0.4
v -0.5 2.7 -0.4
v -0.5 2.8 -0.4
v -0.4 2.5 -0.4
v -0.4 2.6 -0.4
v -0.3 2 -0.4
v -0.3 2.2 -0.4
v -0.3 2.5 -0.4
v -0.2 2.2 -0.4
v -0.2 2.5 -0.4
v -0.2 2.7 -0.4
v -0.2 2.8 -0.4
v -0.1 2.1 -0.4
v -0.1 2.4 -0.4
v -0.1 2.5 -0.4
v -0.1 2.6 -0.4
v 0.1 2.1 -0.4
v 0.1 2.4 -0.4
v 0.1 2.5 -0.4
v 0.1 2.6 -0.4
v 0.2 2.2 -0.4
v 0.2 2.5 -0.4
v 0.2 2.7 -0.4
v 0.2 2.8 -0.4
v 0.3 2 -0.4
v 0.3 2.2 -0.4
v 0.3 2.5 -0.4
v 0.4 2.5 -0.4
v 0.4 2.6 -0.4
v 0.5 1.9 -0.4
v 0.5 2 -0.4
v 0.5 2.2 -0.4
v 0.5 2.7 -0.4
v 0.5 2.8 -0.4
v -0.4 2.5 -0.5
v -0.4 2.6 -0.5
v -0.2 2.7 -0.5
v -0.2 2.8 -0.5
v -0.1 2.1 -0.5
v -0.1 2.4 -0.5
v -0.1 2.5 -0.5
v -0.1 2.6 -0.5
v 0.1 2.1 -0.5
v 0.1 2.4 -0.5
v 0.1 2.5 -0.5
v 0.1 2.6 -0.5
v 0.2 2.7 -0.5
v 0.2 2.8 -0.5
v 0.4 2.5 -0.5
v 0.4 2.6 -0.5
v -0.4 1 0.2
v -0.1 1 0.2
v 0.1 1 0.2
v 0.4 1 0.2
v -0.4 1 -0.2
v -0.1 1 -0.2
v 0.1 1 -0.2
v 0.4 1 -0.2
v -0.6 1.3 0.1
v -0.4 1.3 0.1
v 0.4 1.3 0.1
v 0.6 1.3 0.1
v -0.4 1.3 0
v 0.4 1.3 0
v -0.6 1.3 -0.1
v -0.4 1.3 -0.1
v 0.4 1.3 -0.1
v 0.6 1.3 -0.1
v -0.4 1.4 0.3
v -0.2 1.4 0.3
v -0.1 1.4 0.3
v 0.1 1.4 0.3
v 0.2 1.4 0.3
v 0.4 1.4 0.3
v -0.4 1.4 0.2
v -0.2 1.4 0.2
v -0.1 1.4 0.2
v 0.1 1.4 0.2
v 0.2 1.4 0.2
v 0.4 1.4 0.2
v -0.1 1.4 0
v 0.1 1.4 0
v -0.4 1.4 -0.1
v -0.3 1.4 -0.1
v -0.2 1.4 -0.1
v -0.1 1.4 -0.1
v 0.1 1.4 -0.1
v 0.2 1.4 -0.1
v 0.3 1.4 -0.1
v 0.4 1.4 -0.1
v -0.4 1.4 -0.2
v -0.3 1.4 -0.2
v 0.3 1.4 -0.2
v 0.4 1.4 -0.2
v -0.1 1.5 0.3
v 0.1 1.5 0.3
v -0.1 1.5 0.2
v 0.1 1.5 0.2
v -0.5 1.9 0.5
v 0.5 1.9 0.5
v -0.3 1.9 0.3
v 0.3 1.9 0.3
v -0.4 1.9 0.2
v -0.3 1.9 0.2
v 0.3 1.9 0.2
v 0.4 1.9 0.2
v -0.5 1.9 0.1
v -0.4 1.9 0.1
v 0.4 1.9 0.1
v 0.5 1.9 0.1
v -0.5 1.9 -0.1
v -0.3 1.9 -0.1
v 0.3 1.9 -0.1
v 0.5 1.9 -0.1
v -0.3 1.9 -0.2
v -0.2 1.9 -0.2
v -0.1 1.9 -0.2
v 0.1 1.9 -0.2
v 0.2 1.9 -0.2
v 0.3 1.9 -0.2
v -0.5 1.9 -0.4
v 0.5 1.9 -0.4
v -0.1 2.1 -0.4
v 0.1 2.1 -0.4
v -0.1 2.1 -0.5
v 0.1 2.1 -0.5
v -0.7 2.2 0
v -0.5 2.2 0
v 0.5 2.2 0
v 0.7 2.2 0
v -0.7 2.2 -0.1
v -0.5 2.2 -0.1
v 0.5 2.2 -0.1
v 0.7 2.2 -0.1
v -0.4 2.5 -0.4
v -0.3 2.5 -0.4
v -0.2 2.5 -0.4
v -0.1 2.5 -0.4
v 0.1 2.5 -0.4
v 0.2 2.5 -0.4
v 0.3 2.5 -0.4
v 0.4 2.5 -0.4
v -0.4 2.5 -0.5
v -0.1 2.5 -0.5
v 0.1 2.5 -0.5
v 0.4 2.5 -0.5
v -0.2 2.7 -0.4
v 0.2 2.7 -0.4
v -0.2 2.7 -0.5
v 0.2 2.7 -0.5
v -0.4 1.2 -0.1
v -0.3 1.2 -0.1
v -0.1 1.2 -0.1
v 0.1 1.2 -0.1
v 0.3 1.2 -0.1
v 0.4 1.2 -0.1
v -0.4 1.2 -0.2
v -0.1 1.2 -0.2
v 0.1 1.2 -0.2
v 0.4 1.2 -0.2
v -0.4 1.8 0.3
v -0.3 1.8 0.3
v 0.3 1.8 0.3
v 0.4 1.8 0.3
v -0.4 1.8 0.2
v -0.3 1.8 0.2
v 0.3 1.8 0.2
v 0.4 1.8 0.2
v -0.4 1.8 -0.1
v -0.3 1.8 -0.1
v 0.3 1.8 -0.1
v 0.4 1.8 -0.1
v -0.4 1.8 -0.2
v -0.3 1.8 -0.2
v 0.3 1.8 -0.2
v 0.4 1.8 -0.2
v -0.6 1.9 0.1
v -0.5 1.9 0.1
v 0.5 1.9 0.1
v 0.6 1.9 0.1
v -0.6 1.9 -0.1
v -0.5 1.9 -0.1
v 0.5 1.9 -0.1
v 0.6 1.9 -0.1
v -0.1 2.4 -0.4
v 0.1 2.4 -0.4
v -0.1 2.4 -0.5
v 0.1 2.4 -0.5
v -0.7 2.5 0
v -0.5 2.5 0
v 0.5 2.5 0
v 0.7 2.5 0
v -0.7 2.5 -0.1
v -0.5 2.5 -0.1
v 0.5 2.5 -0.1
v 0.7 2.5 -0.1
v -0.4 2.6 -0.4
v -0.1 2.6 -0.4
v 0.1 2.6 -0.4
v 0.4 2.6 -0.4
v -0.4 2.6 -0.5
v -0.1 2.6 -0.5
v 0.1 2.6 -0.5
v 0.4 2.6 -0.5
v -0.5 2.7 0.5
v -0.4 2.7 0.5
v 0.4 2.7 0.5
v 0.5 2.7 0.5
v -0.5 2.7 0.4
v -0.4 2.7 0.4
v 0.4 2.7 0.4
v 0.5 2.7 0.4
v -0.4 2.8 0.5
v 0.4 2.8 0.5
v -0.5 2.8 0.4
v -0.4 2.8 0.4
v 0.4 2.8 0.4
v 0.5 2.8 0.4
v -0.5 2.8 -0.4
v -0.2 2.8 -0.4
v 0.2 2.8 -0.4
v 0.5 2.8 -0.4
v -0.2 2.8 -0.5
v 0.2 2.8 -0.5

# faces
f 3/1/1 2/1/1 1/1/1
f 4/1/1 2/1/1 3/1/1
f 7/4/1 6/4/1 5/4/1
f 8/4/1 6/4/1 7/4/1
f 9/6/1 8/6/1 7/6/1
f 10/6/1 8/6/1 9/6/1
f 15/4/1 12/4/1 11/4/1
f 15/4/1 14/4/1 13/4/1
f 15/4/1 13/4/1 12/4/1
f 16/4/1 14/4/1 15/4/1
f 17/4/1 15/4/1 11/4/1
f 18/4/1 15/4/1 17/4/1
f 19/1/1 16/1/1 15/1/1
f 19/4/1 15/4/1 18/4/1
f 20/1/1 16/1/1 19/1/1
f 21/4/1 17/4/1 11/4/1
f 22/4/1 17/4/1 21/4/1
f 23/4/1 20/4/1 19/4/1
f 23/4/1 19/4/1 18/4/1
f 24/4/1 20/4/1 23/4/1
f 25/3/1 22/3/1 21/3/1
f 26/3/1 24/3/1 23/3/1
f 27/4/1 20/4/1 24/4/1
f 27/3/1 26/3/1 25/3/1
f 27/3/1 24/3/1 26/3/1
f 28/4/1 20/4/1 27/4/1
f 29/3/1 25/3/1 21/3/1
f 29/3/1 27/3/1 25/3/1
f 29/3/1 28/3/1 27/3/1
f 30/3/1 28/3/1 29/3/1
f 31/4/1 20/4/1 28/4/1
f 31/3/1 28/3/1 30/3/1
f 32/4/1 20/4/1 31/4/1
f 33/3/1 31/3/1 30/3/1
f 33/3/1 32/3/1 31/3/1
f 34/3/1 32/3/1 33/3/1
f 37/8/1 36/8/1 35/8/1
f 38/8/1 36/8/1 37/8/1
f 39/8/1 36/8/1 38/8/1
f 40/8/1 36/8/1 39/8/1
f 41/8/1 36/8/1 40/8/1
f 42/2/1 38/2/1 37/2/1
f 43/3/1 39/3/1 38/3/1
f 43/2/1 38/2/1 42/2/1
f 44/2/1 40/2/1 39/2/1
f 44/3/1 39/3/1 43/3/1
f 45/2/1 40/2/1 44/2/1
f 47/3/1 43/3/1 42/3/1
f 50/3/1 47/3/1 46/3/1
f 51/3/1 43/3/1 47/3/1
f 51/3/1 47/3/1 50/3/1
f 52/2/1 49/2/1 48/2/1
f 53/2/1 49/2/1 52/2/1
f 54/8/1 51/8/1 50/8/1
f 55/8/1 51/8/1 54/8/1
f 56/8/1 53/8/1 52/8/1
f 57/8/1 53/8/1 56/8/1
f 58/6/1 55/6/1 54/6/1
f 59/6/1 55/6/1 58/6/1
f 60/6/1 57/6/1 56/6/1
f 61/6/1 57/6/1 60/6/1
f 62/6/1 55/6/1 59/6/1
f 63/6/1 55/6/1 62/6/1
f 66/3/1 65/3/1 64/3/1
f 67/3/1 65/3/1 66/3/1
f 70/3/1 69/3/1 68/3/1
f 71/3/1 69/3/1 70/3/1
f 76/6/1 73/6/1 72/6/1
f 77/6/1 73/6/1 76/6/1
f 78/5/1 75/5/1 74/5/1
f 79/5/1 75/5/1 78/5/1
f 82/3/1 81/3/1 80/3/1
f 83/3/1 81/3/1 82/3/1
f 86/1/1 85/1/1 84/1/1
f 87/1/1 85/1/1 86/1/1
f 90/8/1 89/8/1 88/8/1
f 91/8/1 89/8/1 90/8/1
f 92/8/1 89/8/1 91/8/1
f 93/8/1 89/8/1 92/8/1
f 94/2/1 91/2/1 90/2/1
f 95/3/1 92/3/1 91/3/1
f 95/2/1 91/2/1 94/2/1
f 96/3/1 92/3/1 95/3/1
f 97/3/1 92/3/1 96/3/1
f 99/3/1 95/3/1 94/3/1
f 99/3/1 96/3/1 95/3/1
f 100/2/1 97/2/1 96/2/1
f 100/3/1 96/3/1 99/3/1
f 101/2/1 97/2/1 100/2/1
f 102/2/1 99/2/1 98/2/1
f 103/2/1 99/2/1 102/2/1
f 106/3/1 105/3/1 104/3/1
f 107/3/1 105/3/1 106/3/1
f 108/8/2 109/8/2 110/8/2
f 110/8/2 109/8/2 111/8/2
f 111/8/2 109/8/2 112/8/2
f 112/8/2 109/8/2 113/8/2
f 110/2/2 111/2/2 114/2/2
f 111/3/2 112/3/2 115/3/2
f 114/2/2 111/2/2 115/2/2
f 115/3/2 112/3/2 116/3/2
f 116/3/2 112/3/2 117/3/2
f 114/3/2 115/3/2 119/3/2
f 115/3/2 116/3/2 119/3/2
f 116/2/2 117/2/2 120/2/2
f 119/3/2 116/3/2 120/3/2
f 120/2/2 117/2/2 121/2/2
f 118/2/2 119/2/2 122/2/2
f 122/2/2 119/2/2 123/2/2
f 124/3/2 125/3/2 126/3/2
f 126/3/2 125/3/2 127/3/2
f 128/1/2 129/1/2 130/1/2
f 130/1/2 129/1/2 131/1/2
f 132/3/2 133/3/2 134/3/2
f 134/3/2 133/3/2 135/3/2
f 136/6/2 137/6/2 140/6/2
f 140/6/2 137/6/2 141/6/2
f 138/5/2 139/5/2 142/5/2
f 142/5/2 139/5/2 143/5/2
f 144/8/2 145/8/2 146/8/2
f 146/8/2 145/8/2 147/8/2
f 147/8/2 145/8/2 148/8/2
f 148/8/2 145/8/2 149/8/2
f 149/8/2 145/8/2 150/8/2
f 146/2/2 147/2/2 151/2/2
f 147/3/2 148/3/2 152/3/2
f 151/2/2 147/2/2 152/2/2
f 148/2/2 149/2/2 153/2/2
f 152/3/2 148/3/2 153/3/2
f 153/2/2 149/2/2 154/2/2
f 151/3/2 152/3/2 156/3/2
f 155/3/2 156/3/2 159/3/2
f 156/3/2 152/3/2 160/3/2
f 159/3/2 156/3/2 160/3/2
f 157/2/2 158/2/2 161/2/2
f 161/2/2 158/2/2 162/2/2
f 159/8/2 160/8/2 163/8/2
f 163/8/2 160/8/2 164/8/2
f 161/8/2 162/8/2 165/8/2
f 165/8/2 162/8/2 166/8/2
f 163/6/2 164/6/2 167/6/2
f 167/6/2 164/6/2 168/6/2
f 165/6/2 166/6/2 169/6/2
f 169/6/2 166/6/2 170/6/2
f 168/6/2 164/6/2 171/6/2
f 171/6/2 164/6/2 172/6/2
f 173/3/2 174/3/2 175/3/2
f 175/3/2 174/3/2 176/3/2
f 177/3/2 178/3/2 179/3/2
f 179/3/2 178/3/2 180/3/2
f 181/4/2 182/4/2 185/4/2
f 183/4/2 184/4/2 185/4/2
f 182/4/2 183/4/2 185/4/2
f 185/4/2 184/4/2 186/4/2
f 181/4/2 185/4/2 187/4/2
f 187/4/2 185/4/2 188/4/2
f 185/1/2 186/1/2 189/1/2
f 188/4/2 185/4/2 189/4/2
f 189/1/2 186/1/2 190/1/2
f 181/4/2 187/4/2 191/4/2
f 191/4/2 187/4/2 192/4/2
f 189/4/2 190/4/2 193/4/2
f 188/4/2 189/4/2 193/4/2
f 193/4/2 190/4/2 194/4/2
f 191/3/2 192/3/2 195/3/2
f 193/3/2 194/3/2 196/3/2
f 194/4/2 190/4/2 197/4/2
f 195/3/2 196/3/2 197/3/2
f 196/3/2 194/3/2 197/3/2
f 197/4/2 190/4/2 198/4/2
f 191/3/2 195/3/2 199/3/2
f 195/3/2 197/3/2 199/3/2
f 197/3/2 198/3/2 199/3/2
f 199/3/2 198/3/2 200/3/2
f 198/4/2 190/4/2 201/4/2
f 200/3/2 198/3/2 201/3/2
f 201/4/2 190/4/2 202/4/2
f 200/3/2 201/3/2 203/3/2
f 201/3/2 202/3/2 203/3/2
f 203/3/2 202/3/2 204/3/2
f 205/4/2 206/4/2 207/4/2
f 207/4/2 206/4/2 208/4/2
f 207/6/2 208/6/2 209/6/2
f 209/6/2 208/6/2 210/6/2
f 211/1/2 212/1/2 213/1/2
f 213/1/2 212/1/2 214/1/2
f 218/3/3 217/3/3 216/3/3
f 220/3/3 218/3/3 216/3/3
f 220/3/3 219/3/3 218/3/3
f 221/3/3 219/3/3 220/3/3
f 222/4/3 216/4/3 215/4/3
f 223/3/3 220/3/3 216/3/3
f 223/4/3 216/4/3 222/4/3
f 224/3/3 220/3/3 223/3/3
f 227/3/3 226/3/3 225/3/3
f 228/3/3 226/3/3 227/3/3
f 231/3/3 230/3/3 229/3/3
f 232/3/3 230/3/3 231/3/3
f 237/6/3 236/6/3 235/6/3
f 239/3/3 234/3/3 233/3/3
f 240/8/3 235/8/3 234/8/3
f 240/3/3 234/3/3 239/3/3
f 241/2/3 240/2/3 239/2/3
f 242/8/3 235/8/3 240/8/3
f 242/2/3 240/2/3 241/2/3
f 244/8/3 235/8/3 242/8/3
f 245/2/3 244/2/3 243/2/3
f 246/8/3 235/8/3 244/8/3
f 246/2/3 244/2/3 245/2/3
f 247/6/3 238/6/3 237/6/3
f 247/6/3 237/6/3 235/6/3
f 248/6/3 238/6/3 247/6/3
f 249/3/3 246/3/3 245/3/3
f 250/8/3 235/8/3 246/8/3
f 250/3/3 246/3/3 249/3/3
f 251/6/3 247/6/3 235/6/3
f 251/8/3 235/8/3 250/8/3
f 252/6/3 247/6/3 251/6/3
f 259/8/3 254/8/3 253/8/3
f 259/2/3 255/2/3 254/2/3
f 260/3/3 256/3/3 255/3/3
f 260/2/3 255/2/3 259/2/3
f 261/6/3 258/6/3 257/6/3
f 262/6/3 258/6/3 261/6/3
f 263/8/3 259/8/3 253/8/3
f 263/3/3 260/3/3 259/3/3
f 264/3/3 256/3/3 260/3/3
f 264/3/3 260/3/3 263/3/3
f 265/3/3 256/3/3 264/3/3
f 266/8/3 263/8/3 253/8/3
f 267/2/3 264/2/3 263/2/3
f 267/8/3 263/8/3 266/8/3
f 268/3/3 265/3/3 264/3/3
f 268/2/3 264/2/3 267/2/3
f 269/3/3 265/3/3 268/3/3
f 274/3/3 270/3/3 269/3/3
f 275/3/3 270/3/3 274/3/3
f 276/2/3 273/2/3 272/2/3
f 276/8/3 272/8/3 271/8/3
f 277/3/3 274/3/3 273/3/3
f 277/2/3 273/2/3 276/2/3
f 278/3/3 274/3/3 277/3/3
f 279/8/3 276/8/3 271/8/3
f 279/3/3 277/3/3 276/3/3
f 279/3/3 278/3/3 277/3/3
f 280/3/3 278/3/3 279/3/3
f 283/8/3 279/8/3 271/8/3
f 284/2/3 280/2/3 279/2/3
f 284/8/3 279/8/3 283/8/3
f 285/3/3 278/3/3 280/3/3
f 285/2/3 280/2/3 284/2/3
f 286/3/3 278/3/3 285/3/3
f 287/6/3 282/6/3 281/6/3
f 288/6/3 282/6/3 287/6/3
f 292/6/3 291/6/3 290/6/3
f 293/4/3 290/4/3 289/4/3
f 294/6/3 292/6/3 290/6/3
f 294/4/3 290/4/3 293/4/3
f 295/6/3 292/6/3 294/6/3
f 296/6/3 292/6/3 295/6/3
f 301/6/3 299/6/3 298/6/3
f 301/6/3 300/6/3 299/6/3
f 302/4/3 298/4/3 297/4/3
f 303/6/3 301/6/3 298/6/3
f 303/4/3 298/4/3 302/4/3
f 304/6/3 301/6/3 303/6/3
f 307/1/3 306/1/3 305/1/3
f 308/1/3 306/1/3 307/1/3
f 309/1/3 306/1/3 308/1/3
f 313/1/3 311/1/3 310/1/3
f 313/1/3 312/1/3 311/1/3
f 314/1/3 312/1/3 313/1/3
f 318/6/4 319/6/4 320/6/4
f 315/1/4 316/1/4 321/1/4
f 321/1/4 316/1/4 322/1/4
f 322/1/4 316/1/4 323/1/4
f 317/4/4 318/4/4 325/4/4
f 325/4/4 318/4/4 326/4/4
f 318/6/4 320/6/4 327/6/4
f 326/4/4 318/4/4 327/4/4
f 327/6/4 320/6/4 328/6/4
f 328/6/4 320/6/4 329/6/4
f 324/2/4 325/2/4 330/2/4
f 325/3/4 326/3/4 331/3/4
f 330/2/4 325/2/4 331/2/4
f 331/3/4 326/3/4 332/3/4
f 329/6/4 320/6/4 333/6/4
f 333/6/4 320/6/4 334/6/4
f 331/3/4 332/3/4 335/3/4
f 330/3/4 331/3/4 335/3/4
f 335/3/4 332/3/4 336/3/4
f 330/3/4 335/3/4 337/3/4
f 335/2/4 336/2/4 338/2/4
f 337/3/4 335/3/4 338/3/4
f 338/2/4 336/2/4 339/2/4
f 340/3/4 341/3/4 343/3/4
f 341/2/4 342/2/4 343/2/4
f 343/2/4 342/2/4 344/2/4
f 340/3/4 343/3/4 345/3/4
f 343/3/4 344/3/4 345/3/4
f 345/3/4 344/3/4 346/3/4
f 346/3/4 344/3/4 347/3/4
f 345/2/4 346/2/4 350/2/4
f 346/3/4 347/3/4 351/3/4
f 350/2/4 346/2/4 351/2/4
f 351/3/4 347/3/4 352/3/4
f 348/6/4 349/6/4 355/6/4
f 353/6/4 354/6/4 356/6/4
f 354/6/4 355/6/4 356/6/4
f 355/6/4 349/6/4 356/6/4
f 352/4/4 353/4/4 360/4/4
f 351/4/4 352/4/4 360/4/4
f 353/6/4 356/6/4 361/6/4
f 360/4/4 353/4/4 361/4/4
f 361/6/4 356/6/4 362/6/4
f 358/1/4 359/1/4 363/1/4
f 357/1/4 358/1/4 363/1/4
f 363/1/4 359/1/4 364/1/4
f 367/2/4 368/2/4 371/2/4
f 368/8/4 369/8/4 372/8/4
f 371/2/4 368/2/4 372/2/4
f 369/6/4 370/6/4 373/6/4
f 372/8/4 369/8/4 375/8/4
f 369/6/4 373/6/4 375/6/4
f 373/5/4 374/5/4 376/5/4
f 375/6/4 373/6/4 376/6/4
f 376/5/4 374/5/4 377/5/4
f 365/8/4 366/8/4 378/8/4
f 378/8/4 366/8/4 379/8/4
f 372/8/4 375/8/4 380/8/4
f 371/3/4 372/3/4 380/3/4
f 375/7/4 376/7/4 381/7/4
f 380/8/4 375/8/4 381/8/4
f 376/7/4 377/7/4 381/7/4
f 381/7/4 377/7/4 382/7/4
f 382/7/4 377/7/4 383/7/4
f 371/3/4 380/3/4 386/3/4
f 380/9/4 381/9/4 386/9/4
f 381/7/4 382/7/4 387/7/4
f 386/9/4 381/9/4 387/9/4
f 382/4/4 383/4/4 388/4/4
f 387/7/4 382/7/4 388/7/4
f 388/4/4 383/4/4 389/4/4
f 386/8/4 387/8/4 390/8/4
f 387/7/4 388/7/4 390/7/4
f 388/7/4 389/7/4 390/7/4
f 390/7/4 389/7/4 391/7/4
f 391/7/4 389/7/4 392/7/4
f 371/3/4 386/3/4 393/3/4
f 386/8/4 390/8/4 394/8/4
f 393/3/4 386/3/4 394/3/4
f 390/6/4 391/6/4 395/6/4
f 391/5/4 392/5/4 395/5/4
f 395/5/4 392/5/4 396/5/4
f 384/8/4 385/8/4 397/8/4
f 397/8/4 385/8/4 398/8/4
f 393/2/4 394/2/4 399/2/4
f 394/8/4 390/8/4 400/8/4
f 399/2/4 394/2/4 400/2/4
f 390/6/4 395/6/4 401/6/4
f 400/8/4 390/8/4 401/8/4
f 401/6/4 395/6/4 402/6/4
f 405/4/4 406/4/4 408/4/4
f 408/4/4 406/4/4 409/4/4
f 403/4/4 404/4/4 410/4/4
f 404/1/4 405/1/4 410/1/4
f 405/4/4 408/4/4 411/4/4
f 410/1/4 405/1/4 411/1/4
f 411/4/4 408/4/4 412/4/4
f 410/4/4 411/4/4 413/4/4
f 411/10/4 412/10/4 413/10/4
f 413/10/4 412/10/4 414/10/4
f 409/4/4 406/4/4 415/4/4
f 406/3/4 407/3/4 415/3/4
f 415/3/4 407/3/4 416/3/4
f 413/4/4 414/4/4 417/4/4
f 410/4/4 413/4/4 417/4/4
f 417/4/4 414/4/4 418/4/4
f 418/4/4 414/4/4 419/4/4
f 409/4/4 415/4/4 420/4/4
f 410/4/4 417/4/4 421/4/4
f 418/4/4 419/4/4 422/4/4
f 419/4/4 420/4/4 422/4/4
f 422/4/4 420/4/4 423/4/4
f 420/4/4 415/4/4 424/4/4
f 423/4/4 420/4/4 424/4/4
f 422/4/4 423/4/4 425/4/4
f 421/4/4 422/4/4 425/4/4
f 425/4/4 423/4/4 426/4/4
f 424/4/4 415/4/4 427/4/4
f 403/4/4 410/4/4 429/4/4
f 410/4/4 421/4/4 429/4/4
f 421/4/4 425/4/4 429/4/4
f 425/10/4 426/10/4 430/10/4
f 429/4/4 425/4/4 430/4/4
f 430/10/4 426/10/4 431/10/4
f 430/4/4 431/4/4 432/4/4
f 424/4/4 427/4/4 433/4/4
f 403/4/4 429/4/4 434/4/4
f 429/1/4 430/1/4 435/1/4
f 434/4/4 429/4/4 435/4/4
f 430/4/4 432/4/4 436/4/4
f 435/1/4 430/1/4 436/1/4
f 432/4/4 433/4/4 436/4/4
f 427/3/4 428/3/4 437/3/4
f 436/4/4 433/4/4 437/4/4
f 433/4/4 427/4/4 437/4/4
f 437/3/4 428/3/4 438/3/4
f 439/3/4 440/3/4 445/3/4
f 445/3/4 440/3/4 446/3/4
f 443/1/4 444/1/4 447/1/4
f 447/1/4 444/1/4 448/1/4
f 441/3/4 442/3/4 451/3/4
f 451/3/4 442/3/4 452/3/4
f 449/3/4 450/3/4 453/3/4
f 453/3/4 450/3/4 454/3/4
f 459/8/5 456/8/5 455/8/5
f 460/8/5 456/8/5 459/8/5
f 461/8/5 458/8/5 457/8/5
f 462/8/5 458/8/5 461/8/5
f 467/4/5 464/4/5 463/4/5
f 468/4/5 466/4/5 465/4/5
f 469/4/5 467/4/5 463/4/5
f 470/4/5 467/4/5 469/4/5
f 471/4/5 466/4/5 468/4/5
f 472/4/5 466/4/5 471/4/5
f 479/3/5 474/3/5 473/3/5
f 480/2/5 475/2/5 474/2/5
f 480/3/5 474/3/5 479/3/5
f 481/2/5 475/2/5 480/2/5
f 482/2/5 477/2/5 476/2/5
f 483/3/5 478/3/5 477/3/5
f 483/2/5 477/2/5 482/2/5
f 484/3/5 478/3/5 483/3/5
f 485/3/5 482/3/5 481/3/5
f 486/3/5 482/3/5 485/3/5
f 490/3/5 486/3/5 485/3/5
f 491/3/5 486/3/5 490/3/5
f 495/2/5 488/2/5 487/2/5
f 496/3/5 489/3/5 488/3/5
f 496/2/5 488/2/5 495/2/5
f 496/3/5 491/3/5 490/3/5
f 496/3/5 493/3/5 492/3/5
f 496/3/5 492/3/5 491/3/5
f 496/3/5 490/3/5 489/3/5
f 497/2/5 494/2/5 493/2/5
f 497/3/5 493/3/5 496/3/5
f 498/2/5 494/2/5 497/2/5
f 501/8/5 500/8/5 499/8/5
f 502/8/5 500/8/5 501/8/5
f 505/4/5 504/4/5 503/4/5
f 506/4/5 504/4/5 505/4/5
f 507/4/5 505/4/5 503/4/5
f 508/4/5 505/4/5 507/4/5
f 509/4/5 504/4/5 506/4/5
f 510/4/5 504/4/5 509/4/5
f 511/4/5 507/4/5 503/4/5
f 512/4/5 507/4/5 511/4/5
f 513/4/5 504/4/5 510/4/5
f 514/4/5 504/4/5 513/4/5
f 519/4/5 516/4/5 515/4/5
f 524/4/5 518/4/5 517/4/5
f 525/4/5 523/4/5 522/4/5
f 525/4/5 524/4/5 523/4/5
f 525/4/5 519/4/5 515/4/5
f 525/4/5 520/4/5 519/4/5
f 525/4/5 522/4/5 521/4/5
f 525/4/5 521/4/5 520/4/5
f 526/4/5 518/4/5 524/4/5
f 526/4/5 524/4/5 525/4/5
f 529/1/5 528/1/5 527/1/5
f 530/1/5 528/1/5 529/1/5
f 535/1/5 532/1/5 531/1/5
f 536/1/5 532/1/5 535/1/5
f 537/1/5 534/1/5 533/1/5
f 538/1/5 534/1/5 537/1/5
f 547/3/5 540/3/5 539/3/5
f 547/3/5 541/3/5 540/3/5
f 547/3/5 542/3/5 541/3/5
f 548/3/5 542/3/5 547/3/5
f 549/3/5 546/3/5 545/3/5
f 549/3/5 545/3/5 544/3/5
f 549/3/5 544/3/5 543/3/5
f 550/3/5 546/3/5 549/3/5
f 553/3/5 552/3/5 551/3/5
f 554/3/5 552/3/5 553/3/5
f 555/8/6 556/8/6 561/8/6
f 556/8/6 557/8/6 561/8/6
f 561/8/6 557/8/6 562/8/6
f 559/8/6 560/8/6 563/8/6
f 558/8/6 559/8/6 563/8/6
f 563/8/6 560/8/6 564/8/6
f 565/6/6 566/6/6 569/6/6
f 569/6/6 566/6/6 570/6/6
f 567/6/6 568/6/6 571/6/6
f 571/6/6 568/6/6 572/6/6
f 573/6/6 574/6/6 577/6/6
f 577/6/6 574/6/6 578/6/6
f 575/6/6 576/6/6 579/6/6
f 579/6/6 576/6/6 580/6/6
f 581/6/6 582/6/6 585/6/6
f 585/6/6 582/6/6 586/6/6
f 583/6/6 584/6/6 587/6/6
f 587/6/6 584/6/6 588/6/6
f 589/1/6 590/1/6 591/1/6
f 591/1/6 590/1/6 592/1/6
f 593/1/6 594/1/6 597/1/6
f 597/1/6 594/1/6 598/1/6
f 595/1/6 596/1/6 599/1/6
f 599/1/6 596/1/6 600/1/6
f 601/3/6 602/3/6 605/3/6
f 605/3/6 602/3/6 606/3/6
f 603/3/6 604/3/6 607/3/6
f 607/3/6 604/3/6 608/3/6
f 609/3/6 610/3/6 613/3/6
f 613/3/6 610/3/6 614/3/6
f 611/3/6 612/3/6 615/3/6
f 615/3/6 612/3/6 616/3/6
f 617/3/6 618/3/6 620/3/6
f 620/3/6 618/3/6 621/3/6
f 619/3/6 620/3/6 623/3/6
f 621/3/6 622/3/6 623/3/6
f 620/3/6 621/3/6 623/3/6
f 623/3/6 622/3/6 624/3/6
f 624/3/6 622/3/6 625/3/6
f 625/3/6 622/3/6 626/3/6
f 624/3/6 625/3/6 627/3/6
f 627/3/6 625/3/6 628/3/6
