# MagicaVoxel @ Ephtracy

# group
o 

# material
mtllib CyanPlayer1.mtl
usemtl palette

# normals
vn -1 0 0
vn 1 0 0
vn 0 0 1
vn 0 0 -1
vn 0 -1 0
vn 0 1 0

# texcoords
vt 0.138672 0.5
vt 0.248047 0.5
vt 0.654297 0.5
vt 0.669922 0.5
vt 0.677734 0.5
vt 0.693359 0.5
vt 0.705078 0.5
vt 0.716797 0.5
vt 0.994141 0.5

# verts
v -0.7 2.2 0
v -0.7 2.2 -0.1
v -0.7 2.5 0
v -0.7 2.5 -0.1
v -0.6 1.3 0.1
v -0.6 1.3 -0.1
v -0.6 1.4 0.1
v -0.6 1.4 -0.1
v -0.6 1.8 0.1
v -0.6 1.8 0
v -0.6 1.9 0.1
v -0.6 1.9 0
v -0.6 1.9 -0.1
v -0.5 1.9 0.3
v -0.5 1.9 0.1
v -0.5 1.9 0
v -0.5 1.9 -0.1
v -0.5 1.9 -0.4
v -0.5 2 0.5
v -0.5 2 0.3
v -0.5 2 -0.3
v -0.5 2 -0.4
v -0.5 2.2 0
v -0.5 2.2 -0.1
v -0.5 2.2 -0.3
v -0.5 2.2 -0.4
v -0.5 2.3 0.4
v -0.5 2.3 0
v -0.5 2.4 0.5
v -0.5 2.4 0.4
v -0.5 2.4 -0.1
v -0.5 2.4 -0.2
v -0.5 2.5 0
v -0.5 2.5 -0.1
v -0.5 2.5 -0.2
v -0.5 2.5 -0.3
v -0.5 2.6 -0.3
v -0.5 2.6 -0.4
v -0.5 2.7 0.5
v -0.5 2.7 0.4
v -0.5 2.7 -0.3
v -0.5 2.7 -0.4
v -0.5 2.8 0.4
v -0.5 2.8 -0.3
v -0.4 1 0.2
v -0.4 1 -0.2
v -0.4 1.2 -0.1
v -0.4 1.2 -0.2
v -0.4 1.3 0.1
v -0.4 1.3 -0.1
v -0.4 1.4 0.3
v -0.4 1.4 0.2
v -0.4 1.4 0.1
v -0.4 1.4 -0.1
v -0.4 1.4 -0.2
v -0.4 1.5 -0.1
v -0.4 1.6 0.3
v -0.4 1.6 0.2
v -0.4 1.6 0.1
v -0.4 1.6 -0.1
v -0.4 1.6 -0.2
v -0.4 1.7 0.3
v -0.4 1.7 0.2
v -0.4 1.7 -0.1
v -0.4 1.7 -0.2
v -0.4 1.8 0.3
v -0.4 1.8 0.2
v -0.4 1.8 -0.1
v -0.4 1.8 -0.2
v -0.4 1.9 0.5
v -0.4 1.9 0.3
v -0.4 1.9 0.2
v -0.4 1.9 0.1
v -0.4 2 0.5
v -0.4 2 0.3
v -0.4 2.5 -0.4
v -0.4 2.5 -0.5
v -0.4 2.6 -0.4
v -0.4 2.6 -0.5
v -0.4 2.7 0.5
v -0.4 2.7 0.4
v -0.4 2.7 -0.3
v -0.4 2.7 -0.4
v -0.4 2.8 0.5
v -0.4 2.8 0.4
v -0.4 2.8 -0.2
v -0.4 2.8 -0.3
v -0.4 2.9 -0.2
v -0.4 2.9 -0.3
v -0.4 3 -0.3
v -0.4 3 -0.4
v -0.3 1.8 0.3
v -0.3 1.8 0.2
v -0.3 1.8 -0.1
v -0.3 1.8 -0.2
v -0.3 1.9 0.3
v -0.3 1.9 0.2
v -0.3 1.9 -0.1
v -0.3 1.9 -0.2
v -0.3 2.8 -0.1
v -0.3 2.8 -0.2
v -0.3 2.8 -0.4
v -0.3 2.8 -0.5
v -0.3 2.9 -0.1
v -0.3 2.9 -0.2
v -0.3 2.9 -0.3
v -0.3 2.9 -0.4
v -0.3 2.9 -0.5
v -0.3 3 -0.2
v -0.3 3 -0.3
v -0.2 2.8 0
v -0.2 2.8 -0.1
v -0.2 2.9 0
v -0.2 2.9 -0.1
v -0.2 2.9 -0.2
v -0.2 3 -0.1
v -0.2 3 -0.2
v -0.1 2.1 -0.4
v -0.1 2.1 -0.5
v -0.1 2.4 -0.4
v -0.1 2.4 -0.5
v -0.1 2.7 -0.4
v -0.1 2.7 -0.5
v -0.1 2.8 -0.4
v -0.1 2.8 -0.5
v 0.1 1 0.2
v 0.1 1 -0.2
v 0.1 1.2 -0.1
v 0.1 1.2 -0.2
v 0.1 1.4 0.3
v 0.1 1.4 0.2
v 0.1 1.4 -0.1
v 0.1 1.5 0.3
v 0.1 1.5 0.2
v 0.1 2.5 -0.4
v 0.1 2.5 -0.5
v 0.1 2.6 -0.4
v 0.1 2.6 -0.5
v -0.1 1 0.2
v -0.1 1 -0.2
v -0.1 1.2 -0.1
v -0.1 1.2 -0.2
v -0.1 1.4 0.3
v -0.1 1.4 0.2
v -0.1 1.4 -0.1
v -0.1 1.5 0.3
v -0.1 1.5 0.2
v -0.1 2.5 -0.4
v -0.1 2.5 -0.5
v -0.1 2.6 -0.4
v -0.1 2.6 -0.5
v 0 2.8 -0.4
v 0 2.8 -0.5
v 0 2.9 -0.1
v 0 2.9 -0.4
v 0 2.9 -0.5
v 0 3 -0.1
v 0 3 -0.4
v 0.1 2.1 -0.4
v 0.1 2.1 -0.5
v 0.1 2.4 -0.4
v 0.1 2.4 -0.5
v 0.1 2.7 -0.4
v 0.1 2.7 -0.5
v 0.1 2.8 0
v 0.1 2.8 -0.4
v 0.1 2.8 -0.5
v 0.1 2.9 0
v 0.1 2.9 -0.4
v 0.3 1.8 0.3
v 0.3 1.8 0.2
v 0.3 1.8 -0.1
v 0.3 1.8 -0.2
v 0.3 1.9 0.3
v 0.3 1.9 0.2
v 0.3 1.9 -0.1
v 0.3 1.9 -0.2
v 0.4 1 0.2
v 0.4 1 -0.2
v 0.4 1.2 -0.1
v 0.4 1.2 -0.2
v 0.4 1.3 0.1
v 0.4 1.3 -0.1
v 0.4 1.4 0.3
v 0.4 1.4 0.2
v 0.4 1.4 0.1
v 0.4 1.4 -0.1
v 0.4 1.4 -0.2
v 0.4 1.5 0.1
v 0.4 1.6 0.3
v 0.4 1.6 0.1
v 0.4 1.6 -0.1
v 0.4 1.6 -0.2
v 0.4 1.8 0.3
v 0.4 1.8 0.2
v 0.4 1.8 -0.1
v 0.4 1.8 -0.2
v 0.4 1.9 0.5
v 0.4 1.9 0.3
v 0.4 1.9 0.2
v 0.4 1.9 0.1
v 0.4 2 0.5
v 0.4 2 0.3
v 0.4 2.5 -0.4
v 0.4 2.5 -0.5
v 0.4 2.6 -0.4
v 0.4 2.6 -0.5
v 0.4 2.7 0.5
v 0.4 2.7 0.4
v 0.4 2.7 -0.3
v 0.4 2.7 -0.4
v 0.4 2.8 0.5
v 0.4 2.8 0.4
v 0.4 2.8 -0.3
v 0.4 2.8 -0.4
v 0.5 1.9 0.3
v 0.5 1.9 0.1
v 0.5 1.9 0
v 0.5 1.9 -0.1
v 0.5 1.9 -0.4
v 0.5 2 0.5
v 0.5 2 0.3
v 0.5 2 -0.3
v 0.5 2 -0.4
v 0.5 2.2 0
v 0.5 2.2 -0.1
v 0.5 2.2 -0.3
v 0.5 2.2 -0.4
v 0.5 2.4 0.5
v 0.5 2.4 0
v 0.5 2.5 0
v 0.5 2.5 -0.1
v 0.5 2.6 -0.1
v 0.5 2.6 -0.4
v 0.5 2.7 0.5
v 0.5 2.7 0.4
v 0.5 2.7 -0.3
v 0.5 2.7 -0.4
v 0.5 2.8 0.4
v 0.5 2.8 -0.3
v 0.6 1.3 0.1
v 0.6 1.3 -0.1
v 0.6 1.4 0.1
v 0.6 1.4 -0.1
v 0.6 1.8 0
v 0.6 1.8 -0.1
v 0.6 1.9 0.1
v 0.6 1.9 0
v 0.6 1.9 -0.1
v 0.7 2.2 0
v 0.7 2.2 -0.1
v 0.7 2.5 0
v 0.7 2.5 -0.1
v -0.5 2 0.5
v -0.5 2.4 0.5
v -0.5 2.7 0.5
v -0.4 1.9 0.5
v -0.4 2 0.5
v -0.4 2.2 0.5
v -0.4 2.4 0.5
v -0.4 2.7 0.5
v -0.4 2.8 0.5
v 0.4 1.9 0.5
v 0.4 2 0.5
v 0.4 2.2 0.5
v 0.4 2.4 0.5
v 0.4 2.7 0.5
v 0.4 2.8 0.5
v 0.5 2 0.5
v 0.5 2.4 0.5
v 0.5 2.7 0.5
v -0.5 2.7 0.4
v -0.5 2.8 0.4
v -0.4 2.7 0.4
v -0.4 2.8 0.4
v 0.4 2.7 0.4
v 0.4 2.8 0.4
v 0.5 2.7 0.4
v 0.5 2.8 0.4
v -0.5 1.9 0.3
v -0.5 2 0.3
v -0.4 1.4 0.3
v -0.4 1.6 0.3
v -0.4 1.7 0.3
v -0.4 1.8 0.3
v -0.4 1.9 0.3
v -0.4 2 0.3
v -0.3 1.6 0.3
v -0.3 1.7 0.3
v -0.3 1.8 0.3
v -0.3 1.9 0.3
v -0.2 1.6 0.3
v -0.2 1.9 0.3
v -0.1 1.4 0.3
v -0.1 1.5 0.3
v 0.1 1.4 0.3
v 0.1 1.5 0.3
v 0.2 1.6 0.3
v 0.2 1.9 0.3
v 0.3 1.6 0.3
v 0.3 1.8 0.3
v 0.3 1.9 0.3
v 0.4 1.4 0.3
v 0.4 1.6 0.3
v 0.4 1.8 0.3
v 0.4 1.9 0.3
v 0.4 2 0.3
v 0.5 1.9 0.3
v 0.5 2 0.3
v -0.4 1 0.2
v -0.4 1.4 0.2
v -0.4 1.8 0.2
v -0.4 1.9 0.2
v -0.3 1.8 0.2
v -0.3 1.9 0.2
v -0.1 1 0.2
v -0.1 1.4 0.2
v -0.1 1.5 0.2
v 0.1 1 0.2
v 0.1 1.4 0.2
v 0.1 1.5 0.2
v 0.3 1.8 0.2
v 0.3 1.9 0.2
v 0.4 1 0.2
v 0.4 1.4 0.2
v 0.4 1.8 0.2
v 0.4 1.9 0.2
v -0.6 1.3 0.1
v -0.6 1.4 0.1
v -0.6 1.8 0.1
v -0.6 1.9 0.1
v -0.5 1.8 0.1
v -0.5 1.9 0.1
v -0.4 1.3 0.1
v -0.4 1.4 0.1
v -0.4 1.6 0.1
v -0.4 1.9 0.1
v 0.4 1.3 0.1
v 0.4 1.4 0.1
v 0.4 1.5 0.1
v 0.4 1.6 0.1
v 0.4 1.9 0.1
v 0.5 1.4 0.1
v 0.5 1.5 0.1
v 0.5 1.9 0.1
v 0.6 1.3 0.1
v 0.6 1.4 0.1
v 0.6 1.9 0.1
v -0.7 2.2 0
v -0.7 2.5 0
v -0.5 2.2 0
v -0.5 2.3 0
v -0.5 2.5 0
v -0.2 2.8 0
v -0.2 2.9 0
v 0.1 2.8 0
v 0.1 2.9 0
v 0.5 2.2 0
v 0.5 2.4 0
v 0.5 2.5 0
v 0.7 2.2 0
v 0.7 2.5 0
v -0.3 2.8 -0.1
v -0.3 2.9 -0.1
v -0.2 2.8 -0.1
v -0.2 2.9 -0.1
v -0.2 3 -0.1
v 0 2.9 -0.1
v 0 3 -0.1
v -0.4 2.8 -0.2
v -0.4 2.9 -0.2
v -0.3 2.8 -0.2
v -0.3 2.9 -0.2
v -0.3 3 -0.2
v -0.2 2.9 -0.2
v -0.2 3 -0.2
v -0.4 2.9 -0.3
v -0.4 3 -0.3
v -0.3 2.9 -0.3
v -0.3 3 -0.3
v -0.7 2.2 -0.1
v -0.7 2.5 -0.1
v -0.6 1.3 -0.1
v -0.6 1.4 -0.1
v -0.6 1.9 -0.1
v -0.5 1.4 -0.1
v -0.5 1.5 -0.1
v -0.5 1.9 -0.1
v -0.5 2.2 -0.1
v -0.5 2.4 -0.1
v -0.5 2.5 -0.1
v -0.4 1.2 -0.1
v -0.4 1.3 -0.1
v -0.4 1.4 -0.1
v -0.4 1.5 -0.1
v -0.4 1.6 -0.1
v -0.4 1.7 -0.1
v -0.4 1.8 -0.1
v -0.3 1.8 -0.1
v -0.3 1.9 -0.1
v -0.1 1.2 -0.1
v -0.1 1.4 -0.1
v 0.1 1.2 -0.1
v 0.1 1.4 -0.1
v 0.3 1.8 -0.1
v 0.3 1.9 -0.1
v 0.4 1.2 -0.1
v 0.4 1.3 -0.1
v 0.4 1.4 -0.1
v 0.4 1.6 -0.1
v 0.4 1.8 -0.1
v 0.5 1.8 -0.1
v 0.5 1.9 -0.1
v 0.5 2.2 -0.1
v 0.5 2.5 -0.1
v 0.6 1.3 -0.1
v 0.6 1.4 -0.1
v 0.6 1.8 -0.1
v 0.6 1.9 -0.1
v 0.7 2.2 -0.1
v 0.7 2.5 -0.1
v -0.4 1 -0.2
v -0.4 1.2 -0.2
v -0.4 1.4 -0.2
v -0.4 1.6 -0.2
v -0.4 1.7 -0.2
v -0.4 1.8 -0.2
v -0.3 1.5 -0.2
v -0.3 1.6 -0.2
v -0.3 1.7 -0.2
v -0.3 1.8 -0.2
v -0.3 1.9 -0.2
v -0.2 1.5 -0.2
v -0.2 1.6 -0.2
v -0.2 1.9 -0.2
v -0.1 1 -0.2
v -0.1 1.2 -0.2
v -0.1 1.6 -0.2
v -0.1 1.9 -0.2
v 0.1 1 -0.2
v 0.1 1.2 -0.2
v 0.1 1.6 -0.2
v 0.1 1.9 -0.2
v 0.2 1.5 -0.2
v 0.2 1.6 -0.2
v 0.2 1.9 -0.2
v 0.3 1.5 -0.2
v 0.3 1.6 -0.2
v 0.3 1.8 -0.2
v 0.3 1.9 -0.2
v 0.4 1 -0.2
v 0.4 1.2 -0.2
v 0.4 1.4 -0.2
v 0.4 1.6 -0.2
v 0.4 1.8 -0.2
v -0.5 2.7 -0.3
v -0.5 2.8 -0.3
v -0.4 2.7 -0.3
v -0.4 2.8 -0.3
v 0.4 2.7 -0.3
v 0.4 2.8 -0.3
v 0.5 2.7 -0.3
v 0.5 2.8 -0.3
v -0.5 1.9 -0.4
v -0.5 2 -0.4
v -0.5 2.2 -0.4
v -0.5 2.6 -0.4
v -0.5 2.7 -0.4
v -0.4 2.5 -0.4
v -0.4 2.6 -0.4
v -0.4 2.7 -0.4
v -0.4 3 -0.4
v -0.3 2 -0.4
v -0.3 2.2 -0.4
v -0.3 2.5 -0.4
v -0.3 2.8 -0.4
v -0.3 2.9 -0.4
v -0.2 2.2 -0.4
v -0.2 2.5 -0.4
v -0.1 2.1 -0.4
v -0.1 2.4 -0.4
v -0.1 2.5 -0.4
v -0.1 2.6 -0.4
v -0.1 2.7 -0.4
v -0.1 2.8 -0.4
v 0 2.8 -0.4
v 0 2.9 -0.4
v 0 3 -0.4
v 0.1 2.1 -0.4
v 0.1 2.4 -0.4
v 0.1 2.5 -0.4
v 0.1 2.6 -0.4
v 0.1 2.7 -0.4
v 0.1 2.8 -0.4
v 0.1 2.9 -0.4
v 0.2 2.2 -0.4
v 0.2 2.5 -0.4
v 0.3 2 -0.4
v 0.3 2.2 -0.4
v 0.3 2.5 -0.4
v 0.4 2.5 -0.4
v 0.4 2.6 -0.4
v 0.4 2.7 -0.4
v 0.4 2.8 -0.4
v 0.5 1.9 -0.4
v 0.5 2 -0.4
v 0.5 2.2 -0.4
v 0.5 2.6 -0.4
v 0.5 2.7 -0.4
v -0.4 2.5 -0.5
v -0.4 2.6 -0.5
v -0.3 2.8 -0.5
v -0.3 2.9 -0.5
v -0.1 2.1 -0.5
v -0.1 2.4 -0.5
v -0.1 2.5 -0.5
v -0.1 2.6 -0.5
v -0.1 2.7 -0.5
v -0.1 2.8 -0.5
v 0 2.8 -0.5
v 0 2.9 -0.5
v 0.1 2.1 -0.5
v 0.1 2.4 -0.5
v 0.1 2.5 -0.5
v 0.1 2.6 -0.5
v 0.1 2.7 -0.5
v 0.1 2.8 -0.5
v 0.4 2.5 -0.5
v 0.4 2.6 -0.5
v -0.4 1 0.2
v -0.1 1 0.2
v 0.1 1 0.2
v 0.4 1 0.2
v -0.4 1 -0.2
v -0.1 1 -0.2
v 0.1 1 -0.2
v 0.4 1 -0.2
v -0.6 1.3 0.1
v -0.4 1.3 0.1
v 0.4 1.3 0.1
v 0.6 1.3 0.1
v -0.6 1.3 -0.1
v -0.4 1.3 -0.1
v 0.4 1.3 -0.1
v 0.6 1.3 -0.1
v -0.4 1.4 0.3
v -0.1 1.4 0.3
v 0.1 1.4 0.3
v 0.4 1.4 0.3
v -0.4 1.4 0.2
v -0.1 1.4 0.2
v 0.1 1.4 0.2
v 0.4 1.4 0.2
v -0.4 1.4 -0.1
v -0.1 1.4 -0.1
v 0.1 1.4 -0.1
v 0.4 1.4 -0.1
v -0.4 1.4 -0.2
v 0.4 1.4 -0.2
v -0.1 1.5 0.3
v 0.1 1.5 0.3
v -0.1 1.5 0.2
v 0.1 1.5 0.2
v -0.4 1.9 0.5
v 0.4 1.9 0.5
v -0.5 1.9 0.3
v -0.4 1.9 0.3
v -0.3 1.9 0.3
v -0.2 1.9 0.3
v 0.2 1.9 0.3
v 0.3 1.9 0.3
v 0.4 1.9 0.3
v 0.5 1.9 0.3
v -0.4 1.9 0.2
v -0.3 1.9 0.2
v 0.3 1.9 0.2
v 0.4 1.9 0.2
v -0.5 1.9 0.1
v -0.4 1.9 0.1
v 0.4 1.9 0.1
v 0.5 1.9 0.1
v -0.5 1.9 -0.1
v -0.3 1.9 -0.1
v 0.3 1.9 -0.1
v 0.5 1.9 -0.1
v -0.3 1.9 -0.2
v -0.2 1.9 -0.2
v -0.1 1.9 -0.2
v 0.1 1.9 -0.2
v 0.2 1.9 -0.2
v 0.3 1.9 -0.2
v -0.5 1.9 -0.4
v 0.5 1.9 -0.4
v -0.5 2 0.5
v -0.4 2 0.5
v 0.4 2 0.5
v 0.5 2 0.5
v -0.5 2 0.3
v -0.4 2 0.3
v 0.4 2 0.3
v 0.5 2 0.3
v -0.1 2.1 -0.4
v 0.1 2.1 -0.4
v -0.1 2.1 -0.5
v 0.1 2.1 -0.5
v -0.7 2.2 0
v -0.5 2.2 0
v 0.5 2.2 0
v 0.7 2.2 0
v -0.7 2.2 -0.1
v -0.5 2.2 -0.1
v 0.5 2.2 -0.1
v 0.7 2.2 -0.1
v -0.4 2.5 -0.4
v -0.3 2.5 -0.4
v -0.2 2.5 -0.4
v -0.1 2.5 -0.4
v 0.1 2.5 -0.4
v 0.2 2.5 -0.4
v 0.3 2.5 -0.4
v 0.4 2.5 -0.4
v -0.4 2.5 -0.5
v -0.1 2.5 -0.5
v 0.1 2.5 -0.5
v 0.4 2.5 -0.5
v -0.1 2.7 -0.4
v 0.1 2.7 -0.4
v -0.1 2.7 -0.5
v 0.1 2.7 -0.5
v -0.3 2.8 -0.4
v -0.1 2.8 -0.4
v -0.3 2.8 -0.5
v -0.1 2.8 -0.5
v -0.4 1.2 -0.1
v -0.1 1.2 -0.1
v 0.1 1.2 -0.1
v 0.4 1.2 -0.1
v -0.4 1.2 -0.2
v -0.1 1.2 -0.2
v 0.1 1.2 -0.2
v 0.4 1.2 -0.2
v -0.4 1.8 0.3
v -0.3 1.8 0.3
v 0.3 1.8 0.3
v 0.4 1.8 0.3
v -0.4 1.8 0.2
v -0.3 1.8 0.2
v 0.3 1.8 0.2
v 0.4 1.8 0.2
v -0.4 1.8 -0.1
v -0.3 1.8 -0.1
v 0.3 1.8 -0.1
v 0.4 1.8 -0.1
v -0.4 1.8 -0.2
v -0.3 1.8 -0.2
v 0.3 1.8 -0.2
v 0.4 1.8 -0.2
v -0.6 1.9 0.1
v -0.5 1.9 0.1
v 0.5 1.9 0.1
v 0.6 1.9 0.1
v -0.6 1.9 0
v -0.5 1.9 0
v 0.5 1.9 0
v 0.6 1.9 0
v -0.6 1.9 -0.1
v -0.5 1.9 -0.1
v 0.5 1.9 -0.1
v 0.6 1.9 -0.1
v -0.1 2.4 -0.4
v 0.1 2.4 -0.4
v -0.1 2.4 -0.5
v 0.1 2.4 -0.5
v -0.7 2.5 0
v -0.5 2.5 0
v 0.5 2.5 0
v 0.7 2.5 0
v -0.7 2.5 -0.1
v -0.5 2.5 -0.1
v 0.5 2.5 -0.1
v 0.7 2.5 -0.1
v -0.4 2.6 -0.4
v -0.1 2.6 -0.4
v 0.1 2.6 -0.4
v 0.4 2.6 -0.4
v -0.4 2.6 -0.5
v -0.1 2.6 -0.5
v 0.1 2.6 -0.5
v 0.4 2.6 -0.5
v -0.5 2.7 0.5
v -0.4 2.7 0.5
v 0.4 2.7 0.5
v 0.5 2.7 0.5
v -0.5 2.7 0.4
v -0.4 2.7 0.4
v 0.4 2.7 0.4
v 0.5 2.7 0.4
v -0.5 2.7 -0.3
v -0.4 2.7 -0.3
v 0.4 2.7 -0.3
v 0.5 2.7 -0.3
v -0.5 2.7 -0.4
v -0.4 2.7 -0.4
v 0.4 2.7 -0.4
v 0.5 2.7 -0.4
v -0.4 2.8 0.5
v 0.4 2.8 0.5
v -0.5 2.8 0.4
v -0.4 2.8 0.4
v 0.4 2.8 0.4
v 0.5 2.8 0.4
v -0.2 2.8 0
v 0.1 2.8 0
v -0.3 2.8 -0.1
v -0.2 2.8 -0.1
v -0.4 2.8 -0.2
v -0.3 2.8 -0.2
v -0.5 2.8 -0.3
v -0.4 2.8 -0.3
v 0.4 2.8 -0.3
v 0.5 2.8 -0.3
v 0 2.8 -0.4
v 0.1 2.8 -0.4
v 0.4 2.8 -0.4
v 0 2.8 -0.5
v 0.1 2.8 -0.5
v -0.2 2.9 0
v 0.1 2.9 0
v -0.3 2.9 -0.1
v -0.2 2.9 -0.1
v 0 2.9 -0.1
v -0.4 2.9 -0.2
v -0.3 2.9 -0.2
v -0.2 2.9 -0.2
v -0.4 2.9 -0.3
v -0.3 2.9 -0.3
v -0.3 2.9 -0.4
v 0 2.9 -0.4
v 0.1 2.9 -0.4
v -0.3 2.9 -0.5
v 0 2.9 -0.5
v -0.2 3 -0.1
v 0 3 -0.1
v -0.3 3 -0.2
v -0.2 3 -0.2
v -0.4 3 -0.3
v -0.3 3 -0.3
v -0.4 3 -0.4
v 0 3 -0.4

# faces
f 3/1/1 2/1/1 1/1/1
f 4/1/1 2/1/1 3/1/1
f 7/2/1 6/2/1 5/2/1
f 8/2/1 6/2/1 7/2/1
f 9/5/1 8/5/1 7/5/1
f 10/5/1 8/5/1 9/5/1
f 11/4/1 10/4/1 9/4/1
f 12/5/1 8/5/1 10/5/1
f 12/4/1 10/4/1 11/4/1
f 13/5/1 8/5/1 12/5/1
f 20/2/1 15/2/1 14/2/1
f 20/2/1 18/2/1 17/2/1
f 20/2/1 17/2/1 16/2/1
f 20/2/1 16/2/1 15/2/1
f 21/2/1 18/2/1 20/2/1
f 22/2/1 18/2/1 21/2/1
f 23/2/1 20/2/1 19/2/1
f 23/2/1 21/2/1 20/2/1
f 24/2/1 21/2/1 23/2/1
f 25/1/1 22/1/1 21/1/1
f 25/2/1 21/2/1 24/2/1
f 26/1/1 22/1/1 25/1/1
f 27/2/1 23/2/1 19/2/1
f 28/2/1 23/2/1 27/2/1
f 29/2/1 27/2/1 19/2/1
f 30/3/1 28/3/1 27/3/1
f 30/2/1 27/2/1 29/2/1
f 31/2/1 26/2/1 25/2/1
f 31/2/1 25/2/1 24/2/1
f 32/2/1 26/2/1 31/2/1
f 33/3/1 28/3/1 30/3/1
f 33/3/1 30/3/1 29/3/1
f 34/3/1 32/3/1 31/3/1
f 35/2/1 26/2/1 32/2/1
f 35/3/1 32/3/1 34/3/1
f 36/2/1 26/2/1 35/2/1
f 37/3/1 34/3/1 33/3/1
f 37/2/1 26/2/1 36/2/1
f 37/3/1 36/3/1 35/3/1
f 37/3/1 35/3/1 34/3/1
f 38/2/1 26/2/1 37/2/1
f 39/3/1 33/3/1 29/3/1
f 39/3/1 37/3/1 33/3/1
f 39/3/1 38/3/1 37/3/1
f 40/3/1 38/3/1 39/3/1
f 41/3/1 38/3/1 40/3/1
f 42/3/1 38/3/1 41/3/1
f 43/3/1 41/3/1 40/3/1
f 44/3/1 41/3/1 43/3/1
f 47/6/1 46/6/1 45/6/1
f 48/6/1 46/6/1 47/6/1
f 49/6/1 47/6/1 45/6/1
f 50/6/1 47/6/1 49/6/1
f 52/6/1 49/6/1 45/6/1
f 53/6/1 49/6/1 52/6/1
f 56/6/1 55/6/1 54/6/1
f 57/6/1 53/6/1 52/6/1
f 57/6/1 52/6/1 51/6/1
f 58/6/1 53/6/1 57/6/1
f 59/6/1 53/6/1 58/6/1
f 60/6/1 55/6/1 56/6/1
f 61/6/1 55/6/1 60/6/1
f 62/4/1 58/4/1 57/4/1
f 63/5/1 59/5/1 58/5/1
f 63/4/1 58/4/1 62/4/1
f 64/5/1 61/5/1 60/5/1
f 65/5/1 61/5/1 64/5/1
f 66/5/1 63/5/1 62/5/1
f 67/5/1 59/5/1 63/5/1
f 67/5/1 63/5/1 66/5/1
f 68/4/1 65/4/1 64/4/1
f 69/4/1 65/4/1 68/4/1
f 72/5/1 59/5/1 67/5/1
f 73/5/1 59/5/1 72/5/1
f 74/2/1 71/2/1 70/2/1
f 75/2/1 71/2/1 74/2/1
f 78/3/1 77/3/1 76/3/1
f 79/3/1 77/3/1 78/3/1
f 84/3/1 81/3/1 80/3/1
f 85/3/1 81/3/1 84/3/1
f 87/3/1 83/3/1 82/3/1
f 88/3/1 87/3/1 86/3/1
f 89/3/1 83/3/1 87/3/1
f 89/3/1 87/3/1 88/3/1
f 90/3/1 83/3/1 89/3/1
f 91/3/1 83/3/1 90/3/1
f 96/6/1 93/6/1 92/6/1
f 97/6/1 93/6/1 96/6/1
f 98/6/1 95/6/1 94/6/1
f 99/6/1 95/6/1 98/6/1
f 104/3/1 101/3/1 100/3/1
f 105/3/1 101/3/1 104/3/1
f 107/3/1 103/3/1 102/3/1
f 108/3/1 103/3/1 107/3/1
f 109/3/1 106/3/1 105/3/1
f 110/3/1 106/3/1 109/3/1
f 113/3/1 112/3/1 111/3/1
f 114/3/1 112/3/1 113/3/1
f 116/3/1 115/3/1 114/3/1
f 117/3/1 115/3/1 116/3/1
f 120/1/1 119/1/1 118/1/1
f 121/1/1 119/1/1 120/1/1
f 124/3/1 123/3/1 122/3/1
f 125/3/1 123/3/1 124/3/1
f 128/6/1 127/6/1 126/6/1
f 129/6/1 127/6/1 128/6/1
f 131/6/1 128/6/1 126/6/1
f 132/6/1 128/6/1 131/6/1
f 133/6/1 131/6/1 130/6/1
f 134/6/1 131/6/1 133/6/1
f 137/3/1 136/3/1 135/3/1
f 138/3/1 136/3/1 137/3/1
f 139/6/2 140/6/2 141/6/2
f 141/6/2 140/6/2 142/6/2
f 139/6/2 141/6/2 144/6/2
f 144/6/2 141/6/2 145/6/2
f 143/6/2 144/6/2 146/6/2
f 146/6/2 144/6/2 147/6/2
f 148/3/2 149/3/2 150/3/2
f 150/3/2 149/3/2 151/3/2
f 152/3/2 153/3/2 155/3/2
f 155/3/2 153/3/2 156/3/2
f 154/3/2 155/3/2 157/3/2
f 157/3/2 155/3/2 158/3/2
f 159/1/2 160/1/2 161/1/2
f 161/1/2 160/1/2 162/1/2
f 163/3/2 164/3/2 166/3/2
f 166/3/2 164/3/2 167/3/2
f 165/3/2 166/3/2 168/3/2
f 168/3/2 166/3/2 169/3/2
f 170/6/2 171/6/2 174/6/2
f 174/6/2 171/6/2 175/6/2
f 172/6/2 173/6/2 176/6/2
f 176/6/2 173/6/2 177/6/2
f 178/6/2 179/6/2 180/6/2
f 180/6/2 179/6/2 181/6/2
f 178/6/2 180/6/2 182/6/2
f 182/6/2 180/6/2 183/6/2
f 178/6/2 182/6/2 185/6/2
f 185/6/2 182/6/2 186/6/2
f 185/6/2 186/6/2 189/6/2
f 184/6/2 185/6/2 189/6/2
f 184/6/2 189/6/2 190/6/2
f 190/6/2 189/6/2 191/6/2
f 187/6/2 188/6/2 192/6/2
f 192/6/2 188/6/2 193/6/2
f 190/5/2 191/5/2 194/5/2
f 194/5/2 191/5/2 195/5/2
f 192/5/2 193/5/2 196/5/2
f 196/5/2 193/5/2 197/5/2
f 195/5/2 191/5/2 200/5/2
f 200/5/2 191/5/2 201/5/2
f 198/2/2 199/2/2 202/2/2
f 202/2/2 199/2/2 203/2/2
f 204/3/2 205/3/2 206/3/2
f 206/3/2 205/3/2 207/3/2
f 208/3/2 209/3/2 212/3/2
f 212/3/2 209/3/2 213/3/2
f 210/3/2 211/3/2 214/3/2
f 214/3/2 211/3/2 215/3/2
f 216/2/2 217/2/2 222/2/2
f 219/2/2 220/2/2 222/2/2
f 218/2/2 219/2/2 222/2/2
f 217/2/2 218/2/2 222/2/2
f 222/2/2 220/2/2 223/2/2
f 223/2/2 220/2/2 224/2/2
f 221/2/2 222/2/2 225/2/2
f 222/2/2 223/2/2 225/2/2
f 225/2/2 223/2/2 226/2/2
f 223/1/2 224/1/2 227/1/2
f 226/2/2 223/2/2 227/2/2
f 227/1/2 224/1/2 228/1/2
f 221/2/2 225/2/2 229/2/2
f 229/2/2 225/2/2 230/2/2
f 229/3/2 230/3/2 231/3/2
f 227/2/2 228/2/2 232/2/2
f 226/2/2 227/2/2 232/2/2
f 232/2/2 228/2/2 233/2/2
f 231/3/2 232/3/2 233/3/2
f 233/2/2 228/2/2 234/2/2
f 229/3/2 231/3/2 235/3/2
f 231/3/2 233/3/2 235/3/2
f 233/3/2 234/3/2 235/3/2
f 235/3/2 234/3/2 236/3/2
f 236/3/2 234/3/2 237/3/2
f 237/3/2 234/3/2 238/3/2
f 236/3/2 237/3/2 239/3/2
f 239/3/2 237/3/2 240/3/2
f 241/2/2 242/2/2 243/2/2
f 243/2/2 242/2/2 244/2/2
f 243/5/2 244/5/2 245/5/2
f 245/5/2 244/5/2 246/5/2
f 243/5/2 245/5/2 247/5/2
f 245/4/2 246/4/2 248/4/2
f 247/5/2 245/5/2 248/5/2
f 248/4/2 246/4/2 249/4/2
f 250/1/2 251/1/2 252/1/2
f 252/1/2 251/1/2 253/1/2
f 258/2/3 255/2/3 254/2/3
f 259/2/3 255/2/3 258/2/3
f 260/3/3 256/3/3 255/3/3
f 260/2/3 255/2/3 259/2/3
f 261/3/3 256/3/3 260/3/3
f 263/2/3 259/2/3 258/2/3
f 263/2/3 258/2/3 257/2/3
f 264/2/3 259/2/3 263/2/3
f 265/3/3 262/3/3 261/3/3
f 265/2/3 259/2/3 264/2/3
f 265/3/3 261/3/3 260/3/3
f 265/3/3 260/3/3 259/3/3
f 266/3/3 262/3/3 265/3/3
f 267/3/3 262/3/3 266/3/3
f 268/3/3 262/3/3 267/3/3
f 269/2/3 265/2/3 264/2/3
f 269/2/3 266/2/3 265/2/3
f 270/3/3 267/3/3 266/3/3
f 270/2/3 266/2/3 269/2/3
f 271/3/3 267/3/3 270/3/3
f 274/3/3 273/3/3 272/3/3
f 275/3/3 273/3/3 274/3/3
f 278/3/3 277/3/3 276/3/3
f 279/3/3 277/3/3 278/3/3
f 286/2/3 281/2/3 280/2/3
f 287/2/3 281/2/3 286/2/3
f 288/6/3 283/6/3 282/6/3
f 288/4/3 284/4/3 283/4/3
f 289/5/3 285/5/3 284/5/3
f 289/4/3 284/4/3 288/4/3
f 290/5/3 285/5/3 289/5/3
f 292/6/3 288/6/3 282/6/3
f 292/6/3 291/6/3 290/6/3
f 292/6/3 290/6/3 289/6/3
f 292/6/3 289/6/3 288/6/3
f 293/6/3 291/6/3 292/6/3
f 294/6/3 292/6/3 282/6/3
f 295/6/3 292/6/3 294/6/3
f 297/6/3 292/6/3 295/6/3
f 298/5/3 293/5/3 292/5/3
f 298/6/3 297/6/3 296/6/3
f 298/6/3 292/6/3 297/6/3
f 299/5/3 293/5/3 298/5/3
f 300/6/3 298/6/3 296/6/3
f 300/6/3 299/6/3 298/6/3
f 301/6/3 299/6/3 300/6/3
f 302/6/3 299/6/3 301/6/3
f 303/6/3 300/6/3 296/6/3
f 304/5/3 301/5/3 300/5/3
f 304/6/3 300/6/3 303/6/3
f 305/5/3 301/5/3 304/5/3
f 308/2/3 307/2/3 306/2/3
f 309/2/3 307/2/3 308/2/3
f 314/5/3 313/5/3 312/5/3
f 315/5/3 313/5/3 314/5/3
f 316/6/3 311/6/3 310/6/3
f 317/6/3 311/6/3 316/6/3
f 320/6/3 318/6/3 317/6/3
f 321/6/3 318/6/3 320/6/3
f 324/6/3 320/6/3 319/6/3
f 325/6/3 320/6/3 324/6/3
f 326/5/3 323/5/3 322/5/3
f 327/5/3 323/5/3 326/5/3
f 332/5/3 330/5/3 329/5/3
f 332/4/3 331/4/3 330/4/3
f 333/4/3 331/4/3 332/4/3
f 334/2/3 329/2/3 328/2/3
f 335/5/3 332/5/3 329/5/3
f 335/2/3 329/2/3 334/2/3
f 335/5/3 333/5/3 332/5/3
f 336/5/3 333/5/3 335/5/3
f 337/5/3 333/5/3 336/5/3
f 343/2/3 339/2/3 338/2/3
f 343/4/3 340/4/3 339/4/3
f 344/5/3 342/5/3 341/5/3
f 344/4/3 340/4/3 343/4/3
f 344/5/3 341/5/3 340/5/3
f 345/5/3 342/5/3 344/5/3
f 346/2/3 343/2/3 338/2/3
f 347/5/3 344/5/3 343/5/3
f 347/2/3 343/2/3 346/2/3
f 347/5/3 345/5/3 344/5/3
f 348/5/3 345/5/3 347/5/3
f 351/1/3 350/1/3 349/1/3
f 352/1/3 350/1/3 351/1/3
f 353/1/3 350/1/3 352/1/3
f 356/3/3 355/3/3 354/3/3
f 357/3/3 355/3/3 356/3/3
f 361/1/3 359/1/3 358/1/3
f 361/1/3 360/1/3 359/1/3
f 362/1/3 360/1/3 361/1/3
f 365/3/3 364/3/3 363/3/3
f 366/3/3 364/3/3 365/3/3
f 368/3/3 367/3/3 366/3/3
f 369/3/3 367/3/3 368/3/3
f 372/3/3 371/3/3 370/3/3
f 373/3/3 371/3/3 372/3/3
f 375/3/3 374/3/3 373/3/3
f 376/3/3 374/3/3 375/3/3
f 379/3/3 378/3/3 377/3/3
f 380/3/3 378/3/3 379/3/3
f 383/2/4 384/2/4 386/2/4
f 384/5/4 385/5/4 386/5/4
f 386/5/4 385/5/4 387/5/4
f 387/5/4 385/5/4 388/5/4
f 381/1/4 382/1/4 389/1/4
f 389/1/4 382/1/4 390/1/4
f 390/1/4 382/1/4 391/1/4
f 383/2/4 386/2/4 393/2/4
f 386/4/4 387/4/4 394/4/4
f 393/2/4 386/2/4 394/2/4
f 387/5/4 388/5/4 395/5/4
f 394/4/4 387/4/4 395/4/4
f 395/5/4 388/5/4 396/5/4
f 396/5/4 388/5/4 397/5/4
f 397/5/4 388/5/4 398/5/4
f 398/5/4 388/5/4 399/5/4
f 399/5/4 388/5/4 400/5/4
f 393/6/4 394/6/4 401/6/4
f 392/6/4 393/6/4 401/6/4
f 401/6/4 394/6/4 402/6/4
f 403/6/4 404/6/4 407/6/4
f 407/6/4 404/6/4 408/6/4
f 408/6/4 404/6/4 409/6/4
f 405/5/4 406/5/4 411/5/4
f 409/5/4 410/5/4 412/5/4
f 410/5/4 411/5/4 412/5/4
f 411/5/4 406/5/4 412/5/4
f 412/5/4 406/5/4 413/5/4
f 408/2/4 409/2/4 416/2/4
f 409/5/4 412/5/4 417/5/4
f 416/2/4 409/2/4 417/2/4
f 412/4/4 413/4/4 418/4/4
f 417/5/4 412/5/4 418/5/4
f 418/4/4 413/4/4 419/4/4
f 414/1/4 415/1/4 420/1/4
f 420/1/4 415/1/4 421/1/4
f 424/6/4 425/6/4 428/6/4
f 425/5/4 426/5/4 429/5/4
f 428/6/4 425/6/4 429/6/4
f 426/4/4 427/4/4 430/4/4
f 429/5/4 426/5/4 430/5/4
f 430/4/4 427/4/4 431/4/4
f 428/7/4 429/7/4 433/7/4
f 424/6/4 428/6/4 433/6/4
f 431/6/4 432/6/4 434/6/4
f 433/7/4 429/7/4 434/7/4
f 430/6/4 431/6/4 434/6/4
f 429/6/4 430/6/4 434/6/4
f 434/6/4 432/6/4 435/6/4
f 422/6/4 423/6/4 436/6/4
f 436/6/4 423/6/4 437/6/4
f 433/6/4 434/6/4 438/6/4
f 434/5/4 435/5/4 438/5/4
f 438/5/4 435/5/4 439/5/4
f 433/6/4 438/6/4 442/6/4
f 438/8/4 439/8/4 442/8/4
f 442/8/4 439/8/4 443/8/4
f 424/6/4 433/6/4 444/6/4
f 433/6/4 442/6/4 444/6/4
f 442/5/4 443/5/4 445/5/4
f 444/6/4 442/6/4 445/6/4
f 445/5/4 443/5/4 446/5/4
f 424/6/4 444/6/4 447/6/4
f 444/7/4 445/7/4 447/7/4
f 445/6/4 446/6/4 448/6/4
f 447/7/4 445/7/4 448/7/4
f 448/6/4 446/6/4 449/6/4
f 449/6/4 446/6/4 450/6/4
f 440/6/4 441/6/4 451/6/4
f 451/6/4 441/6/4 452/6/4
f 424/6/4 447/6/4 453/6/4
f 447/6/4 448/6/4 453/6/4
f 448/5/4 449/5/4 454/5/4
f 453/6/4 448/6/4 454/6/4
f 454/5/4 449/5/4 455/5/4
f 456/3/4 457/3/4 458/3/4
f 458/3/4 457/3/4 459/3/4
f 460/3/4 461/3/4 462/3/4
f 462/3/4 461/3/4 463/3/4
f 466/2/4 467/2/4 469/2/4
f 467/3/4 468/3/4 470/3/4
f 469/2/4 467/2/4 470/2/4
f 470/3/4 468/3/4 471/3/4
f 464/2/4 465/2/4 473/2/4
f 465/1/4 466/1/4 473/1/4
f 466/2/4 469/2/4 474/2/4
f 473/1/4 466/1/4 474/1/4
f 474/2/4 469/2/4 475/2/4
f 471/3/4 472/3/4 476/3/4
f 476/3/4 472/3/4 477/3/4
f 474/9/4 475/9/4 478/9/4
f 473/2/4 474/2/4 478/2/4
f 478/9/4 475/9/4 479/9/4
f 473/2/4 478/2/4 480/2/4
f 478/2/4 479/2/4 480/2/4
f 480/2/4 479/2/4 481/2/4
f 481/2/4 479/2/4 482/2/4
f 470/2/4 471/2/4 483/2/4
f 471/3/4 476/3/4 484/3/4
f 483/2/4 471/2/4 484/2/4
f 484/3/4 476/3/4 485/3/4
f 477/3/4 472/3/4 487/3/4
f 487/3/4 472/3/4 488/3/4
f 473/2/4 480/2/4 489/2/4
f 483/2/4 484/2/4 490/2/4
f 481/2/4 482/2/4 490/2/4
f 482/2/4 483/2/4 490/2/4
f 490/2/4 484/2/4 491/2/4
f 491/2/4 484/2/4 492/2/4
f 492/2/4 484/2/4 493/2/4
f 486/3/4 487/3/4 494/3/4
f 494/3/4 487/3/4 495/3/4
f 489/2/4 490/2/4 496/2/4
f 490/2/4 491/2/4 496/2/4
f 496/2/4 491/2/4 497/2/4
f 473/2/4 489/2/4 498/2/4
f 464/2/4 473/2/4 498/2/4
f 489/2/4 496/2/4 498/2/4
f 496/9/4 497/9/4 499/9/4
f 498/2/4 496/2/4 499/2/4
f 499/9/4 497/9/4 500/9/4
f 499/2/4 500/2/4 501/2/4
f 492/2/4 493/2/4 502/2/4
f 493/3/4 494/3/4 503/3/4
f 502/2/4 493/2/4 503/2/4
f 503/3/4 494/3/4 504/3/4
f 464/2/4 498/2/4 505/2/4
f 498/1/4 499/1/4 506/1/4
f 505/2/4 498/2/4 506/2/4
f 499/2/4 501/2/4 507/2/4
f 506/1/4 499/1/4 507/1/4
f 501/2/4 502/2/4 507/2/4
f 502/3/4 503/3/4 508/3/4
f 507/2/4 502/2/4 508/2/4
f 508/3/4 503/3/4 509/3/4
f 510/3/4 511/3/4 516/3/4
f 516/3/4 511/3/4 517/3/4
f 512/3/4 513/3/4 519/3/4
f 518/3/4 519/3/4 520/3/4
f 519/3/4 513/3/4 520/3/4
f 520/3/4 513/3/4 521/3/4
f 514/1/4 515/1/4 522/1/4
f 522/1/4 515/1/4 523/1/4
f 518/3/4 520/3/4 526/3/4
f 526/3/4 520/3/4 527/3/4
f 524/3/4 525/3/4 528/3/4
f 528/3/4 525/3/4 529/3/4
f 534/6/5 531/6/5 530/6/5
f 535/6/5 531/6/5 534/6/5
f 536/6/5 533/6/5 532/6/5
f 537/6/5 533/6/5 536/6/5
f 542/2/5 539/2/5 538/2/5
f 543/2/5 539/2/5 542/2/5
f 544/2/5 541/2/5 540/2/5
f 545/2/5 541/2/5 544/2/5
f 550/6/5 547/6/5 546/6/5
f 551/6/5 547/6/5 550/6/5
f 552/6/5 549/6/5 548/6/5
f 553/6/5 549/6/5 552/6/5
f 555/6/5 552/6/5 551/6/5
f 556/6/5 552/6/5 555/6/5
f 558/6/5 555/6/5 554/6/5
f 558/6/5 557/6/5 556/6/5
f 558/6/5 556/6/5 555/6/5
f 559/6/5 557/6/5 558/6/5
f 562/6/5 561/6/5 560/6/5
f 563/6/5 561/6/5 562/6/5
f 567/2/5 565/2/5 564/2/5
f 568/2/5 565/2/5 567/2/5
f 569/2/5 565/2/5 568/2/5
f 570/2/5 565/2/5 569/2/5
f 571/2/5 565/2/5 570/2/5
f 572/2/5 565/2/5 571/2/5
f 574/2/5 567/2/5 566/2/5
f 574/2/5 568/2/5 567/2/5
f 575/2/5 568/2/5 574/2/5
f 576/2/5 573/2/5 572/2/5
f 576/2/5 572/2/5 571/2/5
f 577/2/5 573/2/5 576/2/5
f 578/2/5 574/2/5 566/2/5
f 579/2/5 574/2/5 578/2/5
f 580/2/5 573/2/5 577/2/5
f 581/2/5 573/2/5 580/2/5
f 586/2/5 583/2/5 582/2/5
f 591/2/5 585/2/5 584/2/5
f 592/2/5 590/2/5 589/2/5
f 592/2/5 591/2/5 590/2/5
f 592/2/5 586/2/5 582/2/5
f 592/2/5 587/2/5 586/2/5
f 592/2/5 589/2/5 588/2/5
f 592/2/5 588/2/5 587/2/5
f 593/2/5 585/2/5 591/2/5
f 593/2/5 591/2/5 592/2/5
f 598/2/5 595/2/5 594/2/5
f 599/2/5 595/2/5 598/2/5
f 600/2/5 597/2/5 596/2/5
f 601/2/5 597/2/5 600/2/5
f 604/1/5 603/1/5 602/1/5
f 605/1/5 603/1/5 604/1/5
f 610/1/5 607/1/5 606/1/5
f 611/1/5 607/1/5 610/1/5
f 612/1/5 609/1/5 608/1/5
f 613/1/5 609/1/5 612/1/5
f 622/3/5 615/3/5 614/3/5
f 622/3/5 616/3/5 615/3/5
f 622/3/5 617/3/5 616/3/5
f 623/3/5 617/3/5 622/3/5
f 624/3/5 621/3/5 620/3/5
f 624/3/5 620/3/5 619/3/5
f 624/3/5 619/3/5 618/3/5
f 625/3/5 621/3/5 624/3/5
f 628/3/5 627/3/5 626/3/5
f 629/3/5 627/3/5 628/3/5
f 632/3/5 631/3/5 630/3/5
f 633/3/5 631/3/5 632/3/5
f 634/6/6 635/6/6 638/6/6
f 638/6/6 635/6/6 639/6/6
f 636/6/6 637/6/6 640/6/6
f 640/6/6 637/6/6 641/6/6
f 642/5/6 643/5/6 646/5/6
f 646/5/6 643/5/6 647/5/6
f 644/5/6 645/5/6 648/5/6
f 648/5/6 645/5/6 649/5/6
f 650/4/6 651/4/6 654/4/6
f 654/4/6 651/4/6 655/4/6
f 652/5/6 653/5/6 656/5/6
f 656/5/6 653/5/6 657/5/6
f 658/4/6 659/4/6 662/4/6
f 662/4/6 659/4/6 663/4/6
f 660/5/6 661/5/6 664/5/6
f 664/5/6 661/5/6 665/5/6
f 662/5/6 663/5/6 666/5/6
f 666/5/6 663/5/6 667/5/6
f 664/4/6 665/4/6 668/4/6
f 668/4/6 665/4/6 669/4/6
f 670/1/6 671/1/6 672/1/6
f 672/1/6 671/1/6 673/1/6
f 674/1/6 675/1/6 678/1/6
f 678/1/6 675/1/6 679/1/6
f 676/1/6 677/1/6 680/1/6
f 680/1/6 677/1/6 681/1/6
f 682/3/6 683/3/6 686/3/6
f 686/3/6 683/3/6 687/3/6
f 684/3/6 685/3/6 688/3/6
f 688/3/6 685/3/6 689/3/6
f 690/3/6 691/3/6 694/3/6
f 694/3/6 691/3/6 695/3/6
f 692/3/6 693/3/6 696/3/6
f 696/3/6 693/3/6 697/3/6
f 698/3/6 699/3/6 702/3/6
f 702/3/6 699/3/6 703/3/6
f 700/3/6 701/3/6 704/3/6
f 704/3/6 701/3/6 705/3/6
f 706/3/6 707/3/6 709/3/6
f 709/3/6 707/3/6 710/3/6
f 708/3/6 709/3/6 712/3/6
f 710/3/6 711/3/6 712/3/6
f 709/3/6 710/3/6 712/3/6
f 712/3/6 711/3/6 713/3/6
f 708/3/6 712/3/6 714/3/6
f 714/3/6 712/3/6 715/3/6
f 708/3/6 714/3/6 716/3/6
f 716/3/6 714/3/6 717/3/6
f 708/3/6 716/3/6 718/3/6
f 718/3/6 716/3/6 719/3/6
f 713/3/6 711/3/6 720/3/6
f 720/3/6 711/3/6 721/3/6
f 713/3/6 720/3/6 723/3/6
f 723/3/6 720/3/6 724/3/6
f 722/3/6 723/3/6 725/3/6
f 725/3/6 723/3/6 726/3/6
f 727/3/6 728/3/6 730/3/6
f 730/3/6 728/3/6 731/3/6
f 729/3/6 730/3/6 733/3/6
f 733/3/6 730/3/6 734/3/6
f 732/3/6 733/3/6 735/3/6
f 735/3/6 733/3/6 736/3/6
f 731/3/6 728/3/6 738/3/6
f 738/3/6 728/3/6 739/3/6
f 737/3/6 738/3/6 740/3/6
f 740/3/6 738/3/6 741/3/6
f 742/3/6 743/3/6 745/3/6
f 744/3/6 745/3/6 747/3/6
f 746/3/6 747/3/6 748/3/6
f 745/3/6 743/3/6 749/3/6
f 748/3/6 747/3/6 749/3/6
f 747/3/6 745/3/6 749/3/6
