# MagicaVoxel @ Ephtracy

# group
o 

# material
mtllib CyanPlayer2.mtl
usemtl palette

# normals
vn -1 0 0
vn 1 0 0
vn 0 0 1
vn 0 0 -1
vn 0 -1 0
vn 0 1 0

# texcoords
vt 0.248047 0.5
vt 0.392578 0.5
vt 0.654297 0.5
vt 0.677734 0.5
vt 0.693359 0.5
vt 0.748047 0.5
vt 0.994141 0.5

# verts
v -0.7 2.2 0
v -0.7 2.2 -0.1
v -0.7 2.5 0
v -0.7 2.5 -0.1
v -0.6 1.3 0.1
v -0.6 1.3 -0.1
v -0.6 1.6 0
v -0.6 1.6 -0.1
v -0.6 1.7 0.1
v -0.6 1.7 0
v -0.6 1.8 0.1
v -0.6 1.8 -0.1
v -0.6 1.9 0.1
v -0.6 1.9 -0.1
v -0.6 1.9 -0.2
v -0.6 2 0.2
v -0.6 2 0.1
v -0.6 2 -0.1
v -0.6 2 -0.2
v -0.6 2.1 0.4
v -0.6 2.1 0.2
v -0.6 2.1 0
v -0.6 2.1 -0.1
v -0.6 2.2 0.5
v -0.6 2.2 0.4
v -0.6 2.2 0.2
v -0.6 2.2 0
v -0.6 2.3 0.4
v -0.6 2.3 0.2
v -0.6 2.4 0.5
v -0.6 2.4 0.4
v -0.5 1.9 0.3
v -0.5 1.9 0.1
v -0.5 1.9 -0.2
v -0.5 1.9 -0.3
v -0.5 2 0.5
v -0.5 2 0.4
v -0.5 2 0.3
v -0.5 2 0.2
v -0.5 2 0.1
v -0.5 2 -0.1
v -0.5 2 -0.2
v -0.5 2 -0.3
v -0.5 2 -0.4
v -0.5 2.1 0.4
v -0.5 2.1 0.2
v -0.5 2.1 0
v -0.5 2.1 -0.1
v -0.5 2.2 0.6
v -0.5 2.2 0.5
v -0.5 2.2 0.4
v -0.5 2.2 0.2
v -0.5 2.2 0
v -0.5 2.2 -0.1
v -0.5 2.2 -0.3
v -0.5 2.2 -0.4
v -0.5 2.3 0.4
v -0.5 2.3 0.2
v -0.5 2.4 0.5
v -0.5 2.4 0.4
v -0.5 2.4 -0.1
v -0.5 2.4 -0.2
v -0.5 2.5 0.6
v -0.5 2.5 0.5
v -0.5 2.5 0
v -0.5 2.5 -0.1
v -0.5 2.5 -0.2
v -0.5 2.5 -0.3
v -0.5 2.6 -0.3
v -0.5 2.6 -0.4
v -0.5 2.7 0.5
v -0.5 2.7 0.4
v -0.5 2.7 -0.3
v -0.5 2.7 -0.4
v -0.5 2.8 0.4
v -0.5 2.8 -0.3
v -0.4 1 0.2
v -0.4 1 -0.2
v -0.4 1.2 -0.1
v -0.4 1.2 -0.2
v -0.4 1.3 0.1
v -0.4 1.3 -0.1
v -0.4 1.4 0.3
v -0.4 1.4 0.2
v -0.4 1.4 -0.1
v -0.4 1.4 -0.2
v -0.4 1.5 0.3
v -0.4 1.5 0.1
v -0.4 1.5 -0.1
v -0.4 1.5 -0.2
v -0.4 1.6 0.3
v -0.4 1.6 0.1
v -0.4 1.6 -0.1
v -0.4 1.6 -0.2
v -0.4 1.7 0.1
v -0.4 1.7 -0.1
v -0.4 1.8 0.3
v -0.4 1.8 0.2
v -0.4 1.8 -0.1
v -0.4 1.8 -0.2
v -0.4 1.9 0.5
v -0.4 1.9 0.3
v -0.4 1.9 0.2
v -0.4 1.9 0.1
v -0.4 2 0.5
v -0.4 2 0.4
v -0.4 2 0.3
v -0.4 2.5 0.6
v -0.4 2.5 0.5
v -0.4 2.6 0.6
v -0.4 2.6 0.5
v -0.4 2.7 0.5
v -0.4 2.7 0.4
v -0.4 2.7 -0.3
v -0.4 2.7 -0.4
v -0.4 2.8 0.5
v -0.4 2.8 0.4
v -0.4 2.8 -0.3
v -0.4 2.8 -0.4
v -0.3 1.8 0.3
v -0.3 1.8 0.2
v -0.3 1.8 -0.1
v -0.3 1.8 -0.2
v -0.3 1.9 0.3
v -0.3 1.9 0.2
v -0.3 1.9 -0.1
v -0.3 1.9 -0.2
v -0.3 1.9 -0.3
v -0.3 1.9 -0.4
v -0.3 2 -0.3
v -0.3 2 -0.4
v -0.3 2.1 0.6
v -0.3 2.1 0.5
v -0.3 2.2 0.6
v -0.3 2.2 0.5
v -0.3 2.6 0.6
v -0.3 2.6 0.5
v -0.3 2.7 0.6
v -0.3 2.7 0.5
v -0.1 2.1 -0.4
v -0.1 2.1 -0.5
v -0.1 2.4 -0.4
v -0.1 2.4 -0.5
v -0.1 2.7 -0.4
v -0.1 2.7 -0.5
v -0.1 2.8 0
v -0.1 2.8 -0.4
v -0.1 2.8 -0.5
v -0.1 2.9 0
v -0.1 2.9 -0.4
v 0 2.8 -0.4
v 0 2.8 -0.5
v 0 2.9 -0.1
v 0 2.9 -0.4
v 0 2.9 -0.5
v 0 3 -0.1
v 0 3 -0.4
v 0.1 1 0.2
v 0.1 1 -0.2
v 0.1 1.2 0.2
v 0.1 1.2 0.1
v 0.1 1.2 0
v 0.1 1.2 -0.1
v 0.1 1.2 -0.2
v 0.1 1.4 0.3
v 0.1 1.4 0.2
v 0.1 1.4 0.1
v 0.1 1.4 0
v 0.1 1.4 -0.1
v 0.1 1.5 0.3
v 0.1 1.5 0.2
v 0.2 2.6 -0.4
v 0.2 2.6 -0.5
v 0.2 2.7 -0.4
v 0.2 2.8 -0.4
v 0.2 2.8 -0.5
v 0.3 2.4 -0.4
v 0.3 2.4 -0.5
v 0.3 2.5 -0.4
v 0.3 2.6 -0.4
v 0.3 2.6 -0.5
v -0.1 1 0.2
v -0.1 1 -0.2
v -0.1 1.2 -0.1
v -0.1 1.2 -0.2
v -0.1 1.4 0.3
v -0.1 1.4 0.2
v -0.1 1.4 -0.1
v -0.1 1.5 0.3
v -0.1 1.5 0.2
v 0.1 2.1 -0.4
v 0.1 2.1 -0.5
v 0.1 2.4 -0.4
v 0.1 2.4 -0.5
v 0.1 2.7 -0.4
v 0.1 2.7 -0.5
v 0.1 2.8 -0.4
v 0.1 2.8 -0.5
v 0.2 2.8 0
v 0.2 2.8 -0.1
v 0.2 2.9 0
v 0.2 2.9 -0.1
v 0.2 2.9 -0.2
v 0.2 3 -0.1
v 0.2 3 -0.2
v 0.3 1.8 0.3
v 0.3 1.8 0.2
v 0.3 1.8 -0.1
v 0.3 1.8 -0.2
v 0.3 1.9 0.3
v 0.3 1.9 0.2
v 0.3 1.9 -0.1
v 0.3 1.9 -0.2
v 0.3 1.9 -0.3
v 0.3 1.9 -0.4
v 0.3 2 -0.3
v 0.3 2 -0.4
v 0.3 2.1 0.6
v 0.3 2.1 0.5
v 0.3 2.2 0.6
v 0.3 2.2 0.5
v 0.3 2.6 0.6
v 0.3 2.6 0.5
v 0.3 2.7 0.6
v 0.3 2.7 0.5
v 0.3 2.7 -0.4
v 0.3 2.7 -0.5
v 0.3 2.8 -0.1
v 0.3 2.8 -0.2
v 0.3 2.9 -0.1
v 0.3 2.9 -0.2
v 0.3 2.9 -0.3
v 0.3 2.9 -0.4
v 0.3 2.9 -0.5
v 0.3 3 -0.2
v 0.3 3 -0.3
v 0.4 1 0.2
v 0.4 1 -0.2
v 0.4 1.2 0.2
v 0.4 1.2 0.1
v 0.4 1.2 0
v 0.4 1.2 -0.1
v 0.4 1.2 -0.2
v 0.4 1.3 0.1
v 0.4 1.3 0
v 0.4 1.3 -0.1
v 0.4 1.4 0.3
v 0.4 1.4 0.2
v 0.4 1.4 -0.1
v 0.4 1.4 -0.2
v 0.4 1.5 0.3
v 0.4 1.5 0.1
v 0.4 1.5 -0.1
v 0.4 1.5 -0.2
v 0.4 1.6 0.3
v 0.4 1.6 0.1
v 0.4 1.6 -0.1
v 0.4 1.6 -0.2
v 0.4 1.8 0.3
v 0.4 1.8 0.2
v 0.4 1.8 -0.1
v 0.4 1.8 -0.2
v 0.4 1.9 0.5
v 0.4 1.9 0.3
v 0.4 1.9 0.2
v 0.4 1.9 0.1
v 0.4 2 0.5
v 0.4 2 0.4
v 0.4 2 0.3
v 0.4 2.4 0.6
v 0.4 2.4 0.5
v 0.4 2.5 -0.4
v 0.4 2.5 -0.5
v 0.4 2.6 0.6
v 0.4 2.6 0.5
v 0.4 2.6 -0.4
v 0.4 2.7 0.5
v 0.4 2.7 0.4
v 0.4 2.7 -0.3
v 0.4 2.7 -0.4
v 0.4 2.7 -0.5
v 0.4 2.8 0.5
v 0.4 2.8 0.4
v 0.4 2.8 -0.2
v 0.4 2.8 -0.3
v 0.4 2.9 -0.2
v 0.4 2.9 -0.3
v 0.4 3 -0.3
v 0.4 3 -0.4
v 0.5 1.9 0.3
v 0.5 1.9 0.1
v 0.5 1.9 -0.1
v 0.5 1.9 -0.3
v 0.5 2 0.5
v 0.5 2 0.4
v 0.5 2 0.3
v 0.5 2 0.2
v 0.5 2 0.1
v 0.5 2 -0.3
v 0.5 2 -0.4
v 0.5 2.1 0.4
v 0.5 2.1 0.2
v 0.5 2.1 0
v 0.5 2.1 -0.1
v 0.5 2.2 0.6
v 0.5 2.2 0.5
v 0.5 2.2 0.4
v 0.5 2.2 0.2
v 0.5 2.2 0
v 0.5 2.2 -0.1
v 0.5 2.2 -0.3
v 0.5 2.2 -0.4
v 0.5 2.3 0.3
v 0.5 2.3 0.2
v 0.5 2.4 0.6
v 0.5 2.4 0.5
v 0.5 2.4 0.3
v 0.5 2.4 0
v 0.5 2.4 -0.4
v 0.5 2.4 -0.5
v 0.5 2.5 0
v 0.5 2.5 -0.1
v 0.5 2.5 -0.4
v 0.5 2.5 -0.5
v 0.5 2.6 -0.1
v 0.5 2.6 -0.4
v 0.5 2.7 0.5
v 0.5 2.7 0.4
v 0.5 2.7 -0.3
v 0.5 2.7 -0.4
v 0.5 2.8 0.4
v 0.5 2.8 -0.3
v 0.6 1.3 0.1
v 0.6 1.3 -0.1
v 0.6 1.8 0.1
v 0.6 1.8 0
v 0.6 1.9 0.1
v 0.6 1.9 0
v 0.6 1.9 -0.1
v 0.6 2 0.2
v 0.6 2 0.1
v 0.6 2.1 0.4
v 0.6 2.1 0.2
v 0.6 2.1 0
v 0.6 2.1 -0.1
v 0.6 2.2 0.5
v 0.6 2.2 0.4
v 0.6 2.2 0.2
v 0.6 2.2 0
v 0.6 2.3 0.3
v 0.6 2.3 0.2
v 0.6 2.4 0.5
v 0.6 2.4 0.3
v 0.7 1.8 0.1
v 0.7 1.8 0
v 0.7 1.9 0.1
v 0.7 1.9 0
v 0.7 2.2 0
v 0.7 2.2 -0.1
v 0.7 2.5 0
v 0.7 2.5 -0.1
v -0.5 2.2 0.6
v -0.5 2.5 0.6
v -0.4 2.5 0.6
v -0.4 2.6 0.6
v -0.3 2.1 0.6
v -0.3 2.2 0.6
v -0.3 2.6 0.6
v -0.3 2.7 0.6
v 0.3 2.1 0.6
v 0.3 2.2 0.6
v 0.3 2.6 0.6
v 0.3 2.7 0.6
v 0.4 2.4 0.6
v 0.4 2.6 0.6
v 0.5 2.2 0.6
v 0.5 2.4 0.6
v -0.6 2.2 0.5
v -0.6 2.4 0.5
v -0.5 2 0.5
v -0.5 2.2 0.5
v -0.5 2.4 0.5
v -0.5 2.5 0.5
v -0.5 2.7 0.5
v -0.4 1.9 0.5
v -0.4 2 0.5
v -0.4 2.5 0.5
v -0.4 2.6 0.5
v -0.4 2.7 0.5
v -0.4 2.8 0.5
v -0.3 2.1 0.5
v -0.3 2.2 0.5
v -0.3 2.6 0.5
v -0.3 2.7 0.5
v -0.2 1.9 0.5
v -0.2 2 0.5
v 0.2 1.9 0.5
v 0.2 2 0.5
v 0.3 2.1 0.5
v 0.3 2.2 0.5
v 0.3 2.6 0.5
v 0.3 2.7 0.5
v 0.4 1.9 0.5
v 0.4 2 0.5
v 0.4 2.4 0.5
v 0.4 2.6 0.5
v 0.4 2.7 0.5
v 0.4 2.8 0.5
v 0.5 2 0.5
v 0.5 2.2 0.5
v 0.5 2.4 0.5
v 0.5 2.7 0.5
v 0.6 2.2 0.5
v 0.6 2.4 0.5
v -0.6 2.1 0.4
v -0.6 2.2 0.4
v -0.5 2.1 0.4
v -0.5 2.2 0.4
v -0.5 2.7 0.4
v -0.5 2.8 0.4
v -0.4 2.7 0.4
v -0.4 2.8 0.4
v 0.4 2.7 0.4
v 0.4 2.8 0.4
v 0.5 2.1 0.4
v 0.5 2.2 0.4
v 0.5 2.7 0.4
v 0.5 2.8 0.4
v 0.6 2.1 0.4
v 0.6 2.2 0.4
v -0.5 1.9 0.3
v -0.5 2 0.3
v -0.4 1.4 0.3
v -0.4 1.5 0.3
v -0.4 1.6 0.3
v -0.4 1.8 0.3
v -0.4 1.9 0.3
v -0.4 2 0.3
v -0.3 1.4 0.3
v -0.3 1.5 0.3
v -0.3 1.8 0.3
v -0.3 1.9 0.3
v -0.2 1.4 0.3
v -0.2 1.5 0.3
v -0.2 1.8 0.3
v -0.2 1.9 0.3
v -0.1 1.4 0.3
v -0.1 1.5 0.3
v 0.1 1.4 0.3
v 0.1 1.5 0.3
v 0.2 1.4 0.3
v 0.2 1.5 0.3
v 0.2 1.8 0.3
v 0.2 1.9 0.3
v 0.3 1.4 0.3
v 0.3 1.5 0.3
v 0.3 1.8 0.3
v 0.3 1.9 0.3
v 0.4 1.4 0.3
v 0.4 1.5 0.3
v 0.4 1.6 0.3
v 0.4 1.8 0.3
v 0.4 1.9 0.3
v 0.4 2 0.3
v 0.5 1.9 0.3
v 0.5 2 0.3
v -0.6 2 0.2
v -0.6 2.1 0.2
v -0.5 2 0.2
v -0.5 2.1 0.2
v -0.4 1 0.2
v -0.4 1.4 0.2
v -0.4 1.8 0.2
v -0.4 1.9 0.2
v -0.3 1.2 0.2
v -0.3 1.4 0.2
v -0.3 1.8 0.2
v -0.3 1.9 0.2
v -0.2 1.2 0.2
v -0.2 1.4 0.2
v -0.1 1 0.2
v -0.1 1.4 0.2
v -0.1 1.5 0.2
v 0 1.4 0.2
v 0 1.5 0.2
v 0.1 1 0.2
v 0.1 1.2 0.2
v 0.1 1.4 0.2
v 0.1 1.5 0.2
v 0.2 1.2 0.2
v 0.2 1.4 0.2
v 0.3 1.2 0.2
v 0.3 1.4 0.2
v 0.3 1.8 0.2
v 0.3 1.9 0.2
v 0.4 1 0.2
v 0.4 1.2 0.2
v 0.4 1.4 0.2
v 0.4 1.8 0.2
v 0.4 1.9 0.2
v 0.5 2 0.2
v 0.5 2.1 0.2
v 0.6 2 0.2
v 0.6 2.1 0.2
v -0.6 1.3 0.1
v -0.6 1.7 0.1
v -0.6 1.8 0.1
v -0.6 1.9 0.1
v -0.6 2 0.1
v -0.5 1.6 0.1
v -0.5 1.7 0.1
v -0.5 1.8 0.1
v -0.5 1.9 0.1
v -0.5 2 0.1
v -0.4 1.3 0.1
v -0.4 1.5 0.1
v -0.4 1.6 0.1
v -0.4 1.7 0.1
v -0.4 1.9 0.1
v 0.4 1.3 0.1
v 0.4 1.5 0.1
v 0.4 1.6 0.1
v 0.4 1.9 0.1
v 0.5 1.9 0.1
v 0.5 2 0.1
v 0.6 1.3 0.1
v 0.6 1.8 0.1
v 0.6 1.9 0.1
v 0.6 2 0.1
v 0.7 1.8 0.1
v 0.7 1.9 0.1
v -0.7 2.2 0
v -0.7 2.5 0
v -0.6 2.2 0
v -0.5 2.2 0
v -0.5 2.5 0
v -0.1 2.8 0
v -0.1 2.9 0
v 0.2 2.8 0
v 0.2 2.9 0
v 0.5 2.2 0
v 0.5 2.4 0
v 0.5 2.5 0
v 0.6 2.2 0
v 0.7 2.2 0
v 0.7 2.5 0
v 0 2.9 -0.1
v 0 3 -0.1
v 0.2 2.8 -0.1
v 0.2 2.9 -0.1
v 0.2 3 -0.1
v 0.3 2.8 -0.1
v 0.3 2.9 -0.1
v 0.2 2.9 -0.2
v 0.2 3 -0.2
v 0.3 2.8 -0.2
v 0.3 2.9 -0.2
v 0.3 3 -0.2
v 0.4 2.8 -0.2
v 0.4 2.9 -0.2
v 0.3 2.9 -0.3
v 0.3 3 -0.3
v 0.4 2.9 -0.3
v 0.4 3 -0.3
v -0.6 2.3 0.4
v -0.6 2.4 0.4
v -0.5 2.3 0.4
v -0.5 2.4 0.4
v 0.5 2.3 0.3
v 0.5 2.4 0.3
v 0.6 2.3 0.3
v 0.6 2.4 0.3
v -0.6 2.2 0.2
v -0.6 2.3 0.2
v -0.5 2.2 0.2
v -0.5 2.3 0.2
v 0.5 2.2 0.2
v 0.5 2.3 0.2
v 0.6 2.2 0.2
v 0.6 2.3 0.2
v -0.6 2.1 0
v -0.6 2.2 0
v -0.5 2.1 0
v -0.5 2.2 0
v 0.5 2.1 0
v 0.5 2.2 0
v 0.6 1.8 0
v 0.6 1.9 0
v 0.6 2.1 0
v 0.6 2.2 0
v 0.7 1.8 0
v 0.7 1.9 0
v -0.7 2.2 -0.1
v -0.7 2.5 -0.1
v -0.6 1.3 -0.1
v -0.6 1.6 -0.1
v -0.6 1.8 -0.1
v -0.6 1.9 -0.1
v -0.6 2 -0.1
v -0.6 2.1 -0.1
v -0.5 1.7 -0.1
v -0.5 1.8 -0.1
v -0.5 1.9 -0.1
v -0.5 2 -0.1
v -0.5 2.1 -0.1
v -0.5 2.2 -0.1
v -0.5 2.4 -0.1
v -0.5 2.5 -0.1
v -0.4 1.2 -0.1
v -0.4 1.3 -0.1
v -0.4 1.4 -0.1
v -0.4 1.5 -0.1
v -0.4 1.6 -0.1
v -0.4 1.7 -0.1
v -0.4 1.8 -0.1
v -0.4 1.9 -0.1
v -0.3 1.2 -0.1
v -0.3 1.4 -0.1
v -0.3 1.8 -0.1
v -0.3 1.9 -0.1
v -0.2 1.2 -0.1
v -0.2 1.4 -0.1
v -0.1 1.2 -0.1
v -0.1 1.4 -0.1
v 0.1 1.2 -0.1
v 0.1 1.4 -0.1
v 0.2 1.2 -0.1
v 0.2 1.4 -0.1
v 0.3 1.2 -0.1
v 0.3 1.4 -0.1
v 0.3 1.8 -0.1
v 0.3 1.9 -0.1
v 0.4 1.2 -0.1
v 0.4 1.3 -0.1
v 0.4 1.4 -0.1
v 0.4 1.5 -0.1
v 0.4 1.6 -0.1
v 0.4 1.8 -0.1
v 0.4 1.9 -0.1
v 0.5 1.9 -0.1
v 0.5 2.1 -0.1
v 0.5 2.2 -0.1
v 0.5 2.5 -0.1
v 0.6 1.3 -0.1
v 0.6 1.9 -0.1
v 0.6 2.1 -0.1
v 0.7 2.2 -0.1
v 0.7 2.5 -0.1
v -0.6 1.9 -0.2
v -0.6 2 -0.2
v -0.5 1.9 -0.2
v -0.5 2 -0.2
v -0.4 1 -0.2
v -0.4 1.2 -0.2
v -0.4 1.4 -0.2
v -0.4 1.5 -0.2
v -0.4 1.6 -0.2
v -0.4 1.8 -0.2
v -0.3 1.4 -0.2
v -0.3 1.5 -0.2
v -0.3 1.8 -0.2
v -0.3 1.9 -0.2
v -0.2 1.4 -0.2
v -0.2 1.5 -0.2
v -0.2 1.8 -0.2
v -0.2 1.9 -0.2
v -0.1 1 -0.2
v -0.1 1.2 -0.2
v -0.1 1.4 -0.2
v -0.1 1.5 -0.2
v -0.1 1.7 -0.2
v -0.1 1.8 -0.2
v 0 1.4 -0.2
v 0 1.5 -0.2
v 0 1.6 -0.2
v 0 1.7 -0.2
v 0 1.8 -0.2
v 0.1 1 -0.2
v 0.1 1.2 -0.2
v 0.1 1.4 -0.2
v 0.1 1.5 -0.2
v 0.1 1.6 -0.2
v 0.1 1.7 -0.2
v 0.2 1.4 -0.2
v 0.2 1.5 -0.2
v 0.2 1.8 -0.2
v 0.2 1.9 -0.2
v 0.3 1.4 -0.2
v 0.3 1.5 -0.2
v 0.3 1.8 -0.2
v 0.3 1.9 -0.2
v 0.4 1 -0.2
v 0.4 1.2 -0.2
v 0.4 1.4 -0.2
v 0.4 1.5 -0.2
v 0.4 1.6 -0.2
v 0.4 1.8 -0.2
v -0.5 1.9 -0.3
v -0.5 2 -0.3
v -0.5 2.7 -0.3
v -0.5 2.8 -0.3
v -0.4 2.7 -0.3
v -0.4 2.8 -0.3
v -0.3 1.9 -0.3
v -0.3 2 -0.3
v 0.3 1.9 -0.3
v 0.3 2 -0.3
v 0.4 2.7 -0.3
v 0.4 2.8 -0.3
v 0.5 1.9 -0.3
v 0.5 2 -0.3
v 0.5 2.7 -0.3
v 0.5 2.8 -0.3
v -0.5 2 -0.4
v -0.5 2.2 -0.4
v -0.5 2.6 -0.4
v -0.5 2.7 -0.4
v -0.4 2.4 -0.4
v -0.4 2.5 -0.4
v -0.4 2.6 -0.4
v -0.4 2.7 -0.4
v -0.4 2.8 -0.4
v -0.3 1.9 -0.4
v -0.3 2 -0.4
v -0.3 2.2 -0.4
v -0.3 2.4 -0.4
v -0.3 2.6 -0.4
v -0.3 2.7 -0.4
v -0.2 2.2 -0.4
v -0.2 2.5 -0.4
v -0.1 2.1 -0.4
v -0.1 2.4 -0.4
v -0.1 2.5 -0.4
v -0.1 2.6 -0.4
v -0.1 2.7 -0.4
v -0.1 2.8 -0.4
v -0.1 2.9 -0.4
v 0 2.8 -0.4
v 0 2.9 -0.4
v 0 3 -0.4
v 0.1 2.1 -0.4
v 0.1 2.4 -0.4
v 0.1 2.5 -0.4
v 0.1 2.6 -0.4
v 0.1 2.7 -0.4
v 0.1 2.8 -0.4
v 0.2 2.2 -0.4
v 0.2 2.5 -0.4
v 0.2 2.6 -0.4
v 0.2 2.7 -0.4
v 0.2 2.8 -0.4
v 0.3 1.9 -0.4
v 0.3 2 -0.4
v 0.3 2.2 -0.4
v 0.3 2.4 -0.4
v 0.3 2.5 -0.4
v 0.3 2.6 -0.4
v 0.3 2.7 -0.4
v 0.3 2.9 -0.4
v 0.4 2.5 -0.4
v 0.4 2.6 -0.4
v 0.4 2.7 -0.4
v 0.4 3 -0.4
v 0.5 2 -0.4
v 0.5 2.2 -0.4
v 0.5 2.4 -0.4
v 0.5 2.5 -0.4
v 0.5 2.6 -0.4
v 0.5 2.7 -0.4
v -0.1 2.1 -0.5
v -0.1 2.4 -0.5
v -0.1 2.7 -0.5
v -0.1 2.8 -0.5
v 0 2.8 -0.5
v 0 2.9 -0.5
v 0.1 2.1 -0.5
v 0.1 2.4 -0.5
v 0.1 2.7 -0.5
v 0.1 2.8 -0.5
v 0.2 2.6 -0.5
v 0.2 2.8 -0.5
v 0.3 2.4 -0.5
v 0.3 2.6 -0.5
v 0.3 2.7 -0.5
v 0.3 2.9 -0.5
v 0.4 2.5 -0.5
v 0.4 2.7 -0.5
v 0.5 2.4 -0.5
v 0.5 2.5 -0.5
v -0.4 1 0.2
v -0.1 1 0.2
v 0.1 1 0.2
v 0.4 1 0.2
v -0.4 1 -0.2
v -0.1 1 -0.2
v 0.1 1 -0.2
v 0.4 1 -0.2
v -0.6 1.3 0.1
v -0.4 1.3 0.1
v 0.4 1.3 0.1
v 0.6 1.3 0.1
v 0.4 1.3 0
v -0.6 1.3 -0.1
v -0.4 1.3 -0.1
v 0.4 1.3 -0.1
v 0.6 1.3 -0.1
v -0.4 1.4 0.3
v -0.3 1.4 0.3
v -0.2 1.4 0.3
v -0.1 1.4 0.3
v 0.1 1.4 0.3
v 0.2 1.4 0.3
v 0.3 1.4 0.3
v 0.4 1.4 0.3
v -0.4 1.4 0.2
v -0.3 1.4 0.2
v -0.2 1.4 0.2
v -0.1 1.4 0.2
v 0 1.4 0.2
v 0.1 1.4 0.2
v 0.2 1.4 0.2
v 0.3 1.4 0.2
v 0.4 1.4 0.2
v 0.1 1.4 0.1
v 0.1 1.4 0
v -0.4 1.4 -0.1
v -0.3 1.4 -0.1
v -0.2 1.4 -0.1
v -0.1 1.4 -0.1
v 0.1 1.4 -0.1
v 0.2 1.4 -0.1
v 0.3 1.4 -0.1
v 0.4 1.4 -0.1
v -0.4 1.4 -0.2
v -0.3 1.4 -0.2
v -0.2 1.4 -0.2
v -0.1 1.4 -0.2
v 0 1.4 -0.2
v 0.1 1.4 -0.2
v 0.2 1.4 -0.2
v 0.3 1.4 -0.2
v 0.4 1.4 -0.2
v -0.1 1.5 0.3
v 0.1 1.5 0.3
v -0.1 1.5 0.2
v 0 1.5 0.2
v 0.1 1.5 0.2
v 0.6 1.8 0.1
v 0.7 1.8 0.1
v 0.6 1.8 0
v 0.7 1.8 0
v -0.4 1.9 0.5
v -0.2 1.9 0.5
v 0.2 1.9 0.5
v 0.4 1.9 0.5
v -0.2 1.9 0.4
v 0.2 1.9 0.4
v -0.5 1.9 0.3
v -0.4 1.9 0.3
v -0.3 1.9 0.3
v -0.2 1.9 0.3
v 0.2 1.9 0.3
v 0.3 1.9 0.3
v 0.4 1.9 0.3
v 0.5 1.9 0.3
v -0.4 1.9 0.2
v -0.3 1.9 0.2
v 0.3 1.9 0.2
v 0.4 1.9 0.2
v -0.5 1.9 0.1
v -0.4 1.9 0.1
v 0.4 1.9 0.1
v 0.5 1.9 0.1
v -0.6 1.9 -0.1
v -0.5 1.9 -0.1
v -0.4 1.9 -0.1
v -0.3 1.9 -0.1
v 0.3 1.9 -0.1
v 0.4 1.9 -0.1
v 0.5 1.9 -0.1
v -0.6 1.9 -0.2
v -0.5 1.9 -0.2
v -0.3 1.9 -0.2
v -0.2 1.9 -0.2
v 0.2 1.9 -0.2
v 0.3 1.9 -0.2
v -0.5 1.9 -0.3
v -0.3 1.9 -0.3
v 0.3 1.9 -0.3
v 0.5 1.9 -0.3
v -0.3 1.9 -0.4
v 0.3 1.9 -0.4
v -0.5 2 0.5
v -0.4 2 0.5
v 0.4 2 0.5
v 0.5 2 0.5
v -0.5 2 0.4
v -0.4 2 0.4
v 0.4 2 0.4
v 0.5 2 0.4
v -0.5 2 0.3
v -0.4 2 0.3
v 0.4 2 0.3
v 0.5 2 0.3
v -0.6 2 0.2
v -0.5 2 0.2
v 0.5 2 0.2
v 0.6 2 0.2
v -0.6 2 0.1
v -0.5 2 0.1
v 0.5 2 0.1
v 0.6 2 0.1
v -0.5 2 -0.3
v -0.3 2 -0.3
v 0.3 2 -0.3
v 0.5 2 -0.3
v -0.5 2 -0.4
v -0.3 2 -0.4
v 0.3 2 -0.4
v 0.5 2 -0.4
v -0.3 2.1 0.6
v 0.3 2.1 0.6
v -0.3 2.1 0.5
v 0.3 2.1 0.5
v -0.6 2.1 0.4
v -0.5 2.1 0.4
v 0.5 2.1 0.4
v 0.6 2.1 0.4
v -0.6 2.1 0.2
v -0.5 2.1 0.2
v 0.5 2.1 0.2
v 0.6 2.1 0.2
v -0.1 2.1 -0.4
v 0.1 2.1 -0.4
v -0.1 2.1 -0.5
v 0.1 2.1 -0.5
v -0.5 2.2 0.6
v -0.3 2.2 0.6
v 0.3 2.2 0.6
v 0.5 2.2 0.6
v -0.6 2.2 0.5
v -0.5 2.2 0.5
v -0.3 2.2 0.5
v 0.3 2.2 0.5
v 0.5 2.2 0.5
v 0.6 2.2 0.5
v -0.6 2.2 0.4
v -0.5 2.2 0.4
v 0.5 2.2 0.4
v 0.6 2.2 0.4
v -0.7 2.2 0
v -0.6 2.2 0
v -0.5 2.2 0
v 0.5 2.2 0
v 0.6 2.2 0
v 0.7 2.2 0
v -0.7 2.2 -0.1
v -0.5 2.2 -0.1
v 0.5 2.2 -0.1
v 0.7 2.2 -0.1
v 0.3 2.4 -0.4
v 0.5 2.4 -0.4
v 0.3 2.4 -0.5
v 0.5 2.4 -0.5
v 0.2 2.6 -0.4
v 0.3 2.6 -0.4
v 0.2 2.6 -0.5
v 0.3 2.6 -0.5
v -0.1 2.7 -0.4
v 0.1 2.7 -0.4
v -0.1 2.7 -0.5
v 0.1 2.7 -0.5
v 0.1 2.8 -0.4
v 0.2 2.8 -0.4
v 0.1 2.8 -0.5
v 0.2 2.8 -0.5
v -0.4 1.2 -0.1
v -0.3 1.2 -0.1
v -0.2 1.2 -0.1
v -0.1 1.2 -0.1
v 0.1 1.2 -0.1
v 0.2 1.2 -0.1
v 0.3 1.2 -0.1
v 0.4 1.2 -0.1
v -0.4 1.2 -0.2
v -0.1 1.2 -0.2
v 0.1 1.2 -0.2
v 0.4 1.2 -0.2
v -0.4 1.8 0.3
v -0.3 1.8 0.3
v 0.3 1.8 0.3
v 0.4 1.8 0.3
v -0.4 1.8 0.2
v -0.3 1.8 0.2
v 0.3 1.8 0.2
v 0.4 1.8 0.2
v -0.4 1.8 -0.1
v -0.3 1.8 -0.1
v 0.3 1.8 -0.1
v 0.4 1.8 -0.1
v -0.4 1.8 -0.2
v -0.3 1.8 -0.2
v 0.3 1.8 -0.2
v 0.4 1.8 -0.2
v 0.6 1.9 0.1
v 0.7 1.9 0.1
v 0.6 1.9 0
v 0.7 1.9 0
v -0.6 2 -0.1
v -0.5 2 -0.1
v -0.6 2 -0.2
v -0.5 2 -0.2
v -0.6 2.1 0
v -0.5 2.1 0
v 0.5 2.1 0
v 0.6 2.1 0
v -0.6 2.1 -0.1
v -0.5 2.1 -0.1
v 0.5 2.1 -0.1
v 0.6 2.1 -0.1
v -0.6 2.2 0.2
v -0.5 2.2 0.2
v 0.5 2.2 0.2
v 0.6 2.2 0.2
v -0.6 2.2 0
v -0.5 2.2 0
v 0.5 2.2 0
v 0.6 2.2 0
v -0.6 2.3 0.4
v -0.5 2.3 0.4
v 0.5 2.3 0.3
v 0.6 2.3 0.3
v -0.6 2.3 0.2
v -0.5 2.3 0.2
v 0.5 2.3 0.2
v 0.6 2.3 0.2
v 0.4 2.4 0.6
v 0.5 2.4 0.6
v -0.6 2.4 0.5
v -0.5 2.4 0.5
v 0.4 2.4 0.5
v 0.5 2.4 0.5
v 0.6 2.4 0.5
v -0.6 2.4 0.4
v -0.5 2.4 0.4
v 0.5 2.4 0.3
v 0.6 2.4 0.3
v -0.1 2.4 -0.4
v 0.1 2.4 -0.4
v -0.1 2.4 -0.5
v 0.1 2.4 -0.5
v -0.5 2.5 0.6
v -0.4 2.5 0.6
v -0.5 2.5 0.5
v -0.4 2.5 0.5
v -0.7 2.5 0
v -0.5 2.5 0
v 0.5 2.5 0
v 0.7 2.5 0
v -0.7 2.5 -0.1
v -0.5 2.5 -0.1
v 0.5 2.5 -0.1
v 0.7 2.5 -0.1
v 0.4 2.5 -0.4
v 0.5 2.5 -0.4
v 0.4 2.5 -0.5
v 0.5 2.5 -0.5
v -0.4 2.6 0.6
v -0.3 2.6 0.6
v 0.3 2.6 0.6
v 0.4 2.6 0.6
v -0.4 2.6 0.5
v -0.3 2.6 0.5
v 0.3 2.6 0.5
v 0.4 2.6 0.5
v -0.3 2.7 0.6
v 0.3 2.7 0.6
v -0.5 2.7 0.5
v -0.4 2.7 0.5
v -0.3 2.7 0.5
v 0.3 2.7 0.5
v 0.4 2.7 0.5
v 0.5 2.7 0.5
v -0.5 2.7 0.4
v -0.4 2.7 0.4
v 0.4 2.7 0.4
v 0.5 2.7 0.4
v -0.5 2.7 -0.3
v -0.4 2.7 -0.3
v 0.4 2.7 -0.3
v 0.5 2.7 -0.3
v -0.5 2.7 -0.4
v -0.4 2.7 -0.4
v 0.3 2.7 -0.4
v 0.4 2.7 -0.4
v 0.5 2.7 -0.4
v 0.3 2.7 -0.5
v 0.4 2.7 -0.5
v -0.4 2.8 0.5
v 0.4 2.8 0.5
v -0.5 2.8 0.4
v -0.4 2.8 0.4
v 0.4 2.8 0.4
v 0.5 2.8 0.4
v -0.1 2.8 0
v 0.2 2.8 0
v 0.2 2.8 -0.1
v 0.3 2.8 -0.1
v 0.3 2.8 -0.2
v 0.4 2.8 -0.2
v -0.5 2.8 -0.3
v -0.4 2.8 -0.3
v 0.4 2.8 -0.3
v 0.5 2.8 -0.3
v -0.4 2.8 -0.4
v -0.1 2.8 -0.4
v 0 2.8 -0.4
v -0.1 2.8 -0.5
v 0 2.8 -0.5
v -0.1 2.9 0
v 0.2 2.9 0
v 0 2.9 -0.1
v 0.2 2.9 -0.1
v 0.3 2.9 -0.1
v 0.2 2.9 -0.2
v 0.3 2.9 -0.2
v 0.4 2.9 -0.2
v 0.3 2.9 -0.3
v 0.4 2.9 -0.3
v -0.1 2.9 -0.4
v 0 2.9 -0.4
v 0.3 2.9 -0.4
v 0 2.9 -0.5
v 0.3 2.9 -0.5
v 0 3 -0.1
v 0.2 3 -0.1
v 0.2 3 -0.2
v 0.3 3 -0.2
v 0.3 3 -0.3
v 0.4 3 -0.3
v 0 3 -0.4
v 0.4 3 -0.4

# faces
f 3/1/1 2/1/1 1/1/1
f 4/1/1 2/1/1 3/1/1
f 7/2/1 6/2/1 5/2/1
f 8/2/1 6/2/1 7/2/1
f 9/2/1 7/2/1 5/2/1
f 10/4/1 8/4/1 7/4/1
f 10/2/1 7/2/1 9/2/1
f 11/4/1 10/4/1 9/4/1
f 12/4/1 8/4/1 10/4/1
f 12/4/1 10/4/1 11/4/1
f 13/2/1 12/2/1 11/2/1
f 14/2/1 12/2/1 13/2/1
f 17/3/1 14/3/1 13/3/1
f 17/3/1 15/3/1 14/3/1
f 18/3/1 15/3/1 17/3/1
f 19/3/1 15/3/1 18/3/1
f 21/3/1 17/3/1 16/3/1
f 21/3/1 18/3/1 17/3/1
f 22/3/1 18/3/1 21/3/1
f 23/3/1 18/3/1 22/3/1
f 25/3/1 21/3/1 20/3/1
f 25/3/1 22/3/1 21/3/1
f 26/3/1 22/3/1 25/3/1
f 27/3/1 22/3/1 26/3/1
f 28/3/1 25/3/1 24/3/1
f 28/3/1 26/3/1 25/3/1
f 29/3/1 26/3/1 28/3/1
f 30/3/1 28/3/1 24/3/1
f 31/3/1 28/3/1 30/3/1
f 38/2/1 33/2/1 32/2/1
f 39/2/1 33/2/1 38/2/1
f 40/2/1 33/2/1 39/2/1
f 42/2/1 35/2/1 34/2/1
f 43/2/1 35/2/1 42/2/1
f 45/3/1 37/3/1 36/3/1
f 45/2/1 38/2/1 37/2/1
f 45/2/1 39/2/1 38/2/1
f 46/2/1 39/2/1 45/2/1
f 48/2/1 43/2/1 42/2/1
f 48/2/1 42/2/1 41/2/1
f 50/3/1 45/3/1 36/3/1
f 51/3/1 45/3/1 50/3/1
f 53/2/1 48/2/1 47/2/1
f 54/2/1 43/2/1 48/2/1
f 54/2/1 48/2/1 53/2/1
f 55/1/1 44/1/1 43/1/1
f 55/2/1 43/2/1 54/2/1
f 56/1/1 44/1/1 55/1/1
f 58/3/1 53/3/1 52/3/1
f 59/3/1 50/3/1 49/3/1
f 60/3/1 58/3/1 57/3/1
f 61/2/1 56/2/1 55/2/1
f 61/2/1 55/2/1 54/2/1
f 62/2/1 56/2/1 61/2/1
f 63/3/1 60/3/1 59/3/1
f 63/3/1 59/3/1 49/3/1
f 64/3/1 60/3/1 63/3/1
f 65/3/1 58/3/1 60/3/1
f 65/3/1 60/3/1 64/3/1
f 65/3/1 53/3/1 58/3/1
f 66/3/1 62/3/1 61/3/1
f 67/2/1 56/2/1 62/2/1
f 67/3/1 62/3/1 66/3/1
f 68/2/1 56/2/1 67/2/1
f 69/3/1 66/3/1 65/3/1
f 69/2/1 56/2/1 68/2/1
f 69/3/1 68/3/1 67/3/1
f 69/3/1 67/3/1 66/3/1
f 69/3/1 65/3/1 64/3/1
f 70/2/1 56/2/1 69/2/1
f 71/3/1 69/3/1 64/3/1
f 71/3/1 70/3/1 69/3/1
f 72/3/1 70/3/1 71/3/1
f 73/3/1 70/3/1 72/3/1
f 74/3/1 70/3/1 73/3/1
f 75/3/1 73/3/1 72/3/1
f 76/3/1 73/3/1 75/3/1
f 79/6/1 78/6/1 77/6/1
f 80/6/1 78/6/1 79/6/1
f 81/6/1 79/6/1 77/6/1
f 82/6/1 79/6/1 81/6/1
f 84/6/1 81/6/1 77/6/1
f 87/6/1 84/6/1 83/6/1
f 88/6/1 81/6/1 84/6/1
f 88/6/1 84/6/1 87/6/1
f 89/6/1 86/6/1 85/6/1
f 90/6/1 86/6/1 89/6/1
f 91/2/1 88/2/1 87/2/1
f 92/2/1 88/2/1 91/2/1
f 93/2/1 90/2/1 89/2/1
f 94/2/1 90/2/1 93/2/1
f 95/6/1 92/6/1 91/6/1
f 96/6/1 94/6/1 93/6/1
f 97/6/1 95/6/1 91/6/1
f 98/6/1 95/6/1 97/6/1
f 99/6/1 94/6/1 96/6/1
f 100/6/1 94/6/1 99/6/1
f 103/6/1 95/6/1 98/6/1
f 104/6/1 95/6/1 103/6/1
f 105/2/1 102/2/1 101/2/1
f 106/2/1 102/2/1 105/2/1
f 107/2/1 102/2/1 106/2/1
f 110/3/1 109/3/1 108/3/1
f 111/3/1 109/3/1 110/3/1
f 116/3/1 113/3/1 112/3/1
f 117/3/1 113/3/1 116/3/1
f 118/3/1 115/3/1 114/3/1
f 119/3/1 115/3/1 118/3/1
f 124/6/1 121/6/1 120/6/1
f 125/6/1 121/6/1 124/6/1
f 126/6/1 123/6/1 122/6/1
f 127/6/1 123/6/1 126/6/1
f 130/2/1 129/2/1 128/2/1
f 131/2/1 129/2/1 130/2/1
f 134/3/1 133/3/1 132/3/1
f 135/3/1 133/3/1 134/3/1
f 138/3/1 137/3/1 136/3/1
f 139/3/1 137/3/1 138/3/1
f 142/1/1 141/1/1 140/1/1
f 143/1/1 141/1/1 142/1/1
f 147/3/1 145/3/1 144/3/1
f 148/3/1 145/3/1 147/3/1
f 149/3/1 147/3/1 146/3/1
f 150/3/1 147/3/1 149/3/1
f 154/3/1 152/3/1 151/3/1
f 155/3/1 152/3/1 154/3/1
f 156/3/1 154/3/1 153/3/1
f 157/3/1 154/3/1 156/3/1
f 160/6/1 159/6/1 158/6/1
f 161/6/1 159/6/1 160/6/1
f 162/6/1 159/6/1 161/6/1
f 163/6/1 159/6/1 162/6/1
f 164/6/1 159/6/1 163/6/1
f 166/5/1 161/5/1 160/5/1
f 167/6/1 162/6/1 161/6/1
f 167/5/1 161/5/1 166/5/1
f 168/5/1 163/5/1 162/5/1
f 168/6/1 162/6/1 167/6/1
f 169/5/1 163/5/1 168/5/1
f 170/5/1 166/5/1 165/5/1
f 171/5/1 166/5/1 170/5/1
f 174/3/1 173/3/1 172/3/1
f 175/3/1 173/3/1 174/3/1
f 176/3/1 173/3/1 175/3/1
f 179/3/1 178/3/1 177/3/1
f 180/3/1 178/3/1 179/3/1
f 181/3/1 178/3/1 180/3/1
f 182/6/2 183/6/2 184/6/2
f 184/6/2 183/6/2 185/6/2
f 182/6/2 184/6/2 187/6/2
f 187/6/2 184/6/2 188/6/2
f 186/6/2 187/6/2 189/6/2
f 189/6/2 187/6/2 190/6/2
f 191/1/2 192/1/2 193/1/2
f 193/1/2 192/1/2 194/1/2
f 195/3/2 196/3/2 197/3/2
f 197/3/2 196/3/2 198/3/2
f 199/3/2 200/3/2 201/3/2
f 201/3/2 200/3/2 202/3/2
f 202/3/2 203/3/2 204/3/2
f 204/3/2 203/3/2 205/3/2
f 206/6/2 207/6/2 210/6/2
f 210/6/2 207/6/2 211/6/2
f 208/6/2 209/6/2 212/6/2
f 212/6/2 209/6/2 213/6/2
f 214/2/2 215/2/2 216/2/2
f 216/2/2 215/2/2 217/2/2
f 218/3/2 219/3/2 220/3/2
f 220/3/2 219/3/2 221/3/2
f 222/3/2 223/3/2 224/3/2
f 224/3/2 223/3/2 225/3/2
f 228/3/2 229/3/2 230/3/2
f 230/3/2 229/3/2 231/3/2
f 226/3/2 227/3/2 233/3/2
f 233/3/2 227/3/2 234/3/2
f 231/3/2 232/3/2 235/3/2
f 235/3/2 232/3/2 236/3/2
f 237/6/2 238/6/2 239/6/2
f 239/6/2 238/6/2 240/6/2
f 240/6/2 238/6/2 241/6/2
f 241/6/2 238/6/2 242/6/2
f 242/6/2 238/6/2 243/6/2
f 239/5/2 240/5/2 244/5/2
f 240/6/2 241/6/2 244/6/2
f 241/5/2 242/5/2 245/5/2
f 244/6/2 241/6/2 245/6/2
f 245/5/2 242/5/2 246/5/2
f 239/5/2 244/5/2 248/5/2
f 247/5/2 248/5/2 251/5/2
f 248/5/2 244/5/2 252/5/2
f 251/5/2 248/5/2 252/5/2
f 249/5/2 250/5/2 253/5/2
f 253/5/2 250/5/2 254/5/2
f 251/2/2 252/2/2 255/2/2
f 255/2/2 252/2/2 256/2/2
f 253/2/2 254/2/2 257/2/2
f 257/2/2 254/2/2 258/2/2
f 255/6/2 256/6/2 259/6/2
f 259/6/2 256/6/2 260/6/2
f 257/6/2 258/6/2 261/6/2
f 261/6/2 258/6/2 262/6/2
f 260/6/2 256/6/2 265/6/2
f 265/6/2 256/6/2 266/6/2
f 263/2/2 264/2/2 267/2/2
f 267/2/2 264/2/2 268/2/2
f 268/2/2 264/2/2 269/2/2
f 270/3/2 271/3/2 274/3/2
f 274/3/2 271/3/2 275/3/2
f 272/3/2 273/3/2 276/3/2
f 276/3/2 273/3/2 280/3/2
f 280/3/2 273/3/2 281/3/2
f 277/3/2 278/3/2 282/3/2
f 282/3/2 278/3/2 283/3/2
f 279/3/2 280/3/2 285/3/2
f 284/3/2 285/3/2 286/3/2
f 285/3/2 280/3/2 287/3/2
f 286/3/2 285/3/2 287/3/2
f 287/3/2 280/3/2 288/3/2
f 288/3/2 280/3/2 289/3/2
f 290/2/2 291/2/2 296/2/2
f 296/2/2 291/2/2 297/2/2
f 297/2/2 291/2/2 298/2/2
f 292/2/2 293/2/2 299/2/2
f 294/3/2 295/3/2 301/3/2
f 295/2/2 296/2/2 301/2/2
f 296/2/2 297/2/2 301/2/2
f 301/2/2 297/2/2 302/2/2
f 292/2/2 299/2/2 304/2/2
f 294/3/2 301/3/2 306/3/2
f 306/3/2 301/3/2 307/3/2
f 303/2/2 304/2/2 309/2/2
f 304/2/2 299/2/2 310/2/2
f 309/2/2 304/2/2 310/2/2
f 299/1/2 300/1/2 311/1/2
f 310/2/2 299/2/2 311/2/2
f 311/1/2 300/1/2 312/1/2
f 308/2/2 309/2/2 314/2/2
f 305/3/2 306/3/2 315/3/2
f 315/3/2 306/3/2 316/3/2
f 313/2/2 314/2/2 317/2/2
f 314/2/2 309/2/2 318/2/2
f 317/2/2 314/2/2 318/2/2
f 311/2/2 312/2/2 319/2/2
f 310/2/2 311/2/2 319/2/2
f 317/3/2 318/3/2 321/3/2
f 316/3/2 317/3/2 321/3/2
f 310/2/2 319/2/2 322/2/2
f 319/3/2 320/3/2 323/3/2
f 322/2/2 319/2/2 323/2/2
f 323/3/2 320/3/2 324/3/2
f 321/3/2 322/3/2 325/3/2
f 322/2/2 323/2/2 325/2/2
f 325/2/2 323/2/2 326/2/2
f 316/3/2 321/3/2 327/3/2
f 321/3/2 325/3/2 327/3/2
f 325/3/2 326/3/2 327/3/2
f 327/3/2 326/3/2 328/3/2
f 328/3/2 326/3/2 329/3/2
f 329/3/2 326/3/2 330/3/2
f 328/3/2 329/3/2 331/3/2
f 331/3/2 329/3/2 332/3/2
f 333/2/2 334/2/2 335/2/2
f 335/2/2 334/2/2 336/2/2
f 336/2/2 334/2/2 338/2/2
f 338/2/2 334/2/2 339/2/2
f 337/3/2 338/3/2 341/3/2
f 338/3/2 339/3/2 341/3/2
f 340/3/2 341/3/2 343/3/2
f 341/3/2 339/3/2 344/3/2
f 343/3/2 341/3/2 344/3/2
f 344/3/2 339/3/2 345/3/2
f 342/3/2 343/3/2 347/3/2
f 343/3/2 344/3/2 347/3/2
f 347/3/2 344/3/2 348/3/2
f 348/3/2 344/3/2 349/3/2
f 346/3/2 347/3/2 350/3/2
f 347/3/2 348/3/2 350/3/2
f 350/3/2 348/3/2 351/3/2
f 346/3/2 350/3/2 352/3/2
f 352/3/2 350/3/2 353/3/2
f 354/3/2 355/3/2 356/3/2
f 356/3/2 355/3/2 357/3/2
f 358/1/2 359/1/2 360/1/2
f 360/1/2 359/1/2 361/1/2
f 364/3/3 363/3/3 362/3/3
f 367/3/3 364/3/3 362/3/3
f 367/3/3 365/3/3 364/3/3
f 368/3/3 365/3/3 367/3/3
f 370/3/3 367/3/3 366/3/3
f 370/3/3 369/3/3 368/3/3
f 370/3/3 368/3/3 367/3/3
f 371/3/3 369/3/3 370/3/3
f 372/3/3 369/3/3 371/3/3
f 373/3/3 369/3/3 372/3/3
f 374/3/3 372/3/3 371/3/3
f 375/3/3 372/3/3 374/3/3
f 376/3/3 374/3/3 371/3/3
f 377/3/3 374/3/3 376/3/3
f 381/3/3 379/3/3 378/3/3
f 382/3/3 379/3/3 381/3/3
f 386/3/3 381/3/3 380/3/3
f 387/3/3 384/3/3 383/3/3
f 388/3/3 384/3/3 387/3/3
f 389/3/3 384/3/3 388/3/3
f 391/3/3 381/3/3 386/3/3
f 392/3/3 381/3/3 391/3/3
f 393/3/3 390/3/3 389/3/3
f 393/3/3 389/3/3 388/3/3
f 394/3/3 390/3/3 393/3/3
f 395/2/3 386/2/3 385/2/3
f 396/3/3 391/3/3 386/3/3
f 396/2/3 386/2/3 395/2/3
f 397/3/3 396/3/3 395/3/3
f 398/3/3 391/3/3 396/3/3
f 398/3/3 396/3/3 397/3/3
f 399/3/3 391/3/3 398/3/3
f 402/3/3 390/3/3 394/3/3
f 403/2/3 398/2/3 397/2/3
f 404/3/3 400/3/3 399/3/3
f 404/2/3 398/2/3 403/2/3
f 404/3/3 399/3/3 398/3/3
f 406/3/3 402/3/3 401/3/3
f 407/3/3 390/3/3 402/3/3
f 407/3/3 402/3/3 406/3/3
f 408/3/3 390/3/3 407/3/3
f 409/3/3 400/3/3 404/3/3
f 410/3/3 400/3/3 409/3/3
f 411/3/3 406/3/3 405/3/3
f 411/3/3 407/3/3 406/3/3
f 412/3/3 407/3/3 411/3/3
f 413/3/3 411/3/3 410/3/3
f 414/3/3 411/3/3 413/3/3
f 417/3/3 416/3/3 415/3/3
f 418/3/3 416/3/3 417/3/3
f 421/3/3 420/3/3 419/3/3
f 422/3/3 420/3/3 421/3/3
f 427/3/3 424/3/3 423/3/3
f 428/3/3 424/3/3 427/3/3
f 429/3/3 426/3/3 425/3/3
f 430/3/3 426/3/3 429/3/3
f 437/2/3 432/2/3 431/2/3
f 438/2/3 432/2/3 437/2/3
f 439/6/3 434/6/3 433/6/3
f 440/2/3 435/2/3 434/2/3
f 440/6/3 434/6/3 439/6/3
f 441/6/3 436/6/3 435/6/3
f 443/5/3 440/5/3 439/5/3
f 444/2/3 435/2/3 440/2/3
f 444/5/3 440/5/3 443/5/3
f 445/6/3 442/6/3 441/6/3
f 445/6/3 441/6/3 435/6/3
f 446/6/3 442/6/3 445/6/3
f 447/6/3 444/6/3 443/6/3
f 448/2/3 435/2/3 444/2/3
f 448/6/3 444/6/3 447/6/3
f 450/2/3 435/2/3 448/2/3
f 451/5/3 450/5/3 449/5/3
f 452/2/3 435/2/3 450/2/3
f 452/5/3 450/5/3 451/5/3
f 453/6/3 445/6/3 435/6/3
f 453/2/3 446/2/3 445/2/3
f 454/2/3 446/2/3 453/2/3
f 455/6/3 452/6/3 451/6/3
f 456/2/3 435/2/3 452/2/3
f 456/6/3 452/6/3 455/6/3
f 457/6/3 453/6/3 435/6/3
f 457/6/3 454/6/3 453/6/3
f 458/6/3 454/6/3 457/6/3
f 459/5/3 456/5/3 455/5/3
f 460/2/3 435/2/3 456/2/3
f 460/5/3 456/5/3 459/5/3
f 461/6/3 457/6/3 435/6/3
f 461/2/3 435/2/3 460/2/3
f 462/6/3 457/6/3 461/6/3
f 465/2/3 464/2/3 463/2/3
f 466/2/3 464/2/3 465/2/3
f 469/3/3 468/3/3 467/3/3
f 470/3/3 468/3/3 469/3/3
f 475/6/3 472/6/3 471/6/3
f 476/6/3 472/6/3 475/6/3
f 477/6/3 474/6/3 473/6/3
f 478/6/3 474/6/3 477/6/3
f 479/5/3 476/5/3 475/5/3
f 479/6/3 475/6/3 471/6/3
f 480/5/3 476/5/3 479/5/3
f 481/6/3 479/6/3 471/6/3
f 481/6/3 480/6/3 479/6/3
f 482/6/3 480/6/3 481/6/3
f 484/5/3 483/5/3 482/5/3
f 485/5/3 483/5/3 484/5/3
f 488/6/3 485/6/3 484/6/3
f 489/6/3 485/6/3 488/6/3
f 490/6/3 487/6/3 486/6/3
f 490/5/3 488/5/3 487/5/3
f 491/5/3 488/5/3 490/5/3
f 492/6/3 490/6/3 486/6/3
f 492/6/3 491/6/3 490/6/3
f 493/6/3 491/6/3 492/6/3
f 496/6/3 492/6/3 486/6/3
f 497/5/3 493/5/3 492/5/3
f 497/6/3 492/6/3 496/6/3
f 498/5/3 493/5/3 497/5/3
f 499/6/3 495/6/3 494/6/3
f 500/6/3 495/6/3 499/6/3
f 503/3/3 502/3/3 501/3/3
f 504/3/3 502/3/3 503/3/3
f 510/2/3 506/2/3 505/2/3
f 511/4/3 507/4/3 506/4/3
f 511/2/3 506/2/3 510/2/3
f 512/2/3 508/2/3 507/2/3
f 512/4/3 507/4/3 511/4/3
f 513/3/3 509/3/3 508/3/3
f 513/2/3 508/2/3 512/2/3
f 514/3/3 509/3/3 513/3/3
f 515/2/3 510/2/3 505/2/3
f 516/2/3 510/2/3 515/2/3
f 517/4/3 511/4/3 510/4/3
f 517/2/3 510/2/3 516/2/3
f 518/2/3 512/2/3 511/2/3
f 518/4/3 511/4/3 517/4/3
f 518/2/3 513/2/3 512/2/3
f 519/2/3 513/2/3 518/2/3
f 524/2/3 521/2/3 520/2/3
f 524/2/3 523/2/3 522/2/3
f 524/2/3 522/2/3 521/2/3
f 526/2/3 524/2/3 520/2/3
f 527/2/3 524/2/3 526/2/3
f 528/3/3 525/3/3 524/3/3
f 528/2/3 524/2/3 527/2/3
f 529/3/3 525/3/3 528/3/3
f 530/3/3 528/3/3 527/3/3
f 531/3/3 528/3/3 530/3/3
f 534/1/3 533/1/3 532/1/3
f 535/1/3 533/1/3 534/1/3
f 536/1/3 533/1/3 535/1/3
f 539/3/3 538/3/3 537/3/3
f 540/3/3 538/3/3 539/3/3
f 544/1/3 542/1/3 541/1/3
f 544/1/3 543/1/3 542/1/3
f 545/1/3 543/1/3 544/1/3
f 546/1/3 543/1/3 545/1/3
f 550/3/3 548/3/3 547/3/3
f 551/3/3 548/3/3 550/3/3
f 552/3/3 550/3/3 549/3/3
f 553/3/3 550/3/3 552/3/3
f 557/3/3 555/3/3 554/3/3
f 558/3/3 555/3/3 557/3/3
f 559/3/3 557/3/3 556/3/3
f 560/3/3 557/3/3 559/3/3
f 563/3/3 562/3/3 561/3/3
f 564/3/3 562/3/3 563/3/3
f 565/3/4 566/3/4 567/3/4
f 567/3/4 566/3/4 568/3/4
f 569/3/4 570/3/4 571/3/4
f 571/3/4 570/3/4 572/3/4
f 573/3/4 574/3/4 575/3/4
f 575/3/4 574/3/4 576/3/4
f 577/3/4 578/3/4 579/3/4
f 579/3/4 578/3/4 580/3/4
f 581/3/4 582/3/4 583/3/4
f 583/3/4 582/3/4 584/3/4
f 585/3/4 586/3/4 589/3/4
f 589/3/4 586/3/4 590/3/4
f 587/3/4 588/3/4 591/3/4
f 591/3/4 588/3/4 592/3/4
f 596/4/4 597/4/4 601/4/4
f 597/2/4 598/2/4 602/2/4
f 601/4/4 597/4/4 602/4/4
f 602/2/4 598/2/4 603/2/4
f 599/3/4 600/3/4 604/3/4
f 604/3/4 600/3/4 605/3/4
f 593/1/4 594/1/4 606/1/4
f 606/1/4 594/1/4 607/1/4
f 607/1/4 594/1/4 608/1/4
f 595/2/4 596/2/4 610/2/4
f 610/2/4 596/2/4 611/2/4
f 611/2/4 596/2/4 612/2/4
f 596/4/4 601/4/4 613/4/4
f 612/2/4 596/2/4 613/2/4
f 601/2/4 602/2/4 614/2/4
f 613/4/4 601/4/4 614/4/4
f 602/4/4 603/4/4 615/4/4
f 614/2/4 602/2/4 615/2/4
f 615/4/4 603/4/4 616/4/4
f 610/6/4 611/6/4 617/6/4
f 609/6/4 610/6/4 617/6/4
f 617/6/4 611/6/4 618/6/4
f 615/6/4 616/6/4 619/6/4
f 619/6/4 616/6/4 620/6/4
f 617/5/4 618/5/4 621/5/4
f 621/5/4 618/5/4 622/5/4
f 621/6/4 622/6/4 623/6/4
f 623/6/4 622/6/4 624/6/4
f 625/5/4 626/5/4 627/5/4
f 627/5/4 626/5/4 628/5/4
f 627/6/4 628/6/4 629/6/4
f 629/6/4 628/6/4 630/6/4
f 629/5/4 630/5/4 633/5/4
f 633/5/4 630/5/4 634/5/4
f 634/5/4 630/5/4 635/5/4
f 631/6/4 632/6/4 638/6/4
f 638/6/4 632/6/4 639/6/4
f 636/2/4 637/2/4 640/2/4
f 638/2/4 639/2/4 640/2/4
f 637/2/4 638/2/4 640/2/4
f 634/2/4 635/2/4 640/2/4
f 635/2/4 636/2/4 640/2/4
f 634/2/4 640/2/4 644/2/4
f 640/3/4 641/3/4 645/3/4
f 644/2/4 640/2/4 645/2/4
f 645/3/4 641/3/4 646/3/4
f 642/1/4 643/1/4 647/1/4
f 647/1/4 643/1/4 648/1/4
f 649/3/4 650/3/4 651/3/4
f 651/3/4 650/3/4 652/3/4
f 655/6/4 656/6/4 659/6/4
f 656/2/4 657/2/4 660/2/4
f 659/6/4 656/6/4 660/6/4
f 657/6/4 658/6/4 661/6/4
f 659/5/4 660/5/4 663/5/4
f 660/2/4 657/2/4 664/2/4
f 663/5/4 660/5/4 664/5/4
f 661/6/4 662/6/4 665/6/4
f 657/6/4 661/6/4 665/6/4
f 665/6/4 662/6/4 666/6/4
f 653/6/4 654/6/4 667/6/4
f 667/6/4 654/6/4 668/6/4
f 663/6/4 664/6/4 669/6/4
f 664/2/4 657/2/4 670/2/4
f 669/6/4 664/6/4 670/6/4
f 657/6/4 665/6/4 671/6/4
f 665/2/4 666/2/4 672/2/4
f 671/6/4 665/6/4 672/6/4
f 669/5/4 670/5/4 673/5/4
f 670/2/4 657/2/4 674/2/4
f 673/5/4 670/5/4 674/5/4
f 657/6/4 671/6/4 675/6/4
f 674/2/4 657/2/4 675/2/4
f 671/4/4 672/4/4 676/4/4
f 675/6/4 671/6/4 676/6/4
f 672/2/4 666/2/4 677/2/4
f 676/4/4 672/4/4 677/4/4
f 673/6/4 674/6/4 680/6/4
f 674/2/4 675/2/4 681/2/4
f 680/6/4 674/6/4 681/6/4
f 675/4/4 676/4/4 682/4/4
f 681/2/4 675/2/4 682/2/4
f 676/6/4 677/6/4 683/6/4
f 682/4/4 676/4/4 683/4/4
f 680/5/4 681/5/4 684/5/4
f 681/2/4 682/2/4 685/2/4
f 684/5/4 681/5/4 685/5/4
f 683/6/4 677/6/4 686/6/4
f 677/2/4 666/2/4 686/2/4
f 682/6/4 683/6/4 686/6/4
f 686/2/4 666/2/4 687/2/4
f 684/6/4 685/6/4 688/6/4
f 685/2/4 682/2/4 689/2/4
f 688/6/4 685/6/4 689/6/4
f 682/6/4 686/6/4 690/6/4
f 686/6/4 687/6/4 690/6/4
f 690/6/4 687/6/4 691/6/4
f 678/6/4 679/6/4 692/6/4
f 692/6/4 679/6/4 693/6/4
f 688/5/4 689/5/4 694/5/4
f 689/2/4 682/2/4 695/2/4
f 694/5/4 689/5/4 695/5/4
f 682/6/4 690/6/4 696/6/4
f 695/2/4 682/2/4 696/2/4
f 696/6/4 690/6/4 697/6/4
f 700/3/4 701/3/4 702/3/4
f 702/3/4 701/3/4 703/3/4
f 698/2/4 699/2/4 704/2/4
f 704/2/4 699/2/4 705/2/4
f 706/2/4 707/2/4 710/2/4
f 710/2/4 707/2/4 711/2/4
f 708/3/4 709/3/4 712/3/4
f 712/3/4 709/3/4 713/3/4
f 715/2/4 716/2/4 718/2/4
f 718/2/4 716/2/4 719/2/4
f 716/3/4 717/3/4 720/3/4
f 719/2/4 716/2/4 720/2/4
f 720/3/4 717/3/4 721/3/4
f 714/1/4 715/1/4 724/1/4
f 715/2/4 718/2/4 725/2/4
f 724/1/4 715/1/4 725/1/4
f 718/7/4 719/7/4 726/7/4
f 725/2/4 718/2/4 726/2/4
f 721/3/4 722/3/4 727/3/4
f 719/3/4 720/3/4 727/3/4
f 720/3/4 721/3/4 727/3/4
f 727/3/4 722/3/4 728/3/4
f 724/2/4 725/2/4 729/2/4
f 723/2/4 724/2/4 729/2/4
f 725/7/4 726/7/4 729/7/4
f 726/7/4 719/7/4 730/7/4
f 729/7/4 726/7/4 730/7/4
f 719/3/4 727/3/4 730/3/4
f 723/2/4 729/2/4 731/2/4
f 729/2/4 730/2/4 731/2/4
f 731/2/4 730/2/4 732/2/4
f 730/3/4 727/3/4 733/3/4
f 732/2/4 730/2/4 733/2/4
f 727/2/4 728/2/4 734/2/4
f 733/3/4 727/3/4 734/3/4
f 728/3/4 722/3/4 735/3/4
f 734/2/4 728/2/4 735/2/4
f 735/3/4 722/3/4 736/3/4
f 736/3/4 737/3/4 738/3/4
f 738/3/4 737/3/4 739/3/4
f 723/2/4 731/2/4 741/2/4
f 734/2/4 735/2/4 742/2/4
f 733/2/4 734/2/4 742/2/4
f 732/2/4 733/2/4 742/2/4
f 742/2/4 735/2/4 743/2/4
f 743/2/4 735/2/4 744/2/4
f 744/2/4 735/2/4 745/2/4
f 741/2/4 742/2/4 747/2/4
f 742/2/4 743/2/4 747/2/4
f 743/3/4 744/3/4 748/3/4
f 747/2/4 743/2/4 748/2/4
f 744/2/4 745/2/4 749/2/4
f 748/3/4 744/3/4 749/3/4
f 745/3/4 746/3/4 750/3/4
f 749/2/4 745/2/4 750/2/4
f 750/3/4 746/3/4 751/3/4
f 723/2/4 741/2/4 752/2/4
f 741/2/4 747/2/4 752/2/4
f 752/2/4 747/2/4 753/2/4
f 747/7/4 748/7/4 754/7/4
f 753/2/4 747/2/4 754/2/4
f 754/7/4 748/7/4 755/7/4
f 748/3/4 749/3/4 756/3/4
f 755/7/4 748/7/4 756/7/4
f 756/3/4 749/3/4 757/3/4
f 739/3/4 740/3/4 759/3/4
f 758/3/4 759/3/4 762/3/4
f 759/3/4 740/3/4 763/3/4
f 762/3/4 759/3/4 763/3/4
f 753/1/4 754/1/4 764/1/4
f 754/2/4 755/2/4 765/2/4
f 764/1/4 754/1/4 765/1/4
f 765/2/4 755/2/4 766/2/4
f 760/2/4 761/2/4 767/2/4
f 761/3/4 762/3/4 768/3/4
f 767/2/4 761/2/4 768/2/4
f 768/3/4 762/3/4 769/3/4
f 772/3/4 773/3/4 774/3/4
f 770/1/4 771/1/4 776/1/4
f 776/1/4 771/1/4 777/1/4
f 774/3/4 775/3/4 778/3/4
f 772/3/4 774/3/4 778/3/4
f 778/3/4 775/3/4 779/3/4
f 779/3/4 775/3/4 781/3/4
f 780/3/4 781/3/4 783/3/4
f 783/3/4 781/3/4 784/3/4
f 781/3/4 775/3/4 785/3/4
f 784/3/4 781/3/4 785/3/4
f 783/3/4 784/3/4 786/3/4
f 782/3/4 783/3/4 786/3/4
f 786/3/4 784/3/4 787/3/4
f 782/3/4 786/3/4 788/3/4
f 788/3/4 786/3/4 789/3/4
f 794/6/5 791/6/5 790/6/5
f 795/6/5 791/6/5 794/6/5
f 796/6/5 793/6/5 792/6/5
f 797/6/5 793/6/5 796/6/5
f 802/2/5 801/2/5 800/2/5
f 803/2/5 799/2/5 798/2/5
f 804/2/5 799/2/5 803/2/5
f 805/2/5 801/2/5 802/2/5
f 806/2/5 801/2/5 805/2/5
f 815/6/5 808/6/5 807/6/5
f 816/5/5 809/5/5 808/5/5
f 816/6/5 808/6/5 815/6/5
f 817/6/5 810/6/5 809/6/5
f 817/5/5 809/5/5 816/5/5
f 818/6/5 810/6/5 817/6/5
f 820/5/5 812/5/5 811/5/5
f 821/6/5 813/6/5 812/6/5
f 821/5/5 812/5/5 820/5/5
f 822/5/5 814/5/5 813/5/5
f 822/6/5 813/6/5 821/6/5
f 823/5/5 814/5/5 822/5/5
f 824/6/5 820/6/5 819/6/5
f 825/6/5 824/6/5 819/6/5
f 829/5/5 819/5/5 818/5/5
f 830/6/5 825/6/5 819/6/5
f 834/6/5 827/6/5 826/6/5
f 835/5/5 828/5/5 827/5/5
f 835/6/5 827/6/5 834/6/5
f 836/6/5 829/6/5 828/6/5
f 836/5/5 828/5/5 835/5/5
f 837/5/5 819/5/5 829/5/5
f 837/6/5 829/6/5 836/6/5
f 838/6/5 830/6/5 819/6/5
f 838/5/5 819/5/5 837/5/5
f 839/5/5 831/5/5 830/5/5
f 839/6/5 830/6/5 838/6/5
f 840/6/5 832/6/5 831/6/5
f 840/5/5 831/5/5 839/5/5
f 841/5/5 833/5/5 832/5/5
f 841/6/5 832/6/5 840/6/5
f 842/5/5 833/5/5 841/5/5
f 845/2/5 844/2/5 843/2/5
f 846/2/5 844/2/5 845/2/5
f 847/2/5 844/2/5 846/2/5
f 850/3/5 849/3/5 848/3/5
f 851/3/5 849/3/5 850/3/5
f 856/2/5 853/2/5 852/2/5
f 856/3/5 854/3/5 853/3/5
f 857/2/5 855/2/5 854/2/5
f 857/3/5 854/3/5 856/3/5
f 859/2/5 856/2/5 852/2/5
f 859/2/5 857/2/5 856/2/5
f 860/2/5 857/2/5 859/2/5
f 861/2/5 857/2/5 860/2/5
f 862/2/5 855/2/5 857/2/5
f 862/2/5 857/2/5 861/2/5
f 863/2/5 855/2/5 862/2/5
f 864/2/5 855/2/5 863/2/5
f 866/2/5 859/2/5 858/2/5
f 866/2/5 860/2/5 859/2/5
f 867/2/5 860/2/5 866/2/5
f 868/2/5 865/2/5 864/2/5
f 868/2/5 864/2/5 863/2/5
f 869/2/5 865/2/5 868/2/5
f 870/2/5 866/2/5 858/2/5
f 871/2/5 866/2/5 870/2/5
f 872/2/5 865/2/5 869/2/5
f 873/2/5 865/2/5 872/2/5
f 881/3/5 875/3/5 874/3/5
f 882/2/5 876/2/5 875/2/5
f 882/3/5 875/3/5 881/3/5
f 882/2/5 877/2/5 876/2/5
f 883/2/5 877/2/5 882/2/5
f 886/2/5 880/2/5 879/2/5
f 886/2/5 879/2/5 878/2/5
f 887/2/5 885/2/5 884/2/5
f 887/2/5 886/2/5 885/2/5
f 887/2/5 884/2/5 883/2/5
f 887/2/5 883/2/5 882/2/5
f 888/2/5 886/2/5 887/2/5
f 889/2/5 880/2/5 886/2/5
f 889/2/5 886/2/5 888/2/5
f 890/2/5 880/2/5 889/2/5
f 891/2/5 889/2/5 888/2/5
f 892/2/5 889/2/5 891/2/5
f 897/3/5 894/3/5 893/3/5
f 898/3/5 894/3/5 897/3/5
f 899/3/5 896/3/5 895/3/5
f 900/3/5 896/3/5 899/3/5
f 901/2/5 898/2/5 897/2/5
f 902/2/5 898/2/5 901/2/5
f 903/2/5 900/2/5 899/2/5
f 904/2/5 900/2/5 903/2/5
f 909/3/5 906/3/5 905/3/5
f 910/3/5 906/3/5 909/3/5
f 911/3/5 908/3/5 907/3/5
f 912/3/5 908/3/5 911/3/5
f 917/1/5 914/1/5 913/1/5
f 918/1/5 914/1/5 917/1/5
f 919/1/5 916/1/5 915/1/5
f 920/1/5 916/1/5 919/1/5
f 923/3/5 922/3/5 921/3/5
f 924/3/5 922/3/5 923/3/5
f 929/3/5 926/3/5 925/3/5
f 930/3/5 926/3/5 929/3/5
f 931/3/5 928/3/5 927/3/5
f 932/3/5 928/3/5 931/3/5
f 935/1/5 934/1/5 933/1/5
f 936/1/5 934/1/5 935/1/5
f 942/3/5 938/3/5 937/3/5
f 943/3/5 938/3/5 942/3/5
f 944/3/5 940/3/5 939/3/5
f 945/3/5 940/3/5 944/3/5
f 947/3/5 942/3/5 941/3/5
f 948/3/5 942/3/5 947/3/5
f 949/3/5 946/3/5 945/3/5
f 950/3/5 946/3/5 949/3/5
f 957/1/5 952/1/5 951/1/5
f 957/1/5 953/1/5 952/1/5
f 958/1/5 953/1/5 957/1/5
f 959/1/5 955/1/5 954/1/5
f 959/1/5 956/1/5 955/1/5
f 960/1/5 956/1/5 959/1/5
f 963/3/5 962/3/5 961/3/5
f 964/3/5 962/3/5 963/3/5
f 967/3/5 966/3/5 965/3/5
f 968/3/5 966/3/5 967/3/5
f 971/3/5 970/3/5 969/3/5
f 972/3/5 970/3/5 971/3/5
f 975/3/5 974/3/5 973/3/5
f 976/3/5 974/3/5 975/3/5
f 977/6/6 978/6/6 985/6/6
f 978/6/6 979/6/6 985/6/6
f 979/6/6 980/6/6 985/6/6
f 985/6/6 980/6/6 986/6/6
f 983/6/6 984/6/6 987/6/6
f 982/6/6 983/6/6 987/6/6
f 981/6/6 982/6/6 987/6/6
f 987/6/6 984/6/6 988/6/6
f 989/6/6 990/6/6 993/6/6
f 993/6/6 990/6/6 994/6/6
f 991/6/6 992/6/6 995/6/6
f 995/6/6 992/6/6 996/6/6
f 997/6/6 998/6/6 1001/6/6
f 1001/6/6 998/6/6 1002/6/6
f 999/6/6 1000/6/6 1003/6/6
f 1003/6/6 1000/6/6 1004/6/6
f 1005/3/6 1006/3/6 1007/3/6
f 1007/3/6 1006/3/6 1008/3/6
f 1009/3/6 1010/3/6 1011/3/6
f 1011/3/6 1010/3/6 1012/3/6
f 1013/3/6 1014/3/6 1017/3/6
f 1017/3/6 1014/3/6 1018/3/6
f 1015/3/6 1016/3/6 1019/3/6
f 1019/3/6 1016/3/6 1020/3/6
f 1021/3/6 1022/3/6 1025/3/6
f 1025/3/6 1022/3/6 1026/3/6
f 1023/3/6 1024/3/6 1027/3/6
f 1027/3/6 1024/3/6 1028/3/6
f 1029/3/6 1030/3/6 1033/3/6
f 1033/3/6 1030/3/6 1034/3/6
f 1031/3/6 1032/3/6 1035/3/6
f 1035/3/6 1032/3/6 1036/3/6
f 1037/3/6 1038/3/6 1041/3/6
f 1041/3/6 1038/3/6 1042/3/6
f 1039/3/6 1040/3/6 1044/3/6
f 1044/3/6 1040/3/6 1045/3/6
f 1042/3/6 1043/3/6 1046/3/6
f 1046/3/6 1043/3/6 1047/3/6
f 1048/1/6 1049/1/6 1050/1/6
f 1050/1/6 1049/1/6 1051/1/6
f 1052/3/6 1053/3/6 1054/3/6
f 1054/3/6 1053/3/6 1055/3/6
f 1056/1/6 1057/1/6 1060/1/6
f 1060/1/6 1057/1/6 1061/1/6
f 1058/1/6 1059/1/6 1062/1/6
f 1062/1/6 1059/1/6 1063/1/6
f 1064/3/6 1065/3/6 1066/3/6
f 1066/3/6 1065/3/6 1067/3/6
f 1068/3/6 1069/3/6 1072/3/6
f 1072/3/6 1069/3/6 1073/3/6
f 1070/3/6 1071/3/6 1074/3/6
f 1074/3/6 1071/3/6 1075/3/6
f 1076/3/6 1077/3/6 1080/3/6
f 1080/3/6 1077/3/6 1081/3/6
f 1078/3/6 1079/3/6 1084/3/6
f 1084/3/6 1079/3/6 1085/3/6
f 1082/3/6 1083/3/6 1086/3/6
f 1086/3/6 1083/3/6 1087/3/6
f 1088/3/6 1089/3/6 1092/3/6
f 1092/3/6 1089/3/6 1093/3/6
f 1090/3/6 1091/3/6 1095/3/6
f 1095/3/6 1091/3/6 1096/3/6
f 1094/3/6 1095/3/6 1097/3/6
f 1097/3/6 1095/3/6 1098/3/6
f 1099/3/6 1100/3/6 1102/3/6
f 1102/3/6 1100/3/6 1103/3/6
f 1101/3/6 1102/3/6 1105/3/6
f 1103/3/6 1104/3/6 1105/3/6
f 1102/3/6 1103/3/6 1105/3/6
f 1105/3/6 1104/3/6 1106/3/6
f 1106/3/6 1104/3/6 1107/3/6
f 1107/3/6 1104/3/6 1108/3/6
f 1108/3/6 1104/3/6 1109/3/6
f 1109/3/6 1104/3/6 1110/3/6
f 1101/3/6 1105/3/6 1111/3/6
f 1111/3/6 1105/3/6 1112/3/6
f 1110/3/6 1104/3/6 1113/3/6
f 1113/3/6 1104/3/6 1114/3/6
f 1112/3/6 1105/3/6 1115/3/6
f 1115/3/6 1105/3/6 1116/3/6
f 1116/3/6 1117/3/6 1118/3/6
f 1118/3/6 1117/3/6 1119/3/6
f 1120/3/6 1121/3/6 1122/3/6
f 1122/3/6 1121/3/6 1123/3/6
f 1123/3/6 1124/3/6 1125/3/6
f 1125/3/6 1124/3/6 1126/3/6
f 1126/3/6 1127/3/6 1128/3/6
f 1128/3/6 1127/3/6 1129/3/6
f 1120/3/6 1122/3/6 1130/3/6
f 1130/3/6 1122/3/6 1131/3/6
f 1131/3/6 1132/3/6 1133/3/6
f 1133/3/6 1132/3/6 1134/3/6
f 1135/3/6 1136/3/6 1137/3/6
f 1137/3/6 1138/3/6 1139/3/6
f 1135/3/6 1137/3/6 1141/3/6
f 1139/3/6 1140/3/6 1141/3/6
f 1137/3/6 1139/3/6 1141/3/6
f 1141/3/6 1140/3/6 1142/3/6
