# MagicaVoxel @ Ephtracy

# group
o 

# material
mtllib GreenPlayer1.mtl
usemtl palette

# normals
vn -1 0 0
vn 1 0 0
vn 0 0 1
vn 0 0 -1
vn 0 -1 0
vn 0 1 0

# texcoords
vt 0.0839844 0.5
vt 0.236328 0.5
vt 0.525391 0.5
vt 0.556641 0.5
vt 0.560547 0.5
vt 0.583984 0.5
vt 0.591797 0.5
vt 0.994141 0.5

# verts
v -0.7 2.2 0
v -0.7 2.2 -0.1
v -0.7 2.5 0
v -0.7 2.5 -0.1
v -0.6 1.3 0.1
v -0.6 1.3 -0.1
v -0.6 1.7 0.1
v -0.6 1.7 -0.1
v -0.6 1.8 0
v -0.6 1.8 -0.1
v -0.6 1.9 0.1
v -0.6 1.9 0
v -0.6 1.9 -0.1
v -0.5 1.9 0.3
v -0.5 1.9 0.1
v -0.5 1.9 0
v -0.5 1.9 -0.1
v -0.5 1.9 -0.3
v -0.5 2 0.5
v -0.5 2 0.3
v -0.5 2 -0.3
v -0.5 2 -0.4
v -0.5 2.2 0
v -0.5 2.2 -0.1
v -0.5 2.2 -0.3
v -0.5 2.2 -0.4
v -0.5 2.3 0.5
v -0.5 2.3 0.2
v -0.5 2.4 0.2
v -0.5 2.4 0.1
v -0.5 2.5 0.1
v -0.5 2.5 0
v -0.5 2.5 -0.1
v -0.5 2.5 -0.2
v -0.5 2.6 -0.2
v -0.5 2.6 -0.3
v -0.5 2.7 0.5
v -0.5 2.7 0.3
v -0.5 2.7 -0.3
v -0.5 2.7 -0.4
v -0.5 2.8 0.3
v -0.5 2.8 -0.3
v -0.4 1 0.2
v -0.4 1 -0.2
v -0.4 1.2 0.2
v -0.4 1.2 -0.1
v -0.4 1.2 -0.2
v -0.4 1.3 0.1
v -0.4 1.3 -0.1
v -0.4 1.4 0.3
v -0.4 1.4 0.2
v -0.4 1.4 -0.1
v -0.4 1.4 -0.2
v -0.4 1.5 -0.1
v -0.4 1.5 -0.2
v -0.4 1.6 0.3
v -0.4 1.6 0.1
v -0.4 1.6 -0.1
v -0.4 1.6 -0.2
v -0.4 1.7 0.3
v -0.4 1.7 0.2
v -0.4 1.7 0.1
v -0.4 1.7 -0.1
v -0.4 1.7 -0.2
v -0.4 1.8 0.3
v -0.4 1.8 0.2
v -0.4 1.8 -0.1
v -0.4 1.8 -0.2
v -0.4 1.9 0.5
v -0.4 1.9 0.3
v -0.4 1.9 0.2
v -0.4 1.9 0.1
v -0.4 1.9 -0.3
v -0.4 1.9 -0.4
v -0.4 2 0.5
v -0.4 2 0.3
v -0.4 2 -0.3
v -0.4 2 -0.4
v -0.4 2.5 -0.4
v -0.4 2.5 -0.5
v -0.4 2.6 -0.4
v -0.4 2.6 -0.5
v -0.4 2.7 0.5
v -0.4 2.7 0.3
v -0.4 2.7 -0.3
v -0.4 2.7 -0.4
v -0.4 2.8 0.5
v -0.4 2.8 0.3
v -0.4 2.8 -0.3
v -0.4 2.8 -0.4
v -0.3 1.8 0.3
v -0.3 1.8 0.2
v -0.3 1.8 -0.1
v -0.3 1.8 -0.2
v -0.3 1.9 0.3
v -0.3 1.9 0.2
v -0.3 1.9 -0.1
v -0.3 1.9 -0.2
v -0.1 2.1 -0.4
v -0.1 2.1 -0.5
v -0.1 2.4 -0.4
v -0.1 2.4 -0.5
v -0.1 2.7 -0.4
v -0.1 2.7 -0.5
v -0.1 2.8 -0.4
v -0.1 2.8 -0.5
v 0.1 1 0.2
v 0.1 1 -0.2
v 0.1 1.2 0.2
v 0.1 1.2 -0.1
v 0.1 1.2 -0.2
v 0.1 1.4 0.3
v 0.1 1.4 0.2
v 0.1 1.4 -0.1
v 0.1 1.5 0.3
v 0.1 1.5 0.2
v 0.1 2.5 -0.4
v 0.1 2.5 -0.5
v 0.1 2.6 -0.4
v 0.1 2.6 -0.5
v -0.1 1 0.2
v -0.1 1 -0.2
v -0.1 1.2 0.2
v -0.1 1.2 -0.1
v -0.1 1.2 -0.2
v -0.1 1.4 0.3
v -0.1 1.4 0.2
v -0.1 1.4 -0.1
v -0.1 1.5 0.3
v -0.1 1.5 0.2
v -0.1 2.5 -0.4
v -0.1 2.5 -0.5
v -0.1 2.6 -0.4
v -0.1 2.6 -0.5
v 0.1 2.1 -0.4
v 0.1 2.1 -0.5
v 0.1 2.4 -0.4
v 0.1 2.4 -0.5
v 0.1 2.7 -0.4
v 0.1 2.7 -0.5
v 0.1 2.8 -0.4
v 0.1 2.8 -0.5
v 0.3 1.8 0.3
v 0.3 1.8 0.2
v 0.3 1.8 -0.1
v 0.3 1.8 -0.2
v 0.3 1.9 0.3
v 0.3 1.9 0.2
v 0.3 1.9 -0.1
v 0.3 1.9 -0.2
v 0.4 1 0.2
v 0.4 1 -0.2
v 0.4 1.2 0.2
v 0.4 1.2 -0.1
v 0.4 1.2 -0.2
v 0.4 1.3 0.1
v 0.4 1.3 -0.1
v 0.4 1.4 0.3
v 0.4 1.4 0.2
v 0.4 1.4 -0.1
v 0.4 1.4 -0.2
v 0.4 1.5 -0.1
v 0.4 1.5 -0.2
v 0.4 1.6 0.3
v 0.4 1.6 0.2
v 0.4 1.6 0.1
v 0.4 1.6 -0.1
v 0.4 1.6 -0.2
v 0.4 1.7 0.3
v 0.4 1.7 0.2
v 0.4 1.7 0.1
v 0.4 1.7 -0.1
v 0.4 1.7 -0.2
v 0.4 1.8 0.3
v 0.4 1.8 0.2
v 0.4 1.8 -0.1
v 0.4 1.8 -0.2
v 0.4 1.9 0.5
v 0.4 1.9 0.3
v 0.4 1.9 0.2
v 0.4 1.9 0.1
v 0.4 1.9 -0.3
v 0.4 1.9 -0.4
v 0.4 2 0.5
v 0.4 2 0.3
v 0.4 2 -0.3
v 0.4 2 -0.4
v 0.4 2.5 -0.4
v 0.4 2.5 -0.5
v 0.4 2.6 -0.4
v 0.4 2.6 -0.5
v 0.4 2.7 0.5
v 0.4 2.7 0.3
v 0.4 2.7 -0.3
v 0.4 2.7 -0.4
v 0.4 2.8 0.5
v 0.4 2.8 0.3
v 0.4 2.8 -0.3
v 0.4 2.8 -0.4
v 0.5 1.9 0.3
v 0.5 1.9 0.1
v 0.5 1.9 0
v 0.5 1.9 -0.1
v 0.5 1.9 -0.3
v 0.5 2 0.5
v 0.5 2 0.3
v 0.5 2 -0.3
v 0.5 2 -0.4
v 0.5 2.2 0
v 0.5 2.2 -0.1
v 0.5 2.2 -0.3
v 0.5 2.2 -0.4
v 0.5 2.3 0.5
v 0.5 2.3 0.2
v 0.5 2.4 0.2
v 0.5 2.4 0.1
v 0.5 2.5 0.1
v 0.5 2.5 0
v 0.5 2.5 -0.1
v 0.5 2.5 -0.2
v 0.5 2.7 0.5
v 0.5 2.7 0.3
v 0.5 2.7 -0.2
v 0.5 2.7 -0.3
v 0.5 2.7 -0.4
v 0.5 2.8 0.3
v 0.5 2.8 -0.3
v 0.6 1.3 0.1
v 0.6 1.3 -0.1
v 0.6 1.7 0.1
v 0.6 1.7 -0.1
v 0.6 1.8 0
v 0.6 1.8 -0.1
v 0.6 1.9 0.1
v 0.6 1.9 0
v 0.6 1.9 -0.1
v 0.7 2.2 0
v 0.7 2.2 -0.1
v 0.7 2.5 0
v 0.7 2.5 -0.1
v -0.5 2 0.5
v -0.5 2.3 0.5
v -0.5 2.7 0.5
v -0.4 1.9 0.5
v -0.4 2 0.5
v -0.4 2.7 0.5
v -0.4 2.8 0.5
v 0.4 1.9 0.5
v 0.4 2 0.5
v 0.4 2.7 0.5
v 0.4 2.8 0.5
v 0.5 2 0.5
v 0.5 2.3 0.5
v 0.5 2.7 0.5
v -0.5 1.9 0.3
v -0.5 2 0.3
v -0.5 2.7 0.3
v -0.5 2.8 0.3
v -0.4 1.4 0.3
v -0.4 1.6 0.3
v -0.4 1.7 0.3
v -0.4 1.8 0.3
v -0.4 1.9 0.3
v -0.4 2 0.3
v -0.4 2.7 0.3
v -0.4 2.8 0.3
v -0.3 1.7 0.3
v -0.3 1.8 0.3
v -0.3 1.9 0.3
v -0.1 1.4 0.3
v -0.1 1.5 0.3
v 0.1 1.4 0.3
v 0.1 1.5 0.3
v 0.3 1.6 0.3
v 0.3 1.7 0.3
v 0.3 1.8 0.3
v 0.3 1.9 0.3
v 0.4 1.4 0.3
v 0.4 1.6 0.3
v 0.4 1.7 0.3
v 0.4 1.8 0.3
v 0.4 1.9 0.3
v 0.4 2 0.3
v 0.4 2.7 0.3
v 0.4 2.8 0.3
v 0.5 1.9 0.3
v 0.5 2 0.3
v 0.5 2.7 0.3
v 0.5 2.8 0.3
v -0.4 1 0.2
v -0.4 1.2 0.2
v -0.4 1.4 0.2
v -0.4 1.8 0.2
v -0.4 1.9 0.2
v -0.3 1.8 0.2
v -0.3 1.9 0.2
v -0.1 1 0.2
v -0.1 1.2 0.2
v -0.1 1.4 0.2
v -0.1 1.5 0.2
v 0.1 1 0.2
v 0.1 1.2 0.2
v 0.1 1.4 0.2
v 0.1 1.5 0.2
v 0.3 1.8 0.2
v 0.3 1.9 0.2
v 0.4 1 0.2
v 0.4 1.2 0.2
v 0.4 1.4 0.2
v 0.4 1.8 0.2
v 0.4 1.9 0.2
v -0.6 1.3 0.1
v -0.6 1.7 0.1
v -0.6 1.9 0.1
v -0.5 1.9 0.1
v -0.4 1.3 0.1
v -0.4 1.6 0.1
v -0.4 1.7 0.1
v -0.4 1.9 0.1
v 0.4 1.3 0.1
v 0.4 1.6 0.1
v 0.4 1.7 0.1
v 0.4 1.9 0.1
v 0.5 1.9 0.1
v 0.6 1.3 0.1
v 0.6 1.7 0.1
v 0.6 1.9 0.1
v -0.7 2.2 0
v -0.7 2.5 0
v -0.5 2.2 0
v -0.5 2.5 0
v 0.5 2.2 0
v 0.5 2.5 0
v 0.7 2.2 0
v 0.7 2.5 0
v -0.7 2.2 -0.1
v -0.7 2.5 -0.1
v -0.6 1.3 -0.1
v -0.6 1.7 -0.1
v -0.6 1.8 -0.1
v -0.6 1.9 -0.1
v -0.5 1.8 -0.1
v -0.5 1.9 -0.1
v -0.5 2.2 -0.1
v -0.5 2.5 -0.1
v -0.4 1.2 -0.1
v -0.4 1.3 -0.1
v -0.4 1.4 -0.1
v -0.4 1.5 -0.1
v -0.4 1.6 -0.1
v -0.4 1.7 -0.1
v -0.4 1.8 -0.1
v -0.3 1.8 -0.1
v -0.3 1.9 -0.1
v -0.1 1.2 -0.1
v -0.1 1.4 -0.1
v 0.1 1.2 -0.1
v 0.1 1.4 -0.1
v 0.3 1.8 -0.1
v 0.3 1.9 -0.1
v 0.4 1.2 -0.1
v 0.4 1.3 -0.1
v 0.4 1.4 -0.1
v 0.4 1.5 -0.1
v 0.4 1.6 -0.1
v 0.4 1.7 -0.1
v 0.4 1.8 -0.1
v 0.5 1.8 -0.1
v 0.5 1.9 -0.1
v 0.5 2.2 -0.1
v 0.5 2.5 -0.1
v 0.6 1.3 -0.1
v 0.6 1.7 -0.1
v 0.6 1.8 -0.1
v 0.6 1.9 -0.1
v 0.7 2.2 -0.1
v 0.7 2.5 -0.1
v -0.4 1 -0.2
v -0.4 1.2 -0.2
v -0.4 1.4 -0.2
v -0.4 1.5 -0.2
v -0.4 1.6 -0.2
v -0.4 1.7 -0.2
v -0.4 1.8 -0.2
v -0.3 1.7 -0.2
v -0.3 1.8 -0.2
v -0.3 1.9 -0.2
v -0.2 1.6 -0.2
v -0.2 1.9 -0.2
v -0.1 1 -0.2
v -0.1 1.2 -0.2
v 0.1 1 -0.2
v 0.1 1.2 -0.2
v 0.2 1.6 -0.2
v 0.2 1.8 -0.2
v 0.2 1.9 -0.2
v 0.3 1.6 -0.2
v 0.3 1.7 -0.2
v 0.3 1.8 -0.2
v 0.3 1.9 -0.2
v 0.4 1 -0.2
v 0.4 1.2 -0.2
v 0.4 1.4 -0.2
v 0.4 1.5 -0.2
v 0.4 1.6 -0.2
v 0.4 1.7 -0.2
v 0.4 1.8 -0.2
v -0.5 1.9 -0.3
v -0.5 2 -0.3
v -0.5 2.7 -0.3
v -0.5 2.8 -0.3
v -0.4 1.9 -0.3
v -0.4 2 -0.3
v -0.4 2.7 -0.3
v -0.4 2.8 -0.3
v 0.4 1.9 -0.3
v 0.4 2 -0.3
v 0.4 2.7 -0.3
v 0.4 2.8 -0.3
v 0.5 1.9 -0.3
v 0.5 2 -0.3
v 0.5 2.7 -0.3
v 0.5 2.8 -0.3
v -0.5 2 -0.4
v -0.5 2.2 -0.4
v -0.5 2.7 -0.4
v -0.4 1.9 -0.4
v -0.4 2 -0.4
v -0.4 2.5 -0.4
v -0.4 2.6 -0.4
v -0.4 2.7 -0.4
v -0.4 2.8 -0.4
v -0.3 2 -0.4
v -0.3 2.2 -0.4
v -0.3 2.5 -0.4
v -0.2 2.2 -0.4
v -0.2 2.5 -0.4
v -0.1 2.1 -0.4
v -0.1 2.4 -0.4
v -0.1 2.5 -0.4
v -0.1 2.6 -0.4
v -0.1 2.7 -0.4
v -0.1 2.8 -0.4
v 0.1 2.1 -0.4
v 0.1 2.4 -0.4
v 0.1 2.5 -0.4
v 0.1 2.6 -0.4
v 0.1 2.7 -0.4
v 0.1 2.8 -0.4
v 0.2 2.2 -0.4
v 0.2 2.5 -0.4
v 0.3 2 -0.4
v 0.3 2.2 -0.4
v 0.3 2.5 -0.4
v 0.4 1.9 -0.4
v 0.4 2 -0.4
v 0.4 2.5 -0.4
v 0.4 2.6 -0.4
v 0.4 2.7 -0.4
v 0.4 2.8 -0.4
v 0.5 2 -0.4
v 0.5 2.2 -0.4
v 0.5 2.7 -0.4
v -0.4 2.5 -0.5
v -0.4 2.6 -0.5
v -0.1 2.1 -0.5
v -0.1 2.4 -0.5
v -0.1 2.5 -0.5
v -0.1 2.6 -0.5
v -0.1 2.7 -0.5
v -0.1 2.8 -0.5
v 0.1 2.1 -0.5
v 0.1 2.4 -0.5
v 0.1 2.5 -0.5
v 0.1 2.6 -0.5
v 0.1 2.7 -0.5
v 0.1 2.8 -0.5
v 0.4 2.5 -0.5
v 0.4 2.6 -0.5
v -0.4 1 0.2
v -0.1 1 0.2
v 0.1 1 0.2
v 0.4 1 0.2
v -0.4 1 -0.2
v -0.1 1 -0.2
v 0.1 1 -0.2
v 0.4 1 -0.2
v -0.6 1.3 0.1
v -0.4 1.3 0.1
v 0.4 1.3 0.1
v 0.6 1.3 0.1
v -0.6 1.3 -0.1
v -0.4 1.3 -0.1
v 0.4 1.3 -0.1
v 0.6 1.3 -0.1
v -0.4 1.4 0.3
v -0.1 1.4 0.3
v 0.1 1.4 0.3
v 0.4 1.4 0.3
v -0.4 1.4 0.2
v -0.1 1.4 0.2
v 0.1 1.4 0.2
v 0.4 1.4 0.2
v -0.4 1.4 -0.1
v -0.1 1.4 -0.1
v 0.1 1.4 -0.1
v 0.4 1.4 -0.1
v -0.4 1.4 -0.2
v 0.4 1.4 -0.2
v -0.1 1.5 0.3
v 0.1 1.5 0.3
v -0.1 1.5 0.2
v 0.1 1.5 0.2
v -0.4 1.9 0.5
v 0.4 1.9 0.5
v -0.5 1.9 0.3
v -0.4 1.9 0.3
v -0.3 1.9 0.3
v 0.3 1.9 0.3
v 0.4 1.9 0.3
v 0.5 1.9 0.3
v -0.4 1.9 0.2
v -0.3 1.9 0.2
v 0.3 1.9 0.2
v 0.4 1.9 0.2
v -0.5 1.9 0.1
v -0.4 1.9 0.1
v 0.4 1.9 0.1
v 0.5 1.9 0.1
v -0.5 1.9 -0.1
v -0.3 1.9 -0.1
v 0.3 1.9 -0.1
v 0.5 1.9 -0.1
v -0.3 1.9 -0.2
v -0.2 1.9 -0.2
v 0.2 1.9 -0.2
v 0.3 1.9 -0.2
v -0.5 1.9 -0.3
v -0.4 1.9 -0.3
v 0.4 1.9 -0.3
v 0.5 1.9 -0.3
v -0.4 1.9 -0.4
v 0.4 1.9 -0.4
v -0.5 2 0.5
v -0.4 2 0.5
v 0.4 2 0.5
v 0.5 2 0.5
v -0.5 2 0.3
v -0.4 2 0.3
v 0.4 2 0.3
v 0.5 2 0.3
v -0.5 2 -0.3
v -0.4 2 -0.3
v 0.4 2 -0.3
v 0.5 2 -0.3
v -0.5 2 -0.4
v -0.4 2 -0.4
v 0.4 2 -0.4
v 0.5 2 -0.4
v -0.1 2.1 -0.4
v 0.1 2.1 -0.4
v -0.1 2.1 -0.5
v 0.1 2.1 -0.5
v -0.7 2.2 0
v -0.5 2.2 0
v 0.5 2.2 0
v 0.7 2.2 0
v -0.7 2.2 -0.1
v -0.5 2.2 -0.1
v 0.5 2.2 -0.1
v 0.7 2.2 -0.1
v -0.4 2.5 -0.4
v -0.3 2.5 -0.4
v -0.2 2.5 -0.4
v -0.1 2.5 -0.4
v 0.1 2.5 -0.4
v 0.2 2.5 -0.4
v 0.3 2.5 -0.4
v 0.4 2.5 -0.4
v -0.4 2.5 -0.5
v -0.1 2.5 -0.5
v 0.1 2.5 -0.5
v 0.4 2.5 -0.5
v -0.1 2.7 -0.4
v 0.1 2.7 -0.4
v -0.1 2.7 -0.5
v 0.1 2.7 -0.5
v -0.4 1.2 -0.1
v -0.1 1.2 -0.1
v 0.1 1.2 -0.1
v 0.4 1.2 -0.1
v -0.4 1.2 -0.2
v -0.1 1.2 -0.2
v 0.1 1.2 -0.2
v 0.4 1.2 -0.2
v -0.4 1.8 0.3
v -0.3 1.8 0.3
v 0.3 1.8 0.3
v 0.4 1.8 0.3
v -0.4 1.8 0.2
v -0.3 1.8 0.2
v 0.3 1.8 0.2
v 0.4 1.8 0.2
v -0.4 1.8 -0.1
v -0.3 1.8 -0.1
v 0.3 1.8 -0.1
v 0.4 1.8 -0.1
v -0.4 1.8 -0.2
v -0.3 1.8 -0.2
v 0.3 1.8 -0.2
v 0.4 1.8 -0.2
v -0.6 1.9 0.1
v -0.5 1.9 0.1
v 0.5 1.9 0.1
v 0.6 1.9 0.1
v -0.6 1.9 0
v -0.5 1.9 0
v 0.5 1.9 0
v 0.6 1.9 0
v -0.6 1.9 -0.1
v -0.5 1.9 -0.1
v 0.5 1.9 -0.1
v 0.6 1.9 -0.1
v -0.1 2.4 -0.4
v 0.1 2.4 -0.4
v -0.1 2.4 -0.5
v 0.1 2.4 -0.5
v -0.7 2.5 0
v -0.5 2.5 0
v 0.5 2.5 0
v 0.7 2.5 0
v -0.7 2.5 -0.1
v -0.5 2.5 -0.1
v 0.5 2.5 -0.1
v 0.7 2.5 -0.1
v -0.4 2.6 -0.4
v -0.1 2.6 -0.4
v 0.1 2.6 -0.4
v 0.4 2.6 -0.4
v -0.4 2.6 -0.5
v -0.1 2.6 -0.5
v 0.1 2.6 -0.5
v 0.4 2.6 -0.5
v -0.5 2.7 0.5
v -0.4 2.7 0.5
v 0.4 2.7 0.5
v 0.5 2.7 0.5
v -0.5 2.7 0.3
v -0.4 2.7 0.3
v 0.4 2.7 0.3
v 0.5 2.7 0.3
v -0.5 2.7 -0.3
v -0.4 2.7 -0.3
v 0.4 2.7 -0.3
v 0.5 2.7 -0.3
v -0.5 2.7 -0.4
v -0.4 2.7 -0.4
v 0.4 2.7 -0.4
v 0.5 2.7 -0.4
v -0.4 2.8 0.5
v 0.4 2.8 0.5
v -0.5 2.8 0.3
v -0.4 2.8 0.3
v 0.4 2.8 0.3
v 0.5 2.8 0.3
v -0.5 2.8 -0.3
v -0.4 2.8 -0.3
v 0.4 2.8 -0.3
v 0.5 2.8 -0.3
v -0.4 2.8 -0.4
v -0.1 2.8 -0.4
v 0.1 2.8 -0.4
v 0.4 2.8 -0.4
v -0.1 2.8 -0.5
v 0.1 2.8 -0.5

# faces
f 3/1/1 2/1/1 1/1/1
f 4/1/1 2/1/1 3/1/1
f 7/2/1 6/2/1 5/2/1
f 8/2/1 6/2/1 7/2/1
f 9/4/1 8/4/1 7/4/1
f 10/4/1 8/4/1 9/4/1
f 11/4/1 9/4/1 7/4/1
f 12/5/1 10/5/1 9/5/1
f 12/4/1 9/4/1 11/4/1
f 13/5/1 10/5/1 12/5/1
f 20/2/1 15/2/1 14/2/1
f 20/2/1 18/2/1 17/2/1
f 20/2/1 17/2/1 16/2/1
f 20/2/1 16/2/1 15/2/1
f 21/2/1 18/2/1 20/2/1
f 23/2/1 20/2/1 19/2/1
f 23/2/1 21/2/1 20/2/1
f 24/2/1 21/2/1 23/2/1
f 25/1/1 22/1/1 21/1/1
f 25/2/1 21/2/1 24/2/1
f 26/1/1 22/1/1 25/1/1
f 27/2/1 23/2/1 19/2/1
f 28/2/1 23/2/1 27/2/1
f 29/7/1 28/7/1 27/7/1
f 29/2/1 23/2/1 28/2/1
f 30/2/1 23/2/1 29/2/1
f 31/7/1 30/7/1 29/7/1
f 31/2/1 23/2/1 30/2/1
f 32/2/1 23/2/1 31/2/1
f 33/2/1 26/2/1 25/2/1
f 33/2/1 25/2/1 24/2/1
f 34/2/1 26/2/1 33/2/1
f 35/7/1 32/7/1 31/7/1
f 35/2/1 26/2/1 34/2/1
f 35/7/1 34/7/1 33/7/1
f 35/7/1 33/7/1 32/7/1
f 36/2/1 26/2/1 35/2/1
f 37/7/1 31/7/1 29/7/1
f 37/7/1 29/7/1 27/7/1
f 37/7/1 36/7/1 35/7/1
f 37/7/1 35/7/1 31/7/1
f 38/7/1 36/7/1 37/7/1
f 39/2/1 26/2/1 36/2/1
f 39/7/1 36/7/1 38/7/1
f 40/2/1 26/2/1 39/2/1
f 41/7/1 39/7/1 38/7/1
f 42/7/1 39/7/1 41/7/1
f 45/3/1 44/3/1 43/3/1
f 46/3/1 44/3/1 45/3/1
f 47/3/1 44/3/1 46/3/1
f 48/7/1 46/7/1 45/7/1
f 49/7/1 46/7/1 48/7/1
f 51/7/1 48/7/1 45/7/1
f 54/7/1 53/7/1 52/7/1
f 55/7/1 53/7/1 54/7/1
f 56/7/1 51/7/1 50/7/1
f 57/7/1 48/7/1 51/7/1
f 57/7/1 51/7/1 56/7/1
f 58/3/1 55/3/1 54/3/1
f 59/3/1 55/3/1 58/3/1
f 60/4/1 57/4/1 56/4/1
f 61/4/1 57/4/1 60/4/1
f 62/4/1 57/4/1 61/4/1
f 63/4/1 59/4/1 58/4/1
f 64/4/1 59/4/1 63/4/1
f 65/5/1 61/5/1 60/5/1
f 66/4/1 62/4/1 61/4/1
f 66/5/1 61/5/1 65/5/1
f 67/5/1 64/5/1 63/5/1
f 68/5/1 64/5/1 67/5/1
f 71/4/1 62/4/1 66/4/1
f 72/4/1 62/4/1 71/4/1
f 75/2/1 70/2/1 69/2/1
f 76/2/1 70/2/1 75/2/1
f 77/2/1 74/2/1 73/2/1
f 78/2/1 74/2/1 77/2/1
f 81/7/1 80/7/1 79/7/1
f 82/7/1 80/7/1 81/7/1
f 87/7/1 84/7/1 83/7/1
f 88/7/1 84/7/1 87/7/1
f 89/7/1 86/7/1 85/7/1
f 90/7/1 86/7/1 89/7/1
f 95/4/1 92/4/1 91/4/1
f 96/4/1 92/4/1 95/4/1
f 97/4/1 94/4/1 93/4/1
f 98/4/1 94/4/1 97/4/1
f 101/1/1 100/1/1 99/1/1
f 102/1/1 100/1/1 101/1/1
f 105/7/1 104/7/1 103/7/1
f 106/7/1 104/7/1 105/7/1
f 109/3/1 108/3/1 107/3/1
f 110/3/1 108/3/1 109/3/1
f 111/3/1 108/3/1 110/3/1
f 113/7/1 110/7/1 109/7/1
f 114/7/1 110/7/1 113/7/1
f 115/7/1 113/7/1 112/7/1
f 116/7/1 113/7/1 115/7/1
f 119/7/1 118/7/1 117/7/1
f 120/7/1 118/7/1 119/7/1
f 121/3/2 122/3/2 123/3/2
f 123/3/2 122/3/2 124/3/2
f 124/3/2 122/3/2 125/3/2
f 123/7/2 124/7/2 127/7/2
f 127/7/2 124/7/2 128/7/2
f 126/7/2 127/7/2 129/7/2
f 129/7/2 127/7/2 130/7/2
f 131/7/2 132/7/2 133/7/2
f 133/7/2 132/7/2 134/7/2
f 135/1/2 136/1/2 137/1/2
f 137/1/2 136/1/2 138/1/2
f 139/7/2 140/7/2 141/7/2
f 141/7/2 140/7/2 142/7/2
f 143/4/2 144/4/2 147/4/2
f 147/4/2 144/4/2 148/4/2
f 145/5/2 146/5/2 149/5/2
f 149/5/2 146/5/2 150/5/2
f 151/3/2 152/3/2 153/3/2
f 153/3/2 152/3/2 154/3/2
f 154/3/2 152/3/2 155/3/2
f 153/7/2 154/7/2 156/7/2
f 156/7/2 154/7/2 157/7/2
f 153/7/2 156/7/2 159/7/2
f 160/7/2 161/7/2 162/7/2
f 162/7/2 161/7/2 163/7/2
f 158/7/2 159/7/2 164/7/2
f 159/7/2 156/7/2 165/7/2
f 164/7/2 159/7/2 165/7/2
f 165/7/2 156/7/2 166/7/2
f 162/3/2 163/3/2 167/3/2
f 167/3/2 163/3/2 168/3/2
f 164/5/2 165/5/2 169/5/2
f 165/4/2 166/4/2 170/4/2
f 169/5/2 165/5/2 170/5/2
f 170/4/2 166/4/2 171/4/2
f 167/5/2 168/5/2 172/5/2
f 172/5/2 168/5/2 173/5/2
f 170/4/2 171/4/2 174/4/2
f 169/4/2 170/4/2 174/4/2
f 174/4/2 171/4/2 175/4/2
f 172/4/2 173/4/2 176/4/2
f 176/4/2 173/4/2 177/4/2
f 175/4/2 171/4/2 180/4/2
f 180/4/2 171/4/2 181/4/2
f 178/2/2 179/2/2 184/2/2
f 184/2/2 179/2/2 185/2/2
f 182/2/2 183/2/2 186/2/2
f 186/2/2 183/2/2 187/2/2
f 188/7/2 189/7/2 190/7/2
f 190/7/2 189/7/2 191/7/2
f 192/7/2 193/7/2 196/7/2
f 196/7/2 193/7/2 197/7/2
f 194/7/2 195/7/2 198/7/2
f 198/7/2 195/7/2 199/7/2
f 200/2/2 201/2/2 206/2/2
f 203/2/2 204/2/2 206/2/2
f 202/2/2 203/2/2 206/2/2
f 201/2/2 202/2/2 206/2/2
f 206/2/2 204/2/2 207/2/2
f 205/2/2 206/2/2 209/2/2
f 206/2/2 207/2/2 209/2/2
f 209/2/2 207/2/2 210/2/2
f 207/1/2 208/1/2 211/1/2
f 210/2/2 207/2/2 211/2/2
f 211/1/2 208/1/2 212/1/2
f 205/2/2 209/2/2 213/2/2
f 213/2/2 209/2/2 214/2/2
f 213/7/2 214/7/2 215/7/2
f 214/2/2 209/2/2 215/2/2
f 215/2/2 209/2/2 216/2/2
f 215/7/2 216/7/2 217/7/2
f 216/2/2 209/2/2 217/2/2
f 217/2/2 209/2/2 218/2/2
f 211/2/2 212/2/2 219/2/2
f 210/2/2 211/2/2 219/2/2
f 219/2/2 212/2/2 220/2/2
f 217/7/2 218/7/2 221/7/2
f 215/7/2 217/7/2 221/7/2
f 219/7/2 220/7/2 221/7/2
f 218/7/2 219/7/2 221/7/2
f 213/7/2 215/7/2 221/7/2
f 221/7/2 220/7/2 222/7/2
f 220/2/2 212/2/2 223/2/2
f 222/7/2 220/7/2 223/7/2
f 223/2/2 212/2/2 224/2/2
f 224/2/2 212/2/2 225/2/2
f 222/7/2 223/7/2 226/7/2
f 223/7/2 224/7/2 226/7/2
f 226/7/2 224/7/2 227/7/2
f 228/2/2 229/2/2 230/2/2
f 230/2/2 229/2/2 231/2/2
f 230/4/2 231/4/2 232/4/2
f 232/4/2 231/4/2 233/4/2
f 230/4/2 232/4/2 234/4/2
f 232/5/2 233/5/2 235/5/2
f 234/4/2 232/4/2 235/4/2
f 235/5/2 233/5/2 236/5/2
f 237/1/2 238/1/2 239/1/2
f 239/1/2 238/1/2 240/1/2
f 245/2/3 242/2/3 241/2/3
f 246/7/3 243/7/3 242/7/3
f 248/2/3 245/2/3 244/2/3
f 249/2/3 242/2/3 245/2/3
f 249/2/3 245/2/3 248/2/3
f 250/7/3 247/7/3 246/7/3
f 250/7/3 246/7/3 242/7/3
f 251/7/3 247/7/3 250/7/3
f 252/2/3 242/2/3 249/2/3
f 253/7/3 250/7/3 242/7/3
f 253/2/3 242/2/3 252/2/3
f 254/7/3 250/7/3 253/7/3
f 263/2/3 256/2/3 255/2/3
f 264/2/3 256/2/3 263/2/3
f 265/7/3 258/7/3 257/7/3
f 266/7/3 258/7/3 265/7/3
f 267/5/3 262/5/3 261/5/3
f 267/4/3 261/4/3 260/4/3
f 268/5/3 262/5/3 267/5/3
f 270/7/3 260/7/3 259/7/3
f 271/7/3 260/7/3 270/7/3
f 273/7/3 260/7/3 271/7/3
f 274/4/3 269/4/3 268/4/3
f 274/7/3 273/7/3 272/7/3
f 274/7/3 260/7/3 273/7/3
f 274/4/3 267/4/3 260/4/3
f 274/4/3 268/4/3 267/4/3
f 275/4/3 269/4/3 274/4/3
f 276/4/3 269/4/3 275/4/3
f 277/4/3 269/4/3 276/4/3
f 278/7/3 274/7/3 272/7/3
f 279/5/3 275/5/3 274/5/3
f 279/7/3 274/7/3 278/7/3
f 280/4/3 276/4/3 275/4/3
f 280/5/3 275/5/3 279/5/3
f 281/4/3 276/4/3 280/4/3
f 286/2/3 283/2/3 282/2/3
f 287/2/3 283/2/3 286/2/3
f 288/7/3 285/7/3 284/7/3
f 289/7/3 285/7/3 288/7/3
f 295/4/3 294/4/3 293/4/3
f 296/4/3 294/4/3 295/4/3
f 297/3/3 291/3/3 290/3/3
f 298/7/3 292/7/3 291/7/3
f 298/3/3 291/3/3 297/3/3
f 299/7/3 292/7/3 298/7/3
f 303/7/3 300/7/3 299/7/3
f 304/7/3 300/7/3 303/7/3
f 307/3/3 302/3/3 301/3/3
f 308/7/3 303/7/3 302/7/3
f 308/3/3 302/3/3 307/3/3
f 309/7/3 303/7/3 308/7/3
f 310/4/3 306/4/3 305/4/3
f 311/4/3 306/4/3 310/4/3
f 315/4/3 314/4/3 313/4/3
f 316/2/3 313/2/3 312/2/3
f 317/2/3 313/2/3 316/2/3
f 318/4/3 315/4/3 313/4/3
f 318/2/3 313/2/3 317/2/3
f 319/4/3 315/4/3 318/4/3
f 324/4/3 323/4/3 322/4/3
f 325/2/3 321/2/3 320/2/3
f 325/2/3 322/2/3 321/2/3
f 326/4/3 324/4/3 322/4/3
f 326/2/3 322/2/3 325/2/3
f 327/4/3 324/4/3 326/4/3
f 330/1/3 329/1/3 328/1/3
f 331/1/3 329/1/3 330/1/3
f 334/1/3 333/1/3 332/1/3
f 335/1/3 333/1/3 334/1/3
f 339/4/4 340/4/4 342/4/4
f 340/5/4 341/5/4 342/5/4
f 342/5/4 341/5/4 343/5/4
f 336/1/4 337/1/4 344/1/4
f 344/1/4 337/1/4 345/1/4
f 338/2/4 339/2/4 347/2/4
f 347/2/4 339/2/4 348/2/4
f 348/2/4 339/2/4 349/2/4
f 349/2/4 339/2/4 350/2/4
f 342/4/4 343/4/4 351/4/4
f 350/2/4 339/2/4 351/2/4
f 339/4/4 342/4/4 351/4/4
f 351/4/4 343/4/4 352/4/4
f 352/4/4 343/4/4 353/4/4
f 353/4/4 343/4/4 354/4/4
f 347/7/4 348/7/4 355/7/4
f 346/7/4 347/7/4 355/7/4
f 355/7/4 348/7/4 356/7/4
f 357/7/4 358/7/4 361/7/4
f 361/7/4 358/7/4 362/7/4
f 362/7/4 358/7/4 363/7/4
f 359/4/4 360/4/4 367/4/4
f 366/4/4 367/4/4 368/4/4
f 367/4/4 360/4/4 368/4/4
f 368/4/4 360/4/4 369/4/4
f 365/2/4 366/2/4 372/2/4
f 362/2/4 363/2/4 372/2/4
f 363/2/4 364/2/4 372/2/4
f 364/2/4 365/2/4 372/2/4
f 366/4/4 368/4/4 373/4/4
f 372/2/4 366/2/4 373/2/4
f 368/5/4 369/5/4 374/5/4
f 373/4/4 368/4/4 374/4/4
f 374/5/4 369/5/4 375/5/4
f 370/1/4 371/1/4 376/1/4
f 376/1/4 371/1/4 377/1/4
f 382/4/4 383/4/4 385/4/4
f 383/5/4 384/5/4 385/5/4
f 385/5/4 384/5/4 386/5/4
f 381/3/4 382/3/4 388/3/4
f 386/4/4 387/4/4 388/4/4
f 385/4/4 386/4/4 388/4/4
f 382/4/4 385/4/4 388/4/4
f 388/4/4 387/4/4 389/4/4
f 378/3/4 379/3/4 390/3/4
f 390/3/4 379/3/4 391/3/4
f 381/3/4 388/3/4 394/3/4
f 388/6/4 389/6/4 394/6/4
f 394/6/4 389/6/4 395/6/4
f 395/6/4 389/6/4 396/6/4
f 381/3/4 394/3/4 397/3/4
f 394/4/4 395/4/4 397/4/4
f 397/4/4 395/4/4 398/4/4
f 395/5/4 396/5/4 399/5/4
f 398/4/4 395/4/4 399/4/4
f 399/5/4 396/5/4 400/5/4
f 392/3/4 393/3/4 401/3/4
f 401/3/4 393/3/4 402/3/4
f 380/7/4 381/7/4 403/7/4
f 381/3/4 397/3/4 404/3/4
f 403/7/4 381/7/4 404/7/4
f 397/5/4 398/5/4 405/5/4
f 404/3/4 397/3/4 405/3/4
f 398/4/4 399/4/4 406/4/4
f 405/5/4 398/5/4 406/5/4
f 406/4/4 399/4/4 407/4/4
f 408/2/4 409/2/4 412/2/4
f 412/2/4 409/2/4 413/2/4
f 410/7/4 411/7/4 414/7/4
f 414/7/4 411/7/4 415/7/4
f 416/2/4 417/2/4 420/2/4
f 420/2/4 417/2/4 421/2/4
f 418/7/4 419/7/4 422/7/4
f 422/7/4 419/7/4 423/7/4
f 424/1/4 425/1/4 428/1/4
f 425/2/4 426/2/4 429/2/4
f 429/2/4 426/2/4 430/2/4
f 430/2/4 426/2/4 431/2/4
f 427/2/4 428/2/4 433/2/4
f 428/1/4 425/1/4 433/1/4
f 425/2/4 429/2/4 434/2/4
f 433/1/4 425/1/4 434/1/4
f 434/2/4 429/2/4 435/2/4
f 433/2/4 434/2/4 436/2/4
f 434/8/4 435/8/4 436/8/4
f 436/8/4 435/8/4 437/8/4
f 433/2/4 436/2/4 438/2/4
f 436/2/4 437/2/4 438/2/4
f 438/2/4 437/2/4 439/2/4
f 439/2/4 437/2/4 440/2/4
f 430/2/4 431/2/4 441/2/4
f 431/7/4 432/7/4 442/7/4
f 441/2/4 431/2/4 442/2/4
f 442/7/4 432/7/4 443/7/4
f 433/2/4 438/2/4 444/2/4
f 440/2/4 441/2/4 445/2/4
f 439/2/4 440/2/4 445/2/4
f 441/2/4 442/2/4 445/2/4
f 445/2/4 442/2/4 446/2/4
f 446/2/4 442/2/4 447/2/4
f 447/2/4 442/2/4 448/2/4
f 444/2/4 445/2/4 450/2/4
f 445/2/4 446/2/4 450/2/4
f 450/2/4 446/2/4 451/2/4
f 433/2/4 444/2/4 452/2/4
f 427/2/4 433/2/4 452/2/4
f 444/2/4 450/2/4 452/2/4
f 450/8/4 451/8/4 453/8/4
f 452/2/4 450/2/4 453/2/4
f 453/8/4 451/8/4 454/8/4
f 427/2/4 452/2/4 455/2/4
f 452/1/4 453/1/4 456/1/4
f 455/2/4 452/2/4 456/2/4
f 453/2/4 454/2/4 457/2/4
f 447/2/4 448/2/4 458/2/4
f 448/7/4 449/7/4 459/7/4
f 458/2/4 448/2/4 459/2/4
f 459/7/4 449/7/4 460/7/4
f 456/1/4 453/1/4 461/1/4
f 453/2/4 457/2/4 462/2/4
f 461/1/4 453/1/4 462/1/4
f 457/2/4 458/2/4 462/2/4
f 458/2/4 459/2/4 462/2/4
f 462/2/4 459/2/4 463/2/4
f 464/7/4 465/7/4 468/7/4
f 468/7/4 465/7/4 469/7/4
f 466/1/4 467/1/4 472/1/4
f 472/1/4 467/1/4 473/1/4
f 470/7/4 471/7/4 476/7/4
f 476/7/4 471/7/4 477/7/4
f 474/7/4 475/7/4 478/7/4
f 478/7/4 475/7/4 479/7/4
f 484/3/5 481/3/5 480/3/5
f 485/3/5 481/3/5 484/3/5
f 486/3/5 483/3/5 482/3/5
f 487/3/5 483/3/5 486/3/5
f 492/2/5 489/2/5 488/2/5
f 493/2/5 489/2/5 492/2/5
f 494/2/5 491/2/5 490/2/5
f 495/2/5 491/2/5 494/2/5
f 500/7/5 497/7/5 496/7/5
f 501/7/5 497/7/5 500/7/5
f 502/7/5 499/7/5 498/7/5
f 503/7/5 499/7/5 502/7/5
f 505/7/5 502/7/5 501/7/5
f 506/7/5 502/7/5 505/7/5
f 508/7/5 505/7/5 504/7/5
f 508/7/5 507/7/5 506/7/5
f 508/7/5 506/7/5 505/7/5
f 509/7/5 507/7/5 508/7/5
f 512/7/5 511/7/5 510/7/5
f 513/7/5 511/7/5 512/7/5
f 517/2/5 515/2/5 514/2/5
f 518/2/5 515/2/5 517/2/5
f 519/2/5 515/2/5 518/2/5
f 520/2/5 515/2/5 519/2/5
f 522/2/5 517/2/5 516/2/5
f 522/2/5 518/2/5 517/2/5
f 523/2/5 518/2/5 522/2/5
f 524/2/5 521/2/5 520/2/5
f 524/2/5 520/2/5 519/2/5
f 525/2/5 521/2/5 524/2/5
f 526/2/5 522/2/5 516/2/5
f 527/2/5 522/2/5 526/2/5
f 528/2/5 521/2/5 525/2/5
f 529/2/5 521/2/5 528/2/5
f 534/2/5 531/2/5 530/2/5
f 537/2/5 533/2/5 532/2/5
f 538/2/5 536/2/5 535/2/5
f 538/2/5 537/2/5 536/2/5
f 538/2/5 534/2/5 530/2/5
f 538/2/5 535/2/5 534/2/5
f 539/2/5 537/2/5 538/2/5
f 540/2/5 533/2/5 537/2/5
f 540/2/5 537/2/5 539/2/5
f 541/2/5 533/2/5 540/2/5
f 542/2/5 540/2/5 539/2/5
f 543/2/5 540/2/5 542/2/5
f 548/2/5 545/2/5 544/2/5
f 549/2/5 545/2/5 548/2/5
f 550/2/5 547/2/5 546/2/5
f 551/2/5 547/2/5 550/2/5
f 556/1/5 553/1/5 552/1/5
f 557/1/5 553/1/5 556/1/5
f 558/1/5 555/1/5 554/1/5
f 559/1/5 555/1/5 558/1/5
f 562/1/5 561/1/5 560/1/5
f 563/1/5 561/1/5 562/1/5
f 568/1/5 565/1/5 564/1/5
f 569/1/5 565/1/5 568/1/5
f 570/1/5 567/1/5 566/1/5
f 571/1/5 567/1/5 570/1/5
f 580/7/5 573/7/5 572/7/5
f 580/7/5 574/7/5 573/7/5
f 580/7/5 575/7/5 574/7/5
f 581/7/5 575/7/5 580/7/5
f 582/7/5 579/7/5 578/7/5
f 582/7/5 578/7/5 577/7/5
f 582/7/5 577/7/5 576/7/5
f 583/7/5 579/7/5 582/7/5
f 586/7/5 585/7/5 584/7/5
f 587/7/5 585/7/5 586/7/5
f 588/3/6 589/3/6 592/3/6
f 592/3/6 589/3/6 593/3/6
f 590/3/6 591/3/6 594/3/6
f 594/3/6 591/3/6 595/3/6
f 596/5/6 597/5/6 600/5/6
f 600/5/6 597/5/6 601/5/6
f 598/4/6 599/4/6 602/4/6
f 602/4/6 599/4/6 603/4/6
f 604/5/6 605/5/6 608/5/6
f 608/5/6 605/5/6 609/5/6
f 606/4/6 607/4/6 610/4/6
f 610/4/6 607/4/6 611/4/6
f 612/4/6 613/4/6 616/4/6
f 616/4/6 613/4/6 617/4/6
f 614/4/6 615/4/6 618/4/6
f 618/4/6 615/4/6 619/4/6
f 616/5/6 617/5/6 620/5/6
f 620/5/6 617/5/6 621/5/6
f 618/5/6 619/5/6 622/5/6
f 622/5/6 619/5/6 623/5/6
f 624/1/6 625/1/6 626/1/6
f 626/1/6 625/1/6 627/1/6
f 628/1/6 629/1/6 632/1/6
f 632/1/6 629/1/6 633/1/6
f 630/1/6 631/1/6 634/1/6
f 634/1/6 631/1/6 635/1/6
f 636/7/6 637/7/6 640/7/6
f 640/7/6 637/7/6 641/7/6
f 638/7/6 639/7/6 642/7/6
f 642/7/6 639/7/6 643/7/6
f 644/7/6 645/7/6 648/7/6
f 648/7/6 645/7/6 649/7/6
f 646/7/6 647/7/6 650/7/6
f 650/7/6 647/7/6 651/7/6
f 652/2/6 653/2/6 656/2/6
f 656/2/6 653/2/6 657/2/6
f 654/2/6 655/2/6 658/2/6
f 658/2/6 655/2/6 659/2/6
f 660/7/6 661/7/6 663/7/6
f 663/7/6 661/7/6 664/7/6
f 662/7/6 663/7/6 666/7/6
f 664/7/6 665/7/6 666/7/6
f 663/7/6 664/7/6 666/7/6
f 666/7/6 665/7/6 667/7/6
f 667/7/6 665/7/6 668/7/6
f 668/7/6 665/7/6 669/7/6
f 667/7/6 668/7/6 670/7/6
f 670/7/6 668/7/6 671/7/6
f 671/7/6 668/7/6 672/7/6
f 672/7/6 668/7/6 673/7/6
f 671/7/6 672/7/6 674/7/6
f 674/7/6 672/7/6 675/7/6
