# MagicaVoxel @ Ephtracy

# group
o 

# material
mtllib GreenPlayer2.mtl
usemtl palette

# normals
vn -1 0 0
vn 1 0 0
vn 0 0 1
vn 0 0 -1
vn 0 -1 0
vn 0 1 0

# texcoords
vt 0.193359 0.5
vt 0.314453 0.5
vt 0.525391 0.5
vt 0.568359 0.5
vt 0.572266 0.5
vt 0.583984 0.5
vt 0.591797 0.5
vt 0.607422 0.5
vt 0.994141 0.5

# verts
v -0.7 2.2 0
v -0.7 2.2 -0.1
v -0.7 2.5 0
v -0.7 2.5 -0.1
v -0.6 1.3 0.1
v -0.6 1.3 -0.1
v -0.6 1.7 0.1
v -0.6 1.7 -0.1
v -0.6 1.9 0.1
v -0.6 1.9 -0.1
v -0.5 1.9 0.3
v -0.5 1.9 0.1
v -0.5 1.9 -0.1
v -0.5 1.9 -0.3
v -0.5 2 0.5
v -0.5 2 0.3
v -0.5 2 -0.3
v -0.5 2 -0.4
v -0.5 2.2 0.5
v -0.5 2.2 0.3
v -0.5 2.2 0
v -0.5 2.2 -0.1
v -0.5 2.2 -0.3
v -0.5 2.2 -0.4
v -0.5 2.3 0.5
v -0.5 2.3 0.4
v -0.5 2.3 0.3
v -0.5 2.3 0.2
v -0.5 2.4 0.5
v -0.5 2.4 0.4
v -0.5 2.4 0.2
v -0.5 2.4 0
v -0.5 2.5 0.3
v -0.5 2.5 0.2
v -0.5 2.5 0
v -0.5 2.5 -0.1
v -0.5 2.5 -0.2
v -0.5 2.6 0.3
v -0.5 2.6 0.2
v -0.5 2.6 0
v -0.5 2.6 -0.1
v -0.5 2.6 -0.2
v -0.5 2.6 -0.4
v -0.5 2.7 0.5
v -0.5 2.7 0.4
v -0.5 2.7 0.2
v -0.5 2.7 0
v -0.5 2.7 -0.1
v -0.5 2.7 -0.2
v -0.5 2.8 0.4
v -0.5 2.8 0
v -0.5 2.8 -0.1
v -0.5 2.8 -0.4
v -0.4 1 0.2
v -0.4 1 -0.2
v -0.4 1.2 0.2
v -0.4 1.2 -0.1
v -0.4 1.2 -0.2
v -0.4 1.3 0.2
v -0.4 1.3 0.1
v -0.4 1.3 -0.1
v -0.4 1.4 0.3
v -0.4 1.4 0.2
v -0.4 1.4 0.1
v -0.4 1.4 -0.1
v -0.4 1.4 -0.2
v -0.4 1.5 0.3
v -0.4 1.5 0.1
v -0.4 1.5 -0.1
v -0.4 1.5 -0.2
v -0.4 1.7 0.1
v -0.4 1.7 -0.1
v -0.4 1.8 0.3
v -0.4 1.8 0.2
v -0.4 1.8 0.1
v -0.4 1.8 -0.1
v -0.4 1.8 -0.2
v -0.4 1.9 0.5
v -0.4 1.9 0.3
v -0.4 1.9 0.2
v -0.4 1.9 0.1
v -0.4 1.9 -0.1
v -0.4 1.9 -0.2
v -0.4 1.9 -0.3
v -0.4 1.9 -0.4
v -0.4 2 0.5
v -0.4 2 0.3
v -0.4 2 -0.3
v -0.4 2 -0.4
v -0.4 2.7 0.5
v -0.4 2.7 0.4
v -0.4 2.8 0.5
v -0.4 2.8 0.4
v -0.4 2.8 0.3
v -0.4 2.8 0
v -0.4 2.8 -0.1
v -0.4 2.8 -0.2
v -0.4 2.8 -0.3
v -0.4 2.9 0.3
v -0.4 2.9 -0.2
v -0.4 2.9 -0.3
v -0.3 1.8 0.3
v -0.3 1.8 0.2
v -0.3 1.9 0.3
v -0.3 1.9 0.2
v -0.3 2.3 0.6
v -0.3 2.3 0.5
v -0.3 2.4 0.5
v -0.3 2.6 0.5
v -0.3 2.7 0.6
v -0.3 2.7 0.5
v -0.3 2.8 0.4
v -0.3 2.8 0.3
v -0.3 2.9 0.4
v -0.3 2.9 0.3
v -0.2 2.4 0.7
v -0.2 2.4 0.6
v -0.2 2.7 0.7
v -0.2 2.7 0.6
v -0.2 2.7 0.5
v -0.2 2.8 0.6
v -0.2 2.8 0.5
v -0.1 2.1 0.8
v -0.1 2.1 0.7
v -0.1 2.1 -0.4
v -0.1 2.1 -0.5
v -0.1 2.3 0.9
v -0.1 2.3 0.8
v -0.1 2.4 0.9
v -0.1 2.4 0.8
v -0.1 2.4 0.7
v -0.1 2.4 -0.4
v -0.1 2.4 -0.5
v -0.1 2.5 0.9
v -0.1 2.5 0.8
v -0.1 2.5 0.7
v -0.1 2.6 0.8
v -0.1 2.6 0.7
v -0.1 2.7 0.9
v -0.1 2.7 0.8
v -0.1 2.7 0.7
v -0.1 2.7 0.6
v -0.1 2.7 -0.4
v -0.1 2.7 -0.5
v -0.1 2.8 0.6
v -0.1 2.8 0.5
v -0.1 2.8 0.4
v -0.1 2.8 -0.4
v -0.1 2.8 -0.5
v -0.1 2.9 0.8
v -0.1 2.9 0.7
v -0.1 2.9 0.6
v -0.1 2.9 0.5
v -0.1 2.9 0.4
v -0.1 3 0.7
v -0.1 3 0.4
v 0.1 1 0.2
v 0.1 1 -0.2
v 0.1 1.2 0.2
v 0.1 1.2 0.1
v 0.1 1.2 -0.1
v 0.1 1.2 -0.2
v 0.1 1.3 0.2
v 0.1 1.3 0.1
v 0.1 1.4 0.3
v 0.1 1.4 0.2
v 0.1 1.4 -0.1
v 0.1 1.5 0.3
v 0.1 1.5 0.2
v -0.1 1 0.2
v -0.1 1 -0.2
v -0.1 1.2 0.2
v -0.1 1.2 -0.1
v -0.1 1.2 -0.2
v -0.1 1.3 0
v -0.1 1.3 -0.1
v -0.1 1.4 0.3
v -0.1 1.4 0.2
v -0.1 1.4 0
v -0.1 1.4 -0.1
v -0.1 1.5 0.3
v -0.1 1.5 0.2
v 0.1 2.1 0.8
v 0.1 2.1 0.7
v 0.1 2.1 -0.4
v 0.1 2.1 -0.5
v 0.1 2.2 0.8
v 0.1 2.2 0.7
v 0.1 2.3 0.9
v 0.1 2.3 0.8
v 0.1 2.4 0.7
v 0.1 2.4 -0.4
v 0.1 2.4 -0.5
v 0.1 2.6 0.8
v 0.1 2.6 0.7
v 0.1 2.7 0.9
v 0.1 2.7 0.8
v 0.1 2.7 0.7
v 0.1 2.7 0.6
v 0.1 2.7 -0.4
v 0.1 2.7 -0.5
v 0.1 2.8 0.7
v 0.1 2.8 0.6
v 0.1 2.8 0.5
v 0.1 2.8 -0.4
v 0.1 2.8 -0.5
v 0.1 2.9 0.8
v 0.1 2.9 0.7
v 0.1 2.9 0.5
v 0.1 2.9 0.4
v 0.1 3 0.7
v 0.1 3 0.4
v 0.2 2.4 0.7
v 0.2 2.4 0.6
v 0.2 2.6 0.6
v 0.2 2.7 0.7
v 0.2 2.7 0.6
v 0.2 2.7 0.5
v 0.2 2.8 0.6
v 0.2 2.8 0.5
v 0.2 2.8 0.4
v 0.2 2.9 0.5
v 0.2 2.9 0.4
v 0.3 1.8 0.3
v 0.3 1.8 0.2
v 0.3 1.9 0.3
v 0.3 1.9 0.2
v 0.3 2.3 0.6
v 0.3 2.3 0.5
v 0.3 2.4 0.6
v 0.3 2.4 0.5
v 0.3 2.6 0.6
v 0.3 2.6 0.5
v 0.3 2.7 0.6
v 0.3 2.7 0.5
v 0.3 2.7 0.4
v 0.3 2.8 0.5
v 0.3 2.8 0.4
v 0.3 2.8 0.3
v 0.3 2.9 0.4
v 0.3 2.9 0.3
v 0.4 1 0.2
v 0.4 1 -0.2
v 0.4 1.2 0.2
v 0.4 1.2 0
v 0.4 1.2 -0.1
v 0.4 1.2 -0.2
v 0.4 1.3 0.1
v 0.4 1.3 0
v 0.4 1.3 -0.1
v 0.4 1.4 0.3
v 0.4 1.4 0.2
v 0.4 1.4 -0.1
v 0.4 1.4 -0.2
v 0.4 1.5 0.3
v 0.4 1.5 0.2
v 0.4 1.5 0.1
v 0.4 1.5 -0.1
v 0.4 1.5 -0.2
v 0.4 1.6 0.2
v 0.4 1.6 0.1
v 0.4 1.7 0.1
v 0.4 1.7 -0.1
v 0.4 1.8 0.3
v 0.4 1.8 0.2
v 0.4 1.8 0.1
v 0.4 1.8 -0.1
v 0.4 1.8 -0.2
v 0.4 1.9 0.5
v 0.4 1.9 0.3
v 0.4 1.9 0.2
v 0.4 1.9 0.1
v 0.4 1.9 -0.1
v 0.4 1.9 -0.2
v 0.4 1.9 -0.3
v 0.4 1.9 -0.4
v 0.4 2 0.5
v 0.4 2 0.3
v 0.4 2 -0.3
v 0.4 2 -0.4
v 0.4 2.8 0.3
v 0.4 2.8 0.1
v 0.4 2.8 0
v 0.4 2.8 -0.1
v 0.4 2.8 -0.3
v 0.4 2.9 0.3
v 0.4 2.9 0
v 0.4 2.9 -0.1
v 0.4 2.9 -0.3
v 0.5 1.9 0.3
v 0.5 1.9 0.1
v 0.5 1.9 -0.1
v 0.5 1.9 -0.3
v 0.5 2 0.5
v 0.5 2 0.3
v 0.5 2 -0.3
v 0.5 2 -0.4
v 0.5 2.2 0.5
v 0.5 2.2 0.3
v 0.5 2.2 0
v 0.5 2.2 -0.1
v 0.5 2.2 -0.3
v 0.5 2.2 -0.4
v 0.5 2.3 0.3
v 0.5 2.3 0.2
v 0.5 2.4 0.3
v 0.5 2.4 0.2
v 0.5 2.4 0
v 0.5 2.5 0.4
v 0.5 2.5 0.3
v 0.5 2.5 0.2
v 0.5 2.5 0.1
v 0.5 2.5 0
v 0.5 2.5 -0.1
v 0.5 2.5 -0.2
v 0.5 2.6 0.4
v 0.5 2.6 0.3
v 0.5 2.6 -0.1
v 0.5 2.6 -0.2
v 0.5 2.6 -0.4
v 0.5 2.7 0.5
v 0.5 2.7 0.4
v 0.5 2.7 0.2
v 0.5 2.7 0.1
v 0.5 2.7 0
v 0.5 2.7 -0.1
v 0.5 2.7 -0.2
v 0.5 2.7 -0.3
v 0.5 2.7 -0.4
v 0.5 2.8 0.4
v 0.5 2.8 0.1
v 0.5 2.8 0
v 0.5 2.8 -0.3
v 0.5 2.8 -0.4
v 0.6 1.3 0.1
v 0.6 1.3 -0.1
v 0.6 1.7 0.1
v 0.6 1.7 -0.1
v 0.6 1.9 0.1
v 0.6 1.9 -0.1
v 0.7 2.2 0
v 0.7 2.2 -0.1
v 0.7 2.5 0
v 0.7 2.5 -0.1
v -0.1 2.3 0.9
v -0.1 2.4 0.9
v -0.1 2.5 0.9
v -0.1 2.7 0.9
v 0 2.4 0.9
v 0 2.5 0.9
v 0.1 2.3 0.9
v 0.1 2.7 0.9
v -0.1 2.1 0.8
v -0.1 2.3 0.8
v -0.1 2.7 0.8
v -0.1 2.9 0.8
v 0 2.1 0.8
v 0 2.2 0.8
v 0.1 2.1 0.8
v 0.1 2.2 0.8
v 0.1 2.3 0.8
v 0.1 2.7 0.8
v 0.1 2.9 0.8
v -0.2 2.4 0.7
v -0.2 2.7 0.7
v -0.1 2.4 0.7
v -0.1 2.5 0.7
v -0.1 2.6 0.7
v -0.1 2.7 0.7
v -0.1 2.9 0.7
v -0.1 3 0.7
v 0.1 2.4 0.7
v 0.1 2.6 0.7
v 0.1 2.7 0.7
v 0.1 2.9 0.7
v 0.1 3 0.7
v 0.2 2.4 0.7
v 0.2 2.7 0.7
v -0.3 2.3 0.6
v -0.3 2.7 0.6
v -0.2 2.4 0.6
v -0.2 2.7 0.6
v -0.2 2.8 0.6
v -0.1 2.7 0.6
v -0.1 2.8 0.6
v 0.1 2.7 0.6
v 0.1 2.8 0.6
v 0.2 2.4 0.6
v 0.2 2.6 0.6
v 0.2 2.7 0.6
v 0.2 2.8 0.6
v 0.3 2.3 0.6
v 0.3 2.4 0.6
v 0.3 2.6 0.6
v 0.3 2.7 0.6
v -0.5 2 0.5
v -0.5 2.2 0.5
v -0.5 2.3 0.5
v -0.5 2.4 0.5
v -0.5 2.7 0.5
v -0.4 1.9 0.5
v -0.4 2 0.5
v -0.4 2.3 0.5
v -0.4 2.4 0.5
v -0.4 2.6 0.5
v -0.4 2.7 0.5
v -0.4 2.8 0.5
v -0.3 2.1 0.5
v -0.3 2.2 0.5
v -0.3 2.3 0.5
v -0.3 2.4 0.5
v -0.3 2.6 0.5
v -0.3 2.7 0.5
v -0.3 2.8 0.5
v -0.2 2.2 0.5
v -0.2 2.3 0.5
v -0.2 2.7 0.5
v -0.2 2.8 0.5
v -0.1 2.2 0.5
v -0.1 2.3 0.5
v 0.1 2.8 0.5
v 0.1 2.9 0.5
v 0.2 2.7 0.5
v 0.2 2.8 0.5
v 0.2 2.9 0.5
v 0.3 2.1 0.5
v 0.3 2.2 0.5
v 0.3 2.3 0.5
v 0.3 2.4 0.5
v 0.3 2.6 0.5
v 0.3 2.7 0.5
v 0.3 2.8 0.5
v 0.4 1.9 0.5
v 0.4 2 0.5
v 0.4 2.3 0.5
v 0.4 2.4 0.5
v 0.5 2 0.5
v 0.5 2.2 0.5
v 0.5 2.7 0.5
v -0.5 2.7 0.4
v -0.5 2.8 0.4
v -0.4 2.7 0.4
v -0.4 2.8 0.4
v -0.3 2.8 0.4
v -0.3 2.9 0.4
v -0.2 2.8 0.4
v -0.1 2.8 0.4
v -0.1 2.9 0.4
v 0.2 2.8 0.4
v 0.2 2.9 0.4
v 0.3 2.7 0.4
v 0.3 2.8 0.4
v 0.3 2.9 0.4
v 0.5 2.7 0.4
v 0.5 2.8 0.4
v -0.5 1.9 0.3
v -0.5 2 0.3
v -0.4 1.4 0.3
v -0.4 1.5 0.3
v -0.4 1.8 0.3
v -0.4 1.9 0.3
v -0.4 2 0.3
v -0.4 2.8 0.3
v -0.4 2.9 0.3
v -0.3 1.8 0.3
v -0.3 1.9 0.3
v -0.3 2.8 0.3
v -0.3 2.9 0.3
v -0.2 1.8 0.3
v -0.2 1.9 0.3
v -0.1 1.4 0.3
v -0.1 1.5 0.3
v 0 1.6 0.3
v 0 1.7 0.3
v 0.1 1.4 0.3
v 0.1 1.5 0.3
v 0.1 1.6 0.3
v 0.1 1.7 0.3
v 0.1 1.8 0.3
v 0.2 1.7 0.3
v 0.2 1.8 0.3
v 0.2 1.9 0.3
v 0.3 1.8 0.3
v 0.3 1.9 0.3
v 0.3 2.8 0.3
v 0.3 2.9 0.3
v 0.4 1.4 0.3
v 0.4 1.5 0.3
v 0.4 1.8 0.3
v 0.4 1.9 0.3
v 0.4 2 0.3
v 0.4 2.8 0.3
v 0.4 2.9 0.3
v 0.5 1.9 0.3
v 0.5 2 0.3
v -0.4 1 0.2
v -0.4 1.2 0.2
v -0.4 1.3 0.2
v -0.4 1.4 0.2
v -0.4 1.8 0.2
v -0.4 1.9 0.2
v -0.3 1.3 0.2
v -0.3 1.4 0.2
v -0.3 1.8 0.2
v -0.3 1.9 0.2
v -0.1 1 0.2
v -0.1 1.2 0.2
v -0.1 1.4 0.2
v -0.1 1.5 0.2
v 0.1 1 0.2
v 0.1 1.2 0.2
v 0.1 1.3 0.2
v 0.1 1.4 0.2
v 0.1 1.5 0.2
v 0.2 1.2 0.2
v 0.2 1.3 0.2
v 0.3 1.8 0.2
v 0.3 1.9 0.2
v 0.4 1 0.2
v 0.4 1.2 0.2
v 0.4 1.4 0.2
v 0.4 1.8 0.2
v 0.4 1.9 0.2
v -0.6 1.3 0.1
v -0.6 1.7 0.1
v -0.6 1.9 0.1
v -0.5 1.9 0.1
v -0.4 1.3 0.1
v -0.4 1.4 0.1
v -0.4 1.5 0.1
v -0.4 1.7 0.1
v -0.4 1.8 0.1
v -0.4 1.9 0.1
v 0.4 1.3 0.1
v 0.4 1.5 0.1
v 0.4 1.6 0.1
v 0.4 1.7 0.1
v 0.4 1.8 0.1
v 0.4 1.9 0.1
v 0.5 1.9 0.1
v 0.6 1.3 0.1
v 0.6 1.7 0.1
v 0.6 1.9 0.1
v -0.7 2.2 0
v -0.7 2.5 0
v -0.5 2.2 0
v -0.5 2.4 0
v -0.5 2.5 0
v 0.5 2.2 0
v 0.5 2.4 0
v 0.5 2.5 0
v 0.7 2.2 0
v 0.7 2.5 0
v -0.1 2.1 0.7
v -0.1 2.4 0.7
v 0 2.1 0.7
v 0 2.2 0.7
v 0.1 2.1 0.7
v 0.1 2.2 0.7
v 0.1 2.4 0.7
v -0.1 2.9 0.4
v -0.1 3 0.4
v 0.1 2.9 0.4
v 0.1 3 0.4
v -0.7 2.2 -0.1
v -0.7 2.5 -0.1
v -0.6 1.3 -0.1
v -0.6 1.7 -0.1
v -0.6 1.9 -0.1
v -0.5 1.9 -0.1
v -0.5 2.2 -0.1
v -0.5 2.5 -0.1
v -0.4 1.2 -0.1
v -0.4 1.3 -0.1
v -0.4 1.4 -0.1
v -0.4 1.5 -0.1
v -0.4 1.7 -0.1
v -0.4 1.8 -0.1
v -0.4 1.9 -0.1
v -0.2 1.3 -0.1
v -0.2 1.4 -0.1
v -0.1 1.2 -0.1
v -0.1 1.3 -0.1
v -0.1 1.4 -0.1
v 0.1 1.2 -0.1
v 0.1 1.4 -0.1
v 0.3 1.2 -0.1
v 0.3 1.3 -0.1
v 0.4 1.2 -0.1
v 0.4 1.3 -0.1
v 0.4 1.4 -0.1
v 0.4 1.5 -0.1
v 0.4 1.7 -0.1
v 0.4 1.8 -0.1
v 0.4 1.9 -0.1
v 0.5 1.9 -0.1
v 0.5 2.2 -0.1
v 0.5 2.5 -0.1
v 0.6 1.3 -0.1
v 0.6 1.7 -0.1
v 0.6 1.9 -0.1
v 0.7 2.2 -0.1
v 0.7 2.5 -0.1
v -0.4 1 -0.2
v -0.4 1.2 -0.2
v -0.4 1.4 -0.2
v -0.4 1.5 -0.2
v -0.4 1.8 -0.2
v -0.4 1.9 -0.2
v -0.3 1.8 -0.2
v -0.3 1.9 -0.2
v -0.2 1.8 -0.2
v -0.2 1.9 -0.2
v -0.1 1 -0.2
v -0.1 1.2 -0.2
v 0.1 1 -0.2
v 0.1 1.2 -0.2
v 0.1 1.5 -0.2
v 0.1 1.6 -0.2
v 0.2 1.5 -0.2
v 0.2 1.6 -0.2
v 0.2 1.7 -0.2
v 0.2 1.8 -0.2
v 0.2 1.9 -0.2
v 0.3 1.6 -0.2
v 0.3 1.7 -0.2
v 0.3 1.8 -0.2
v 0.3 1.9 -0.2
v 0.4 1 -0.2
v 0.4 1.2 -0.2
v 0.4 1.4 -0.2
v 0.4 1.5 -0.2
v 0.4 1.8 -0.2
v 0.4 1.9 -0.2
v -0.5 1.9 -0.3
v -0.5 2 -0.3
v -0.4 1.9 -0.3
v -0.4 2 -0.3
v -0.4 2.8 -0.3
v -0.4 2.9 -0.3
v -0.3 2.8 -0.3
v -0.3 2.9 -0.3
v 0 2.8 -0.3
v 0 2.9 -0.3
v 0.2 2.8 -0.3
v 0.2 2.9 -0.3
v 0.4 1.9 -0.3
v 0.4 2 -0.3
v 0.4 2.8 -0.3
v 0.4 2.9 -0.3
v 0.5 1.9 -0.3
v 0.5 2 -0.3
v -0.5 2 -0.4
v -0.5 2.2 -0.4
v -0.5 2.6 -0.4
v -0.5 2.8 -0.4
v -0.4 1.9 -0.4
v -0.4 2 -0.4
v -0.4 2.4 -0.4
v -0.4 2.5 -0.4
v -0.4 2.6 -0.4
v -0.4 2.7 -0.4
v -0.3 2 -0.4
v -0.3 2.2 -0.4
v -0.3 2.4 -0.4
v -0.2 2.2 -0.4
v -0.2 2.5 -0.4
v -0.2 2.6 -0.4
v -0.1 2.1 -0.4
v -0.1 2.4 -0.4
v -0.1 2.7 -0.4
v -0.1 2.8 -0.4
v 0 2.7 -0.4
v 0.1 2.1 -0.4
v 0.1 2.4 -0.4
v 0.1 2.7 -0.4
v 0.1 2.8 -0.4
v 0.2 2.2 -0.4
v 0.2 2.5 -0.4
v 0.2 2.6 -0.4
v 0.3 2 -0.4
v 0.3 2.2 -0.4
v 0.3 2.4 -0.4
v 0.4 1.9 -0.4
v 0.4 2 -0.4
v 0.4 2.4 -0.4
v 0.4 2.5 -0.4
v 0.4 2.6 -0.4
v 0.4 2.7 -0.4
v 0.4 2.8 -0.4
v 0.5 2 -0.4
v 0.5 2.2 -0.4
v 0.5 2.6 -0.4
v 0.5 2.7 -0.4
v 0.5 2.8 -0.4
v -0.1 2.1 -0.5
v -0.1 2.4 -0.5
v -0.1 2.7 -0.5
v -0.1 2.8 -0.5
v 0 2.7 -0.5
v 0 2.8 -0.5
v 0.1 2.1 -0.5
v 0.1 2.4 -0.5
v 0.1 2.7 -0.5
v 0.1 2.8 -0.5
v -0.4 1 0.2
v -0.1 1 0.2
v 0.1 1 0.2
v 0.4 1 0.2
v -0.4 1 -0.2
v -0.1 1 -0.2
v 0.1 1 -0.2
v 0.4 1 -0.2
v -0.6 1.3 0.1
v -0.4 1.3 0.1
v 0.4 1.3 0.1
v 0.6 1.3 0.1
v 0.4 1.3 0
v -0.6 1.3 -0.1
v -0.4 1.3 -0.1
v 0.4 1.3 -0.1
v 0.6 1.3 -0.1
v -0.4 1.4 0.3
v -0.1 1.4 0.3
v 0.1 1.4 0.3
v 0.4 1.4 0.3
v -0.4 1.4 0.2
v -0.3 1.4 0.2
v -0.1 1.4 0.2
v 0.1 1.4 0.2
v 0.4 1.4 0.2
v -0.1 1.4 0
v -0.4 1.4 -0.1
v -0.2 1.4 -0.1
v -0.1 1.4 -0.1
v 0.1 1.4 -0.1
v 0.4 1.4 -0.1
v -0.4 1.4 -0.2
v 0.4 1.4 -0.2
v -0.1 1.5 0.3
v 0.1 1.5 0.3
v -0.1 1.5 0.2
v 0.1 1.5 0.2
v -0.4 1.9 0.5
v 0.4 1.9 0.5
v -0.5 1.9 0.3
v -0.4 1.9 0.3
v -0.3 1.9 0.3
v -0.2 1.9 0.3
v 0.2 1.9 0.3
v 0.3 1.9 0.3
v 0.4 1.9 0.3
v 0.5 1.9 0.3
v -0.4 1.9 0.2
v -0.3 1.9 0.2
v 0.3 1.9 0.2
v 0.4 1.9 0.2
v -0.5 1.9 0.1
v -0.4 1.9 0.1
v 0.4 1.9 0.1
v 0.5 1.9 0.1
v -0.5 1.9 -0.1
v -0.4 1.9 -0.1
v 0.4 1.9 -0.1
v 0.5 1.9 -0.1
v -0.4 1.9 -0.2
v -0.3 1.9 -0.2
v -0.2 1.9 -0.2
v 0.2 1.9 -0.2
v 0.3 1.9 -0.2
v 0.4 1.9 -0.2
v -0.5 1.9 -0.3
v -0.4 1.9 -0.3
v 0.4 1.9 -0.3
v 0.5 1.9 -0.3
v -0.4 1.9 -0.4
v 0.4 1.9 -0.4
v -0.5 2 0.5
v -0.4 2 0.5
v 0.4 2 0.5
v 0.5 2 0.5
v -0.5 2 0.3
v -0.4 2 0.3
v 0.4 2 0.3
v 0.5 2 0.3
v -0.5 2 -0.3
v -0.4 2 -0.3
v 0.4 2 -0.3
v 0.5 2 -0.3
v -0.5 2 -0.4
v -0.4 2 -0.4
v 0.4 2 -0.4
v 0.5 2 -0.4
v -0.1 2.1 0.8
v 0 2.1 0.8
v 0.1 2.1 0.8
v -0.1 2.1 0.7
v 0 2.1 0.7
v 0.1 2.1 0.7
v -0.1 2.1 -0.4
v 0.1 2.1 -0.4
v -0.1 2.1 -0.5
v 0.1 2.1 -0.5
v -0.7 2.2 0
v -0.5 2.2 0
v 0.5 2.2 0
v 0.7 2.2 0
v -0.7 2.2 -0.1
v -0.5 2.2 -0.1
v 0.5 2.2 -0.1
v 0.7 2.2 -0.1
v -0.1 2.3 0.9
v 0.1 2.3 0.9
v -0.1 2.3 0.8
v 0.1 2.3 0.8
v -0.3 2.3 0.6
v 0.3 2.3 0.6
v -0.3 2.3 0.5
v -0.2 2.3 0.5
v -0.1 2.3 0.5
v 0.3 2.3 0.5
v -0.2 2.4 0.7
v -0.1 2.4 0.7
v 0.1 2.4 0.7
v 0.2 2.4 0.7
v -0.2 2.4 0.6
v 0.2 2.4 0.6
v -0.1 2.7 -0.4
v 0 2.7 -0.4
v 0.1 2.7 -0.4
v -0.1 2.7 -0.5
v 0 2.7 -0.5
v 0.1 2.7 -0.5
v -0.4 1.2 -0.1
v -0.1 1.2 -0.1
v 0.1 1.2 -0.1
v 0.3 1.2 -0.1
v 0.4 1.2 -0.1
v -0.4 1.2 -0.2
v -0.1 1.2 -0.2
v 0.1 1.2 -0.2
v 0.4 1.2 -0.2
v -0.4 1.8 0.3
v -0.3 1.8 0.3
v 0.3 1.8 0.3
v 0.4 1.8 0.3
v -0.4 1.8 0.2
v -0.3 1.8 0.2
v 0.3 1.8 0.2
v 0.4 1.8 0.2
v -0.6 1.9 0.1
v -0.5 1.9 0.1
v 0.5 1.9 0.1
v 0.6 1.9 0.1
v -0.6 1.9 -0.1
v -0.5 1.9 -0.1
v 0.5 1.9 -0.1
v 0.6 1.9 -0.1
v -0.1 2.4 -0.4
v 0.1 2.4 -0.4
v -0.1 2.4 -0.5
v 0.1 2.4 -0.5
v -0.7 2.5 0
v -0.5 2.5 0
v 0.5 2.5 0
v 0.7 2.5 0
v -0.7 2.5 -0.1
v -0.5 2.5 -0.1
v 0.5 2.5 -0.1
v 0.7 2.5 -0.1
v -0.1 2.7 0.9
v 0.1 2.7 0.9
v -0.1 2.7 0.8
v 0.1 2.7 0.8
v -0.2 2.7 0.7
v -0.1 2.7 0.7
v 0.1 2.7 0.7
v 0.2 2.7 0.7
v -0.3 2.7 0.6
v -0.2 2.7 0.6
v -0.1 2.7 0.6
v 0.1 2.7 0.6
v 0.2 2.7 0.6
v 0.3 2.7 0.6
v -0.5 2.7 0.5
v -0.4 2.7 0.5
v -0.3 2.7 0.5
v -0.2 2.7 0.5
v 0.2 2.7 0.5
v 0.3 2.7 0.5
v 0.5 2.7 0.5
v -0.5 2.7 0.4
v -0.4 2.7 0.4
v 0.3 2.7 0.4
v 0.5 2.7 0.4
v -0.2 2.8 0.6
v -0.1 2.8 0.6
v 0.1 2.8 0.6
v 0.2 2.8 0.6
v -0.4 2.8 0.5
v -0.3 2.8 0.5
v -0.2 2.8 0.5
v -0.1 2.8 0.5
v 0.1 2.8 0.5
v 0.2 2.8 0.5
v 0.3 2.8 0.5
v -0.5 2.8 0.4
v -0.4 2.8 0.4
v -0.3 2.8 0.4
v -0.2 2.8 0.4
v -0.1 2.8 0.4
v 0.2 2.8 0.4
v 0.3 2.8 0.4
v 0.5 2.8 0.4
v -0.4 2.8 0.3
v -0.3 2.8 0.3
v 0.3 2.8 0.3
v 0.4 2.8 0.3
v 0.4 2.8 0.1
v 0.5 2.8 0.1
v -0.5 2.8 0
v -0.4 2.8 0
v 0.4 2.8 0
v 0.5 2.8 0
v -0.5 2.8 -0.1
v -0.4 2.8 -0.1
v 0.4 2.8 -0.1
v -0.4 2.8 -0.2
v -0.4 2.8 -0.3
v -0.3 2.8 -0.3
v 0 2.8 -0.3
v 0.2 2.8 -0.3
v 0.4 2.8 -0.3
v 0.5 2.8 -0.3
v -0.5 2.8 -0.4
v -0.1 2.8 -0.4
v 0 2.8 -0.4
v 0.1 2.8 -0.4
v 0.4 2.8 -0.4
v 0.5 2.8 -0.4
v -0.1 2.8 -0.5
v 0 2.8 -0.5
v 0.1 2.8 -0.5
v -0.1 2.9 0.8
v 0.1 2.9 0.8
v -0.1 2.9 0.7
v 0.1 2.9 0.7
v 0.1 2.9 0.5
v 0.2 2.9 0.5
v -0.3 2.9 0.4
v -0.1 2.9 0.4
v 0.1 2.9 0.4
v 0.2 2.9 0.4
v 0.3 2.9 0.4
v -0.4 2.9 0.3
v -0.3 2.9 0.3
v -0.2 2.9 0.3
v 0.2 2.9 0.3
v 0.3 2.9 0.3
v 0.4 2.9 0.3
v 0.2 2.9 0.2
v 0.3 2.9 0.2
v -0.3 2.9 0.1
v -0.2 2.9 0.1
v -0.1 2.9 0.1
v -0.2 2.9 0
v -0.1 2.9 0
v 0.2 2.9 0
v 0.4 2.9 0
v -0.3 2.9 -0.1
v -0.2 2.9 -0.1
v 0.2 2.9 -0.1
v 0.4 2.9 -0.1
v -0.4 2.9 -0.2
v -0.3 2.9 -0.2
v -0.2 2.9 -0.2
v 0 2.9 -0.2
v 0.2 2.9 -0.2
v -0.4 2.9 -0.3
v -0.3 2.9 -0.3
v 0 2.9 -0.3
v 0.2 2.9 -0.3
v 0.4 2.9 -0.3
v -0.1 3 0.7
v 0.1 3 0.7
v -0.1 3 0.4
v 0.1 3 0.4

# faces
f 3/1/1 2/1/1 1/1/1
f 4/1/1 2/1/1 3/1/1
f 7/2/1 6/2/1 5/2/1
f 8/2/1 6/2/1 7/2/1
f 9/6/1 8/6/1 7/6/1
f 10/6/1 8/6/1 9/6/1
f 16/2/1 12/2/1 11/2/1
f 16/2/1 14/2/1 13/2/1
f 16/2/1 13/2/1 12/2/1
f 17/2/1 14/2/1 16/2/1
f 19/2/1 16/2/1 15/2/1
f 19/2/1 17/2/1 16/2/1
f 20/2/1 17/2/1 19/2/1
f 21/2/1 17/2/1 20/2/1
f 22/2/1 17/2/1 21/2/1
f 23/1/1 18/1/1 17/1/1
f 23/2/1 17/2/1 22/2/1
f 24/1/1 18/1/1 23/1/1
f 25/7/1 20/7/1 19/7/1
f 26/7/1 20/7/1 25/7/1
f 27/2/1 21/2/1 20/2/1
f 27/7/1 20/7/1 26/7/1
f 28/2/1 21/2/1 27/2/1
f 29/8/1 26/8/1 25/8/1
f 30/7/1 27/7/1 26/7/1
f 30/8/1 26/8/1 29/8/1
f 30/7/1 28/7/1 27/7/1
f 31/2/1 21/2/1 28/2/1
f 31/7/1 28/7/1 30/7/1
f 32/2/1 21/2/1 31/2/1
f 33/7/1 30/7/1 29/7/1
f 33/7/1 31/7/1 30/7/1
f 33/7/1 32/7/1 31/7/1
f 34/7/1 32/7/1 33/7/1
f 35/7/1 32/7/1 34/7/1
f 36/2/1 24/2/1 23/2/1
f 36/2/1 23/2/1 22/2/1
f 37/2/1 24/2/1 36/2/1
f 38/8/1 34/8/1 33/8/1
f 38/7/1 33/7/1 29/7/1
f 39/7/1 35/7/1 34/7/1
f 39/8/1 34/8/1 38/8/1
f 39/7/1 37/7/1 36/7/1
f 39/7/1 36/7/1 35/7/1
f 40/7/1 37/7/1 39/7/1
f 41/7/1 37/7/1 40/7/1
f 42/2/1 24/2/1 37/2/1
f 42/7/1 37/7/1 41/7/1
f 43/2/1 24/2/1 42/2/1
f 44/7/1 38/7/1 29/7/1
f 44/7/1 39/7/1 38/7/1
f 45/7/1 39/7/1 44/7/1
f 46/8/1 40/8/1 39/8/1
f 46/7/1 39/7/1 45/7/1
f 47/7/1 41/7/1 40/7/1
f 47/8/1 40/8/1 46/8/1
f 48/8/1 42/8/1 41/8/1
f 48/7/1 41/7/1 47/7/1
f 49/7/1 43/7/1 42/7/1
f 49/8/1 42/8/1 48/8/1
f 50/7/1 46/7/1 45/7/1
f 50/7/1 47/7/1 46/7/1
f 51/8/1 48/8/1 47/8/1
f 51/7/1 47/7/1 50/7/1
f 52/7/1 49/7/1 48/7/1
f 52/8/1 48/8/1 51/8/1
f 53/7/1 43/7/1 49/7/1
f 53/7/1 49/7/1 52/7/1
f 56/3/1 55/3/1 54/3/1
f 57/3/1 55/3/1 56/3/1
f 58/3/1 55/3/1 57/3/1
f 59/7/1 57/7/1 56/7/1
f 60/7/1 57/7/1 59/7/1
f 61/7/1 57/7/1 60/7/1
f 63/4/1 60/4/1 59/4/1
f 64/4/1 60/4/1 63/4/1
f 67/7/1 64/7/1 63/7/1
f 67/7/1 63/7/1 62/7/1
f 68/7/1 64/7/1 67/7/1
f 69/7/1 66/7/1 65/7/1
f 70/7/1 66/7/1 69/7/1
f 71/6/1 68/6/1 67/6/1
f 72/6/1 70/6/1 69/6/1
f 73/6/1 71/6/1 67/6/1
f 74/6/1 71/6/1 73/6/1
f 75/6/1 71/6/1 74/6/1
f 76/6/1 70/6/1 72/6/1
f 77/6/1 70/6/1 76/6/1
f 80/2/1 75/2/1 74/2/1
f 81/2/1 75/2/1 80/2/1
f 82/2/1 77/2/1 76/2/1
f 83/2/1 77/2/1 82/2/1
f 86/2/1 79/2/1 78/2/1
f 87/2/1 79/2/1 86/2/1
f 88/2/1 85/2/1 84/2/1
f 89/2/1 85/2/1 88/2/1
f 92/7/1 91/7/1 90/7/1
f 93/7/1 91/7/1 92/7/1
f 99/7/1 95/7/1 94/7/1
f 99/7/1 97/7/1 96/7/1
f 99/7/1 96/7/1 95/7/1
f 100/8/1 98/8/1 97/8/1
f 100/7/1 97/7/1 99/7/1
f 101/8/1 98/8/1 100/8/1
f 104/6/1 103/6/1 102/6/1
f 105/6/1 103/6/1 104/6/1
f 108/7/1 107/7/1 106/7/1
f 109/7/1 108/7/1 106/7/1
f 110/7/1 109/7/1 106/7/1
f 111/7/1 109/7/1 110/7/1
f 114/7/1 113/7/1 112/7/1
f 115/7/1 113/7/1 114/7/1
f 118/7/1 117/7/1 116/7/1
f 119/7/1 117/7/1 118/7/1
f 121/7/1 120/7/1 119/7/1
f 122/7/1 120/7/1 121/7/1
f 128/7/1 124/7/1 123/7/1
f 129/7/1 128/7/1 127/7/1
f 130/7/1 124/7/1 128/7/1
f 130/7/1 128/7/1 129/7/1
f 131/7/1 124/7/1 130/7/1
f 132/1/1 126/1/1 125/1/1
f 133/1/1 126/1/1 132/1/1
f 134/8/1 130/8/1 129/8/1
f 135/7/1 131/7/1 130/7/1
f 135/8/1 130/8/1 134/8/1
f 136/7/1 131/7/1 135/7/1
f 137/7/1 135/7/1 134/7/1
f 137/8/1 136/8/1 135/8/1
f 138/8/1 136/8/1 137/8/1
f 139/7/1 137/7/1 134/7/1
f 139/7/1 138/7/1 137/7/1
f 140/7/1 138/7/1 139/7/1
f 141/7/1 138/7/1 140/7/1
f 145/7/1 141/7/1 140/7/1
f 145/7/1 142/7/1 141/7/1
f 148/8/1 144/8/1 143/8/1
f 149/8/1 144/8/1 148/8/1
f 150/7/1 145/7/1 140/7/1
f 151/7/1 145/7/1 150/7/1
f 152/8/1 146/8/1 145/8/1
f 152/7/1 145/7/1 151/7/1
f 153/7/1 147/7/1 146/7/1
f 153/8/1 146/8/1 152/8/1
f 154/7/1 147/7/1 153/7/1
f 155/7/1 152/7/1 151/7/1
f 155/7/1 154/7/1 153/7/1
f 155/7/1 153/7/1 152/7/1
f 156/7/1 154/7/1 155/7/1
f 159/3/1 158/3/1 157/3/1
f 160/3/1 158/3/1 159/3/1
f 161/3/1 158/3/1 160/3/1
f 162/3/1 158/3/1 161/3/1
f 163/4/1 160/4/1 159/4/1
f 164/7/1 161/7/1 160/7/1
f 164/4/1 160/4/1 163/4/1
f 166/7/1 164/7/1 163/7/1
f 167/7/1 161/7/1 164/7/1
f 167/7/1 164/7/1 166/7/1
f 168/7/1 166/7/1 165/7/1
f 169/7/1 166/7/1 168/7/1
f 170/3/2 171/3/2 172/3/2
f 172/3/2 171/3/2 173/3/2
f 173/3/2 171/3/2 174/3/2
f 172/7/2 173/7/2 175/7/2
f 175/7/2 173/7/2 176/7/2
f 172/7/2 175/7/2 178/7/2
f 175/4/2 176/4/2 179/4/2
f 178/7/2 175/7/2 179/7/2
f 179/4/2 176/4/2 180/4/2
f 177/7/2 178/7/2 181/7/2
f 181/7/2 178/7/2 182/7/2
f 183/8/2 184/8/2 187/8/2
f 187/8/2 184/8/2 188/8/2
f 187/7/2 188/7/2 190/7/2
f 190/7/2 188/7/2 191/7/2
f 189/7/2 190/7/2 191/7/2
f 185/1/2 186/1/2 192/1/2
f 192/1/2 186/1/2 193/1/2
f 189/7/2 191/7/2 194/7/2
f 194/7/2 191/7/2 195/7/2
f 189/7/2 194/7/2 196/7/2
f 194/8/2 195/8/2 197/8/2
f 196/7/2 194/7/2 197/7/2
f 197/8/2 195/8/2 198/8/2
f 197/7/2 198/7/2 202/7/2
f 198/8/2 199/8/2 202/8/2
f 202/8/2 199/8/2 203/8/2
f 200/7/2 201/7/2 205/7/2
f 205/7/2 201/7/2 206/7/2
f 203/7/2 204/7/2 207/7/2
f 197/7/2 202/7/2 207/7/2
f 202/7/2 203/7/2 207/7/2
f 207/7/2 204/7/2 208/7/2
f 208/7/2 204/7/2 209/7/2
f 209/7/2 210/7/2 211/7/2
f 208/7/2 209/7/2 211/7/2
f 211/7/2 210/7/2 212/7/2
f 213/7/2 214/7/2 215/7/2
f 213/7/2 215/7/2 216/7/2
f 216/7/2 215/7/2 217/7/2
f 217/7/2 218/7/2 219/7/2
f 219/7/2 218/7/2 220/7/2
f 220/7/2 221/7/2 222/7/2
f 222/7/2 221/7/2 223/7/2
f 224/6/2 225/6/2 226/6/2
f 226/6/2 225/6/2 227/6/2
f 228/7/2 229/7/2 230/7/2
f 230/7/2 229/7/2 231/7/2
f 230/8/2 231/8/2 232/8/2
f 232/8/2 231/8/2 233/8/2
f 232/7/2 233/7/2 234/7/2
f 234/7/2 233/7/2 235/7/2
f 235/8/2 236/8/2 237/8/2
f 237/8/2 236/8/2 238/8/2
f 238/7/2 239/7/2 240/7/2
f 240/7/2 239/7/2 241/7/2
f 242/3/2 243/3/2 244/3/2
f 244/3/2 243/3/2 245/3/2
f 245/3/2 243/3/2 246/3/2
f 246/3/2 243/3/2 247/3/2
f 244/7/2 245/7/2 248/7/2
f 245/4/2 246/4/2 249/4/2
f 248/7/2 245/7/2 249/7/2
f 249/4/2 246/4/2 250/4/2
f 244/7/2 248/7/2 252/7/2
f 251/7/2 252/7/2 255/7/2
f 252/7/2 248/7/2 256/7/2
f 255/7/2 252/7/2 256/7/2
f 256/7/2 248/7/2 257/7/2
f 253/7/2 254/7/2 258/7/2
f 258/7/2 254/7/2 259/7/2
f 256/5/2 257/5/2 260/5/2
f 255/6/2 256/6/2 260/6/2
f 260/5/2 257/5/2 261/5/2
f 260/6/2 261/6/2 262/6/2
f 258/6/2 259/6/2 263/6/2
f 260/6/2 262/6/2 264/6/2
f 255/6/2 260/6/2 264/6/2
f 264/6/2 262/6/2 265/6/2
f 265/6/2 262/6/2 266/6/2
f 263/6/2 259/6/2 267/6/2
f 267/6/2 259/6/2 268/6/2
f 265/2/2 266/2/2 271/2/2
f 271/2/2 266/2/2 272/2/2
f 267/2/2 268/2/2 273/2/2
f 273/2/2 268/2/2 274/2/2
f 269/2/2 270/2/2 277/2/2
f 277/2/2 270/2/2 278/2/2
f 275/2/2 276/2/2 279/2/2
f 279/2/2 276/2/2 280/2/2
f 281/7/2 282/7/2 286/7/2
f 282/7/2 283/7/2 286/7/2
f 283/8/2 284/8/2 287/8/2
f 286/7/2 283/7/2 287/7/2
f 284/7/2 285/7/2 288/7/2
f 287/8/2 284/8/2 288/8/2
f 288/7/2 285/7/2 289/7/2
f 290/2/2 291/2/2 295/2/2
f 292/2/2 293/2/2 295/2/2
f 291/2/2 292/2/2 295/2/2
f 295/2/2 293/2/2 296/2/2
f 294/2/2 295/2/2 298/2/2
f 295/2/2 296/2/2 298/2/2
f 298/2/2 296/2/2 299/2/2
f 299/2/2 296/2/2 300/2/2
f 300/2/2 296/2/2 301/2/2
f 296/1/2 297/1/2 302/1/2
f 301/2/2 296/2/2 302/2/2
f 302/1/2 297/1/2 303/1/2
f 298/7/2 299/7/2 304/7/2
f 299/2/2 300/2/2 304/2/2
f 304/2/2 300/2/2 305/2/2
f 298/7/2 304/7/2 306/7/2
f 304/7/2 305/7/2 306/7/2
f 305/2/2 300/2/2 307/2/2
f 306/7/2 305/7/2 307/7/2
f 307/2/2 300/2/2 308/2/2
f 298/7/2 306/7/2 309/7/2
f 306/8/2 307/8/2 310/8/2
f 309/7/2 306/7/2 310/7/2
f 307/7/2 308/7/2 311/7/2
f 310/8/2 307/8/2 311/8/2
f 311/7/2 308/7/2 312/7/2
f 312/7/2 308/7/2 313/7/2
f 302/2/2 303/2/2 314/2/2
f 301/2/2 302/2/2 314/2/2
f 314/2/2 303/2/2 315/2/2
f 298/7/2 309/7/2 316/7/2
f 309/8/2 310/8/2 316/8/2
f 310/7/2 311/7/2 317/7/2
f 316/8/2 310/8/2 317/8/2
f 312/7/2 313/7/2 318/7/2
f 314/7/2 315/7/2 318/7/2
f 313/7/2 314/7/2 318/7/2
f 315/2/2 303/2/2 319/2/2
f 318/7/2 315/7/2 319/7/2
f 319/2/2 303/2/2 320/2/2
f 298/7/2 316/7/2 321/7/2
f 316/7/2 317/7/2 321/7/2
f 321/7/2 317/7/2 322/7/2
f 317/7/2 311/7/2 323/7/2
f 322/7/2 317/7/2 323/7/2
f 311/8/2 312/8/2 323/8/2
f 312/7/2 318/7/2 324/7/2
f 323/8/2 312/8/2 324/8/2
f 324/7/2 318/7/2 325/7/2
f 318/8/2 319/8/2 326/8/2
f 325/7/2 318/7/2 326/7/2
f 319/7/2 320/7/2 327/7/2
f 326/8/2 319/8/2 327/8/2
f 327/7/2 320/7/2 328/7/2
f 328/7/2 320/7/2 329/7/2
f 322/7/2 323/7/2 330/7/2
f 323/7/2 324/7/2 330/7/2
f 324/8/2 325/8/2 331/8/2
f 330/7/2 324/7/2 331/7/2
f 325/7/2 326/7/2 332/7/2
f 331/8/2 325/8/2 332/8/2
f 327/7/2 328/7/2 332/7/2
f 326/7/2 327/7/2 332/7/2
f 328/8/2 329/8/2 333/8/2
f 332/7/2 328/7/2 333/7/2
f 333/8/2 329/8/2 334/8/2
f 335/2/2 336/2/2 337/2/2
f 337/2/2 336/2/2 338/2/2
f 337/6/2 338/6/2 339/6/2
f 339/6/2 338/6/2 340/6/2
f 341/1/2 342/1/2 343/1/2
f 343/1/2 342/1/2 344/1/2
f 349/7/3 346/7/3 345/7/3
f 349/8/3 347/8/3 346/8/3
f 350/7/3 348/7/3 347/7/3
f 350/8/3 347/8/3 349/8/3
f 351/7/3 349/7/3 345/7/3
f 351/7/3 350/7/3 349/7/3
f 352/7/3 348/7/3 350/7/3
f 352/7/3 350/7/3 351/7/3
f 357/7/3 354/7/3 353/7/3
f 358/7/3 354/7/3 357/7/3
f 359/8/3 358/8/3 357/8/3
f 360/7/3 354/7/3 358/7/3
f 360/8/3 358/8/3 359/8/3
f 361/7/3 354/7/3 360/7/3
f 362/7/3 356/7/3 355/7/3
f 363/7/3 356/7/3 362/7/3
f 366/7/3 365/7/3 364/7/3
f 367/7/3 365/7/3 366/7/3
f 368/7/3 365/7/3 367/7/3
f 369/7/3 365/7/3 368/7/3
f 375/7/3 371/7/3 370/7/3
f 376/7/3 371/7/3 375/7/3
f 377/7/3 374/7/3 373/7/3
f 377/7/3 373/7/3 372/7/3
f 378/7/3 374/7/3 377/7/3
f 381/7/3 380/7/3 379/7/3
f 382/7/3 380/7/3 381/7/3
f 384/7/3 383/7/3 382/7/3
f 385/7/3 383/7/3 384/7/3
f 388/7/3 381/7/3 379/7/3
f 390/7/3 387/7/3 386/7/3
f 391/7/3 387/7/3 390/7/3
f 392/7/3 388/7/3 379/7/3
f 393/8/3 389/8/3 388/8/3
f 393/7/3 388/7/3 392/7/3
f 394/7/3 390/7/3 389/7/3
f 394/8/3 389/8/3 393/8/3
f 395/7/3 390/7/3 394/7/3
f 402/2/3 397/2/3 396/2/3
f 403/7/3 398/7/3 397/7/3
f 403/8/3 399/8/3 398/8/3
f 404/7/3 400/7/3 399/7/3
f 404/8/3 399/8/3 403/8/3
f 405/7/3 400/7/3 404/7/3
f 406/7/3 400/7/3 405/7/3
f 408/2/3 402/2/3 401/2/3
f 408/2/3 397/2/3 402/2/3
f 409/7/3 403/7/3 397/7/3
f 409/2/3 397/2/3 408/2/3
f 409/7/3 404/7/3 403/7/3
f 410/7/3 404/7/3 409/7/3
f 411/8/3 405/8/3 404/8/3
f 411/7/3 404/7/3 410/7/3
f 412/7/3 407/7/3 406/7/3
f 412/8/3 405/8/3 411/8/3
f 412/7/3 406/7/3 405/7/3
f 413/7/3 407/7/3 412/7/3
f 414/7/3 407/7/3 413/7/3
f 415/7/3 409/7/3 408/7/3
f 415/7/3 410/7/3 409/7/3
f 416/7/3 410/7/3 415/7/3
f 417/8/3 414/8/3 413/8/3
f 418/8/3 414/8/3 417/8/3
f 419/8/3 416/8/3 415/8/3
f 419/7/3 415/7/3 408/7/3
f 420/8/3 416/8/3 419/8/3
f 424/7/3 422/7/3 421/7/3
f 425/7/3 422/7/3 424/7/3
f 426/2/3 408/2/3 401/2/3
f 426/7/3 420/7/3 419/7/3
f 426/7/3 419/7/3 408/7/3
f 427/7/3 420/7/3 426/7/3
f 428/7/3 420/7/3 427/7/3
f 431/8/3 424/8/3 423/8/3
f 432/8/3 424/8/3 431/8/3
f 433/2/3 426/2/3 401/2/3
f 433/2/3 427/2/3 426/2/3
f 434/2/3 427/2/3 433/2/3
f 435/7/3 428/7/3 427/7/3
f 435/8/3 429/8/3 428/8/3
f 436/7/3 430/7/3 429/7/3
f 436/8/3 429/8/3 435/8/3
f 436/7/3 431/7/3 430/7/3
f 437/2/3 427/2/3 434/2/3
f 438/7/3 435/7/3 427/7/3
f 438/2/3 427/2/3 437/2/3
f 438/7/3 436/7/3 435/7/3
f 439/7/3 431/7/3 436/7/3
f 439/7/3 436/7/3 438/7/3
f 442/7/3 441/7/3 440/7/3
f 443/7/3 441/7/3 442/7/3
f 446/7/3 445/7/3 444/7/3
f 447/7/3 445/7/3 446/7/3
f 448/7/3 445/7/3 447/7/3
f 452/7/3 450/7/3 449/7/3
f 453/7/3 450/7/3 452/7/3
f 454/7/3 452/7/3 451/7/3
f 455/7/3 452/7/3 454/7/3
f 461/2/3 457/2/3 456/2/3
f 462/2/3 457/2/3 461/2/3
f 465/6/3 460/6/3 459/6/3
f 467/7/3 464/7/3 463/7/3
f 468/7/3 464/7/3 467/7/3
f 469/6/3 466/6/3 465/6/3
f 469/6/3 465/6/3 459/6/3
f 470/6/3 466/6/3 469/6/3
f 471/7/3 459/7/3 458/7/3
f 472/6/3 469/6/3 459/6/3
f 472/7/3 459/7/3 471/7/3
f 473/6/3 469/6/3 472/6/3
f 474/6/3 469/6/3 473/6/3
f 476/6/3 473/6/3 472/6/3
f 477/5/3 474/5/3 473/5/3
f 477/6/3 473/6/3 476/6/3
f 478/6/3 469/6/3 474/6/3
f 478/5/3 474/5/3 477/5/3
f 479/2/3 470/2/3 469/2/3
f 479/6/3 469/6/3 478/6/3
f 480/6/3 478/6/3 477/6/3
f 480/6/3 477/6/3 476/6/3
f 480/5/3 479/5/3 478/5/3
f 481/2/3 470/2/3 479/2/3
f 481/5/3 479/5/3 480/5/3
f 482/2/3 470/2/3 481/2/3
f 483/6/3 481/6/3 480/6/3
f 483/6/3 482/6/3 481/6/3
f 484/6/3 482/6/3 483/6/3
f 487/7/3 476/7/3 475/7/3
f 488/6/3 480/6/3 476/6/3
f 488/7/3 476/7/3 487/7/3
f 488/6/3 483/6/3 480/6/3
f 489/6/3 483/6/3 488/6/3
f 492/7/3 486/7/3 485/7/3
f 493/7/3 486/7/3 492/7/3
f 494/2/3 491/2/3 490/2/3
f 495/2/3 491/2/3 494/2/3
f 502/7/3 498/7/3 497/7/3
f 502/4/3 499/4/3 498/4/3
f 503/4/3 499/4/3 502/4/3
f 504/2/3 501/2/3 500/2/3
f 505/2/3 501/2/3 504/2/3
f 506/3/3 497/3/3 496/3/3
f 507/7/3 503/7/3 502/7/3
f 507/3/3 497/3/3 506/3/3
f 507/7/3 502/7/3 497/7/3
f 508/7/3 503/7/3 507/7/3
f 513/7/3 509/7/3 508/7/3
f 514/7/3 509/7/3 513/7/3
f 515/4/3 512/4/3 511/4/3
f 515/3/3 511/3/3 510/3/3
f 516/7/3 513/7/3 512/7/3
f 516/4/3 512/4/3 515/4/3
f 519/3/3 515/3/3 510/3/3
f 520/7/3 516/7/3 515/7/3
f 520/3/3 515/3/3 519/3/3
f 521/7/3 513/7/3 516/7/3
f 521/7/3 516/7/3 520/7/3
f 522/2/3 518/2/3 517/2/3
f 523/2/3 518/2/3 522/2/3
f 527/6/3 526/6/3 525/6/3
f 528/2/3 525/2/3 524/2/3
f 529/2/3 525/2/3 528/2/3
f 530/2/3 525/2/3 529/2/3
f 531/6/3 527/6/3 525/6/3
f 531/2/3 525/2/3 530/2/3
f 532/6/3 527/6/3 531/6/3
f 533/6/3 527/6/3 532/6/3
f 540/6/3 538/6/3 537/6/3
f 540/6/3 539/6/3 538/6/3
f 541/2/3 535/2/3 534/2/3
f 541/2/3 536/2/3 535/2/3
f 541/2/3 537/2/3 536/2/3
f 542/6/3 540/6/3 537/6/3
f 542/2/3 537/2/3 541/2/3
f 543/6/3 540/6/3 542/6/3
f 546/1/3 545/1/3 544/1/3
f 547/1/3 545/1/3 546/1/3
f 548/1/3 545/1/3 547/1/3
f 552/1/3 550/1/3 549/1/3
f 552/1/3 551/1/3 550/1/3
f 553/1/3 551/1/3 552/1/3
f 554/7/4 555/7/4 556/7/4
f 556/7/4 555/7/4 557/7/4
f 556/8/4 557/8/4 558/8/4
f 557/7/4 555/7/4 559/7/4
f 558/8/4 557/8/4 559/8/4
f 559/7/4 555/7/4 560/7/4
f 561/7/4 562/7/4 563/7/4
f 563/7/4 562/7/4 564/7/4
f 568/6/4 569/6/4 570/6/4
f 565/1/4 566/1/4 571/1/4
f 571/1/4 566/1/4 572/1/4
f 567/2/4 568/2/4 574/2/4
f 574/2/4 568/2/4 575/2/4
f 575/2/4 568/2/4 576/2/4
f 568/6/4 570/6/4 577/6/4
f 576/2/4 568/2/4 577/2/4
f 577/6/4 570/6/4 578/6/4
f 578/6/4 570/6/4 579/6/4
f 573/7/4 574/7/4 580/7/4
f 574/7/4 575/7/4 580/7/4
f 580/7/4 575/7/4 581/7/4
f 573/7/4 580/7/4 582/7/4
f 580/4/4 581/4/4 583/4/4
f 582/7/4 580/7/4 583/7/4
f 583/4/4 581/4/4 584/4/4
f 585/7/4 586/7/4 587/7/4
f 587/7/4 586/7/4 588/7/4
f 587/4/4 588/4/4 589/4/4
f 588/7/4 586/7/4 590/7/4
f 589/4/4 588/4/4 590/4/4
f 590/7/4 586/7/4 591/7/4
f 594/6/4 595/6/4 596/6/4
f 593/6/4 594/6/4 596/6/4
f 590/2/4 591/2/4 599/2/4
f 592/2/4 593/2/4 599/2/4
f 591/2/4 592/2/4 599/2/4
f 593/6/4 596/6/4 600/6/4
f 599/2/4 593/2/4 600/2/4
f 600/6/4 596/6/4 601/6/4
f 597/1/4 598/1/4 602/1/4
f 602/1/4 598/1/4 603/1/4
f 607/6/4 608/6/4 610/6/4
f 608/2/4 609/2/4 610/2/4
f 610/2/4 609/2/4 611/2/4
f 607/6/4 610/6/4 612/6/4
f 610/6/4 611/6/4 612/6/4
f 612/6/4 611/6/4 613/6/4
f 604/3/4 605/3/4 614/3/4
f 614/3/4 605/3/4 615/3/4
f 606/7/4 607/7/4 618/7/4
f 607/6/4 612/6/4 618/6/4
f 618/6/4 612/6/4 619/6/4
f 606/7/4 618/7/4 620/7/4
f 618/5/4 619/5/4 620/5/4
f 619/6/4 612/6/4 621/6/4
f 620/5/4 619/5/4 621/5/4
f 621/6/4 612/6/4 622/6/4
f 612/2/4 613/2/4 623/2/4
f 622/6/4 612/6/4 623/6/4
f 623/2/4 613/2/4 624/2/4
f 621/5/4 622/5/4 625/5/4
f 620/6/4 621/6/4 625/6/4
f 623/6/4 624/6/4 626/6/4
f 625/5/4 622/5/4 626/5/4
f 622/6/4 623/6/4 626/6/4
f 626/6/4 624/6/4 627/6/4
f 627/6/4 624/6/4 628/6/4
f 616/3/4 617/3/4 629/3/4
f 629/3/4 617/3/4 630/3/4
f 606/7/4 620/7/4 631/7/4
f 620/6/4 625/6/4 632/6/4
f 631/7/4 620/7/4 632/7/4
f 625/6/4 626/6/4 632/6/4
f 626/6/4 627/6/4 632/6/4
f 627/2/4 628/2/4 633/2/4
f 632/6/4 627/6/4 633/6/4
f 633/2/4 628/2/4 634/2/4
f 635/2/4 636/2/4 637/2/4
f 637/2/4 636/2/4 638/2/4
f 639/8/4 640/8/4 641/8/4
f 641/8/4 640/8/4 642/8/4
f 641/7/4 642/7/4 643/7/4
f 643/7/4 642/7/4 644/7/4
f 643/8/4 644/8/4 645/8/4
f 645/8/4 644/8/4 646/8/4
f 645/7/4 646/7/4 649/7/4
f 649/7/4 646/7/4 650/7/4
f 647/2/4 648/2/4 651/2/4
f 651/2/4 648/2/4 652/2/4
f 653/1/4 654/1/4 658/1/4
f 654/2/4 655/2/4 659/2/4
f 659/2/4 655/2/4 660/2/4
f 655/7/4 656/7/4 661/7/4
f 660/2/4 655/2/4 661/2/4
f 661/7/4 656/7/4 662/7/4
f 657/2/4 658/2/4 663/2/4
f 658/1/4 654/1/4 663/1/4
f 654/2/4 659/2/4 664/2/4
f 663/1/4 654/1/4 664/1/4
f 659/9/4 660/9/4 665/9/4
f 664/2/4 659/2/4 665/2/4
f 663/2/4 664/2/4 666/2/4
f 664/9/4 665/9/4 666/9/4
f 665/9/4 660/9/4 667/9/4
f 666/9/4 665/9/4 667/9/4
f 660/7/4 661/7/4 667/7/4
f 661/2/4 662/2/4 668/2/4
f 667/7/4 661/7/4 668/7/4
f 663/2/4 666/2/4 669/2/4
f 666/2/4 667/2/4 669/2/4
f 667/2/4 668/2/4 669/2/4
f 669/2/4 668/2/4 670/2/4
f 668/2/4 662/2/4 671/2/4
f 670/2/4 668/2/4 671/2/4
f 662/7/4 656/7/4 671/7/4
f 671/7/4 656/7/4 672/7/4
f 670/2/4 671/2/4 673/2/4
f 663/2/4 669/2/4 674/2/4
f 670/2/4 673/2/4 675/2/4
f 675/2/4 673/2/4 676/2/4
f 675/2/4 676/2/4 678/2/4
f 674/2/4 675/2/4 678/2/4
f 678/2/4 676/2/4 679/2/4
f 679/2/4 676/2/4 680/2/4
f 657/2/4 663/2/4 681/2/4
f 663/2/4 674/2/4 681/2/4
f 674/2/4 678/2/4 681/2/4
f 678/9/4 679/9/4 682/9/4
f 681/2/4 678/2/4 682/2/4
f 682/9/4 679/9/4 683/9/4
f 657/2/4 681/2/4 684/2/4
f 681/1/4 682/1/4 685/1/4
f 684/2/4 681/2/4 685/2/4
f 683/9/4 679/9/4 686/9/4
f 682/2/4 683/2/4 686/2/4
f 679/7/4 680/7/4 687/7/4
f 686/9/4 679/9/4 687/9/4
f 680/2/4 676/2/4 688/2/4
f 687/7/4 680/7/4 688/7/4
f 676/7/4 677/7/4 689/7/4
f 688/2/4 676/2/4 689/2/4
f 689/7/4 677/7/4 690/7/4
f 685/1/4 682/1/4 691/1/4
f 687/2/4 688/2/4 692/2/4
f 691/1/4 682/1/4 692/1/4
f 686/2/4 687/2/4 692/2/4
f 682/2/4 686/2/4 692/2/4
f 688/7/4 689/7/4 693/7/4
f 692/2/4 688/2/4 693/2/4
f 689/8/4 690/8/4 694/8/4
f 693/7/4 689/7/4 694/7/4
f 694/8/4 690/8/4 695/8/4
f 698/8/4 699/8/4 700/8/4
f 700/8/4 699/8/4 701/8/4
f 696/1/4 697/1/4 702/1/4
f 702/1/4 697/1/4 703/1/4
f 700/7/4 701/7/4 704/7/4
f 704/7/4 701/7/4 705/7/4
f 710/3/5 707/3/5 706/3/5
f 711/3/5 707/3/5 710/3/5
f 712/3/5 709/3/5 708/3/5
f 713/3/5 709/3/5 712/3/5
f 718/2/5 717/2/5 716/2/5
f 719/2/5 715/2/5 714/2/5
f 720/2/5 715/2/5 719/2/5
f 721/2/5 717/2/5 718/2/5
f 722/2/5 717/2/5 721/2/5
f 727/7/5 724/7/5 723/7/5
f 728/7/5 724/7/5 727/7/5
f 729/7/5 724/7/5 728/7/5
f 730/7/5 726/7/5 725/7/5
f 731/7/5 726/7/5 730/7/5
f 732/7/5 730/7/5 729/7/5
f 735/7/5 730/7/5 732/7/5
f 736/7/5 730/7/5 735/7/5
f 738/7/5 734/7/5 733/7/5
f 738/7/5 737/7/5 736/7/5
f 738/7/5 736/7/5 735/7/5
f 738/7/5 735/7/5 734/7/5
f 739/7/5 737/7/5 738/7/5
f 742/6/5 741/6/5 740/6/5
f 743/6/5 741/6/5 742/6/5
f 747/2/5 745/2/5 744/2/5
f 748/2/5 745/2/5 747/2/5
f 749/2/5 745/2/5 748/2/5
f 750/2/5 745/2/5 749/2/5
f 751/2/5 745/2/5 750/2/5
f 752/2/5 745/2/5 751/2/5
f 754/2/5 747/2/5 746/2/5
f 754/2/5 748/2/5 747/2/5
f 755/2/5 748/2/5 754/2/5
f 756/2/5 753/2/5 752/2/5
f 756/2/5 752/2/5 751/2/5
f 757/2/5 753/2/5 756/2/5
f 758/2/5 754/2/5 746/2/5
f 759/2/5 754/2/5 758/2/5
f 760/2/5 753/2/5 757/2/5
f 761/2/5 753/2/5 760/2/5
f 766/2/5 763/2/5 762/2/5
f 771/2/5 765/2/5 764/2/5
f 772/2/5 770/2/5 769/2/5
f 772/2/5 771/2/5 770/2/5
f 772/2/5 766/2/5 762/2/5
f 772/2/5 767/2/5 766/2/5
f 772/2/5 769/2/5 768/2/5
f 772/2/5 768/2/5 767/2/5
f 773/2/5 771/2/5 772/2/5
f 774/2/5 765/2/5 771/2/5
f 774/2/5 771/2/5 773/2/5
f 775/2/5 765/2/5 774/2/5
f 776/2/5 774/2/5 773/2/5
f 777/2/5 774/2/5 776/2/5
f 782/2/5 779/2/5 778/2/5
f 783/2/5 779/2/5 782/2/5
f 784/2/5 781/2/5 780/2/5
f 785/2/5 781/2/5 784/2/5
f 790/1/5 787/1/5 786/1/5
f 791/1/5 787/1/5 790/1/5
f 792/1/5 789/1/5 788/1/5
f 793/1/5 789/1/5 792/1/5
f 797/7/5 795/7/5 794/7/5
f 798/8/5 796/8/5 795/8/5
f 798/7/5 795/7/5 797/7/5
f 799/8/5 796/8/5 798/8/5
f 802/1/5 801/1/5 800/1/5
f 803/1/5 801/1/5 802/1/5
f 808/1/5 805/1/5 804/1/5
f 809/1/5 805/1/5 808/1/5
f 810/1/5 807/1/5 806/1/5
f 811/1/5 807/1/5 810/1/5
f 814/7/5 813/7/5 812/7/5
f 815/7/5 813/7/5 814/7/5
f 818/7/5 817/7/5 816/7/5
f 819/7/5 817/7/5 818/7/5
f 820/7/5 817/7/5 819/7/5
f 821/7/5 817/7/5 820/7/5
f 826/7/5 823/7/5 822/7/5
f 826/7/5 825/7/5 824/7/5
f 826/7/5 824/7/5 823/7/5
f 827/7/5 825/7/5 826/7/5
f 831/8/5 829/8/5 828/8/5
f 832/7/5 830/7/5 829/7/5
f 832/8/5 829/8/5 831/8/5
f 833/7/5 830/7/5 832/7/5
f 834/3/6 835/3/6 839/3/6
f 839/3/6 835/3/6 840/3/6
f 837/3/6 838/3/6 841/3/6
f 836/3/6 837/3/6 841/3/6
f 841/3/6 838/3/6 842/3/6
f 843/6/6 844/6/6 847/6/6
f 847/6/6 844/6/6 848/6/6
f 845/6/6 846/6/6 849/6/6
f 849/6/6 846/6/6 850/6/6
f 851/6/6 852/6/6 855/6/6
f 855/6/6 852/6/6 856/6/6
f 853/6/6 854/6/6 857/6/6
f 857/6/6 854/6/6 858/6/6
f 859/1/6 860/1/6 861/1/6
f 861/1/6 860/1/6 862/1/6
f 863/1/6 864/1/6 867/1/6
f 867/1/6 864/1/6 868/1/6
f 865/1/6 866/1/6 869/1/6
f 869/1/6 866/1/6 870/1/6
f 871/7/6 872/7/6 873/7/6
f 873/7/6 872/7/6 874/7/6
f 875/7/6 876/7/6 880/7/6
f 880/7/6 876/7/6 881/7/6
f 877/7/6 878/7/6 882/7/6
f 882/7/6 878/7/6 883/7/6
f 879/7/6 880/7/6 887/7/6
f 887/7/6 880/7/6 888/7/6
f 883/7/6 884/7/6 889/7/6
f 889/7/6 884/7/6 890/7/6
f 885/7/6 886/7/6 892/7/6
f 892/7/6 886/7/6 893/7/6
f 890/7/6 891/7/6 894/7/6
f 894/7/6 891/7/6 895/7/6
f 896/7/6 897/7/6 902/7/6
f 902/7/6 897/7/6 903/7/6
f 898/7/6 899/7/6 904/7/6
f 904/7/6 899/7/6 905/7/6
f 900/7/6 901/7/6 908/7/6
f 901/8/6 902/8/6 909/8/6
f 908/7/6 901/7/6 909/7/6
f 902/7/6 903/7/6 910/7/6
f 909/8/6 902/8/6 910/8/6
f 910/7/6 903/7/6 911/7/6
f 905/8/6 906/8/6 912/8/6
f 912/8/6 906/8/6 913/8/6
f 908/7/6 909/7/6 915/7/6
f 907/7/6 908/7/6 915/7/6
f 915/7/6 909/7/6 916/7/6
f 913/7/6 914/7/6 917/7/6
f 917/7/6 914/7/6 918/7/6
f 918/7/6 914/7/6 919/7/6
f 919/7/6 914/7/6 920/7/6
f 907/7/6 915/7/6 921/7/6
f 921/7/6 915/7/6 922/7/6
f 919/8/6 920/8/6 923/8/6
f 923/8/6 920/8/6 924/8/6
f 921/8/6 922/8/6 925/8/6
f 925/8/6 922/8/6 926/8/6
f 923/7/6 924/7/6 927/7/6
f 925/7/6 926/7/6 928/7/6
f 925/7/6 928/7/6 929/7/6
f 927/7/6 924/7/6 933/7/6
f 933/7/6 924/7/6 934/7/6
f 931/7/6 932/7/6 935/7/6
f 925/7/6 929/7/6 935/7/6
f 929/7/6 930/7/6 935/7/6
f 932/7/6 933/7/6 935/7/6
f 930/7/6 931/7/6 935/7/6
f 935/7/6 933/7/6 936/7/6
f 936/7/6 933/7/6 937/7/6
f 937/7/6 933/7/6 938/7/6
f 933/8/6 934/8/6 939/8/6
f 938/7/6 933/7/6 939/7/6
f 939/8/6 934/8/6 940/8/6
f 936/8/6 937/8/6 941/8/6
f 937/7/6 938/7/6 942/7/6
f 941/8/6 937/8/6 942/8/6
f 942/7/6 938/7/6 943/7/6
f 944/7/6 945/7/6 946/7/6
f 946/7/6 945/7/6 947/7/6
f 948/7/6 949/7/6 952/7/6
f 952/7/6 949/7/6 953/7/6
f 950/7/6 951/7/6 956/7/6
f 953/7/6 954/7/6 956/7/6
f 952/7/6 953/7/6 956/7/6
f 951/7/6 952/7/6 956/7/6
f 956/7/6 954/7/6 957/7/6
f 957/7/6 954/7/6 958/7/6
f 958/7/6 954/7/6 959/7/6
f 957/7/6 958/7/6 961/7/6
f 958/8/6 959/8/6 961/8/6
f 959/7/6 960/7/6 962/7/6
f 961/8/6 959/8/6 962/8/6
f 955/7/6 956/7/6 963/7/6
f 956/8/6 957/8/6 963/8/6
f 961/7/6 962/7/6 964/7/6
f 963/8/6 957/8/6 964/8/6
f 957/7/6 961/7/6 964/7/6
f 964/7/6 962/7/6 965/7/6
f 963/7/6 964/7/6 966/7/6
f 964/8/6 965/8/6 966/8/6
f 965/7/6 962/7/6 967/7/6
f 966/8/6 965/8/6 967/8/6
f 967/7/6 962/7/6 968/7/6
f 962/7/6 960/7/6 969/7/6
f 968/7/6 962/7/6 969/7/6
f 967/7/6 968/7/6 970/7/6
f 955/7/6 963/7/6 970/7/6
f 963/7/6 966/7/6 970/7/6
f 966/7/6 967/7/6 970/7/6
f 970/7/6 968/7/6 971/7/6
f 968/8/6 969/8/6 972/8/6
f 971/7/6 968/7/6 972/7/6
f 972/8/6 969/8/6 973/8/6
f 955/7/6 970/7/6 974/7/6
f 970/8/6 971/8/6 975/8/6
f 974/7/6 970/7/6 975/7/6
f 971/7/6 972/7/6 976/7/6
f 975/8/6 971/8/6 976/8/6
f 972/7/6 973/7/6 976/7/6
f 976/7/6 973/7/6 977/7/6
f 977/7/6 973/7/6 978/7/6
f 974/8/6 975/8/6 979/8/6
f 975/7/6 976/7/6 980/7/6
f 979/8/6 975/8/6 980/8/6
f 976/7/6 977/7/6 980/7/6
f 977/8/6 978/8/6 981/8/6
f 980/7/6 977/7/6 981/7/6
f 978/7/6 973/7/6 982/7/6
f 981/8/6 978/8/6 982/8/6
f 982/7/6 973/7/6 983/7/6
f 984/7/6 985/7/6 986/7/6
f 986/7/6 985/7/6 987/7/6
