# MagicaVoxel @ Ephtracy

# group
o 

# material
mtllib OrangePlayer2.mtl
usemtl palette

# normals
vn -1 0 0
vn 1 0 0
vn 0 0 1
vn 0 0 -1
vn 0 -1 0
vn 0 1 0

# texcoords
vt 0.138672 0.5
vt 0.146484 0.5
vt 0.169922 0.5
vt 0.173828 0.5
vt 0.208984 0.5
vt 0.224609 0.5
vt 0.248047 0.5
vt 0.994141 0.5

# verts
v -0.7 2.2 0
v -0.7 2.2 -0.1
v -0.7 2.5 0
v -0.7 2.5 -0.1
v -0.6 1.3 0.1
v -0.6 1.3 -0.1
v -0.6 1.4 0.1
v -0.6 1.4 0
v -0.6 1.4 -0.1
v -0.6 1.5 0.1
v -0.6 1.5 0
v -0.6 1.5 -0.1
v -0.6 1.6 0.1
v -0.6 1.6 0
v -0.6 1.6 -0.1
v -0.6 1.7 0.1
v -0.6 1.7 0
v -0.6 1.7 -0.1
v -0.6 1.8 0.1
v -0.6 1.8 0
v -0.6 1.8 -0.1
v -0.6 1.9 0.1
v -0.6 1.9 0
v -0.6 1.9 -0.1
v -0.6 2.3 0.5
v -0.6 2.3 0
v -0.6 2.4 -0.1
v -0.6 2.4 -0.2
v -0.6 2.5 0
v -0.6 2.5 -0.1
v -0.6 2.5 -0.2
v -0.6 2.5 -0.3
v -0.6 2.6 -0.3
v -0.6 2.6 -0.4
v -0.6 2.7 0.5
v -0.6 2.7 0.4
v -0.6 2.7 -0.3
v -0.6 2.7 -0.4
v -0.6 2.8 0.4
v -0.6 2.8 -0.3
v -0.5 1.9 0.3
v -0.5 1.9 0.1
v -0.5 1.9 0
v -0.5 1.9 -0.1
v -0.5 1.9 -0.2
v -0.5 1.9 -0.4
v -0.5 2 0.5
v -0.5 2 0.3
v -0.5 2.1 0.5
v -0.5 2.1 0.2
v -0.5 2.1 -0.1
v -0.5 2.1 -0.2
v -0.5 2.1 -0.3
v -0.5 2.1 -0.4
v -0.5 2.2 0.2
v -0.5 2.2 0
v -0.5 2.2 -0.1
v -0.5 2.2 -0.2
v -0.5 2.2 -0.3
v -0.5 2.2 -0.4
v -0.5 2.3 0.6
v -0.5 2.3 0.5
v -0.5 2.3 0
v -0.5 2.4 -0.1
v -0.5 2.4 -0.2
v -0.5 2.5 -0.2
v -0.5 2.5 -0.3
v -0.5 2.6 -0.3
v -0.5 2.6 -0.4
v -0.5 2.7 0.6
v -0.5 2.7 0.5
v -0.5 2.7 0.4
v -0.5 2.8 0.5
v -0.5 2.8 0.4
v -0.5 2.8 0.3
v -0.5 2.8 -0.2
v -0.5 2.9 0.3
v -0.5 2.9 -0.2
v -0.4 1 0.2
v -0.4 1 -0.2
v -0.4 1.2 -0.1
v -0.4 1.2 -0.2
v -0.4 1.3 0.1
v -0.4 1.3 -0.1
v -0.4 1.4 0.3
v -0.4 1.4 0.2
v -0.4 1.4 0.1
v -0.4 1.4 -0.1
v -0.4 1.4 -0.2
v -0.4 1.5 0.3
v -0.4 1.5 0.1
v -0.4 1.5 -0.1
v -0.4 1.5 -0.2
v -0.4 1.6 0.3
v -0.4 1.6 0.2
v -0.4 1.6 0.1
v -0.4 1.6 -0.1
v -0.4 1.6 -0.2
v -0.4 1.7 0.3
v -0.4 1.7 0.2
v -0.4 1.7 0.1
v -0.4 1.7 -0.1
v -0.4 1.7 -0.2
v -0.4 1.8 0.3
v -0.4 1.8 0.2
v -0.4 1.8 0.1
v -0.4 1.8 -0.1
v -0.4 1.8 -0.2
v -0.4 1.9 0.5
v -0.4 1.9 0.3
v -0.4 1.9 0.2
v -0.4 1.9 0.1
v -0.4 2 0.5
v -0.4 2 0.3
v -0.4 2.2 0.6
v -0.4 2.2 0.5
v -0.4 2.3 0.6
v -0.4 2.3 0.5
v -0.4 2.5 -0.4
v -0.4 2.5 -0.5
v -0.4 2.6 -0.4
v -0.4 2.6 -0.5
v -0.4 2.7 -0.3
v -0.4 2.7 -0.4
v -0.4 2.8 0.4
v -0.4 2.8 0.3
v -0.4 2.8 -0.2
v -0.4 2.8 -0.3
v -0.4 2.8 -0.4
v -0.4 2.9 0.4
v -0.4 2.9 0.3
v -0.4 2.9 -0.2
v -0.4 2.9 -0.3
v -0.3 1.8 0.3
v -0.3 1.8 0.2
v -0.3 1.8 -0.1
v -0.3 1.8 -0.2
v -0.3 1.8 -0.3
v -0.3 1.8 -0.4
v -0.3 1.9 0.3
v -0.3 1.9 0.2
v -0.3 1.9 -0.1
v -0.3 1.9 -0.2
v -0.3 1.9 -0.3
v -0.3 1.9 -0.4
v -0.3 2.7 -0.4
v -0.3 2.7 -0.5
v -0.3 2.8 -0.3
v -0.3 2.8 -0.4
v -0.3 2.8 -0.5
v -0.3 2.9 -0.3
v -0.3 2.9 -0.4
v -0.1 2.1 -0.4
v -0.1 2.1 -0.5
v -0.1 2.4 -0.4
v -0.1 2.4 -0.5
v 0 2.6 -0.4
v 0 2.6 -0.5
v 0 2.7 -0.4
v 0 2.7 -0.5
v 0.1 1 0.2
v 0.1 1 -0.2
v 0.1 1.2 -0.1
v 0.1 1.2 -0.2
v 0.1 1.4 0.3
v 0.1 1.4 0.2
v 0.1 1.4 -0.1
v 0.1 1.5 0.3
v 0.1 1.5 0.2
v 0.1 2.5 -0.4
v 0.1 2.5 -0.5
v 0.1 2.6 -0.4
v 0.1 2.6 -0.5
v 0.3 2.4 -0.4
v 0.3 2.4 -0.5
v 0.3 2.5 -0.4
v 0.3 2.5 -0.5
v 0.4 2.3 -0.4
v 0.4 2.3 -0.5
v 0.4 2.4 -0.4
v 0.4 2.4 -0.5
v -0.1 1 0.2
v -0.1 1 -0.2
v -0.1 1.2 -0.1
v -0.1 1.2 -0.2
v -0.1 1.4 0.3
v -0.1 1.4 0.2
v -0.1 1.4 -0.1
v -0.1 1.5 0.3
v -0.1 1.5 0.2
v -0.1 2.5 -0.4
v -0.1 2.5 -0.5
v -0.1 2.6 -0.4
v -0.1 2.6 -0.5
v 0.1 2.1 -0.4
v 0.1 2.1 -0.5
v 0.1 2.4 -0.4
v 0.1 2.4 -0.5
v 0.3 1.8 0.3
v 0.3 1.8 0.2
v 0.3 1.8 -0.1
v 0.3 1.8 -0.2
v 0.3 1.8 -0.3
v 0.3 1.8 -0.4
v 0.3 1.9 0.3
v 0.3 1.9 0.2
v 0.3 1.9 -0.1
v 0.3 1.9 -0.2
v 0.3 1.9 -0.3
v 0.3 1.9 -0.4
v 0.3 2.7 -0.4
v 0.3 2.7 -0.5
v 0.3 2.8 -0.3
v 0.3 2.8 -0.4
v 0.3 2.8 -0.5
v 0.3 2.9 -0.3
v 0.3 2.9 -0.4
v 0.4 1 0.2
v 0.4 1 -0.2
v 0.4 1.2 -0.1
v 0.4 1.2 -0.2
v 0.4 1.3 0.1
v 0.4 1.3 -0.1
v 0.4 1.4 0.3
v 0.4 1.4 0.2
v 0.4 1.4 0.1
v 0.4 1.4 -0.1
v 0.4 1.4 -0.2
v 0.4 1.5 0.3
v 0.4 1.5 0.1
v 0.4 1.5 -0.1
v 0.4 1.5 -0.2
v 0.4 1.6 0.3
v 0.4 1.6 0.2
v 0.4 1.6 0.1
v 0.4 1.6 -0.1
v 0.4 1.6 -0.2
v 0.4 1.7 0.3
v 0.4 1.7 0.2
v 0.4 1.7 0.1
v 0.4 1.7 -0.1
v 0.4 1.7 -0.2
v 0.4 1.8 0.3
v 0.4 1.8 0.2
v 0.4 1.8 0.1
v 0.4 1.8 -0.1
v 0.4 1.8 -0.2
v 0.4 1.9 0.5
v 0.4 1.9 0.3
v 0.4 1.9 0.2
v 0.4 1.9 0.1
v 0.4 2 0.5
v 0.4 2 0.3
v 0.4 2.2 0.6
v 0.4 2.2 0.5
v 0.4 2.3 0.6
v 0.4 2.3 0.5
v 0.4 2.6 -0.4
v 0.4 2.6 -0.5
v 0.4 2.7 -0.3
v 0.4 2.7 -0.4
v 0.4 2.7 -0.5
v 0.4 2.8 0.4
v 0.4 2.8 0.3
v 0.4 2.8 -0.2
v 0.4 2.8 -0.3
v 0.4 2.8 -0.4
v 0.4 2.9 0.4
v 0.4 2.9 0.3
v 0.4 2.9 -0.2
v 0.4 2.9 -0.3
v 0.5 1.9 0.3
v 0.5 1.9 0.1
v 0.5 1.9 0
v 0.5 1.9 -0.1
v 0.5 1.9 -0.2
v 0.5 1.9 -0.4
v 0.5 2 0.5
v 0.5 2 0.3
v 0.5 2.1 0.5
v 0.5 2.1 0.2
v 0.5 2.1 -0.1
v 0.5 2.1 -0.2
v 0.5 2.1 -0.3
v 0.5 2.1 -0.4
v 0.5 2.2 0.2
v 0.5 2.2 0
v 0.5 2.2 -0.1
v 0.5 2.2 -0.2
v 0.5 2.2 -0.3
v 0.5 2.2 -0.4
v 0.5 2.3 0.6
v 0.5 2.3 0.5
v 0.5 2.3 0
v 0.5 2.3 -0.4
v 0.5 2.3 -0.5
v 0.5 2.5 -0.1
v 0.5 2.5 -0.2
v 0.5 2.5 -0.4
v 0.5 2.6 -0.4
v 0.5 2.6 -0.5
v 0.5 2.7 0.6
v 0.5 2.7 0.5
v 0.5 2.7 0.4
v 0.5 2.8 0.5
v 0.5 2.8 0.4
v 0.5 2.8 0.3
v 0.5 2.8 -0.2
v 0.5 2.9 0.3
v 0.5 2.9 -0.2
v 0.6 1.3 0.1
v 0.6 1.3 -0.1
v 0.6 1.4 0.1
v 0.6 1.4 0
v 0.6 1.4 -0.1
v 0.6 1.5 0.1
v 0.6 1.5 0
v 0.6 1.5 -0.1
v 0.6 1.6 0.1
v 0.6 1.6 0
v 0.6 1.6 -0.1
v 0.6 1.7 0.1
v 0.6 1.7 0
v 0.6 1.7 -0.1
v 0.6 1.8 0.1
v 0.6 1.8 0
v 0.6 1.8 -0.1
v 0.6 1.9 0.1
v 0.6 1.9 0
v 0.6 1.9 -0.1
v 0.6 2.3 0.5
v 0.6 2.3 0
v 0.6 2.5 0
v 0.6 2.5 -0.1
v 0.6 2.5 -0.4
v 0.6 2.7 0.5
v 0.6 2.7 0.4
v 0.6 2.7 -0.3
v 0.6 2.7 -0.4
v 0.6 2.8 0.4
v 0.6 2.8 -0.3
v 0.7 2.2 0
v 0.7 2.2 -0.1
v 0.7 2.5 0
v 0.7 2.5 -0.1
v -0.5 2.3 0.6
v -0.5 2.7 0.6
v -0.4 2.2 0.6
v -0.4 2.3 0.6
v 0.4 2.2 0.6
v 0.4 2.3 0.6
v 0.5 2.3 0.6
v 0.5 2.7 0.6
v -0.6 2.3 0.5
v -0.6 2.7 0.5
v -0.5 2 0.5
v -0.5 2.1 0.5
v -0.5 2.3 0.5
v -0.5 2.7 0.5
v -0.5 2.8 0.5
v -0.4 1.9 0.5
v -0.4 2 0.5
v -0.4 2.2 0.5
v -0.4 2.3 0.5
v 0.4 1.9 0.5
v 0.4 2 0.5
v 0.4 2.2 0.5
v 0.4 2.3 0.5
v 0.5 2 0.5
v 0.5 2.1 0.5
v 0.5 2.3 0.5
v 0.5 2.7 0.5
v 0.5 2.8 0.5
v 0.6 2.3 0.5
v 0.6 2.7 0.5
v -0.6 2.7 0.4
v -0.6 2.8 0.4
v -0.5 2.7 0.4
v -0.5 2.8 0.4
v -0.4 2.8 0.4
v -0.4 2.9 0.4
v 0.4 2.8 0.4
v 0.4 2.9 0.4
v 0.5 2.7 0.4
v 0.5 2.8 0.4
v 0.6 2.7 0.4
v 0.6 2.8 0.4
v -0.5 1.9 0.3
v -0.5 2 0.3
v -0.5 2.8 0.3
v -0.5 2.9 0.3
v -0.4 1.4 0.3
v -0.4 1.5 0.3
v -0.4 1.6 0.3
v -0.4 1.7 0.3
v -0.4 1.8 0.3
v -0.4 1.9 0.3
v -0.4 2 0.3
v -0.4 2.8 0.3
v -0.4 2.9 0.3
v -0.3 1.6 0.3
v -0.3 1.7 0.3
v -0.3 1.8 0.3
v -0.3 1.9 0.3
v -0.2 1.6 0.3
v -0.2 1.7 0.3
v -0.2 1.8 0.3
v -0.2 1.9 0.3
v -0.1 1.4 0.3
v -0.1 1.5 0.3
v -0.1 1.6 0.3
v -0.1 1.7 0.3
v -0.1 1.8 0.3
v -0.1 1.9 0.3
v 0 1.6 0.3
v 0 1.7 0.3
v 0 1.8 0.3
v 0 1.9 0.3
v 0.1 1.4 0.3
v 0.1 1.5 0.3
v 0.1 1.6 0.3
v 0.1 1.7 0.3
v 0.1 1.8 0.3
v 0.1 1.9 0.3
v 0.2 1.6 0.3
v 0.2 1.7 0.3
v 0.2 1.8 0.3
v 0.2 1.9 0.3
v 0.3 1.6 0.3
v 0.3 1.7 0.3
v 0.3 1.8 0.3
v 0.3 1.9 0.3
v 0.4 1.4 0.3
v 0.4 1.5 0.3
v 0.4 1.6 0.3
v 0.4 1.7 0.3
v 0.4 1.8 0.3
v 0.4 1.9 0.3
v 0.4 2 0.3
v 0.4 2.8 0.3
v 0.4 2.9 0.3
v 0.5 1.9 0.3
v 0.5 2 0.3
v 0.5 2.8 0.3
v 0.5 2.9 0.3
v -0.4 1 0.2
v -0.4 1.4 0.2
v -0.4 1.8 0.2
v -0.4 1.9 0.2
v -0.3 1.8 0.2
v -0.3 1.9 0.2
v -0.1 1 0.2
v -0.1 1.4 0.2
v -0.1 1.5 0.2
v 0.1 1 0.2
v 0.1 1.4 0.2
v 0.1 1.5 0.2
v 0.3 1.8 0.2
v 0.3 1.9 0.2
v 0.4 1 0.2
v 0.4 1.4 0.2
v 0.4 1.8 0.2
v 0.4 1.9 0.2
v -0.6 1.3 0.1
v -0.6 1.4 0.1
v -0.6 1.5 0.1
v -0.6 1.6 0.1
v -0.6 1.7 0.1
v -0.6 1.8 0.1
v -0.6 1.9 0.1
v -0.5 1.4 0.1
v -0.5 1.5 0.1
v -0.5 1.6 0.1
v -0.5 1.7 0.1
v -0.5 1.8 0.1
v -0.5 1.9 0.1
v -0.4 1.3 0.1
v -0.4 1.4 0.1
v -0.4 1.5 0.1
v -0.4 1.6 0.1
v -0.4 1.7 0.1
v -0.4 1.8 0.1
v -0.4 1.9 0.1
v 0.4 1.3 0.1
v 0.4 1.4 0.1
v 0.4 1.5 0.1
v 0.4 1.6 0.1
v 0.4 1.7 0.1
v 0.4 1.8 0.1
v 0.4 1.9 0.1
v 0.5 1.4 0.1
v 0.5 1.5 0.1
v 0.5 1.6 0.1
v 0.5 1.7 0.1
v 0.5 1.8 0.1
v 0.5 1.9 0.1
v 0.6 1.3 0.1
v 0.6 1.4 0.1
v 0.6 1.5 0.1
v 0.6 1.6 0.1
v 0.6 1.7 0.1
v 0.6 1.8 0.1
v 0.6 1.9 0.1
v -0.7 2.2 0
v -0.7 2.5 0
v -0.6 2.3 0
v -0.6 2.5 0
v -0.5 2.2 0
v -0.5 2.3 0
v 0.5 2.2 0
v 0.5 2.3 0
v 0.6 2.3 0
v 0.6 2.5 0
v 0.7 2.2 0
v 0.7 2.5 0
v -0.3 1.8 -0.3
v -0.3 1.9 -0.3
v 0.3 1.8 -0.3
v 0.3 1.9 -0.3
v -0.7 2.2 -0.1
v -0.7 2.5 -0.1
v -0.6 1.3 -0.1
v -0.6 1.4 -0.1
v -0.6 1.5 -0.1
v -0.6 1.6 -0.1
v -0.6 1.7 -0.1
v -0.6 1.8 -0.1
v -0.6 1.9 -0.1
v -0.6 2.4 -0.1
v -0.6 2.5 -0.1
v -0.5 1.4 -0.1
v -0.5 1.5 -0.1
v -0.5 1.6 -0.1
v -0.5 1.7 -0.1
v -0.5 1.8 -0.1
v -0.5 1.9 -0.1
v -0.5 2.2 -0.1
v -0.5 2.4 -0.1
v -0.4 1.2 -0.1
v -0.4 1.3 -0.1
v -0.4 1.4 -0.1
v -0.4 1.5 -0.1
v -0.4 1.6 -0.1
v -0.4 1.7 -0.1
v -0.4 1.8 -0.1
v -0.4 1.9 -0.1
v -0.3 1.8 -0.1
v -0.3 1.9 -0.1
v -0.1 1.2 -0.1
v -0.1 1.4 -0.1
v 0.1 1.2 -0.1
v 0.1 1.4 -0.1
v 0.3 1.8 -0.1
v 0.3 1.9 -0.1
v 0.4 1.2 -0.1
v 0.4 1.3 -0.1
v 0.4 1.4 -0.1
v 0.4 1.5 -0.1
v 0.4 1.6 -0.1
v 0.4 1.7 -0.1
v 0.4 1.8 -0.1
v 0.4 1.9 -0.1
v 0.5 1.4 -0.1
v 0.5 1.5 -0.1
v 0.5 1.6 -0.1
v 0.5 1.7 -0.1
v 0.5 1.8 -0.1
v 0.5 1.9 -0.1
v 0.5 2.2 -0.1
v 0.5 2.5 -0.1
v 0.6 1.3 -0.1
v 0.6 1.4 -0.1
v 0.6 1.5 -0.1
v 0.6 1.6 -0.1
v 0.6 1.7 -0.1
v 0.6 1.8 -0.1
v 0.6 1.9 -0.1
v 0.6 2.5 -0.1
v 0.7 2.2 -0.1
v 0.7 2.5 -0.1
v -0.6 2.4 -0.2
v -0.6 2.5 -0.2
v -0.5 2.4 -0.2
v -0.5 2.5 -0.2
v -0.5 2.8 -0.2
v -0.5 2.9 -0.2
v -0.4 1 -0.2
v -0.4 1.2 -0.2
v -0.4 1.4 -0.2
v -0.4 1.5 -0.2
v -0.4 1.6 -0.2
v -0.4 1.7 -0.2
v -0.4 1.8 -0.2
v -0.4 2.8 -0.2
v -0.4 2.9 -0.2
v -0.3 1.6 -0.2
v -0.3 1.7 -0.2
v -0.3 1.8 -0.2
v -0.3 1.9 -0.2
v -0.2 1.6 -0.2
v -0.2 1.7 -0.2
v -0.2 1.8 -0.2
v -0.2 1.9 -0.2
v -0.1 1 -0.2
v -0.1 1.2 -0.2
v -0.1 1.6 -0.2
v -0.1 1.7 -0.2
v -0.1 1.8 -0.2
v -0.1 1.9 -0.2
v 0 1.6 -0.2
v 0 1.7 -0.2
v 0 1.8 -0.2
v 0 1.9 -0.2
v 0.1 1 -0.2
v 0.1 1.2 -0.2
v 0.1 1.6 -0.2
v 0.1 1.7 -0.2
v 0.1 1.8 -0.2
v 0.1 1.9 -0.2
v 0.2 1.6 -0.2
v 0.2 1.7 -0.2
v 0.2 1.8 -0.2
v 0.3 1.6 -0.2
v 0.3 1.7 -0.2
v 0.3 1.8 -0.2
v 0.3 1.9 -0.2
v 0.4 1 -0.2
v 0.4 1.2 -0.2
v 0.4 1.4 -0.2
v 0.4 1.5 -0.2
v 0.4 1.6 -0.2
v 0.4 1.7 -0.2
v 0.4 1.8 -0.2
v 0.4 2.8 -0.2
v 0.4 2.9 -0.2
v 0.5 2.8 -0.2
v 0.5 2.9 -0.2
v -0.6 2.5 -0.3
v -0.6 2.6 -0.3
v -0.6 2.7 -0.3
v -0.6 2.8 -0.3
v -0.5 2.5 -0.3
v -0.5 2.6 -0.3
v -0.4 2.7 -0.3
v -0.4 2.8 -0.3
v -0.4 2.9 -0.3
v -0.3 2.8 -0.3
v -0.3 2.9 -0.3
v 0.3 2.8 -0.3
v 0.3 2.9 -0.3
v 0.4 2.7 -0.3
v 0.4 2.8 -0.3
v 0.4 2.9 -0.3
v 0.6 2.7 -0.3
v 0.6 2.8 -0.3
v -0.6 2.6 -0.4
v -0.6 2.7 -0.4
v -0.5 1.9 -0.4
v -0.5 2.1 -0.4
v -0.5 2.2 -0.4
v -0.5 2.6 -0.4
v -0.4 2 -0.4
v -0.4 2.1 -0.4
v -0.4 2.5 -0.4
v -0.4 2.6 -0.4
v -0.4 2.7 -0.4
v -0.4 2.8 -0.4
v -0.3 1.8 -0.4
v -0.3 1.9 -0.4
v -0.3 2 -0.4
v -0.3 2.1 -0.4
v -0.3 2.2 -0.4
v -0.3 2.5 -0.4
v -0.3 2.7 -0.4
v -0.3 2.8 -0.4
v -0.3 2.9 -0.4
v -0.2 1.9 -0.4
v -0.2 2 -0.4
v -0.2 2.2 -0.4
v -0.2 2.5 -0.4
v -0.1 2.1 -0.4
v -0.1 2.4 -0.4
v -0.1 2.5 -0.4
v -0.1 2.6 -0.4
v 0 2.6 -0.4
v 0 2.7 -0.4
v 0.1 2.1 -0.4
v 0.1 2.4 -0.4
v 0.1 2.5 -0.4
v 0.1 2.6 -0.4
v 0.2 1.9 -0.4
v 0.2 2 -0.4
v 0.2 2.2 -0.4
v 0.2 2.5 -0.4
v 0.3 1.8 -0.4
v 0.3 1.9 -0.4
v 0.3 2 -0.4
v 0.3 2.1 -0.4
v 0.3 2.2 -0.4
v 0.3 2.4 -0.4
v 0.3 2.5 -0.4
v 0.3 2.7 -0.4
v 0.3 2.8 -0.4
v 0.3 2.9 -0.4
v 0.4 2 -0.4
v 0.4 2.1 -0.4
v 0.4 2.3 -0.4
v 0.4 2.4 -0.4
v 0.4 2.6 -0.4
v 0.4 2.7 -0.4
v 0.4 2.8 -0.4
v 0.5 1.9 -0.4
v 0.5 2.1 -0.4
v 0.5 2.2 -0.4
v 0.5 2.3 -0.4
v 0.5 2.5 -0.4
v 0.5 2.6 -0.4
v 0.6 2.5 -0.4
v 0.6 2.7 -0.4
v -0.4 2.5 -0.5
v -0.4 2.6 -0.5
v -0.3 2.7 -0.5
v -0.3 2.8 -0.5
v -0.1 2.1 -0.5
v -0.1 2.4 -0.5
v -0.1 2.5 -0.5
v -0.1 2.6 -0.5
v 0 2.6 -0.5
v 0 2.7 -0.5
v 0.1 2.1 -0.5
v 0.1 2.4 -0.5
v 0.1 2.5 -0.5
v 0.1 2.6 -0.5
v 0.3 2.4 -0.5
v 0.3 2.5 -0.5
v 0.3 2.7 -0.5
v 0.3 2.8 -0.5
v 0.4 2.3 -0.5
v 0.4 2.4 -0.5
v 0.4 2.6 -0.5
v 0.4 2.7 -0.5
v 0.5 2.3 -0.5
v 0.5 2.6 -0.5
v -0.4 1 0.2
v -0.1 1 0.2
v 0.1 1 0.2
v 0.4 1 0.2
v -0.4 1 -0.2
v -0.1 1 -0.2
v 0.1 1 -0.2
v 0.4 1 -0.2
v -0.6 1.3 0.1
v -0.4 1.3 0.1
v 0.4 1.3 0.1
v 0.6 1.3 0.1
v -0.6 1.3 -0.1
v -0.4 1.3 -0.1
v 0.4 1.3 -0.1
v 0.6 1.3 -0.1
v -0.4 1.4 0.3
v -0.1 1.4 0.3
v 0.1 1.4 0.3
v 0.4 1.4 0.3
v -0.4 1.4 0.2
v -0.1 1.4 0.2
v 0.1 1.4 0.2
v 0.4 1.4 0.2
v -0.4 1.4 -0.1
v -0.1 1.4 -0.1
v 0.1 1.4 -0.1
v 0.4 1.4 -0.1
v -0.4 1.4 -0.2
v 0.4 1.4 -0.2
v -0.1 1.5 0.3
v 0.1 1.5 0.3
v -0.1 1.5 0.2
v 0.1 1.5 0.2
v -0.3 1.8 -0.3
v 0.3 1.8 -0.3
v -0.3 1.8 -0.4
v 0.3 1.8 -0.4
v -0.4 1.9 0.5
v 0.4 1.9 0.5
v -0.5 1.9 0.3
v -0.4 1.9 0.3
v -0.3 1.9 0.3
v -0.2 1.9 0.3
v -0.1 1.9 0.3
v 0 1.9 0.3
v 0.1 1.9 0.3
v 0.2 1.9 0.3
v 0.3 1.9 0.3
v 0.4 1.9 0.3
v 0.5 1.9 0.3
v -0.4 1.9 0.2
v -0.3 1.9 0.2
v 0.3 1.9 0.2
v 0.4 1.9 0.2
v -0.5 1.9 0.1
v -0.4 1.9 0.1
v 0.4 1.9 0.1
v 0.5 1.9 0.1
v -0.5 1.9 -0.1
v -0.4 1.9 -0.1
v -0.3 1.9 -0.1
v 0.3 1.9 -0.1
v 0.4 1.9 -0.1
v 0.5 1.9 -0.1
v -0.5 1.9 -0.2
v -0.3 1.9 -0.2
v -0.2 1.9 -0.2
v -0.1 1.9 -0.2
v 0 1.9 -0.2
v 0.1 1.9 -0.2
v 0.3 1.9 -0.2
v 0.5 1.9 -0.2
v -0.3 1.9 -0.3
v 0.3 1.9 -0.3
v -0.5 1.9 -0.4
v -0.3 1.9 -0.4
v 0.3 1.9 -0.4
v 0.5 1.9 -0.4
v -0.5 2 0.5
v -0.4 2 0.5
v 0.4 2 0.5
v 0.5 2 0.5
v -0.5 2 0.3
v -0.4 2 0.3
v 0.4 2 0.3
v 0.5 2 0.3
v -0.1 2.1 -0.4
v 0.1 2.1 -0.4
v -0.1 2.1 -0.5
v 0.1 2.1 -0.5
v -0.4 2.2 0.6
v 0.4 2.2 0.6
v -0.4 2.2 0.5
v 0.4 2.2 0.5
v -0.7 2.2 0
v -0.5 2.2 0
v 0.5 2.2 0
v 0.7 2.2 0
v -0.7 2.2 -0.1
v -0.5 2.2 -0.1
v 0.5 2.2 -0.1
v 0.7 2.2 -0.1
v -0.5 2.3 0.6
v -0.4 2.3 0.6
v 0.4 2.3 0.6
v 0.5 2.3 0.6
v -0.6 2.3 0.5
v -0.5 2.3 0.5
v -0.4 2.3 0.5
v 0.4 2.3 0.5
v 0.5 2.3 0.5
v 0.6 2.3 0.5
v -0.6 2.3 0
v -0.5 2.3 0
v 0.5 2.3 0
v 0.6 2.3 0
v 0.4 2.3 -0.4
v 0.5 2.3 -0.4
v 0.4 2.3 -0.5
v 0.5 2.3 -0.5
v -0.6 2.4 -0.1
v -0.5 2.4 -0.1
v -0.6 2.4 -0.2
v -0.5 2.4 -0.2
v 0.3 2.4 -0.4
v 0.4 2.4 -0.4
v 0.3 2.4 -0.5
v 0.4 2.4 -0.5
v 0.5 2.5 -0.1
v 0.6 2.5 -0.1
v -0.6 2.5 -0.2
v -0.5 2.5 -0.2
v 0.5 2.5 -0.2
v -0.6 2.5 -0.3
v -0.5 2.5 -0.3
v -0.4 2.5 -0.4
v -0.3 2.5 -0.4
v -0.2 2.5 -0.4
v -0.1 2.5 -0.4
v 0.1 2.5 -0.4
v 0.2 2.5 -0.4
v 0.3 2.5 -0.4
v 0.5 2.5 -0.4
v 0.6 2.5 -0.4
v -0.4 2.5 -0.5
v -0.1 2.5 -0.5
v 0.1 2.5 -0.5
v 0.3 2.5 -0.5
v -0.6 2.6 -0.3
v -0.5 2.6 -0.3
v -0.6 2.6 -0.4
v -0.5 2.6 -0.4
v 0 2.6 -0.4
v 0.1 2.6 -0.4
v 0 2.6 -0.5
v 0.1 2.6 -0.5
v -0.3 2.7 -0.4
v 0 2.7 -0.4
v -0.3 2.7 -0.5
v 0 2.7 -0.5
v -0.4 1.2 -0.1
v -0.1 1.2 -0.1
v 0.1 1.2 -0.1
v 0.4 1.2 -0.1
v -0.4 1.2 -0.2
v -0.1 1.2 -0.2
v 0.1 1.2 -0.2
v 0.4 1.2 -0.2
v -0.4 1.8 0.3
v -0.3 1.8 0.3
v 0.3 1.8 0.3
v 0.4 1.8 0.3
v -0.4 1.8 0.2
v -0.3 1.8 0.2
v 0.3 1.8 0.2
v 0.4 1.8 0.2
v -0.4 1.8 -0.1
v -0.3 1.8 -0.1
v 0.3 1.8 -0.1
v 0.4 1.8 -0.1
v -0.4 1.8 -0.2
v -0.3 1.8 -0.2
v 0.3 1.8 -0.2
v 0.4 1.8 -0.2
v -0.6 1.9 0.1
v -0.5 1.9 0.1
v 0.5 1.9 0.1
v 0.6 1.9 0.1
v -0.6 1.9 0
v -0.5 1.9 0
v 0.5 1.9 0
v 0.6 1.9 0
v -0.6 1.9 -0.1
v -0.5 1.9 -0.1
v 0.5 1.9 -0.1
v 0.6 1.9 -0.1
v -0.1 2.4 -0.4
v 0.1 2.4 -0.4
v -0.1 2.4 -0.5
v 0.1 2.4 -0.5
v -0.7 2.5 0
v -0.6 2.5 0
v 0.6 2.5 0
v 0.7 2.5 0
v -0.7 2.5 -0.1
v -0.6 2.5 -0.1
v 0.6 2.5 -0.1
v 0.7 2.5 -0.1
v -0.4 2.6 -0.4
v -0.1 2.6 -0.4
v 0.4 2.6 -0.4
v 0.5 2.6 -0.4
v -0.4 2.6 -0.5
v -0.1 2.6 -0.5
v 0.4 2.6 -0.5
v 0.5 2.6 -0.5
v -0.5 2.7 0.6
v 0.5 2.7 0.6
v -0.6 2.7 0.5
v -0.5 2.7 0.5
v 0.5 2.7 0.5
v 0.6 2.7 0.5
v -0.6 2.7 0.4
v -0.5 2.7 0.4
v 0.5 2.7 0.4
v 0.6 2.7 0.4
v -0.6 2.7 -0.3
v -0.4 2.7 -0.3
v 0.4 2.7 -0.3
v 0.6 2.7 -0.3
v -0.6 2.7 -0.4
v -0.4 2.7 -0.4
v 0.3 2.7 -0.4
v 0.4 2.7 -0.4
v 0.6 2.7 -0.4
v 0.3 2.7 -0.5
v 0.4 2.7 -0.5
v -0.5 2.8 0.5
v 0.5 2.8 0.5
v -0.6 2.8 0.4
v -0.5 2.8 0.4
v -0.4 2.8 0.4
v 0.4 2.8 0.4
v 0.5 2.8 0.4
v 0.6 2.8 0.4
v -0.5 2.8 0.3
v -0.4 2.8 0.3
v 0.4 2.8 0.3
v 0.5 2.8 0.3
v -0.5 2.8 -0.2
v -0.4 2.8 -0.2
v 0.4 2.8 -0.2
v 0.5 2.8 -0.2
v -0.6 2.8 -0.3
v -0.4 2.8 -0.3
v -0.3 2.8 -0.3
v 0.3 2.8 -0.3
v 0.4 2.8 -0.3
v 0.6 2.8 -0.3
v -0.4 2.8 -0.4
v -0.3 2.8 -0.4
v 0.3 2.8 -0.4
v 0.4 2.8 -0.4
v -0.3 2.8 -0.5
v 0.3 2.8 -0.5
v -0.4 2.9 0.4
v 0.4 2.9 0.4
v -0.5 2.9 0.3
v -0.4 2.9 0.3
v 0.4 2.9 0.3
v 0.5 2.9 0.3
v -0.5 2.9 -0.2
v -0.4 2.9 -0.2
v 0.4 2.9 -0.2
v 0.5 2.9 -0.2
v -0.4 2.9 -0.3
v -0.3 2.9 -0.3
v 0.3 2.9 -0.3
v 0.4 2.9 -0.3
v -0.3 2.9 -0.4
v 0.3 2.9 -0.4

# faces
f 3/1/1 2/1/1 1/1/1
f 4/1/1 2/1/1 3/1/1
f 7/7/1 6/7/1 5/7/1
f 8/7/1 6/7/1 7/7/1
f 9/7/1 6/7/1 8/7/1
f 10/2/1 8/2/1 7/2/1
f 11/3/1 9/3/1 8/3/1
f 11/2/1 8/2/1 10/2/1
f 12/3/1 9/3/1 11/3/1
f 13/3/1 11/3/1 10/3/1
f 14/2/1 12/2/1 11/2/1
f 14/3/1 11/3/1 13/3/1
f 15/2/1 12/2/1 14/2/1
f 16/2/1 14/2/1 13/2/1
f 17/3/1 15/3/1 14/3/1
f 17/2/1 14/2/1 16/2/1
f 18/3/1 15/3/1 17/3/1
f 19/3/1 17/3/1 16/3/1
f 20/2/1 18/2/1 17/2/1
f 20/3/1 17/3/1 19/3/1
f 21/2/1 18/2/1 20/2/1
f 22/2/1 20/2/1 19/2/1
f 23/3/1 21/3/1 20/3/1
f 23/2/1 20/2/1 22/2/1
f 24/3/1 21/3/1 23/3/1
f 29/4/1 26/4/1 25/4/1
f 30/4/1 28/4/1 27/4/1
f 31/4/1 28/4/1 30/4/1
f 33/4/1 30/4/1 29/4/1
f 33/4/1 32/4/1 31/4/1
f 33/4/1 31/4/1 30/4/1
f 35/4/1 29/4/1 25/4/1
f 35/4/1 34/4/1 33/4/1
f 35/4/1 33/4/1 29/4/1
f 36/4/1 34/4/1 35/4/1
f 37/4/1 34/4/1 36/4/1
f 38/4/1 34/4/1 37/4/1
f 39/4/1 37/4/1 36/4/1
f 40/4/1 37/4/1 39/4/1
f 48/7/1 42/7/1 41/7/1
f 48/7/1 43/7/1 42/7/1
f 48/7/1 45/7/1 44/7/1
f 48/7/1 44/7/1 43/7/1
f 49/7/1 48/7/1 47/7/1
f 50/7/1 45/7/1 48/7/1
f 50/7/1 48/7/1 49/7/1
f 51/7/1 45/7/1 50/7/1
f 52/4/1 46/4/1 45/4/1
f 52/7/1 45/7/1 51/7/1
f 53/4/1 46/4/1 52/4/1
f 54/4/1 46/4/1 53/4/1
f 55/7/1 51/7/1 50/7/1
f 55/4/1 50/4/1 49/4/1
f 56/7/1 51/7/1 55/7/1
f 57/4/1 52/4/1 51/4/1
f 57/7/1 51/7/1 56/7/1
f 57/4/1 53/4/1 52/4/1
f 58/4/1 53/4/1 57/4/1
f 59/1/1 54/1/1 53/1/1
f 59/4/1 53/4/1 58/4/1
f 60/1/1 54/1/1 59/1/1
f 62/4/1 56/4/1 55/4/1
f 62/4/1 55/4/1 49/4/1
f 63/4/1 56/4/1 62/4/1
f 64/4/1 58/4/1 57/4/1
f 65/7/1 60/7/1 59/7/1
f 65/4/1 58/4/1 64/4/1
f 65/7/1 59/7/1 58/7/1
f 66/7/1 60/7/1 65/7/1
f 67/7/1 60/7/1 66/7/1
f 68/7/1 60/7/1 67/7/1
f 69/7/1 60/7/1 68/7/1
f 70/4/1 62/4/1 61/4/1
f 71/4/1 62/4/1 70/4/1
f 73/4/1 72/4/1 71/4/1
f 74/4/1 72/4/1 73/4/1
f 77/4/1 76/4/1 75/4/1
f 78/4/1 76/4/1 77/4/1
f 81/5/1 80/5/1 79/5/1
f 82/5/1 80/5/1 81/5/1
f 83/5/1 81/5/1 79/5/1
f 84/5/1 81/5/1 83/5/1
f 86/5/1 83/5/1 79/5/1
f 87/5/1 83/5/1 86/5/1
f 90/5/1 87/5/1 86/5/1
f 90/5/1 86/5/1 85/5/1
f 91/5/1 87/5/1 90/5/1
f 92/5/1 89/5/1 88/5/1
f 93/5/1 89/5/1 92/5/1
f 94/6/1 91/6/1 90/6/1
f 95/6/1 91/6/1 94/6/1
f 96/6/1 91/6/1 95/6/1
f 97/6/1 93/6/1 92/6/1
f 98/6/1 93/6/1 97/6/1
f 99/3/1 95/3/1 94/3/1
f 100/2/1 96/2/1 95/2/1
f 100/3/1 95/3/1 99/3/1
f 101/2/1 96/2/1 100/2/1
f 102/3/1 98/3/1 97/3/1
f 103/3/1 98/3/1 102/3/1
f 104/2/1 100/2/1 99/2/1
f 105/3/1 101/3/1 100/3/1
f 105/2/1 100/2/1 104/2/1
f 106/3/1 101/3/1 105/3/1
f 107/2/1 103/2/1 102/2/1
f 108/2/1 103/2/1 107/2/1
f 111/2/1 106/2/1 105/2/1
f 112/2/1 106/2/1 111/2/1
f 113/7/1 110/7/1 109/7/1
f 114/7/1 110/7/1 113/7/1
f 117/4/1 116/4/1 115/4/1
f 118/4/1 116/4/1 117/4/1
f 121/4/1 120/4/1 119/4/1
f 122/4/1 120/4/1 121/4/1
f 128/4/1 124/4/1 123/4/1
f 129/4/1 124/4/1 128/4/1
f 130/4/1 126/4/1 125/4/1
f 131/4/1 126/4/1 130/4/1
f 132/4/1 128/4/1 127/4/1
f 133/4/1 128/4/1 132/4/1
f 140/2/1 135/2/1 134/2/1
f 141/2/1 135/2/1 140/2/1
f 142/2/1 137/2/1 136/2/1
f 143/2/1 137/2/1 142/2/1
f 144/4/1 139/4/1 138/4/1
f 145/4/1 139/4/1 144/4/1
f 149/4/1 147/4/1 146/4/1
f 150/4/1 147/4/1 149/4/1
f 151/4/1 149/4/1 148/4/1
f 152/4/1 149/4/1 151/4/1
f 155/1/1 154/1/1 153/1/1
f 156/1/1 154/1/1 155/1/1
f 159/4/1 158/4/1 157/4/1
f 160/4/1 158/4/1 159/4/1
f 163/5/1 162/5/1 161/5/1
f 164/5/1 162/5/1 163/5/1
f 166/5/1 163/5/1 161/5/1
f 167/5/1 163/5/1 166/5/1
f 168/5/1 166/5/1 165/5/1
f 169/5/1 166/5/1 168/5/1
f 172/4/1 171/4/1 170/4/1
f 173/4/1 171/4/1 172/4/1
f 176/4/1 175/4/1 174/4/1
f 177/4/1 175/4/1 176/4/1
f 180/4/1 179/4/1 178/4/1
f 181/4/1 179/4/1 180/4/1
f 182/5/2 183/5/2 184/5/2
f 184/5/2 183/5/2 185/5/2
f 182/5/2 184/5/2 187/5/2
f 187/5/2 184/5/2 188/5/2
f 186/5/2 187/5/2 189/5/2
f 189/5/2 187/5/2 190/5/2
f 191/4/2 192/4/2 193/4/2
f 193/4/2 192/4/2 194/4/2
f 195/1/2 196/1/2 197/1/2
f 197/1/2 196/1/2 198/1/2
f 199/3/2 200/3/2 205/3/2
f 205/3/2 200/3/2 206/3/2
f 201/2/2 202/2/2 207/2/2
f 207/2/2 202/2/2 208/2/2
f 203/4/2 204/4/2 209/4/2
f 209/4/2 204/4/2 210/4/2
f 211/4/2 212/4/2 214/4/2
f 214/4/2 212/4/2 215/4/2
f 213/4/2 214/4/2 216/4/2
f 216/4/2 214/4/2 217/4/2
f 218/5/2 219/5/2 220/5/2
f 220/5/2 219/5/2 221/5/2
f 218/5/2 220/5/2 222/5/2
f 222/5/2 220/5/2 223/5/2
f 218/5/2 222/5/2 225/5/2
f 225/5/2 222/5/2 226/5/2
f 225/5/2 226/5/2 229/5/2
f 224/5/2 225/5/2 229/5/2
f 229/5/2 226/5/2 230/5/2
f 227/5/2 228/5/2 231/5/2
f 231/5/2 228/5/2 232/5/2
f 229/6/2 230/6/2 233/6/2
f 233/6/2 230/6/2 234/6/2
f 234/6/2 230/6/2 235/6/2
f 231/6/2 232/6/2 236/6/2
f 236/6/2 232/6/2 237/6/2
f 233/2/2 234/2/2 238/2/2
f 234/3/2 235/3/2 239/3/2
f 238/2/2 234/2/2 239/2/2
f 239/3/2 235/3/2 240/3/2
f 236/2/2 237/2/2 241/2/2
f 241/2/2 237/2/2 242/2/2
f 238/3/2 239/3/2 243/3/2
f 239/2/2 240/2/2 244/2/2
f 243/3/2 239/3/2 244/3/2
f 244/2/2 240/2/2 245/2/2
f 241/3/2 242/3/2 246/3/2
f 246/3/2 242/3/2 247/3/2
f 244/3/2 245/3/2 250/3/2
f 250/3/2 245/3/2 251/3/2
f 248/7/2 249/7/2 252/7/2
f 252/7/2 249/7/2 253/7/2
f 254/4/2 255/4/2 256/4/2
f 256/4/2 255/4/2 257/4/2
f 258/4/2 259/4/2 261/4/2
f 261/4/2 259/4/2 262/4/2
f 260/4/2 261/4/2 266/4/2
f 266/4/2 261/4/2 267/4/2
f 263/4/2 264/4/2 268/4/2
f 268/4/2 264/4/2 269/4/2
f 265/4/2 266/4/2 270/4/2
f 270/4/2 266/4/2 271/4/2
f 272/7/2 273/7/2 279/7/2
f 273/7/2 274/7/2 279/7/2
f 275/7/2 276/7/2 279/7/2
f 274/7/2 275/7/2 279/7/2
f 278/7/2 279/7/2 280/7/2
f 279/7/2 276/7/2 281/7/2
f 280/7/2 279/7/2 281/7/2
f 281/7/2 276/7/2 282/7/2
f 276/4/2 277/4/2 283/4/2
f 282/7/2 276/7/2 283/7/2
f 283/4/2 277/4/2 284/4/2
f 284/4/2 277/4/2 285/4/2
f 281/7/2 282/7/2 286/7/2
f 280/4/2 281/4/2 286/4/2
f 286/7/2 282/7/2 287/7/2
f 282/4/2 283/4/2 288/4/2
f 287/7/2 282/7/2 288/7/2
f 283/4/2 284/4/2 288/4/2
f 288/4/2 284/4/2 289/4/2
f 284/1/2 285/1/2 290/1/2
f 289/4/2 284/4/2 290/4/2
f 290/1/2 285/1/2 291/1/2
f 286/4/2 287/4/2 293/4/2
f 280/4/2 286/4/2 293/4/2
f 293/4/2 287/4/2 294/4/2
f 290/7/2 291/7/2 295/7/2
f 289/7/2 290/7/2 295/7/2
f 288/4/2 289/4/2 297/4/2
f 289/7/2 295/7/2 298/7/2
f 297/4/2 289/4/2 298/4/2
f 295/4/2 296/4/2 299/4/2
f 298/7/2 295/7/2 299/7/2
f 299/4/2 296/4/2 300/4/2
f 300/4/2 296/4/2 301/4/2
f 292/4/2 293/4/2 302/4/2
f 302/4/2 293/4/2 303/4/2
f 303/4/2 304/4/2 305/4/2
f 305/4/2 304/4/2 306/4/2
f 307/4/2 308/4/2 309/4/2
f 309/4/2 308/4/2 310/4/2
f 311/7/2 312/7/2 313/7/2
f 313/7/2 312/7/2 314/7/2
f 314/7/2 312/7/2 315/7/2
f 313/3/2 314/3/2 316/3/2
f 314/2/2 315/2/2 317/2/2
f 316/3/2 314/3/2 317/3/2
f 317/2/2 315/2/2 318/2/2
f 316/2/2 317/2/2 319/2/2
f 317/3/2 318/3/2 320/3/2
f 319/2/2 317/2/2 320/2/2
f 320/3/2 318/3/2 321/3/2
f 319/3/2 320/3/2 322/3/2
f 320/2/2 321/2/2 323/2/2
f 322/3/2 320/3/2 323/3/2
f 323/2/2 321/2/2 324/2/2
f 322/2/2 323/2/2 325/2/2
f 323/3/2 324/3/2 326/3/2
f 325/2/2 323/2/2 326/2/2
f 326/3/2 324/3/2 327/3/2
f 325/3/2 326/3/2 328/3/2
f 326/2/2 327/2/2 329/2/2
f 328/3/2 326/3/2 329/3/2
f 329/2/2 327/2/2 330/2/2
f 331/4/2 332/4/2 333/4/2
f 333/4/2 334/4/2 336/4/2
f 334/4/2 335/4/2 336/4/2
f 331/4/2 333/4/2 336/4/2
f 336/4/2 335/4/2 337/4/2
f 337/4/2 335/4/2 338/4/2
f 338/4/2 335/4/2 339/4/2
f 337/4/2 338/4/2 340/4/2
f 340/4/2 338/4/2 341/4/2
f 342/1/2 343/1/2 344/1/2
f 344/1/2 343/1/2 345/1/2
f 349/4/3 347/4/3 346/4/3
f 350/4/3 349/4/3 348/4/3
f 351/4/3 347/4/3 349/4/3
f 351/4/3 349/4/3 350/4/3
f 352/4/3 347/4/3 351/4/3
f 353/4/3 347/4/3 352/4/3
f 358/4/3 355/4/3 354/4/3
f 359/4/3 355/4/3 358/4/3
f 362/7/3 357/7/3 356/7/3
f 363/4/3 358/4/3 357/4/3
f 364/4/3 358/4/3 363/4/3
f 365/7/3 362/7/3 361/7/3
f 366/7/3 357/7/3 362/7/3
f 366/7/3 362/7/3 365/7/3
f 367/4/3 363/4/3 357/4/3
f 369/7/3 357/7/3 366/7/3
f 370/4/3 368/4/3 367/4/3
f 370/7/3 357/7/3 369/7/3
f 370/4/3 367/4/3 357/4/3
f 371/4/3 368/4/3 370/4/3
f 372/4/3 360/4/3 359/4/3
f 373/4/3 360/4/3 372/4/3
f 374/4/3 372/4/3 371/4/3
f 375/4/3 372/4/3 374/4/3
f 378/4/3 377/4/3 376/4/3
f 379/4/3 377/4/3 378/4/3
f 382/4/3 381/4/3 380/4/3
f 383/4/3 381/4/3 382/4/3
f 386/4/3 385/4/3 384/4/3
f 387/4/3 385/4/3 386/4/3
f 397/7/3 389/7/3 388/7/3
f 398/7/3 389/7/3 397/7/3
f 399/4/3 391/4/3 390/4/3
f 400/4/3 391/4/3 399/4/3
f 401/6/3 394/6/3 393/6/3
f 401/3/3 395/3/3 394/3/3
f 402/2/3 396/2/3 395/2/3
f 402/3/3 395/3/3 401/3/3
f 403/2/3 396/2/3 402/2/3
f 405/6/3 401/6/3 393/6/3
f 405/2/3 402/2/3 401/2/3
f 406/3/3 403/3/3 402/3/3
f 406/2/3 402/2/3 405/2/3
f 407/2/3 404/2/3 403/2/3
f 407/3/3 403/3/3 406/3/3
f 408/2/3 404/2/3 407/2/3
f 409/5/3 393/5/3 392/5/3
f 410/6/3 405/6/3 393/6/3
f 410/5/3 393/5/3 409/5/3
f 411/3/3 406/3/3 405/3/3
f 411/6/3 405/6/3 410/6/3
f 412/2/3 407/2/3 406/2/3
f 412/3/3 406/3/3 411/3/3
f 413/3/3 408/3/3 407/3/3
f 413/2/3 407/2/3 412/2/3
f 414/3/3 408/3/3 413/3/3
f 415/6/3 411/6/3 410/6/3
f 415/2/3 412/2/3 411/2/3
f 416/3/3 413/3/3 412/3/3
f 416/2/3 412/2/3 415/2/3
f 417/2/3 414/2/3 413/2/3
f 417/3/3 413/3/3 416/3/3
f 418/2/3 414/2/3 417/2/3
f 420/6/3 415/6/3 410/6/3
f 421/3/3 416/3/3 415/3/3
f 421/6/3 415/6/3 420/6/3
f 422/2/3 417/2/3 416/2/3
f 422/3/3 416/3/3 421/3/3
f 423/3/3 418/3/3 417/3/3
f 423/2/3 417/2/3 422/2/3
f 424/3/3 418/3/3 423/3/3
f 425/6/3 421/6/3 420/6/3
f 425/2/3 422/2/3 421/2/3
f 426/3/3 423/3/3 422/3/3
f 426/2/3 422/2/3 425/2/3
f 427/2/3 424/2/3 423/2/3
f 427/3/3 423/3/3 426/3/3
f 428/2/3 424/2/3 427/2/3
f 429/3/3 426/3/3 425/3/3
f 429/6/3 425/6/3 420/6/3
f 430/2/3 427/2/3 426/2/3
f 430/3/3 426/3/3 429/3/3
f 431/3/3 428/3/3 427/3/3
f 431/2/3 427/2/3 430/2/3
f 432/3/3 428/3/3 431/3/3
f 433/5/3 420/5/3 419/5/3
f 434/6/3 429/6/3 420/6/3
f 434/5/3 420/5/3 433/5/3
f 435/2/3 430/2/3 429/2/3
f 435/6/3 429/6/3 434/6/3
f 436/3/3 431/3/3 430/3/3
f 436/2/3 430/2/3 435/2/3
f 437/3/3 431/3/3 436/3/3
f 442/7/3 439/7/3 438/7/3
f 443/7/3 439/7/3 442/7/3
f 444/4/3 441/4/3 440/4/3
f 445/4/3 441/4/3 444/4/3
f 450/2/3 449/2/3 448/2/3
f 451/2/3 449/2/3 450/2/3
f 452/5/3 447/5/3 446/5/3
f 453/5/3 447/5/3 452/5/3
f 456/5/3 454/5/3 453/5/3
f 457/5/3 454/5/3 456/5/3
f 460/5/3 456/5/3 455/5/3
f 461/5/3 456/5/3 460/5/3
f 462/3/3 459/3/3 458/3/3
f 463/3/3 459/3/3 462/3/3
f 471/7/3 465/7/3 464/7/3
f 471/2/3 466/2/3 465/2/3
f 472/3/3 467/3/3 466/3/3
f 472/2/3 466/2/3 471/2/3
f 473/2/3 468/2/3 467/2/3
f 473/3/3 467/3/3 472/3/3
f 474/3/3 469/3/3 468/3/3
f 474/2/3 468/2/3 473/2/3
f 475/2/3 470/2/3 469/2/3
f 475/3/3 469/3/3 474/3/3
f 476/2/3 470/2/3 475/2/3
f 477/7/3 471/7/3 464/7/3
f 478/3/3 472/3/3 471/3/3
f 478/7/3 471/7/3 477/7/3
f 479/2/3 473/2/3 472/2/3
f 479/3/3 472/3/3 478/3/3
f 480/3/3 474/3/3 473/3/3
f 480/2/3 473/2/3 479/2/3
f 481/2/3 475/2/3 474/2/3
f 481/3/3 474/3/3 480/3/3
f 482/3/3 476/3/3 475/3/3
f 482/2/3 475/2/3 481/2/3
f 483/3/3 476/3/3 482/3/3
f 491/7/3 485/7/3 484/7/3
f 491/2/3 486/2/3 485/2/3
f 492/3/3 487/3/3 486/3/3
f 492/2/3 486/2/3 491/2/3
f 493/2/3 488/2/3 487/2/3
f 493/3/3 487/3/3 492/3/3
f 494/3/3 489/3/3 488/3/3
f 494/2/3 488/2/3 493/2/3
f 495/2/3 490/2/3 489/2/3
f 495/3/3 489/3/3 494/3/3
f 496/2/3 490/2/3 495/2/3
f 497/7/3 491/7/3 484/7/3
f 498/3/3 492/3/3 491/3/3
f 498/7/3 491/7/3 497/7/3
f 499/2/3 493/2/3 492/2/3
f 499/3/3 492/3/3 498/3/3
f 500/3/3 494/3/3 493/3/3
f 500/2/3 493/2/3 499/2/3
f 501/2/3 495/2/3 494/2/3
f 501/3/3 494/3/3 500/3/3
f 502/3/3 496/3/3 495/3/3
f 502/2/3 495/2/3 501/2/3
f 503/3/3 496/3/3 502/3/3
f 506/1/3 505/1/3 504/1/3
f 507/1/3 505/1/3 506/1/3
f 508/1/3 506/1/3 504/1/3
f 509/1/3 506/1/3 508/1/3
f 512/1/3 511/1/3 510/1/3
f 514/1/3 512/1/3 510/1/3
f 514/1/3 513/1/3 512/1/3
f 515/1/3 513/1/3 514/1/3
f 518/4/3 517/4/3 516/4/3
f 519/4/3 517/4/3 518/4/3
f 520/1/4 521/1/4 529/1/4
f 529/1/4 521/1/4 530/1/4
f 522/7/4 523/7/4 531/7/4
f 523/3/4 524/3/4 531/3/4
f 524/2/4 525/2/4 532/2/4
f 531/3/4 524/3/4 532/3/4
f 525/3/4 526/3/4 533/3/4
f 532/2/4 525/2/4 533/2/4
f 526/2/4 527/2/4 534/2/4
f 533/3/4 526/3/4 534/3/4
f 527/3/4 528/3/4 535/3/4
f 534/2/4 527/2/4 535/2/4
f 535/3/4 528/3/4 536/3/4
f 520/1/4 529/1/4 537/1/4
f 537/1/4 529/1/4 538/1/4
f 522/7/4 531/7/4 540/7/4
f 531/2/4 532/2/4 541/2/4
f 540/7/4 531/7/4 541/7/4
f 532/3/4 533/3/4 542/3/4
f 541/2/4 532/2/4 542/2/4
f 533/2/4 534/2/4 543/2/4
f 542/3/4 533/3/4 543/3/4
f 534/3/4 535/3/4 544/3/4
f 543/2/4 534/2/4 544/2/4
f 535/2/4 536/2/4 545/2/4
f 544/3/4 535/3/4 545/3/4
f 545/2/4 536/2/4 546/2/4
f 545/3/4 546/3/4 547/3/4
f 547/3/4 546/3/4 548/3/4
f 539/5/4 540/5/4 549/5/4
f 540/5/4 541/5/4 549/5/4
f 549/5/4 541/5/4 550/5/4
f 551/5/4 552/5/4 555/5/4
f 555/5/4 552/5/4 556/5/4
f 556/5/4 552/5/4 557/5/4
f 553/2/4 554/2/4 561/2/4
f 561/2/4 554/2/4 562/2/4
f 556/7/4 557/7/4 563/7/4
f 557/3/4 558/3/4 563/3/4
f 558/2/4 559/2/4 564/2/4
f 563/3/4 558/3/4 564/3/4
f 559/3/4 560/3/4 565/3/4
f 564/2/4 559/2/4 565/2/4
f 560/2/4 561/2/4 566/2/4
f 565/3/4 560/3/4 566/3/4
f 561/3/4 562/3/4 567/3/4
f 566/2/4 561/2/4 567/2/4
f 567/3/4 562/3/4 568/3/4
f 556/7/4 563/7/4 571/7/4
f 563/2/4 564/2/4 572/2/4
f 571/7/4 563/7/4 572/7/4
f 564/3/4 565/3/4 573/3/4
f 572/2/4 564/2/4 573/2/4
f 565/2/4 566/2/4 574/2/4
f 573/3/4 565/3/4 574/3/4
f 566/3/4 567/3/4 575/3/4
f 574/2/4 566/2/4 575/2/4
f 567/2/4 568/2/4 576/2/4
f 575/3/4 567/3/4 576/3/4
f 576/2/4 568/2/4 577/2/4
f 569/1/4 570/1/4 578/1/4
f 569/1/4 578/1/4 579/1/4
f 579/1/4 578/1/4 580/1/4
f 581/4/4 582/4/4 583/4/4
f 583/4/4 582/4/4 584/4/4
f 585/4/4 586/4/4 594/4/4
f 594/4/4 586/4/4 595/4/4
f 590/6/4 591/6/4 596/6/4
f 591/3/4 592/3/4 596/3/4
f 592/2/4 593/2/4 597/2/4
f 596/3/4 592/3/4 597/3/4
f 597/2/4 593/2/4 598/2/4
f 590/6/4 596/6/4 600/6/4
f 596/2/4 597/2/4 600/2/4
f 597/3/4 598/3/4 601/3/4
f 600/2/4 597/2/4 601/2/4
f 598/2/4 599/2/4 602/2/4
f 601/3/4 598/3/4 602/3/4
f 602/2/4 599/2/4 603/2/4
f 587/5/4 588/5/4 604/5/4
f 604/5/4 588/5/4 605/5/4
f 600/3/4 601/3/4 606/3/4
f 590/6/4 600/6/4 606/6/4
f 601/2/4 602/2/4 607/2/4
f 606/3/4 601/3/4 607/3/4
f 602/3/4 603/3/4 608/3/4
f 607/2/4 602/2/4 608/2/4
f 608/3/4 603/3/4 609/3/4
f 590/6/4 606/6/4 610/6/4
f 606/2/4 607/2/4 610/2/4
f 607/3/4 608/3/4 611/3/4
f 610/2/4 607/2/4 611/2/4
f 608/2/4 609/2/4 612/2/4
f 611/3/4 608/3/4 612/3/4
f 612/2/4 609/2/4 613/2/4
f 610/3/4 611/3/4 616/3/4
f 590/6/4 610/6/4 616/6/4
f 611/2/4 612/2/4 617/2/4
f 616/3/4 611/3/4 617/3/4
f 612/3/4 613/3/4 618/3/4
f 617/2/4 612/2/4 618/2/4
f 618/3/4 613/3/4 619/3/4
f 590/6/4 616/6/4 620/6/4
f 616/2/4 617/2/4 620/2/4
f 617/3/4 618/3/4 621/3/4
f 620/2/4 617/2/4 621/2/4
f 618/2/4 619/2/4 622/2/4
f 621/3/4 618/3/4 622/3/4
f 620/3/4 621/3/4 623/3/4
f 590/6/4 620/6/4 623/6/4
f 621/2/4 622/2/4 624/2/4
f 623/3/4 621/3/4 624/3/4
f 622/2/4 619/2/4 625/2/4
f 624/2/4 622/2/4 625/2/4
f 625/2/4 619/2/4 626/2/4
f 614/5/4 615/5/4 627/5/4
f 627/5/4 615/5/4 628/5/4
f 589/5/4 590/5/4 629/5/4
f 590/6/4 623/6/4 630/6/4
f 629/5/4 590/5/4 630/5/4
f 623/2/4 624/2/4 631/2/4
f 630/6/4 623/6/4 631/6/4
f 624/3/4 625/3/4 632/3/4
f 631/2/4 624/2/4 632/2/4
f 632/3/4 625/3/4 633/3/4
f 634/4/4 635/4/4 636/4/4
f 636/4/4 635/4/4 637/4/4
f 638/4/4 639/4/4 642/4/4
f 642/4/4 639/4/4 643/4/4
f 640/4/4 641/4/4 644/4/4
f 644/4/4 641/4/4 645/4/4
f 645/4/4 646/4/4 647/4/4
f 647/4/4 646/4/4 648/4/4
f 649/4/4 650/4/4 652/4/4
f 652/4/4 650/4/4 653/4/4
f 651/4/4 652/4/4 654/4/4
f 654/4/4 652/4/4 655/4/4
f 656/4/4 657/4/4 661/4/4
f 658/4/4 659/4/4 662/4/4
f 659/1/4 660/1/4 663/1/4
f 662/4/4 659/4/4 663/4/4
f 660/7/4 661/7/4 664/7/4
f 661/4/4 657/4/4 665/4/4
f 664/7/4 661/7/4 665/7/4
f 665/4/4 657/4/4 666/4/4
f 658/4/4 662/4/4 669/4/4
f 662/1/4 663/1/4 670/1/4
f 669/4/4 662/4/4 670/4/4
f 663/1/4 660/1/4 671/1/4
f 670/1/4 663/1/4 671/1/4
f 660/7/4 664/7/4 672/7/4
f 671/1/4 660/1/4 672/1/4
f 672/7/4 664/7/4 673/7/4
f 665/7/4 666/7/4 674/7/4
f 666/4/4 667/4/4 674/4/4
f 674/4/4 667/4/4 675/4/4
f 669/4/4 670/4/4 677/4/4
f 670/4/4 671/4/4 677/4/4
f 668/4/4 669/4/4 677/4/4
f 677/4/4 671/4/4 678/4/4
f 672/8/4 673/8/4 679/8/4
f 671/7/4 672/7/4 679/7/4
f 679/8/4 673/8/4 680/8/4
f 678/4/4 671/4/4 681/4/4
f 671/7/4 679/7/4 681/7/4
f 679/7/4 680/7/4 681/7/4
f 681/7/4 680/7/4 682/7/4
f 682/7/4 680/7/4 683/7/4
f 665/7/4 674/7/4 684/7/4
f 682/7/4 683/7/4 685/7/4
f 683/7/4 684/7/4 685/7/4
f 684/7/4 674/7/4 685/7/4
f 685/7/4 674/7/4 686/7/4
f 678/4/4 681/4/4 687/4/4
f 682/7/4 685/7/4 688/7/4
f 688/7/4 685/7/4 689/7/4
f 689/7/4 685/7/4 690/7/4
f 677/7/4 678/7/4 691/7/4
f 668/4/4 677/4/4 691/4/4
f 678/4/4 687/4/4 692/4/4
f 691/7/4 678/7/4 692/7/4
f 688/7/4 689/7/4 693/7/4
f 687/7/4 688/7/4 693/7/4
f 693/7/4 689/7/4 694/7/4
f 668/4/4 691/4/4 695/4/4
f 691/4/4 692/4/4 695/4/4
f 695/4/4 692/4/4 696/4/4
f 692/4/4 687/4/4 697/4/4
f 696/4/4 692/4/4 697/4/4
f 687/7/4 693/7/4 698/7/4
f 697/4/4 687/4/4 698/4/4
f 693/8/4 694/8/4 699/8/4
f 698/7/4 693/7/4 699/7/4
f 699/8/4 694/8/4 700/8/4
f 700/8/4 694/8/4 701/8/4
f 675/4/4 676/4/4 703/4/4
f 703/4/4 676/4/4 704/4/4
f 698/1/4 699/1/4 705/1/4
f 697/1/4 698/1/4 705/1/4
f 696/4/4 697/4/4 705/4/4
f 705/1/4 699/1/4 706/1/4
f 699/7/4 700/7/4 707/7/4
f 707/7/4 700/7/4 708/7/4
f 702/4/4 703/4/4 710/4/4
f 710/4/4 703/4/4 711/4/4
f 696/4/4 705/4/4 712/4/4
f 705/4/4 706/4/4 712/4/4
f 706/1/4 699/1/4 713/1/4
f 712/4/4 706/4/4 713/4/4
f 699/7/4 707/7/4 714/7/4
f 713/1/4 699/1/4 714/1/4
f 714/7/4 707/7/4 715/7/4
f 709/4/4 710/4/4 717/4/4
f 716/4/4 717/4/4 718/4/4
f 717/4/4 710/4/4 719/4/4
f 718/4/4 717/4/4 719/4/4
f 720/4/4 721/4/4 726/4/4
f 726/4/4 721/4/4 727/4/4
f 722/4/4 723/4/4 729/4/4
f 724/1/4 725/1/4 730/1/4
f 730/1/4 725/1/4 731/1/4
f 728/4/4 729/4/4 733/4/4
f 732/4/4 733/4/4 735/4/4
f 733/4/4 729/4/4 736/4/4
f 729/4/4 723/4/4 736/4/4
f 735/4/4 733/4/4 736/4/4
f 736/4/4 723/4/4 737/4/4
f 734/4/4 735/4/4 739/4/4
f 735/4/4 736/4/4 739/4/4
f 739/4/4 736/4/4 740/4/4
f 740/4/4 736/4/4 741/4/4
f 738/4/4 739/4/4 742/4/4
f 739/4/4 740/4/4 742/4/4
f 742/4/4 740/4/4 743/4/4
f 748/5/5 745/5/5 744/5/5
f 749/5/5 745/5/5 748/5/5
f 750/5/5 747/5/5 746/5/5
f 751/5/5 747/5/5 750/5/5
f 756/7/5 753/7/5 752/7/5
f 757/7/5 753/7/5 756/7/5
f 758/7/5 755/7/5 754/7/5
f 759/7/5 755/7/5 758/7/5
f 764/5/5 761/5/5 760/5/5
f 765/5/5 761/5/5 764/5/5
f 766/5/5 763/5/5 762/5/5
f 767/5/5 763/5/5 766/5/5
f 769/5/5 766/5/5 765/5/5
f 770/5/5 766/5/5 769/5/5
f 772/5/5 769/5/5 768/5/5
f 772/5/5 771/5/5 770/5/5
f 772/5/5 770/5/5 769/5/5
f 773/5/5 771/5/5 772/5/5
f 776/6/5 775/6/5 774/6/5
f 777/6/5 775/6/5 776/6/5
f 780/4/5 779/4/5 778/4/5
f 781/4/5 779/4/5 780/4/5
f 785/7/5 783/7/5 782/7/5
f 786/7/5 783/7/5 785/7/5
f 787/7/5 783/7/5 786/7/5
f 788/7/5 783/7/5 787/7/5
f 789/7/5 783/7/5 788/7/5
f 790/7/5 783/7/5 789/7/5
f 791/7/5 783/7/5 790/7/5
f 792/7/5 783/7/5 791/7/5
f 793/7/5 783/7/5 792/7/5
f 795/7/5 785/7/5 784/7/5
f 795/7/5 786/7/5 785/7/5
f 796/7/5 786/7/5 795/7/5
f 797/7/5 794/7/5 793/7/5
f 797/7/5 793/7/5 792/7/5
f 798/7/5 794/7/5 797/7/5
f 799/7/5 795/7/5 784/7/5
f 800/7/5 795/7/5 799/7/5
f 801/7/5 794/7/5 798/7/5
f 802/7/5 794/7/5 801/7/5
f 809/7/5 804/7/5 803/7/5
f 809/7/5 805/7/5 804/7/5
f 810/7/5 805/7/5 809/7/5
f 815/7/5 808/7/5 807/7/5
f 815/7/5 807/7/5 806/7/5
f 816/7/5 808/7/5 815/7/5
f 817/4/5 814/4/5 813/4/5
f 817/4/5 813/4/5 812/4/5
f 817/4/5 816/4/5 815/4/5
f 817/4/5 815/4/5 814/4/5
f 817/4/5 810/4/5 809/4/5
f 817/4/5 812/4/5 811/4/5
f 817/4/5 811/4/5 810/4/5
f 818/4/5 816/4/5 817/4/5
f 819/4/5 817/4/5 809/4/5
f 820/4/5 817/4/5 819/4/5
f 821/4/5 816/4/5 818/4/5
f 822/4/5 816/4/5 821/4/5
f 827/7/5 824/7/5 823/7/5
f 828/7/5 824/7/5 827/7/5
f 829/7/5 826/7/5 825/7/5
f 830/7/5 826/7/5 829/7/5
f 833/1/5 832/1/5 831/1/5
f 834/1/5 832/1/5 833/1/5
f 837/4/5 836/4/5 835/4/5
f 838/4/5 836/4/5 837/4/5
f 843/1/5 840/1/5 839/1/5
f 844/1/5 840/1/5 843/1/5
f 845/1/5 842/1/5 841/1/5
f 846/1/5 842/1/5 845/1/5
f 852/4/5 848/4/5 847/4/5
f 853/4/5 848/4/5 852/4/5
f 854/4/5 850/4/5 849/4/5
f 855/4/5 850/4/5 854/4/5
f 857/4/5 852/4/5 851/4/5
f 858/4/5 852/4/5 857/4/5
f 859/4/5 856/4/5 855/4/5
f 860/4/5 856/4/5 859/4/5
f 863/4/5 862/4/5 861/4/5
f 864/4/5 862/4/5 863/4/5
f 867/4/5 866/4/5 865/4/5
f 868/4/5 866/4/5 867/4/5
f 871/4/5 870/4/5 869/4/5
f 872/4/5 870/4/5 871/4/5
f 877/4/5 874/4/5 873/4/5
f 878/4/5 876/4/5 875/4/5
f 879/4/5 876/4/5 878/4/5
f 887/4/5 874/4/5 877/4/5
f 888/4/5 874/4/5 887/4/5
f 889/4/5 881/4/5 880/4/5
f 889/4/5 882/4/5 881/4/5
f 889/4/5 883/4/5 882/4/5
f 890/4/5 883/4/5 889/4/5
f 891/4/5 886/4/5 885/4/5
f 891/4/5 885/4/5 884/4/5
f 892/4/5 886/4/5 891/4/5
f 895/4/5 894/4/5 893/4/5
f 896/4/5 894/4/5 895/4/5
f 899/4/5 898/4/5 897/4/5
f 900/4/5 898/4/5 899/4/5
f 903/4/5 902/4/5 901/4/5
f 904/4/5 902/4/5 903/4/5
f 905/5/6 906/5/6 909/5/6
f 909/5/6 906/5/6 910/5/6
f 907/5/6 908/5/6 911/5/6
f 911/5/6 908/5/6 912/5/6
f 913/2/6 914/2/6 917/2/6
f 917/2/6 914/2/6 918/2/6
f 915/3/6 916/3/6 919/3/6
f 919/3/6 916/3/6 920/3/6
f 921/2/6 922/2/6 925/2/6
f 925/2/6 922/2/6 926/2/6
f 923/3/6 924/3/6 927/3/6
f 927/3/6 924/3/6 928/3/6
f 929/2/6 930/2/6 933/2/6
f 933/2/6 930/2/6 934/2/6
f 931/3/6 932/3/6 935/3/6
f 935/3/6 932/3/6 936/3/6
f 933/3/6 934/3/6 937/3/6
f 937/3/6 934/3/6 938/3/6
f 935/2/6 936/2/6 939/2/6
f 939/2/6 936/2/6 940/2/6
f 941/1/6 942/1/6 943/1/6
f 943/1/6 942/1/6 944/1/6
f 945/1/6 946/1/6 949/1/6
f 949/1/6 946/1/6 950/1/6
f 947/1/6 948/1/6 951/1/6
f 951/1/6 948/1/6 952/1/6
f 953/4/6 954/4/6 957/4/6
f 957/4/6 954/4/6 958/4/6
f 955/4/6 956/4/6 959/4/6
f 959/4/6 956/4/6 960/4/6
f 961/4/6 962/4/6 964/4/6
f 964/4/6 962/4/6 965/4/6
f 963/4/6 964/4/6 967/4/6
f 967/4/6 964/4/6 968/4/6
f 965/4/6 966/4/6 969/4/6
f 969/4/6 966/4/6 970/4/6
f 971/4/6 972/4/6 975/4/6
f 975/4/6 972/4/6 976/4/6
f 973/4/6 974/4/6 978/4/6
f 978/4/6 974/4/6 979/4/6
f 977/4/6 978/4/6 980/4/6
f 980/4/6 978/4/6 981/4/6
f 982/4/6 983/4/6 985/4/6
f 985/4/6 983/4/6 986/4/6
f 986/4/6 983/4/6 987/4/6
f 987/4/6 983/4/6 988/4/6
f 984/4/6 985/4/6 990/4/6
f 985/4/6 986/4/6 990/4/6
f 990/4/6 986/4/6 991/4/6
f 988/4/6 989/4/6 992/4/6
f 987/4/6 988/4/6 992/4/6
f 992/4/6 989/4/6 993/4/6
f 984/4/6 990/4/6 994/4/6
f 993/4/6 989/4/6 997/4/6
f 994/4/6 995/4/6 998/4/6
f 984/4/6 994/4/6 998/4/6
f 998/4/6 995/4/6 999/4/6
f 996/4/6 997/4/6 1002/4/6
f 997/4/6 989/4/6 1003/4/6
f 1002/4/6 997/4/6 1003/4/6
f 999/4/6 1000/4/6 1004/4/6
f 1004/4/6 1000/4/6 1005/4/6
f 1001/4/6 1002/4/6 1006/4/6
f 1006/4/6 1002/4/6 1007/4/6
f 1005/4/6 1006/4/6 1008/4/6
f 1008/4/6 1006/4/6 1009/4/6
f 1010/4/6 1011/4/6 1013/4/6
f 1013/4/6 1011/4/6 1014/4/6
f 1012/4/6 1013/4/6 1016/4/6
f 1014/4/6 1015/4/6 1016/4/6
f 1013/4/6 1014/4/6 1016/4/6
f 1016/4/6 1015/4/6 1017/4/6
f 1017/4/6 1015/4/6 1018/4/6
f 1018/4/6 1015/4/6 1019/4/6
f 1017/4/6 1018/4/6 1020/4/6
f 1020/4/6 1018/4/6 1021/4/6
f 1021/4/6 1018/4/6 1022/4/6
f 1022/4/6 1018/4/6 1023/4/6
f 1021/4/6 1022/4/6 1024/4/6
f 1024/4/6 1022/4/6 1025/4/6
