# MagicaVoxel @ Ephtracy

# group
o 

# material
mtllib OrangePlayer1.mtl
usemtl palette

# normals
vn -1 0 0
vn 1 0 0
vn 0 0 1
vn 0 0 -1
vn 0 -1 0
vn 0 1 0

# texcoords
vt 0.166016 0.5
vt 0.173828 0.5
vt 0.177734 0.5
vt 0.189453 0.5
vt 0.208984 0.5
vt 0.212891 0.5
vt 0.470703 0.5
vt 0.994141 0.5

# verts
v -0.7 2.2 0
v -0.7 2.2 -0.1
v -0.7 2.5 0
v -0.7 2.5 -0.1
v -0.7 2.5 -0.2
v -0.7 2.5 -0.4
v -0.7 2.6 -0.2
v -0.7 2.6 -0.4
v -0.6 1.3 0.1
v -0.6 1.3 -0.1
v -0.6 1.6 0.1
v -0.6 1.6 0
v -0.6 1.6 -0.1
v -0.6 1.7 0.1
v -0.6 1.7 0
v -0.6 1.8 0.4
v -0.6 1.8 0.3
v -0.6 1.8 0.2
v -0.6 1.8 0.1
v -0.6 1.8 -0.1
v -0.6 1.8 -0.3
v -0.6 1.8 -0.4
v -0.6 1.9 0.3
v -0.6 1.9 0.2
v -0.6 1.9 0.1
v -0.6 1.9 -0.1
v -0.6 1.9 -0.2
v -0.6 2 -0.2
v -0.6 2 -0.3
v -0.6 2.2 0
v -0.6 2.2 -0.1
v -0.6 2.5 0.4
v -0.6 2.5 0.3
v -0.6 2.5 0
v -0.6 2.5 -0.1
v -0.6 2.5 -0.2
v -0.6 2.5 -0.4
v -0.6 2.5 -0.5
v -0.6 2.6 0.3
v -0.6 2.6 0.2
v -0.6 2.6 -0.2
v -0.6 2.6 -0.4
v -0.6 2.6 -0.5
v -0.6 2.7 0.2
v -0.6 2.7 -0.4
v -0.5 1.9 -0.2
v -0.5 1.9 -0.3
v -0.5 2 0.5
v -0.5 2 0.4
v -0.5 2 -0.2
v -0.5 2 -0.3
v -0.5 2.5 0.4
v -0.5 2.5 0.3
v -0.5 2.6 0.3
v -0.5 2.6 0.2
v -0.5 2.6 -0.4
v -0.5 2.6 -0.5
v -0.5 2.7 0.5
v -0.5 2.7 0.4
v -0.5 2.7 0.2
v -0.5 2.7 -0.4
v -0.5 2.7 -0.5
v -0.5 2.8 0.4
v -0.5 2.8 -0.4
v -0.4 1 0.2
v -0.4 1 -0.2
v -0.4 1.2 0.2
v -0.4 1.2 -0.1
v -0.4 1.2 -0.2
v -0.4 1.3 0.1
v -0.4 1.3 -0.1
v -0.4 1.4 0.3
v -0.4 1.4 0.2
v -0.4 1.4 -0.1
v -0.4 1.4 -0.2
v -0.4 1.5 0.3
v -0.4 1.5 0.1
v -0.4 1.5 -0.1
v -0.4 1.5 -0.2
v -0.4 1.6 0.1
v -0.4 1.6 -0.1
v -0.4 1.7 0.3
v -0.4 1.7 0.2
v -0.4 1.8 0.4
v -0.4 1.8 0.3
v -0.4 1.8 0.1
v -0.4 1.8 -0.1
v -0.4 1.8 -0.2
v -0.4 1.9 0.6
v -0.4 1.9 0.4
v -0.4 1.9 0.3
v -0.4 1.9 0.2
v -0.4 1.9 0.1
v -0.4 2 0.5
v -0.4 2 0.4
v -0.4 2.6 0.6
v -0.4 2.6 0.5
v -0.4 2.7 0.5
v -0.4 2.7 0.4
v -0.4 2.7 -0.4
v -0.4 2.7 -0.5
v -0.4 2.8 0.5
v -0.4 2.8 0.4
v -0.4 2.8 0.3
v -0.4 2.8 -0.4
v -0.4 2.9 0.3
v -0.4 2.9 -0.5
v -0.3 1.5 -0.2
v -0.3 1.5 -0.3
v -0.3 1.7 0.3
v -0.3 1.7 0.2
v -0.3 1.7 -0.2
v -0.3 1.7 -0.3
v -0.3 1.8 0.6
v -0.3 1.8 0.5
v -0.3 1.8 0.3
v -0.3 1.8 0.2
v -0.3 1.8 -0.1
v -0.3 1.8 -0.2
v -0.3 1.8 -0.3
v -0.3 1.9 0.6
v -0.3 1.9 0.5
v -0.3 1.9 -0.1
v -0.3 1.9 -0.2
v -0.3 1.9 -0.3
v -0.3 1.9 -0.4
v -0.3 2 -0.3
v -0.3 2 -0.4
v -0.3 2.6 0.6
v -0.3 2.6 0.5
v -0.3 2.7 0.6
v -0.3 2.7 0.5
v -0.3 2.8 0.4
v -0.3 2.8 0.3
v -0.3 2.9 0.4
v -0.3 2.9 0.3
v -0.1 2.1 -0.4
v -0.1 2.1 -0.5
v -0.1 2.4 -0.4
v -0.1 2.4 -0.5
v -0.1 2.7 -0.4
v -0.1 2.7 -0.5
v -0.1 2.8 -0.4
v -0.1 2.8 -0.5
v 0.1 1 0.2
v 0.1 1 -0.2
v 0.1 1.2 0.2
v 0.1 1.2 -0.1
v 0.1 1.2 -0.2
v 0.1 1.4 0.3
v 0.1 1.4 0.2
v 0.1 1.4 -0.1
v 0.1 1.5 0.3
v 0.1 1.5 0.2
v 0.1 2.8 0.3
v 0.1 2.8 -0.5
v 0.1 2.9 0.3
v 0.1 2.9 -0.5
v 0.2 2.7 -0.4
v 0.2 2.7 -0.5
v 0.2 2.8 0.4
v 0.2 2.8 0.3
v 0.2 2.8 -0.4
v 0.2 2.8 -0.5
v 0.2 2.9 0.4
v 0.2 2.9 0.3
v 0.3 1.8 0.4
v 0.3 1.8 0.3
v 0.3 1.9 0.4
v 0.3 1.9 0.3
v 0.3 2.6 -0.4
v 0.3 2.6 -0.5
v 0.3 2.7 -0.4
v 0.3 2.7 -0.5
v 0.5 1.8 0.4
v 0.5 1.8 0.3
v 0.5 1.8 -0.1
v 0.5 1.8 -0.2
v 0.5 1.8 -0.3
v 0.5 1.8 -0.4
v 0.5 1.9 0.4
v 0.5 1.9 0.3
v 0.5 1.9 -0.1
v 0.5 1.9 -0.2
v 0.5 1.9 -0.3
v 0.5 2 -0.3
v 0.5 2 -0.4
v 0.5 2.5 -0.4
v 0.5 2.5 -0.5
v 0.5 2.6 -0.4
v 0.5 2.6 -0.5
v -0.5 1.8 0.4
v -0.5 1.8 0.3
v -0.5 1.8 0.2
v -0.5 1.8 0.1
v -0.5 1.8 -0.3
v -0.5 1.8 -0.4
v -0.5 1.9 0.4
v -0.5 1.9 0.3
v -0.5 1.9 0.2
v -0.5 1.9 0.1
v -0.5 1.9 -0.3
v -0.5 2 -0.3
v -0.5 2 -0.4
v -0.5 2.5 -0.4
v -0.5 2.5 -0.5
v -0.5 2.6 -0.4
v -0.5 2.6 -0.5
v -0.3 1.8 0.4
v -0.3 1.8 0.3
v -0.3 1.9 0.4
v -0.3 1.9 0.3
v -0.3 2.6 -0.4
v -0.3 2.6 -0.5
v -0.3 2.7 -0.4
v -0.3 2.7 -0.5
v -0.2 2.7 -0.4
v -0.2 2.7 -0.5
v -0.2 2.8 -0.4
v -0.2 2.8 -0.5
v -0.1 1 0.2
v -0.1 1 -0.2
v -0.1 1.2 0.2
v -0.1 1.2 -0.1
v -0.1 1.2 -0.2
v -0.1 1.4 0.3
v -0.1 1.4 0.2
v -0.1 1.4 -0.1
v -0.1 1.5 0.3
v -0.1 1.5 0.2
v -0.1 2.8 0.4
v -0.1 2.8 -0.5
v -0.1 2.9 0.4
v -0.1 2.9 -0.5
v 0.1 2.1 -0.4
v 0.1 2.1 -0.5
v 0.1 2.4 -0.4
v 0.1 2.4 -0.5
v 0.1 2.7 -0.4
v 0.1 2.7 -0.5
v 0.1 2.8 -0.4
v 0.1 2.8 -0.5
v 0.3 1.5 -0.2
v 0.3 1.5 -0.3
v 0.3 1.6 -0.2
v 0.3 1.6 -0.3
v 0.3 1.7 0.3
v 0.3 1.7 0.2
v 0.3 1.7 -0.2
v 0.3 1.8 0.6
v 0.3 1.8 0.5
v 0.3 1.8 0.3
v 0.3 1.8 0.2
v 0.3 1.8 -0.1
v 0.3 1.8 -0.2
v 0.3 1.8 -0.3
v 0.3 1.9 0.6
v 0.3 1.9 0.5
v 0.3 1.9 -0.1
v 0.3 1.9 -0.2
v 0.3 1.9 -0.3
v 0.3 1.9 -0.4
v 0.3 2 -0.3
v 0.3 2 -0.4
v 0.3 2.6 0.6
v 0.3 2.6 0.5
v 0.3 2.7 0.6
v 0.3 2.7 0.5
v 0.3 2.8 0.4
v 0.3 2.8 0.3
v 0.3 2.9 0.4
v 0.3 2.9 0.3
v 0.4 1 0.2
v 0.4 1 -0.2
v 0.4 1.2 0.2
v 0.4 1.2 -0.1
v 0.4 1.2 -0.2
v 0.4 1.3 0.1
v 0.4 1.3 -0.1
v 0.4 1.4 0.3
v 0.4 1.4 0.2
v 0.4 1.4 -0.1
v 0.4 1.4 -0.2
v 0.4 1.5 0.3
v 0.4 1.5 0.1
v 0.4 1.5 -0.1
v 0.4 1.5 -0.2
v 0.4 1.6 0.1
v 0.4 1.6 -0.1
v 0.4 1.7 0.3
v 0.4 1.7 0.2
v 0.4 1.7 -0.1
v 0.4 1.7 -0.2
v 0.4 1.8 0.4
v 0.4 1.8 0.3
v 0.4 1.8 0.1
v 0.4 1.8 -0.1
v 0.4 1.8 -0.2
v 0.4 1.9 0.6
v 0.4 1.9 0.4
v 0.4 1.9 0.3
v 0.4 1.9 0.2
v 0.4 1.9 0.1
v 0.4 2 0.5
v 0.4 2 0.4
v 0.4 2.6 0.6
v 0.4 2.6 0.5
v 0.4 2.7 0.5
v 0.4 2.7 0.4
v 0.4 2.7 -0.4
v 0.4 2.7 -0.5
v 0.4 2.8 0.5
v 0.4 2.8 0.4
v 0.4 2.8 0.3
v 0.4 2.8 -0.4
v 0.4 2.9 0.3
v 0.4 2.9 -0.5
v 0.5 1.9 0.3
v 0.5 1.9 0.2
v 0.5 1.9 -0.2
v 0.5 1.9 -0.3
v 0.5 2 0.5
v 0.5 2 0.4
v 0.5 2 0.3
v 0.5 2 0.2
v 0.5 2 -0.2
v 0.5 2 -0.3
v 0.5 2.5 0.4
v 0.5 2.5 0.3
v 0.5 2.6 0.3
v 0.5 2.6 0.2
v 0.5 2.6 -0.4
v 0.5 2.6 -0.5
v 0.5 2.7 0.5
v 0.5 2.7 0.4
v 0.5 2.7 0.2
v 0.5 2.7 -0.4
v 0.5 2.7 -0.5
v 0.5 2.8 0.4
v 0.5 2.8 -0.4
v 0.6 1.3 0.1
v 0.6 1.3 -0.1
v 0.6 1.6 0.1
v 0.6 1.6 -0.1
v 0.6 1.8 0.4
v 0.6 1.8 0.3
v 0.6 1.8 0.1
v 0.6 1.8 -0.1
v 0.6 1.8 -0.2
v 0.6 1.8 -0.3
v 0.6 1.8 -0.4
v 0.6 1.9 0.2
v 0.6 1.9 0.1
v 0.6 1.9 -0.1
v 0.6 2 0.3
v 0.6 2 0.2
v 0.6 2 -0.2
v 0.6 2 -0.3
v 0.6 2.2 0
v 0.6 2.2 -0.1
v 0.6 2.4 -0.1
v 0.6 2.4 -0.2
v 0.6 2.5 0.4
v 0.6 2.5 0.3
v 0.6 2.5 0
v 0.6 2.5 -0.1
v 0.6 2.5 -0.2
v 0.6 2.5 -0.4
v 0.6 2.5 -0.5
v 0.6 2.6 0.3
v 0.6 2.6 0.2
v 0.6 2.6 -0.2
v 0.6 2.6 -0.4
v 0.6 2.6 -0.5
v 0.6 2.7 0.2
v 0.6 2.7 -0.4
v 0.7 2.2 0
v 0.7 2.2 -0.1
v 0.7 2.4 -0.1
v 0.7 2.4 -0.2
v 0.7 2.5 0
v 0.7 2.5 -0.1
v 0.7 2.5 -0.2
v 0.7 2.5 -0.4
v 0.7 2.6 -0.2
v 0.7 2.6 -0.4
v -0.4 1.9 0.6
v -0.4 2.6 0.6
v -0.3 1.8 0.6
v -0.3 1.9 0.6
v -0.3 2.6 0.6
v -0.3 2.7 0.6
v 0.3 1.8 0.6
v 0.3 1.9 0.6
v 0.3 2.6 0.6
v 0.3 2.7 0.6
v 0.4 1.9 0.6
v 0.4 2.6 0.6
v -0.5 2 0.5
v -0.5 2.7 0.5
v -0.4 2 0.5
v -0.4 2.6 0.5
v -0.4 2.7 0.5
v -0.4 2.8 0.5
v -0.3 2.6 0.5
v -0.3 2.7 0.5
v 0.3 2.6 0.5
v 0.3 2.7 0.5
v 0.4 2 0.5
v 0.4 2.6 0.5
v 0.4 2.7 0.5
v 0.4 2.8 0.5
v 0.5 2 0.5
v 0.5 2.7 0.5
v -0.6 1.8 0.4
v -0.6 2.5 0.4
v -0.5 1.8 0.4
v -0.5 1.9 0.4
v -0.5 2 0.4
v -0.5 2.5 0.4
v -0.5 2.7 0.4
v -0.5 2.8 0.4
v -0.4 1.8 0.4
v -0.4 1.9 0.4
v -0.4 2 0.4
v -0.4 2.7 0.4
v -0.4 2.8 0.4
v -0.3 1.8 0.4
v -0.3 1.9 0.4
v -0.3 2.8 0.4
v -0.3 2.9 0.4
v -0.1 2.8 0.4
v -0.1 2.9 0.4
v 0.2 2.8 0.4
v 0.2 2.9 0.4
v 0.3 1.8 0.4
v 0.3 1.9 0.4
v 0.3 2.8 0.4
v 0.3 2.9 0.4
v 0.4 1.8 0.4
v 0.4 1.9 0.4
v 0.4 2 0.4
v 0.4 2.7 0.4
v 0.4 2.8 0.4
v 0.5 1.8 0.4
v 0.5 1.9 0.4
v 0.5 2 0.4
v 0.5 2.5 0.4
v 0.5 2.7 0.4
v 0.5 2.8 0.4
v 0.6 1.8 0.4
v 0.6 2.5 0.4
v -0.6 2.5 0.3
v -0.6 2.6 0.3
v -0.5 2.5 0.3
v -0.5 2.6 0.3
v -0.4 1.4 0.3
v -0.4 1.5 0.3
v -0.4 1.7 0.3
v -0.4 2.8 0.3
v -0.4 2.9 0.3
v -0.3 1.5 0.3
v -0.3 1.6 0.3
v -0.3 1.7 0.3
v -0.3 1.8 0.3
v -0.3 2.8 0.3
v -0.3 2.9 0.3
v -0.2 1.5 0.3
v -0.2 1.6 0.3
v -0.1 1.4 0.3
v -0.1 1.5 0.3
v 0.1 1.4 0.3
v 0.1 1.5 0.3
v 0.1 2.8 0.3
v 0.1 2.9 0.3
v 0.2 1.7 0.3
v 0.2 1.8 0.3
v 0.2 2.8 0.3
v 0.2 2.9 0.3
v 0.3 1.7 0.3
v 0.3 1.8 0.3
v 0.3 2.8 0.3
v 0.3 2.9 0.3
v 0.4 1.4 0.3
v 0.4 1.5 0.3
v 0.4 1.7 0.3
v 0.4 2.8 0.3
v 0.4 2.9 0.3
v 0.5 2.5 0.3
v 0.5 2.6 0.3
v 0.6 2.5 0.3
v 0.6 2.6 0.3
v -0.6 1.8 0.2
v -0.6 1.9 0.2
v -0.6 2.6 0.2
v -0.6 2.7 0.2
v -0.5 1.8 0.2
v -0.5 1.9 0.2
v -0.5 2.6 0.2
v -0.5 2.7 0.2
v -0.4 1 0.2
v -0.4 1.2 0.2
v -0.4 1.4 0.2
v -0.4 1.7 0.2
v -0.4 1.9 0.2
v -0.3 1.7 0.2
v -0.3 1.8 0.2
v -0.3 1.9 0.2
v -0.1 1 0.2
v -0.1 1.2 0.2
v -0.1 1.4 0.2
v -0.1 1.5 0.2
v 0.1 1 0.2
v 0.1 1.2 0.2
v 0.1 1.4 0.2
v 0.1 1.5 0.2
v 0.2 1.8 0.2
v 0.3 1.7 0.2
v 0.3 1.8 0.2
v 0.3 1.9 0.2
v 0.4 1 0.2
v 0.4 1.2 0.2
v 0.4 1.4 0.2
v 0.4 1.7 0.2
v 0.4 1.9 0.2
v 0.5 1.9 0.2
v 0.5 2 0.2
v 0.5 2.6 0.2
v 0.5 2.7 0.2
v 0.6 1.9 0.2
v 0.6 2 0.2
v 0.6 2.6 0.2
v 0.6 2.7 0.2
v -0.6 1.3 0.1
v -0.6 1.6 0.1
v -0.6 1.7 0.1
v -0.6 1.8 0.1
v -0.5 1.6 0.1
v -0.5 1.7 0.1
v -0.5 1.8 0.1
v -0.5 1.9 0.1
v -0.4 1.3 0.1
v -0.4 1.5 0.1
v -0.4 1.6 0.1
v -0.4 1.8 0.1
v -0.4 1.9 0.1
v 0.4 1.3 0.1
v 0.4 1.5 0.1
v 0.4 1.6 0.1
v 0.4 1.8 0.1
v 0.4 1.9 0.1
v 0.5 1.9 0.1
v 0.6 1.3 0.1
v 0.6 1.6 0.1
v 0.6 1.8 0.1
v 0.6 1.9 0.1
v -0.7 2.2 0
v -0.7 2.5 0
v -0.6 2.2 0
v -0.6 2.5 0
v 0.6 2.2 0
v 0.6 2.5 0
v 0.7 2.2 0
v 0.7 2.5 0
v -0.7 2.5 -0.2
v -0.7 2.6 -0.2
v -0.6 2.5 -0.2
v -0.6 2.6 -0.2
v 0.6 2.5 -0.2
v 0.6 2.6 -0.2
v 0.7 2.5 -0.2
v 0.7 2.6 -0.2
v -0.6 1.8 -0.3
v -0.6 2 -0.3
v -0.5 1.8 -0.3
v -0.5 1.9 -0.3
v -0.5 2 -0.3
v 0.5 1.8 -0.3
v 0.5 1.9 -0.3
v 0.5 2 -0.3
v 0.6 1.8 -0.3
v 0.6 2 -0.3
v -0.3 1.8 0.5
v -0.3 1.9 0.5
v 0.3 1.8 0.5
v 0.3 1.9 0.5
v -0.6 1.8 0.3
v -0.6 1.9 0.3
v -0.5 1.8 0.3
v -0.5 1.9 0.3
v -0.4 1.8 0.3
v -0.4 1.9 0.3
v -0.3 1.8 0.3
v -0.3 1.9 0.3
v 0.3 1.8 0.3
v 0.3 1.9 0.3
v 0.4 1.8 0.3
v 0.4 1.9 0.3
v 0.5 1.8 0.3
v 0.5 1.9 0.3
v 0.5 2 0.3
v 0.6 1.8 0.3
v 0.6 2 0.3
v -0.7 2.2 -0.1
v -0.7 2.5 -0.1
v -0.6 1.3 -0.1
v -0.6 1.6 -0.1
v -0.6 1.8 -0.1
v -0.6 1.9 -0.1
v -0.6 2.2 -0.1
v -0.6 2.5 -0.1
v -0.5 1.9 -0.1
v -0.4 1.2 -0.1
v -0.4 1.3 -0.1
v -0.4 1.4 -0.1
v -0.4 1.5 -0.1
v -0.4 1.6 -0.1
v -0.4 1.8 -0.1
v -0.4 1.9 -0.1
v -0.3 1.8 -0.1
v -0.3 1.9 -0.1
v -0.1 1.2 -0.1
v -0.1 1.4 -0.1
v 0.1 1.2 -0.1
v 0.1 1.4 -0.1
v 0.3 1.8 -0.1
v 0.3 1.9 -0.1
v 0.4 1.2 -0.1
v 0.4 1.3 -0.1
v 0.4 1.4 -0.1
v 0.4 1.5 -0.1
v 0.4 1.6 -0.1
v 0.4 1.7 -0.1
v 0.4 1.8 -0.1
v 0.4 1.9 -0.1
v 0.5 1.8 -0.1
v 0.5 1.9 -0.1
v 0.6 1.3 -0.1
v 0.6 1.6 -0.1
v 0.6 1.8 -0.1
v 0.6 2.2 -0.1
v 0.6 2.4 -0.1
v 0.7 2.2 -0.1
v 0.7 2.4 -0.1
v -0.6 1.9 -0.2
v -0.6 2 -0.2
v -0.5 1.9 -0.2
v -0.5 2 -0.2
v -0.4 1 -0.2
v -0.4 1.2 -0.2
v -0.4 1.4 -0.2
v -0.4 1.5 -0.2
v -0.4 1.8 -0.2
v -0.3 1.5 -0.2
v -0.3 1.7 -0.2
v -0.3 1.8 -0.2
v -0.3 1.9 -0.2
v -0.2 1.8 -0.2
v -0.2 1.9 -0.2
v -0.1 1 -0.2
v -0.1 1.2 -0.2
v 0.1 1 -0.2
v 0.1 1.2 -0.2
v 0.2 1.5 -0.2
v 0.2 1.8 -0.2
v 0.2 1.9 -0.2
v 0.3 1.5 -0.2
v 0.3 1.6 -0.2
v 0.3 1.7 -0.2
v 0.3 1.8 -0.2
v 0.3 1.9 -0.2
v 0.4 1 -0.2
v 0.4 1.2 -0.2
v 0.4 1.4 -0.2
v 0.4 1.5 -0.2
v 0.4 1.7 -0.2
v 0.4 1.8 -0.2
v 0.5 1.8 -0.2
v 0.5 1.9 -0.2
v 0.5 2 -0.2
v 0.6 1.8 -0.2
v 0.6 2 -0.2
v 0.6 2.4 -0.2
v 0.6 2.5 -0.2
v 0.7 2.4 -0.2
v 0.7 2.5 -0.2
v -0.5 1.9 -0.3
v -0.5 2 -0.3
v -0.3 1.5 -0.3
v -0.3 1.7 -0.3
v -0.3 1.8 -0.3
v -0.3 1.9 -0.3
v -0.3 2 -0.3
v -0.2 1.7 -0.3
v -0.2 1.8 -0.3
v 0.2 1.5 -0.3
v 0.2 1.6 -0.3
v 0.3 1.5 -0.3
v 0.3 1.6 -0.3
v 0.3 1.8 -0.3
v 0.3 1.9 -0.3
v 0.3 2 -0.3
v 0.5 1.9 -0.3
v 0.5 2 -0.3
v -0.7 2.5 -0.4
v -0.7 2.6 -0.4
v -0.6 1.8 -0.4
v -0.6 2.5 -0.4
v -0.6 2.6 -0.4
v -0.6 2.7 -0.4
v -0.5 1.8 -0.4
v -0.5 2 -0.4
v -0.5 2.2 -0.4
v -0.5 2.5 -0.4
v -0.5 2.6 -0.4
v -0.5 2.7 -0.4
v -0.5 2.8 -0.4
v -0.4 2.4 -0.4
v -0.4 2.5 -0.4
v -0.4 2.6 -0.4
v -0.4 2.7 -0.4
v -0.4 2.8 -0.4
v -0.3 1.9 -0.4
v -0.3 2 -0.4
v -0.3 2.2 -0.4
v -0.3 2.4 -0.4
v -0.3 2.6 -0.4
v -0.3 2.7 -0.4
v -0.2 2.2 -0.4
v -0.2 2.5 -0.4
v -0.2 2.7 -0.4
v -0.2 2.8 -0.4
v -0.1 2.1 -0.4
v -0.1 2.4 -0.4
v -0.1 2.5 -0.4
v -0.1 2.6 -0.4
v -0.1 2.7 -0.4
v -0.1 2.8 -0.4
v 0.1 2.1 -0.4
v 0.1 2.4 -0.4
v 0.1 2.5 -0.4
v 0.1 2.6 -0.4
v 0.1 2.7 -0.4
v 0.1 2.8 -0.4
v 0.2 2.2 -0.4
v 0.2 2.5 -0.4
v 0.2 2.7 -0.4
v 0.2 2.8 -0.4
v 0.3 1.9 -0.4
v 0.3 2 -0.4
v 0.3 2.2 -0.4
v 0.3 2.4 -0.4
v 0.3 2.6 -0.4
v 0.3 2.7 -0.4
v 0.4 2.4 -0.4
v 0.4 2.5 -0.4
v 0.4 2.6 -0.4
v 0.4 2.7 -0.4
v 0.4 2.8 -0.4
v 0.5 1.8 -0.4
v 0.5 2 -0.4
v 0.5 2.2 -0.4
v 0.5 2.5 -0.4
v 0.5 2.6 -0.4
v 0.5 2.7 -0.4
v 0.5 2.8 -0.4
v 0.6 1.8 -0.4
v 0.6 2.5 -0.4
v 0.6 2.6 -0.4
v 0.6 2.7 -0.4
v 0.7 2.5 -0.4
v 0.7 2.6 -0.4
v -0.6 2.5 -0.5
v -0.6 2.6 -0.5
v -0.5 2.5 -0.5
v -0.5 2.6 -0.5
v -0.5 2.7 -0.5
v -0.4 2.7 -0.5
v -0.4 2.9 -0.5
v -0.3 2.6 -0.5
v -0.3 2.7 -0.5
v -0.2 2.7 -0.5
v -0.2 2.8 -0.5
v -0.1 2.1 -0.5
v -0.1 2.4 -0.5
v -0.1 2.7 -0.5
v -0.1 2.8 -0.5
v -0.1 2.9 -0.5
v 0.1 2.1 -0.5
v 0.1 2.4 -0.5
v 0.1 2.7 -0.5
v 0.1 2.8 -0.5
v 0.1 2.9 -0.5
v 0.2 2.7 -0.5
v 0.2 2.8 -0.5
v 0.3 2.6 -0.5
v 0.3 2.7 -0.5
v 0.4 2.7 -0.5
v 0.4 2.9 -0.5
v 0.5 2.5 -0.5
v 0.5 2.6 -0.5
v 0.5 2.7 -0.5
v 0.6 2.5 -0.5
v 0.6 2.6 -0.5
v -0.4 1 0.2
v -0.1 1 0.2
v 0.1 1 0.2
v 0.4 1 0.2
v -0.4 1 -0.2
v -0.1 1 -0.2
v 0.1 1 -0.2
v 0.4 1 -0.2
v -0.6 1.3 0.1
v -0.4 1.3 0.1
v 0.4 1.3 0.1
v 0.6 1.3 0.1
v -0.6 1.3 -0.1
v -0.4 1.3 -0.1
v 0.4 1.3 -0.1
v 0.6 1.3 -0.1
v -0.4 1.4 0.3
v -0.1 1.4 0.3
v 0.1 1.4 0.3
v 0.4 1.4 0.3
v -0.4 1.4 0.2
v -0.1 1.4 0.2
v 0.1 1.4 0.2
v 0.4 1.4 0.2
v -0.4 1.4 -0.1
v -0.1 1.4 -0.1
v 0.1 1.4 -0.1
v 0.4 1.4 -0.1
v -0.4 1.4 -0.2
v 0.4 1.4 -0.2
v -0.1 1.5 0.3
v 0.1 1.5 0.3
v -0.1 1.5 0.2
v 0.1 1.5 0.2
v -0.3 1.5 -0.2
v 0.2 1.5 -0.2
v 0.3 1.5 -0.2
v -0.3 1.5 -0.3
v 0.2 1.5 -0.3
v 0.3 1.5 -0.3
v -0.3 1.8 0.6
v 0.3 1.8 0.6
v -0.3 1.8 0.5
v 0.3 1.8 0.5
v -0.6 1.8 0.4
v -0.5 1.8 0.4
v -0.4 1.8 0.4
v -0.3 1.8 0.4
v 0.3 1.8 0.4
v 0.4 1.8 0.4
v 0.5 1.8 0.4
v 0.6 1.8 0.4
v -0.6 1.8 0.3
v -0.5 1.8 0.3
v -0.4 1.8 0.3
v -0.3 1.8 0.3
v 0.3 1.8 0.3
v 0.4 1.8 0.3
v 0.5 1.8 0.3
v 0.6 1.8 0.3
v -0.6 1.8 0.2
v -0.5 1.8 0.2
v -0.6 1.8 0.1
v -0.5 1.8 0.1
v 0.5 1.8 -0.1
v 0.6 1.8 -0.1
v 0.5 1.8 -0.2
v 0.6 1.8 -0.2
v -0.6 1.8 -0.3
v -0.5 1.8 -0.3
v 0.5 1.8 -0.3
v 0.6 1.8 -0.3
v -0.6 1.8 -0.4
v -0.5 1.8 -0.4
v 0.5 1.8 -0.4
v 0.6 1.8 -0.4
v -0.4 1.9 0.6
v -0.3 1.9 0.6
v 0.3 1.9 0.6
v 0.4 1.9 0.6
v -0.3 1.9 0.5
v 0.3 1.9 0.5
v -0.5 1.9 0.4
v -0.4 1.9 0.4
v -0.3 1.9 0.4
v 0.3 1.9 0.4
v 0.4 1.9 0.4
v 0.5 1.9 0.4
v -0.6 1.9 0.3
v -0.5 1.9 0.3
v -0.4 1.9 0.3
v -0.3 1.9 0.3
v 0.3 1.9 0.3
v 0.4 1.9 0.3
v 0.5 1.9 0.3
v -0.6 1.9 0.2
v -0.5 1.9 0.2
v -0.4 1.9 0.2
v -0.3 1.9 0.2
v 0.3 1.9 0.2
v 0.4 1.9 0.2
v 0.5 1.9 0.2
v 0.6 1.9 0.2
v -0.5 1.9 0.1
v -0.4 1.9 0.1
v 0.4 1.9 0.1
v 0.5 1.9 0.1
v 0.6 1.9 0.1
v -0.6 1.9 -0.1
v -0.5 1.9 -0.1
v -0.4 1.9 -0.1
v -0.3 1.9 -0.1
v 0.3 1.9 -0.1
v 0.4 1.9 -0.1
v 0.5 1.9 -0.1
v -0.6 1.9 -0.2
v -0.5 1.9 -0.2
v -0.3 1.9 -0.2
v -0.2 1.9 -0.2
v 0.2 1.9 -0.2
v 0.3 1.9 -0.2
v 0.5 1.9 -0.2
v -0.5 1.9 -0.3
v -0.3 1.9 -0.3
v 0.3 1.9 -0.3
v 0.5 1.9 -0.3
v -0.3 1.9 -0.4
v 0.3 1.9 -0.4
v -0.5 2 0.5
v -0.4 2 0.5
v 0.4 2 0.5
v 0.5 2 0.5
v -0.5 2 0.4
v -0.4 2 0.4
v 0.4 2 0.4
v 0.5 2 0.4
v 0.5 2 0.3
v 0.6 2 0.3
v 0.5 2 0.2
v 0.6 2 0.2
v -0.6 2 -0.2
v -0.5 2 -0.2
v 0.5 2 -0.2
v 0.6 2 -0.2
v -0.6 2 -0.3
v -0.5 2 -0.3
v -0.3 2 -0.3
v 0.3 2 -0.3
v 0.5 2 -0.3
v 0.6 2 -0.3
v -0.5 2 -0.4
v -0.3 2 -0.4
v 0.3 2 -0.4
v 0.5 2 -0.4
v -0.1 2.1 -0.4
v 0.1 2.1 -0.4
v -0.1 2.1 -0.5
v 0.1 2.1 -0.5
v -0.7 2.2 0
v -0.6 2.2 0
v 0.6 2.2 0
v 0.7 2.2 0
v -0.7 2.2 -0.1
v -0.6 2.2 -0.1
v 0.6 2.2 -0.1
v 0.7 2.2 -0.1
v 0.6 2.4 -0.1
v 0.7 2.4 -0.1
v 0.6 2.4 -0.2
v 0.7 2.4 -0.2
v -0.7 2.5 -0.2
v -0.6 2.5 -0.2
v 0.6 2.5 -0.2
v 0.7 2.5 -0.2
v -0.7 2.5 -0.4
v -0.6 2.5 -0.4
v -0.5 2.5 -0.4
v 0.5 2.5 -0.4
v 0.6 2.5 -0.4
v 0.7 2.5 -0.4
v -0.6 2.5 -0.5
v -0.5 2.5 -0.5
v 0.5 2.5 -0.5
v 0.6 2.5 -0.5
v -0.5 2.6 -0.4
v -0.4 2.6 -0.4
v -0.3 2.6 -0.4
v 0.3 2.6 -0.4
v 0.4 2.6 -0.4
v 0.5 2.6 -0.4
v -0.5 2.6 -0.5
v -0.3 2.6 -0.5
v 0.3 2.6 -0.5
v 0.5 2.6 -0.5
v -0.3 2.7 -0.4
v -0.2 2.7 -0.4
v -0.1 2.7 -0.4
v 0.1 2.7 -0.4
v 0.2 2.7 -0.4
v 0.3 2.7 -0.4
v -0.3 2.7 -0.5
v -0.2 2.7 -0.5
v -0.1 2.7 -0.5
v 0.1 2.7 -0.5
v 0.2 2.7 -0.5
v 0.3 2.7 -0.5
v -0.2 2.8 -0.4
v -0.1 2.8 -0.4
v 0.1 2.8 -0.4
v 0.2 2.8 -0.4
v -0.2 2.8 -0.5
v -0.1 2.8 -0.5
v 0.1 2.8 -0.5
v 0.2 2.8 -0.5
v -0.4 1.2 -0.1
v -0.1 1.2 -0.1
v 0.1 1.2 -0.1
v 0.4 1.2 -0.1
v -0.4 1.2 -0.2
v -0.1 1.2 -0.2
v 0.1 1.2 -0.2
v 0.4 1.2 -0.2
v -0.4 1.7 0.3
v -0.3 1.7 0.3
v 0.3 1.7 0.3
v 0.4 1.7 0.3
v -0.4 1.7 0.2
v -0.3 1.7 0.2
v 0.3 1.7 0.2
v 0.4 1.7 0.2
v -0.3 1.8 0.3
v 0.2 1.8 0.3
v 0.3 1.8 0.3
v -0.3 1.8 0.2
v 0.2 1.8 0.2
v 0.3 1.8 0.2
v -0.4 1.8 -0.1
v -0.3 1.8 -0.1
v 0.3 1.8 -0.1
v 0.4 1.8 -0.1
v -0.4 1.8 -0.2
v -0.3 1.8 -0.2
v -0.2 1.8 -0.2
v 0.2 1.8 -0.2
v 0.3 1.8 -0.2
v 0.4 1.8 -0.2
v -0.3 1.8 -0.3
v -0.2 1.8 -0.3
v 0.3 1.8 -0.3
v -0.1 2.4 -0.4
v 0.1 2.4 -0.4
v -0.1 2.4 -0.5
v 0.1 2.4 -0.5
v -0.6 2.5 0.4
v -0.5 2.5 0.4
v 0.5 2.5 0.4
v 0.6 2.5 0.4
v -0.6 2.5 0.3
v -0.5 2.5 0.3
v 0.5 2.5 0.3
v 0.6 2.5 0.3
v -0.7 2.5 0
v -0.6 2.5 0
v 0.6 2.5 0
v 0.7 2.5 0
v -0.7 2.5 -0.1
v -0.6 2.5 -0.1
v 0.6 2.5 -0.1
v 0.7 2.5 -0.1
v 0.6 2.5 -0.2
v 0.7 2.5 -0.2
v -0.4 2.6 0.6
v -0.3 2.6 0.6
v 0.3 2.6 0.6
v 0.4 2.6 0.6
v -0.4 2.6 0.5
v -0.3 2.6 0.5
v 0.3 2.6 0.5
v 0.4 2.6 0.5
v -0.6 2.6 0.3
v -0.5 2.6 0.3
v 0.5 2.6 0.3
v 0.6 2.6 0.3
v -0.6 2.6 0.2
v -0.5 2.6 0.2
v 0.5 2.6 0.2
v 0.6 2.6 0.2
v -0.7 2.6 -0.2
v -0.6 2.6 -0.2
v 0.6 2.6 -0.2
v 0.7 2.6 -0.2
v -0.7 2.6 -0.4
v -0.6 2.6 -0.4
v -0.5 2.6 -0.4
v 0.5 2.6 -0.4
v 0.6 2.6 -0.4
v 0.7 2.6 -0.4
v -0.6 2.6 -0.5
v -0.5 2.6 -0.5
v 0.5 2.6 -0.5
v 0.6 2.6 -0.5
v -0.3 2.7 0.6
v 0.3 2.7 0.6
v -0.5 2.7 0.5
v -0.4 2.7 0.5
v -0.3 2.7 0.5
v 0.3 2.7 0.5
v 0.4 2.7 0.5
v 0.5 2.7 0.5
v -0.5 2.7 0.4
v -0.4 2.7 0.4
v 0.4 2.7 0.4
v 0.5 2.7 0.4
v -0.6 2.7 0.2
v -0.5 2.7 0.2
v 0.5 2.7 0.2
v 0.6 2.7 0.2
v -0.6 2.7 -0.4
v -0.5 2.7 -0.4
v -0.4 2.7 -0.4
v 0.4 2.7 -0.4
v 0.5 2.7 -0.4
v 0.6 2.7 -0.4
v -0.5 2.7 -0.5
v -0.4 2.7 -0.5
v 0.4 2.7 -0.5
v 0.5 2.7 -0.5
v -0.4 2.8 0.5
v 0.4 2.8 0.5
v -0.5 2.8 0.4
v -0.4 2.8 0.4
v -0.3 2.8 0.4
v -0.1 2.8 0.4
v 0.2 2.8 0.4
v 0.3 2.8 0.4
v 0.4 2.8 0.4
v 0.5 2.8 0.4
v -0.4 2.8 0.3
v -0.3 2.8 0.3
v 0.1 2.8 0.3
v 0.2 2.8 0.3
v 0.3 2.8 0.3
v 0.4 2.8 0.3
v -0.5 2.8 -0.4
v -0.4 2.8 -0.4
v 0.4 2.8 -0.4
v 0.5 2.8 -0.4
v -0.1 2.8 -0.5
v 0.1 2.8 -0.5
v -0.3 2.9 0.4
v -0.1 2.9 0.4
v 0.2 2.9 0.4
v 0.3 2.9 0.4
v -0.4 2.9 0.3
v -0.3 2.9 0.3
v 0.1 2.9 0.3
v 0.2 2.9 0.3
v 0.3 2.9 0.3
v 0.4 2.9 0.3
v -0.4 2.9 -0.5
v -0.1 2.9 -0.5
v 0.1 2.9 -0.5
v 0.4 2.9 -0.5

# faces
f 3/6/1 2/6/1 1/6/1
f 4/6/1 2/6/1 3/6/1
f 7/5/1 6/5/1 5/5/1
f 8/5/1 6/5/1 7/5/1
f 11/4/1 10/4/1 9/4/1
f 12/4/1 10/4/1 11/4/1
f 13/4/1 10/4/1 12/4/1
f 14/5/1 12/5/1 11/5/1
f 15/2/1 13/2/1 12/2/1
f 15/5/1 12/5/1 14/5/1
f 19/2/1 15/2/1 14/2/1
f 20/2/1 13/2/1 15/2/1
f 20/2/1 15/2/1 19/2/1
f 23/5/1 17/5/1 16/5/1
f 24/5/1 19/5/1 18/5/1
f 25/4/1 20/4/1 19/4/1
f 25/5/1 19/5/1 24/5/1
f 26/4/1 20/4/1 25/4/1
f 28/5/1 24/5/1 23/5/1
f 28/5/1 27/5/1 26/5/1
f 28/5/1 26/5/1 25/5/1
f 28/5/1 25/5/1 24/5/1
f 29/5/1 22/5/1 21/5/1
f 30/5/1 28/5/1 23/5/1
f 30/5/1 29/5/1 28/5/1
f 31/5/1 29/5/1 30/5/1
f 32/5/1 23/5/1 16/5/1
f 32/5/1 30/5/1 23/5/1
f 33/5/1 30/5/1 32/5/1
f 34/5/1 30/5/1 33/5/1
f 35/5/1 29/5/1 31/5/1
f 36/5/1 29/5/1 35/5/1
f 37/5/1 22/5/1 29/5/1
f 37/5/1 29/5/1 36/5/1
f 39/5/1 36/5/1 35/5/1
f 39/5/1 34/5/1 33/5/1
f 39/5/1 35/5/1 34/5/1
f 40/5/1 36/5/1 39/5/1
f 41/5/1 36/5/1 40/5/1
f 42/5/1 38/5/1 37/5/1
f 43/5/1 38/5/1 42/5/1
f 44/5/1 41/5/1 40/5/1
f 44/5/1 42/5/1 41/5/1
f 45/5/1 42/5/1 44/5/1
f 50/4/1 47/4/1 46/4/1
f 51/4/1 47/4/1 50/4/1
f 52/5/1 49/5/1 48/5/1
f 54/5/1 53/5/1 52/5/1
f 58/5/1 55/5/1 54/5/1
f 58/5/1 52/5/1 48/5/1
f 58/5/1 54/5/1 52/5/1
f 59/5/1 55/5/1 58/5/1
f 60/5/1 55/5/1 59/5/1
f 61/5/1 57/5/1 56/5/1
f 62/5/1 57/5/1 61/5/1
f 63/5/1 60/5/1 59/5/1
f 63/5/1 61/5/1 60/5/1
f 64/5/1 61/5/1 63/5/1
f 67/1/1 66/1/1 65/1/1
f 68/1/1 66/1/1 67/1/1
f 69/1/1 66/1/1 68/1/1
f 70/3/1 68/3/1 67/3/1
f 71/3/1 68/3/1 70/3/1
f 73/3/1 70/3/1 67/3/1
f 76/3/1 73/3/1 72/3/1
f 77/3/1 70/3/1 73/3/1
f 77/3/1 73/3/1 76/3/1
f 78/3/1 75/3/1 74/3/1
f 79/3/1 75/3/1 78/3/1
f 80/2/1 77/2/1 76/2/1
f 81/2/1 79/2/1 78/2/1
f 82/2/1 80/2/1 76/2/1
f 83/2/1 80/2/1 82/2/1
f 86/2/1 80/2/1 83/2/1
f 87/2/1 79/2/1 81/2/1
f 88/2/1 79/2/1 87/2/1
f 90/5/1 85/5/1 84/5/1
f 91/5/1 85/5/1 90/5/1
f 92/2/1 86/2/1 83/2/1
f 93/2/1 86/2/1 92/2/1
f 94/5/1 90/5/1 89/5/1
f 95/5/1 90/5/1 94/5/1
f 96/5/1 94/5/1 89/5/1
f 97/5/1 94/5/1 96/5/1
f 102/5/1 99/5/1 98/5/1
f 103/5/1 99/5/1 102/5/1
f 105/5/1 101/5/1 100/5/1
f 106/5/1 105/5/1 104/5/1
f 107/5/1 101/5/1 105/5/1
f 107/5/1 105/5/1 106/5/1
f 112/2/1 109/2/1 108/2/1
f 113/2/1 109/2/1 112/2/1
f 116/2/1 111/2/1 110/2/1
f 117/2/1 111/2/1 116/2/1
f 119/5/1 113/5/1 112/5/1
f 120/5/1 113/5/1 119/5/1
f 121/5/1 115/5/1 114/5/1
f 122/5/1 115/5/1 121/5/1
f 123/2/1 119/2/1 118/2/1
f 124/2/1 119/2/1 123/2/1
f 127/4/1 126/4/1 125/4/1
f 128/4/1 126/4/1 127/4/1
f 131/5/1 130/5/1 129/5/1
f 132/5/1 130/5/1 131/5/1
f 135/5/1 134/5/1 133/5/1
f 136/5/1 134/5/1 135/5/1
f 139/6/1 138/6/1 137/6/1
f 140/6/1 138/6/1 139/6/1
f 143/5/1 142/5/1 141/5/1
f 144/5/1 142/5/1 143/5/1
f 147/1/1 146/1/1 145/1/1
f 148/1/1 146/1/1 147/1/1
f 149/1/1 146/1/1 148/1/1
f 151/3/1 148/3/1 147/3/1
f 152/3/1 148/3/1 151/3/1
f 153/3/1 151/3/1 150/3/1
f 154/3/1 151/3/1 153/3/1
f 157/5/1 156/5/1 155/5/1
f 158/5/1 156/5/1 157/5/1
f 163/5/1 160/5/1 159/5/1
f 164/5/1 160/5/1 163/5/1
f 165/5/1 162/5/1 161/5/1
f 166/5/1 162/5/1 165/5/1
f 169/5/1 168/5/1 167/5/1
f 170/5/1 168/5/1 169/5/1
f 173/5/1 172/5/1 171/5/1
f 174/5/1 172/5/1 173/5/1
f 181/5/1 176/5/1 175/5/1
f 182/5/1 176/5/1 181/5/1
f 183/5/1 178/5/1 177/5/1
f 184/5/1 178/5/1 183/5/1
f 185/5/1 180/5/1 179/5/1
f 186/5/1 180/5/1 185/5/1
f 187/5/1 180/5/1 186/5/1
f 190/5/1 189/5/1 188/5/1
f 191/5/1 189/5/1 190/5/1
f 192/5/2 193/5/2 198/5/2
f 198/5/2 193/5/2 199/5/2
f 194/5/2 195/5/2 200/5/2
f 200/5/2 195/5/2 201/5/2
f 196/5/2 197/5/2 202/5/2
f 202/5/2 197/5/2 203/5/2
f 203/5/2 197/5/2 204/5/2
f 205/5/2 206/5/2 207/5/2
f 207/5/2 206/5/2 208/5/2
f 209/5/2 210/5/2 211/5/2
f 211/5/2 210/5/2 212/5/2
f 213/5/2 214/5/2 215/5/2
f 215/5/2 214/5/2 216/5/2
f 217/5/2 218/5/2 219/5/2
f 219/5/2 218/5/2 220/5/2
f 221/1/2 222/1/2 223/1/2
f 223/1/2 222/1/2 224/1/2
f 224/1/2 222/1/2 225/1/2
f 223/3/2 224/3/2 227/3/2
f 227/3/2 224/3/2 228/3/2
f 226/3/2 227/3/2 229/3/2
f 229/3/2 227/3/2 230/3/2
f 231/5/2 232/5/2 233/5/2
f 233/5/2 232/5/2 234/5/2
f 235/6/2 236/6/2 237/6/2
f 237/6/2 236/6/2 238/6/2
f 239/5/2 240/5/2 241/5/2
f 241/5/2 240/5/2 242/5/2
f 243/5/2 244/5/2 245/5/2
f 245/5/2 244/5/2 246/5/2
f 245/2/2 246/2/2 249/2/2
f 247/5/2 248/5/2 252/5/2
f 252/5/2 248/5/2 253/5/2
f 249/2/2 246/2/2 255/2/2
f 255/2/2 246/2/2 256/2/2
f 250/5/2 251/5/2 257/5/2
f 257/5/2 251/5/2 258/5/2
f 254/2/2 255/2/2 259/2/2
f 259/2/2 255/2/2 260/2/2
f 261/4/2 262/4/2 263/4/2
f 263/4/2 262/4/2 264/4/2
f 265/5/2 266/5/2 267/5/2
f 267/5/2 266/5/2 268/5/2
f 269/5/2 270/5/2 271/5/2
f 271/5/2 270/5/2 272/5/2
f 273/1/2 274/1/2 275/1/2
f 275/1/2 274/1/2 276/1/2
f 276/1/2 274/1/2 277/1/2
f 275/3/2 276/3/2 278/3/2
f 278/3/2 276/3/2 279/3/2
f 275/3/2 278/3/2 281/3/2
f 280/3/2 281/3/2 284/3/2
f 281/3/2 278/3/2 285/3/2
f 284/3/2 281/3/2 285/3/2
f 282/3/2 283/3/2 286/3/2
f 286/3/2 283/3/2 287/3/2
f 284/2/2 285/2/2 288/2/2
f 286/2/2 287/2/2 289/2/2
f 284/2/2 288/2/2 290/2/2
f 290/2/2 288/2/2 291/2/2
f 289/2/2 287/2/2 292/2/2
f 292/2/2 287/2/2 293/2/2
f 291/2/2 288/2/2 296/2/2
f 292/5/2 293/5/2 297/5/2
f 297/5/2 293/5/2 298/5/2
f 294/5/2 295/5/2 300/5/2
f 300/5/2 295/5/2 301/5/2
f 291/2/2 296/2/2 302/2/2
f 302/2/2 296/2/2 303/2/2
f 299/5/2 300/5/2 304/5/2
f 304/5/2 300/5/2 305/5/2
f 299/5/2 304/5/2 306/5/2
f 306/5/2 304/5/2 307/5/2
f 308/5/2 309/5/2 312/5/2
f 312/5/2 309/5/2 313/5/2
f 310/5/2 311/5/2 315/5/2
f 314/5/2 315/5/2 316/5/2
f 315/5/2 311/5/2 317/5/2
f 316/5/2 315/5/2 317/5/2
f 318/4/2 319/4/2 324/4/2
f 324/4/2 319/4/2 325/4/2
f 320/4/2 321/4/2 326/4/2
f 326/4/2 321/4/2 327/4/2
f 322/5/2 323/5/2 328/5/2
f 328/5/2 329/5/2 330/5/2
f 330/5/2 331/5/2 334/5/2
f 322/5/2 328/5/2 334/5/2
f 328/5/2 330/5/2 334/5/2
f 334/5/2 331/5/2 335/5/2
f 335/5/2 331/5/2 336/5/2
f 332/5/2 333/5/2 337/5/2
f 337/5/2 333/5/2 338/5/2
f 335/5/2 336/5/2 339/5/2
f 336/5/2 337/5/2 339/5/2
f 339/5/2 337/5/2 340/5/2
f 341/4/2 342/4/2 343/4/2
f 343/4/2 342/4/2 344/4/2
f 343/2/2 344/2/2 347/2/2
f 347/2/2 344/2/2 348/2/2
f 347/4/2 348/4/2 353/4/2
f 348/5/2 349/5/2 354/5/2
f 353/4/2 348/4/2 354/4/2
f 345/5/2 346/5/2 355/5/2
f 352/5/2 353/5/2 356/5/2
f 353/5/2 354/5/2 356/5/2
f 354/5/2 349/5/2 357/5/2
f 356/5/2 354/5/2 357/5/2
f 350/5/2 351/5/2 358/5/2
f 355/5/2 356/5/2 359/5/2
f 357/5/2 358/5/2 359/5/2
f 356/5/2 357/5/2 359/5/2
f 359/5/2 358/5/2 360/5/2
f 360/5/2 358/5/2 361/5/2
f 361/5/2 358/5/2 362/5/2
f 345/5/2 355/5/2 363/5/2
f 355/5/2 359/5/2 363/5/2
f 363/5/2 359/5/2 364/5/2
f 364/5/2 359/5/2 365/5/2
f 362/5/2 358/5/2 367/5/2
f 358/5/2 351/5/2 368/5/2
f 367/5/2 358/5/2 368/5/2
f 366/5/2 367/5/2 370/5/2
f 365/5/2 366/5/2 370/5/2
f 364/5/2 365/5/2 370/5/2
f 370/5/2 367/5/2 371/5/2
f 371/5/2 367/5/2 372/5/2
f 368/5/2 369/5/2 373/5/2
f 373/5/2 369/5/2 374/5/2
f 371/5/2 372/5/2 375/5/2
f 372/5/2 373/5/2 375/5/2
f 375/5/2 373/5/2 376/5/2
f 377/6/2 378/6/2 379/6/2
f 377/6/2 379/6/2 381/6/2
f 379/5/2 380/5/2 382/5/2
f 381/6/2 379/6/2 382/6/2
f 382/5/2 380/5/2 383/5/2
f 383/5/2 384/5/2 385/5/2
f 385/5/2 384/5/2 386/5/2
f 390/5/3 388/5/3 387/5/3
f 391/5/3 388/5/3 390/5/3
f 393/5/3 390/5/3 389/5/3
f 393/5/3 392/5/3 391/5/3
f 393/5/3 391/5/3 390/5/3
f 394/5/3 392/5/3 393/5/3
f 395/5/3 392/5/3 394/5/3
f 396/5/3 392/5/3 395/5/3
f 397/5/3 395/5/3 394/5/3
f 398/5/3 395/5/3 397/5/3
f 401/5/3 400/5/3 399/5/3
f 402/5/3 400/5/3 401/5/3
f 403/5/3 400/5/3 402/5/3
f 405/5/3 404/5/3 403/5/3
f 405/5/3 403/5/3 402/5/3
f 406/5/3 404/5/3 405/5/3
f 408/5/3 404/5/3 406/5/3
f 410/5/3 408/5/3 407/5/3
f 411/5/3 404/5/3 408/5/3
f 411/5/3 408/5/3 410/5/3
f 412/5/3 404/5/3 411/5/3
f 413/5/3 410/5/3 409/5/3
f 413/5/3 411/5/3 410/5/3
f 414/5/3 411/5/3 413/5/3
f 417/5/3 416/5/3 415/5/3
f 418/5/3 416/5/3 417/5/3
f 419/5/3 416/5/3 418/5/3
f 420/5/3 416/5/3 419/5/3
f 424/5/3 419/5/3 418/5/3
f 425/5/3 419/5/3 424/5/3
f 426/5/3 422/5/3 421/5/3
f 427/5/3 422/5/3 426/5/3
f 428/5/3 424/5/3 423/5/3
f 429/5/3 424/5/3 428/5/3
f 432/5/3 431/5/3 430/5/3
f 433/5/3 431/5/3 432/5/3
f 438/5/3 435/5/3 434/5/3
f 439/5/3 435/5/3 438/5/3
f 440/5/3 437/5/3 436/5/3
f 441/5/3 437/5/3 440/5/3
f 446/5/3 442/5/3 441/5/3
f 447/5/3 442/5/3 446/5/3
f 449/5/3 444/5/3 443/5/3
f 450/5/3 444/5/3 449/5/3
f 451/5/3 448/5/3 447/5/3
f 451/5/3 446/5/3 445/5/3
f 451/5/3 447/5/3 446/5/3
f 452/5/3 448/5/3 451/5/3
f 455/5/3 454/5/3 453/5/3
f 456/5/3 454/5/3 455/5/3
f 462/2/3 459/2/3 458/2/3
f 462/3/3 458/3/3 457/3/3
f 463/2/3 459/2/3 462/2/3
f 464/2/3 459/2/3 463/2/3
f 466/5/3 461/5/3 460/5/3
f 467/5/3 461/5/3 466/5/3
f 468/3/3 462/3/3 457/3/3
f 468/5/3 463/5/3 462/5/3
f 469/2/3 465/2/3 464/2/3
f 469/5/3 463/5/3 468/5/3
f 469/2/3 464/2/3 463/2/3
f 470/3/3 468/3/3 457/3/3
f 471/2/3 469/2/3 468/2/3
f 471/3/3 468/3/3 470/3/3
f 473/2/3 469/2/3 471/2/3
f 476/2/3 465/2/3 469/2/3
f 476/2/3 469/2/3 473/2/3
f 477/2/3 465/2/3 476/2/3
f 478/5/3 475/5/3 474/5/3
f 479/5/3 475/5/3 478/5/3
f 480/5/3 477/5/3 476/5/3
f 480/2/3 476/2/3 473/2/3
f 481/5/3 477/5/3 480/5/3
f 484/3/3 473/3/3 472/3/3
f 485/2/3 480/2/3 473/2/3
f 485/3/3 473/3/3 484/3/3
f 486/2/3 480/2/3 485/2/3
f 487/5/3 483/5/3 482/5/3
f 488/5/3 483/5/3 487/5/3
f 491/5/3 490/5/3 489/5/3
f 492/5/3 490/5/3 491/5/3
f 497/5/3 494/5/3 493/5/3
f 498/5/3 494/5/3 497/5/3
f 499/5/3 496/5/3 495/5/3
f 500/5/3 496/5/3 499/5/3
f 506/2/3 505/2/3 504/2/3
f 507/2/3 505/2/3 506/2/3
f 508/2/3 505/2/3 507/2/3
f 509/1/3 502/1/3 501/1/3
f 510/3/3 503/3/3 502/3/3
f 510/1/3 502/1/3 509/1/3
f 511/3/3 503/3/3 510/3/3
f 515/3/3 512/3/3 511/3/3
f 516/3/3 512/3/3 515/3/3
f 517/4/3 508/4/3 507/4/3
f 519/4/3 508/4/3 517/4/3
f 520/4/3 508/4/3 519/4/3
f 521/1/3 514/1/3 513/1/3
f 522/3/3 515/3/3 514/3/3
f 522/1/3 514/1/3 521/1/3
f 523/3/3 515/3/3 522/3/3
f 524/2/3 519/2/3 518/2/3
f 524/2/3 520/2/3 519/2/3
f 525/2/3 520/2/3 524/2/3
f 530/5/3 527/5/3 526/5/3
f 531/5/3 527/5/3 530/5/3
f 532/5/3 529/5/3 528/5/3
f 533/5/3 529/5/3 532/5/3
f 538/4/3 535/4/3 534/4/3
f 538/5/3 536/5/3 535/5/3
f 539/2/3 537/2/3 536/2/3
f 539/5/3 536/5/3 538/5/3
f 540/2/3 537/2/3 539/2/3
f 542/4/3 538/4/3 534/4/3
f 543/4/3 538/4/3 542/4/3
f 544/2/3 539/2/3 538/2/3
f 544/4/3 538/4/3 543/4/3
f 544/2/3 540/2/3 539/2/3
f 545/4/3 541/4/3 540/4/3
f 545/2/3 540/2/3 544/2/3
f 546/4/3 541/4/3 545/4/3
f 552/4/3 551/4/3 550/4/3
f 553/4/3 548/4/3 547/4/3
f 553/4/3 549/4/3 548/4/3
f 554/2/3 550/2/3 549/2/3
f 554/4/3 549/4/3 553/4/3
f 555/4/3 552/4/3 550/4/3
f 555/2/3 550/2/3 554/2/3
f 556/4/3 552/4/3 555/4/3
f 559/6/3 558/6/3 557/6/3
f 560/6/3 558/6/3 559/6/3
f 563/6/3 562/6/3 561/6/3
f 564/6/3 562/6/3 563/6/3
f 567/5/3 566/5/3 565/5/3
f 568/5/3 566/5/3 567/5/3
f 571/5/3 570/5/3 569/5/3
f 572/5/3 570/5/3 571/5/3
f 575/5/3 574/5/3 573/5/3
f 576/5/3 574/5/3 575/5/3
f 577/5/3 574/5/3 576/5/3
f 581/5/3 579/5/3 578/5/3
f 581/5/3 580/5/3 579/5/3
f 582/5/3 580/5/3 581/5/3
f 583/5/4 584/5/4 585/5/4
f 585/5/4 584/5/4 586/5/4
f 587/5/4 588/5/4 589/5/4
f 589/5/4 588/5/4 590/5/4
f 591/5/4 592/5/4 593/5/4
f 593/5/4 592/5/4 594/5/4
f 595/5/4 596/5/4 597/5/4
f 597/5/4 596/5/4 598/5/4
f 599/5/4 600/5/4 602/5/4
f 600/5/4 601/5/4 602/5/4
f 602/5/4 601/5/4 603/5/4
f 604/6/4 605/6/4 610/6/4
f 610/6/4 605/6/4 611/6/4
f 608/4/4 609/4/4 612/4/4
f 606/4/4 607/4/4 614/4/4
f 614/4/4 607/4/4 615/4/4
f 615/4/4 607/4/4 616/4/4
f 607/2/4 608/2/4 617/2/4
f 616/4/4 607/4/4 617/4/4
f 608/4/4 612/4/4 618/4/4
f 617/2/4 608/2/4 618/2/4
f 618/4/4 612/4/4 619/4/4
f 618/2/4 619/2/4 620/2/4
f 620/2/4 619/2/4 621/2/4
f 614/3/4 615/3/4 622/3/4
f 613/3/4 614/3/4 622/3/4
f 622/3/4 615/3/4 623/3/4
f 624/3/4 625/3/4 628/3/4
f 628/3/4 625/3/4 629/3/4
f 629/3/4 625/3/4 630/3/4
f 626/2/4 627/2/4 634/2/4
f 634/2/4 627/2/4 635/2/4
f 632/2/4 633/2/4 636/2/4
f 634/4/4 635/4/4 636/4/4
f 633/2/4 634/2/4 636/2/4
f 636/4/4 635/4/4 637/4/4
f 629/4/4 630/4/4 638/4/4
f 630/4/4 631/4/4 638/4/4
f 631/4/4 632/4/4 638/4/4
f 632/2/4 636/2/4 639/2/4
f 638/4/4 632/4/4 639/4/4
f 639/2/4 636/2/4 640/2/4
f 641/6/4 642/6/4 643/6/4
f 643/6/4 642/6/4 644/6/4
f 645/5/4 646/5/4 647/5/4
f 647/5/4 646/5/4 648/5/4
f 651/3/4 652/3/4 654/3/4
f 652/2/4 653/2/4 654/2/4
f 654/2/4 653/2/4 655/2/4
f 655/2/4 653/2/4 656/2/4
f 656/2/4 657/2/4 658/2/4
f 658/2/4 657/2/4 659/2/4
f 649/1/4 650/1/4 660/1/4
f 660/1/4 650/1/4 661/1/4
f 651/3/4 654/3/4 664/3/4
f 658/4/4 659/4/4 665/4/4
f 665/4/4 659/4/4 666/4/4
f 651/3/4 664/3/4 667/3/4
f 665/2/4 666/2/4 670/2/4
f 670/2/4 666/2/4 671/2/4
f 662/1/4 663/1/4 672/1/4
f 672/1/4 663/1/4 673/1/4
f 651/3/4 667/3/4 674/3/4
f 668/2/4 669/2/4 675/2/4
f 674/3/4 667/3/4 675/3/4
f 667/2/4 668/2/4 675/2/4
f 669/5/4 670/5/4 676/5/4
f 675/2/4 669/2/4 676/2/4
f 676/5/4 670/5/4 677/5/4
f 678/5/4 679/5/4 681/5/4
f 679/5/4 680/5/4 681/5/4
f 681/5/4 680/5/4 682/5/4
f 683/5/4 684/5/4 685/5/4
f 685/5/4 684/5/4 686/5/4
f 687/4/4 688/4/4 692/4/4
f 692/4/4 688/4/4 693/4/4
f 690/5/4 691/5/4 694/5/4
f 689/2/4 690/2/4 694/2/4
f 694/5/4 691/5/4 695/5/4
f 689/2/4 694/2/4 696/2/4
f 694/2/4 695/2/4 696/2/4
f 696/2/4 695/2/4 697/2/4
f 696/5/4 697/5/4 698/5/4
f 697/2/4 695/2/4 699/2/4
f 698/5/4 697/5/4 699/5/4
f 699/2/4 695/2/4 700/2/4
f 701/4/4 702/4/4 703/4/4
f 703/4/4 702/4/4 704/4/4
f 705/5/4 706/5/4 708/5/4
f 708/5/4 706/5/4 709/5/4
f 707/5/4 708/5/4 711/5/4
f 711/5/4 708/5/4 712/5/4
f 712/5/4 708/5/4 713/5/4
f 713/5/4 708/5/4 714/5/4
f 709/5/4 710/5/4 715/5/4
f 715/5/4 710/5/4 716/5/4
f 713/4/4 714/4/4 718/4/4
f 714/4/4 715/4/4 718/4/4
f 718/4/4 715/4/4 719/4/4
f 719/4/4 715/4/4 720/4/4
f 716/5/4 717/5/4 721/5/4
f 721/5/4 717/5/4 722/5/4
f 712/6/4 713/6/4 724/6/4
f 713/4/4 718/4/4 725/4/4
f 724/6/4 713/6/4 725/6/4
f 718/8/4 719/8/4 726/8/4
f 725/4/4 718/4/4 726/4/4
f 719/5/4 720/5/4 727/5/4
f 723/4/4 724/4/4 729/4/4
f 724/4/4 725/4/4 729/4/4
f 725/8/4 726/8/4 729/8/4
f 726/8/4 719/8/4 730/8/4
f 729/8/4 726/8/4 730/8/4
f 719/5/4 727/5/4 730/5/4
f 727/4/4 728/4/4 731/4/4
f 723/4/4 729/4/4 733/4/4
f 729/4/4 730/4/4 733/4/4
f 733/4/4 730/4/4 734/4/4
f 730/5/4 727/5/4 735/5/4
f 734/4/4 730/4/4 735/4/4
f 727/4/4 731/4/4 736/4/4
f 735/5/4 727/5/4 736/5/4
f 731/5/4 732/5/4 737/5/4
f 736/4/4 731/4/4 737/4/4
f 737/5/4 732/5/4 738/5/4
f 723/4/4 733/4/4 739/4/4
f 735/4/4 736/4/4 740/4/4
f 734/4/4 735/4/4 740/4/4
f 736/4/4 737/4/4 740/4/4
f 740/4/4 737/4/4 741/4/4
f 741/4/4 737/4/4 742/4/4
f 742/4/4 737/4/4 743/4/4
f 739/4/4 740/4/4 745/4/4
f 740/4/4 741/4/4 745/4/4
f 741/5/4 742/5/4 746/5/4
f 745/4/4 741/4/4 746/4/4
f 743/5/4 744/5/4 747/5/4
f 742/4/4 743/4/4 747/4/4
f 747/5/4 744/5/4 748/5/4
f 723/4/4 739/4/4 749/4/4
f 739/4/4 745/4/4 749/4/4
f 749/4/4 745/4/4 750/4/4
f 745/8/4 746/8/4 751/8/4
f 750/4/4 745/4/4 751/4/4
f 751/8/4 746/8/4 752/8/4
f 746/5/4 742/5/4 753/5/4
f 742/4/4 747/4/4 753/4/4
f 753/4/4 747/4/4 754/4/4
f 752/8/4 746/8/4 755/8/4
f 751/4/4 752/4/4 755/4/4
f 746/5/4 753/5/4 756/5/4
f 755/8/4 746/8/4 756/8/4
f 756/5/4 753/5/4 757/5/4
f 750/6/4 751/6/4 761/6/4
f 756/4/4 757/4/4 762/4/4
f 751/4/4 755/4/4 762/4/4
f 761/6/4 751/6/4 762/6/4
f 755/4/4 756/4/4 762/4/4
f 762/4/4 757/4/4 763/4/4
f 763/4/4 757/4/4 764/4/4
f 758/5/4 759/5/4 765/5/4
f 765/5/4 759/5/4 766/5/4
f 760/5/4 761/5/4 767/5/4
f 761/5/4 762/5/4 767/5/4
f 762/5/4 763/5/4 767/5/4
f 767/5/4 763/5/4 768/5/4
f 764/5/4 765/5/4 769/5/4
f 769/5/4 765/5/4 770/5/4
f 768/5/4 769/5/4 771/5/4
f 771/5/4 769/5/4 772/5/4
f 773/5/4 774/5/4 775/5/4
f 775/5/4 774/5/4 776/5/4
f 776/5/4 777/5/4 778/5/4
f 776/5/4 778/5/4 780/5/4
f 778/5/4 779/5/4 780/5/4
f 780/5/4 779/5/4 781/5/4
f 781/5/4 779/5/4 782/5/4
f 782/5/4 779/5/4 783/5/4
f 783/5/4 779/5/4 787/5/4
f 787/5/4 779/5/4 788/5/4
f 784/6/4 785/6/4 789/6/4
f 789/6/4 785/6/4 790/6/4
f 786/5/4 787/5/4 791/5/4
f 791/5/4 787/5/4 792/5/4
f 792/5/4 793/5/4 795/5/4
f 794/5/4 795/5/4 797/5/4
f 797/5/4 795/5/4 798/5/4
f 796/5/4 797/5/4 798/5/4
f 795/5/4 793/5/4 799/5/4
f 798/5/4 795/5/4 799/5/4
f 796/5/4 798/5/4 801/5/4
f 801/5/4 798/5/4 802/5/4
f 800/5/4 801/5/4 803/5/4
f 803/5/4 801/5/4 804/5/4
f 809/1/5 806/1/5 805/1/5
f 810/1/5 806/1/5 809/1/5
f 811/1/5 808/1/5 807/1/5
f 812/1/5 808/1/5 811/1/5
f 817/4/5 814/4/5 813/4/5
f 818/4/5 814/4/5 817/4/5
f 819/4/5 816/4/5 815/4/5
f 820/4/5 816/4/5 819/4/5
f 825/3/5 822/3/5 821/3/5
f 826/3/5 822/3/5 825/3/5
f 827/3/5 824/3/5 823/3/5
f 828/3/5 824/3/5 827/3/5
f 830/3/5 827/3/5 826/3/5
f 831/3/5 827/3/5 830/3/5
f 833/3/5 830/3/5 829/3/5
f 833/3/5 832/3/5 831/3/5
f 833/3/5 831/3/5 830/3/5
f 834/3/5 832/3/5 833/3/5
f 837/2/5 836/2/5 835/2/5
f 838/2/5 836/2/5 837/2/5
f 842/2/5 840/2/5 839/2/5
f 843/5/5 841/5/5 840/5/5
f 843/2/5 840/2/5 842/2/5
f 844/5/5 841/5/5 843/5/5
f 847/5/5 846/5/5 845/5/5
f 848/5/5 846/5/5 847/5/5
f 857/5/5 850/5/5 849/5/5
f 858/5/5 850/5/5 857/5/5
f 859/5/5 852/5/5 851/5/5
f 860/5/5 852/5/5 859/5/5
f 861/5/5 854/5/5 853/5/5
f 862/5/5 854/5/5 861/5/5
f 863/5/5 856/5/5 855/5/5
f 864/5/5 856/5/5 863/5/5
f 867/5/5 866/5/5 865/5/5
f 868/5/5 866/5/5 867/5/5
f 871/5/5 870/5/5 869/5/5
f 872/5/5 870/5/5 871/5/5
f 877/5/5 874/5/5 873/5/5
f 878/5/5 874/5/5 877/5/5
f 879/5/5 876/5/5 875/5/5
f 880/5/5 876/5/5 879/5/5
f 885/5/5 882/5/5 881/5/5
f 886/5/5 884/5/5 883/5/5
f 888/5/5 885/5/5 881/5/5
f 888/5/5 886/5/5 885/5/5
f 889/5/5 886/5/5 888/5/5
f 890/5/5 884/5/5 886/5/5
f 890/5/5 886/5/5 889/5/5
f 891/5/5 884/5/5 890/5/5
f 894/5/5 888/5/5 887/5/5
f 895/5/5 888/5/5 894/5/5
f 896/5/5 890/5/5 889/5/5
f 897/5/5 890/5/5 896/5/5
f 898/5/5 892/5/5 891/5/5
f 899/5/5 892/5/5 898/5/5
f 900/5/5 894/5/5 893/5/5
f 901/4/5 897/4/5 896/4/5
f 901/5/5 894/5/5 900/5/5
f 901/4/5 895/4/5 894/4/5
f 901/4/5 899/4/5 898/4/5
f 901/4/5 898/4/5 897/4/5
f 901/4/5 896/4/5 895/4/5
f 902/4/5 899/4/5 901/4/5
f 903/4/5 899/4/5 902/4/5
f 904/4/5 899/4/5 903/4/5
f 905/4/5 899/4/5 904/4/5
f 906/4/5 899/4/5 905/4/5
f 908/4/5 902/4/5 901/4/5
f 909/4/5 902/4/5 908/4/5
f 910/4/5 906/4/5 905/4/5
f 911/5/5 907/5/5 906/5/5
f 911/4/5 906/4/5 910/4/5
f 912/5/5 907/5/5 911/5/5
f 920/5/5 914/5/5 913/5/5
f 921/4/5 915/4/5 914/4/5
f 921/5/5 914/5/5 920/5/5
f 921/4/5 916/4/5 915/4/5
f 922/4/5 916/4/5 921/4/5
f 925/4/5 919/4/5 918/4/5
f 925/4/5 918/4/5 917/4/5
f 926/4/5 919/4/5 925/4/5
f 927/4/5 924/4/5 923/4/5
f 927/4/5 923/4/5 922/4/5
f 927/4/5 926/4/5 925/4/5
f 927/4/5 925/4/5 924/4/5
f 927/4/5 922/4/5 921/4/5
f 928/4/5 926/4/5 927/4/5
f 929/4/5 926/4/5 928/4/5
f 930/4/5 926/4/5 929/4/5
f 931/4/5 929/4/5 928/4/5
f 932/4/5 929/4/5 931/4/5
f 937/5/5 934/5/5 933/5/5
f 938/5/5 934/5/5 937/5/5
f 939/5/5 936/5/5 935/5/5
f 940/5/5 936/5/5 939/5/5
f 943/5/5 942/5/5 941/5/5
f 944/5/5 942/5/5 943/5/5
f 949/5/5 946/5/5 945/5/5
f 950/5/5 946/5/5 949/5/5
f 953/5/5 948/5/5 947/5/5
f 954/5/5 948/5/5 953/5/5
f 955/6/5 951/6/5 950/6/5
f 956/6/5 951/6/5 955/6/5
f 957/6/5 953/6/5 952/6/5
f 958/6/5 953/6/5 957/6/5
f 961/6/5 960/6/5 959/6/5
f 962/6/5 960/6/5 961/6/5
f 967/6/5 964/6/5 963/6/5
f 968/6/5 964/6/5 967/6/5
f 969/6/5 966/6/5 965/6/5
f 970/6/5 966/6/5 969/6/5
f 973/5/5 972/5/5 971/5/5
f 974/5/5 972/5/5 973/5/5
f 979/5/5 976/5/5 975/5/5
f 980/5/5 976/5/5 979/5/5
f 983/5/5 978/5/5 977/5/5
f 984/5/5 978/5/5 983/5/5
f 985/5/5 981/5/5 980/5/5
f 986/5/5 981/5/5 985/5/5
f 987/5/5 983/5/5 982/5/5
f 988/5/5 983/5/5 987/5/5
f 995/5/5 990/5/5 989/5/5
f 995/5/5 991/5/5 990/5/5
f 996/5/5 991/5/5 995/5/5
f 997/5/5 994/5/5 993/5/5
f 997/5/5 993/5/5 992/5/5
f 998/5/5 994/5/5 997/5/5
f 1005/5/5 1000/5/5 999/5/5
f 1006/5/5 1000/5/5 1005/5/5
f 1007/5/5 1002/5/5 1001/5/5
f 1008/5/5 1002/5/5 1007/5/5
f 1009/5/5 1004/5/5 1003/5/5
f 1010/5/5 1004/5/5 1009/5/5
f 1015/5/5 1012/5/5 1011/5/5
f 1016/5/5 1012/5/5 1015/5/5
f 1017/5/5 1014/5/5 1013/5/5
f 1018/5/5 1014/5/5 1017/5/5
f 1019/1/6 1020/1/6 1023/1/6
f 1023/1/6 1020/1/6 1024/1/6
f 1021/1/6 1022/1/6 1025/1/6
f 1025/1/6 1022/1/6 1026/1/6
f 1027/2/6 1028/2/6 1031/2/6
f 1031/2/6 1028/2/6 1032/2/6
f 1029/2/6 1030/2/6 1033/2/6
f 1033/2/6 1030/2/6 1034/2/6
f 1035/2/6 1036/2/6 1038/2/6
f 1036/5/6 1037/5/6 1039/5/6
f 1038/2/6 1036/2/6 1039/2/6
f 1039/5/6 1037/5/6 1040/5/6
f 1041/2/6 1042/2/6 1045/2/6
f 1045/2/6 1042/2/6 1046/2/6
f 1043/5/6 1044/5/6 1049/5/6
f 1049/5/6 1044/5/6 1050/5/6
f 1046/5/6 1047/5/6 1051/5/6
f 1047/2/6 1048/2/6 1052/2/6
f 1051/5/6 1047/5/6 1052/5/6
f 1048/2/6 1049/2/6 1052/2/6
f 1052/2/6 1049/2/6 1053/2/6
f 1054/6/6 1055/6/6 1056/6/6
f 1056/6/6 1055/6/6 1057/6/6
f 1058/5/6 1059/5/6 1062/5/6
f 1062/5/6 1059/5/6 1063/5/6
f 1060/5/6 1061/5/6 1064/5/6
f 1064/5/6 1061/5/6 1065/5/6
f 1066/6/6 1067/6/6 1070/6/6
f 1070/6/6 1067/6/6 1071/6/6
f 1068/6/6 1069/6/6 1072/6/6
f 1072/6/6 1069/6/6 1073/6/6
f 1072/5/6 1073/5/6 1074/5/6
f 1074/5/6 1073/5/6 1075/5/6
f 1076/5/6 1077/5/6 1080/5/6
f 1080/5/6 1077/5/6 1081/5/6
f 1078/5/6 1079/5/6 1082/5/6
f 1082/5/6 1079/5/6 1083/5/6
f 1084/5/6 1085/5/6 1088/5/6
f 1088/5/6 1085/5/6 1089/5/6
f 1086/5/6 1087/5/6 1090/5/6
f 1090/5/6 1087/5/6 1091/5/6
f 1092/5/6 1093/5/6 1096/5/6
f 1096/5/6 1093/5/6 1097/5/6
f 1094/5/6 1095/5/6 1100/5/6
f 1100/5/6 1095/5/6 1101/5/6
f 1097/5/6 1098/5/6 1102/5/6
f 1102/5/6 1098/5/6 1103/5/6
f 1099/5/6 1100/5/6 1104/5/6
f 1104/5/6 1100/5/6 1105/5/6
f 1106/5/6 1107/5/6 1110/5/6
f 1110/5/6 1107/5/6 1111/5/6
f 1108/5/6 1109/5/6 1114/5/6
f 1114/5/6 1109/5/6 1115/5/6
f 1112/5/6 1113/5/6 1116/5/6
f 1116/5/6 1113/5/6 1117/5/6
f 1118/5/6 1119/5/6 1122/5/6
f 1122/5/6 1119/5/6 1123/5/6
f 1120/5/6 1121/5/6 1126/5/6
f 1126/5/6 1121/5/6 1127/5/6
f 1123/5/6 1124/5/6 1128/5/6
f 1128/5/6 1124/5/6 1129/5/6
f 1125/5/6 1126/5/6 1130/5/6
f 1130/5/6 1126/5/6 1131/5/6
f 1132/5/6 1133/5/6 1135/5/6
f 1135/5/6 1133/5/6 1136/5/6
f 1136/5/6 1133/5/6 1137/5/6
f 1137/5/6 1133/5/6 1138/5/6
f 1138/5/6 1133/5/6 1139/5/6
f 1139/5/6 1133/5/6 1140/5/6
f 1134/5/6 1135/5/6 1142/5/6
f 1135/5/6 1136/5/6 1142/5/6
f 1142/5/6 1136/5/6 1143/5/6
f 1137/5/6 1138/5/6 1144/5/6
f 1144/5/6 1138/5/6 1145/5/6
f 1140/5/6 1141/5/6 1146/5/6
f 1139/5/6 1140/5/6 1146/5/6
f 1146/5/6 1141/5/6 1147/5/6
f 1134/5/6 1142/5/6 1148/5/6
f 1148/5/6 1142/5/6 1149/5/6
f 1147/5/6 1141/5/6 1150/5/6
f 1150/5/6 1141/5/6 1151/5/6
f 1137/5/6 1144/5/6 1152/5/6
f 1152/5/6 1144/5/6 1153/5/6
f 1154/5/6 1155/5/6 1159/5/6
f 1156/5/6 1157/5/6 1161/5/6
f 1161/5/6 1157/5/6 1162/5/6
f 1158/5/6 1159/5/6 1164/5/6
f 1159/5/6 1155/5/6 1165/5/6
f 1164/5/6 1159/5/6 1165/5/6
f 1162/5/6 1163/5/6 1166/5/6
f 1160/5/6 1161/5/6 1166/5/6
f 1161/5/6 1162/5/6 1166/5/6
f 1166/5/6 1163/5/6 1167/5/6
