# MagicaVoxel @ Ephtracy

# group
o 

# material
mtllib PurplePlayer2.mtl
usemtl palette

# normals
vn -1 0 0
vn 1 0 0
vn 0 0 1
vn 0 0 -1
vn 0 -1 0
vn 0 1 0

# texcoords
vt 0.0839844 0.5
vt 0.228516 0.5
vt 0.814453 0.5
vt 0.830078 0.5
vt 0.845703 0.5
vt 0.849609 0.5
vt 0.853516 0.5
vt 0.857422 0.5
vt 0.873047 0.5
vt 0.900391 0.5
vt 0.986328 0.5
vt 0.994141 0.5

# verts
v -0.7 2.2 0
v -0.7 2.2 -0.1
v -0.7 2.5 0
v -0.7 2.5 -0.1
v -0.6 1.3 0.1
v -0.6 1.3 -0.1
v -0.6 1.5 0.1
v -0.6 1.5 -0.1
v -0.6 1.8 0
v -0.6 1.8 -0.1
v -0.6 1.9 0.1
v -0.6 1.9 0
v -0.6 1.9 -0.1
v -0.6 2.2 0.2
v -0.6 2.2 0.1
v -0.6 2.3 0.1
v -0.6 2.3 0
v -0.6 2.4 0.2
v -0.6 2.4 0.1
v -0.6 2.4 -0.1
v -0.6 2.4 -0.4
v -0.6 2.5 0.1
v -0.6 2.5 0
v -0.6 2.5 -0.1
v -0.6 2.5 -0.4
v -0.5 1.9 0.3
v -0.5 1.9 0.1
v -0.5 1.9 0
v -0.5 1.9 -0.1
v -0.5 1.9 -0.3
v -0.5 2 0.5
v -0.5 2 0.3
v -0.5 2 -0.3
v -0.5 2 -0.4
v -0.5 2.2 0.2
v -0.5 2.2 0.1
v -0.5 2.2 0
v -0.5 2.2 -0.1
v -0.5 2.2 -0.3
v -0.5 2.2 -0.4
v -0.5 2.3 0.5
v -0.5 2.3 0.4
v -0.5 2.3 0.3
v -0.5 2.3 0.2
v -0.5 2.3 0.1
v -0.5 2.3 0
v -0.5 2.4 0.2
v -0.5 2.4 0.1
v -0.5 2.4 -0.1
v -0.5 2.4 -0.4
v -0.5 2.5 0.1
v -0.5 2.5 0
v -0.5 2.5 -0.1
v -0.5 2.5 -0.2
v -0.5 2.5 -0.4
v -0.5 2.6 0.5
v -0.5 2.6 0.4
v -0.5 2.6 0.3
v -0.5 2.6 -0.2
v -0.5 2.6 -0.3
v -0.5 2.7 0.5
v -0.5 2.7 0.4
v -0.5 2.7 0.2
v -0.5 2.7 0.1
v -0.5 2.7 0
v -0.5 2.7 -0.1
v -0.5 2.7 -0.3
v -0.5 2.7 -0.4
v -0.5 2.8 0.4
v -0.5 2.8 0.2
v -0.5 2.8 0.1
v -0.5 2.8 -0.1
v -0.5 2.8 -0.2
v -0.5 2.8 -0.3
v -0.5 2.8 -0.4
v -0.5 2.9 0.2
v -0.5 2.9 0.1
v -0.5 2.9 -0.1
v -0.5 2.9 -0.2
v -0.4 1 0.2
v -0.4 1 -0.2
v -0.4 1.2 0.2
v -0.4 1.2 -0.1
v -0.4 1.2 -0.2
v -0.4 1.3 0.2
v -0.4 1.3 0.1
v -0.4 1.3 -0.1
v -0.4 1.4 0.3
v -0.4 1.4 0.2
v -0.4 1.4 -0.1
v -0.4 1.4 -0.2
v -0.4 1.5 0.1
v -0.4 1.5 -0.1
v -0.4 1.5 -0.2
v -0.4 1.6 0.3
v -0.4 1.6 0.1
v -0.4 1.6 -0.1
v -0.4 1.6 -0.2
v -0.4 1.7 -0.1
v -0.4 1.7 -0.2
v -0.4 1.8 0.3
v -0.4 1.8 0.2
v -0.4 1.8 -0.1
v -0.4 1.8 -0.2
v -0.4 1.9 0.5
v -0.4 1.9 0.3
v -0.4 1.9 0.2
v -0.4 1.9 0.1
v -0.4 1.9 -0.3
v -0.4 1.9 -0.4
v -0.4 2 0.5
v -0.4 2 0.3
v -0.4 2 -0.3
v -0.4 2 -0.4
v -0.4 2.5 -0.4
v -0.4 2.5 -0.5
v -0.4 2.6 -0.4
v -0.4 2.6 -0.5
v -0.4 2.7 0.5
v -0.4 2.7 0.4
v -0.4 2.8 0.5
v -0.4 2.8 0.4
v -0.4 2.8 0.3
v -0.4 2.8 0.2
v -0.4 2.8 0.1
v -0.4 2.8 -0.1
v -0.4 2.8 -0.2
v -0.4 2.8 -0.3
v -0.4 2.9 0.3
v -0.4 2.9 0.2
v -0.4 2.9 0.1
v -0.4 2.9 -0.1
v -0.4 2.9 -0.2
v -0.4 2.9 -0.3
v -0.3 1.8 0.3
v -0.3 1.8 0.2
v -0.3 1.8 -0.1
v -0.3 1.8 -0.2
v -0.3 1.9 0.3
v -0.3 1.9 0.2
v -0.3 1.9 -0.1
v -0.3 1.9 -0.2
v -0.3 2.8 0.5
v -0.3 2.8 0.4
v -0.3 2.8 0.3
v -0.3 2.8 -0.3
v -0.3 2.8 -0.4
v -0.3 2.9 0.5
v -0.3 2.9 0.4
v -0.3 2.9 0.3
v -0.3 2.9 -0.3
v -0.3 2.9 -0.4
v -0.1 2.1 -0.4
v -0.1 2.1 -0.5
v -0.1 2.4 -0.4
v -0.1 2.4 -0.5
v -0.1 2.7 -0.4
v -0.1 2.7 -0.5
v -0.1 2.8 0.5
v -0.1 2.8 0.4
v -0.1 2.8 0.3
v -0.1 2.8 -0.3
v -0.1 2.8 -0.4
v -0.1 2.9 0.5
v -0.1 2.9 0.4
v -0.1 2.9 0.3
v -0.1 2.9 -0.3
v -0.1 2.9 -0.5
v 0.1 1 0.2
v 0.1 1 -0.2
v 0.1 1.2 0.2
v 0.1 1.2 -0.1
v 0.1 1.2 -0.2
v 0.1 1.3 0.2
v 0.1 1.3 -0.1
v 0.1 1.4 0.3
v 0.1 1.4 0.2
v 0.1 1.4 -0.1
v 0.1 1.5 0.3
v 0.1 1.5 0.2
v 0.1 2.5 -0.4
v 0.1 2.5 -0.5
v 0.1 2.6 -0.4
v 0.1 2.6 -0.5
v 0.2 2.8 0.4
v 0.2 2.8 0.3
v 0.2 2.8 -0.3
v 0.2 2.8 -0.4
v 0.2 2.9 0.4
v 0.2 2.9 0.3
v 0.2 2.9 -0.3
v 0.2 2.9 -0.4
v -0.2 2.8 0.5
v -0.2 2.8 0.4
v -0.2 2.8 0.3
v -0.2 2.8 -0.3
v -0.2 2.8 -0.4
v -0.2 2.9 0.5
v -0.2 2.9 0.4
v -0.2 2.9 0.3
v -0.2 2.9 -0.3
v -0.2 2.9 -0.4
v -0.1 1 0.2
v -0.1 1 -0.2
v -0.1 1.2 0.2
v -0.1 1.2 -0.1
v -0.1 1.2 -0.2
v -0.1 1.3 0.2
v -0.1 1.3 -0.1
v -0.1 1.4 0.3
v -0.1 1.4 0.2
v -0.1 1.4 -0.1
v -0.1 1.5 0.3
v -0.1 1.5 0.2
v -0.1 2.5 -0.4
v -0.1 2.5 -0.5
v -0.1 2.6 -0.4
v -0.1 2.6 -0.5
v 0.1 2.1 -0.4
v 0.1 2.1 -0.5
v 0.1 2.4 -0.4
v 0.1 2.4 -0.5
v 0.1 2.7 -0.4
v 0.1 2.7 -0.5
v 0.1 2.8 0.5
v 0.1 2.8 0.4
v 0.1 2.8 0.3
v 0.1 2.8 -0.3
v 0.1 2.8 -0.4
v 0.1 2.9 0.5
v 0.1 2.9 0.3
v 0.1 2.9 -0.3
v 0.1 2.9 -0.5
v 0.3 1.8 0.3
v 0.3 1.8 0.2
v 0.3 1.8 -0.1
v 0.3 1.8 -0.2
v 0.3 1.9 0.3
v 0.3 1.9 0.2
v 0.3 1.9 -0.1
v 0.3 1.9 -0.2
v 0.3 2.8 0.4
v 0.3 2.8 0.3
v 0.3 2.8 -0.3
v 0.3 2.8 -0.4
v 0.3 2.9 0.4
v 0.3 2.9 0.3
v 0.3 2.9 -0.3
v 0.3 2.9 -0.4
v 0.4 1 0.2
v 0.4 1 -0.2
v 0.4 1.2 0.2
v 0.4 1.2 -0.1
v 0.4 1.2 -0.2
v 0.4 1.3 0.2
v 0.4 1.3 0.1
v 0.4 1.3 -0.1
v 0.4 1.4 0.3
v 0.4 1.4 0.2
v 0.4 1.4 -0.1
v 0.4 1.4 -0.2
v 0.4 1.5 0.1
v 0.4 1.5 -0.1
v 0.4 1.5 -0.2
v 0.4 1.6 0.3
v 0.4 1.6 0.2
v 0.4 1.6 0.1
v 0.4 1.6 -0.1
v 0.4 1.6 -0.2
v 0.4 1.7 0.3
v 0.4 1.7 0.2
v 0.4 1.8 0.3
v 0.4 1.8 0.2
v 0.4 1.8 -0.1
v 0.4 1.8 -0.2
v 0.4 1.9 0.5
v 0.4 1.9 0.3
v 0.4 1.9 0.2
v 0.4 1.9 0.1
v 0.4 1.9 -0.3
v 0.4 1.9 -0.4
v 0.4 2 0.5
v 0.4 2 0.3
v 0.4 2 -0.3
v 0.4 2 -0.4
v 0.4 2.5 -0.4
v 0.4 2.5 -0.5
v 0.4 2.6 -0.4
v 0.4 2.6 -0.5
v 0.4 2.8 0.3
v 0.4 2.8 0.2
v 0.4 2.8 0.1
v 0.4 2.8 -0.1
v 0.4 2.8 -0.2
v 0.4 2.8 -0.3
v 0.4 2.9 0.3
v 0.4 2.9 0.2
v 0.4 2.9 0.1
v 0.4 2.9 -0.1
v 0.4 2.9 -0.2
v 0.4 2.9 -0.3
v 0.5 1.9 0.3
v 0.5 1.9 0.1
v 0.5 1.9 0
v 0.5 1.9 -0.1
v 0.5 1.9 -0.3
v 0.5 2 0.5
v 0.5 2 0.3
v 0.5 2 -0.3
v 0.5 2 -0.4
v 0.5 2.2 0.2
v 0.5 2.2 0.1
v 0.5 2.2 0
v 0.5 2.2 -0.1
v 0.5 2.2 -0.3
v 0.5 2.2 -0.4
v 0.5 2.3 0.5
v 0.5 2.3 0.4
v 0.5 2.3 0.3
v 0.5 2.3 0.2
v 0.5 2.3 0.1
v 0.5 2.3 0
v 0.5 2.4 0.2
v 0.5 2.4 0.1
v 0.5 2.4 -0.1
v 0.5 2.4 -0.4
v 0.5 2.5 0.1
v 0.5 2.5 0
v 0.5 2.5 -0.1
v 0.5 2.5 -0.2
v 0.5 2.5 -0.4
v 0.5 2.6 0.5
v 0.5 2.6 0.4
v 0.5 2.6 0.3
v 0.5 2.7 0.5
v 0.5 2.7 0.4
v 0.5 2.7 0.2
v 0.5 2.7 0.1
v 0.5 2.7 0
v 0.5 2.7 -0.1
v 0.5 2.7 -0.2
v 0.5 2.7 -0.3
v 0.5 2.7 -0.4
v 0.5 2.8 0.5
v 0.5 2.8 0.2
v 0.5 2.8 0.1
v 0.5 2.8 -0.1
v 0.5 2.8 -0.2
v 0.5 2.8 -0.3
v 0.5 2.8 -0.4
v 0.5 2.9 0.2
v 0.5 2.9 0.1
v 0.5 2.9 -0.1
v 0.5 2.9 -0.2
v 0.6 1.3 0.1
v 0.6 1.3 -0.1
v 0.6 1.5 0.1
v 0.6 1.5 -0.1
v 0.6 1.8 0
v 0.6 1.8 -0.1
v 0.6 1.9 0.1
v 0.6 1.9 0
v 0.6 1.9 -0.1
v 0.6 2.2 0.2
v 0.6 2.2 0.1
v 0.6 2.3 0.1
v 0.6 2.3 0
v 0.6 2.4 0.2
v 0.6 2.4 0.1
v 0.6 2.4 -0.1
v 0.6 2.4 -0.4
v 0.6 2.5 0.1
v 0.6 2.5 0
v 0.6 2.5 -0.1
v 0.6 2.5 -0.4
v 0.7 2.2 0
v 0.7 2.2 -0.1
v 0.7 2.5 0
v 0.7 2.5 -0.1
v -0.5 2 0.5
v -0.5 2.3 0.5
v -0.5 2.6 0.5
v -0.5 2.7 0.5
v -0.4 1.9 0.5
v -0.4 2 0.5
v -0.4 2.3 0.5
v -0.4 2.6 0.5
v -0.4 2.7 0.5
v -0.4 2.8 0.5
v -0.3 2.4 0.5
v -0.3 2.6 0.5
v -0.3 2.7 0.5
v -0.3 2.8 0.5
v -0.3 2.9 0.5
v -0.2 2.3 0.5
v -0.2 2.4 0.5
v -0.2 2.8 0.5
v -0.2 2.9 0.5
v -0.1 2.3 0.5
v -0.1 2.4 0.5
v -0.1 2.5 0.5
v -0.1 2.7 0.5
v -0.1 2.8 0.5
v -0.1 2.9 0.5
v 0 2.5 0.5
v 0 2.7 0.5
v 0 2.8 0.5
v 0 2.9 0.5
v 0.1 2.3 0.5
v 0.1 2.4 0.5
v 0.1 2.7 0.5
v 0.1 2.8 0.5
v 0.1 2.9 0.5
v 0.2 2.4 0.5
v 0.2 2.5 0.5
v 0.2 2.6 0.5
v 0.2 2.8 0.5
v 0.3 2.3 0.5
v 0.3 2.5 0.5
v 0.3 2.6 0.5
v 0.3 2.8 0.5
v 0.4 1.9 0.5
v 0.4 2 0.5
v 0.4 2.3 0.5
v 0.4 2.5 0.5
v 0.4 2.7 0.5
v 0.4 2.8 0.5
v 0.5 2 0.5
v 0.5 2.3 0.5
v 0.5 2.6 0.5
v 0.5 2.7 0.5
v 0.5 2.8 0.5
v -0.5 2.7 0.4
v -0.5 2.8 0.4
v -0.4 2.7 0.4
v -0.4 2.8 0.4
v 0.2 2.8 0.4
v 0.2 2.9 0.4
v 0.3 2.8 0.4
v 0.3 2.9 0.4
v -0.5 1.9 0.3
v -0.5 2 0.3
v -0.4 1.4 0.3
v -0.4 1.6 0.3
v -0.4 1.8 0.3
v -0.4 1.9 0.3
v -0.4 2 0.3
v -0.4 2.8 0.3
v -0.4 2.9 0.3
v -0.3 1.8 0.3
v -0.3 1.9 0.3
v -0.3 2.8 0.3
v -0.3 2.9 0.3
v -0.2 1.8 0.3
v -0.2 1.9 0.3
v -0.2 2.8 0.3
v -0.2 2.9 0.3
v -0.1 1.4 0.3
v -0.1 1.5 0.3
v -0.1 2.8 0.3
v -0.1 2.9 0.3
v 0.1 1.4 0.3
v 0.1 1.5 0.3
v 0.1 2.8 0.3
v 0.1 2.9 0.3
v 0.2 2.8 0.3
v 0.2 2.9 0.3
v 0.3 1.6 0.3
v 0.3 1.7 0.3
v 0.3 1.8 0.3
v 0.3 1.9 0.3
v 0.3 2.8 0.3
v 0.3 2.9 0.3
v 0.4 1.4 0.3
v 0.4 1.6 0.3
v 0.4 1.7 0.3
v 0.4 1.8 0.3
v 0.4 1.9 0.3
v 0.4 2 0.3
v 0.4 2.8 0.3
v 0.4 2.9 0.3
v 0.5 1.9 0.3
v 0.5 2 0.3
v -0.6 2.2 0.2
v -0.6 2.4 0.2
v -0.5 2.2 0.2
v -0.5 2.3 0.2
v -0.5 2.4 0.2
v -0.5 2.8 0.2
v -0.5 2.9 0.2
v -0.4 1 0.2
v -0.4 1.2 0.2
v -0.4 1.3 0.2
v -0.4 1.4 0.2
v -0.4 1.8 0.2
v -0.4 1.9 0.2
v -0.4 2.8 0.2
v -0.4 2.9 0.2
v -0.3 1.8 0.2
v -0.3 1.9 0.2
v -0.1 1 0.2
v -0.1 1.2 0.2
v -0.1 1.3 0.2
v -0.1 1.4 0.2
v -0.1 1.5 0.2
v 0.1 1 0.2
v 0.1 1.2 0.2
v 0.1 1.3 0.2
v 0.1 1.4 0.2
v 0.1 1.5 0.2
v 0.3 1.8 0.2
v 0.3 1.9 0.2
v 0.4 1 0.2
v 0.4 1.2 0.2
v 0.4 1.3 0.2
v 0.4 1.4 0.2
v 0.4 1.8 0.2
v 0.4 1.9 0.2
v 0.4 2.8 0.2
v 0.4 2.9 0.2
v 0.5 2.2 0.2
v 0.5 2.3 0.2
v 0.5 2.4 0.2
v 0.5 2.8 0.2
v 0.5 2.9 0.2
v 0.6 2.2 0.2
v 0.6 2.4 0.2
v -0.6 1.3 0.1
v -0.6 1.5 0.1
v -0.6 1.9 0.1
v -0.6 2.4 0.1
v -0.6 2.5 0.1
v -0.5 1.5 0.1
v -0.5 1.6 0.1
v -0.5 1.9 0.1
v -0.5 2.4 0.1
v -0.5 2.5 0.1
v -0.4 1.3 0.1
v -0.4 1.5 0.1
v -0.4 1.6 0.1
v -0.4 1.9 0.1
v 0.4 1.3 0.1
v 0.4 1.5 0.1
v 0.4 1.6 0.1
v 0.4 1.9 0.1
v 0.5 1.9 0.1
v 0.5 2.4 0.1
v 0.5 2.5 0.1
v 0.6 1.3 0.1
v 0.6 1.5 0.1
v 0.6 1.9 0.1
v 0.6 2.4 0.1
v 0.6 2.5 0.1
v -0.7 2.2 0
v -0.7 2.5 0
v -0.6 2.3 0
v -0.6 2.5 0
v -0.5 2.2 0
v -0.5 2.3 0
v 0.5 2.2 0
v 0.5 2.3 0
v 0.6 2.3 0
v 0.6 2.5 0
v 0.7 2.2 0
v 0.7 2.5 0
v -0.5 2.8 -0.1
v -0.5 2.9 -0.1
v -0.4 2.8 -0.1
v -0.4 2.9 -0.1
v 0.4 2.8 -0.1
v 0.4 2.9 -0.1
v 0.5 2.8 -0.1
v 0.5 2.9 -0.1
v -0.6 2.2 0.1
v -0.6 2.3 0.1
v -0.5 2.2 0.1
v -0.5 2.3 0.1
v -0.5 2.8 0.1
v -0.5 2.9 0.1
v -0.4 2.8 0.1
v -0.4 2.9 0.1
v 0.4 2.8 0.1
v 0.4 2.9 0.1
v 0.5 2.2 0.1
v 0.5 2.3 0.1
v 0.5 2.8 0.1
v 0.5 2.9 0.1
v 0.6 2.2 0.1
v 0.6 2.3 0.1
v -0.7 2.2 -0.1
v -0.7 2.5 -0.1
v -0.6 1.3 -0.1
v -0.6 1.5 -0.1
v -0.6 1.8 -0.1
v -0.6 1.9 -0.1
v -0.6 2.4 -0.1
v -0.6 2.5 -0.1
v -0.5 1.8 -0.1
v -0.5 1.9 -0.1
v -0.5 2.2 -0.1
v -0.5 2.4 -0.1
v -0.4 1.2 -0.1
v -0.4 1.3 -0.1
v -0.4 1.4 -0.1
v -0.4 1.5 -0.1
v -0.4 1.6 -0.1
v -0.4 1.7 -0.1
v -0.4 1.8 -0.1
v -0.3 1.8 -0.1
v -0.3 1.9 -0.1
v -0.1 1.2 -0.1
v -0.1 1.3 -0.1
v -0.1 1.4 -0.1
v 0.1 1.2 -0.1
v 0.1 1.3 -0.1
v 0.1 1.4 -0.1
v 0.3 1.8 -0.1
v 0.3 1.9 -0.1
v 0.4 1.2 -0.1
v 0.4 1.3 -0.1
v 0.4 1.4 -0.1
v 0.4 1.5 -0.1
v 0.4 1.6 -0.1
v 0.4 1.8 -0.1
v 0.5 1.5 -0.1
v 0.5 1.6 -0.1
v 0.5 1.8 -0.1
v 0.5 1.9 -0.1
v 0.5 2.2 -0.1
v 0.5 2.4 -0.1
v 0.6 1.3 -0.1
v 0.6 1.5 -0.1
v 0.6 1.8 -0.1
v 0.6 1.9 -0.1
v 0.6 2.4 -0.1
v 0.6 2.5 -0.1
v 0.7 2.2 -0.1
v 0.7 2.5 -0.1
v -0.5 2.8 -0.2
v -0.5 2.9 -0.2
v -0.4 1 -0.2
v -0.4 1.2 -0.2
v -0.4 1.4 -0.2
v -0.4 1.5 -0.2
v -0.4 1.6 -0.2
v -0.4 1.7 -0.2
v -0.4 1.8 -0.2
v -0.4 2.8 -0.2
v -0.4 2.9 -0.2
v -0.3 1.7 -0.2
v -0.3 1.8 -0.2
v -0.3 1.9 -0.2
v -0.2 1.6 -0.2
v -0.2 1.9 -0.2
v -0.1 1 -0.2
v -0.1 1.2 -0.2
v -0.1 1.6 -0.2
v -0.1 1.9 -0.2
v 0.1 1 -0.2
v 0.1 1.2 -0.2
v 0.1 1.6 -0.2
v 0.1 1.9 -0.2
v 0.2 1.6 -0.2
v 0.2 1.9 -0.2
v 0.3 1.8 -0.2
v 0.3 1.9 -0.2
v 0.4 1 -0.2
v 0.4 1.2 -0.2
v 0.4 1.4 -0.2
v 0.4 1.5 -0.2
v 0.4 1.6 -0.2
v 0.4 1.8 -0.2
v 0.4 2.8 -0.2
v 0.4 2.9 -0.2
v 0.5 2.8 -0.2
v 0.5 2.9 -0.2
v -0.5 1.9 -0.3
v -0.5 2 -0.3
v -0.4 1.9 -0.3
v -0.4 2 -0.3
v -0.4 2.8 -0.3
v -0.4 2.9 -0.3
v -0.3 2.8 -0.3
v -0.3 2.9 -0.3
v -0.2 2.8 -0.3
v -0.2 2.9 -0.3
v -0.1 2.8 -0.3
v -0.1 2.9 -0.3
v 0.1 2.8 -0.3
v 0.1 2.9 -0.3
v 0.2 2.8 -0.3
v 0.2 2.9 -0.3
v 0.3 2.8 -0.3
v 0.3 2.9 -0.3
v 0.4 1.9 -0.3
v 0.4 2 -0.3
v 0.4 2.8 -0.3
v 0.4 2.9 -0.3
v 0.5 1.9 -0.3
v 0.5 2 -0.3
v -0.6 2.4 -0.4
v -0.6 2.5 -0.4
v -0.5 2 -0.4
v -0.5 2.2 -0.4
v -0.5 2.4 -0.4
v -0.5 2.5 -0.4
v -0.5 2.7 -0.4
v -0.5 2.8 -0.4
v -0.4 1.9 -0.4
v -0.4 2 -0.4
v -0.4 2.1 -0.4
v -0.4 2.2 -0.4
v -0.4 2.4 -0.4
v -0.4 2.5 -0.4
v -0.4 2.6 -0.4
v -0.3 2 -0.4
v -0.3 2.1 -0.4
v -0.3 2.2 -0.4
v -0.3 2.5 -0.4
v -0.3 2.6 -0.4
v -0.3 2.8 -0.4
v -0.3 2.9 -0.4
v -0.2 2.2 -0.4
v -0.2 2.5 -0.4
v -0.2 2.8 -0.4
v -0.2 2.9 -0.4
v -0.1 2.1 -0.4
v -0.1 2.4 -0.4
v -0.1 2.5 -0.4
v -0.1 2.6 -0.4
v -0.1 2.7 -0.4
v -0.1 2.8 -0.4
v 0.1 2.1 -0.4
v 0.1 2.4 -0.4
v 0.1 2.5 -0.4
v 0.1 2.6 -0.4
v 0.1 2.7 -0.4
v 0.1 2.8 -0.4
v 0.2 2.2 -0.4
v 0.2 2.5 -0.4
v 0.2 2.6 -0.4
v 0.2 2.8 -0.4
v 0.2 2.9 -0.4
v 0.3 2 -0.4
v 0.3 2.1 -0.4
v 0.3 2.2 -0.4
v 0.3 2.5 -0.4
v 0.3 2.6 -0.4
v 0.3 2.8 -0.4
v 0.3 2.9 -0.4
v 0.4 1.9 -0.4
v 0.4 2 -0.4
v 0.4 2.1 -0.4
v 0.4 2.2 -0.4
v 0.4 2.4 -0.4
v 0.4 2.5 -0.4
v 0.4 2.6 -0.4
v 0.5 2 -0.4
v 0.5 2.2 -0.4
v 0.5 2.4 -0.4
v 0.5 2.5 -0.4
v 0.5 2.7 -0.4
v 0.5 2.8 -0.4
v 0.6 2.4 -0.4
v 0.6 2.5 -0.4
v -0.4 2.5 -0.5
v -0.4 2.6 -0.5
v -0.3 2.5 -0.5
v -0.3 2.6 -0.5
v -0.1 2.1 -0.5
v -0.1 2.4 -0.5
v -0.1 2.5 -0.5
v -0.1 2.6 -0.5
v -0.1 2.7 -0.5
v -0.1 2.9 -0.5
v 0.1 2.1 -0.5
v 0.1 2.4 -0.5
v 0.1 2.5 -0.5
v 0.1 2.6 -0.5
v 0.1 2.7 -0.5
v 0.1 2.9 -0.5
v 0.2 2.5 -0.5
v 0.2 2.6 -0.5
v 0.3 2.5 -0.5
v 0.3 2.6 -0.5
v 0.4 2.5 -0.5
v 0.4 2.6 -0.5
v -0.4 1 0.2
v -0.1 1 0.2
v 0.1 1 0.2
v 0.4 1 0.2
v -0.4 1 -0.2
v -0.1 1 -0.2
v 0.1 1 -0.2
v 0.4 1 -0.2
v -0.6 1.3 0.1
v -0.4 1.3 0.1
v 0.4 1.3 0.1
v 0.6 1.3 0.1
v -0.6 1.3 -0.1
v -0.4 1.3 -0.1
v 0.4 1.3 -0.1
v 0.6 1.3 -0.1
v -0.4 1.4 0.3
v -0.1 1.4 0.3
v 0.1 1.4 0.3
v 0.4 1.4 0.3
v -0.4 1.4 0.2
v -0.1 1.4 0.2
v 0.1 1.4 0.2
v 0.4 1.4 0.2
v -0.4 1.4 -0.1
v -0.1 1.4 -0.1
v 0.1 1.4 -0.1
v 0.4 1.4 -0.1
v -0.4 1.4 -0.2
v 0.4 1.4 -0.2
v -0.1 1.5 0.3
v 0.1 1.5 0.3
v -0.1 1.5 0.2
v 0.1 1.5 0.2
v -0.4 1.9 0.5
v 0.4 1.9 0.5
v -0.5 1.9 0.3
v -0.4 1.9 0.3
v -0.3 1.9 0.3
v -0.2 1.9 0.3
v 0.3 1.9 0.3
v 0.4 1.9 0.3
v 0.5 1.9 0.3
v -0.4 1.9 0.2
v -0.3 1.9 0.2
v 0.3 1.9 0.2
v 0.4 1.9 0.2
v -0.5 1.9 0.1
v -0.4 1.9 0.1
v 0.4 1.9 0.1
v 0.5 1.9 0.1
v -0.5 1.9 -0.1
v -0.3 1.9 -0.1
v 0.3 1.9 -0.1
v 0.5 1.9 -0.1
v -0.3 1.9 -0.2
v -0.2 1.9 -0.2
v -0.1 1.9 -0.2
v 0.1 1.9 -0.2
v 0.2 1.9 -0.2
v 0.3 1.9 -0.2
v -0.5 1.9 -0.3
v -0.4 1.9 -0.3
v 0.4 1.9 -0.3
v 0.5 1.9 -0.3
v -0.4 1.9 -0.4
v 0.4 1.9 -0.4
v -0.5 2 0.5
v -0.4 2 0.5
v 0.4 2 0.5
v 0.5 2 0.5
v -0.5 2 0.3
v -0.4 2 0.3
v 0.4 2 0.3
v 0.5 2 0.3
v -0.5 2 -0.3
v -0.4 2 -0.3
v 0.4 2 -0.3
v 0.5 2 -0.3
v -0.5 2 -0.4
v -0.4 2 -0.4
v 0.4 2 -0.4
v 0.5 2 -0.4
v -0.1 2.1 -0.4
v 0.1 2.1 -0.4
v -0.1 2.1 -0.5
v 0.1 2.1 -0.5
v -0.6 2.2 0.2
v -0.5 2.2 0.2
v 0.5 2.2 0.2
v 0.6 2.2 0.2
v -0.6 2.2 0.1
v -0.5 2.2 0.1
v 0.5 2.2 0.1
v 0.6 2.2 0.1
v -0.7 2.2 0
v -0.5 2.2 0
v 0.5 2.2 0
v 0.7 2.2 0
v -0.7 2.2 -0.1
v -0.5 2.2 -0.1
v 0.5 2.2 -0.1
v 0.7 2.2 -0.1
v -0.6 2.3 0.1
v -0.5 2.3 0.1
v 0.5 2.3 0.1
v 0.6 2.3 0.1
v -0.6 2.3 0
v -0.5 2.3 0
v 0.5 2.3 0
v 0.6 2.3 0
v -0.6 2.4 -0.1
v -0.5 2.4 -0.1
v 0.5 2.4 -0.1
v 0.6 2.4 -0.1
v -0.6 2.4 -0.4
v -0.5 2.4 -0.4
v 0.5 2.4 -0.4
v 0.6 2.4 -0.4
v -0.4 2.5 -0.4
v -0.3 2.5 -0.4
v -0.2 2.5 -0.4
v -0.1 2.5 -0.4
v 0.1 2.5 -0.4
v 0.2 2.5 -0.4
v 0.3 2.5 -0.4
v 0.4 2.5 -0.4
v -0.4 2.5 -0.5
v -0.3 2.5 -0.5
v -0.1 2.5 -0.5
v 0.1 2.5 -0.5
v 0.2 2.5 -0.5
v 0.3 2.5 -0.5
v 0.4 2.5 -0.5
v -0.1 2.7 -0.4
v 0.1 2.7 -0.4
v -0.1 2.7 -0.5
v 0.1 2.7 -0.5
v -0.4 1.2 -0.1
v -0.1 1.2 -0.1
v 0.1 1.2 -0.1
v 0.4 1.2 -0.1
v -0.4 1.2 -0.2
v -0.1 1.2 -0.2
v 0.1 1.2 -0.2
v 0.4 1.2 -0.2
v -0.4 1.8 0.3
v -0.3 1.8 0.3
v 0.3 1.8 0.3
v 0.4 1.8 0.3
v -0.4 1.8 0.2
v -0.3 1.8 0.2
v 0.3 1.8 0.2
v 0.4 1.8 0.2
v -0.4 1.8 -0.1
v -0.3 1.8 -0.1
v 0.3 1.8 -0.1
v 0.4 1.8 -0.1
v -0.4 1.8 -0.2
v -0.3 1.8 -0.2
v 0.3 1.8 -0.2
v 0.4 1.8 -0.2
v -0.6 1.9 0.1
v -0.5 1.9 0.1
v 0.5 1.9 0.1
v 0.6 1.9 0.1
v -0.6 1.9 0
v -0.5 1.9 0
v 0.5 1.9 0
v 0.6 1.9 0
v -0.6 1.9 -0.1
v -0.5 1.9 -0.1
v 0.5 1.9 -0.1
v 0.6 1.9 -0.1
v -0.6 2.4 0.2
v -0.5 2.4 0.2
v 0.5 2.4 0.2
v 0.6 2.4 0.2
v -0.6 2.4 0.1
v -0.5 2.4 0.1
v 0.5 2.4 0.1
v 0.6 2.4 0.1
v -0.1 2.4 -0.4
v 0.1 2.4 -0.4
v -0.1 2.4 -0.5
v 0.1 2.4 -0.5
v -0.6 2.5 0.1
v -0.5 2.5 0.1
v 0.5 2.5 0.1
v 0.6 2.5 0.1
v -0.7 2.5 0
v -0.6 2.5 0
v -0.5 2.5 0
v 0.5 2.5 0
v 0.6 2.5 0
v 0.7 2.5 0
v -0.7 2.5 -0.1
v -0.6 2.5 -0.1
v -0.5 2.5 -0.1
v 0.5 2.5 -0.1
v 0.6 2.5 -0.1
v 0.7 2.5 -0.1
v -0.5 2.5 -0.2
v 0.5 2.5 -0.2
v -0.6 2.5 -0.4
v -0.5 2.5 -0.4
v 0.5 2.5 -0.4
v 0.6 2.5 -0.4
v -0.4 2.6 -0.4
v -0.3 2.6 -0.4
v -0.1 2.6 -0.4
v 0.1 2.6 -0.4
v 0.2 2.6 -0.4
v 0.3 2.6 -0.4
v 0.4 2.6 -0.4
v -0.4 2.6 -0.5
v -0.3 2.6 -0.5
v -0.1 2.6 -0.5
v 0.1 2.6 -0.5
v 0.2 2.6 -0.5
v 0.3 2.6 -0.5
v 0.4 2.6 -0.5
v -0.5 2.7 0.5
v -0.4 2.7 0.5
v -0.5 2.7 0.4
v -0.4 2.7 0.4
v -0.4 2.8 0.5
v -0.3 2.8 0.5
v -0.2 2.8 0.5
v -0.1 2.8 0.5
v 0.1 2.8 0.5
v 0.2 2.8 0.5
v 0.3 2.8 0.5
v 0.4 2.8 0.5
v 0.5 2.8 0.5
v -0.5 2.8 0.4
v -0.4 2.8 0.4
v -0.3 2.8 0.4
v -0.2 2.8 0.4
v -0.1 2.8 0.4
v 0.1 2.8 0.4
v 0.2 2.8 0.4
v 0.3 2.8 0.4
v 0.4 2.8 0.4
v -0.4 2.8 0.3
v -0.3 2.8 0.3
v -0.2 2.8 0.3
v -0.1 2.8 0.3
v 0.1 2.8 0.3
v 0.2 2.8 0.3
v 0.3 2.8 0.3
v 0.4 2.8 0.3
v -0.5 2.8 0.2
v -0.4 2.8 0.2
v 0.4 2.8 0.2
v 0.5 2.8 0.2
v -0.5 2.8 0.1
v -0.4 2.8 0.1
v 0.4 2.8 0.1
v 0.5 2.8 0.1
v -0.5 2.8 -0.1
v -0.4 2.8 -0.1
v 0.4 2.8 -0.1
v 0.5 2.8 -0.1
v -0.5 2.8 -0.2
v -0.4 2.8 -0.2
v 0.4 2.8 -0.2
v 0.5 2.8 -0.2
v -0.5 2.8 -0.3
v -0.4 2.8 -0.3
v -0.3 2.8 -0.3
v -0.2 2.8 -0.3
v -0.1 2.8 -0.3
v 0.1 2.8 -0.3
v 0.2 2.8 -0.3
v 0.3 2.8 -0.3
v 0.4 2.8 -0.3
v 0.5 2.8 -0.3
v -0.5 2.8 -0.4
v -0.3 2.8 -0.4
v -0.2 2.8 -0.4
v -0.1 2.8 -0.4
v 0.1 2.8 -0.4
v 0.2 2.8 -0.4
v 0.3 2.8 -0.4
v 0.5 2.8 -0.4
v -0.3 2.9 0.5
v -0.2 2.9 0.5
v -0.1 2.9 0.5
v 0 2.9 0.5
v 0.1 2.9 0.5
v -0.3 2.9 0.4
v -0.2 2.9 0.4
v -0.1 2.9 0.4
v 0 2.9 0.4
v 0.2 2.9 0.4
v 0.3 2.9 0.4
v -0.4 2.9 0.3
v -0.3 2.9 0.3
v -0.2 2.9 0.3
v -0.1 2.9 0.3
v 0 2.9 0.3
v 0.1 2.9 0.3
v 0.2 2.9 0.3
v 0.3 2.9 0.3
v 0.4 2.9 0.3
v -0.5 2.9 0.2
v -0.4 2.9 0.2
v 0 2.9 0.2
v 0.1 2.9 0.2
v 0.4 2.9 0.2
v 0.5 2.9 0.2
v -0.5 2.9 0.1
v -0.4 2.9 0.1
v -0.3 2.9 0.1
v -0.2 2.9 0.1
v 0.2 2.9 0.1
v 0.3 2.9 0.1
v 0.4 2.9 0.1
v 0.5 2.9 0.1
v -0.3 2.9 0
v -0.2 2.9 0
v -0.1 2.9 0
v 0.2 2.9 0
v 0.3 2.9 0
v -0.5 2.9 -0.1
v -0.4 2.9 -0.1
v -0.2 2.9 -0.1
v -0.1 2.9 -0.1
v 0.2 2.9 -0.1
v 0.4 2.9 -0.1
v 0.5 2.9 -0.1
v -0.5 2.9 -0.2
v -0.4 2.9 -0.2
v -0.2 2.9 -0.2
v -0.1 2.9 -0.2
v 0.1 2.9 -0.2
v 0.2 2.9 -0.2
v 0.4 2.9 -0.2
v 0.5 2.9 -0.2
v -0.4 2.9 -0.3
v -0.3 2.9 -0.3
v -0.2 2.9 -0.3
v -0.1 2.9 -0.3
v 0.1 2.9 -0.3
v 0.2 2.9 -0.3
v 0.3 2.9 -0.3
v 0.4 2.9 -0.3
v -0.3 2.9 -0.4
v -0.2 2.9 -0.4
v 0.2 2.9 -0.4
v 0.3 2.9 -0.4
v -0.1 2.9 -0.5
v 0.1 2.9 -0.5

# faces
f 3/1/1 2/1/1 1/1/1
f 4/1/1 2/1/1 3/1/1
f 7/2/1 6/2/1 5/2/1
f 8/2/1 6/2/1 7/2/1
f 9/7/1 8/7/1 7/7/1
f 10/7/1 8/7/1 9/7/1
f 11/7/1 9/7/1 7/7/1
f 12/8/1 10/8/1 9/8/1
f 12/7/1 9/7/1 11/7/1
f 13/8/1 10/8/1 12/8/1
f 16/11/1 15/11/1 14/11/1
f 18/11/1 16/11/1 14/11/1
f 18/11/1 17/11/1 16/11/1
f 19/11/1 17/11/1 18/11/1
f 22/11/1 17/11/1 19/11/1
f 23/11/1 17/11/1 22/11/1
f 24/11/1 21/11/1 20/11/1
f 25/11/1 21/11/1 24/11/1
f 32/2/1 27/2/1 26/2/1
f 32/2/1 30/2/1 29/2/1
f 32/2/1 29/2/1 28/2/1
f 32/2/1 28/2/1 27/2/1
f 33/2/1 30/2/1 32/2/1
f 35/2/1 32/2/1 31/2/1
f 35/2/1 33/2/1 32/2/1
f 36/2/1 33/2/1 35/2/1
f 37/2/1 33/2/1 36/2/1
f 38/2/1 33/2/1 37/2/1
f 39/1/1 34/1/1 33/1/1
f 39/2/1 33/2/1 38/2/1
f 40/1/1 34/1/1 39/1/1
f 41/2/1 35/2/1 31/2/1
f 42/2/1 35/2/1 41/2/1
f 43/2/1 35/2/1 42/2/1
f 44/2/1 35/2/1 43/2/1
f 45/2/1 37/2/1 36/2/1
f 46/2/1 37/2/1 45/2/1
f 47/7/1 44/7/1 43/7/1
f 49/2/1 40/2/1 39/2/1
f 49/2/1 39/2/1 38/2/1
f 50/2/1 40/2/1 49/2/1
f 51/6/1 48/6/1 47/6/1
f 56/7/1 42/7/1 41/7/1
f 57/6/1 43/6/1 42/6/1
f 57/7/1 42/7/1 56/7/1
f 58/7/1 47/7/1 43/7/1
f 58/6/1 43/6/1 57/6/1
f 59/2/1 55/2/1 54/2/1
f 59/7/1 54/7/1 53/7/1
f 60/2/1 55/2/1 59/2/1
f 61/6/1 57/6/1 56/6/1
f 62/7/1 58/7/1 57/7/1
f 62/6/1 57/6/1 61/6/1
f 63/7/1 47/7/1 58/7/1
f 63/7/1 58/7/1 62/7/1
f 63/6/1 51/6/1 47/6/1
f 64/7/1 52/7/1 51/7/1
f 64/6/1 51/6/1 63/6/1
f 65/6/1 53/6/1 52/6/1
f 65/7/1 52/7/1 64/7/1
f 66/7/1 60/7/1 59/7/1
f 66/6/1 53/6/1 65/6/1
f 66/7/1 59/7/1 53/7/1
f 67/2/1 55/2/1 60/2/1
f 67/7/1 60/7/1 66/7/1
f 68/2/1 55/2/1 67/2/1
f 69/7/1 66/7/1 65/7/1
f 69/7/1 65/7/1 64/7/1
f 69/7/1 67/7/1 66/7/1
f 69/7/1 63/7/1 62/7/1
f 69/7/1 64/7/1 63/7/1
f 70/7/1 67/7/1 69/7/1
f 71/7/1 67/7/1 70/7/1
f 72/7/1 67/7/1 71/7/1
f 73/7/1 67/7/1 72/7/1
f 74/6/1 68/6/1 67/6/1
f 74/7/1 67/7/1 73/7/1
f 75/6/1 68/6/1 74/6/1
f 76/7/1 71/7/1 70/7/1
f 77/7/1 71/7/1 76/7/1
f 78/7/1 73/7/1 72/7/1
f 79/7/1 73/7/1 78/7/1
f 82/9/1 81/9/1 80/9/1
f 83/9/1 81/9/1 82/9/1
f 84/9/1 81/9/1 83/9/1
f 85/6/1 83/6/1 82/6/1
f 86/6/1 83/6/1 85/6/1
f 87/6/1 83/6/1 86/6/1
f 89/3/1 86/3/1 85/3/1
f 92/3/1 89/3/1 88/3/1
f 92/3/1 86/3/1 89/3/1
f 93/3/1 91/3/1 90/3/1
f 94/3/1 91/3/1 93/3/1
f 95/3/1 92/3/1 88/3/1
f 96/3/1 92/3/1 95/3/1
f 97/10/1 94/10/1 93/10/1
f 98/10/1 94/10/1 97/10/1
f 99/7/1 98/7/1 97/7/1
f 100/7/1 98/7/1 99/7/1
f 101/7/1 96/7/1 95/7/1
f 102/7/1 96/7/1 101/7/1
f 103/8/1 100/8/1 99/8/1
f 104/8/1 100/8/1 103/8/1
f 107/7/1 96/7/1 102/7/1
f 108/7/1 96/7/1 107/7/1
f 111/2/1 106/2/1 105/2/1
f 112/2/1 106/2/1 111/2/1
f 113/2/1 110/2/1 109/2/1
f 114/2/1 110/2/1 113/2/1
f 117/6/1 116/6/1 115/6/1
f 118/6/1 116/6/1 117/6/1
f 121/6/1 120/6/1 119/6/1
f 122/6/1 120/6/1 121/6/1
f 129/7/1 124/7/1 123/7/1
f 130/7/1 124/7/1 129/7/1
f 131/7/1 126/7/1 125/7/1
f 132/7/1 126/7/1 131/7/1
f 133/7/1 128/7/1 127/7/1
f 134/7/1 128/7/1 133/7/1
f 139/8/1 136/8/1 135/8/1
f 140/8/1 136/8/1 139/8/1
f 141/7/1 138/7/1 137/7/1
f 142/7/1 138/7/1 141/7/1
f 148/6/1 144/6/1 143/6/1
f 149/7/1 145/7/1 144/7/1
f 149/6/1 144/6/1 148/6/1
f 150/7/1 145/7/1 149/7/1
f 151/6/1 147/6/1 146/6/1
f 152/6/1 147/6/1 151/6/1
f 155/1/1 154/1/1 153/1/1
f 156/1/1 154/1/1 155/1/1
f 163/7/1 158/7/1 157/7/1
f 164/6/1 160/6/1 159/6/1
f 165/7/1 161/7/1 160/7/1
f 165/6/1 160/6/1 164/6/1
f 166/7/1 161/7/1 165/7/1
f 167/7/1 163/7/1 162/7/1
f 168/7/1 158/7/1 163/7/1
f 168/7/1 163/7/1 167/7/1
f 171/9/1 170/9/1 169/9/1
f 172/9/1 170/9/1 171/9/1
f 173/9/1 170/9/1 172/9/1
f 174/6/1 172/6/1 171/6/1
f 175/6/1 172/6/1 174/6/1
f 177/3/1 175/3/1 174/3/1
f 178/3/1 175/3/1 177/3/1
f 179/3/1 177/3/1 176/3/1
f 180/3/1 177/3/1 179/3/1
f 183/6/1 182/6/1 181/6/1
f 184/6/1 182/6/1 183/6/1
f 189/6/1 186/6/1 185/6/1
f 190/6/1 186/6/1 189/6/1
f 191/6/1 188/6/1 187/6/1
f 192/6/1 188/6/1 191/6/1
f 193/6/2 194/6/2 198/6/2
f 194/7/2 195/7/2 199/7/2
f 198/6/2 194/6/2 199/6/2
f 199/7/2 195/7/2 200/7/2
f 196/6/2 197/6/2 201/6/2
f 201/6/2 197/6/2 202/6/2
f 203/9/2 204/9/2 205/9/2
f 205/9/2 204/9/2 206/9/2
f 206/9/2 204/9/2 207/9/2
f 205/6/2 206/6/2 208/6/2
f 208/6/2 206/6/2 209/6/2
f 208/3/2 209/3/2 211/3/2
f 211/3/2 209/3/2 212/3/2
f 210/3/2 211/3/2 213/3/2
f 213/3/2 211/3/2 214/3/2
f 215/7/2 216/7/2 217/7/2
f 217/7/2 216/7/2 218/7/2
f 219/1/2 220/1/2 221/1/2
f 221/1/2 220/1/2 222/1/2
f 223/7/2 224/7/2 229/7/2
f 226/7/2 227/7/2 230/7/2
f 225/7/2 226/7/2 230/7/2
f 230/7/2 227/7/2 231/7/2
f 228/7/2 229/7/2 232/7/2
f 229/7/2 224/7/2 233/7/2
f 232/7/2 229/7/2 233/7/2
f 234/7/2 235/7/2 238/7/2
f 238/7/2 235/7/2 239/7/2
f 236/7/2 237/7/2 240/7/2
f 240/7/2 237/7/2 241/7/2
f 242/6/2 243/6/2 246/6/2
f 246/6/2 243/6/2 247/6/2
f 244/6/2 245/6/2 248/6/2
f 248/6/2 245/6/2 249/6/2
f 250/9/2 251/9/2 252/9/2
f 252/9/2 251/9/2 253/9/2
f 253/9/2 251/9/2 254/9/2
f 252/6/2 253/6/2 255/6/2
f 255/6/2 253/6/2 256/6/2
f 256/6/2 253/6/2 257/6/2
f 255/3/2 256/3/2 259/3/2
f 258/3/2 259/3/2 262/3/2
f 259/3/2 256/3/2 262/3/2
f 260/3/2 261/3/2 263/3/2
f 263/3/2 261/3/2 264/3/2
f 258/3/2 262/3/2 265/3/2
f 265/3/2 262/3/2 266/3/2
f 266/3/2 262/3/2 267/3/2
f 263/10/2 264/10/2 268/10/2
f 268/10/2 264/10/2 269/10/2
f 265/8/2 266/8/2 270/8/2
f 266/7/2 267/7/2 271/7/2
f 270/8/2 266/8/2 271/8/2
f 270/7/2 271/7/2 272/7/2
f 271/7/2 267/7/2 273/7/2
f 272/7/2 271/7/2 273/7/2
f 268/7/2 269/7/2 274/7/2
f 274/7/2 269/7/2 275/7/2
f 273/7/2 267/7/2 278/7/2
f 278/7/2 267/7/2 279/7/2
f 276/2/2 277/2/2 282/2/2
f 282/2/2 277/2/2 283/2/2
f 280/2/2 281/2/2 284/2/2
f 284/2/2 281/2/2 285/2/2
f 286/6/2 287/6/2 288/6/2
f 288/6/2 287/6/2 289/6/2
f 290/7/2 291/7/2 296/7/2
f 296/7/2 291/7/2 297/7/2
f 292/7/2 293/7/2 298/7/2
f 298/7/2 293/7/2 299/7/2
f 294/7/2 295/7/2 300/7/2
f 300/7/2 295/7/2 301/7/2
f 302/2/2 303/2/2 308/2/2
f 305/2/2 306/2/2 308/2/2
f 304/2/2 305/2/2 308/2/2
f 303/2/2 304/2/2 308/2/2
f 308/2/2 306/2/2 309/2/2
f 307/2/2 308/2/2 311/2/2
f 308/2/2 309/2/2 311/2/2
f 311/2/2 309/2/2 312/2/2
f 312/2/2 309/2/2 313/2/2
f 313/2/2 309/2/2 314/2/2
f 309/1/2 310/1/2 315/1/2
f 314/2/2 309/2/2 315/2/2
f 315/1/2 310/1/2 316/1/2
f 307/2/2 311/2/2 317/2/2
f 317/2/2 311/2/2 318/2/2
f 318/2/2 311/2/2 319/2/2
f 319/2/2 311/2/2 320/2/2
f 312/2/2 313/2/2 321/2/2
f 321/2/2 313/2/2 322/2/2
f 319/7/2 320/7/2 323/7/2
f 315/2/2 316/2/2 325/2/2
f 314/2/2 315/2/2 325/2/2
f 325/2/2 316/2/2 326/2/2
f 323/6/2 324/6/2 327/6/2
f 317/7/2 318/7/2 332/7/2
f 318/6/2 319/6/2 333/6/2
f 332/7/2 318/7/2 333/7/2
f 319/7/2 323/7/2 334/7/2
f 333/6/2 319/6/2 334/6/2
f 332/6/2 333/6/2 335/6/2
f 333/7/2 334/7/2 336/7/2
f 335/6/2 333/6/2 336/6/2
f 334/7/2 323/7/2 337/7/2
f 336/7/2 334/7/2 337/7/2
f 323/6/2 327/6/2 337/6/2
f 327/7/2 328/7/2 338/7/2
f 337/6/2 327/6/2 338/6/2
f 328/6/2 329/6/2 339/6/2
f 338/7/2 328/7/2 339/7/2
f 329/7/2 330/7/2 340/7/2
f 339/6/2 329/6/2 340/6/2
f 330/2/2 331/2/2 341/2/2
f 340/7/2 330/7/2 341/7/2
f 341/2/2 331/2/2 342/2/2
f 342/2/2 331/2/2 343/2/2
f 335/7/2 336/7/2 344/7/2
f 339/7/2 340/7/2 344/7/2
f 336/7/2 337/7/2 344/7/2
f 341/7/2 342/7/2 344/7/2
f 340/7/2 341/7/2 344/7/2
f 338/7/2 339/7/2 344/7/2
f 337/7/2 338/7/2 344/7/2
f 344/7/2 342/7/2 345/7/2
f 345/7/2 342/7/2 346/7/2
f 346/7/2 342/7/2 347/7/2
f 347/7/2 342/7/2 348/7/2
f 342/6/2 343/6/2 349/6/2
f 348/7/2 342/7/2 349/7/2
f 349/6/2 343/6/2 350/6/2
f 345/6/2 346/6/2 351/6/2
f 351/6/2 346/6/2 352/6/2
f 347/6/2 348/6/2 353/6/2
f 353/6/2 348/6/2 354/6/2
f 355/2/2 356/2/2 357/2/2
f 357/2/2 356/2/2 358/2/2
f 357/7/2 358/7/2 359/7/2
f 359/7/2 358/7/2 360/7/2
f 357/7/2 359/7/2 361/7/2
f 359/8/2 360/8/2 362/8/2
f 361/7/2 359/7/2 362/7/2
f 362/8/2 360/8/2 363/8/2
f 364/11/2 365/11/2 366/11/2
f 364/11/2 366/11/2 368/11/2
f 366/11/2 367/11/2 368/11/2
f 368/11/2 367/11/2 369/11/2
f 369/11/2 367/11/2 372/11/2
f 372/11/2 367/11/2 373/11/2
f 370/11/2 371/11/2 374/11/2
f 374/11/2 371/11/2 375/11/2
f 376/1/2 377/1/2 378/1/2
f 378/1/2 377/1/2 379/1/2
f 385/2/3 381/2/3 380/2/3
f 386/7/3 382/7/3 381/7/3
f 386/2/3 381/2/3 385/2/3
f 387/6/3 383/6/3 382/6/3
f 387/7/3 382/7/3 386/7/3
f 388/6/3 383/6/3 387/6/3
f 390/6/3 387/6/3 386/6/3
f 391/7/3 388/7/3 387/7/3
f 391/6/3 387/6/3 390/6/3
f 392/6/3 389/6/3 388/6/3
f 392/7/3 388/7/3 391/7/3
f 393/6/3 389/6/3 392/6/3
f 395/2/3 386/2/3 385/2/3
f 395/2/3 385/2/3 384/2/3
f 395/6/3 390/6/3 386/6/3
f 396/7/3 393/7/3 392/7/3
f 396/6/3 390/6/3 395/6/3
f 396/7/3 391/7/3 390/7/3
f 396/7/3 392/7/3 391/7/3
f 397/6/3 394/6/3 393/6/3
f 397/7/3 393/7/3 396/7/3
f 398/6/3 394/6/3 397/6/3
f 399/7/3 396/7/3 395/7/3
f 399/2/3 395/2/3 384/2/3
f 400/6/3 397/6/3 396/6/3
f 400/7/3 396/7/3 399/7/3
f 401/6/3 397/6/3 400/6/3
f 402/6/3 397/6/3 401/6/3
f 403/6/3 397/6/3 402/6/3
f 405/7/3 401/7/3 400/7/3
f 405/6/3 402/6/3 401/6/3
f 406/7/3 403/7/3 402/7/3
f 406/6/3 402/6/3 405/6/3
f 407/6/3 404/6/3 403/6/3
f 407/7/3 403/7/3 406/7/3
f 408/6/3 404/6/3 407/6/3
f 409/2/3 399/2/3 384/2/3
f 409/6/3 400/6/3 399/6/3
f 410/7/3 406/7/3 405/7/3
f 410/6/3 400/6/3 409/6/3
f 410/7/3 405/7/3 400/7/3
f 411/6/3 407/6/3 406/6/3
f 411/7/3 406/7/3 410/7/3
f 412/7/3 408/7/3 407/7/3
f 412/6/3 407/6/3 411/6/3
f 413/7/3 408/7/3 412/7/3
f 414/6/3 411/6/3 410/6/3
f 414/7/3 410/7/3 409/7/3
f 414/6/3 412/6/3 411/6/3
f 415/6/3 412/6/3 414/6/3
f 416/6/3 412/6/3 415/6/3
f 417/6/3 412/6/3 416/6/3
f 418/2/3 409/2/3 384/2/3
f 418/7/3 414/7/3 409/7/3
f 418/7/3 415/7/3 414/7/3
f 419/6/3 416/6/3 415/6/3
f 419/7/3 415/7/3 418/7/3
f 420/7/3 417/7/3 416/7/3
f 420/6/3 416/6/3 419/6/3
f 421/7/3 417/7/3 420/7/3
f 422/2/3 418/2/3 384/2/3
f 423/2/3 418/2/3 422/2/3
f 424/6/3 419/6/3 418/6/3
f 424/2/3 418/2/3 423/2/3
f 425/7/3 420/7/3 419/7/3
f 425/6/3 419/6/3 424/6/3
f 426/6/3 421/6/3 420/6/3
f 427/6/3 421/6/3 426/6/3
f 428/2/3 424/2/3 423/2/3
f 429/7/3 425/7/3 424/7/3
f 429/2/3 424/2/3 428/2/3
f 430/7/3 420/7/3 425/7/3
f 430/7/3 425/7/3 429/7/3
f 430/6/3 426/6/3 420/6/3
f 431/7/3 427/7/3 426/7/3
f 431/6/3 426/6/3 430/6/3
f 432/7/3 427/7/3 431/7/3
f 435/7/3 434/7/3 433/7/3
f 436/7/3 434/7/3 435/7/3
f 439/6/3 438/6/3 437/6/3
f 440/6/3 438/6/3 439/6/3
f 446/2/3 442/2/3 441/2/3
f 447/2/3 442/2/3 446/2/3
f 450/7/3 445/7/3 444/7/3
f 452/7/3 449/7/3 448/7/3
f 453/7/3 449/7/3 452/7/3
f 454/8/3 451/8/3 450/8/3
f 454/7/3 450/7/3 444/7/3
f 455/8/3 451/8/3 454/8/3
f 458/3/3 444/3/3 443/3/3
f 459/3/3 444/3/3 458/3/3
f 460/7/3 457/7/3 456/7/3
f 461/7/3 457/7/3 460/7/3
f 463/3/3 444/3/3 459/3/3
f 466/7/3 465/7/3 464/7/3
f 467/7/3 465/7/3 466/7/3
f 468/7/3 454/7/3 444/7/3
f 468/7/3 455/7/3 454/7/3
f 468/3/3 444/3/3 463/3/3
f 468/3/3 463/3/3 462/3/3
f 469/7/3 455/7/3 468/7/3
f 470/7/3 455/7/3 469/7/3
f 471/7/3 455/7/3 470/7/3
f 474/3/3 468/3/3 462/3/3
f 475/8/3 469/8/3 468/8/3
f 475/3/3 468/3/3 474/3/3
f 476/7/3 470/7/3 469/7/3
f 476/8/3 469/8/3 475/8/3
f 477/7/3 470/7/3 476/7/3
f 480/7/3 473/7/3 472/7/3
f 481/7/3 473/7/3 480/7/3
f 482/2/3 479/2/3 478/2/3
f 483/2/3 479/2/3 482/2/3
f 486/11/3 485/11/3 484/11/3
f 487/11/3 485/11/3 486/11/3
f 488/11/3 485/11/3 487/11/3
f 497/7/3 490/7/3 489/7/3
f 498/7/3 490/7/3 497/7/3
f 499/7/3 496/7/3 495/7/3
f 500/7/3 496/7/3 499/7/3
f 501/9/3 492/9/3 491/9/3
f 502/6/3 493/6/3 492/6/3
f 502/9/3 492/9/3 501/9/3
f 503/3/3 494/3/3 493/3/3
f 503/6/3 493/6/3 502/6/3
f 504/3/3 494/3/3 503/3/3
f 509/3/3 505/3/3 504/3/3
f 510/3/3 505/3/3 509/3/3
f 513/9/3 507/9/3 506/9/3
f 514/6/3 508/6/3 507/6/3
f 514/9/3 507/9/3 513/9/3
f 515/3/3 509/3/3 508/3/3
f 515/6/3 508/6/3 514/6/3
f 516/3/3 509/3/3 515/3/3
f 517/7/3 512/7/3 511/7/3
f 518/7/3 512/7/3 517/7/3
f 524/6/3 520/6/3 519/6/3
f 525/6/3 520/6/3 524/6/3
f 526/11/3 523/11/3 522/11/3
f 526/11/3 522/11/3 521/11/3
f 527/11/3 523/11/3 526/11/3
f 533/2/3 529/2/3 528/2/3
f 533/7/3 530/7/3 529/7/3
f 534/7/3 530/7/3 533/7/3
f 535/7/3 530/7/3 534/7/3
f 536/11/3 532/11/3 531/11/3
f 537/11/3 532/11/3 536/11/3
f 538/2/3 533/2/3 528/2/3
f 539/8/3 534/8/3 533/8/3
f 539/2/3 533/2/3 538/2/3
f 540/7/3 535/7/3 534/7/3
f 540/8/3 534/8/3 539/8/3
f 541/7/3 535/7/3 540/7/3
f 546/7/3 544/7/3 543/7/3
f 546/7/3 545/7/3 544/7/3
f 549/2/3 543/2/3 542/2/3
f 550/7/3 546/7/3 543/7/3
f 550/2/3 543/2/3 549/2/3
f 551/7/3 546/7/3 550/7/3
f 552/11/3 548/11/3 547/11/3
f 553/11/3 548/11/3 552/11/3
f 556/1/3 555/1/3 554/1/3
f 557/1/3 555/1/3 556/1/3
f 558/1/3 556/1/3 554/1/3
f 559/1/3 556/1/3 558/1/3
f 562/1/3 561/1/3 560/1/3
f 564/1/3 562/1/3 560/1/3
f 564/1/3 563/1/3 562/1/3
f 565/1/3 563/1/3 564/1/3
f 568/7/3 567/7/3 566/7/3
f 569/7/3 567/7/3 568/7/3
f 572/6/3 571/6/3 570/6/3
f 573/6/3 571/6/3 572/6/3
f 574/11/4 575/11/4 576/11/4
f 576/11/4 575/11/4 577/11/4
f 578/7/4 579/7/4 580/7/4
f 580/7/4 579/7/4 581/7/4
f 582/6/4 583/6/4 586/6/4
f 586/6/4 583/6/4 587/6/4
f 584/11/4 585/11/4 588/11/4
f 588/11/4 585/11/4 589/11/4
f 590/1/4 591/1/4 596/1/4
f 596/1/4 591/1/4 597/1/4
f 594/8/4 595/8/4 598/8/4
f 593/7/4 594/7/4 598/7/4
f 598/8/4 595/8/4 599/8/4
f 590/1/4 596/1/4 600/1/4
f 600/1/4 596/1/4 601/1/4
f 592/2/4 593/2/4 603/2/4
f 603/2/4 593/2/4 604/2/4
f 598/7/4 599/7/4 605/7/4
f 604/2/4 593/2/4 605/2/4
f 593/7/4 598/7/4 605/7/4
f 605/7/4 599/7/4 606/7/4
f 606/7/4 599/7/4 607/7/4
f 607/7/4 599/7/4 608/7/4
f 608/7/4 599/7/4 609/7/4
f 609/7/4 599/7/4 610/7/4
f 602/6/4 603/6/4 611/6/4
f 603/3/4 604/3/4 612/3/4
f 611/6/4 603/6/4 612/6/4
f 612/3/4 604/3/4 613/3/4
f 614/6/4 615/6/4 619/6/4
f 615/3/4 616/3/4 620/3/4
f 619/6/4 615/6/4 620/6/4
f 620/3/4 616/3/4 621/3/4
f 617/7/4 618/7/4 624/7/4
f 622/8/4 623/8/4 625/8/4
f 620/2/4 621/2/4 625/2/4
f 621/2/4 622/2/4 625/2/4
f 623/7/4 624/7/4 626/7/4
f 625/8/4 623/8/4 626/8/4
f 624/7/4 618/7/4 627/7/4
f 626/7/4 624/7/4 627/7/4
f 627/7/4 618/7/4 628/7/4
f 620/2/4 625/2/4 631/2/4
f 625/7/4 626/7/4 632/7/4
f 631/2/4 625/2/4 632/2/4
f 626/7/4 627/7/4 632/7/4
f 627/8/4 628/8/4 633/8/4
f 632/7/4 627/7/4 633/7/4
f 633/8/4 628/8/4 634/8/4
f 629/1/4 630/1/4 635/1/4
f 629/1/4 635/1/4 637/1/4
f 635/1/4 636/1/4 637/1/4
f 637/1/4 636/1/4 638/1/4
f 639/7/4 640/7/4 648/7/4
f 648/7/4 640/7/4 649/7/4
f 646/8/4 647/8/4 650/8/4
f 645/7/4 646/7/4 650/7/4
f 650/8/4 647/8/4 651/8/4
f 644/10/4 645/10/4 653/10/4
f 651/7/4 652/7/4 653/7/4
f 650/7/4 651/7/4 653/7/4
f 645/7/4 650/7/4 653/7/4
f 653/7/4 652/7/4 654/7/4
f 641/9/4 642/9/4 655/9/4
f 655/9/4 642/9/4 656/9/4
f 644/10/4 653/10/4 657/10/4
f 653/4/4 654/4/4 657/4/4
f 657/4/4 654/4/4 658/4/4
f 644/10/4 657/10/4 661/10/4
f 657/5/4 658/5/4 661/5/4
f 661/5/4 658/5/4 662/5/4
f 644/10/4 661/10/4 663/10/4
f 661/4/4 662/4/4 663/4/4
f 663/4/4 662/4/4 664/4/4
f 663/7/4 664/7/4 665/7/4
f 665/7/4 664/7/4 666/7/4
f 659/9/4 660/9/4 667/9/4
f 667/9/4 660/9/4 668/9/4
f 643/3/4 644/3/4 669/3/4
f 644/10/4 663/10/4 670/10/4
f 669/3/4 644/3/4 670/3/4
f 663/7/4 665/7/4 671/7/4
f 670/10/4 663/10/4 671/10/4
f 671/7/4 665/7/4 672/7/4
f 673/6/4 674/6/4 675/6/4
f 675/6/4 674/6/4 676/6/4
f 677/2/4 678/2/4 679/2/4
f 679/2/4 678/2/4 680/2/4
f 681/7/4 682/7/4 683/7/4
f 683/7/4 682/7/4 684/7/4
f 685/7/4 686/7/4 687/7/4
f 687/7/4 686/7/4 688/7/4
f 689/6/4 690/6/4 691/6/4
f 691/6/4 690/6/4 692/6/4
f 693/7/4 694/7/4 697/7/4
f 697/7/4 694/7/4 698/7/4
f 695/2/4 696/2/4 699/2/4
f 699/2/4 696/2/4 700/2/4
f 701/11/4 702/11/4 705/11/4
f 705/11/4 702/11/4 706/11/4
f 703/1/4 704/1/4 710/1/4
f 710/1/4 704/1/4 711/1/4
f 704/2/4 705/2/4 712/2/4
f 711/1/4 704/1/4 712/1/4
f 705/11/4 706/11/4 713/11/4
f 712/2/4 705/2/4 713/2/4
f 706/2/4 707/2/4 714/2/4
f 713/11/4 706/11/4 714/11/4
f 714/2/4 707/2/4 715/2/4
f 710/1/4 711/1/4 716/1/4
f 709/2/4 710/2/4 716/2/4
f 711/11/4 712/11/4 717/11/4
f 716/1/4 711/1/4 717/1/4
f 712/11/4 713/11/4 717/11/4
f 713/11/4 714/11/4 717/11/4
f 717/11/4 714/11/4 718/11/4
f 718/11/4 714/11/4 719/11/4
f 715/2/4 707/2/4 720/2/4
f 707/6/4 708/6/4 721/6/4
f 718/12/4 719/12/4 723/12/4
f 717/11/4 718/11/4 723/11/4
f 723/12/4 719/12/4 724/12/4
f 721/6/4 722/6/4 725/6/4
f 707/6/4 721/6/4 725/6/4
f 725/6/4 722/6/4 726/6/4
f 723/11/4 724/11/4 727/11/4
f 716/2/4 717/2/4 727/2/4
f 717/11/4 723/11/4 727/11/4
f 727/11/4 724/11/4 728/11/4
f 728/11/4 724/11/4 729/11/4
f 720/2/4 707/2/4 730/2/4
f 707/6/4 725/6/4 731/6/4
f 730/2/4 707/2/4 731/2/4
f 731/6/4 725/6/4 732/6/4
f 716/2/4 727/2/4 733/2/4
f 728/11/4 729/11/4 734/11/4
f 729/2/4 730/2/4 735/2/4
f 730/2/4 731/2/4 735/2/4
f 734/11/4 729/11/4 735/11/4
f 735/2/4 731/2/4 736/2/4
f 736/2/4 731/2/4 737/2/4
f 733/11/4 734/11/4 739/11/4
f 734/11/4 735/11/4 739/11/4
f 739/11/4 735/11/4 740/11/4
f 736/2/4 737/2/4 741/2/4
f 737/6/4 738/6/4 742/6/4
f 716/2/4 733/2/4 744/2/4
f 709/2/4 716/2/4 744/2/4
f 733/11/4 739/11/4 745/11/4
f 744/2/4 733/2/4 745/2/4
f 739/12/4 740/12/4 746/12/4
f 745/11/4 739/11/4 746/11/4
f 746/12/4 740/12/4 747/12/4
f 741/2/4 737/2/4 748/2/4
f 742/6/4 743/6/4 749/6/4
f 737/6/4 742/6/4 749/6/4
f 749/6/4 743/6/4 750/6/4
f 709/2/4 744/2/4 751/2/4
f 744/1/4 745/1/4 752/1/4
f 751/2/4 744/2/4 752/2/4
f 746/11/4 747/11/4 753/11/4
f 752/1/4 745/1/4 753/1/4
f 745/11/4 746/11/4 753/11/4
f 753/11/4 747/11/4 754/11/4
f 754/11/4 747/11/4 755/11/4
f 755/11/4 747/11/4 756/11/4
f 748/2/4 737/2/4 757/2/4
f 752/1/4 753/1/4 758/1/4
f 753/1/4 754/1/4 758/1/4
f 754/2/4 755/2/4 759/2/4
f 758/1/4 754/1/4 759/1/4
f 755/11/4 756/11/4 760/11/4
f 759/2/4 755/2/4 760/2/4
f 756/2/4 757/2/4 761/2/4
f 760/11/4 756/11/4 761/11/4
f 737/6/4 749/6/4 762/6/4
f 761/2/4 757/2/4 762/2/4
f 757/2/4 737/2/4 762/2/4
f 762/6/4 749/6/4 763/6/4
f 760/11/4 761/11/4 764/11/4
f 764/11/4 761/11/4 765/11/4
f 766/6/4 767/6/4 768/6/4
f 768/6/4 767/6/4 769/6/4
f 768/7/4 769/7/4 772/7/4
f 772/7/4 769/7/4 773/7/4
f 770/1/4 771/1/4 776/1/4
f 776/1/4 771/1/4 777/1/4
f 774/7/4 775/7/4 780/7/4
f 780/7/4 775/7/4 781/7/4
f 778/6/4 779/6/4 782/6/4
f 782/6/4 779/6/4 783/6/4
f 782/7/4 783/7/4 784/7/4
f 784/7/4 783/7/4 785/7/4
f 784/6/4 785/6/4 786/6/4
f 786/6/4 785/6/4 787/6/4
f 792/9/5 789/9/5 788/9/5
f 793/9/5 789/9/5 792/9/5
f 794/9/5 791/9/5 790/9/5
f 795/9/5 791/9/5 794/9/5
f 800/2/5 797/2/5 796/2/5
f 801/2/5 797/2/5 800/2/5
f 802/2/5 799/2/5 798/2/5
f 803/2/5 799/2/5 802/2/5
f 808/3/5 805/3/5 804/3/5
f 809/3/5 805/3/5 808/3/5
f 810/3/5 807/3/5 806/3/5
f 811/3/5 807/3/5 810/3/5
f 813/3/5 810/3/5 809/3/5
f 814/3/5 810/3/5 813/3/5
f 816/3/5 813/3/5 812/3/5
f 816/3/5 815/3/5 814/3/5
f 816/3/5 814/3/5 813/3/5
f 817/3/5 815/3/5 816/3/5
f 820/3/5 819/3/5 818/3/5
f 821/3/5 819/3/5 820/3/5
f 825/2/5 823/2/5 822/2/5
f 826/2/5 823/2/5 825/2/5
f 827/2/5 823/2/5 826/2/5
f 828/2/5 823/2/5 827/2/5
f 829/2/5 823/2/5 828/2/5
f 831/2/5 825/2/5 824/2/5
f 831/2/5 826/2/5 825/2/5
f 832/2/5 826/2/5 831/2/5
f 833/2/5 830/2/5 829/2/5
f 833/2/5 829/2/5 828/2/5
f 834/2/5 830/2/5 833/2/5
f 835/2/5 831/2/5 824/2/5
f 836/2/5 831/2/5 835/2/5
f 837/2/5 830/2/5 834/2/5
f 838/2/5 830/2/5 837/2/5
f 843/2/5 840/2/5 839/2/5
f 848/2/5 842/2/5 841/2/5
f 849/2/5 847/2/5 846/2/5
f 849/2/5 848/2/5 847/2/5
f 849/2/5 843/2/5 839/2/5
f 849/2/5 844/2/5 843/2/5
f 849/2/5 846/2/5 845/2/5
f 849/2/5 845/2/5 844/2/5
f 850/2/5 848/2/5 849/2/5
f 851/2/5 842/2/5 848/2/5
f 851/2/5 848/2/5 850/2/5
f 852/2/5 842/2/5 851/2/5
f 853/2/5 851/2/5 850/2/5
f 854/2/5 851/2/5 853/2/5
f 859/2/5 856/2/5 855/2/5
f 860/2/5 856/2/5 859/2/5
f 861/2/5 858/2/5 857/2/5
f 862/2/5 858/2/5 861/2/5
f 867/1/5 864/1/5 863/1/5
f 868/1/5 864/1/5 867/1/5
f 869/1/5 866/1/5 865/1/5
f 870/1/5 866/1/5 869/1/5
f 873/1/5 872/1/5 871/1/5
f 874/1/5 872/1/5 873/1/5
f 879/11/5 876/11/5 875/11/5
f 880/11/5 876/11/5 879/11/5
f 881/11/5 878/11/5 877/11/5
f 882/11/5 878/11/5 881/11/5
f 887/1/5 884/1/5 883/1/5
f 888/1/5 884/1/5 887/1/5
f 889/1/5 886/1/5 885/1/5
f 890/1/5 886/1/5 889/1/5
f 895/11/5 892/11/5 891/11/5
f 896/11/5 892/11/5 895/11/5
f 897/11/5 894/11/5 893/11/5
f 898/11/5 894/11/5 897/11/5
f 903/11/5 900/11/5 899/11/5
f 904/11/5 900/11/5 903/11/5
f 905/11/5 902/11/5 901/11/5
f 906/11/5 902/11/5 905/11/5
f 915/6/5 908/6/5 907/6/5
f 916/7/5 909/7/5 908/7/5
f 916/6/5 908/6/5 915/6/5
f 916/7/5 910/7/5 909/7/5
f 917/7/5 910/7/5 916/7/5
f 918/6/5 912/6/5 911/6/5
f 919/7/5 913/7/5 912/7/5
f 919/6/5 912/6/5 918/6/5
f 920/6/5 914/6/5 913/6/5
f 920/7/5 913/7/5 919/7/5
f 921/6/5 914/6/5 920/6/5
f 924/7/5 923/7/5 922/7/5
f 925/7/5 923/7/5 924/7/5
f 926/9/6 927/9/6 930/9/6
f 930/9/6 927/9/6 931/9/6
f 928/9/6 929/9/6 932/9/6
f 932/9/6 929/9/6 933/9/6
f 934/7/6 935/7/6 938/7/6
f 938/7/6 935/7/6 939/7/6
f 936/7/6 937/7/6 940/7/6
f 940/7/6 937/7/6 941/7/6
f 942/8/6 943/8/6 946/8/6
f 946/8/6 943/8/6 947/8/6
f 944/7/6 945/7/6 948/7/6
f 948/7/6 945/7/6 949/7/6
f 950/7/6 951/7/6 954/7/6
f 954/7/6 951/7/6 955/7/6
f 952/7/6 953/7/6 956/7/6
f 956/7/6 953/7/6 957/7/6
f 954/8/6 955/8/6 958/8/6
f 958/8/6 955/8/6 959/8/6
f 956/8/6 957/8/6 960/8/6
f 960/8/6 957/8/6 961/8/6
f 962/11/6 963/11/6 966/11/6
f 966/11/6 963/11/6 967/11/6
f 964/11/6 965/11/6 968/11/6
f 968/11/6 965/11/6 969/11/6
f 970/1/6 971/1/6 972/1/6
f 972/1/6 971/1/6 973/1/6
f 974/11/6 975/11/6 979/11/6
f 979/11/6 975/11/6 980/11/6
f 976/11/6 977/11/6 981/11/6
f 981/11/6 977/11/6 982/11/6
f 978/1/6 979/1/6 984/1/6
f 979/11/6 980/11/6 985/11/6
f 984/1/6 979/1/6 985/1/6
f 985/11/6 980/11/6 986/11/6
f 981/11/6 982/11/6 987/11/6
f 982/1/6 983/1/6 988/1/6
f 987/11/6 982/11/6 988/11/6
f 988/1/6 983/1/6 989/1/6
f 985/11/6 986/11/6 990/11/6
f 987/11/6 988/11/6 991/11/6
f 985/11/6 990/11/6 992/11/6
f 992/11/6 990/11/6 993/11/6
f 991/11/6 988/11/6 994/11/6
f 994/11/6 988/11/6 995/11/6
f 996/6/6 997/6/6 1003/6/6
f 997/7/6 998/7/6 1004/7/6
f 1003/6/6 997/6/6 1004/6/6
f 1004/7/6 998/7/6 1005/7/6
f 999/6/6 1000/6/6 1006/6/6
f 1000/7/6 1001/7/6 1007/7/6
f 1006/6/6 1000/6/6 1007/6/6
f 1001/6/6 1002/6/6 1008/6/6
f 1007/7/6 1001/7/6 1008/7/6
f 1008/6/6 1002/6/6 1009/6/6
f 1010/6/6 1011/6/6 1012/6/6
f 1012/6/6 1011/6/6 1013/6/6
f 1014/6/6 1015/6/6 1024/6/6
f 1024/6/6 1015/6/6 1025/6/6
f 1016/6/6 1017/6/6 1026/6/6
f 1026/6/6 1017/6/6 1027/6/6
f 1018/6/6 1019/6/6 1028/6/6
f 1019/7/6 1020/7/6 1029/7/6
f 1028/6/6 1019/6/6 1029/6/6
f 1020/6/6 1021/6/6 1030/6/6
f 1029/7/6 1020/7/6 1030/7/6
f 1021/7/6 1022/7/6 1031/7/6
f 1030/6/6 1021/6/6 1031/6/6
f 1024/7/6 1025/7/6 1032/7/6
f 1023/7/6 1024/7/6 1032/7/6
f 1032/7/6 1025/7/6 1033/7/6
f 1026/7/6 1027/7/6 1034/7/6
f 1034/7/6 1027/7/6 1035/7/6
f 1028/7/6 1029/7/6 1036/7/6
f 1036/7/6 1029/7/6 1037/7/6
f 1030/7/6 1031/7/6 1038/7/6
f 1031/7/6 1022/7/6 1039/7/6
f 1038/7/6 1031/7/6 1039/7/6
f 1023/7/6 1032/7/6 1040/7/6
f 1040/7/6 1032/7/6 1041/7/6
f 1039/7/6 1022/7/6 1042/7/6
f 1042/7/6 1022/7/6 1043/7/6
f 1044/7/6 1045/7/6 1048/7/6
f 1048/7/6 1045/7/6 1049/7/6
f 1046/7/6 1047/7/6 1050/7/6
f 1050/7/6 1047/7/6 1051/7/6
f 1052/7/6 1053/7/6 1056/7/6
f 1056/7/6 1053/7/6 1057/7/6
f 1054/7/6 1055/7/6 1064/7/6
f 1064/7/6 1055/7/6 1065/7/6
f 1056/6/6 1057/6/6 1066/6/6
f 1057/6/6 1058/6/6 1066/6/6
f 1066/6/6 1058/6/6 1067/6/6
f 1059/6/6 1060/6/6 1068/6/6
f 1068/6/6 1060/6/6 1069/6/6
f 1061/6/6 1062/6/6 1070/6/6
f 1070/6/6 1062/6/6 1071/6/6
f 1064/6/6 1065/6/6 1072/6/6
f 1063/6/6 1064/6/6 1072/6/6
f 1072/6/6 1065/6/6 1073/6/6
f 1074/6/6 1075/6/6 1079/6/6
f 1079/6/6 1075/6/6 1080/6/6
f 1076/6/6 1077/6/6 1081/6/6
f 1077/7/6 1078/7/6 1082/7/6
f 1081/6/6 1077/6/6 1082/6/6
f 1079/7/6 1080/7/6 1086/7/6
f 1086/7/6 1080/7/6 1087/7/6
f 1081/7/6 1082/7/6 1088/7/6
f 1082/7/6 1078/7/6 1089/7/6
f 1088/7/6 1082/7/6 1089/7/6
f 1089/7/6 1078/7/6 1090/7/6
f 1083/6/6 1084/6/6 1091/6/6
f 1091/6/6 1084/6/6 1092/6/6
f 1086/7/6 1087/7/6 1095/7/6
f 1087/7/6 1088/7/6 1095/7/6
f 1085/7/6 1086/7/6 1095/7/6
f 1088/7/6 1089/7/6 1095/7/6
f 1089/6/6 1090/6/6 1096/6/6
f 1095/7/6 1089/7/6 1096/7/6
f 1092/7/6 1093/7/6 1097/7/6
f 1096/6/6 1090/6/6 1097/6/6
f 1091/7/6 1092/7/6 1097/7/6
f 1090/7/6 1091/7/6 1097/7/6
f 1097/7/6 1093/7/6 1098/7/6
f 1094/7/6 1095/7/6 1100/7/6
f 1095/7/6 1096/7/6 1100/7/6
f 1097/7/6 1098/7/6 1100/7/6
f 1096/7/6 1097/7/6 1100/7/6
f 1100/7/6 1098/7/6 1101/7/6
f 1101/7/6 1098/7/6 1102/7/6
f 1102/7/6 1098/7/6 1103/7/6
f 1103/7/6 1098/7/6 1104/7/6
f 1104/7/6 1098/7/6 1105/7/6
f 1098/6/6 1099/6/6 1106/6/6
f 1105/7/6 1098/7/6 1106/7/6
f 1106/6/6 1099/6/6 1107/6/6
f 1101/7/6 1102/7/6 1108/7/6
f 1102/6/6 1103/6/6 1108/6/6
f 1103/7/6 1104/7/6 1109/7/6
f 1108/6/6 1103/6/6 1109/6/6
f 1109/7/6 1104/7/6 1110/7/6
f 1104/6/6 1105/6/6 1111/6/6
f 1110/7/6 1104/7/6 1111/7/6
f 1105/7/6 1106/7/6 1112/7/6
f 1111/6/6 1105/6/6 1112/6/6
f 1109/7/6 1110/7/6 1114/7/6
f 1101/7/6 1108/7/6 1114/7/6
f 1108/7/6 1109/7/6 1114/7/6
f 1114/7/6 1110/7/6 1115/7/6
f 1110/6/6 1111/6/6 1116/6/6
f 1115/7/6 1110/7/6 1116/7/6
f 1111/7/6 1112/7/6 1117/7/6
f 1116/6/6 1111/6/6 1117/6/6
f 1112/7/6 1106/7/6 1118/7/6
f 1117/7/6 1112/7/6 1118/7/6
f 1114/7/6 1115/7/6 1120/7/6
f 1113/7/6 1114/7/6 1120/7/6
f 1120/7/6 1115/7/6 1121/7/6
f 1115/6/6 1116/6/6 1122/6/6
f 1121/7/6 1115/7/6 1122/7/6
f 1116/7/6 1117/7/6 1123/7/6
f 1122/6/6 1116/6/6 1123/6/6
f 1117/7/6 1118/7/6 1123/7/6
f 1123/7/6 1118/7/6 1124/7/6
f 1124/7/6 1118/7/6 1125/7/6
f 1118/6/6 1119/6/6 1126/6/6
f 1125/7/6 1118/7/6 1126/7/6
f 1126/6/6 1119/6/6 1127/6/6
f 1121/7/6 1122/7/6 1128/7/6
f 1122/7/6 1123/7/6 1128/7/6
f 1123/7/6 1124/7/6 1128/7/6
f 1128/7/6 1124/7/6 1129/7/6
f 1129/7/6 1124/7/6 1130/7/6
f 1130/7/6 1124/7/6 1131/7/6
f 1124/6/6 1125/6/6 1132/6/6
f 1131/7/6 1124/7/6 1132/7/6
f 1125/7/6 1126/7/6 1133/7/6
f 1132/6/6 1125/6/6 1133/6/6
f 1133/7/6 1126/7/6 1134/7/6
f 1134/7/6 1126/7/6 1135/7/6
f 1129/6/6 1130/6/6 1136/6/6
f 1136/6/6 1130/6/6 1137/6/6
f 1133/6/6 1134/6/6 1138/6/6
f 1138/6/6 1134/6/6 1139/6/6
f 1131/7/6 1132/7/6 1140/7/6
f 1140/7/6 1132/7/6 1141/7/6
