# MagicaVoxel @ Ephtracy

# group
o 

# material
mtllib PurplePlayer1.mtl
usemtl palette

# normals
vn -1 0 0
vn 1 0 0
vn 0 0 1
vn 0 0 -1
vn 0 -1 0
vn 0 1 0

# texcoords
vt 0.0292969 0.5
vt 0.0371094 0.5
vt 0.236328 0.5
vt 0.814453 0.5
vt 0.849609 0.5
vt 0.853516 0.5
vt 0.857422 0.5
vt 0.873047 0.5
vt 0.986328 0.5
vt 0.994141 0.5

# verts
v -0.7 2.2 0
v -0.7 2.2 -0.1
v -0.7 2.5 0
v -0.7 2.5 -0.1
v -0.6 1.3 0.1
v -0.6 1.3 -0.1
v -0.6 1.5 0.1
v -0.6 1.5 -0.1
v -0.6 1.8 0
v -0.6 1.8 -0.1
v -0.6 1.9 0.1
v -0.6 1.9 0
v -0.6 1.9 -0.1
v -0.6 2 0.3
v -0.6 2 0.2
v -0.6 2.1 0.5
v -0.6 2.1 0.4
v -0.6 2.1 0.3
v -0.6 2.1 0.2
v -0.6 2.1 0.1
v -0.6 2.1 -0.1
v -0.6 2.1 -0.2
v -0.6 2.2 0.5
v -0.6 2.2 0.4
v -0.6 2.2 0.3
v -0.6 2.2 0.1
v -0.6 2.2 0
v -0.6 2.2 -0.1
v -0.6 2.2 -0.2
v -0.6 2.2 -0.3
v -0.6 2.3 -0.1
v -0.6 2.3 -0.2
v -0.6 2.3 -0.3
v -0.6 2.4 -0.3
v -0.6 2.4 -0.4
v -0.6 2.5 0.5
v -0.6 2.5 0.4
v -0.6 2.5 0
v -0.6 2.5 -0.1
v -0.6 2.5 -0.2
v -0.6 2.6 0.5
v -0.6 2.6 0.3
v -0.6 2.6 -0.2
v -0.6 2.6 -0.3
v -0.6 2.7 0.3
v -0.6 2.7 0.2
v -0.6 2.7 0.1
v -0.6 2.7 0
v -0.6 2.7 -0.1
v -0.6 2.7 -0.3
v -0.6 2.7 -0.4
v -0.5 1.9 0.3
v -0.5 1.9 0.1
v -0.5 1.9 0
v -0.5 1.9 -0.1
v -0.5 1.9 -0.3
v -0.5 2 0.5
v -0.5 2 0.3
v -0.5 2 0.2
v -0.5 2 -0.3
v -0.5 2 -0.4
v -0.5 2.1 0.5
v -0.5 2.1 0.4
v -0.5 2.1 0.3
v -0.5 2.1 0.2
v -0.5 2.1 0.1
v -0.5 2.1 -0.1
v -0.5 2.1 -0.2
v -0.5 2.2 0.6
v -0.5 2.2 0.5
v -0.5 2.2 0.4
v -0.5 2.2 0.3
v -0.5 2.2 0.1
v -0.5 2.2 0
v -0.5 2.2 -0.1
v -0.5 2.2 -0.2
v -0.5 2.2 -0.3
v -0.5 2.2 -0.4
v -0.5 2.3 -0.1
v -0.5 2.3 -0.2
v -0.5 2.3 -0.3
v -0.5 2.4 -0.3
v -0.5 2.4 -0.4
v -0.5 2.5 0.5
v -0.5 2.5 -0.2
v -0.5 2.6 0.6
v -0.5 2.6 0.5
v -0.5 2.6 0.4
v -0.5 2.6 0.3
v -0.5 2.6 -0.2
v -0.5 2.6 -0.3
v -0.5 2.6 -0.4
v -0.5 2.6 -0.5
v -0.5 2.7 0.5
v -0.5 2.7 0.4
v -0.5 2.7 0.3
v -0.5 2.7 0.2
v -0.5 2.7 0.1
v -0.5 2.7 0
v -0.5 2.7 -0.1
v -0.5 2.7 -0.3
v -0.5 2.7 -0.4
v -0.5 2.7 -0.5
v -0.5 2.8 0.4
v -0.5 2.8 0.2
v -0.5 2.8 0.1
v -0.5 2.8 -0.1
v -0.5 2.8 -0.2
v -0.5 2.8 -0.3
v -0.5 2.8 -0.4
v -0.5 2.9 0.2
v -0.5 2.9 0.1
v -0.5 2.9 -0.1
v -0.5 2.9 -0.2
v -0.5 2.9 -0.3
v -0.4 1 0.2
v -0.4 1 -0.2
v -0.4 1.2 0.2
v -0.4 1.2 -0.1
v -0.4 1.2 -0.2
v -0.4 1.3 0.2
v -0.4 1.3 0.1
v -0.4 1.3 -0.1
v -0.4 1.4 0.3
v -0.4 1.4 0.2
v -0.4 1.4 -0.1
v -0.4 1.4 -0.2
v -0.4 1.5 0.3
v -0.4 1.5 0.1
v -0.4 1.5 -0.1
v -0.4 1.5 -0.2
v -0.4 1.7 -0.1
v -0.4 1.7 -0.2
v -0.4 1.8 0.3
v -0.4 1.8 0.2
v -0.4 1.8 -0.1
v -0.4 1.8 -0.2
v -0.4 1.9 0.5
v -0.4 1.9 0.3
v -0.4 1.9 0.2
v -0.4 1.9 0.1
v -0.4 1.9 -0.3
v -0.4 1.9 -0.4
v -0.4 2 0.5
v -0.4 2 0.3
v -0.4 2 -0.3
v -0.4 2 -0.4
v -0.4 2.1 0.6
v -0.4 2.1 0.5
v -0.4 2.2 0.6
v -0.4 2.2 0.5
v -0.4 2.5 -0.4
v -0.4 2.5 -0.5
v -0.4 2.6 0.6
v -0.4 2.6 0.5
v -0.4 2.6 -0.4
v -0.4 2.6 -0.5
v -0.4 2.7 0.6
v -0.4 2.7 0.5
v -0.4 2.7 0.4
v -0.4 2.7 -0.4
v -0.4 2.7 -0.5
v -0.4 2.8 0.5
v -0.4 2.8 0.4
v -0.4 2.8 0.2
v -0.4 2.8 -0.4
v -0.4 2.8 -0.5
v -0.4 2.9 0.4
v -0.4 2.9 0.2
v -0.3 1.7 -0.2
v -0.3 1.7 -0.3
v -0.3 1.8 0.3
v -0.3 1.8 0.2
v -0.3 1.8 -0.1
v -0.3 1.8 -0.2
v -0.3 1.8 -0.3
v -0.3 1.9 0.3
v -0.3 1.9 0.2
v -0.3 1.9 -0.1
v -0.3 1.9 -0.2
v -0.3 2.7 0.6
v -0.3 2.7 0.5
v -0.3 2.8 0.6
v -0.3 2.8 0.5
v -0.3 2.8 0.4
v -0.3 2.8 -0.3
v -0.3 2.8 -0.4
v -0.3 2.9 0.5
v -0.3 2.9 0.4
v -0.3 2.9 -0.3
v -0.3 2.9 -0.4
v -0.2 1.6 -0.2
v -0.2 1.6 -0.3
v -0.2 1.7 -0.2
v -0.2 1.7 -0.3
v -0.2 2 0.6
v -0.2 2 0.5
v -0.2 2.1 0.6
v -0.2 2.1 0.5
v -0.1 2.1 -0.4
v -0.1 2.1 -0.5
v -0.1 2.4 -0.4
v -0.1 2.4 -0.5
v 0.1 1 0.2
v 0.1 1 -0.2
v 0.1 1.2 0.2
v 0.1 1.2 -0.1
v 0.1 1.2 -0.2
v 0.1 1.3 0.2
v 0.1 1.3 -0.1
v 0.1 1.4 0.3
v 0.1 1.4 0.2
v 0.1 1.4 -0.1
v 0.1 1.5 0.3
v 0.1 1.5 0.2
v 0.1 2 0.6
v 0.1 2 0.5
v 0.1 2.1 0.6
v 0.1 2.1 0.5
v 0.1 2.5 -0.4
v 0.1 2.5 -0.5
v 0.1 2.6 -0.4
v 0.1 2.6 -0.5
v 0.1 2.7 0.6
v 0.1 2.7 0.5
v 0.1 2.8 0.6
v 0.1 2.8 0.5
v -0.1 1 0.2
v -0.1 1 -0.2
v -0.1 1.2 0.2
v -0.1 1.2 -0.1
v -0.1 1.2 -0.2
v -0.1 1.3 0.2
v -0.1 1.3 -0.1
v -0.1 1.4 0.3
v -0.1 1.4 0.2
v -0.1 1.4 -0.1
v -0.1 1.5 0.3
v -0.1 1.5 0.2
v -0.1 2.5 -0.4
v -0.1 2.5 -0.5
v -0.1 2.6 -0.4
v -0.1 2.6 -0.5
v 0 2 0.6
v 0 2 0.5
v 0 2.1 0.6
v 0 2.1 0.5
v 0 2.7 0.6
v 0 2.7 0.5
v 0 2.8 0.6
v 0 2.8 0.5
v 0.1 2.1 -0.4
v 0.1 2.1 -0.5
v 0.1 2.4 -0.4
v 0.1 2.4 -0.5
v 0.2 1.6 -0.2
v 0.2 1.6 -0.3
v 0.2 1.7 -0.2
v 0.2 1.7 -0.3
v 0.3 1.7 -0.2
v 0.3 1.7 -0.3
v 0.3 1.8 0.3
v 0.3 1.8 0.2
v 0.3 1.8 -0.1
v 0.3 1.8 -0.2
v 0.3 1.8 -0.3
v 0.3 1.9 0.3
v 0.3 1.9 0.2
v 0.3 1.9 -0.1
v 0.3 1.9 -0.2
v 0.3 2 0.6
v 0.3 2 0.5
v 0.3 2.1 0.6
v 0.3 2.1 0.5
v 0.3 2.8 0.5
v 0.3 2.8 0.4
v 0.3 2.8 -0.3
v 0.3 2.8 -0.4
v 0.3 2.9 0.5
v 0.3 2.9 0.4
v 0.3 2.9 -0.3
v 0.3 2.9 -0.4
v 0.4 1 0.2
v 0.4 1 -0.2
v 0.4 1.2 0.2
v 0.4 1.2 -0.1
v 0.4 1.2 -0.2
v 0.4 1.3 0.2
v 0.4 1.3 0.1
v 0.4 1.3 -0.1
v 0.4 1.4 0.3
v 0.4 1.4 0.2
v 0.4 1.4 -0.1
v 0.4 1.4 -0.2
v 0.4 1.5 0.3
v 0.4 1.5 0.2
v 0.4 1.5 0.1
v 0.4 1.5 -0.1
v 0.4 1.5 -0.2
v 0.4 1.6 0.3
v 0.4 1.6 0.2
v 0.4 1.6 -0.1
v 0.4 1.8 0.3
v 0.4 1.8 0.2
v 0.4 1.8 -0.1
v 0.4 1.8 -0.2
v 0.4 1.9 0.5
v 0.4 1.9 0.3
v 0.4 1.9 0.2
v 0.4 1.9 0.1
v 0.4 1.9 -0.3
v 0.4 1.9 -0.4
v 0.4 2 0.5
v 0.4 2 0.3
v 0.4 2 -0.3
v 0.4 2 -0.4
v 0.4 2.1 0.6
v 0.4 2.1 0.5
v 0.4 2.2 0.6
v 0.4 2.2 0.5
v 0.4 2.5 -0.4
v 0.4 2.5 -0.5
v 0.4 2.6 -0.4
v 0.4 2.6 -0.5
v 0.4 2.7 0.6
v 0.4 2.7 0.5
v 0.4 2.7 -0.4
v 0.4 2.7 -0.5
v 0.4 2.8 0.6
v 0.4 2.8 0.5
v 0.4 2.8 0.4
v 0.4 2.8 0.3
v 0.4 2.8 -0.2
v 0.4 2.8 -0.3
v 0.4 2.8 -0.4
v 0.4 2.8 -0.5
v 0.4 2.9 0.4
v 0.4 2.9 0.3
v 0.4 2.9 -0.2
v 0.4 2.9 -0.3
v 0.5 1.9 0.3
v 0.5 1.9 0.1
v 0.5 1.9 0
v 0.5 1.9 -0.1
v 0.5 1.9 -0.3
v 0.5 2 0.5
v 0.5 2 0.3
v 0.5 2 0.2
v 0.5 2 0.1
v 0.5 2 -0.3
v 0.5 2 -0.4
v 0.5 2.1 0.5
v 0.5 2.1 0.4
v 0.5 2.1 0.2
v 0.5 2.1 0.1
v 0.5 2.1 0
v 0.5 2.2 0.6
v 0.5 2.2 0.5
v 0.5 2.2 0.4
v 0.5 2.2 0.3
v 0.5 2.2 0.2
v 0.5 2.2 0.1
v 0.5 2.2 0
v 0.5 2.2 -0.1
v 0.5 2.2 -0.3
v 0.5 2.2 -0.4
v 0.5 2.3 0.3
v 0.5 2.3 0.2
v 0.5 2.3 0.1
v 0.5 2.3 0
v 0.5 2.4 -0.2
v 0.5 2.4 -0.3
v 0.5 2.4 -0.4
v 0.5 2.5 -0.1
v 0.5 2.5 -0.2
v 0.5 2.5 -0.3
v 0.5 2.6 0.6
v 0.5 2.6 0.5
v 0.5 2.6 0.4
v 0.5 2.6 0.3
v 0.5 2.6 -0.3
v 0.5 2.6 -0.4
v 0.5 2.6 -0.5
v 0.5 2.7 0.6
v 0.5 2.7 0.5
v 0.5 2.7 0.4
v 0.5 2.7 0.3
v 0.5 2.7 0.2
v 0.5 2.7 0.1
v 0.5 2.7 0
v 0.5 2.7 -0.1
v 0.5 2.7 -0.2
v 0.5 2.7 -0.3
v 0.5 2.7 -0.4
v 0.5 2.7 -0.5
v 0.5 2.8 0.5
v 0.5 2.8 0.3
v 0.5 2.8 -0.2
v 0.5 2.8 -0.3
v 0.5 2.8 -0.4
v 0.5 2.9 0.3
v 0.5 2.9 -0.2
v 0.6 1.3 0.1
v 0.6 1.3 -0.1
v 0.6 1.5 0.1
v 0.6 1.5 -0.1
v 0.6 1.8 0
v 0.6 1.8 -0.1
v 0.6 1.9 0.1
v 0.6 1.9 0
v 0.6 1.9 -0.1
v 0.6 2 0.2
v 0.6 2 0.1
v 0.6 2.1 0.5
v 0.6 2.1 0.4
v 0.6 2.1 0.2
v 0.6 2.1 0.1
v 0.6 2.1 0
v 0.6 2.2 0.5
v 0.6 2.2 0.4
v 0.6 2.2 0.3
v 0.6 2.2 0.2
v 0.6 2.2 0.1
v 0.6 2.2 0
v 0.6 2.2 -0.3
v 0.6 2.2 -0.4
v 0.6 2.3 0.3
v 0.6 2.3 0.2
v 0.6 2.3 0.1
v 0.6 2.3 0
v 0.6 2.4 -0.2
v 0.6 2.4 -0.3
v 0.6 2.4 -0.4
v 0.6 2.5 0
v 0.6 2.5 -0.1
v 0.6 2.5 -0.2
v 0.6 2.5 -0.3
v 0.6 2.6 0.5
v 0.6 2.6 0.4
v 0.6 2.6 0.3
v 0.6 2.6 -0.3
v 0.6 2.6 -0.4
v 0.6 2.7 0.3
v 0.6 2.7 0.2
v 0.6 2.7 0.1
v 0.6 2.7 0
v 0.6 2.7 -0.1
v 0.6 2.7 -0.2
v 0.6 2.7 -0.4
v 0.7 2.2 0
v 0.7 2.2 -0.1
v 0.7 2.5 0
v 0.7 2.5 -0.1
v -0.5 2.2 0.6
v -0.5 2.6 0.6
v -0.4 2.1 0.6
v -0.4 2.2 0.6
v -0.4 2.6 0.6
v -0.4 2.7 0.6
v -0.3 2.1 0.6
v -0.3 2.2 0.6
v -0.3 2.4 0.6
v -0.3 2.6 0.6
v -0.3 2.7 0.6
v -0.3 2.8 0.6
v -0.2 2 0.6
v -0.2 2.1 0.6
v -0.2 2.4 0.6
v -0.2 2.8 0.6
v -0.1 2 0.6
v -0.1 2.1 0.6
v -0.1 2.4 0.6
v -0.1 2.5 0.6
v -0.1 2.7 0.6
v -0.1 2.8 0.6
v 0 2 0.6
v 0 2.1 0.6
v 0 2.5 0.6
v 0 2.7 0.6
v 0 2.8 0.6
v 0.1 2 0.6
v 0.1 2.1 0.6
v 0.1 2.4 0.6
v 0.1 2.7 0.6
v 0.1 2.8 0.6
v 0.2 2 0.6
v 0.2 2.1 0.6
v 0.2 2.2 0.6
v 0.2 2.3 0.6
v 0.2 2.4 0.6
v 0.2 2.5 0.6
v 0.2 2.6 0.6
v 0.2 2.8 0.6
v 0.3 2 0.6
v 0.3 2.1 0.6
v 0.3 2.2 0.6
v 0.3 2.3 0.6
v 0.3 2.5 0.6
v 0.3 2.6 0.6
v 0.3 2.8 0.6
v 0.4 2.1 0.6
v 0.4 2.2 0.6
v 0.4 2.5 0.6
v 0.4 2.7 0.6
v 0.4 2.8 0.6
v 0.5 2.2 0.6
v 0.5 2.6 0.6
v 0.5 2.7 0.6
v -0.6 2.1 0.5
v -0.6 2.2 0.5
v -0.6 2.5 0.5
v -0.6 2.6 0.5
v -0.5 2 0.5
v -0.5 2.1 0.5
v -0.5 2.2 0.5
v -0.5 2.5 0.5
v -0.5 2.6 0.5
v -0.5 2.7 0.5
v -0.4 1.9 0.5
v -0.4 2 0.5
v -0.4 2.1 0.5
v -0.4 2.2 0.5
v -0.4 2.6 0.5
v -0.4 2.7 0.5
v -0.4 2.8 0.5
v -0.3 2.1 0.5
v -0.3 2.7 0.5
v -0.3 2.8 0.5
v -0.3 2.9 0.5
v -0.2 2 0.5
v -0.2 2.1 0.5
v -0.2 2.8 0.5
v -0.2 2.9 0.5
v -0.1 2 0.5
v -0.1 2.8 0.5
v -0.1 2.9 0.5
v 0 2 0.5
v 0 2.1 0.5
v 0 2.7 0.5
v 0 2.8 0.5
v 0 2.9 0.5
v 0.1 2 0.5
v 0.1 2.1 0.5
v 0.1 2.7 0.5
v 0.1 2.8 0.5
v 0.2 2 0.5
v 0.2 2.8 0.5
v 0.3 2 0.5
v 0.3 2.1 0.5
v 0.3 2.8 0.5
v 0.3 2.9 0.5
v 0.4 1.9 0.5
v 0.4 2 0.5
v 0.4 2.1 0.5
v 0.4 2.2 0.5
v 0.4 2.7 0.5
v 0.4 2.8 0.5
v 0.5 2 0.5
v 0.5 2.1 0.5
v 0.5 2.2 0.5
v 0.5 2.6 0.5
v 0.5 2.7 0.5
v 0.5 2.8 0.5
v 0.6 2.1 0.5
v 0.6 2.2 0.5
v 0.6 2.6 0.5
v -0.5 2.7 0.4
v -0.5 2.8 0.4
v -0.4 2.7 0.4
v -0.4 2.8 0.4
v -0.4 2.9 0.4
v -0.3 2.8 0.4
v -0.3 2.9 0.4
v 0.3 2.8 0.4
v 0.3 2.9 0.4
v 0.4 2.8 0.4
v 0.4 2.9 0.4
v -0.6 2 0.3
v -0.6 2.1 0.3
v -0.6 2.2 0.3
v -0.6 2.6 0.3
v -0.6 2.7 0.3
v -0.5 1.9 0.3
v -0.5 2 0.3
v -0.5 2.1 0.3
v -0.5 2.2 0.3
v -0.5 2.6 0.3
v -0.5 2.7 0.3
v -0.4 1.4 0.3
v -0.4 1.5 0.3
v -0.4 1.8 0.3
v -0.4 1.9 0.3
v -0.4 2 0.3
v -0.3 1.8 0.3
v -0.3 1.9 0.3
v -0.2 1.8 0.3
v -0.2 1.9 0.3
v -0.1 1.4 0.3
v -0.1 1.5 0.3
v 0.1 1.4 0.3
v 0.1 1.5 0.3
v 0.3 1.5 0.3
v 0.3 1.6 0.3
v 0.3 1.8 0.3
v 0.3 1.9 0.3
v 0.4 1.4 0.3
v 0.4 1.5 0.3
v 0.4 1.6 0.3
v 0.4 1.8 0.3
v 0.4 1.9 0.3
v 0.4 2 0.3
v 0.4 2.8 0.3
v 0.4 2.9 0.3
v 0.5 1.9 0.3
v 0.5 2 0.3
v 0.5 2.6 0.3
v 0.5 2.7 0.3
v 0.5 2.8 0.3
v 0.5 2.9 0.3
v 0.6 2.6 0.3
v 0.6 2.7 0.3
v -0.5 2.8 0.2
v -0.5 2.9 0.2
v -0.4 1 0.2
v -0.4 1.2 0.2
v -0.4 1.3 0.2
v -0.4 1.4 0.2
v -0.4 1.8 0.2
v -0.4 1.9 0.2
v -0.4 2.8 0.2
v -0.4 2.9 0.2
v -0.3 1.8 0.2
v -0.3 1.9 0.2
v -0.1 1 0.2
v -0.1 1.2 0.2
v -0.1 1.3 0.2
v -0.1 1.4 0.2
v -0.1 1.5 0.2
v 0.1 1 0.2
v 0.1 1.2 0.2
v 0.1 1.3 0.2
v 0.1 1.4 0.2
v 0.1 1.5 0.2
v 0.3 1.8 0.2
v 0.3 1.9 0.2
v 0.4 1 0.2
v 0.4 1.2 0.2
v 0.4 1.3 0.2
v 0.4 1.4 0.2
v 0.4 1.8 0.2
v 0.4 1.9 0.2
v 0.5 2 0.2
v 0.5 2.1 0.2
v 0.5 2.2 0.2
v 0.5 2.3 0.2
v 0.6 2 0.2
v 0.6 2.1 0.2
v 0.6 2.2 0.2
v 0.6 2.3 0.2
v -0.6 1.3 0.1
v -0.6 1.5 0.1
v -0.6 1.9 0.1
v -0.5 1.9 0.1
v -0.4 1.3 0.1
v -0.4 1.5 0.1
v -0.4 1.9 0.1
v 0.4 1.3 0.1
v 0.4 1.5 0.1
v 0.4 1.9 0.1
v 0.5 1.9 0.1
v 0.5 2.1 0.1
v 0.5 2.2 0.1
v 0.6 1.3 0.1
v 0.6 1.5 0.1
v 0.6 1.9 0.1
v 0.6 2.1 0.1
v 0.6 2.2 0.1
v -0.7 2.2 0
v -0.7 2.5 0
v -0.6 2.2 0
v -0.6 2.5 0
v 0.5 2.2 0
v 0.5 2.3 0
v 0.6 2.2 0
v 0.6 2.3 0
v 0.6 2.5 0
v 0.7 2.2 0
v 0.7 2.5 0
v -0.6 2.1 -0.1
v -0.6 2.2 -0.1
v -0.5 2.1 -0.1
v -0.5 2.2 -0.1
v -0.6 2.2 -0.2
v -0.6 2.3 -0.2
v -0.5 2.2 -0.2
v -0.5 2.3 -0.2
v 0.5 2.4 -0.2
v 0.5 2.5 -0.2
v 0.6 2.4 -0.2
v 0.6 2.5 -0.2
v -0.6 2.4 -0.3
v -0.6 2.6 -0.3
v -0.5 2.4 -0.3
v -0.5 2.6 -0.3
v 0.5 2.2 -0.3
v 0.5 2.4 -0.3
v 0.6 2.2 -0.3
v 0.6 2.4 -0.3
v -0.6 2.1 0.4
v -0.6 2.2 0.4
v -0.5 2.1 0.4
v -0.5 2.2 0.4
v 0.5 2.1 0.4
v 0.5 2.2 0.4
v 0.6 2.1 0.4
v 0.6 2.2 0.4
v 0.5 2.2 0.3
v 0.5 2.3 0.3
v 0.6 2.2 0.3
v 0.6 2.3 0.3
v -0.6 2 0.2
v -0.6 2.1 0.2
v -0.5 2 0.2
v -0.5 2.1 0.2
v -0.6 2.1 0.1
v -0.6 2.2 0.1
v -0.5 2.1 0.1
v -0.5 2.2 0.1
v 0.5 2 0.1
v 0.5 2.1 0.1
v 0.5 2.2 0.1
v 0.5 2.3 0.1
v 0.6 2 0.1
v 0.6 2.1 0.1
v 0.6 2.2 0.1
v 0.6 2.3 0.1
v 0.5 2.1 0
v 0.5 2.2 0
v 0.6 2.1 0
v 0.6 2.2 0
v -0.7 2.2 -0.1
v -0.7 2.5 -0.1
v -0.6 1.3 -0.1
v -0.6 1.5 -0.1
v -0.6 1.8 -0.1
v -0.6 1.9 -0.1
v -0.6 2.2 -0.1
v -0.6 2.3 -0.1
v -0.6 2.5 -0.1
v -0.5 1.8 -0.1
v -0.5 1.9 -0.1
v -0.5 2.2 -0.1
v -0.5 2.3 -0.1
v -0.4 1.2 -0.1
v -0.4 1.3 -0.1
v -0.4 1.4 -0.1
v -0.4 1.5 -0.1
v -0.4 1.7 -0.1
v -0.4 1.8 -0.1
v -0.3 1.8 -0.1
v -0.3 1.9 -0.1
v -0.1 1.2 -0.1
v -0.1 1.3 -0.1
v -0.1 1.4 -0.1
v 0.1 1.2 -0.1
v 0.1 1.3 -0.1
v 0.1 1.4 -0.1
v 0.3 1.8 -0.1
v 0.3 1.9 -0.1
v 0.4 1.2 -0.1
v 0.4 1.3 -0.1
v 0.4 1.4 -0.1
v 0.4 1.5 -0.1
v 0.4 1.6 -0.1
v 0.4 1.8 -0.1
v 0.5 1.5 -0.1
v 0.5 1.6 -0.1
v 0.5 1.8 -0.1
v 0.5 1.9 -0.1
v 0.5 2.2 -0.1
v 0.5 2.5 -0.1
v 0.6 1.3 -0.1
v 0.6 1.5 -0.1
v 0.6 1.8 -0.1
v 0.6 1.9 -0.1
v 0.6 2.5 -0.1
v 0.7 2.2 -0.1
v 0.7 2.5 -0.1
v -0.6 2.1 -0.2
v -0.6 2.2 -0.2
v -0.6 2.3 -0.2
v -0.6 2.5 -0.2
v -0.6 2.6 -0.2
v -0.5 2.1 -0.2
v -0.5 2.2 -0.2
v -0.5 2.3 -0.2
v -0.5 2.5 -0.2
v -0.5 2.6 -0.2
v -0.4 1 -0.2
v -0.4 1.2 -0.2
v -0.4 1.4 -0.2
v -0.4 1.5 -0.2
v -0.4 1.7 -0.2
v -0.4 1.8 -0.2
v -0.3 1.7 -0.2
v -0.3 1.8 -0.2
v -0.3 1.9 -0.2
v -0.2 1.6 -0.2
v -0.2 1.7 -0.2
v -0.2 1.8 -0.2
v -0.2 1.9 -0.2
v -0.1 1 -0.2
v -0.1 1.2 -0.2
v 0.1 1 -0.2
v 0.1 1.2 -0.2
v 0.2 1.6 -0.2
v 0.2 1.7 -0.2
v 0.2 1.8 -0.2
v 0.2 1.9 -0.2
v 0.3 1.7 -0.2
v 0.3 1.8 -0.2
v 0.3 1.9 -0.2
v 0.4 1 -0.2
v 0.4 1.2 -0.2
v 0.4 1.4 -0.2
v 0.4 1.5 -0.2
v 0.4 1.8 -0.2
v 0.4 2.8 -0.2
v 0.4 2.9 -0.2
v 0.5 2.8 -0.2
v 0.5 2.9 -0.2
v -0.6 2.2 -0.3
v -0.6 2.3 -0.3
v -0.5 1.9 -0.3
v -0.5 2 -0.3
v -0.5 2.2 -0.3
v -0.5 2.3 -0.3
v -0.5 2.8 -0.3
v -0.5 2.9 -0.3
v -0.4 1.9 -0.3
v -0.4 2 -0.3
v -0.4 2.8 -0.3
v -0.4 2.9 -0.3
v -0.3 1.7 -0.3
v -0.3 1.8 -0.3
v -0.3 2.8 -0.3
v -0.3 2.9 -0.3
v -0.2 1.6 -0.3
v -0.2 1.7 -0.3
v 0.2 1.6 -0.3
v 0.2 1.7 -0.3
v 0.2 1.8 -0.3
v 0.3 1.7 -0.3
v 0.3 1.8 -0.3
v 0.3 2.8 -0.3
v 0.3 2.9 -0.3
v 0.4 1.9 -0.3
v 0.4 2 -0.3
v 0.4 2.8 -0.3
v 0.4 2.9 -0.3
v 0.5 1.9 -0.3
v 0.5 2 -0.3
v 0.5 2.4 -0.3
v 0.5 2.5 -0.3
v 0.5 2.6 -0.3
v 0.6 2.4 -0.3
v 0.6 2.5 -0.3
v 0.6 2.6 -0.3
v -0.6 2.4 -0.4
v -0.6 2.7 -0.4
v -0.5 2 -0.4
v -0.5 2.2 -0.4
v -0.5 2.4 -0.4
v -0.5 2.6 -0.4
v -0.5 2.7 -0.4
v -0.5 2.8 -0.4
v -0.4 1.9 -0.4
v -0.4 2 -0.4
v -0.4 2.2 -0.4
v -0.4 2.3 -0.4
v -0.4 2.5 -0.4
v -0.4 2.6 -0.4
v -0.4 2.7 -0.4
v -0.4 2.8 -0.4
v -0.3 2 -0.4
v -0.3 2.2 -0.4
v -0.3 2.3 -0.4
v -0.3 2.5 -0.4
v -0.3 2.8 -0.4
v -0.3 2.9 -0.4
v -0.2 2.2 -0.4
v -0.2 2.5 -0.4
v -0.1 2.1 -0.4
v -0.1 2.4 -0.4
v -0.1 2.5 -0.4
v -0.1 2.6 -0.4
v -0.1 2.8 -0.4
v -0.1 2.9 -0.4
v 0 2.8 -0.4
v 0 2.9 -0.4
v 0.1 2.1 -0.4
v 0.1 2.4 -0.4
v 0.1 2.5 -0.4
v 0.1 2.6 -0.4
v 0.1 2.8 -0.4
v 0.2 2.2 -0.4
v 0.2 2.5 -0.4
v 0.2 2.8 -0.4
v 0.3 2 -0.4
v 0.3 2.2 -0.4
v 0.3 2.3 -0.4
v 0.3 2.5 -0.4
v 0.3 2.8 -0.4
v 0.3 2.9 -0.4
v 0.4 1.9 -0.4
v 0.4 2 -0.4
v 0.4 2.2 -0.4
v 0.4 2.3 -0.4
v 0.4 2.5 -0.4
v 0.4 2.6 -0.4
v 0.4 2.7 -0.4
v 0.4 2.8 -0.4
v 0.5 2 -0.4
v 0.5 2.2 -0.4
v 0.5 2.4 -0.4
v 0.5 2.6 -0.4
v 0.5 2.7 -0.4
v 0.5 2.8 -0.4
v 0.6 2.2 -0.4
v 0.6 2.4 -0.4
v 0.6 2.6 -0.4
v 0.6 2.7 -0.4
v -0.5 2.6 -0.5
v -0.5 2.7 -0.5
v -0.4 2.5 -0.5
v -0.4 2.6 -0.5
v -0.4 2.7 -0.5
v -0.4 2.8 -0.5
v -0.3 2.5 -0.5
v -0.3 2.7 -0.5
v -0.3 2.8 -0.5
v -0.2 2.6 -0.5
v -0.2 2.7 -0.5
v -0.1 2.1 -0.5
v -0.1 2.4 -0.5
v -0.1 2.5 -0.5
v -0.1 2.6 -0.5
v -0.1 2.8 -0.5
v 0.1 2.1 -0.5
v 0.1 2.4 -0.5
v 0.1 2.5 -0.5
v 0.1 2.6 -0.5
v 0.1 2.8 -0.5
v 0.2 2.5 -0.5
v 0.2 2.8 -0.5
v 0.3 2.5 -0.5
v 0.3 2.7 -0.5
v 0.4 2.5 -0.5
v 0.4 2.6 -0.5
v 0.4 2.7 -0.5
v 0.4 2.8 -0.5
v 0.5 2.6 -0.5
v 0.5 2.7 -0.5
v -0.4 1 0.2
v -0.1 1 0.2
v 0.1 1 0.2
v 0.4 1 0.2
v -0.4 1 -0.2
v -0.1 1 -0.2
v 0.1 1 -0.2
v 0.4 1 -0.2
v -0.6 1.3 0.1
v -0.4 1.3 0.1
v 0.4 1.3 0.1
v 0.6 1.3 0.1
v -0.6 1.3 -0.1
v -0.4 1.3 -0.1
v 0.4 1.3 -0.1
v 0.6 1.3 -0.1
v -0.4 1.4 0.3
v -0.1 1.4 0.3
v 0.1 1.4 0.3
v 0.4 1.4 0.3
v -0.4 1.4 0.2
v -0.1 1.4 0.2
v 0.1 1.4 0.2
v 0.4 1.4 0.2
v -0.4 1.4 -0.1
v -0.1 1.4 -0.1
v 0.1 1.4 -0.1
v 0.4 1.4 -0.1
v -0.4 1.4 -0.2
v 0.4 1.4 -0.2
v -0.1 1.5 0.3
v 0.1 1.5 0.3
v -0.1 1.5 0.2
v 0.1 1.5 0.2
v -0.2 1.6 -0.2
v 0.2 1.6 -0.2
v -0.2 1.6 -0.3
v 0.2 1.6 -0.3
v -0.3 1.7 -0.2
v -0.2 1.7 -0.2
v 0.2 1.7 -0.2
v 0.3 1.7 -0.2
v -0.3 1.7 -0.3
v -0.2 1.7 -0.3
v 0.2 1.7 -0.3
v 0.3 1.7 -0.3
v -0.4 1.9 0.5
v 0.4 1.9 0.5
v -0.5 1.9 0.3
v -0.4 1.9 0.3
v -0.3 1.9 0.3
v -0.2 1.9 0.3
v 0.3 1.9 0.3
v 0.4 1.9 0.3
v 0.5 1.9 0.3
v -0.4 1.9 0.2
v -0.3 1.9 0.2
v 0.3 1.9 0.2
v 0.4 1.9 0.2
v -0.5 1.9 0.1
v -0.4 1.9 0.1
v 0.4 1.9 0.1
v 0.5 1.9 0.1
v -0.5 1.9 -0.1
v -0.3 1.9 -0.1
v 0.3 1.9 -0.1
v 0.5 1.9 -0.1
v -0.3 1.9 -0.2
v -0.2 1.9 -0.2
v 0.2 1.9 -0.2
v 0.3 1.9 -0.2
v -0.5 1.9 -0.3
v -0.4 1.9 -0.3
v 0.4 1.9 -0.3
v 0.5 1.9 -0.3
v -0.4 1.9 -0.4
v 0.4 1.9 -0.4
v -0.2 2 0.6
v -0.1 2 0.6
v 0 2 0.6
v 0.1 2 0.6
v 0.2 2 0.6
v 0.3 2 0.6
v -0.5 2 0.5
v -0.4 2 0.5
v -0.2 2 0.5
v -0.1 2 0.5
v 0 2 0.5
v 0.1 2 0.5
v 0.2 2 0.5
v 0.3 2 0.5
v 0.4 2 0.5
v 0.5 2 0.5
v -0.6 2 0.3
v -0.5 2 0.3
v -0.4 2 0.3
v 0.4 2 0.3
v 0.5 2 0.3
v -0.6 2 0.2
v -0.5 2 0.2
v 0.5 2 0.2
v 0.6 2 0.2
v 0.5 2 0.1
v 0.6 2 0.1
v -0.5 2 -0.3
v -0.4 2 -0.3
v 0.4 2 -0.3
v 0.5 2 -0.3
v -0.5 2 -0.4
v -0.4 2 -0.4
v 0.4 2 -0.4
v 0.5 2 -0.4
v -0.4 2.1 0.6
v -0.3 2.1 0.6
v -0.2 2.1 0.6
v 0 2.1 0.6
v 0.1 2.1 0.6
v 0.3 2.1 0.6
v 0.4 2.1 0.6
v -0.6 2.1 0.5
v -0.5 2.1 0.5
v -0.4 2.1 0.5
v -0.3 2.1 0.5
v -0.2 2.1 0.5
v 0 2.1 0.5
v 0.1 2.1 0.5
v 0.3 2.1 0.5
v 0.4 2.1 0.5
v 0.5 2.1 0.5
v 0.6 2.1 0.5
v -0.6 2.1 0.4
v -0.5 2.1 0.4
v 0.5 2.1 0.4
v 0.6 2.1 0.4
v -0.6 2.1 0.2
v -0.5 2.1 0.2
v -0.6 2.1 0.1
v -0.5 2.1 0.1
v 0.5 2.1 0.1
v 0.6 2.1 0.1
v 0.5 2.1 0
v 0.6 2.1 0
v -0.6 2.1 -0.1
v -0.5 2.1 -0.1
v -0.6 2.1 -0.2
v -0.5 2.1 -0.2
v -0.1 2.1 -0.4
v 0.1 2.1 -0.4
v -0.1 2.1 -0.5
v 0.1 2.1 -0.5
v -0.5 2.2 0.6
v -0.4 2.2 0.6
v 0.4 2.2 0.6
v 0.5 2.2 0.6
v -0.5 2.2 0.5
v -0.4 2.2 0.5
v 0.4 2.2 0.5
v 0.5 2.2 0.5
v -0.6 2.2 0.4
v -0.5 2.2 0.4
v 0.5 2.2 0.4
v 0.6 2.2 0.4
v -0.6 2.2 0.3
v -0.5 2.2 0.3
v 0.5 2.2 0.3
v 0.6 2.2 0.3
v 0.5 2.2 0.2
v 0.6 2.2 0.2
v -0.6 2.2 0.1
v -0.5 2.2 0.1
v 0.5 2.2 0.1
v 0.6 2.2 0.1
v -0.7 2.2 0
v -0.6 2.2 0
v -0.5 2.2 0
v 0.5 2.2 0
v 0.6 2.2 0
v 0.7 2.2 0
v -0.7 2.2 -0.1
v -0.6 2.2 -0.1
v -0.5 2.2 -0.1
v 0.5 2.2 -0.1
v 0.7 2.2 -0.1
v -0.6 2.2 -0.2
v -0.5 2.2 -0.2
v -0.6 2.2 -0.3
v -0.5 2.2 -0.3
v 0.5 2.2 -0.3
v 0.6 2.2 -0.3
v 0.5 2.2 -0.4
v 0.6 2.2 -0.4
v 0.5 2.3 0.3
v 0.6 2.3 0.3
v 0.5 2.3 0.2
v 0.6 2.3 0.2
v 0.5 2.3 0.1
v 0.6 2.3 0.1
v 0.5 2.3 0
v 0.6 2.3 0
v -0.6 2.3 -0.1
v -0.5 2.3 -0.1
v -0.6 2.3 -0.2
v -0.5 2.3 -0.2
v 0.5 2.4 -0.2
v 0.6 2.4 -0.2
v -0.6 2.4 -0.3
v -0.5 2.4 -0.3
v 0.5 2.4 -0.3
v 0.6 2.4 -0.3
v -0.6 2.4 -0.4
v -0.5 2.4 -0.4
v 0.5 2.5 -0.1
v 0.6 2.5 -0.1
v 0.5 2.5 -0.2
v 0.6 2.5 -0.2
v -0.4 2.5 -0.4
v -0.3 2.5 -0.4
v -0.2 2.5 -0.4
v -0.1 2.5 -0.4
v 0.1 2.5 -0.4
v 0.2 2.5 -0.4
v 0.3 2.5 -0.4
v 0.4 2.5 -0.4
v -0.4 2.5 -0.5
v -0.3 2.5 -0.5
v -0.1 2.5 -0.5
v 0.1 2.5 -0.5
v 0.2 2.5 -0.5
v 0.3 2.5 -0.5
v 0.4 2.5 -0.5
v -0.6 2.6 -0.2
v -0.5 2.6 -0.2
v -0.6 2.6 -0.3
v -0.5 2.6 -0.3
v 0.5 2.6 -0.3
v 0.6 2.6 -0.3
v -0.5 2.6 -0.4
v -0.4 2.6 -0.4
v -0.1 2.6 -0.4
v 0.1 2.6 -0.4
v 0.4 2.6 -0.4
v 0.5 2.6 -0.4
v 0.6 2.6 -0.4
v -0.5 2.6 -0.5
v -0.4 2.6 -0.5
v -0.1 2.6 -0.5
v 0.1 2.6 -0.5
v 0.4 2.6 -0.5
v 0.5 2.6 -0.5
v -0.4 1.2 -0.1
v -0.1 1.2 -0.1
v 0.1 1.2 -0.1
v 0.4 1.2 -0.1
v -0.4 1.2 -0.2
v -0.1 1.2 -0.2
v 0.1 1.2 -0.2
v 0.4 1.2 -0.2
v -0.4 1.8 0.3
v -0.3 1.8 0.3
v 0.3 1.8 0.3
v 0.4 1.8 0.3
v -0.4 1.8 0.2
v -0.3 1.8 0.2
v 0.3 1.8 0.2
v 0.4 1.8 0.2
v -0.4 1.8 -0.1
v -0.3 1.8 -0.1
v 0.3 1.8 -0.1
v 0.4 1.8 -0.1
v -0.4 1.8 -0.2
v -0.3 1.8 -0.2
v -0.2 1.8 -0.2
v 0.2 1.8 -0.2
v 0.3 1.8 -0.2
v 0.4 1.8 -0.2
v -0.3 1.8 -0.3
v 0.2 1.8 -0.3
v 0.3 1.8 -0.3
v -0.6 1.9 0.1
v -0.5 1.9 0.1
v 0.5 1.9 0.1
v 0.6 1.9 0.1
v -0.6 1.9 0
v -0.5 1.9 0
v 0.5 1.9 0
v 0.6 1.9 0
v -0.6 1.9 -0.1
v -0.5 1.9 -0.1
v 0.5 1.9 -0.1
v 0.6 1.9 -0.1
v 0.5 2.1 0.2
v 0.6 2.1 0.2
v 0.5 2.1 0.1
v 0.6 2.1 0.1
v 0.5 2.2 0.1
v 0.6 2.2 0.1
v 0.5 2.2 0
v 0.6 2.2 0
v -0.6 2.2 -0.1
v -0.5 2.2 -0.1
v -0.6 2.2 -0.2
v -0.5 2.2 -0.2
v -0.6 2.3 -0.2
v -0.5 2.3 -0.2
v -0.6 2.3 -0.3
v -0.5 2.3 -0.3
v 0.5 2.4 -0.3
v 0.6 2.4 -0.3
v -0.1 2.4 -0.4
v 0.1 2.4 -0.4
v 0.5 2.4 -0.4
v 0.6 2.4 -0.4
v -0.1 2.4 -0.5
v 0.1 2.4 -0.5
v -0.7 2.5 0
v -0.6 2.5 0
v 0.6 2.5 0
v 0.7 2.5 0
v -0.7 2.5 -0.1
v -0.6 2.5 -0.1
v 0.6 2.5 -0.1
v 0.7 2.5 -0.1
v -0.5 2.6 0.6
v -0.4 2.6 0.6
v -0.6 2.6 0.5
v -0.5 2.6 0.5
v -0.4 2.6 0.5
v 0.5 2.6 0.5
v 0.6 2.6 0.5
v -0.5 2.6 0.4
v 0.5 2.6 0.4
v 0.6 2.6 0.4
v -0.6 2.6 0.3
v -0.5 2.6 0.3
v 0.5 2.6 0.3
v 0.6 2.6 0.3
v -0.4 2.7 0.6
v -0.3 2.7 0.6
v 0 2.7 0.6
v 0.1 2.7 0.6
v 0.4 2.7 0.6
v 0.5 2.7 0.6
v -0.5 2.7 0.5
v -0.4 2.7 0.5
v -0.3 2.7 0.5
v 0 2.7 0.5
v 0.1 2.7 0.5
v 0.4 2.7 0.5
v 0.5 2.7 0.5
v -0.5 2.7 0.4
v -0.4 2.7 0.4
v -0.6 2.7 0.3
v -0.5 2.7 0.3
v 0.5 2.7 0.3
v 0.6 2.7 0.3
v -0.6 2.7 0.2
v -0.5 2.7 0.2
v 0.5 2.7 0.2
v 0.6 2.7 0.2
v -0.6 2.7 0.1
v -0.5 2.7 0.1
v 0.5 2.7 0.1
v 0.6 2.7 0.1
v -0.6 2.7 0
v -0.5 2.7 0
v 0.5 2.7 0
v 0.6 2.7 0
v -0.6 2.7 -0.1
v -0.5 2.7 -0.1
v 0.5 2.7 -0.1
v 0.6 2.7 -0.1
v 0.5 2.7 -0.2
v 0.6 2.7 -0.2
v -0.6 2.7 -0.3
v -0.5 2.7 -0.3
v 0.5 2.7 -0.3
v -0.6 2.7 -0.4
v -0.5 2.7 -0.4
v -0.4 2.7 -0.4
v 0.4 2.7 -0.4
v 0.5 2.7 -0.4
v 0.6 2.7 -0.4
v -0.5 2.7 -0.5
v -0.4 2.7 -0.5
v 0.4 2.7 -0.5
v 0.5 2.7 -0.5
v -0.3 2.8 0.6
v -0.2 2.8 0.6
v -0.1 2.8 0.6
v 0 2.8 0.6
v 0.1 2.8 0.6
v 0.2 2.8 0.6
v 0.3 2.8 0.6
v 0.4 2.8 0.6
v -0.4 2.8 0.5
v -0.3 2.8 0.5
v -0.2 2.8 0.5
v -0.1 2.8 0.5
v 0 2.8 0.5
v 0.1 2.8 0.5
v 0.2 2.8 0.5
v 0.3 2.8 0.5
v 0.4 2.8 0.5
v 0.5 2.8 0.5
v -0.5 2.8 0.4
v -0.4 2.8 0.4
v -0.3 2.8 0.4
v 0.3 2.8 0.4
v 0.4 2.8 0.4
v 0.4 2.8 0.3
v 0.5 2.8 0.3
v -0.5 2.8 0.2
v -0.4 2.8 0.2
v 0.4 2.8 -0.2
v 0.5 2.8 -0.2
v -0.5 2.8 -0.3
v -0.4 2.8 -0.3
v -0.3 2.8 -0.3
v 0.3 2.8 -0.3
v 0.4 2.8 -0.3
v 0.5 2.8 -0.3
v -0.5 2.8 -0.4
v -0.4 2.8 -0.4
v -0.3 2.8 -0.4
v -0.1 2.8 -0.4
v 0 2.8 -0.4
v 0.1 2.8 -0.4
v 0.2 2.8 -0.4
v 0.3 2.8 -0.4
v 0.4 2.8 -0.4
v 0.5 2.8 -0.4
v -0.4 2.8 -0.5
v -0.3 2.8 -0.5
v -0.1 2.8 -0.5
v 0.1 2.8 -0.5
v 0.2 2.8 -0.5
v 0.4 2.8 -0.5
v -0.3 2.9 0.5
v -0.2 2.9 0.5
v -0.1 2.9 0.5
v 0 2.9 0.5
v 0.3 2.9 0.5
v -0.4 2.9 0.4
v -0.3 2.9 0.4
v -0.2 2.9 0.4
v -0.1 2.9 0.4
v 0 2.9 0.4
v 0.1 2.9 0.4
v 0.2 2.9 0.4
v 0.3 2.9 0.4
v 0.4 2.9 0.4
v -0.3 2.9 0.3
v 0 2.9 0.3
v 0.1 2.9 0.3
v 0.2 2.9 0.3
v 0.4 2.9 0.3
v 0.5 2.9 0.3
v -0.5 2.9 0.2
v -0.4 2.9 0.2
v -0.3 2.9 0.2
v -0.1 2.9 0.2
v 0.1 2.9 0.2
v 0.2 2.9 0.2
v 0.3 2.9 0.2
v -0.5 2.9 0.1
v -0.4 2.9 0.1
v -0.3 2.9 0.1
v -0.1 2.9 0.1
v 0.1 2.9 0.1
v -0.4 2.9 0
v -0.3 2.9 0
v -0.2 2.9 0
v -0.1 2.9 0
v 0.2 2.9 0
v -0.5 2.9 -0.1
v -0.3 2.9 -0.1
v -0.2 2.9 -0.1
v -0.1 2.9 -0.1
v 0 2.9 -0.1
v 0.3 2.9 -0.1
v 0.4 2.9 -0.1
v -0.5 2.9 -0.2
v -0.4 2.9 -0.2
v -0.3 2.9 -0.2
v 0 2.9 -0.2
v 0.1 2.9 -0.2
v 0.3 2.9 -0.2
v 0.4 2.9 -0.2
v 0.5 2.9 -0.2
v -0.5 2.9 -0.3
v -0.4 2.9 -0.3
v -0.3 2.9 -0.3
v -0.1 2.9 -0.3
v 0 2.9 -0.3
v 0.1 2.9 -0.3
v 0.3 2.9 -0.3
v 0.4 2.9 -0.3
v -0.3 2.9 -0.4
v -0.1 2.9 -0.4
v 0 2.9 -0.4
v 0.3 2.9 -0.4

# faces
f 3/2/1 2/2/1 1/2/1
f 4/2/1 2/2/1 3/2/1
f 7/3/1 6/3/1 5/3/1
f 8/3/1 6/3/1 7/3/1
f 9/6/1 8/6/1 7/6/1
f 10/6/1 8/6/1 9/6/1
f 11/6/1 9/6/1 7/6/1
f 12/7/1 10/7/1 9/7/1
f 12/6/1 9/6/1 11/6/1
f 13/7/1 10/7/1 12/7/1
f 18/5/1 15/5/1 14/5/1
f 19/5/1 15/5/1 18/5/1
f 23/5/1 17/5/1 16/5/1
f 24/5/1 17/5/1 23/5/1
f 25/6/1 19/6/1 18/6/1
f 26/5/1 20/5/1 19/5/1
f 28/5/1 22/5/1 21/5/1
f 29/5/1 22/5/1 28/5/1
f 32/5/1 30/5/1 29/5/1
f 33/5/1 30/5/1 32/5/1
f 36/6/1 24/6/1 23/6/1
f 37/5/1 25/5/1 24/5/1
f 37/6/1 24/6/1 36/6/1
f 38/6/1 27/6/1 26/6/1
f 39/5/1 32/5/1 31/5/1
f 40/5/1 32/5/1 39/5/1
f 41/5/1 37/5/1 36/5/1
f 42/5/1 25/5/1 37/5/1
f 42/5/1 37/5/1 41/5/1
f 42/6/1 19/6/1 25/6/1
f 43/6/1 40/6/1 39/6/1
f 44/5/1 35/5/1 34/5/1
f 45/6/1 19/6/1 42/6/1
f 46/5/1 26/5/1 19/5/1
f 46/6/1 19/6/1 45/6/1
f 47/6/1 38/6/1 26/6/1
f 47/5/1 26/5/1 46/5/1
f 48/5/1 39/5/1 38/5/1
f 48/6/1 38/6/1 47/6/1
f 49/6/1 43/6/1 39/6/1
f 49/5/1 39/5/1 48/5/1
f 49/6/1 44/6/1 43/6/1
f 50/5/1 35/5/1 44/5/1
f 50/6/1 44/6/1 49/6/1
f 51/5/1 35/5/1 50/5/1
f 58/3/1 53/3/1 52/3/1
f 58/3/1 56/3/1 55/3/1
f 58/3/1 55/3/1 54/3/1
f 58/3/1 54/3/1 53/3/1
f 59/3/1 56/3/1 58/3/1
f 60/3/1 56/3/1 59/3/1
f 62/3/1 58/3/1 57/3/1
f 63/3/1 58/3/1 62/3/1
f 64/3/1 58/3/1 63/3/1
f 65/3/1 60/3/1 59/3/1
f 66/3/1 60/3/1 65/3/1
f 67/3/1 60/3/1 66/3/1
f 68/3/1 60/3/1 67/3/1
f 71/3/1 64/3/1 63/3/1
f 72/3/1 64/3/1 71/3/1
f 73/3/1 67/3/1 66/3/1
f 74/3/1 67/3/1 73/3/1
f 75/3/1 67/3/1 74/3/1
f 76/3/1 60/3/1 68/3/1
f 77/2/1 61/2/1 60/2/1
f 77/3/1 60/3/1 76/3/1
f 78/2/1 61/2/1 77/2/1
f 79/3/1 76/3/1 75/3/1
f 80/3/1 76/3/1 79/3/1
f 81/3/1 78/3/1 77/3/1
f 82/3/1 81/3/1 80/3/1
f 82/3/1 78/3/1 81/3/1
f 83/3/1 78/3/1 82/3/1
f 84/6/1 70/6/1 69/6/1
f 85/3/1 82/3/1 80/3/1
f 86/6/1 84/6/1 69/6/1
f 87/6/1 84/6/1 86/6/1
f 90/3/1 82/3/1 85/3/1
f 91/3/1 82/3/1 90/3/1
f 94/5/1 88/5/1 87/5/1
f 95/6/1 89/6/1 88/6/1
f 95/5/1 88/5/1 94/5/1
f 96/6/1 89/6/1 95/6/1
f 102/5/1 93/5/1 92/5/1
f 103/5/1 93/5/1 102/5/1
f 104/6/1 101/6/1 100/6/1
f 104/6/1 96/6/1 95/6/1
f 104/6/1 97/6/1 96/6/1
f 104/6/1 100/6/1 99/6/1
f 104/6/1 99/6/1 98/6/1
f 104/6/1 98/6/1 97/6/1
f 105/6/1 101/6/1 104/6/1
f 106/6/1 101/6/1 105/6/1
f 107/6/1 101/6/1 106/6/1
f 108/6/1 101/6/1 107/6/1
f 109/5/1 102/5/1 101/5/1
f 109/6/1 101/6/1 108/6/1
f 110/5/1 102/5/1 109/5/1
f 111/6/1 106/6/1 105/6/1
f 112/5/1 107/5/1 106/5/1
f 112/6/1 106/6/1 111/6/1
f 113/6/1 108/6/1 107/6/1
f 113/5/1 107/5/1 112/5/1
f 114/5/1 109/5/1 108/5/1
f 114/6/1 108/6/1 113/6/1
f 115/5/1 109/5/1 114/5/1
f 118/8/1 117/8/1 116/8/1
f 119/8/1 117/8/1 118/8/1
f 120/8/1 117/8/1 119/8/1
f 121/5/1 119/5/1 118/5/1
f 122/5/1 119/5/1 121/5/1
f 123/5/1 119/5/1 122/5/1
f 125/4/1 122/4/1 121/4/1
f 128/4/1 125/4/1 124/4/1
f 129/4/1 122/4/1 125/4/1
f 129/4/1 125/4/1 128/4/1
f 130/4/1 127/4/1 126/4/1
f 131/4/1 127/4/1 130/4/1
f 132/6/1 131/6/1 130/6/1
f 133/6/1 131/6/1 132/6/1
f 134/6/1 129/6/1 128/6/1
f 135/6/1 129/6/1 134/6/1
f 136/7/1 133/7/1 132/7/1
f 137/7/1 133/7/1 136/7/1
f 140/6/1 129/6/1 135/6/1
f 141/6/1 129/6/1 140/6/1
f 144/3/1 139/3/1 138/3/1
f 145/3/1 139/3/1 144/3/1
f 146/3/1 143/3/1 142/3/1
f 147/3/1 143/3/1 146/3/1
f 150/6/1 149/6/1 148/6/1
f 151/6/1 149/6/1 150/6/1
f 156/5/1 153/5/1 152/5/1
f 157/5/1 153/5/1 156/5/1
f 158/6/1 155/6/1 154/6/1
f 159/6/1 155/6/1 158/6/1
f 163/5/1 160/5/1 159/5/1
f 164/5/1 160/5/1 163/5/1
f 166/6/1 162/6/1 161/6/1
f 167/6/1 162/6/1 166/6/1
f 168/6/1 165/6/1 164/6/1
f 169/6/1 165/6/1 168/6/1
f 175/6/1 171/6/1 170/6/1
f 176/6/1 171/6/1 175/6/1
f 177/7/1 173/7/1 172/7/1
f 178/7/1 173/7/1 177/7/1
f 179/6/1 175/6/1 174/6/1
f 180/6/1 175/6/1 179/6/1
f 183/6/1 182/6/1 181/6/1
f 184/6/1 182/6/1 183/6/1
f 188/5/1 185/5/1 184/5/1
f 189/5/1 185/5/1 188/5/1
f 190/5/1 187/5/1 186/5/1
f 191/5/1 187/5/1 190/5/1
f 194/6/1 193/6/1 192/6/1
f 195/6/1 193/6/1 194/6/1
f 198/5/1 197/5/1 196/5/1
f 199/5/1 197/5/1 198/5/1
f 202/2/1 201/2/1 200/2/1
f 203/2/1 201/2/1 202/2/1
f 206/8/1 205/8/1 204/8/1
f 207/8/1 205/8/1 206/8/1
f 208/8/1 205/8/1 207/8/1
f 209/5/1 207/5/1 206/5/1
f 210/5/1 207/5/1 209/5/1
f 212/4/1 210/4/1 209/4/1
f 213/4/1 210/4/1 212/4/1
f 214/4/1 212/4/1 211/4/1
f 215/4/1 212/4/1 214/4/1
f 218/6/1 217/6/1 216/6/1
f 219/6/1 217/6/1 218/6/1
f 222/5/1 221/5/1 220/5/1
f 223/5/1 221/5/1 222/5/1
f 226/5/1 225/5/1 224/5/1
f 227/5/1 225/5/1 226/5/1
f 228/8/2 229/8/2 230/8/2
f 230/8/2 229/8/2 231/8/2
f 231/8/2 229/8/2 232/8/2
f 230/5/2 231/5/2 233/5/2
f 233/5/2 231/5/2 234/5/2
f 233/4/2 234/4/2 236/4/2
f 236/4/2 234/4/2 237/4/2
f 235/4/2 236/4/2 238/4/2
f 238/4/2 236/4/2 239/4/2
f 240/6/2 241/6/2 242/6/2
f 242/6/2 241/6/2 243/6/2
f 244/6/2 245/6/2 246/6/2
f 246/6/2 245/6/2 247/6/2
f 248/6/2 249/6/2 250/6/2
f 250/6/2 249/6/2 251/6/2
f 252/2/2 253/2/2 254/2/2
f 254/2/2 253/2/2 255/2/2
f 256/6/2 257/6/2 258/6/2
f 258/6/2 257/6/2 259/6/2
f 260/5/2 261/5/2 265/5/2
f 265/5/2 261/5/2 266/5/2
f 262/6/2 263/6/2 267/6/2
f 267/6/2 263/6/2 268/6/2
f 264/6/2 265/6/2 269/6/2
f 269/6/2 265/6/2 270/6/2
f 271/5/2 272/5/2 273/5/2
f 273/5/2 272/5/2 274/5/2
f 275/6/2 276/6/2 279/6/2
f 279/6/2 276/6/2 280/6/2
f 277/5/2 278/5/2 281/5/2
f 281/5/2 278/5/2 282/5/2
f 283/8/2 284/8/2 285/8/2
f 285/8/2 284/8/2 286/8/2
f 286/8/2 284/8/2 287/8/2
f 285/5/2 286/5/2 288/5/2
f 288/5/2 286/5/2 289/5/2
f 289/5/2 286/5/2 290/5/2
f 288/4/2 289/4/2 292/4/2
f 291/4/2 292/4/2 295/4/2
f 292/4/2 289/4/2 296/4/2
f 295/4/2 292/4/2 296/4/2
f 296/4/2 289/4/2 297/4/2
f 293/4/2 294/4/2 298/4/2
f 298/4/2 294/4/2 299/4/2
f 295/5/2 296/5/2 300/5/2
f 296/6/2 297/6/2 301/6/2
f 300/5/2 296/5/2 301/5/2
f 298/6/2 299/6/2 302/6/2
f 300/6/2 301/6/2 303/6/2
f 301/6/2 297/6/2 304/6/2
f 303/6/2 301/6/2 304/6/2
f 302/6/2 299/6/2 305/6/2
f 305/6/2 299/6/2 306/6/2
f 304/6/2 297/6/2 309/6/2
f 309/6/2 297/6/2 310/6/2
f 307/3/2 308/3/2 313/3/2
f 313/3/2 308/3/2 314/3/2
f 311/3/2 312/3/2 315/3/2
f 315/3/2 312/3/2 316/3/2
f 317/5/2 318/5/2 319/5/2
f 319/5/2 318/5/2 320/5/2
f 321/5/2 322/5/2 323/5/2
f 323/5/2 322/5/2 324/5/2
f 325/5/2 326/5/2 329/5/2
f 329/5/2 326/5/2 330/5/2
f 327/6/2 328/6/2 335/6/2
f 335/6/2 328/6/2 336/6/2
f 331/5/2 332/5/2 337/5/2
f 337/5/2 332/5/2 338/5/2
f 333/6/2 334/6/2 339/6/2
f 339/6/2 334/6/2 340/6/2
f 341/3/2 342/3/2 347/3/2
f 344/3/2 345/3/2 347/3/2
f 343/3/2 344/3/2 347/3/2
f 342/3/2 343/3/2 347/3/2
f 347/3/2 345/3/2 348/3/2
f 348/3/2 345/3/2 349/3/2
f 349/3/2 345/3/2 350/3/2
f 346/3/2 347/3/2 352/3/2
f 347/3/2 348/3/2 352/3/2
f 352/3/2 348/3/2 353/3/2
f 353/3/2 348/3/2 354/3/2
f 349/3/2 350/3/2 355/3/2
f 355/3/2 350/3/2 356/3/2
f 353/3/2 354/3/2 359/3/2
f 354/3/2 355/3/2 359/3/2
f 359/3/2 355/3/2 360/3/2
f 360/3/2 355/3/2 361/3/2
f 361/3/2 355/3/2 362/3/2
f 356/3/2 350/3/2 363/3/2
f 363/3/2 350/3/2 364/3/2
f 350/2/2 351/2/2 365/2/2
f 364/3/2 350/3/2 365/3/2
f 365/2/2 351/2/2 366/2/2
f 360/3/2 361/3/2 367/3/2
f 367/3/2 361/3/2 368/3/2
f 362/3/2 363/3/2 369/3/2
f 369/3/2 363/3/2 370/3/2
f 364/3/2 365/3/2 371/3/2
f 371/3/2 365/3/2 372/3/2
f 364/3/2 371/3/2 374/3/2
f 374/3/2 371/3/2 375/3/2
f 372/3/2 373/3/2 376/3/2
f 357/6/2 358/6/2 377/6/2
f 377/6/2 358/6/2 378/6/2
f 376/3/2 373/3/2 381/3/2
f 381/3/2 373/3/2 382/3/2
f 377/5/2 378/5/2 384/5/2
f 378/5/2 379/5/2 384/5/2
f 384/5/2 379/5/2 385/5/2
f 379/6/2 380/6/2 386/6/2
f 385/5/2 379/5/2 386/5/2
f 386/6/2 380/6/2 387/6/2
f 382/5/2 383/5/2 394/5/2
f 394/5/2 383/5/2 395/5/2
f 392/6/2 393/6/2 396/6/2
f 385/6/2 386/6/2 396/6/2
f 386/6/2 387/6/2 396/6/2
f 391/6/2 392/6/2 396/6/2
f 390/6/2 391/6/2 396/6/2
f 389/6/2 390/6/2 396/6/2
f 388/6/2 389/6/2 396/6/2
f 387/6/2 388/6/2 396/6/2
f 396/6/2 393/6/2 397/6/2
f 397/6/2 393/6/2 398/6/2
f 393/5/2 394/5/2 399/5/2
f 398/6/2 393/6/2 399/6/2
f 399/5/2 394/5/2 400/5/2
f 397/5/2 398/5/2 401/5/2
f 401/5/2 398/5/2 402/5/2
f 403/3/2 404/3/2 405/3/2
f 405/3/2 404/3/2 406/3/2
f 405/6/2 406/6/2 407/6/2
f 407/6/2 406/6/2 408/6/2
f 405/6/2 407/6/2 409/6/2
f 407/7/2 408/7/2 410/7/2
f 409/6/2 407/6/2 410/6/2
f 410/7/2 408/7/2 411/7/2
f 412/5/2 413/5/2 416/5/2
f 416/5/2 413/5/2 417/5/2
f 414/5/2 415/5/2 419/5/2
f 419/5/2 415/5/2 420/5/2
f 417/5/2 418/5/2 423/5/2
f 423/5/2 418/5/2 424/5/2
f 420/5/2 421/5/2 427/5/2
f 422/5/2 423/5/2 428/5/2
f 428/5/2 423/5/2 429/5/2
f 425/5/2 426/5/2 432/5/2
f 432/5/2 426/5/2 433/5/2
f 429/6/2 430/6/2 434/6/2
f 431/6/2 432/6/2 436/6/2
f 436/6/2 432/6/2 437/6/2
f 419/6/2 420/6/2 438/6/2
f 420/5/2 427/5/2 439/5/2
f 438/6/2 420/6/2 439/6/2
f 427/6/2 428/6/2 440/6/2
f 439/5/2 427/5/2 440/5/2
f 436/5/2 437/5/2 441/5/2
f 440/6/2 428/6/2 443/6/2
f 428/5/2 429/5/2 444/5/2
f 443/6/2 428/6/2 444/6/2
f 429/6/2 434/6/2 445/6/2
f 444/5/2 429/5/2 445/5/2
f 434/5/2 435/5/2 446/5/2
f 445/6/2 434/6/2 446/6/2
f 435/6/2 436/6/2 447/6/2
f 446/5/2 435/5/2 447/5/2
f 436/5/2 441/5/2 448/5/2
f 447/6/2 436/6/2 448/6/2
f 441/5/2 442/5/2 448/5/2
f 448/5/2 442/5/2 449/5/2
f 450/2/2 451/2/2 452/2/2
f 452/2/2 451/2/2 453/2/2
f 457/6/3 455/6/3 454/6/3
f 458/6/3 455/6/3 457/6/3
f 460/6/3 457/6/3 456/6/3
f 461/5/3 458/5/3 457/5/3
f 461/6/3 457/6/3 460/6/3
f 462/5/3 458/5/3 461/5/3
f 463/6/3 459/6/3 458/6/3
f 463/5/3 458/5/3 462/5/3
f 464/6/3 459/6/3 463/6/3
f 467/5/3 462/5/3 461/5/3
f 467/5/3 461/5/3 460/5/3
f 468/6/3 465/6/3 464/6/3
f 468/6/3 464/6/3 463/6/3
f 468/5/3 462/5/3 467/5/3
f 468/6/3 463/6/3 462/6/3
f 469/6/3 465/6/3 468/6/3
f 470/5/3 467/5/3 466/5/3
f 471/6/3 468/6/3 467/6/3
f 471/5/3 467/5/3 470/5/3
f 472/5/3 469/5/3 468/5/3
f 472/6/3 468/6/3 471/6/3
f 473/5/3 469/5/3 472/5/3
f 474/5/3 469/5/3 473/5/3
f 475/5/3 469/5/3 474/5/3
f 476/6/3 471/6/3 470/6/3
f 477/5/3 472/5/3 471/5/3
f 477/6/3 471/6/3 476/6/3
f 478/6/3 473/6/3 472/6/3
f 478/5/3 474/5/3 473/5/3
f 479/6/3 475/6/3 474/6/3
f 479/5/3 474/5/3 478/5/3
f 480/6/3 475/6/3 479/6/3
f 482/5/3 472/5/3 477/5/3
f 483/6/3 479/6/3 478/6/3
f 483/6/3 478/6/3 472/6/3
f 483/5/3 472/5/3 482/5/3
f 484/6/3 479/6/3 483/6/3
f 486/6/3 482/6/3 481/6/3
f 486/6/3 483/6/3 482/6/3
f 487/6/3 483/6/3 486/6/3
f 488/6/3 483/6/3 487/6/3
f 489/6/3 483/6/3 488/6/3
f 490/5/3 485/5/3 484/5/3
f 490/6/3 483/6/3 489/6/3
f 490/5/3 484/5/3 483/5/3
f 491/5/3 485/5/3 490/5/3
f 492/5/3 485/5/3 491/5/3
f 493/5/3 485/5/3 492/5/3
f 494/5/3 487/5/3 486/5/3
f 495/6/3 488/6/3 487/6/3
f 495/5/3 487/5/3 494/5/3
f 496/5/3 489/5/3 488/5/3
f 496/6/3 488/6/3 495/6/3
f 497/6/3 490/6/3 489/6/3
f 497/5/3 489/5/3 496/5/3
f 497/6/3 491/6/3 490/6/3
f 498/5/3 492/5/3 491/5/3
f 498/6/3 491/6/3 497/6/3
f 499/6/3 493/6/3 492/6/3
f 499/5/3 492/5/3 498/5/3
f 500/6/3 493/6/3 499/6/3
f 501/5/3 496/5/3 495/5/3
f 501/5/3 498/5/3 497/5/3
f 501/5/3 497/5/3 496/5/3
f 502/5/3 498/5/3 501/5/3
f 503/6/3 499/6/3 498/6/3
f 503/5/3 498/5/3 502/5/3
f 504/5/3 500/5/3 499/5/3
f 505/5/3 500/5/3 504/5/3
f 506/6/3 503/6/3 502/6/3
f 507/6/3 499/6/3 503/6/3
f 507/6/3 503/6/3 506/6/3
f 507/5/3 504/5/3 499/5/3
f 508/5/3 504/5/3 507/5/3
f 514/5/3 510/5/3 509/5/3
f 515/6/3 511/6/3 510/6/3
f 515/5/3 510/5/3 514/5/3
f 516/5/3 512/5/3 511/5/3
f 516/6/3 511/6/3 515/6/3
f 517/5/3 512/5/3 516/5/3
f 520/3/3 515/3/3 514/3/3
f 520/3/3 514/3/3 513/3/3
f 521/3/3 515/3/3 520/3/3
f 522/3/3 515/3/3 521/3/3
f 523/5/3 518/5/3 517/5/3
f 524/5/3 518/5/3 523/5/3
f 526/3/3 520/3/3 519/3/3
f 526/3/3 521/3/3 520/3/3
f 527/5/3 525/5/3 524/5/3
f 528/5/3 525/5/3 527/5/3
f 530/3/3 526/3/3 519/3/3
f 531/3/3 526/3/3 530/3/3
f 532/5/3 529/5/3 528/5/3
f 533/5/3 529/5/3 532/5/3
f 534/3/3 530/3/3 519/3/3
f 535/6/3 533/6/3 532/6/3
f 536/6/3 533/6/3 535/6/3
f 537/3/3 534/3/3 519/3/3
f 540/5/3 536/5/3 535/5/3
f 541/5/3 536/5/3 540/5/3
f 542/3/3 538/3/3 537/3/3
f 542/3/3 537/3/3 519/3/3
f 543/3/3 538/3/3 542/3/3
f 544/5/3 540/5/3 539/5/3
f 545/6/3 541/6/3 540/6/3
f 545/5/3 540/5/3 544/5/3
f 546/3/3 542/3/3 519/3/3
f 547/6/3 541/6/3 545/6/3
f 548/3/3 546/3/3 519/3/3
f 550/6/3 541/6/3 547/6/3
f 551/6/3 541/6/3 550/6/3
f 552/3/3 549/3/3 548/3/3
f 552/3/3 548/3/3 519/3/3
f 553/3/3 549/3/3 552/3/3
f 554/3/3 549/3/3 553/3/3
f 558/3/3 554/3/3 553/3/3
f 558/3/3 555/3/3 554/3/3
f 559/3/3 555/3/3 558/3/3
f 560/3/3 555/3/3 559/3/3
f 562/6/3 557/6/3 556/6/3
f 563/6/3 557/6/3 562/6/3
f 564/5/3 560/5/3 559/5/3
f 565/6/3 561/6/3 560/6/3
f 565/5/3 560/5/3 564/5/3
f 566/6/3 561/6/3 565/6/3
f 569/6/3 568/6/3 567/6/3
f 570/6/3 568/6/3 569/6/3
f 572/6/3 571/6/3 570/6/3
f 573/6/3 571/6/3 572/6/3
f 576/5/3 575/5/3 574/5/3
f 577/5/3 575/5/3 576/5/3
f 584/5/3 579/5/3 578/5/3
f 585/6/3 580/6/3 579/6/3
f 585/5/3 579/5/3 584/5/3
f 586/6/3 580/6/3 585/6/3
f 587/6/3 582/6/3 581/6/3
f 588/6/3 582/6/3 587/6/3
f 592/3/3 584/3/3 583/3/3
f 593/3/3 584/3/3 592/3/3
f 594/6/3 591/6/3 590/6/3
f 596/6/3 594/6/3 590/6/3
f 596/7/3 595/7/3 594/7/3
f 597/7/3 595/7/3 596/7/3
f 598/4/3 590/4/3 589/4/3
f 599/6/3 596/6/3 590/6/3
f 599/4/3 590/4/3 598/4/3
f 599/6/3 597/6/3 596/6/3
f 601/6/3 597/6/3 599/6/3
f 602/6/3 597/6/3 601/6/3
f 602/4/3 601/4/3 600/4/3
f 603/6/3 597/6/3 602/6/3
f 604/6/3 597/6/3 603/6/3
f 605/6/3 597/6/3 604/6/3
f 606/4/3 602/4/3 600/4/3
f 607/5/3 603/5/3 602/5/3
f 607/4/3 602/4/3 606/4/3
f 608/6/3 604/6/3 603/6/3
f 608/5/3 603/5/3 607/5/3
f 609/6/3 604/6/3 608/6/3
f 614/3/3 611/3/3 610/3/3
f 615/3/3 611/3/3 614/3/3
f 618/5/3 613/5/3 612/5/3
f 619/5/3 613/5/3 618/5/3
f 620/6/3 617/6/3 616/6/3
f 621/6/3 617/6/3 620/6/3
f 630/6/3 623/6/3 622/6/3
f 631/6/3 623/6/3 630/6/3
f 632/6/3 629/6/3 628/6/3
f 633/6/3 629/6/3 632/6/3
f 634/8/3 625/8/3 624/8/3
f 635/5/3 626/5/3 625/5/3
f 635/8/3 625/8/3 634/8/3
f 636/4/3 627/4/3 626/4/3
f 636/5/3 626/5/3 635/5/3
f 637/4/3 627/4/3 636/4/3
f 642/4/3 638/4/3 637/4/3
f 643/4/3 638/4/3 642/4/3
f 646/8/3 640/8/3 639/8/3
f 647/5/3 641/5/3 640/5/3
f 647/8/3 640/8/3 646/8/3
f 648/4/3 642/4/3 641/4/3
f 648/5/3 641/5/3 647/5/3
f 649/4/3 642/4/3 648/4/3
f 650/6/3 645/6/3 644/6/3
f 651/6/3 645/6/3 650/6/3
f 656/5/3 653/5/3 652/5/3
f 657/5/3 653/5/3 656/5/3
f 658/5/3 655/5/3 654/5/3
f 659/5/3 655/5/3 658/5/3
f 663/6/3 662/6/3 661/6/3
f 664/3/3 661/3/3 660/3/3
f 665/6/3 663/6/3 661/6/3
f 665/3/3 661/3/3 664/3/3
f 666/6/3 663/6/3 665/6/3
f 670/6/3 669/6/3 668/6/3
f 673/3/3 668/3/3 667/3/3
f 674/6/3 670/6/3 668/6/3
f 674/3/3 668/3/3 673/3/3
f 675/6/3 670/6/3 674/6/3
f 676/5/3 672/5/3 671/5/3
f 677/5/3 672/5/3 676/5/3
f 680/2/3 679/2/3 678/2/3
f 681/2/3 679/2/3 680/2/3
f 684/2/3 683/2/3 682/2/3
f 685/2/3 683/2/3 684/2/3
f 687/2/3 685/2/3 684/2/3
f 687/2/3 686/2/3 685/2/3
f 688/2/3 686/2/3 687/2/3
f 691/5/3 690/5/3 689/5/3
f 692/5/3 690/5/3 691/5/3
f 695/5/3 694/5/3 693/5/3
f 696/5/3 694/5/3 695/5/3
f 699/6/3 698/6/3 697/6/3
f 700/6/3 698/6/3 699/6/3
f 703/5/3 702/5/3 701/5/3
f 704/5/3 702/5/3 703/5/3
f 707/5/3 706/5/3 705/5/3
f 708/5/3 706/5/3 707/5/3
f 709/5/4 710/5/4 711/5/4
f 711/5/4 710/5/4 712/5/4
f 713/5/4 714/5/4 715/5/4
f 715/5/4 714/5/4 716/5/4
f 717/5/4 718/5/4 719/5/4
f 719/5/4 718/5/4 720/5/4
f 721/5/4 722/5/4 723/5/4
f 723/5/4 722/5/4 724/5/4
f 725/5/4 726/5/4 727/5/4
f 727/5/4 726/5/4 728/5/4
f 729/5/4 730/5/4 733/5/4
f 733/5/4 730/5/4 734/5/4
f 731/5/4 732/5/4 735/5/4
f 735/5/4 732/5/4 736/5/4
f 737/5/4 738/5/4 739/5/4
f 739/5/4 738/5/4 740/5/4
f 741/2/4 742/2/4 747/2/4
f 747/2/4 742/2/4 748/2/4
f 748/2/4 742/2/4 749/2/4
f 745/7/4 746/7/4 750/7/4
f 744/6/4 745/6/4 750/6/4
f 750/7/4 746/7/4 751/7/4
f 747/2/4 748/2/4 752/2/4
f 752/2/4 748/2/4 753/2/4
f 743/3/4 744/3/4 755/3/4
f 755/3/4 744/3/4 756/3/4
f 750/6/4 751/6/4 757/6/4
f 756/3/4 744/3/4 757/3/4
f 744/6/4 750/6/4 757/6/4
f 757/6/4 751/6/4 758/6/4
f 758/6/4 751/6/4 759/6/4
f 759/6/4 751/6/4 760/6/4
f 760/6/4 751/6/4 761/6/4
f 754/5/4 755/5/4 762/5/4
f 755/4/4 756/4/4 763/4/4
f 762/5/4 755/5/4 763/5/4
f 763/4/4 756/4/4 764/4/4
f 765/5/4 766/5/4 770/5/4
f 766/4/4 767/4/4 771/4/4
f 770/5/4 766/5/4 771/5/4
f 771/4/4 767/4/4 772/4/4
f 768/6/4 769/6/4 775/6/4
f 773/7/4 774/7/4 776/7/4
f 771/3/4 772/3/4 776/3/4
f 772/3/4 773/3/4 776/3/4
f 774/6/4 775/6/4 777/6/4
f 776/7/4 774/7/4 777/7/4
f 775/6/4 769/6/4 778/6/4
f 777/6/4 775/6/4 778/6/4
f 778/6/4 769/6/4 779/6/4
f 771/3/4 776/3/4 782/3/4
f 777/6/4 778/6/4 783/6/4
f 782/3/4 776/3/4 783/3/4
f 776/6/4 777/6/4 783/6/4
f 778/7/4 779/7/4 784/7/4
f 783/6/4 778/6/4 784/6/4
f 784/7/4 779/7/4 785/7/4
f 780/2/4 781/2/4 786/2/4
f 780/2/4 786/2/4 787/2/4
f 787/2/4 786/2/4 788/2/4
f 789/5/4 790/5/4 794/5/4
f 794/5/4 790/5/4 795/5/4
f 791/5/4 792/5/4 796/5/4
f 792/6/4 793/6/4 797/6/4
f 796/5/4 792/5/4 797/5/4
f 797/6/4 793/6/4 798/6/4
f 802/6/4 803/6/4 805/6/4
f 803/7/4 804/7/4 805/7/4
f 805/7/4 804/7/4 806/7/4
f 802/6/4 805/6/4 808/6/4
f 808/6/4 805/6/4 809/6/4
f 806/6/4 807/6/4 810/6/4
f 810/6/4 807/6/4 811/6/4
f 799/8/4 800/8/4 812/8/4
f 812/8/4 800/8/4 813/8/4
f 802/6/4 808/6/4 816/6/4
f 810/3/4 811/3/4 818/3/4
f 818/3/4 811/3/4 819/3/4
f 816/6/4 817/6/4 820/6/4
f 818/6/4 819/6/4 821/6/4
f 821/6/4 819/6/4 822/6/4
f 814/8/4 815/8/4 823/8/4
f 823/8/4 815/8/4 824/8/4
f 801/4/4 802/4/4 825/4/4
f 802/6/4 816/6/4 826/6/4
f 825/4/4 802/4/4 826/4/4
f 816/6/4 820/6/4 826/6/4
f 820/6/4 821/6/4 826/6/4
f 826/6/4 821/6/4 827/6/4
f 828/5/4 829/5/4 830/5/4
f 830/5/4 829/5/4 831/5/4
f 832/5/4 833/5/4 836/5/4
f 836/5/4 833/5/4 837/5/4
f 834/3/4 835/3/4 840/3/4
f 840/3/4 835/3/4 841/3/4
f 838/5/4 839/5/4 842/5/4
f 842/5/4 839/5/4 843/5/4
f 842/6/4 843/6/4 846/6/4
f 846/6/4 843/6/4 847/6/4
f 844/6/4 845/6/4 849/6/4
f 848/6/4 849/6/4 850/6/4
f 849/6/4 845/6/4 851/6/4
f 850/6/4 849/6/4 851/6/4
f 851/6/4 845/6/4 852/6/4
f 851/5/4 852/5/4 853/5/4
f 853/5/4 852/5/4 854/5/4
f 855/6/4 856/6/4 859/6/4
f 859/6/4 856/6/4 860/6/4
f 857/3/4 858/3/4 861/3/4
f 861/3/4 858/3/4 862/3/4
f 863/6/4 864/6/4 866/6/4
f 864/5/4 865/5/4 867/5/4
f 866/6/4 864/6/4 867/6/4
f 867/5/4 865/5/4 868/5/4
f 869/5/4 870/5/4 873/5/4
f 873/5/4 870/5/4 874/5/4
f 874/5/4 870/5/4 875/5/4
f 871/2/4 872/2/4 878/2/4
f 872/3/4 873/3/4 879/3/4
f 873/3/4 874/3/4 879/3/4
f 878/2/4 872/2/4 879/2/4
f 879/3/4 874/3/4 880/3/4
f 880/3/4 874/3/4 881/3/4
f 881/3/4 874/3/4 882/3/4
f 875/5/4 876/5/4 883/5/4
f 883/5/4 876/5/4 884/5/4
f 877/3/4 878/3/4 885/3/4
f 878/2/4 879/2/4 885/2/4
f 879/1/4 880/1/4 886/1/4
f 885/2/4 879/2/4 886/2/4
f 880/3/4 881/3/4 887/3/4
f 886/1/4 880/1/4 887/1/4
f 887/3/4 881/3/4 888/3/4
f 887/10/4 888/10/4 891/10/4
f 885/3/4 886/3/4 891/3/4
f 886/10/4 887/10/4 891/10/4
f 891/10/4 888/10/4 892/10/4
f 885/3/4 891/3/4 893/3/4
f 891/3/4 892/3/4 893/3/4
f 893/3/4 892/3/4 894/3/4
f 894/3/4 892/3/4 895/3/4
f 889/5/4 890/5/4 897/5/4
f 897/5/4 890/5/4 898/5/4
f 897/6/4 898/6/4 899/6/4
f 899/6/4 898/6/4 900/6/4
f 885/3/4 893/3/4 901/3/4
f 895/3/4 896/3/4 902/3/4
f 894/3/4 895/3/4 902/3/4
f 902/3/4 896/3/4 903/3/4
f 903/3/4 896/3/4 904/3/4
f 899/5/4 900/5/4 905/5/4
f 901/3/4 902/3/4 906/3/4
f 902/3/4 903/3/4 906/3/4
f 906/3/4 903/3/4 907/3/4
f 905/5/4 900/5/4 908/5/4
f 885/3/4 901/3/4 909/3/4
f 877/3/4 885/3/4 909/3/4
f 901/3/4 906/3/4 909/3/4
f 906/10/4 907/10/4 910/10/4
f 909/3/4 906/3/4 910/3/4
f 910/10/4 907/10/4 911/10/4
f 911/10/4 907/10/4 912/10/4
f 908/5/4 900/5/4 913/5/4
f 913/5/4 900/5/4 914/5/4
f 877/3/4 909/3/4 915/3/4
f 909/2/4 910/2/4 916/2/4
f 915/3/4 909/3/4 916/3/4
f 910/1/4 911/1/4 917/1/4
f 916/2/4 910/2/4 917/2/4
f 911/3/4 912/3/4 918/3/4
f 917/1/4 911/1/4 918/1/4
f 918/3/4 912/3/4 919/3/4
f 916/2/4 917/2/4 923/2/4
f 919/3/4 920/3/4 924/3/4
f 923/2/4 917/2/4 924/2/4
f 917/3/4 918/3/4 924/3/4
f 918/3/4 919/3/4 924/3/4
f 924/3/4 920/3/4 925/3/4
f 925/3/4 920/3/4 926/3/4
f 921/5/4 922/5/4 927/5/4
f 927/5/4 922/5/4 928/5/4
f 924/5/4 925/5/4 929/5/4
f 929/5/4 925/5/4 930/5/4
f 926/5/4 927/5/4 931/5/4
f 931/5/4 927/5/4 932/5/4
f 933/5/4 934/5/4 936/5/4
f 936/5/4 934/5/4 937/5/4
f 935/5/4 936/5/4 939/5/4
f 936/5/4 937/5/4 939/5/4
f 937/6/4 938/6/4 940/6/4
f 939/5/4 937/5/4 940/5/4
f 940/6/4 938/6/4 941/6/4
f 939/6/4 940/6/4 942/6/4
f 940/5/4 941/5/4 943/5/4
f 942/6/4 940/6/4 943/6/4
f 939/6/4 942/6/4 946/6/4
f 942/5/4 943/5/4 947/5/4
f 946/6/4 942/6/4 947/6/4
f 943/5/4 941/5/4 948/5/4
f 947/5/4 943/5/4 948/5/4
f 944/2/4 945/2/4 949/2/4
f 949/2/4 945/2/4 950/2/4
f 947/6/4 948/6/4 952/6/4
f 952/6/4 948/6/4 953/6/4
f 951/5/4 952/5/4 954/5/4
f 952/5/4 953/5/4 954/5/4
f 954/5/4 953/5/4 955/5/4
f 954/6/4 955/6/4 956/6/4
f 956/6/4 955/6/4 957/6/4
f 956/5/4 957/5/4 958/5/4
f 958/5/4 957/5/4 959/5/4
f 957/6/4 955/6/4 960/6/4
f 959/5/4 957/5/4 960/5/4
f 960/6/4 955/6/4 961/6/4
f 959/5/4 960/5/4 962/5/4
f 962/5/4 960/5/4 963/5/4
f 968/8/5 965/8/5 964/8/5
f 969/8/5 965/8/5 968/8/5
f 970/8/5 967/8/5 966/8/5
f 971/8/5 967/8/5 970/8/5
f 976/3/5 973/3/5 972/3/5
f 977/3/5 973/3/5 976/3/5
f 978/3/5 975/3/5 974/3/5
f 979/3/5 975/3/5 978/3/5
f 984/4/5 981/4/5 980/4/5
f 985/4/5 981/4/5 984/4/5
f 986/4/5 983/4/5 982/4/5
f 987/4/5 983/4/5 986/4/5
f 989/4/5 986/4/5 985/4/5
f 990/4/5 986/4/5 989/4/5
f 992/4/5 989/4/5 988/4/5
f 992/4/5 991/4/5 990/4/5
f 992/4/5 990/4/5 989/4/5
f 993/4/5 991/4/5 992/4/5
f 996/6/5 995/6/5 994/6/5
f 997/6/5 995/6/5 996/6/5
f 1000/6/5 999/6/5 998/6/5
f 1001/6/5 999/6/5 1000/6/5
f 1006/6/5 1003/6/5 1002/6/5
f 1007/6/5 1003/6/5 1006/6/5
f 1008/5/5 1005/5/5 1004/5/5
f 1009/5/5 1005/5/5 1008/5/5
f 1013/3/5 1011/3/5 1010/3/5
f 1014/3/5 1011/3/5 1013/3/5
f 1015/3/5 1011/3/5 1014/3/5
f 1016/3/5 1011/3/5 1015/3/5
f 1017/3/5 1011/3/5 1016/3/5
f 1019/3/5 1013/3/5 1012/3/5
f 1019/3/5 1014/3/5 1013/3/5
f 1020/3/5 1014/3/5 1019/3/5
f 1021/3/5 1018/3/5 1017/3/5
f 1021/3/5 1017/3/5 1016/3/5
f 1022/3/5 1018/3/5 1021/3/5
f 1023/3/5 1019/3/5 1012/3/5
f 1024/3/5 1019/3/5 1023/3/5
f 1025/3/5 1018/3/5 1022/3/5
f 1026/3/5 1018/3/5 1025/3/5
f 1031/3/5 1028/3/5 1027/3/5
f 1034/3/5 1030/3/5 1029/3/5
f 1035/3/5 1033/3/5 1032/3/5
f 1035/3/5 1034/3/5 1033/3/5
f 1035/3/5 1031/3/5 1027/3/5
f 1035/3/5 1032/3/5 1031/3/5
f 1036/3/5 1034/3/5 1035/3/5
f 1037/3/5 1030/3/5 1034/3/5
f 1037/3/5 1034/3/5 1036/3/5
f 1038/3/5 1030/3/5 1037/3/5
f 1039/3/5 1037/3/5 1036/3/5
f 1040/3/5 1037/3/5 1039/3/5
f 1049/5/5 1042/5/5 1041/5/5
f 1050/6/5 1043/6/5 1042/6/5
f 1050/5/5 1042/5/5 1049/5/5
f 1051/6/5 1043/6/5 1050/6/5
f 1052/6/5 1045/6/5 1044/6/5
f 1053/5/5 1046/5/5 1045/5/5
f 1053/6/5 1045/6/5 1052/6/5
f 1054/5/5 1046/5/5 1053/5/5
f 1058/3/5 1048/3/5 1047/3/5
f 1059/3/5 1048/3/5 1058/3/5
f 1060/3/5 1056/3/5 1055/3/5
f 1061/3/5 1056/3/5 1060/3/5
f 1062/5/5 1058/5/5 1057/5/5
f 1063/5/5 1058/5/5 1062/5/5
f 1066/5/5 1065/5/5 1064/5/5
f 1067/5/5 1065/5/5 1066/5/5
f 1072/2/5 1069/2/5 1068/2/5
f 1073/2/5 1069/2/5 1072/2/5
f 1074/2/5 1071/2/5 1070/2/5
f 1075/2/5 1071/2/5 1074/2/5
f 1085/6/5 1077/6/5 1076/6/5
f 1086/5/5 1078/5/5 1077/5/5
f 1086/6/5 1077/6/5 1085/6/5
f 1087/5/5 1078/5/5 1086/5/5
f 1088/5/5 1080/5/5 1079/5/5
f 1089/5/5 1080/5/5 1088/5/5
f 1090/5/5 1082/5/5 1081/5/5
f 1091/5/5 1082/5/5 1090/5/5
f 1094/5/5 1084/5/5 1083/5/5
f 1095/5/5 1084/5/5 1094/5/5
f 1096/5/5 1093/5/5 1092/5/5
f 1097/5/5 1093/5/5 1096/5/5
f 1100/5/5 1099/5/5 1098/5/5
f 1101/5/5 1099/5/5 1100/5/5
f 1104/5/5 1103/5/5 1102/5/5
f 1105/5/5 1103/5/5 1104/5/5
f 1108/5/5 1107/5/5 1106/5/5
f 1109/5/5 1107/5/5 1108/5/5
f 1112/2/5 1111/2/5 1110/2/5
f 1113/2/5 1111/2/5 1112/2/5
f 1118/6/5 1115/6/5 1114/6/5
f 1119/6/5 1115/6/5 1118/6/5
f 1120/6/5 1117/6/5 1116/6/5
f 1121/6/5 1117/6/5 1120/6/5
f 1126/5/5 1123/5/5 1122/5/5
f 1127/5/5 1123/5/5 1126/5/5
f 1128/5/5 1125/5/5 1124/5/5
f 1129/5/5 1125/5/5 1128/5/5
f 1134/5/5 1131/5/5 1130/5/5
f 1135/5/5 1131/5/5 1134/5/5
f 1137/6/5 1133/6/5 1132/6/5
f 1138/6/5 1133/6/5 1137/6/5
f 1142/2/5 1138/2/5 1137/2/5
f 1142/2/5 1137/2/5 1136/2/5
f 1143/2/5 1138/2/5 1142/2/5
f 1144/2/5 1138/2/5 1143/2/5
f 1145/2/5 1140/2/5 1139/2/5
f 1145/2/5 1141/2/5 1140/2/5
f 1146/2/5 1141/2/5 1145/2/5
f 1149/5/5 1148/5/5 1147/5/5
f 1150/5/5 1148/5/5 1149/5/5
f 1153/5/5 1152/5/5 1151/5/5
f 1154/5/5 1152/5/5 1153/5/5
f 1157/6/5 1156/6/5 1155/6/5
f 1158/6/5 1156/6/5 1157/6/5
f 1161/6/5 1160/6/5 1159/6/5
f 1162/6/5 1160/6/5 1161/6/5
f 1165/5/5 1164/5/5 1163/5/5
f 1166/5/5 1164/5/5 1165/5/5
f 1171/6/5 1168/6/5 1167/6/5
f 1172/6/5 1168/6/5 1171/6/5
f 1173/5/5 1170/5/5 1169/5/5
f 1174/5/5 1170/5/5 1173/5/5
f 1177/6/5 1176/6/5 1175/6/5
f 1178/6/5 1176/6/5 1177/6/5
f 1187/5/5 1180/5/5 1179/5/5
f 1188/6/5 1181/6/5 1180/6/5
f 1188/5/5 1180/5/5 1187/5/5
f 1188/6/5 1182/6/5 1181/6/5
f 1189/6/5 1182/6/5 1188/6/5
f 1190/5/5 1184/5/5 1183/5/5
f 1191/6/5 1185/6/5 1184/6/5
f 1191/5/5 1184/5/5 1190/5/5
f 1192/5/5 1186/5/5 1185/5/5
f 1192/6/5 1185/6/5 1191/6/5
f 1193/5/5 1186/5/5 1192/5/5
f 1196/6/5 1195/6/5 1194/6/5
f 1197/6/5 1195/6/5 1196/6/5
f 1205/5/5 1199/5/5 1198/5/5
f 1206/5/5 1199/5/5 1205/5/5
f 1207/5/5 1201/5/5 1200/5/5
f 1208/5/5 1201/5/5 1207/5/5
f 1209/6/5 1203/6/5 1202/6/5
f 1210/6/5 1203/6/5 1209/6/5
f 1211/5/5 1205/5/5 1204/5/5
f 1212/5/5 1205/5/5 1211/5/5
f 1213/8/6 1214/8/6 1217/8/6
f 1217/8/6 1214/8/6 1218/8/6
f 1215/8/6 1216/8/6 1219/8/6
f 1219/8/6 1216/8/6 1220/8/6
f 1221/6/6 1222/6/6 1225/6/6
f 1225/6/6 1222/6/6 1226/6/6
f 1223/6/6 1224/6/6 1227/6/6
f 1227/6/6 1224/6/6 1228/6/6
f 1229/7/6 1230/7/6 1233/7/6
f 1233/7/6 1230/7/6 1234/7/6
f 1231/6/6 1232/6/6 1237/6/6
f 1237/6/6 1232/6/6 1238/6/6
f 1235/6/6 1236/6/6 1239/6/6
f 1234/6/6 1235/6/6 1239/6/6
f 1236/5/6 1237/5/6 1240/5/6
f 1239/6/6 1236/6/6 1240/6/6
f 1240/5/6 1237/5/6 1241/5/6
f 1242/6/6 1243/6/6 1246/6/6
f 1246/6/6 1243/6/6 1247/6/6
f 1244/6/6 1245/6/6 1248/6/6
f 1248/6/6 1245/6/6 1249/6/6
f 1246/7/6 1247/7/6 1250/7/6
f 1250/7/6 1247/7/6 1251/7/6
f 1248/7/6 1249/7/6 1252/7/6
f 1252/7/6 1249/7/6 1253/7/6
f 1254/5/6 1255/5/6 1256/5/6
f 1256/5/6 1255/5/6 1257/5/6
f 1258/5/6 1259/5/6 1260/5/6
f 1260/5/6 1259/5/6 1261/5/6
f 1262/5/6 1263/5/6 1264/5/6
f 1264/5/6 1263/5/6 1265/5/6
f 1266/5/6 1267/5/6 1268/5/6
f 1268/5/6 1267/5/6 1269/5/6
f 1270/5/6 1271/5/6 1274/5/6
f 1274/5/6 1271/5/6 1275/5/6
f 1272/2/6 1273/2/6 1276/2/6
f 1276/2/6 1273/2/6 1277/2/6
f 1278/2/6 1279/2/6 1282/2/6
f 1282/2/6 1279/2/6 1283/2/6
f 1280/2/6 1281/2/6 1284/2/6
f 1284/2/6 1281/2/6 1285/2/6
f 1286/6/6 1287/6/6 1289/6/6
f 1289/6/6 1287/6/6 1290/6/6
f 1288/5/6 1289/5/6 1293/5/6
f 1291/6/6 1292/6/6 1294/6/6
f 1294/6/6 1292/6/6 1295/6/6
f 1288/5/6 1293/5/6 1296/5/6
f 1296/5/6 1293/5/6 1297/5/6
f 1294/5/6 1295/5/6 1298/5/6
f 1298/5/6 1295/5/6 1299/5/6
f 1300/6/6 1301/6/6 1307/6/6
f 1307/6/6 1301/6/6 1308/6/6
f 1302/6/6 1303/6/6 1309/6/6
f 1309/6/6 1303/6/6 1310/6/6
f 1304/5/6 1305/5/6 1311/5/6
f 1311/5/6 1305/5/6 1312/5/6
f 1306/5/6 1307/5/6 1313/5/6
f 1313/5/6 1307/5/6 1314/5/6
f 1315/6/6 1316/6/6 1319/6/6
f 1319/6/6 1316/6/6 1320/6/6
f 1317/6/6 1318/6/6 1321/6/6
f 1321/6/6 1318/6/6 1322/6/6
f 1319/5/6 1320/5/6 1323/5/6
f 1323/5/6 1320/5/6 1324/5/6
f 1321/5/6 1322/5/6 1325/5/6
f 1325/5/6 1322/5/6 1326/5/6
f 1323/6/6 1324/6/6 1327/6/6
f 1327/6/6 1324/6/6 1328/6/6
f 1325/6/6 1326/6/6 1329/6/6
f 1329/6/6 1326/6/6 1330/6/6
f 1327/5/6 1328/5/6 1331/5/6
f 1331/5/6 1328/5/6 1332/5/6
f 1329/5/6 1330/5/6 1333/5/6
f 1333/5/6 1330/5/6 1334/5/6
f 1333/6/6 1334/6/6 1335/6/6
f 1335/6/6 1334/6/6 1336/6/6
f 1331/6/6 1332/6/6 1337/6/6
f 1337/6/6 1332/6/6 1338/6/6
f 1335/5/6 1336/5/6 1339/5/6
f 1337/5/6 1338/5/6 1340/5/6
f 1340/5/6 1338/5/6 1341/5/6
f 1339/5/6 1336/5/6 1344/5/6
f 1344/5/6 1336/5/6 1345/5/6
f 1341/5/6 1342/5/6 1346/5/6
f 1346/5/6 1342/5/6 1347/5/6
f 1343/5/6 1344/5/6 1348/5/6
f 1348/5/6 1344/5/6 1349/5/6
f 1350/6/6 1351/6/6 1359/6/6
f 1351/5/6 1352/5/6 1360/5/6
f 1359/6/6 1351/6/6 1360/6/6
f 1352/6/6 1353/6/6 1361/6/6
f 1360/5/6 1352/5/6 1361/5/6
f 1361/6/6 1353/6/6 1362/6/6
f 1354/5/6 1355/5/6 1363/5/6
f 1355/6/6 1356/6/6 1364/6/6
f 1363/5/6 1355/5/6 1364/5/6
f 1356/5/6 1357/5/6 1365/5/6
f 1364/6/6 1356/6/6 1365/6/6
f 1365/5/6 1357/5/6 1366/5/6
f 1358/5/6 1359/5/6 1369/5/6
f 1369/5/6 1359/5/6 1370/5/6
f 1365/5/6 1366/5/6 1371/5/6
f 1366/6/6 1367/6/6 1372/6/6
f 1371/5/6 1366/5/6 1372/5/6
f 1372/6/6 1367/6/6 1373/6/6
f 1373/6/6 1367/6/6 1374/6/6
f 1368/6/6 1369/6/6 1375/6/6
f 1375/6/6 1369/6/6 1376/6/6
f 1377/6/6 1378/6/6 1383/6/6
f 1383/6/6 1378/6/6 1384/6/6
f 1380/5/6 1381/5/6 1385/5/6
f 1379/5/6 1380/5/6 1385/5/6
f 1385/5/6 1381/5/6 1386/5/6
f 1386/5/6 1381/5/6 1387/5/6
f 1383/5/6 1384/5/6 1392/5/6
f 1382/5/6 1383/5/6 1392/5/6
f 1392/5/6 1384/5/6 1393/5/6
f 1393/5/6 1384/5/6 1394/5/6
f 1386/6/6 1387/6/6 1395/6/6
f 1387/5/6 1388/5/6 1396/5/6
f 1395/6/6 1387/6/6 1396/6/6
f 1389/6/6 1390/6/6 1397/6/6
f 1396/5/6 1388/5/6 1397/5/6
f 1388/6/6 1389/6/6 1397/6/6
f 1390/5/6 1391/5/6 1398/5/6
f 1397/6/6 1390/6/6 1398/6/6
f 1392/6/6 1393/6/6 1399/6/6
f 1398/5/6 1391/5/6 1399/5/6
f 1391/6/6 1392/6/6 1399/6/6
f 1399/6/6 1393/6/6 1400/6/6
f 1401/5/6 1402/5/6 1407/5/6
f 1402/6/6 1403/6/6 1408/6/6
f 1407/5/6 1402/5/6 1408/5/6
f 1403/5/6 1404/5/6 1409/5/6
f 1408/6/6 1403/6/6 1409/6/6
f 1404/6/6 1405/6/6 1410/6/6
f 1409/5/6 1404/5/6 1410/5/6
f 1410/6/6 1405/6/6 1411/6/6
f 1411/6/6 1405/6/6 1412/6/6
f 1412/6/6 1405/6/6 1413/6/6
f 1408/6/6 1409/6/6 1415/6/6
f 1406/6/6 1407/6/6 1415/6/6
f 1407/6/6 1408/6/6 1415/6/6
f 1409/6/6 1410/6/6 1415/6/6
f 1410/5/6 1411/5/6 1416/5/6
f 1415/6/6 1410/6/6 1416/6/6
f 1411/6/6 1412/6/6 1417/6/6
f 1416/5/6 1411/5/6 1417/5/6
f 1413/5/6 1414/5/6 1418/5/6
f 1417/6/6 1412/6/6 1418/6/6
f 1412/5/6 1413/5/6 1418/5/6
f 1418/5/6 1414/5/6 1419/5/6
f 1406/6/6 1415/6/6 1422/6/6
f 1416/5/6 1417/5/6 1423/5/6
f 1415/5/6 1416/5/6 1423/5/6
f 1422/6/6 1415/6/6 1423/6/6
f 1417/5/6 1418/5/6 1423/5/6
f 1423/5/6 1418/5/6 1424/5/6
f 1424/5/6 1418/5/6 1425/5/6
f 1418/6/6 1419/6/6 1426/6/6
f 1425/5/6 1418/5/6 1426/5/6
f 1426/6/6 1419/6/6 1427/6/6
f 1421/6/6 1422/6/6 1428/6/6
f 1422/6/6 1423/6/6 1428/6/6
f 1423/6/6 1424/6/6 1428/6/6
f 1428/6/6 1424/6/6 1429/6/6
f 1429/6/6 1424/6/6 1430/6/6
f 1424/5/6 1425/5/6 1431/5/6
f 1430/6/6 1424/6/6 1431/6/6
f 1425/6/6 1426/6/6 1432/6/6
f 1431/5/6 1425/5/6 1432/5/6
f 1429/6/6 1430/6/6 1433/6/6
f 1428/5/6 1429/5/6 1433/5/6
f 1430/5/6 1431/5/6 1434/5/6
f 1433/6/6 1430/6/6 1434/6/6
f 1434/5/6 1431/5/6 1435/5/6
f 1431/6/6 1432/6/6 1436/6/6
f 1435/5/6 1431/5/6 1436/5/6
f 1432/6/6 1426/6/6 1437/6/6
f 1436/6/6 1432/6/6 1437/6/6
f 1426/5/6 1427/5/6 1437/5/6
f 1433/5/6 1434/5/6 1438/5/6
f 1428/5/6 1433/5/6 1438/5/6
f 1434/5/6 1435/5/6 1438/5/6
f 1438/5/6 1435/5/6 1439/5/6
f 1435/6/6 1436/6/6 1440/6/6
f 1439/5/6 1435/5/6 1440/5/6
f 1436/5/6 1437/5/6 1441/5/6
f 1440/6/6 1436/6/6 1441/6/6
f 1441/5/6 1437/5/6 1442/5/6
f 1427/6/6 1419/6/6 1443/6/6
f 1442/5/6 1437/5/6 1443/5/6
f 1437/5/6 1427/5/6 1443/5/6
f 1419/5/6 1420/5/6 1444/5/6
f 1443/6/6 1419/6/6 1444/6/6
f 1438/6/6 1439/6/6 1445/6/6
f 1445/6/6 1439/6/6 1446/6/6
f 1441/5/6 1442/5/6 1447/5/6
f 1446/6/6 1439/6/6 1447/6/6
f 1440/5/6 1441/5/6 1447/5/6
f 1439/5/6 1440/5/6 1447/5/6
f 1442/6/6 1443/6/6 1448/6/6
f 1447/5/6 1442/5/6 1448/5/6
f 1448/6/6 1443/6/6 1449/6/6
f 1443/5/6 1444/5/6 1450/5/6
f 1449/6/6 1443/6/6 1450/6/6
f 1444/5/6 1420/5/6 1451/5/6
f 1450/5/6 1444/5/6 1451/5/6
f 1451/5/6 1420/5/6 1452/5/6
f 1445/5/6 1446/5/6 1453/5/6
f 1446/6/6 1447/6/6 1454/6/6
f 1453/5/6 1446/5/6 1454/5/6
f 1448/6/6 1449/6/6 1454/6/6
f 1447/6/6 1448/6/6 1454/6/6
f 1454/6/6 1449/6/6 1455/6/6
f 1455/6/6 1449/6/6 1456/6/6
f 1456/6/6 1449/6/6 1457/6/6
f 1449/5/6 1450/5/6 1458/5/6
f 1457/6/6 1449/6/6 1458/6/6
f 1450/6/6 1451/6/6 1459/6/6
f 1458/5/6 1450/5/6 1459/5/6
f 1459/6/6 1451/6/6 1460/6/6
f 1455/5/6 1456/5/6 1461/5/6
f 1456/6/6 1457/6/6 1462/6/6
f 1461/5/6 1456/5/6 1462/5/6
f 1457/5/6 1458/5/6 1463/5/6
f 1462/6/6 1457/6/6 1463/6/6
f 1458/5/6 1459/5/6 1463/5/6
f 1463/5/6 1459/5/6 1464/5/6
