# MagicaVoxel @ Ephtracy

# group
o 

# material
mtllib RedPlayer1.mtl
usemtl palette

# normals
vn -1 0 0
vn 1 0 0
vn 0 0 1
vn 0 0 -1
vn 0 -1 0
vn 0 1 0

# texcoords
vt 0.0136719 0.5
vt 0.0332031 0.5
vt 0.0566406 0.5
vt 0.0644531 0.5
vt 0.0839844 0.5
vt 0.119141 0.5
vt 0.248047 0.5
vt 0.982422 0.5
vt 0.994141 0.5

# verts
v -0.7 2.2 0
v -0.7 2.2 -0.1
v -0.7 2.5 0
v -0.7 2.5 -0.1
v -0.6 1.3 0.1
v -0.6 1.3 -0.1
v -0.6 1.6 0
v -0.6 1.6 -0.1
v -0.6 1.7 0.1
v -0.6 1.7 0
v -0.6 1.8 0.1
v -0.6 1.8 -0.1
v -0.6 1.9 0.1
v -0.6 1.9 -0.1
v -0.5 1.9 0.3
v -0.5 1.9 0.1
v -0.5 1.9 -0.1
v -0.5 1.9 -0.3
v -0.5 2 0.5
v -0.5 2 0.3
v -0.5 2 -0.3
v -0.5 2 -0.4
v -0.5 2.2 0
v -0.5 2.2 -0.1
v -0.5 2.2 -0.3
v -0.5 2.2 -0.4
v -0.5 2.4 0.5
v -0.5 2.4 0
v -0.5 2.5 0
v -0.5 2.5 -0.1
v -0.5 2.6 -0.1
v -0.5 2.6 -0.4
v -0.5 2.7 0.5
v -0.5 2.7 0.4
v -0.5 2.7 -0.3
v -0.5 2.7 -0.4
v -0.5 2.8 0.4
v -0.5 2.8 -0.3
v -0.4 1 0.2
v -0.4 1 -0.2
v -0.4 1.2 0.2
v -0.4 1.2 -0.1
v -0.4 1.2 -0.2
v -0.4 1.3 0.1
v -0.4 1.3 -0.1
v -0.4 1.4 0.3
v -0.4 1.4 0.2
v -0.4 1.4 -0.1
v -0.4 1.4 -0.2
v -0.4 1.5 0.3
v -0.4 1.5 0.1
v -0.4 1.5 -0.1
v -0.4 1.5 -0.2
v -0.4 1.6 0.1
v -0.4 1.6 -0.1
v -0.4 1.7 0.1
v -0.4 1.7 -0.1
v -0.4 1.8 0.3
v -0.4 1.8 0.2
v -0.4 1.8 -0.1
v -0.4 1.8 -0.2
v -0.4 1.9 0.5
v -0.4 1.9 0.3
v -0.4 1.9 0.2
v -0.4 1.9 0.1
v -0.4 2 0.5
v -0.4 2 0.3
v -0.4 2.5 -0.4
v -0.4 2.5 -0.5
v -0.4 2.6 -0.4
v -0.4 2.6 -0.5
v -0.4 2.7 0.5
v -0.4 2.7 0.4
v -0.4 2.7 -0.3
v -0.4 2.7 -0.4
v -0.4 2.8 0.5
v -0.4 2.8 0.4
v -0.4 2.8 -0.3
v -0.4 2.8 -0.4
v -0.3 1.8 0.3
v -0.3 1.8 0.2
v -0.3 1.8 -0.1
v -0.3 1.8 -0.2
v -0.3 1.9 0.3
v -0.3 1.9 0.2
v -0.3 1.9 -0.1
v -0.3 1.9 -0.2
v -0.3 1.9 -0.3
v -0.3 1.9 -0.4
v -0.3 2 -0.3
v -0.3 2 -0.4
v -0.1 2.1 0.6
v -0.1 2.1 0.5
v -0.1 2.1 -0.4
v -0.1 2.1 -0.5
v -0.1 2.2 0.7
v -0.1 2.2 0.6
v -0.1 2.2 0.5
v -0.1 2.4 -0.4
v -0.1 2.4 -0.5
v -0.1 2.7 -0.4
v -0.1 2.7 -0.5
v -0.1 2.8 0.7
v -0.1 2.8 0.6
v -0.1 2.8 0.5
v -0.1 2.8 -0.4
v -0.1 2.8 -0.5
v -0.1 2.8 -0.6
v -0.1 2.9 0.6
v -0.1 2.9 0.5
v -0.1 2.9 -0.5
v -0.1 2.9 -0.6
v -0.1 3 0.5
v -0.1 3 -0.5
v 0.1 1 0.2
v 0.1 1 -0.2
v 0.1 1.2 0.2
v 0.1 1.2 0
v 0.1 1.2 -0.1
v 0.1 1.2 -0.2
v 0.1 1.3 0
v 0.1 1.3 -0.1
v 0.1 1.4 0.3
v 0.1 1.4 0.2
v 0.1 1.4 -0.1
v 0.1 1.5 0.3
v 0.1 1.5 0.2
v 0.1 2.5 -0.4
v 0.1 2.5 -0.5
v 0.1 2.6 -0.4
v 0.1 2.6 -0.5
v -0.1 1 0.2
v -0.1 1 -0.2
v -0.1 1.2 0.2
v -0.1 1.2 -0.1
v -0.1 1.2 -0.2
v -0.1 1.3 0.2
v -0.1 1.3 0.1
v -0.1 1.4 0.3
v -0.1 1.4 0.2
v -0.1 1.4 0.1
v -0.1 1.4 -0.1
v -0.1 1.5 0.3
v -0.1 1.5 0.2
v -0.1 2.5 -0.4
v -0.1 2.5 -0.5
v -0.1 2.6 -0.4
v -0.1 2.6 -0.5
v 0.1 2.1 0.6
v 0.1 2.1 0.5
v 0.1 2.1 -0.4
v 0.1 2.1 -0.5
v 0.1 2.2 0.7
v 0.1 2.2 0.6
v 0.1 2.2 0.5
v 0.1 2.4 -0.4
v 0.1 2.4 -0.5
v 0.1 2.7 -0.4
v 0.1 2.7 -0.5
v 0.1 2.8 0.7
v 0.1 2.8 0.6
v 0.1 2.8 0.5
v 0.1 2.8 -0.4
v 0.1 2.8 -0.5
v 0.1 2.8 -0.6
v 0.1 2.9 0.6
v 0.1 2.9 0.5
v 0.1 2.9 -0.5
v 0.1 2.9 -0.6
v 0.1 3 0.5
v 0.1 3 -0.5
v 0.3 1.8 0.3
v 0.3 1.8 0.2
v 0.3 1.8 -0.1
v 0.3 1.8 -0.2
v 0.3 1.9 0.3
v 0.3 1.9 0.2
v 0.3 1.9 -0.1
v 0.3 1.9 -0.2
v 0.3 1.9 -0.3
v 0.3 1.9 -0.4
v 0.3 2 -0.3
v 0.3 2 -0.4
v 0.4 1 0.2
v 0.4 1 -0.2
v 0.4 1.2 0.2
v 0.4 1.2 -0.1
v 0.4 1.2 -0.2
v 0.4 1.3 0.1
v 0.4 1.3 -0.1
v 0.4 1.4 0.3
v 0.4 1.4 0.2
v 0.4 1.4 -0.1
v 0.4 1.4 -0.2
v 0.4 1.5 0.3
v 0.4 1.5 0.1
v 0.4 1.5 -0.1
v 0.4 1.5 -0.2
v 0.4 1.8 0.3
v 0.4 1.8 0.2
v 0.4 1.8 -0.1
v 0.4 1.8 -0.2
v 0.4 1.9 0.5
v 0.4 1.9 0.3
v 0.4 1.9 0.2
v 0.4 1.9 0.1
v 0.4 2 0.5
v 0.4 2 0.3
v 0.4 2.5 -0.4
v 0.4 2.5 -0.5
v 0.4 2.6 -0.4
v 0.4 2.6 -0.5
v 0.4 2.7 0.5
v 0.4 2.7 0.4
v 0.4 2.7 -0.3
v 0.4 2.7 -0.4
v 0.4 2.8 0.5
v 0.4 2.8 0.4
v 0.4 2.8 -0.3
v 0.4 2.8 -0.4
v 0.5 1.9 0.3
v 0.5 1.9 0.1
v 0.5 1.9 -0.1
v 0.5 1.9 -0.3
v 0.5 2 0.5
v 0.5 2 0.3
v 0.5 2 -0.3
v 0.5 2 -0.4
v 0.5 2.2 0
v 0.5 2.2 -0.1
v 0.5 2.2 -0.3
v 0.5 2.2 -0.4
v 0.5 2.4 0.5
v 0.5 2.4 0
v 0.5 2.5 0
v 0.5 2.5 -0.1
v 0.5 2.6 -0.1
v 0.5 2.6 -0.4
v 0.5 2.7 0.5
v 0.5 2.7 0.4
v 0.5 2.7 -0.3
v 0.5 2.7 -0.4
v 0.5 2.8 0.4
v 0.5 2.8 -0.3
v 0.6 1.3 0.1
v 0.6 1.3 -0.1
v 0.6 1.9 0.1
v 0.6 1.9 -0.1
v 0.7 2.2 0
v 0.7 2.2 -0.1
v 0.7 2.5 0
v 0.7 2.5 -0.1
v -0.1 2.2 0.7
v -0.1 2.8 0.7
v 0.1 2.2 0.7
v 0.1 2.8 0.7
v -0.1 2.1 0.6
v -0.1 2.2 0.6
v -0.1 2.8 0.6
v -0.1 2.9 0.6
v 0.1 2.1 0.6
v 0.1 2.2 0.6
v 0.1 2.8 0.6
v 0.1 2.9 0.6
v -0.5 2 0.5
v -0.5 2.4 0.5
v -0.5 2.7 0.5
v -0.4 1.9 0.5
v -0.4 2 0.5
v -0.4 2.2 0.5
v -0.4 2.4 0.5
v -0.4 2.7 0.5
v -0.4 2.8 0.5
v -0.1 2.1 0.5
v -0.1 2.2 0.5
v -0.1 2.8 0.5
v -0.1 2.9 0.5
v -0.1 3 0.5
v 0.1 2.1 0.5
v 0.1 2.2 0.5
v 0.1 2.8 0.5
v 0.1 2.9 0.5
v 0.1 3 0.5
v 0.4 1.9 0.5
v 0.4 2 0.5
v 0.4 2.2 0.5
v 0.4 2.4 0.5
v 0.4 2.7 0.5
v 0.4 2.8 0.5
v 0.5 2 0.5
v 0.5 2.4 0.5
v 0.5 2.7 0.5
v -0.5 2.7 0.4
v -0.5 2.8 0.4
v -0.4 2.7 0.4
v -0.4 2.8 0.4
v 0.4 2.7 0.4
v 0.4 2.8 0.4
v 0.5 2.7 0.4
v 0.5 2.8 0.4
v -0.5 1.9 0.3
v -0.5 2 0.3
v -0.4 1.4 0.3
v -0.4 1.5 0.3
v -0.4 1.8 0.3
v -0.4 1.9 0.3
v -0.4 2 0.3
v -0.3 1.8 0.3
v -0.3 1.9 0.3
v -0.2 1.7 0.3
v -0.2 1.9 0.3
v -0.1 1.4 0.3
v -0.1 1.5 0.3
v 0.1 1.4 0.3
v 0.1 1.5 0.3
v 0.2 1.7 0.3
v 0.2 1.9 0.3
v 0.3 1.8 0.3
v 0.3 1.9 0.3
v 0.4 1.4 0.3
v 0.4 1.5 0.3
v 0.4 1.8 0.3
v 0.4 1.9 0.3
v 0.4 2 0.3
v 0.5 1.9 0.3
v 0.5 2 0.3
v -0.4 1 0.2
v -0.4 1.2 0.2
v -0.4 1.4 0.2
v -0.4 1.8 0.2
v -0.4 1.9 0.2
v -0.3 1.8 0.2
v -0.3 1.9 0.2
v -0.2 1.3 0.2
v -0.2 1.4 0.2
v -0.1 1 0.2
v -0.1 1.2 0.2
v -0.1 1.3 0.2
v -0.1 1.4 0.2
v -0.1 1.5 0.2
v 0.1 1 0.2
v 0.1 1.2 0.2
v 0.1 1.4 0.2
v 0.1 1.5 0.2
v 0.2 1.2 0.2
v 0.2 1.3 0.2
v 0.3 1.2 0.2
v 0.3 1.3 0.2
v 0.3 1.8 0.2
v 0.3 1.9 0.2
v 0.4 1 0.2
v 0.4 1.2 0.2
v 0.4 1.4 0.2
v 0.4 1.8 0.2
v 0.4 1.9 0.2
v -0.6 1.3 0.1
v -0.6 1.7 0.1
v -0.6 1.8 0.1
v -0.6 1.9 0.1
v -0.5 1.6 0.1
v -0.5 1.7 0.1
v -0.5 1.8 0.1
v -0.5 1.9 0.1
v -0.4 1.3 0.1
v -0.4 1.5 0.1
v -0.4 1.6 0.1
v -0.4 1.7 0.1
v -0.4 1.9 0.1
v 0.4 1.3 0.1
v 0.4 1.5 0.1
v 0.4 1.9 0.1
v 0.5 1.9 0.1
v 0.6 1.3 0.1
v 0.6 1.9 0.1
v -0.7 2.2 0
v -0.7 2.5 0
v -0.5 2.2 0
v -0.5 2.4 0
v -0.5 2.5 0
v 0.5 2.2 0
v 0.5 2.4 0
v 0.5 2.5 0
v 0.7 2.2 0
v 0.7 2.5 0
v -0.7 2.2 -0.1
v -0.7 2.5 -0.1
v -0.6 1.3 -0.1
v -0.6 1.6 -0.1
v -0.6 1.8 -0.1
v -0.6 1.9 -0.1
v -0.5 1.7 -0.1
v -0.5 1.8 -0.1
v -0.5 1.9 -0.1
v -0.5 2.2 -0.1
v -0.5 2.5 -0.1
v -0.4 1.2 -0.1
v -0.4 1.3 -0.1
v -0.4 1.4 -0.1
v -0.4 1.5 -0.1
v -0.4 1.6 -0.1
v -0.4 1.7 -0.1
v -0.4 1.8 -0.1
v -0.4 1.9 -0.1
v -0.3 1.4 -0.1
v -0.3 1.8 -0.1
v -0.3 1.9 -0.1
v -0.1 1.2 -0.1
v -0.1 1.4 -0.1
v 0.1 1.2 -0.1
v 0.1 1.3 -0.1
v 0.1 1.4 -0.1
v 0.2 1.2 -0.1
v 0.2 1.3 -0.1
v 0.3 1.2 -0.1
v 0.3 1.8 -0.1
v 0.3 1.9 -0.1
v 0.4 1.2 -0.1
v 0.4 1.3 -0.1
v 0.4 1.4 -0.1
v 0.4 1.5 -0.1
v 0.4 1.8 -0.1
v 0.4 1.9 -0.1
v 0.5 1.9 -0.1
v 0.5 2.2 -0.1
v 0.5 2.5 -0.1
v 0.6 1.3 -0.1
v 0.6 1.9 -0.1
v 0.7 2.2 -0.1
v 0.7 2.5 -0.1
v -0.4 1 -0.2
v -0.4 1.2 -0.2
v -0.4 1.4 -0.2
v -0.4 1.5 -0.2
v -0.4 1.8 -0.2
v -0.3 1.4 -0.2
v -0.3 1.5 -0.2
v -0.3 1.6 -0.2
v -0.3 1.8 -0.2
v -0.3 1.9 -0.2
v -0.2 1.7 -0.2
v -0.2 1.9 -0.2
v -0.1 1 -0.2
v -0.1 1.2 -0.2
v -0.1 1.5 -0.2
v -0.1 1.6 -0.2
v 0.1 1 -0.2
v 0.1 1.2 -0.2
v 0.2 1.1 -0.2
v 0.2 1.2 -0.2
v 0.2 1.7 -0.2
v 0.2 1.8 -0.2
v 0.2 1.9 -0.2
v 0.3 1.1 -0.2
v 0.3 1.2 -0.2
v 0.3 1.7 -0.2
v 0.3 1.8 -0.2
v 0.3 1.9 -0.2
v 0.4 1 -0.2
v 0.4 1.2 -0.2
v 0.4 1.4 -0.2
v 0.4 1.5 -0.2
v 0.4 1.8 -0.2
v -0.5 1.9 -0.3
v -0.5 2 -0.3
v -0.5 2.7 -0.3
v -0.5 2.8 -0.3
v -0.4 2.7 -0.3
v -0.4 2.8 -0.3
v -0.3 1.9 -0.3
v -0.3 2 -0.3
v 0.3 1.9 -0.3
v 0.3 2 -0.3
v 0.4 2.7 -0.3
v 0.4 2.8 -0.3
v 0.5 1.9 -0.3
v 0.5 2 -0.3
v 0.5 2.7 -0.3
v 0.5 2.8 -0.3
v -0.5 2 -0.4
v -0.5 2.2 -0.4
v -0.5 2.6 -0.4
v -0.5 2.7 -0.4
v -0.4 2.4 -0.4
v -0.4 2.5 -0.4
v -0.4 2.6 -0.4
v -0.4 2.7 -0.4
v -0.4 2.8 -0.4
v -0.3 1.9 -0.4
v -0.3 2 -0.4
v -0.3 2.2 -0.4
v -0.3 2.4 -0.4
v -0.3 2.6 -0.4
v -0.3 2.7 -0.4
v -0.2 2.2 -0.4
v -0.2 2.5 -0.4
v -0.1 2.1 -0.4
v -0.1 2.4 -0.4
v -0.1 2.5 -0.4
v -0.1 2.6 -0.4
v -0.1 2.7 -0.4
v -0.1 2.8 -0.4
v 0.1 2.1 -0.4
v 0.1 2.4 -0.4
v 0.1 2.5 -0.4
v 0.1 2.6 -0.4
v 0.1 2.7 -0.4
v 0.1 2.8 -0.4
v 0.2 2.2 -0.4
v 0.2 2.5 -0.4
v 0.2 2.6 -0.4
v 0.3 1.9 -0.4
v 0.3 2 -0.4
v 0.3 2.2 -0.4
v 0.3 2.4 -0.4
v 0.3 2.5 -0.4
v 0.3 2.6 -0.4
v 0.3 2.7 -0.4
v 0.4 2.4 -0.4
v 0.4 2.5 -0.4
v 0.4 2.6 -0.4
v 0.4 2.7 -0.4
v 0.4 2.8 -0.4
v 0.5 2 -0.4
v 0.5 2.2 -0.4
v 0.5 2.6 -0.4
v 0.5 2.7 -0.4
v -0.4 2.5 -0.5
v -0.4 2.6 -0.5
v -0.1 2.1 -0.5
v -0.1 2.4 -0.5
v -0.1 2.5 -0.5
v -0.1 2.6 -0.5
v -0.1 2.7 -0.5
v -0.1 2.8 -0.5
v -0.1 2.9 -0.5
v -0.1 3 -0.5
v 0.1 2.1 -0.5
v 0.1 2.4 -0.5
v 0.1 2.5 -0.5
v 0.1 2.6 -0.5
v 0.1 2.7 -0.5
v 0.1 2.8 -0.5
v 0.1 2.9 -0.5
v 0.1 3 -0.5
v 0.2 2.5 -0.5
v 0.2 2.6 -0.5
v 0.3 2.5 -0.5
v 0.3 2.6 -0.5
v 0.4 2.5 -0.5
v 0.4 2.6 -0.5
v -0.1 2.8 -0.6
v -0.1 2.9 -0.6
v 0.1 2.8 -0.6
v 0.1 2.9 -0.6
v -0.4 1 0.2
v -0.1 1 0.2
v 0.1 1 0.2
v 0.4 1 0.2
v -0.4 1 -0.2
v -0.1 1 -0.2
v 0.1 1 -0.2
v 0.4 1 -0.2
v -0.6 1.3 0.1
v -0.4 1.3 0.1
v 0.4 1.3 0.1
v 0.6 1.3 0.1
v -0.6 1.3 -0.1
v -0.4 1.3 -0.1
v 0.4 1.3 -0.1
v 0.6 1.3 -0.1
v -0.4 1.4 0.3
v -0.1 1.4 0.3
v 0.1 1.4 0.3
v 0.4 1.4 0.3
v -0.4 1.4 0.2
v -0.2 1.4 0.2
v -0.1 1.4 0.2
v 0.1 1.4 0.2
v 0.4 1.4 0.2
v -0.1 1.4 0.1
v -0.4 1.4 -0.1
v -0.3 1.4 -0.1
v -0.1 1.4 -0.1
v 0.1 1.4 -0.1
v 0.4 1.4 -0.1
v -0.4 1.4 -0.2
v -0.3 1.4 -0.2
v 0.4 1.4 -0.2
v -0.1 1.5 0.3
v 0.1 1.5 0.3
v -0.1 1.5 0.2
v 0.1 1.5 0.2
v -0.4 1.9 0.5
v 0.4 1.9 0.5
v -0.5 1.9 0.3
v -0.4 1.9 0.3
v -0.3 1.9 0.3
v -0.2 1.9 0.3
v 0.2 1.9 0.3
v 0.3 1.9 0.3
v 0.4 1.9 0.3
v 0.5 1.9 0.3
v -0.4 1.9 0.2
v -0.3 1.9 0.2
v 0.3 1.9 0.2
v 0.4 1.9 0.2
v -0.5 1.9 0.1
v -0.4 1.9 0.1
v 0.4 1.9 0.1
v 0.5 1.9 0.1
v -0.5 1.9 -0.1
v -0.4 1.9 -0.1
v -0.3 1.9 -0.1
v 0.3 1.9 -0.1
v 0.4 1.9 -0.1
v 0.5 1.9 -0.1
v -0.3 1.9 -0.2
v -0.2 1.9 -0.2
v 0.2 1.9 -0.2
v 0.3 1.9 -0.2
v -0.5 1.9 -0.3
v -0.3 1.9 -0.3
v 0.3 1.9 -0.3
v 0.5 1.9 -0.3
v -0.3 1.9 -0.4
v 0.3 1.9 -0.4
v -0.5 2 0.5
v -0.4 2 0.5
v 0.4 2 0.5
v 0.5 2 0.5
v -0.5 2 0.3
v -0.4 2 0.3
v 0.4 2 0.3
v 0.5 2 0.3
v -0.5 2 -0.3
v -0.3 2 -0.3
v 0.3 2 -0.3
v 0.5 2 -0.3
v -0.5 2 -0.4
v -0.3 2 -0.4
v 0.3 2 -0.4
v 0.5 2 -0.4
v -0.1 2.1 0.6
v 0.1 2.1 0.6
v -0.1 2.1 0.5
v 0.1 2.1 0.5
v -0.1 2.1 -0.4
v 0.1 2.1 -0.4
v -0.1 2.1 -0.5
v 0.1 2.1 -0.5
v -0.1 2.2 0.7
v 0.1 2.2 0.7
v -0.1 2.2 0.6
v 0.1 2.2 0.6
v -0.7 2.2 0
v -0.5 2.2 0
v 0.5 2.2 0
v 0.7 2.2 0
v -0.7 2.2 -0.1
v -0.5 2.2 -0.1
v 0.5 2.2 -0.1
v 0.7 2.2 -0.1
v -0.4 2.5 -0.4
v -0.2 2.5 -0.4
v -0.1 2.5 -0.4
v 0.1 2.5 -0.4
v 0.2 2.5 -0.4
v 0.3 2.5 -0.4
v 0.4 2.5 -0.4
v -0.4 2.5 -0.5
v -0.1 2.5 -0.5
v 0.1 2.5 -0.5
v 0.2 2.5 -0.5
v 0.3 2.5 -0.5
v 0.4 2.5 -0.5
v -0.1 2.7 -0.4
v 0.1 2.7 -0.4
v -0.1 2.7 -0.5
v 0.1 2.7 -0.5
v -0.1 2.8 -0.5
v 0.1 2.8 -0.5
v -0.1 2.8 -0.6
v 0.1 2.8 -0.6
v -0.4 1.2 -0.1
v -0.1 1.2 -0.1
v 0.1 1.2 -0.1
v 0.2 1.2 -0.1
v 0.3 1.2 -0.1
v 0.4 1.2 -0.1
v -0.4 1.2 -0.2
v -0.1 1.2 -0.2
v 0.1 1.2 -0.2
v 0.2 1.2 -0.2
v 0.3 1.2 -0.2
v 0.4 1.2 -0.2
v -0.4 1.8 0.3
v -0.3 1.8 0.3
v 0.3 1.8 0.3
v 0.4 1.8 0.3
v -0.4 1.8 0.2
v -0.3 1.8 0.2
v 0.3 1.8 0.2
v 0.4 1.8 0.2
v -0.4 1.8 -0.1
v -0.3 1.8 -0.1
v 0.3 1.8 -0.1
v 0.4 1.8 -0.1
v -0.4 1.8 -0.2
v -0.3 1.8 -0.2
v 0.3 1.8 -0.2
v 0.4 1.8 -0.2
v -0.6 1.9 0.1
v -0.5 1.9 0.1
v 0.5 1.9 0.1
v 0.6 1.9 0.1
v -0.6 1.9 -0.1
v -0.5 1.9 -0.1
v 0.5 1.9 -0.1
v 0.6 1.9 -0.1
v -0.1 2.4 -0.4
v 0.1 2.4 -0.4
v -0.1 2.4 -0.5
v 0.1 2.4 -0.5
v -0.7 2.5 0
v -0.5 2.5 0
v 0.5 2.5 0
v 0.7 2.5 0
v -0.7 2.5 -0.1
v -0.5 2.5 -0.1
v 0.5 2.5 -0.1
v 0.7 2.5 -0.1
v -0.4 2.6 -0.4
v -0.3 2.6 -0.4
v -0.1 2.6 -0.4
v 0.1 2.6 -0.4
v 0.2 2.6 -0.4
v 0.3 2.6 -0.4
v 0.4 2.6 -0.4
v -0.4 2.6 -0.5
v -0.1 2.6 -0.5
v 0.1 2.6 -0.5
v 0.2 2.6 -0.5
v 0.3 2.6 -0.5
v 0.4 2.6 -0.5
v -0.5 2.7 0.5
v -0.4 2.7 0.5
v 0.4 2.7 0.5
v 0.5 2.7 0.5
v -0.5 2.7 0.4
v -0.4 2.7 0.4
v 0.4 2.7 0.4
v 0.5 2.7 0.4
v -0.5 2.7 -0.3
v -0.4 2.7 -0.3
v 0.4 2.7 -0.3
v 0.5 2.7 -0.3
v -0.5 2.7 -0.4
v -0.4 2.7 -0.4
v 0.4 2.7 -0.4
v 0.5 2.7 -0.4
v -0.1 2.8 0.7
v 0.1 2.8 0.7
v -0.1 2.8 0.6
v 0.1 2.8 0.6
v -0.4 2.8 0.5
v -0.1 2.8 0.5
v 0.1 2.8 0.5
v 0.4 2.8 0.5
v -0.5 2.8 0.4
v -0.4 2.8 0.4
v 0.4 2.8 0.4
v 0.5 2.8 0.4
v -0.5 2.8 -0.3
v -0.4 2.8 -0.3
v 0.4 2.8 -0.3
v 0.5 2.8 -0.3
v -0.4 2.8 -0.4
v -0.1 2.8 -0.4
v 0.1 2.8 -0.4
v 0.4 2.8 -0.4
v -0.1 2.9 0.6
v 0.1 2.9 0.6
v -0.1 2.9 0.5
v 0.1 2.9 0.5
v -0.1 2.9 -0.5
v 0.1 2.9 -0.5
v -0.1 2.9 -0.6
v 0.1 2.9 -0.6
v -0.1 3 0.5
v 0.1 3 0.5
v -0.1 3 -0.5
v 0.1 3 -0.5

# faces
f 3/5/1 2/5/1 1/5/1
f 4/5/1 2/5/1 3/5/1
f 7/7/1 6/7/1 5/7/1
f 8/7/1 6/7/1 7/7/1
f 9/7/1 7/7/1 5/7/1
f 10/6/1 8/6/1 7/6/1
f 10/7/1 7/7/1 9/7/1
f 11/6/1 10/6/1 9/6/1
f 12/6/1 8/6/1 10/6/1
f 12/6/1 10/6/1 11/6/1
f 13/7/1 12/7/1 11/7/1
f 14/7/1 12/7/1 13/7/1
f 20/7/1 16/7/1 15/7/1
f 20/7/1 18/7/1 17/7/1
f 20/7/1 17/7/1 16/7/1
f 21/7/1 18/7/1 20/7/1
f 23/7/1 20/7/1 19/7/1
f 23/7/1 21/7/1 20/7/1
f 24/7/1 21/7/1 23/7/1
f 25/5/1 22/5/1 21/5/1
f 25/7/1 21/7/1 24/7/1
f 26/5/1 22/5/1 25/5/1
f 27/7/1 23/7/1 19/7/1
f 28/7/1 23/7/1 27/7/1
f 29/4/1 28/4/1 27/4/1
f 30/7/1 26/7/1 25/7/1
f 30/7/1 25/7/1 24/7/1
f 31/7/1 26/7/1 30/7/1
f 31/4/1 30/4/1 29/4/1
f 32/7/1 26/7/1 31/7/1
f 33/4/1 29/4/1 27/4/1
f 33/4/1 31/4/1 29/4/1
f 33/4/1 32/4/1 31/4/1
f 34/4/1 32/4/1 33/4/1
f 35/4/1 32/4/1 34/4/1
f 36/4/1 32/4/1 35/4/1
f 37/4/1 35/4/1 34/4/1
f 38/4/1 35/4/1 37/4/1
f 41/3/1 40/3/1 39/3/1
f 42/3/1 40/3/1 41/3/1
f 43/3/1 40/3/1 42/3/1
f 44/1/1 42/1/1 41/1/1
f 45/1/1 42/1/1 44/1/1
f 47/1/1 44/1/1 41/1/1
f 50/1/1 47/1/1 46/1/1
f 51/1/1 44/1/1 47/1/1
f 51/1/1 47/1/1 50/1/1
f 52/2/1 49/2/1 48/2/1
f 53/2/1 49/2/1 52/2/1
f 54/3/1 51/3/1 50/3/1
f 55/4/1 53/4/1 52/4/1
f 56/3/1 54/3/1 50/3/1
f 57/4/1 53/4/1 55/4/1
f 58/3/1 56/3/1 50/3/1
f 59/3/1 56/3/1 58/3/1
f 60/4/1 53/4/1 57/4/1
f 61/4/1 53/4/1 60/4/1
f 64/3/1 56/3/1 59/3/1
f 65/3/1 56/3/1 64/3/1
f 66/7/1 63/7/1 62/7/1
f 67/7/1 63/7/1 66/7/1
f 70/4/1 69/4/1 68/4/1
f 71/4/1 69/4/1 70/4/1
f 76/4/1 73/4/1 72/4/1
f 77/4/1 73/4/1 76/4/1
f 78/4/1 75/4/1 74/4/1
f 79/4/1 75/4/1 78/4/1
f 84/3/1 81/3/1 80/3/1
f 85/3/1 81/3/1 84/3/1
f 86/3/1 83/3/1 82/3/1
f 87/3/1 83/3/1 86/3/1
f 90/7/1 89/7/1 88/7/1
f 91/7/1 89/7/1 90/7/1
f 97/4/1 93/4/1 92/4/1
f 98/4/1 93/4/1 97/4/1
f 99/5/1 95/5/1 94/5/1
f 100/5/1 95/5/1 99/5/1
f 103/4/1 98/4/1 97/4/1
f 103/4/1 97/4/1 96/4/1
f 104/4/1 98/4/1 103/4/1
f 105/4/1 98/4/1 104/4/1
f 106/4/1 102/4/1 101/4/1
f 107/4/1 102/4/1 106/4/1
f 109/4/1 105/4/1 104/4/1
f 109/4/1 108/4/1 107/4/1
f 109/4/1 106/4/1 105/4/1
f 109/4/1 107/4/1 106/4/1
f 110/4/1 108/4/1 109/4/1
f 111/4/1 108/4/1 110/4/1
f 112/4/1 108/4/1 111/4/1
f 113/4/1 111/4/1 110/4/1
f 114/4/1 111/4/1 113/4/1
f 117/3/1 116/3/1 115/3/1
f 118/3/1 116/3/1 117/3/1
f 119/3/1 116/3/1 118/3/1
f 120/3/1 116/3/1 119/3/1
f 121/1/1 118/1/1 117/1/1
f 121/2/1 119/2/1 118/2/1
f 122/2/1 119/2/1 121/2/1
f 124/1/1 121/1/1 117/1/1
f 124/1/1 122/1/1 121/1/1
f 125/1/1 122/1/1 124/1/1
f 126/1/1 124/1/1 123/1/1
f 127/1/1 124/1/1 126/1/1
f 130/4/1 129/4/1 128/4/1
f 131/4/1 129/4/1 130/4/1
f 132/3/2 133/3/2 134/3/2
f 134/3/2 133/3/2 135/3/2
f 135/3/2 133/3/2 136/3/2
f 134/1/2 135/1/2 137/1/2
f 137/1/2 135/1/2 138/1/2
f 137/2/2 138/2/2 140/2/2
f 138/1/2 135/1/2 141/1/2
f 140/2/2 138/2/2 141/2/2
f 141/1/2 135/1/2 142/1/2
f 139/1/2 140/1/2 143/1/2
f 143/1/2 140/1/2 144/1/2
f 145/4/2 146/4/2 147/4/2
f 147/4/2 146/4/2 148/4/2
f 149/4/2 150/4/2 154/4/2
f 154/4/2 150/4/2 155/4/2
f 151/5/2 152/5/2 156/5/2
f 156/5/2 152/5/2 157/5/2
f 154/4/2 155/4/2 160/4/2
f 153/4/2 154/4/2 160/4/2
f 160/4/2 155/4/2 161/4/2
f 161/4/2 155/4/2 162/4/2
f 158/4/2 159/4/2 163/4/2
f 163/4/2 159/4/2 164/4/2
f 161/4/2 162/4/2 166/4/2
f 164/4/2 165/4/2 166/4/2
f 162/4/2 163/4/2 166/4/2
f 163/4/2 164/4/2 166/4/2
f 166/4/2 165/4/2 167/4/2
f 167/4/2 165/4/2 168/4/2
f 168/4/2 165/4/2 169/4/2
f 167/4/2 168/4/2 170/4/2
f 170/4/2 168/4/2 171/4/2
f 172/3/2 173/3/2 176/3/2
f 176/3/2 173/3/2 177/3/2
f 174/3/2 175/3/2 178/3/2
f 178/3/2 175/3/2 179/3/2
f 180/7/2 181/7/2 182/7/2
f 182/7/2 181/7/2 183/7/2
f 184/3/2 185/3/2 186/3/2
f 186/3/2 185/3/2 187/3/2
f 187/3/2 185/3/2 188/3/2
f 186/1/2 187/1/2 189/1/2
f 189/1/2 187/1/2 190/1/2
f 186/1/2 189/1/2 192/1/2
f 191/1/2 192/1/2 195/1/2
f 192/1/2 189/1/2 196/1/2
f 195/1/2 192/1/2 196/1/2
f 193/1/2 194/1/2 197/1/2
f 197/1/2 194/1/2 198/1/2
f 195/3/2 196/3/2 199/3/2
f 199/3/2 196/3/2 200/3/2
f 197/3/2 198/3/2 201/3/2
f 201/3/2 198/3/2 202/3/2
f 200/3/2 196/3/2 205/3/2
f 205/3/2 196/3/2 206/3/2
f 203/7/2 204/7/2 207/7/2
f 207/7/2 204/7/2 208/7/2
f 209/4/2 210/4/2 211/4/2
f 211/4/2 210/4/2 212/4/2
f 213/4/2 214/4/2 217/4/2
f 217/4/2 214/4/2 218/4/2
f 215/4/2 216/4/2 219/4/2
f 219/4/2 216/4/2 220/4/2
f 221/7/2 222/7/2 226/7/2
f 223/7/2 224/7/2 226/7/2
f 222/7/2 223/7/2 226/7/2
f 226/7/2 224/7/2 227/7/2
f 225/7/2 226/7/2 229/7/2
f 226/7/2 227/7/2 229/7/2
f 229/7/2 227/7/2 230/7/2
f 227/5/2 228/5/2 231/5/2
f 230/7/2 227/7/2 231/7/2
f 231/5/2 228/5/2 232/5/2
f 225/7/2 229/7/2 233/7/2
f 233/7/2 229/7/2 234/7/2
f 233/4/2 234/4/2 235/4/2
f 231/7/2 232/7/2 236/7/2
f 230/7/2 231/7/2 236/7/2
f 236/7/2 232/7/2 237/7/2
f 235/4/2 236/4/2 237/4/2
f 237/7/2 232/7/2 238/7/2
f 233/4/2 235/4/2 239/4/2
f 235/4/2 237/4/2 239/4/2
f 237/4/2 238/4/2 239/4/2
f 239/4/2 238/4/2 240/4/2
f 240/4/2 238/4/2 241/4/2
f 241/4/2 238/4/2 242/4/2
f 240/4/2 241/4/2 243/4/2
f 243/4/2 241/4/2 244/4/2
f 245/7/2 246/7/2 247/7/2
f 247/7/2 246/7/2 248/7/2
f 249/5/2 250/5/2 251/5/2
f 251/5/2 250/5/2 252/5/2
f 255/4/3 254/4/3 253/4/3
f 256/4/3 254/4/3 255/4/3
f 261/4/3 258/4/3 257/4/3
f 262/4/3 258/4/3 261/4/3
f 263/4/3 260/4/3 259/4/3
f 264/4/3 260/4/3 263/4/3
f 269/7/3 266/7/3 265/7/3
f 270/7/3 266/7/3 269/7/3
f 271/4/3 267/4/3 266/4/3
f 271/7/3 266/7/3 270/7/3
f 272/4/3 267/4/3 271/4/3
f 274/7/3 270/7/3 269/7/3
f 274/7/3 269/7/3 268/7/3
f 275/4/3 273/4/3 272/4/3
f 275/7/3 270/7/3 274/7/3
f 275/4/3 272/4/3 271/4/3
f 275/4/3 271/4/3 270/4/3
f 276/4/3 273/4/3 275/4/3
f 279/7/3 274/7/3 268/7/3
f 282/4/3 278/4/3 277/4/3
f 283/4/3 278/4/3 282/4/3
f 284/7/3 279/7/3 268/7/3
f 284/7/3 280/7/3 279/7/3
f 285/7/3 280/7/3 284/7/3
f 286/4/3 281/4/3 280/4/3
f 286/7/3 280/7/3 285/7/3
f 287/4/3 281/4/3 286/4/3
f 288/4/3 281/4/3 287/4/3
f 289/4/3 281/4/3 288/4/3
f 290/7/3 286/7/3 285/7/3
f 290/7/3 287/7/3 286/7/3
f 291/4/3 288/4/3 287/4/3
f 291/7/3 287/7/3 290/7/3
f 292/4/3 288/4/3 291/4/3
f 295/4/3 294/4/3 293/4/3
f 296/4/3 294/4/3 295/4/3
f 299/4/3 298/4/3 297/4/3
f 300/4/3 298/4/3 299/4/3
f 306/7/3 302/7/3 301/7/3
f 307/7/3 302/7/3 306/7/3
f 308/3/3 305/3/3 304/3/3
f 310/3/3 308/3/3 304/3/3
f 310/3/3 309/3/3 308/3/3
f 311/3/3 309/3/3 310/3/3
f 312/1/3 304/1/3 303/1/3
f 313/3/3 310/3/3 304/3/3
f 313/1/3 304/1/3 312/1/3
f 315/3/3 310/3/3 313/3/3
f 316/7/3 311/7/3 310/7/3
f 316/3/3 310/3/3 315/3/3
f 317/7/3 311/7/3 316/7/3
f 318/3/3 317/3/3 316/3/3
f 319/3/3 317/3/3 318/3/3
f 320/1/3 315/1/3 314/1/3
f 321/3/3 316/3/3 315/3/3
f 321/1/3 315/1/3 320/1/3
f 321/3/3 318/3/3 316/3/3
f 322/3/3 318/3/3 321/3/3
f 325/7/3 324/7/3 323/7/3
f 326/7/3 324/7/3 325/7/3
f 332/3/3 331/3/3 330/3/3
f 333/3/3 331/3/3 332/3/3
f 334/1/3 329/1/3 328/1/3
f 335/1/3 329/1/3 334/1/3
f 336/3/3 328/3/3 327/3/3
f 337/1/3 334/1/3 328/1/3
f 337/3/3 328/3/3 336/3/3
f 338/2/3 335/2/3 334/2/3
f 338/1/3 334/1/3 337/1/3
f 339/2/3 335/2/3 338/2/3
f 343/1/3 340/1/3 339/1/3
f 344/1/3 340/1/3 343/1/3
f 345/3/3 342/3/3 341/3/3
f 345/1/3 343/1/3 342/1/3
f 346/1/3 343/1/3 345/1/3
f 347/3/3 345/3/3 341/3/3
f 347/2/3 346/2/3 345/2/3
f 348/1/3 343/1/3 346/1/3
f 348/2/3 346/2/3 347/2/3
f 351/3/3 347/3/3 341/3/3
f 352/1/3 348/1/3 347/1/3
f 352/3/3 347/3/3 351/3/3
f 353/1/3 343/1/3 348/1/3
f 353/1/3 348/1/3 352/1/3
f 354/3/3 350/3/3 349/3/3
f 355/3/3 350/3/3 354/3/3
f 360/7/3 357/7/3 356/7/3
f 361/6/3 358/6/3 357/6/3
f 361/7/3 357/7/3 360/7/3
f 362/7/3 359/7/3 358/7/3
f 362/6/3 358/6/3 361/6/3
f 363/7/3 359/7/3 362/7/3
f 364/7/3 360/7/3 356/7/3
f 365/7/3 360/7/3 364/7/3
f 366/6/3 361/6/3 360/6/3
f 366/7/3 360/7/3 365/7/3
f 367/7/3 362/7/3 361/7/3
f 367/6/3 361/6/3 366/6/3
f 367/7/3 363/7/3 362/7/3
f 368/7/3 363/7/3 367/7/3
f 372/7/3 370/7/3 369/7/3
f 372/7/3 371/7/3 370/7/3
f 373/7/3 372/7/3 369/7/3
f 374/7/3 372/7/3 373/7/3
f 377/5/3 376/5/3 375/5/3
f 378/5/3 376/5/3 377/5/3
f 379/5/3 376/5/3 378/5/3
f 383/5/3 381/5/3 380/5/3
f 383/5/3 382/5/3 381/5/3
f 384/5/3 382/5/3 383/5/3
f 388/6/4 389/6/4 391/6/4
f 389/7/4 390/7/4 392/7/4
f 391/6/4 389/6/4 392/6/4
f 392/7/4 390/7/4 393/7/4
f 385/5/4 386/5/4 394/5/4
f 394/5/4 386/5/4 395/5/4
f 387/7/4 388/7/4 397/7/4
f 397/7/4 388/7/4 398/7/4
f 398/7/4 388/7/4 399/7/4
f 388/6/4 391/6/4 400/6/4
f 399/7/4 388/7/4 400/7/4
f 391/7/4 392/7/4 401/7/4
f 400/6/4 391/6/4 401/6/4
f 392/6/4 393/6/4 402/6/4
f 401/7/4 392/7/4 402/7/4
f 402/6/4 393/6/4 403/6/4
f 397/1/4 398/1/4 404/1/4
f 396/1/4 397/1/4 404/1/4
f 402/3/4 403/3/4 405/3/4
f 405/3/4 403/3/4 406/3/4
f 396/1/4 404/1/4 407/1/4
f 407/1/4 404/1/4 408/1/4
f 409/2/4 410/2/4 412/2/4
f 410/1/4 411/1/4 413/1/4
f 412/2/4 410/2/4 413/2/4
f 412/1/4 413/1/4 414/1/4
f 414/1/4 413/1/4 417/1/4
f 413/1/4 411/1/4 418/1/4
f 417/1/4 413/1/4 418/1/4
f 418/1/4 411/1/4 419/1/4
f 415/3/4 416/3/4 421/3/4
f 421/3/4 416/3/4 422/3/4
f 419/7/4 420/7/4 423/7/4
f 421/7/4 422/7/4 423/7/4
f 420/7/4 421/7/4 423/7/4
f 418/7/4 419/7/4 423/7/4
f 418/7/4 423/7/4 426/7/4
f 426/7/4 423/7/4 427/7/4
f 424/5/4 425/5/4 428/5/4
f 428/5/4 425/5/4 429/5/4
f 432/2/4 433/2/4 435/2/4
f 433/4/4 434/4/4 436/4/4
f 435/2/4 433/2/4 436/2/4
f 436/4/4 434/4/4 437/4/4
f 437/4/4 434/4/4 438/4/4
f 437/3/4 438/3/4 440/3/4
f 438/3/4 439/3/4 440/3/4
f 440/3/4 439/3/4 441/3/4
f 430/3/4 431/3/4 442/3/4
f 442/3/4 431/3/4 443/3/4
f 435/1/4 436/1/4 444/1/4
f 436/4/4 437/4/4 444/4/4
f 437/3/4 440/3/4 445/3/4
f 444/4/4 437/4/4 445/4/4
f 446/3/4 447/3/4 448/3/4
f 448/3/4 447/3/4 449/3/4
f 445/3/4 440/3/4 450/3/4
f 440/7/4 441/7/4 450/7/4
f 444/3/4 445/3/4 450/3/4
f 450/7/4 441/7/4 451/7/4
f 451/7/4 441/7/4 452/7/4
f 448/4/4 449/4/4 453/4/4
f 446/3/4 448/3/4 453/3/4
f 453/4/4 449/4/4 454/4/4
f 444/3/4 450/3/4 455/3/4
f 450/4/4 451/4/4 455/4/4
f 451/3/4 452/3/4 456/3/4
f 455/4/4 451/4/4 456/4/4
f 456/3/4 452/3/4 457/3/4
f 453/3/4 454/3/4 458/3/4
f 446/3/4 453/3/4 458/3/4
f 458/3/4 454/3/4 459/3/4
f 435/1/4 444/1/4 460/1/4
f 444/3/4 455/3/4 461/3/4
f 460/1/4 444/1/4 461/1/4
f 455/3/4 456/3/4 461/3/4
f 461/3/4 456/3/4 462/3/4
f 465/4/4 466/4/4 467/4/4
f 467/4/4 466/4/4 468/4/4
f 463/7/4 464/7/4 469/7/4
f 469/7/4 464/7/4 470/7/4
f 471/7/4 472/7/4 475/7/4
f 475/7/4 472/7/4 476/7/4
f 473/4/4 474/4/4 477/4/4
f 477/4/4 474/4/4 478/4/4
f 480/7/4 481/7/4 483/7/4
f 483/7/4 481/7/4 484/7/4
f 481/4/4 482/4/4 485/4/4
f 484/7/4 481/7/4 485/7/4
f 485/4/4 482/4/4 486/4/4
f 479/5/4 480/5/4 489/5/4
f 480/7/4 483/7/4 490/7/4
f 489/5/4 480/5/4 490/5/4
f 483/9/4 484/9/4 491/9/4
f 490/7/4 483/7/4 491/7/4
f 485/4/4 486/4/4 492/4/4
f 486/4/4 487/4/4 492/4/4
f 492/4/4 487/4/4 493/4/4
f 489/7/4 490/7/4 494/7/4
f 488/7/4 489/7/4 494/7/4
f 490/9/4 491/9/4 494/9/4
f 491/9/4 484/9/4 495/9/4
f 494/9/4 491/9/4 495/9/4
f 488/7/4 494/7/4 496/7/4
f 494/7/4 495/7/4 496/7/4
f 496/7/4 495/7/4 497/7/4
f 497/7/4 495/7/4 498/7/4
f 492/7/4 493/7/4 499/7/4
f 493/4/4 487/4/4 500/4/4
f 499/7/4 493/7/4 500/7/4
f 500/4/4 487/4/4 501/4/4
f 488/7/4 496/7/4 502/7/4
f 497/7/4 498/7/4 503/7/4
f 498/7/4 499/7/4 503/7/4
f 499/7/4 500/7/4 503/7/4
f 503/7/4 500/7/4 504/7/4
f 504/7/4 500/7/4 505/7/4
f 505/7/4 500/7/4 506/7/4
f 502/7/4 503/7/4 508/7/4
f 503/7/4 504/7/4 508/7/4
f 508/7/4 504/7/4 509/7/4
f 505/7/4 506/7/4 510/7/4
f 488/7/4 502/7/4 511/7/4
f 502/7/4 508/7/4 511/7/4
f 511/7/4 508/7/4 512/7/4
f 508/9/4 509/9/4 513/9/4
f 512/7/4 508/7/4 513/7/4
f 513/9/4 509/9/4 514/9/4
f 514/9/4 509/9/4 515/9/4
f 510/7/4 506/7/4 516/7/4
f 506/4/4 507/4/4 517/4/4
f 516/7/4 506/7/4 517/7/4
f 514/9/4 515/9/4 518/9/4
f 513/7/4 514/7/4 518/7/4
f 518/9/4 515/9/4 519/9/4
f 516/4/4 517/4/4 520/4/4
f 517/4/4 507/4/4 521/4/4
f 520/4/4 517/4/4 521/4/4
f 521/4/4 507/4/4 522/4/4
f 512/5/4 513/5/4 523/5/4
f 519/7/4 520/7/4 524/7/4
f 523/5/4 513/5/4 524/5/4
f 518/7/4 519/7/4 524/7/4
f 513/7/4 518/7/4 524/7/4
f 520/4/4 521/4/4 525/4/4
f 524/7/4 520/7/4 525/7/4
f 525/4/4 521/4/4 526/4/4
f 527/4/4 528/4/4 531/4/4
f 531/4/4 528/4/4 532/4/4
f 529/5/4 530/5/4 537/5/4
f 537/5/4 530/5/4 538/5/4
f 533/4/4 534/4/4 541/4/4
f 541/4/4 534/4/4 542/4/4
f 535/4/4 536/4/4 543/4/4
f 543/4/4 536/4/4 544/4/4
f 539/4/4 540/4/4 545/4/4
f 545/4/4 540/4/4 546/4/4
f 545/8/4 546/8/4 547/8/4
f 547/8/4 546/8/4 548/8/4
f 547/4/4 548/4/4 549/4/4
f 549/4/4 548/4/4 550/4/4
f 551/4/4 552/4/4 553/4/4
f 553/4/4 552/4/4 554/4/4
f 559/3/5 556/3/5 555/3/5
f 560/3/5 556/3/5 559/3/5
f 561/3/5 558/3/5 557/3/5
f 562/3/5 558/3/5 561/3/5
f 567/7/5 564/7/5 563/7/5
f 568/7/5 564/7/5 567/7/5
f 569/7/5 566/7/5 565/7/5
f 570/7/5 566/7/5 569/7/5
f 575/1/5 572/1/5 571/1/5
f 576/1/5 572/1/5 575/1/5
f 577/1/5 572/1/5 576/1/5
f 578/1/5 574/1/5 573/1/5
f 579/1/5 574/1/5 578/1/5
f 580/1/5 578/1/5 577/1/5
f 583/1/5 578/1/5 580/1/5
f 584/1/5 578/1/5 583/1/5
f 586/2/5 582/2/5 581/2/5
f 587/1/5 585/1/5 584/1/5
f 587/2/5 582/2/5 586/2/5
f 587/1/5 583/1/5 582/1/5
f 587/1/5 584/1/5 583/1/5
f 588/1/5 585/1/5 587/1/5
f 591/3/5 590/3/5 589/3/5
f 592/3/5 590/3/5 591/3/5
f 596/7/5 594/7/5 593/7/5
f 597/7/5 594/7/5 596/7/5
f 598/7/5 594/7/5 597/7/5
f 599/7/5 594/7/5 598/7/5
f 600/7/5 594/7/5 599/7/5
f 601/7/5 594/7/5 600/7/5
f 603/7/5 596/7/5 595/7/5
f 603/7/5 597/7/5 596/7/5
f 604/7/5 597/7/5 603/7/5
f 605/7/5 602/7/5 601/7/5
f 605/7/5 601/7/5 600/7/5
f 606/7/5 602/7/5 605/7/5
f 607/7/5 603/7/5 595/7/5
f 608/7/5 603/7/5 607/7/5
f 609/7/5 602/7/5 606/7/5
f 610/7/5 602/7/5 609/7/5
f 617/7/5 612/7/5 611/7/5
f 617/7/5 613/7/5 612/7/5
f 620/7/5 616/7/5 615/7/5
f 620/7/5 615/7/5 614/7/5
f 621/7/5 619/7/5 618/7/5
f 621/7/5 620/7/5 619/7/5
f 621/7/5 618/7/5 617/7/5
f 621/7/5 617/7/5 611/7/5
f 622/7/5 620/7/5 621/7/5
f 623/7/5 616/7/5 620/7/5
f 623/7/5 620/7/5 622/7/5
f 624/7/5 616/7/5 623/7/5
f 625/7/5 623/7/5 622/7/5
f 626/7/5 623/7/5 625/7/5
f 631/7/5 628/7/5 627/7/5
f 632/7/5 628/7/5 631/7/5
f 633/7/5 630/7/5 629/7/5
f 634/7/5 630/7/5 633/7/5
f 639/5/5 636/5/5 635/5/5
f 640/5/5 636/5/5 639/5/5
f 641/5/5 638/5/5 637/5/5
f 642/5/5 638/5/5 641/5/5
f 645/4/5 644/4/5 643/4/5
f 646/4/5 644/4/5 645/4/5
f 649/5/5 648/5/5 647/5/5
f 650/5/5 648/5/5 649/5/5
f 653/4/5 652/4/5 651/4/5
f 654/4/5 652/4/5 653/4/5
f 659/5/5 656/5/5 655/5/5
f 660/5/5 656/5/5 659/5/5
f 661/5/5 658/5/5 657/5/5
f 662/5/5 658/5/5 661/5/5
f 670/4/5 664/4/5 663/4/5
f 670/4/5 665/4/5 664/4/5
f 671/4/5 665/4/5 670/4/5
f 672/4/5 667/4/5 666/4/5
f 673/8/5 668/8/5 667/8/5
f 673/4/5 667/4/5 672/4/5
f 674/4/5 669/4/5 668/4/5
f 674/8/5 668/8/5 673/8/5
f 675/4/5 669/4/5 674/4/5
f 678/4/5 677/4/5 676/4/5
f 679/4/5 677/4/5 678/4/5
f 682/4/5 681/4/5 680/4/5
f 683/4/5 681/4/5 682/4/5
f 684/3/6 685/3/6 690/3/6
f 690/3/6 685/3/6 691/3/6
f 686/3/6 687/3/6 692/3/6
f 687/4/6 688/4/6 693/4/6
f 692/3/6 687/3/6 693/3/6
f 688/3/6 689/3/6 694/3/6
f 693/4/6 688/4/6 694/4/6
f 694/3/6 689/3/6 695/3/6
f 696/3/6 697/3/6 700/3/6
f 700/3/6 697/3/6 701/3/6
f 698/3/6 699/3/6 702/3/6
f 702/3/6 699/3/6 703/3/6
f 704/4/6 705/4/6 708/4/6
f 708/4/6 705/4/6 709/4/6
f 706/3/6 707/3/6 710/3/6
f 710/3/6 707/3/6 711/3/6
f 712/7/6 713/7/6 716/7/6
f 716/7/6 713/7/6 717/7/6
f 714/7/6 715/7/6 718/7/6
f 718/7/6 715/7/6 719/7/6
f 720/5/6 721/5/6 722/5/6
f 722/5/6 721/5/6 723/5/6
f 724/5/6 725/5/6 728/5/6
f 728/5/6 725/5/6 729/5/6
f 726/5/6 727/5/6 730/5/6
f 730/5/6 727/5/6 731/5/6
f 732/4/6 733/4/6 739/4/6
f 733/4/6 734/4/6 739/4/6
f 739/4/6 734/4/6 740/4/6
f 735/4/6 736/4/6 741/4/6
f 736/8/6 737/8/6 742/8/6
f 741/4/6 736/4/6 742/4/6
f 737/4/6 738/4/6 743/4/6
f 742/8/6 737/8/6 743/8/6
f 743/4/6 738/4/6 744/4/6
f 745/4/6 746/4/6 749/4/6
f 749/4/6 746/4/6 750/4/6
f 747/4/6 748/4/6 751/4/6
f 751/4/6 748/4/6 752/4/6
f 753/4/6 754/4/6 757/4/6
f 757/4/6 754/4/6 758/4/6
f 755/4/6 756/4/6 759/4/6
f 759/4/6 756/4/6 760/4/6
f 761/4/6 762/4/6 763/4/6
f 763/4/6 762/4/6 764/4/6
f 765/4/6 766/4/6 770/4/6
f 767/4/6 768/4/6 771/4/6
f 769/4/6 770/4/6 773/4/6
f 770/4/6 766/4/6 774/4/6
f 773/4/6 770/4/6 774/4/6
f 771/4/6 772/4/6 775/4/6
f 767/4/6 771/4/6 775/4/6
f 775/4/6 772/4/6 776/4/6
f 774/4/6 766/4/6 777/4/6
f 777/4/6 766/4/6 778/4/6
f 767/4/6 775/4/6 779/4/6
f 779/4/6 775/4/6 780/4/6
f 781/4/6 782/4/6 783/4/6
f 783/4/6 782/4/6 784/4/6
f 785/4/6 786/4/6 787/4/6
f 787/4/6 786/4/6 788/4/6
f 789/4/6 790/4/6 791/4/6
f 791/4/6 790/4/6 792/4/6
