# MagicaVoxel @ Ephtracy

# group
o 

# material
mtllib RedPlayer2.mtl
usemtl palette

# normals
vn -1 0 0
vn 1 0 0
vn 0 0 1
vn 0 0 -1
vn 0 -1 0
vn 0 1 0

# texcoords
vt 0.0136719 0.5
vt 0.0332031 0.5
vt 0.0566406 0.5
vt 0.0605469 0.5
vt 0.0644531 0.5
vt 0.0839844 0.5
vt 0.0878906 0.5
vt 0.119141 0.5
vt 0.994141 0.5

# verts
v -0.7 2.2 0
v -0.7 2.2 -0.1
v -0.7 2.5 0
v -0.7 2.5 -0.1
v -0.6 1.3 0.1
v -0.6 1.3 -0.1
v -0.6 1.6 0.1
v -0.6 1.6 -0.1
v -0.6 1.8 0
v -0.6 1.8 -0.1
v -0.6 1.9 0.1
v -0.6 1.9 0
v -0.6 1.9 -0.1
v -0.5 1.9 0.3
v -0.5 1.9 0.1
v -0.5 1.9 0
v -0.5 1.9 -0.1
v -0.5 1.9 -0.3
v -0.5 2 0.5
v -0.5 2 0.3
v -0.5 2 -0.3
v -0.5 2 -0.4
v -0.5 2.2 0
v -0.5 2.2 -0.1
v -0.5 2.2 -0.3
v -0.5 2.2 -0.4
v -0.5 2.3 0.5
v -0.5 2.3 0.2
v -0.5 2.4 0.2
v -0.5 2.4 0
v -0.5 2.5 0
v -0.5 2.5 -0.1
v -0.5 2.6 -0.1
v -0.5 2.6 -0.4
v -0.5 2.8 0.5
v -0.5 2.8 0.2
v -0.5 2.8 0.1
v -0.5 2.8 -0.2
v -0.5 2.8 -0.3
v -0.5 2.8 -0.4
v -0.5 2.9 0.2
v -0.5 2.9 0.1
v -0.5 2.9 -0.2
v -0.5 2.9 -0.3
v -0.4 1 0.2
v -0.4 1 -0.1
v -0.4 1 -0.2
v -0.4 1.1 -0.1
v -0.4 1.1 -0.2
v -0.4 1.2 0.2
v -0.4 1.2 -0.1
v -0.4 1.2 -0.2
v -0.4 1.3 0.1
v -0.4 1.3 -0.1
v -0.4 1.4 0.3
v -0.4 1.4 0.2
v -0.4 1.4 -0.1
v -0.4 1.4 -0.2
v -0.4 1.5 0.3
v -0.4 1.5 0.1
v -0.4 1.5 -0.1
v -0.4 1.5 -0.2
v -0.4 1.6 0.3
v -0.4 1.6 0.1
v -0.4 1.6 -0.1
v -0.4 1.6 -0.2
v -0.4 1.7 -0.1
v -0.4 1.7 -0.2
v -0.4 1.8 0.3
v -0.4 1.8 0.2
v -0.4 1.8 -0.1
v -0.4 1.8 -0.2
v -0.4 1.9 0.5
v -0.4 1.9 0.3
v -0.4 1.9 0.2
v -0.4 1.9 0.1
v -0.4 2 0.5
v -0.4 2 0.3
v -0.4 2.5 -0.4
v -0.4 2.5 -0.5
v -0.4 2.6 -0.4
v -0.4 2.6 -0.5
v -0.4 2.8 0.5
v -0.4 2.8 0.4
v -0.4 2.8 0
v -0.4 2.8 -0.1
v -0.4 2.9 0.5
v -0.4 2.9 0.4
v -0.4 2.9 0
v -0.4 2.9 -0.1
v -0.3 1.8 0.3
v -0.3 1.8 0.2
v -0.3 1.8 -0.1
v -0.3 1.8 -0.2
v -0.3 1.9 0.3
v -0.3 1.9 0.2
v -0.3 1.9 -0.1
v -0.3 1.9 -0.2
v -0.3 1.9 -0.3
v -0.3 1.9 -0.4
v -0.3 2 -0.3
v -0.3 2 -0.4
v -0.3 2.8 0.4
v -0.3 2.8 0.3
v -0.3 2.8 -0.2
v -0.3 2.8 -0.3
v -0.3 2.9 0.4
v -0.3 2.9 0.3
v -0.3 2.9 -0.2
v -0.3 2.9 -0.3
v -0.2 2.8 0.2
v -0.2 2.8 0.1
v -0.2 2.9 0.2
v -0.2 2.9 0.1
v -0.1 2.1 -0.4
v -0.1 2.1 -0.5
v -0.1 2.4 -0.4
v -0.1 2.4 -0.5
v -0.1 2.7 -0.4
v -0.1 2.7 -0.5
v -0.1 2.8 0.4
v -0.1 2.8 0.3
v -0.1 2.8 -0.1
v -0.1 2.8 -0.2
v -0.1 2.8 -0.4
v -0.1 2.8 -0.5
v -0.1 2.9 0.4
v -0.1 2.9 0.3
v -0.1 2.9 -0.1
v -0.1 2.9 -0.2
v 0 2.8 0.3
v 0 2.8 0.2
v 0 2.8 -0.3
v 0 2.8 -0.4
v 0 2.9 0.3
v 0 2.9 0.2
v 0 2.9 -0.3
v 0 2.9 -0.4
v 0.1 1 0.2
v 0.1 1 -0.2
v 0.1 1.2 0.2
v 0.1 1.2 0
v 0.1 1.2 -0.1
v 0.1 1.2 -0.2
v 0.1 1.3 0
v 0.1 1.3 -0.1
v 0.1 1.4 0.3
v 0.1 1.4 0.2
v 0.1 1.4 -0.1
v 0.1 1.5 0.3
v 0.1 1.5 0.2
v 0.1 2.8 0
v 0.1 2.8 -0.1
v 0.1 2.9 0
v 0.1 2.9 -0.1
v 0.2 2.5 -0.4
v 0.2 2.5 -0.5
v 0.2 2.6 -0.4
v 0.2 2.6 -0.5
v 0.2 2.8 0.4
v 0.2 2.8 0.3
v 0.2 2.8 -0.2
v 0.2 2.8 -0.3
v 0.2 2.9 0.4
v 0.2 2.9 0.3
v 0.2 2.9 -0.2
v 0.2 2.9 -0.3
v 0.3 2.8 0.2
v 0.3 2.8 0.1
v 0.3 2.8 -0.3
v 0.3 2.8 -0.4
v 0.3 2.9 0.2
v 0.3 2.9 0.1
v 0.3 2.9 -0.3
v 0.3 2.9 -0.4
v 0.4 2.8 0.4
v 0.4 2.8 0.3
v 0.4 2.8 0
v 0.4 2.8 -0.1
v 0.4 2.9 0.4
v 0.4 2.9 0.3
v 0.4 2.9 0
v 0.4 2.9 -0.1
v -0.4 2.8 0.2
v -0.4 2.8 0.1
v -0.4 2.8 -0.2
v -0.4 2.8 -0.3
v -0.4 2.9 0.2
v -0.4 2.9 0.1
v -0.4 2.9 -0.2
v -0.4 2.9 -0.3
v -0.3 2.8 0.5
v -0.3 2.8 0.4
v -0.3 2.8 0
v -0.3 2.8 -0.1
v -0.3 2.9 0.5
v -0.3 2.9 0.4
v -0.3 2.9 0
v -0.3 2.9 -0.1
v -0.2 2.5 -0.4
v -0.2 2.5 -0.5
v -0.2 2.6 -0.4
v -0.2 2.6 -0.5
v -0.2 2.8 0.4
v -0.2 2.8 0.3
v -0.2 2.8 -0.2
v -0.2 2.8 -0.3
v -0.2 2.9 0.4
v -0.2 2.9 0.3
v -0.2 2.9 -0.2
v -0.2 2.9 -0.3
v -0.1 1 0.2
v -0.1 1 -0.2
v -0.1 1.2 0.2
v -0.1 1.2 -0.1
v -0.1 1.2 -0.2
v -0.1 1.3 0.2
v -0.1 1.3 0.1
v -0.1 1.4 0.3
v -0.1 1.4 0.2
v -0.1 1.4 0.1
v -0.1 1.4 -0.1
v -0.1 1.5 0.3
v -0.1 1.5 0.2
v -0.1 2.8 0.2
v -0.1 2.8 0.1
v -0.1 2.9 0.2
v -0.1 2.9 0.1
v 0 2.8 0.4
v 0 2.8 0.3
v 0 2.8 -0.1
v 0 2.8 -0.2
v 0 2.9 0.4
v 0 2.9 0.3
v 0 2.9 -0.1
v 0 2.9 -0.2
v 0.1 2.1 -0.4
v 0.1 2.1 -0.5
v 0.1 2.4 -0.4
v 0.1 2.4 -0.5
v 0.1 2.7 -0.4
v 0.1 2.7 -0.5
v 0.1 2.8 0.3
v 0.1 2.8 0.2
v 0.1 2.8 -0.3
v 0.1 2.8 -0.4
v 0.1 2.8 -0.5
v 0.1 2.9 0.3
v 0.1 2.9 0.2
v 0.1 2.9 -0.3
v 0.1 2.9 -0.4
v 0.2 2.8 0
v 0.2 2.8 -0.1
v 0.2 2.9 0
v 0.2 2.9 -0.1
v 0.3 1.8 0.3
v 0.3 1.8 0.2
v 0.3 1.8 -0.1
v 0.3 1.8 -0.2
v 0.3 1.9 0.3
v 0.3 1.9 0.2
v 0.3 1.9 -0.1
v 0.3 1.9 -0.2
v 0.3 1.9 -0.3
v 0.3 1.9 -0.4
v 0.3 2 -0.3
v 0.3 2 -0.4
v 0.3 2.8 0.4
v 0.3 2.8 0.3
v 0.3 2.8 -0.2
v 0.3 2.8 -0.3
v 0.3 2.9 0.4
v 0.3 2.9 0.3
v 0.3 2.9 -0.2
v 0.3 2.9 -0.3
v 0.4 1 0.2
v 0.4 1 -0.1
v 0.4 1 -0.2
v 0.4 1.1 -0.1
v 0.4 1.1 -0.2
v 0.4 1.2 0.2
v 0.4 1.2 -0.1
v 0.4 1.2 -0.2
v 0.4 1.3 0.1
v 0.4 1.3 -0.1
v 0.4 1.4 0.3
v 0.4 1.4 0.2
v 0.4 1.4 -0.1
v 0.4 1.4 -0.2
v 0.4 1.5 0.3
v 0.4 1.5 0.1
v 0.4 1.5 -0.1
v 0.4 1.5 -0.2
v 0.4 1.6 0.3
v 0.4 1.6 0.1
v 0.4 1.6 -0.1
v 0.4 1.6 -0.2
v 0.4 1.8 0.3
v 0.4 1.8 0.2
v 0.4 1.8 -0.1
v 0.4 1.8 -0.2
v 0.4 1.9 0.5
v 0.4 1.9 0.3
v 0.4 1.9 0.2
v 0.4 1.9 0.1
v 0.4 2 0.5
v 0.4 2 0.3
v 0.4 2.5 -0.4
v 0.4 2.5 -0.5
v 0.4 2.6 -0.4
v 0.4 2.6 -0.5
v 0.4 2.8 0.2
v 0.4 2.8 0.1
v 0.4 2.8 -0.3
v 0.4 2.8 -0.4
v 0.4 2.9 0.2
v 0.4 2.9 0.1
v 0.4 2.9 -0.3
v 0.4 2.9 -0.4
v 0.5 1.9 0.3
v 0.5 1.9 0.1
v 0.5 1.9 -0.1
v 0.5 1.9 -0.3
v 0.5 2 0.5
v 0.5 2 0.3
v 0.5 2 -0.3
v 0.5 2 -0.4
v 0.5 2.2 0
v 0.5 2.2 -0.1
v 0.5 2.2 -0.3
v 0.5 2.2 -0.4
v 0.5 2.3 0.5
v 0.5 2.3 0.2
v 0.5 2.4 0.2
v 0.5 2.4 0
v 0.5 2.5 0
v 0.5 2.5 -0.1
v 0.5 2.6 -0.1
v 0.5 2.6 -0.4
v 0.5 2.8 0.5
v 0.5 2.8 0.4
v 0.5 2.8 0.3
v 0.5 2.8 0
v 0.5 2.8 -0.1
v 0.5 2.8 -0.4
v 0.5 2.9 0.4
v 0.5 2.9 0.3
v 0.5 2.9 0
v 0.5 2.9 -0.1
v 0.6 1.3 0.1
v 0.6 1.3 -0.1
v 0.6 1.6 0.1
v 0.6 1.6 -0.1
v 0.6 1.9 0.1
v 0.6 1.9 -0.1
v 0.7 2.2 0
v 0.7 2.2 -0.1
v 0.7 2.5 0
v 0.7 2.5 -0.1
v -0.5 2 0.5
v -0.5 2.3 0.5
v -0.5 2.8 0.5
v -0.4 1.9 0.5
v -0.4 2 0.5
v -0.4 2.2 0.5
v -0.4 2.3 0.5
v -0.4 2.8 0.5
v -0.4 2.9 0.5
v -0.3 2.8 0.5
v -0.3 2.9 0.5
v 0.4 1.9 0.5
v 0.4 2 0.5
v 0.4 2.2 0.5
v 0.4 2.3 0.5
v 0.5 2 0.5
v 0.5 2.3 0.5
v 0.5 2.8 0.5
v -0.3 2.8 0.4
v -0.3 2.9 0.4
v -0.2 2.8 0.4
v -0.2 2.9 0.4
v -0.1 2.8 0.4
v -0.1 2.9 0.4
v 0 2.8 0.4
v 0 2.9 0.4
v 0.2 2.8 0.4
v 0.2 2.9 0.4
v 0.3 2.8 0.4
v 0.3 2.9 0.4
v 0.4 2.8 0.4
v 0.4 2.9 0.4
v 0.5 2.8 0.4
v 0.5 2.9 0.4
v -0.5 1.9 0.3
v -0.5 2 0.3
v -0.4 1.4 0.3
v -0.4 1.5 0.3
v -0.4 1.6 0.3
v -0.4 1.8 0.3
v -0.4 1.9 0.3
v -0.4 2 0.3
v -0.3 1.8 0.3
v -0.3 1.9 0.3
v -0.2 1.8 0.3
v -0.2 1.9 0.3
v -0.1 1.4 0.3
v -0.1 1.5 0.3
v 0 2.8 0.3
v 0 2.9 0.3
v 0.1 1.4 0.3
v 0.1 1.5 0.3
v 0.1 2.8 0.3
v 0.1 2.9 0.3
v 0.2 1.8 0.3
v 0.2 1.9 0.3
v 0.3 1.8 0.3
v 0.3 1.9 0.3
v 0.4 1.4 0.3
v 0.4 1.5 0.3
v 0.4 1.6 0.3
v 0.4 1.8 0.3
v 0.4 1.9 0.3
v 0.4 2 0.3
v 0.5 1.9 0.3
v 0.5 2 0.3
v -0.5 2.8 0.2
v -0.5 2.9 0.2
v -0.4 1 0.2
v -0.4 1.2 0.2
v -0.4 1.4 0.2
v -0.4 1.8 0.2
v -0.4 1.9 0.2
v -0.4 2.8 0.2
v -0.4 2.9 0.2
v -0.3 1.8 0.2
v -0.3 1.9 0.2
v -0.2 1.3 0.2
v -0.2 1.4 0.2
v -0.2 2.8 0.2
v -0.2 2.9 0.2
v -0.1 1 0.2
v -0.1 1.2 0.2
v -0.1 1.3 0.2
v -0.1 1.4 0.2
v -0.1 1.5 0.2
v -0.1 2.8 0.2
v -0.1 2.9 0.2
v 0.1 1 0.2
v 0.1 1.2 0.2
v 0.1 1.4 0.2
v 0.1 1.5 0.2
v 0.2 1.2 0.2
v 0.2 1.3 0.2
v 0.3 1.2 0.2
v 0.3 1.3 0.2
v 0.3 1.8 0.2
v 0.3 1.9 0.2
v 0.3 2.8 0.2
v 0.3 2.9 0.2
v 0.4 1 0.2
v 0.4 1.2 0.2
v 0.4 1.4 0.2
v 0.4 1.8 0.2
v 0.4 1.9 0.2
v 0.4 2.8 0.2
v 0.4 2.9 0.2
v -0.6 1.3 0.1
v -0.6 1.6 0.1
v -0.6 1.9 0.1
v -0.5 1.9 0.1
v -0.4 1.3 0.1
v -0.4 1.5 0.1
v -0.4 1.6 0.1
v -0.4 1.9 0.1
v 0.4 1.3 0.1
v 0.4 1.5 0.1
v 0.4 1.6 0.1
v 0.4 1.9 0.1
v 0.5 1.9 0.1
v 0.6 1.3 0.1
v 0.6 1.6 0.1
v 0.6 1.9 0.1
v -0.7 2.2 0
v -0.7 2.5 0
v -0.5 2.2 0
v -0.5 2.4 0
v -0.5 2.5 0
v -0.4 2.8 0
v -0.4 2.9 0
v -0.3 2.8 0
v -0.3 2.9 0
v 0.1 2.8 0
v 0.1 2.9 0
v 0.2 2.8 0
v 0.2 2.9 0
v 0.4 2.8 0
v 0.4 2.9 0
v 0.5 2.2 0
v 0.5 2.4 0
v 0.5 2.5 0
v 0.5 2.8 0
v 0.5 2.9 0
v 0.7 2.2 0
v 0.7 2.5 0
v -0.1 2.8 -0.1
v -0.1 2.9 -0.1
v 0 2.8 -0.1
v 0 2.9 -0.1
v -0.5 2.8 -0.2
v -0.5 2.9 -0.2
v -0.4 2.8 -0.2
v -0.4 2.9 -0.2
v -0.3 2.8 -0.2
v -0.3 2.9 -0.2
v -0.2 2.8 -0.2
v -0.2 2.9 -0.2
v 0.2 2.8 -0.2
v 0.2 2.9 -0.2
v 0.3 2.8 -0.2
v 0.3 2.9 -0.2
v 0 2.8 -0.3
v 0 2.9 -0.3
v 0.1 2.8 -0.3
v 0.1 2.9 -0.3
v 0.3 2.8 -0.3
v 0.3 2.9 -0.3
v 0.4 2.8 -0.3
v 0.4 2.9 -0.3
v -0.4 2.8 0.4
v -0.4 2.9 0.4
v -0.3 2.8 0.4
v -0.3 2.9 0.4
v -0.3 2.8 0.3
v -0.3 2.9 0.3
v -0.2 2.8 0.3
v -0.2 2.9 0.3
v -0.1 2.8 0.3
v -0.1 2.9 0.3
v 0 2.8 0.3
v 0 2.9 0.3
v 0.2 2.8 0.3
v 0.2 2.9 0.3
v 0.3 2.8 0.3
v 0.3 2.9 0.3
v 0.4 2.8 0.3
v 0.4 2.9 0.3
v 0.5 2.8 0.3
v 0.5 2.9 0.3
v 0 2.8 0.2
v 0 2.9 0.2
v 0.1 2.8 0.2
v 0.1 2.9 0.2
v -0.5 2.8 0.1
v -0.5 2.9 0.1
v -0.4 2.8 0.1
v -0.4 2.9 0.1
v -0.2 2.8 0.1
v -0.2 2.9 0.1
v -0.1 2.8 0.1
v -0.1 2.9 0.1
v 0.3 2.8 0.1
v 0.3 2.9 0.1
v 0.4 2.8 0.1
v 0.4 2.9 0.1
v -0.7 2.2 -0.1
v -0.7 2.5 -0.1
v -0.6 1.3 -0.1
v -0.6 1.6 -0.1
v -0.6 1.8 -0.1
v -0.6 1.9 -0.1
v -0.5 1.8 -0.1
v -0.5 1.9 -0.1
v -0.5 2.2 -0.1
v -0.5 2.5 -0.1
v -0.4 1.2 -0.1
v -0.4 1.3 -0.1
v -0.4 1.4 -0.1
v -0.4 1.5 -0.1
v -0.4 1.6 -0.1
v -0.4 1.7 -0.1
v -0.4 1.8 -0.1
v -0.4 2.8 -0.1
v -0.4 2.9 -0.1
v -0.3 1.4 -0.1
v -0.3 1.8 -0.1
v -0.3 1.9 -0.1
v -0.3 2.8 -0.1
v -0.3 2.9 -0.1
v -0.1 1.2 -0.1
v -0.1 1.4 -0.1
v 0.1 1.2 -0.1
v 0.1 1.3 -0.1
v 0.1 1.4 -0.1
v 0.1 2.8 -0.1
v 0.1 2.9 -0.1
v 0.2 1.2 -0.1
v 0.2 1.3 -0.1
v 0.2 2.8 -0.1
v 0.2 2.9 -0.1
v 0.3 1.2 -0.1
v 0.3 1.8 -0.1
v 0.3 1.9 -0.1
v 0.4 1.2 -0.1
v 0.4 1.3 -0.1
v 0.4 1.4 -0.1
v 0.4 1.5 -0.1
v 0.4 1.6 -0.1
v 0.4 1.8 -0.1
v 0.4 2.8 -0.1
v 0.4 2.9 -0.1
v 0.5 1.9 -0.1
v 0.5 2.2 -0.1
v 0.5 2.5 -0.1
v 0.5 2.8 -0.1
v 0.5 2.9 -0.1
v 0.6 1.3 -0.1
v 0.6 1.6 -0.1
v 0.6 1.9 -0.1
v 0.7 2.2 -0.1
v 0.7 2.5 -0.1
v -0.4 1 -0.2
v -0.4 1.1 -0.2
v -0.4 1.2 -0.2
v -0.4 1.4 -0.2
v -0.4 1.5 -0.2
v -0.4 1.6 -0.2
v -0.4 1.7 -0.2
v -0.4 1.8 -0.2
v -0.3 1 -0.2
v -0.3 1.1 -0.2
v -0.3 1.4 -0.2
v -0.3 1.5 -0.2
v -0.3 1.6 -0.2
v -0.3 1.7 -0.2
v -0.3 1.8 -0.2
v -0.3 1.9 -0.2
v -0.2 1.8 -0.2
v -0.2 1.9 -0.2
v -0.1 1 -0.2
v -0.1 1.2 -0.2
v -0.1 2.8 -0.2
v -0.1 2.9 -0.2
v 0 1.7 -0.2
v 0 1.8 -0.2
v 0 2.8 -0.2
v 0 2.9 -0.2
v 0.1 1 -0.2
v 0.1 1.2 -0.2
v 0.1 1.7 -0.2
v 0.1 1.8 -0.2
v 0.2 1.1 -0.2
v 0.2 1.2 -0.2
v 0.2 1.7 -0.2
v 0.2 1.8 -0.2
v 0.2 1.9 -0.2
v 0.3 1 -0.2
v 0.3 1.1 -0.2
v 0.3 1.2 -0.2
v 0.3 1.7 -0.2
v 0.3 1.8 -0.2
v 0.3 1.9 -0.2
v 0.4 1 -0.2
v 0.4 1.1 -0.2
v 0.4 1.2 -0.2
v 0.4 1.4 -0.2
v 0.4 1.5 -0.2
v 0.4 1.6 -0.2
v 0.4 1.8 -0.2
v -0.5 1.9 -0.3
v -0.5 2 -0.3
v -0.5 2.8 -0.3
v -0.5 2.9 -0.3
v -0.4 2.8 -0.3
v -0.4 2.9 -0.3
v -0.3 1.9 -0.3
v -0.3 2 -0.3
v -0.3 2.8 -0.3
v -0.3 2.9 -0.3
v -0.2 2.8 -0.3
v -0.2 2.9 -0.3
v 0.2 2.8 -0.3
v 0.2 2.9 -0.3
v 0.3 1.9 -0.3
v 0.3 2 -0.3
v 0.3 2.8 -0.3
v 0.3 2.9 -0.3
v 0.5 1.9 -0.3
v 0.5 2 -0.3
v -0.5 2 -0.4
v -0.5 2.2 -0.4
v -0.5 2.6 -0.4
v -0.5 2.8 -0.4
v -0.4 2.5 -0.4
v -0.4 2.6 -0.4
v -0.3 1.9 -0.4
v -0.3 2 -0.4
v -0.3 2.2 -0.4
v -0.3 2.5 -0.4
v -0.3 2.6 -0.4
v -0.3 2.7 -0.4
v -0.2 2.2 -0.4
v -0.2 2.5 -0.4
v -0.2 2.6 -0.4
v -0.1 2.1 -0.4
v -0.1 2.4 -0.4
v -0.1 2.7 -0.4
v -0.1 2.8 -0.4
v 0 2.8 -0.4
v 0 2.9 -0.4
v 0.1 2.1 -0.4
v 0.1 2.4 -0.4
v 0.1 2.7 -0.4
v 0.1 2.8 -0.4
v 0.1 2.9 -0.4
v 0.2 2.2 -0.4
v 0.2 2.5 -0.4
v 0.2 2.6 -0.4
v 0.3 1.9 -0.4
v 0.3 2 -0.4
v 0.3 2.2 -0.4
v 0.3 2.5 -0.4
v 0.3 2.6 -0.4
v 0.3 2.7 -0.4
v 0.3 2.8 -0.4
v 0.3 2.9 -0.4
v 0.4 2.5 -0.4
v 0.4 2.6 -0.4
v 0.4 2.8 -0.4
v 0.4 2.9 -0.4
v 0.5 2 -0.4
v 0.5 2.2 -0.4
v 0.5 2.6 -0.4
v 0.5 2.8 -0.4
v -0.4 2.5 -0.5
v -0.4 2.6 -0.5
v -0.2 2.5 -0.5
v -0.2 2.6 -0.5
v -0.1 2.1 -0.5
v -0.1 2.4 -0.5
v -0.1 2.7 -0.5
v -0.1 2.8 -0.5
v 0.1 2.1 -0.5
v 0.1 2.4 -0.5
v 0.1 2.7 -0.5
v 0.1 2.8 -0.5
v 0.2 2.5 -0.5
v 0.2 2.6 -0.5
v 0.4 2.5 -0.5
v 0.4 2.6 -0.5
v -0.4 1 0.2
v -0.1 1 0.2
v 0.1 1 0.2
v 0.4 1 0.2
v -0.4 1 -0.1
v -0.3 1 -0.1
v 0.3 1 -0.1
v 0.4 1 -0.1
v -0.4 1 -0.2
v -0.3 1 -0.2
v -0.1 1 -0.2
v 0.1 1 -0.2
v 0.3 1 -0.2
v 0.4 1 -0.2
v -0.6 1.3 0.1
v -0.4 1.3 0.1
v 0.4 1.3 0.1
v 0.6 1.3 0.1
v -0.6 1.3 -0.1
v -0.4 1.3 -0.1
v 0.4 1.3 -0.1
v 0.6 1.3 -0.1
v -0.4 1.4 0.3
v -0.1 1.4 0.3
v 0.1 1.4 0.3
v 0.4 1.4 0.3
v -0.4 1.4 0.2
v -0.2 1.4 0.2
v -0.1 1.4 0.2
v 0.1 1.4 0.2
v 0.4 1.4 0.2
v -0.1 1.4 0.1
v -0.4 1.4 -0.1
v -0.3 1.4 -0.1
v -0.1 1.4 -0.1
v 0.1 1.4 -0.1
v 0.4 1.4 -0.1
v -0.4 1.4 -0.2
v -0.3 1.4 -0.2
v 0.4 1.4 -0.2
v -0.1 1.5 0.3
v 0.1 1.5 0.3
v -0.1 1.5 0.2
v 0.1 1.5 0.2
v -0.4 1.9 0.5
v 0.4 1.9 0.5
v -0.5 1.9 0.3
v -0.4 1.9 0.3
v -0.3 1.9 0.3
v -0.2 1.9 0.3
v 0.2 1.9 0.3
v 0.3 1.9 0.3
v 0.4 1.9 0.3
v 0.5 1.9 0.3
v -0.4 1.9 0.2
v -0.3 1.9 0.2
v 0.3 1.9 0.2
v 0.4 1.9 0.2
v -0.5 1.9 0.1
v -0.4 1.9 0.1
v 0.4 1.9 0.1
v 0.5 1.9 0.1
v -0.5 1.9 -0.1
v -0.3 1.9 -0.1
v 0.3 1.9 -0.1
v 0.5 1.9 -0.1
v -0.3 1.9 -0.2
v -0.2 1.9 -0.2
v 0.2 1.9 -0.2
v 0.3 1.9 -0.2
v -0.5 1.9 -0.3
v -0.3 1.9 -0.3
v 0.3 1.9 -0.3
v 0.5 1.9 -0.3
v -0.3 1.9 -0.4
v 0.3 1.9 -0.4
v -0.5 2 0.5
v -0.4 2 0.5
v 0.4 2 0.5
v 0.5 2 0.5
v -0.5 2 0.3
v -0.4 2 0.3
v 0.4 2 0.3
v 0.5 2 0.3
v -0.5 2 -0.3
v -0.3 2 -0.3
v 0.3 2 -0.3
v 0.5 2 -0.3
v -0.5 2 -0.4
v -0.3 2 -0.4
v 0.3 2 -0.4
v 0.5 2 -0.4
v -0.1 2.1 -0.4
v 0.1 2.1 -0.4
v -0.1 2.1 -0.5
v 0.1 2.1 -0.5
v -0.7 2.2 0
v -0.5 2.2 0
v 0.5 2.2 0
v 0.7 2.2 0
v -0.7 2.2 -0.1
v -0.5 2.2 -0.1
v 0.5 2.2 -0.1
v 0.7 2.2 -0.1
v -0.4 2.5 -0.4
v -0.3 2.5 -0.4
v -0.2 2.5 -0.4
v 0.2 2.5 -0.4
v 0.3 2.5 -0.4
v 0.4 2.5 -0.4
v -0.4 2.5 -0.5
v -0.2 2.5 -0.5
v 0.2 2.5 -0.5
v 0.4 2.5 -0.5
v -0.1 2.7 -0.4
v 0.1 2.7 -0.4
v -0.1 2.7 -0.5
v 0.1 2.7 -0.5
v -0.4 1.2 -0.1
v -0.1 1.2 -0.1
v 0.1 1.2 -0.1
v 0.2 1.2 -0.1
v 0.3 1.2 -0.1
v 0.4 1.2 -0.1
v -0.4 1.2 -0.2
v -0.1 1.2 -0.2
v 0.1 1.2 -0.2
v 0.2 1.2 -0.2
v 0.3 1.2 -0.2
v 0.4 1.2 -0.2
v -0.4 1.8 0.3
v -0.3 1.8 0.3
v 0.3 1.8 0.3
v 0.4 1.8 0.3
v -0.4 1.8 0.2
v -0.3 1.8 0.2
v 0.3 1.8 0.2
v 0.4 1.8 0.2
v -0.4 1.8 -0.1
v -0.3 1.8 -0.1
v 0.3 1.8 -0.1
v 0.4 1.8 -0.1
v -0.4 1.8 -0.2
v -0.3 1.8 -0.2
v 0.3 1.8 -0.2
v 0.4 1.8 -0.2
v -0.6 1.9 0.1
v -0.5 1.9 0.1
v 0.5 1.9 0.1
v 0.6 1.9 0.1
v -0.6 1.9 0
v -0.5 1.9 0
v -0.6 1.9 -0.1
v -0.5 1.9 -0.1
v 0.5 1.9 -0.1
v 0.6 1.9 -0.1
v -0.1 2.4 -0.4
v 0.1 2.4 -0.4
v -0.1 2.4 -0.5
v 0.1 2.4 -0.5
v -0.7 2.5 0
v -0.5 2.5 0
v 0.5 2.5 0
v 0.7 2.5 0
v -0.7 2.5 -0.1
v -0.5 2.5 -0.1
v 0.5 2.5 -0.1
v 0.7 2.5 -0.1
v -0.4 2.6 -0.4
v -0.3 2.6 -0.4
v -0.2 2.6 -0.4
v 0.2 2.6 -0.4
v 0.3 2.6 -0.4
v 0.4 2.6 -0.4
v -0.4 2.6 -0.5
v -0.2 2.6 -0.5
v 0.2 2.6 -0.5
v 0.4 2.6 -0.5
v -0.5 2.8 0.5
v -0.4 2.8 0.5
v -0.3 2.8 0.5
v 0.5 2.8 0.5
v -0.4 2.8 0.4
v -0.3 2.8 0.4
v -0.2 2.8 0.4
v -0.1 2.8 0.4
v 0 2.8 0.4
v 0.2 2.8 0.4
v 0.3 2.8 0.4
v 0.4 2.8 0.4
v 0.5 2.8 0.4
v -0.3 2.8 0.3
v -0.2 2.8 0.3
v -0.1 2.8 0.3
v 0 2.8 0.3
v 0.1 2.8 0.3
v 0.2 2.8 0.3
v 0.3 2.8 0.3
v 0.4 2.8 0.3
v 0.5 2.8 0.3
v -0.5 2.8 0.2
v -0.4 2.8 0.2
v -0.2 2.8 0.2
v -0.1 2.8 0.2
v 0 2.8 0.2
v 0.1 2.8 0.2
v 0.3 2.8 0.2
v 0.4 2.8 0.2
v -0.5 2.8 0.1
v -0.4 2.8 0.1
v -0.2 2.8 0.1
v -0.1 2.8 0.1
v 0.3 2.8 0.1
v 0.4 2.8 0.1
v -0.4 2.8 0
v -0.3 2.8 0
v 0.1 2.8 0
v 0.2 2.8 0
v 0.4 2.8 0
v 0.5 2.8 0
v -0.4 2.8 -0.1
v -0.3 2.8 -0.1
v -0.1 2.8 -0.1
v 0 2.8 -0.1
v 0.1 2.8 -0.1
v 0.2 2.8 -0.1
v 0.4 2.8 -0.1
v 0.5 2.8 -0.1
v -0.5 2.8 -0.2
v -0.4 2.8 -0.2
v -0.3 2.8 -0.2
v -0.2 2.8 -0.2
v -0.1 2.8 -0.2
v 0 2.8 -0.2
v 0.2 2.8 -0.2
v 0.3 2.8 -0.2
v -0.5 2.8 -0.3
v -0.4 2.8 -0.3
v -0.3 2.8 -0.3
v -0.2 2.8 -0.3
v 0 2.8 -0.3
v 0.1 2.8 -0.3
v 0.2 2.8 -0.3
v 0.3 2.8 -0.3
v 0.4 2.8 -0.3
v -0.5 2.8 -0.4
v -0.1 2.8 -0.4
v 0 2.8 -0.4
v 0.1 2.8 -0.4
v 0.3 2.8 -0.4
v 0.4 2.8 -0.4
v 0.5 2.8 -0.4
v -0.1 2.8 -0.5
v 0.1 2.8 -0.5
v -0.4 2.9 0.5
v -0.3 2.9 0.5
v -0.4 2.9 0.4
v -0.3 2.9 0.4
v -0.2 2.9 0.4
v -0.1 2.9 0.4
v 0 2.9 0.4
v 0.2 2.9 0.4
v 0.3 2.9 0.4
v 0.4 2.9 0.4
v 0.5 2.9 0.4
v -0.3 2.9 0.3
v -0.2 2.9 0.3
v -0.1 2.9 0.3
v 0 2.9 0.3
v 0.1 2.9 0.3
v 0.2 2.9 0.3
v 0.3 2.9 0.3
v 0.4 2.9 0.3
v 0.5 2.9 0.3
v -0.5 2.9 0.2
v -0.4 2.9 0.2
v -0.2 2.9 0.2
v -0.1 2.9 0.2
v 0 2.9 0.2
v 0.1 2.9 0.2
v 0.3 2.9 0.2
v 0.4 2.9 0.2
v -0.5 2.9 0.1
v -0.4 2.9 0.1
v -0.2 2.9 0.1
v -0.1 2.9 0.1
v 0.3 2.9 0.1
v 0.4 2.9 0.1
v -0.4 2.9 0
v -0.3 2.9 0
v 0.1 2.9 0
v 0.2 2.9 0
v 0.4 2.9 0
v 0.5 2.9 0
v -0.4 2.9 -0.1
v -0.3 2.9 -0.1
v -0.1 2.9 -0.1
v 0 2.9 -0.1
v 0.1 2.9 -0.1
v 0.2 2.9 -0.1
v 0.4 2.9 -0.1
v 0.5 2.9 -0.1
v -0.5 2.9 -0.2
v -0.4 2.9 -0.2
v -0.3 2.9 -0.2
v -0.2 2.9 -0.2
v -0.1 2.9 -0.2
v 0 2.9 -0.2
v 0.2 2.9 -0.2
v 0.3 2.9 -0.2
v -0.5 2.9 -0.3
v -0.4 2.9 -0.3
v -0.3 2.9 -0.3
v -0.2 2.9 -0.3
v 0 2.9 -0.3
v 0.1 2.9 -0.3
v 0.2 2.9 -0.3
v 0.3 2.9 -0.3
v 0.4 2.9 -0.3
v 0 2.9 -0.4
v 0.1 2.9 -0.4
v 0.3 2.9 -0.4
v 0.4 2.9 -0.4

# faces
f 3/6/1 2/6/1 1/6/1
f 4/6/1 2/6/1 3/6/1
f 7/7/1 6/7/1 5/7/1
f 8/7/1 6/7/1 7/7/1
f 9/3/1 8/3/1 7/3/1
f 10/3/1 8/3/1 9/3/1
f 11/3/1 9/3/1 7/3/1
f 12/4/1 10/4/1 9/4/1
f 12/3/1 9/3/1 11/3/1
f 13/4/1 10/4/1 12/4/1
f 20/7/1 15/7/1 14/7/1
f 20/7/1 18/7/1 17/7/1
f 20/7/1 17/7/1 16/7/1
f 20/7/1 16/7/1 15/7/1
f 21/7/1 18/7/1 20/7/1
f 23/7/1 20/7/1 19/7/1
f 23/7/1 21/7/1 20/7/1
f 24/7/1 21/7/1 23/7/1
f 25/6/1 22/6/1 21/6/1
f 25/7/1 21/7/1 24/7/1
f 26/6/1 22/6/1 25/6/1
f 27/7/1 23/7/1 19/7/1
f 28/7/1 23/7/1 27/7/1
f 29/5/1 28/5/1 27/5/1
f 29/7/1 23/7/1 28/7/1
f 30/7/1 23/7/1 29/7/1
f 31/5/1 30/5/1 29/5/1
f 32/7/1 26/7/1 25/7/1
f 32/7/1 25/7/1 24/7/1
f 33/7/1 26/7/1 32/7/1
f 33/5/1 32/5/1 31/5/1
f 34/7/1 26/7/1 33/7/1
f 35/5/1 31/5/1 29/5/1
f 35/5/1 29/5/1 27/5/1
f 35/5/1 34/5/1 33/5/1
f 35/5/1 33/5/1 31/5/1
f 36/5/1 34/5/1 35/5/1
f 37/5/1 34/5/1 36/5/1
f 38/5/1 34/5/1 37/5/1
f 39/5/1 34/5/1 38/5/1
f 40/5/1 34/5/1 39/5/1
f 41/5/1 37/5/1 36/5/1
f 42/5/1 37/5/1 41/5/1
f 43/5/1 39/5/1 38/5/1
f 44/5/1 39/5/1 43/5/1
f 48/3/1 46/3/1 45/3/1
f 48/4/1 47/4/1 46/4/1
f 49/4/1 47/4/1 48/4/1
f 50/3/1 48/3/1 45/3/1
f 50/3/1 49/3/1 48/3/1
f 51/3/1 49/3/1 50/3/1
f 52/3/1 49/3/1 51/3/1
f 53/1/1 51/1/1 50/1/1
f 54/1/1 51/1/1 53/1/1
f 56/1/1 53/1/1 50/1/1
f 59/1/1 56/1/1 55/1/1
f 60/1/1 53/1/1 56/1/1
f 60/1/1 56/1/1 59/1/1
f 61/2/1 58/2/1 57/2/1
f 62/2/1 58/2/1 61/2/1
f 63/8/1 60/8/1 59/8/1
f 64/8/1 60/8/1 63/8/1
f 65/8/1 62/8/1 61/8/1
f 66/8/1 62/8/1 65/8/1
f 67/4/1 66/4/1 65/4/1
f 68/4/1 66/4/1 67/4/1
f 69/3/1 64/3/1 63/3/1
f 70/3/1 64/3/1 69/3/1
f 71/5/1 68/5/1 67/5/1
f 72/5/1 68/5/1 71/5/1
f 75/3/1 64/3/1 70/3/1
f 76/3/1 64/3/1 75/3/1
f 77/7/1 74/7/1 73/7/1
f 78/7/1 74/7/1 77/7/1
f 81/5/1 80/5/1 79/5/1
f 82/5/1 80/5/1 81/5/1
f 87/5/1 84/5/1 83/5/1
f 88/5/1 84/5/1 87/5/1
f 89/5/1 86/5/1 85/5/1
f 90/5/1 86/5/1 89/5/1
f 95/3/1 92/3/1 91/3/1
f 96/3/1 92/3/1 95/3/1
f 97/3/1 94/3/1 93/3/1
f 98/3/1 94/3/1 97/3/1
f 101/7/1 100/7/1 99/7/1
f 102/7/1 100/7/1 101/7/1
f 107/5/1 104/5/1 103/5/1
f 108/5/1 104/5/1 107/5/1
f 109/5/1 106/5/1 105/5/1
f 110/5/1 106/5/1 109/5/1
f 113/5/1 112/5/1 111/5/1
f 114/5/1 112/5/1 113/5/1
f 117/6/1 116/6/1 115/6/1
f 118/6/1 116/6/1 117/6/1
f 125/5/1 120/5/1 119/5/1
f 126/5/1 120/5/1 125/5/1
f 127/5/1 122/5/1 121/5/1
f 128/5/1 122/5/1 127/5/1
f 129/5/1 124/5/1 123/5/1
f 130/5/1 124/5/1 129/5/1
f 135/5/1 132/5/1 131/5/1
f 136/5/1 132/5/1 135/5/1
f 137/5/1 134/5/1 133/5/1
f 138/5/1 134/5/1 137/5/1
f 141/3/1 140/3/1 139/3/1
f 142/3/1 140/3/1 141/3/1
f 143/3/1 140/3/1 142/3/1
f 144/3/1 140/3/1 143/3/1
f 145/1/1 142/1/1 141/1/1
f 145/2/1 143/2/1 142/2/1
f 146/2/1 143/2/1 145/2/1
f 148/1/1 145/1/1 141/1/1
f 148/1/1 146/1/1 145/1/1
f 149/1/1 146/1/1 148/1/1
f 150/1/1 148/1/1 147/1/1
f 151/1/1 148/1/1 150/1/1
f 154/5/1 153/5/1 152/5/1
f 155/5/1 153/5/1 154/5/1
f 158/5/1 157/5/1 156/5/1
f 159/5/1 157/5/1 158/5/1
f 164/5/1 161/5/1 160/5/1
f 165/5/1 161/5/1 164/5/1
f 166/5/1 163/5/1 162/5/1
f 167/5/1 163/5/1 166/5/1
f 172/5/1 169/5/1 168/5/1
f 173/5/1 169/5/1 172/5/1
f 174/5/1 171/5/1 170/5/1
f 175/5/1 171/5/1 174/5/1
f 180/5/1 177/5/1 176/5/1
f 181/5/1 177/5/1 180/5/1
f 182/5/1 179/5/1 178/5/1
f 183/5/1 179/5/1 182/5/1
f 184/5/2 185/5/2 188/5/2
f 188/5/2 185/5/2 189/5/2
f 186/5/2 187/5/2 190/5/2
f 190/5/2 187/5/2 191/5/2
f 192/5/2 193/5/2 196/5/2
f 196/5/2 193/5/2 197/5/2
f 194/5/2 195/5/2 198/5/2
f 198/5/2 195/5/2 199/5/2
f 200/5/2 201/5/2 202/5/2
f 202/5/2 201/5/2 203/5/2
f 204/5/2 205/5/2 208/5/2
f 208/5/2 205/5/2 209/5/2
f 206/5/2 207/5/2 210/5/2
f 210/5/2 207/5/2 211/5/2
f 212/3/2 213/3/2 214/3/2
f 214/3/2 213/3/2 215/3/2
f 215/3/2 213/3/2 216/3/2
f 214/1/2 215/1/2 217/1/2
f 217/1/2 215/1/2 218/1/2
f 217/2/2 218/2/2 220/2/2
f 218/1/2 215/1/2 221/1/2
f 220/2/2 218/2/2 221/2/2
f 221/1/2 215/1/2 222/1/2
f 219/1/2 220/1/2 223/1/2
f 223/1/2 220/1/2 224/1/2
f 225/5/2 226/5/2 227/5/2
f 227/5/2 226/5/2 228/5/2
f 229/5/2 230/5/2 233/5/2
f 233/5/2 230/5/2 234/5/2
f 231/5/2 232/5/2 235/5/2
f 235/5/2 232/5/2 236/5/2
f 237/6/2 238/6/2 239/6/2
f 239/6/2 238/6/2 240/6/2
f 241/5/2 242/5/2 246/5/2
f 246/5/2 242/5/2 247/5/2
f 243/5/2 244/5/2 248/5/2
f 248/5/2 244/5/2 249/5/2
f 245/5/2 246/5/2 250/5/2
f 250/5/2 246/5/2 251/5/2
f 252/5/2 253/5/2 254/5/2
f 254/5/2 253/5/2 255/5/2
f 256/3/2 257/3/2 260/3/2
f 260/3/2 257/3/2 261/3/2
f 258/3/2 259/3/2 262/3/2
f 262/3/2 259/3/2 263/3/2
f 264/7/2 265/7/2 266/7/2
f 266/7/2 265/7/2 267/7/2
f 268/5/2 269/5/2 272/5/2
f 272/5/2 269/5/2 273/5/2
f 270/5/2 271/5/2 274/5/2
f 274/5/2 271/5/2 275/5/2
f 276/3/2 277/3/2 279/3/2
f 277/4/2 278/4/2 279/4/2
f 279/4/2 278/4/2 280/4/2
f 276/3/2 279/3/2 281/3/2
f 279/3/2 280/3/2 281/3/2
f 281/3/2 280/3/2 282/3/2
f 282/3/2 280/3/2 283/3/2
f 281/1/2 282/1/2 284/1/2
f 284/1/2 282/1/2 285/1/2
f 281/1/2 284/1/2 287/1/2
f 286/1/2 287/1/2 290/1/2
f 287/1/2 284/1/2 291/1/2
f 290/1/2 287/1/2 291/1/2
f 288/1/2 289/1/2 292/1/2
f 292/1/2 289/1/2 293/1/2
f 290/8/2 291/8/2 294/8/2
f 294/8/2 291/8/2 295/8/2
f 292/8/2 293/8/2 296/8/2
f 296/8/2 293/8/2 297/8/2
f 294/3/2 295/3/2 298/3/2
f 298/3/2 295/3/2 299/3/2
f 296/3/2 297/3/2 300/3/2
f 300/3/2 297/3/2 301/3/2
f 299/3/2 295/3/2 304/3/2
f 304/3/2 295/3/2 305/3/2
f 302/7/2 303/7/2 306/7/2
f 306/7/2 303/7/2 307/7/2
f 308/5/2 309/5/2 310/5/2
f 310/5/2 309/5/2 311/5/2
f 312/5/2 313/5/2 316/5/2
f 316/5/2 313/5/2 317/5/2
f 314/5/2 315/5/2 318/5/2
f 318/5/2 315/5/2 319/5/2
f 320/7/2 321/7/2 325/7/2
f 322/7/2 323/7/2 325/7/2
f 321/7/2 322/7/2 325/7/2
f 325/7/2 323/7/2 326/7/2
f 324/7/2 325/7/2 328/7/2
f 325/7/2 326/7/2 328/7/2
f 328/7/2 326/7/2 329/7/2
f 326/6/2 327/6/2 330/6/2
f 329/7/2 326/7/2 330/7/2
f 330/6/2 327/6/2 331/6/2
f 324/7/2 328/7/2 332/7/2
f 332/7/2 328/7/2 333/7/2
f 332/5/2 333/5/2 334/5/2
f 333/7/2 328/7/2 334/7/2
f 334/7/2 328/7/2 335/7/2
f 334/5/2 335/5/2 336/5/2
f 330/7/2 331/7/2 337/7/2
f 329/7/2 330/7/2 337/7/2
f 337/7/2 331/7/2 338/7/2
f 336/5/2 337/5/2 338/5/2
f 338/7/2 331/7/2 339/7/2
f 334/5/2 336/5/2 340/5/2
f 332/5/2 334/5/2 340/5/2
f 338/5/2 339/5/2 340/5/2
f 336/5/2 338/5/2 340/5/2
f 340/5/2 339/5/2 341/5/2
f 341/5/2 339/5/2 342/5/2
f 342/5/2 339/5/2 343/5/2
f 343/5/2 339/5/2 344/5/2
f 344/5/2 339/5/2 345/5/2
f 341/5/2 342/5/2 346/5/2
f 346/5/2 342/5/2 347/5/2
f 343/5/2 344/5/2 348/5/2
f 348/5/2 344/5/2 349/5/2
f 350/7/2 351/7/2 352/7/2
f 352/7/2 351/7/2 353/7/2
f 352/3/2 353/3/2 354/3/2
f 354/3/2 353/3/2 355/3/2
f 356/6/2 357/6/2 358/6/2
f 358/6/2 357/6/2 359/6/2
f 364/7/3 361/7/3 360/7/3
f 365/7/3 361/7/3 364/7/3
f 366/5/3 362/5/3 361/5/3
f 366/7/3 361/7/3 365/7/3
f 367/5/3 362/5/3 366/5/3
f 369/5/3 366/5/3 365/5/3
f 369/5/3 368/5/3 367/5/3
f 369/5/3 367/5/3 366/5/3
f 370/5/3 368/5/3 369/5/3
f 371/7/3 365/7/3 364/7/3
f 371/7/3 364/7/3 363/7/3
f 372/7/3 365/7/3 371/7/3
f 373/5/3 369/5/3 365/5/3
f 373/7/3 365/7/3 372/7/3
f 374/5/3 369/5/3 373/5/3
f 375/7/3 373/7/3 372/7/3
f 375/7/3 374/7/3 373/7/3
f 376/5/3 369/5/3 374/5/3
f 376/7/3 374/7/3 375/7/3
f 377/5/3 369/5/3 376/5/3
f 380/5/3 379/5/3 378/5/3
f 381/5/3 379/5/3 380/5/3
f 384/5/3 383/5/3 382/5/3
f 385/5/3 383/5/3 384/5/3
f 388/5/3 387/5/3 386/5/3
f 389/5/3 387/5/3 388/5/3
f 392/5/3 391/5/3 390/5/3
f 393/5/3 391/5/3 392/5/3
f 400/7/3 395/7/3 394/7/3
f 401/7/3 395/7/3 400/7/3
f 402/3/3 399/3/3 398/3/3
f 404/3/3 402/3/3 398/3/3
f 404/3/3 403/3/3 402/3/3
f 405/3/3 403/3/3 404/3/3
f 406/1/3 397/1/3 396/1/3
f 407/8/3 398/8/3 397/8/3
f 407/1/3 397/1/3 406/1/3
f 411/8/3 398/8/3 407/8/3
f 412/5/3 409/5/3 408/5/3
f 413/5/3 409/5/3 412/5/3
f 414/7/3 405/7/3 404/7/3
f 414/3/3 404/3/3 398/3/3
f 415/7/3 405/7/3 414/7/3
f 416/3/3 414/3/3 398/3/3
f 416/3/3 415/3/3 414/3/3
f 417/3/3 415/3/3 416/3/3
f 418/1/3 411/1/3 410/1/3
f 419/8/3 398/8/3 411/8/3
f 419/1/3 411/1/3 418/1/3
f 420/3/3 416/3/3 398/3/3
f 420/8/3 398/8/3 419/8/3
f 421/3/3 416/3/3 420/3/3
f 424/7/3 423/7/3 422/7/3
f 425/7/3 423/7/3 424/7/3
f 433/5/3 427/5/3 426/5/3
f 434/5/3 427/5/3 433/5/3
f 435/3/3 432/3/3 431/3/3
f 436/3/3 432/3/3 435/3/3
f 437/1/3 430/1/3 429/1/3
f 438/1/3 430/1/3 437/1/3
f 441/3/3 429/3/3 428/3/3
f 442/1/3 437/1/3 429/1/3
f 442/3/3 429/3/3 441/3/3
f 443/2/3 438/2/3 437/2/3
f 443/1/3 437/1/3 442/1/3
f 444/2/3 438/2/3 443/2/3
f 446/5/3 440/5/3 439/5/3
f 447/5/3 440/5/3 446/5/3
f 450/1/3 445/1/3 444/1/3
f 451/1/3 445/1/3 450/1/3
f 452/3/3 449/3/3 448/3/3
f 452/1/3 450/1/3 449/1/3
f 453/1/3 450/1/3 452/1/3
f 454/3/3 452/3/3 448/3/3
f 454/2/3 453/2/3 452/2/3
f 455/1/3 450/1/3 453/1/3
f 455/2/3 453/2/3 454/2/3
f 460/3/3 454/3/3 448/3/3
f 461/1/3 455/1/3 454/1/3
f 461/3/3 454/3/3 460/3/3
f 462/1/3 450/1/3 455/1/3
f 462/1/3 455/1/3 461/1/3
f 463/3/3 457/3/3 456/3/3
f 464/3/3 457/3/3 463/3/3
f 465/5/3 459/5/3 458/5/3
f 466/5/3 459/5/3 465/5/3
f 470/3/3 469/3/3 468/3/3
f 471/7/3 468/7/3 467/7/3
f 472/7/3 468/7/3 471/7/3
f 473/3/3 470/3/3 468/3/3
f 473/7/3 468/7/3 472/7/3
f 474/3/3 470/3/3 473/3/3
f 479/3/3 478/3/3 477/3/3
f 480/7/3 476/7/3 475/7/3
f 480/7/3 477/7/3 476/7/3
f 481/3/3 479/3/3 477/3/3
f 481/7/3 477/7/3 480/7/3
f 482/3/3 479/3/3 481/3/3
f 485/6/3 484/6/3 483/6/3
f 486/6/3 484/6/3 485/6/3
f 487/6/3 484/6/3 486/6/3
f 490/5/3 489/5/3 488/5/3
f 491/5/3 489/5/3 490/5/3
f 494/5/3 493/5/3 492/5/3
f 495/5/3 493/5/3 494/5/3
f 501/5/3 497/5/3 496/5/3
f 502/5/3 497/5/3 501/5/3
f 503/6/3 500/6/3 499/6/3
f 503/6/3 499/6/3 498/6/3
f 504/6/3 500/6/3 503/6/3
f 507/5/3 506/5/3 505/5/3
f 508/5/3 506/5/3 507/5/3
f 511/5/3 510/5/3 509/5/3
f 512/5/3 510/5/3 511/5/3
f 515/5/3 514/5/3 513/5/3
f 516/5/3 514/5/3 515/5/3
f 519/5/3 518/5/3 517/5/3
f 520/5/3 518/5/3 519/5/3
f 523/5/3 522/5/3 521/5/3
f 524/5/3 522/5/3 523/5/3
f 527/5/3 526/5/3 525/5/3
f 528/5/3 526/5/3 527/5/3
f 529/5/4 530/5/4 531/5/4
f 531/5/4 530/5/4 532/5/4
f 533/5/4 534/5/4 535/5/4
f 535/5/4 534/5/4 536/5/4
f 537/5/4 538/5/4 539/5/4
f 539/5/4 538/5/4 540/5/4
f 541/5/4 542/5/4 543/5/4
f 543/5/4 542/5/4 544/5/4
f 545/5/4 546/5/4 547/5/4
f 547/5/4 546/5/4 548/5/4
f 549/5/4 550/5/4 551/5/4
f 551/5/4 550/5/4 552/5/4
f 553/5/4 554/5/4 555/5/4
f 555/5/4 554/5/4 556/5/4
f 557/5/4 558/5/4 559/5/4
f 559/5/4 558/5/4 560/5/4
f 561/5/4 562/5/4 563/5/4
f 563/5/4 562/5/4 564/5/4
f 568/3/4 569/3/4 571/3/4
f 569/4/4 570/4/4 571/4/4
f 571/4/4 570/4/4 572/4/4
f 565/6/4 566/6/4 573/6/4
f 573/6/4 566/6/4 574/6/4
f 567/7/4 568/7/4 576/7/4
f 576/7/4 568/7/4 577/7/4
f 577/7/4 568/7/4 578/7/4
f 571/3/4 572/3/4 579/3/4
f 578/7/4 568/7/4 579/7/4
f 568/3/4 571/3/4 579/3/4
f 579/3/4 572/3/4 580/3/4
f 580/3/4 572/3/4 581/3/4
f 576/1/4 577/1/4 584/1/4
f 575/1/4 576/1/4 584/1/4
f 581/3/4 572/3/4 585/3/4
f 585/3/4 572/3/4 586/3/4
f 582/5/4 583/5/4 587/5/4
f 587/5/4 583/5/4 588/5/4
f 575/1/4 584/1/4 589/1/4
f 589/1/4 584/1/4 590/1/4
f 591/2/4 592/2/4 596/2/4
f 592/1/4 593/1/4 597/1/4
f 596/2/4 592/2/4 597/2/4
f 594/5/4 595/5/4 598/5/4
f 598/5/4 595/5/4 599/5/4
f 596/1/4 597/1/4 600/1/4
f 600/1/4 597/1/4 603/1/4
f 597/1/4 593/1/4 604/1/4
f 603/1/4 597/1/4 604/1/4
f 604/1/4 593/1/4 605/1/4
f 601/3/4 602/3/4 608/3/4
f 608/3/4 602/3/4 611/3/4
f 607/3/4 608/3/4 611/3/4
f 609/5/4 610/5/4 614/5/4
f 614/5/4 610/5/4 615/5/4
f 606/7/4 607/7/4 616/7/4
f 604/7/4 605/7/4 616/7/4
f 605/7/4 606/7/4 616/7/4
f 607/3/4 611/3/4 617/3/4
f 616/7/4 607/7/4 617/7/4
f 617/3/4 611/3/4 618/3/4
f 612/6/4 613/6/4 619/6/4
f 619/6/4 613/6/4 620/6/4
f 621/4/4 622/4/4 629/4/4
f 622/3/4 623/3/4 630/3/4
f 629/4/4 622/4/4 630/4/4
f 624/2/4 625/2/4 631/2/4
f 625/8/4 626/8/4 632/8/4
f 631/2/4 625/2/4 632/2/4
f 626/4/4 627/4/4 633/4/4
f 632/8/4 626/8/4 633/8/4
f 627/5/4 628/5/4 634/5/4
f 633/4/4 627/4/4 634/4/4
f 634/5/4 628/5/4 635/5/4
f 633/3/4 634/3/4 637/3/4
f 635/3/4 636/3/4 637/3/4
f 634/3/4 635/3/4 637/3/4
f 637/3/4 636/3/4 638/3/4
f 629/3/4 630/3/4 639/3/4
f 630/3/4 623/3/4 640/3/4
f 639/3/4 630/3/4 640/3/4
f 633/3/4 637/3/4 643/3/4
f 637/7/4 638/7/4 644/7/4
f 643/3/4 637/3/4 644/3/4
f 641/5/4 642/5/4 645/5/4
f 645/5/4 642/5/4 646/5/4
f 633/3/4 643/3/4 649/3/4
f 643/4/4 644/4/4 649/4/4
f 644/7/4 638/7/4 650/7/4
f 649/4/4 644/4/4 650/4/4
f 647/3/4 648/3/4 651/3/4
f 651/3/4 648/3/4 652/3/4
f 633/3/4 649/3/4 653/3/4
f 649/3/4 650/3/4 653/3/4
f 650/7/4 638/7/4 654/7/4
f 653/3/4 650/3/4 654/3/4
f 654/7/4 638/7/4 655/7/4
f 647/3/4 651/3/4 656/3/4
f 651/5/4 652/5/4 657/5/4
f 656/3/4 651/3/4 657/3/4
f 657/5/4 652/5/4 658/5/4
f 633/3/4 653/3/4 659/3/4
f 653/5/4 654/5/4 659/5/4
f 654/3/4 655/3/4 660/3/4
f 659/5/4 654/5/4 660/5/4
f 660/3/4 655/3/4 661/3/4
f 656/4/4 657/4/4 662/4/4
f 657/3/4 658/3/4 663/3/4
f 662/4/4 657/4/4 663/4/4
f 663/3/4 658/3/4 664/3/4
f 631/1/4 632/1/4 665/1/4
f 632/8/4 633/8/4 666/8/4
f 665/1/4 632/1/4 666/1/4
f 633/3/4 659/3/4 667/3/4
f 666/8/4 633/8/4 667/8/4
f 659/3/4 660/3/4 667/3/4
f 667/3/4 660/3/4 668/3/4
f 671/5/4 672/5/4 673/5/4
f 673/5/4 672/5/4 674/5/4
f 669/7/4 670/7/4 675/7/4
f 675/7/4 670/7/4 676/7/4
f 677/5/4 678/5/4 679/5/4
f 679/5/4 678/5/4 680/5/4
f 681/5/4 682/5/4 685/5/4
f 685/5/4 682/5/4 686/5/4
f 683/7/4 684/7/4 687/7/4
f 687/7/4 684/7/4 688/7/4
f 690/7/4 691/7/4 693/7/4
f 691/5/4 692/5/4 694/5/4
f 693/7/4 691/7/4 694/7/4
f 689/6/4 690/6/4 696/6/4
f 690/7/4 693/7/4 697/7/4
f 696/6/4 690/6/4 697/6/4
f 697/7/4 693/7/4 698/7/4
f 694/5/4 692/5/4 699/5/4
f 699/5/4 692/5/4 700/5/4
f 697/9/4 698/9/4 701/9/4
f 695/7/4 696/7/4 701/7/4
f 696/7/4 697/7/4 701/7/4
f 701/9/4 698/9/4 702/9/4
f 699/7/4 700/7/4 703/7/4
f 701/7/4 702/7/4 704/7/4
f 702/7/4 703/7/4 704/7/4
f 695/7/4 701/7/4 704/7/4
f 704/7/4 703/7/4 705/7/4
f 700/5/4 692/5/4 706/5/4
f 705/7/4 703/7/4 706/7/4
f 703/7/4 700/7/4 706/7/4
f 706/5/4 692/5/4 707/5/4
f 695/7/4 704/7/4 710/7/4
f 705/7/4 706/7/4 711/7/4
f 711/7/4 706/7/4 712/7/4
f 708/5/4 709/5/4 713/5/4
f 713/5/4 709/5/4 714/5/4
f 711/7/4 712/7/4 715/7/4
f 710/7/4 711/7/4 715/7/4
f 715/7/4 712/7/4 716/7/4
f 716/7/4 712/7/4 717/7/4
f 695/7/4 710/7/4 718/7/4
f 710/7/4 715/7/4 718/7/4
f 718/7/4 715/7/4 719/7/4
f 715/9/4 716/9/4 720/9/4
f 719/7/4 715/7/4 720/7/4
f 720/9/4 716/9/4 721/9/4
f 717/7/4 712/7/4 722/7/4
f 712/5/4 713/5/4 723/5/4
f 722/7/4 712/7/4 723/7/4
f 723/5/4 713/5/4 724/5/4
f 720/7/4 721/7/4 726/7/4
f 724/5/4 725/5/4 727/5/4
f 723/5/4 724/5/4 727/5/4
f 722/5/4 723/5/4 727/5/4
f 727/5/4 725/5/4 728/5/4
f 728/5/4 725/5/4 729/5/4
f 719/6/4 720/6/4 730/6/4
f 720/7/4 726/7/4 731/7/4
f 730/6/4 720/6/4 731/6/4
f 726/7/4 727/7/4 731/7/4
f 727/5/4 728/5/4 732/5/4
f 731/7/4 727/7/4 732/7/4
f 732/5/4 728/5/4 733/5/4
f 734/5/4 735/5/4 736/5/4
f 736/5/4 735/5/4 737/5/4
f 738/6/4 739/6/4 742/6/4
f 742/6/4 739/6/4 743/6/4
f 740/5/4 741/5/4 744/5/4
f 744/5/4 741/5/4 745/5/4
f 746/5/4 747/5/4 748/5/4
f 748/5/4 747/5/4 749/5/4
f 754/3/5 751/3/5 750/3/5
f 755/3/5 751/3/5 754/3/5
f 756/3/5 753/3/5 752/3/5
f 757/3/5 753/3/5 756/3/5
f 758/4/5 755/4/5 754/4/5
f 759/3/5 751/3/5 755/3/5
f 759/4/5 755/4/5 758/4/5
f 760/3/5 751/3/5 759/3/5
f 761/3/5 756/3/5 752/3/5
f 762/4/5 757/4/5 756/4/5
f 762/3/5 756/3/5 761/3/5
f 763/4/5 757/4/5 762/4/5
f 768/7/5 765/7/5 764/7/5
f 769/7/5 765/7/5 768/7/5
f 770/7/5 767/7/5 766/7/5
f 771/7/5 767/7/5 770/7/5
f 776/1/5 773/1/5 772/1/5
f 777/1/5 773/1/5 776/1/5
f 778/1/5 773/1/5 777/1/5
f 779/1/5 775/1/5 774/1/5
f 780/1/5 775/1/5 779/1/5
f 781/1/5 779/1/5 778/1/5
f 784/1/5 779/1/5 781/1/5
f 785/1/5 779/1/5 784/1/5
f 787/2/5 783/2/5 782/2/5
f 788/1/5 786/1/5 785/1/5
f 788/2/5 783/2/5 787/2/5
f 788/1/5 784/1/5 783/1/5
f 788/1/5 785/1/5 784/1/5
f 789/1/5 786/1/5 788/1/5
f 792/8/5 791/8/5 790/8/5
f 793/8/5 791/8/5 792/8/5
f 797/7/5 795/7/5 794/7/5
f 798/7/5 795/7/5 797/7/5
f 799/7/5 795/7/5 798/7/5
f 800/7/5 795/7/5 799/7/5
f 801/7/5 795/7/5 800/7/5
f 802/7/5 795/7/5 801/7/5
f 804/7/5 797/7/5 796/7/5
f 804/7/5 798/7/5 797/7/5
f 805/7/5 798/7/5 804/7/5
f 806/7/5 803/7/5 802/7/5
f 806/7/5 802/7/5 801/7/5
f 807/7/5 803/7/5 806/7/5
f 808/7/5 804/7/5 796/7/5
f 809/7/5 804/7/5 808/7/5
f 810/7/5 803/7/5 807/7/5
f 811/7/5 803/7/5 810/7/5
f 816/7/5 813/7/5 812/7/5
f 819/7/5 815/7/5 814/7/5
f 820/7/5 818/7/5 817/7/5
f 820/7/5 819/7/5 818/7/5
f 820/7/5 816/7/5 812/7/5
f 820/7/5 817/7/5 816/7/5
f 821/7/5 819/7/5 820/7/5
f 822/7/5 815/7/5 819/7/5
f 822/7/5 819/7/5 821/7/5
f 823/7/5 815/7/5 822/7/5
f 824/7/5 822/7/5 821/7/5
f 825/7/5 822/7/5 824/7/5
f 830/7/5 827/7/5 826/7/5
f 831/7/5 827/7/5 830/7/5
f 832/7/5 829/7/5 828/7/5
f 833/7/5 829/7/5 832/7/5
f 838/6/5 835/6/5 834/6/5
f 839/6/5 835/6/5 838/6/5
f 840/6/5 837/6/5 836/6/5
f 841/6/5 837/6/5 840/6/5
f 844/6/5 843/6/5 842/6/5
f 845/6/5 843/6/5 844/6/5
f 850/6/5 847/6/5 846/6/5
f 851/6/5 847/6/5 850/6/5
f 852/6/5 849/6/5 848/6/5
f 853/6/5 849/6/5 852/6/5
f 860/5/5 855/5/5 854/5/5
f 860/5/5 856/5/5 855/5/5
f 861/5/5 856/5/5 860/5/5
f 862/5/5 859/5/5 858/5/5
f 862/5/5 858/5/5 857/5/5
f 863/5/5 859/5/5 862/5/5
f 866/5/5 865/5/5 864/5/5
f 867/5/5 865/5/5 866/5/5
f 868/3/6 869/3/6 874/3/6
f 874/3/6 869/3/6 875/3/6
f 870/3/6 871/3/6 876/3/6
f 871/5/6 872/5/6 877/5/6
f 876/3/6 871/3/6 877/3/6
f 872/3/6 873/3/6 878/3/6
f 877/5/6 872/5/6 878/5/6
f 878/3/6 873/3/6 879/3/6
f 880/3/6 881/3/6 884/3/6
f 884/3/6 881/3/6 885/3/6
f 882/3/6 883/3/6 886/3/6
f 886/3/6 883/3/6 887/3/6
f 888/5/6 889/5/6 892/5/6
f 892/5/6 889/5/6 893/5/6
f 890/3/6 891/3/6 894/3/6
f 894/3/6 891/3/6 895/3/6
f 896/3/6 897/3/6 900/3/6
f 900/3/6 897/3/6 901/3/6
f 900/4/6 901/4/6 902/4/6
f 902/4/6 901/4/6 903/4/6
f 898/3/6 899/3/6 904/3/6
f 904/3/6 899/3/6 905/3/6
f 906/6/6 907/6/6 908/6/6
f 908/6/6 907/6/6 909/6/6
f 910/6/6 911/6/6 914/6/6
f 914/6/6 911/6/6 915/6/6
f 912/6/6 913/6/6 916/6/6
f 916/6/6 913/6/6 917/6/6
f 918/5/6 919/5/6 924/5/6
f 919/5/6 920/5/6 924/5/6
f 924/5/6 920/5/6 925/5/6
f 922/5/6 923/5/6 926/5/6
f 921/5/6 922/5/6 926/5/6
f 926/5/6 923/5/6 927/5/6
f 928/5/6 929/5/6 932/5/6
f 930/5/6 931/5/6 933/5/6
f 933/5/6 931/5/6 934/5/6
f 934/5/6 931/5/6 935/5/6
f 935/5/6 931/5/6 936/5/6
f 936/5/6 931/5/6 937/5/6
f 937/5/6 931/5/6 938/5/6
f 938/5/6 931/5/6 939/5/6
f 939/5/6 931/5/6 940/5/6
f 932/5/6 933/5/6 941/5/6
f 934/5/6 935/5/6 942/5/6
f 942/5/6 935/5/6 943/5/6
f 936/5/6 937/5/6 944/5/6
f 944/5/6 937/5/6 945/5/6
f 945/5/6 937/5/6 946/5/6
f 938/5/6 939/5/6 947/5/6
f 947/5/6 939/5/6 948/5/6
f 928/5/6 932/5/6 950/5/6
f 932/5/6 941/5/6 950/5/6
f 942/5/6 943/5/6 950/5/6
f 941/5/6 942/5/6 950/5/6
f 943/5/6 944/5/6 950/5/6
f 950/5/6 944/5/6 951/5/6
f 951/5/6 944/5/6 952/5/6
f 952/5/6 944/5/6 953/5/6
f 953/5/6 944/5/6 954/5/6
f 948/5/6 949/5/6 955/5/6
f 945/5/6 946/5/6 955/5/6
f 947/5/6 948/5/6 955/5/6
f 946/5/6 947/5/6 955/5/6
f 955/5/6 949/5/6 956/5/6
f 956/5/6 949/5/6 957/5/6
f 951/5/6 952/5/6 959/5/6
f 959/5/6 952/5/6 960/5/6
f 953/5/6 954/5/6 961/5/6
f 954/5/6 955/5/6 961/5/6
f 955/5/6 956/5/6 961/5/6
f 961/5/6 956/5/6 962/5/6
f 957/5/6 949/5/6 963/5/6
f 959/5/6 960/5/6 964/5/6
f 962/5/6 963/5/6 964/5/6
f 961/5/6 962/5/6 964/5/6
f 958/5/6 959/5/6 964/5/6
f 960/5/6 961/5/6 964/5/6
f 964/5/6 963/5/6 965/5/6
f 965/5/6 963/5/6 966/5/6
f 966/5/6 963/5/6 967/5/6
f 963/5/6 949/5/6 968/5/6
f 967/5/6 963/5/6 968/5/6
f 968/5/6 949/5/6 969/5/6
f 958/5/6 964/5/6 970/5/6
f 965/5/6 966/5/6 971/5/6
f 971/5/6 966/5/6 972/5/6
f 972/5/6 966/5/6 973/5/6
f 973/5/6 966/5/6 974/5/6
f 967/5/6 968/5/6 975/5/6
f 975/5/6 968/5/6 976/5/6
f 958/5/6 970/5/6 978/5/6
f 970/5/6 971/5/6 978/5/6
f 971/5/6 972/5/6 978/5/6
f 978/5/6 972/5/6 979/5/6
f 979/5/6 972/5/6 980/5/6
f 980/5/6 972/5/6 981/5/6
f 981/5/6 972/5/6 982/5/6
f 973/5/6 974/5/6 983/5/6
f 976/5/6 977/5/6 983/5/6
f 975/5/6 976/5/6 983/5/6
f 974/5/6 975/5/6 983/5/6
f 983/5/6 977/5/6 984/5/6
f 984/5/6 977/5/6 985/5/6
f 979/5/6 980/5/6 987/5/6
f 987/5/6 980/5/6 988/5/6
f 981/5/6 982/5/6 989/5/6
f 982/5/6 983/5/6 989/5/6
f 983/5/6 984/5/6 989/5/6
f 989/5/6 984/5/6 990/5/6
f 990/5/6 984/5/6 991/5/6
f 991/5/6 984/5/6 992/5/6
f 985/5/6 977/5/6 993/5/6
f 993/5/6 977/5/6 994/5/6
f 987/5/6 988/5/6 995/5/6
f 986/5/6 987/5/6 995/5/6
f 988/5/6 989/5/6 995/5/6
f 989/5/6 990/5/6 995/5/6
f 995/5/6 990/5/6 996/5/6
f 996/5/6 990/5/6 997/5/6
f 991/5/6 992/5/6 998/5/6
f 992/5/6 993/5/6 998/5/6
f 998/5/6 993/5/6 999/5/6
f 994/5/6 977/5/6 1000/5/6
f 1000/5/6 977/5/6 1001/5/6
f 996/5/6 997/5/6 1002/5/6
f 997/5/6 998/5/6 1002/5/6
f 1002/5/6 998/5/6 1003/5/6
f 1004/5/6 1005/5/6 1006/5/6
f 1006/5/6 1005/5/6 1007/5/6
f 1007/5/6 1008/5/6 1015/5/6
f 1015/5/6 1008/5/6 1016/5/6
f 1009/5/6 1010/5/6 1017/5/6
f 1017/5/6 1010/5/6 1018/5/6
f 1011/5/6 1012/5/6 1020/5/6
f 1020/5/6 1012/5/6 1021/5/6
f 1013/5/6 1014/5/6 1022/5/6
f 1022/5/6 1014/5/6 1023/5/6
f 1018/5/6 1019/5/6 1028/5/6
f 1028/5/6 1019/5/6 1029/5/6
f 1024/5/6 1025/5/6 1032/5/6
f 1032/5/6 1025/5/6 1033/5/6
f 1026/5/6 1027/5/6 1034/5/6
f 1034/5/6 1027/5/6 1035/5/6
f 1030/5/6 1031/5/6 1036/5/6
f 1036/5/6 1031/5/6 1037/5/6
f 1038/5/6 1039/5/6 1044/5/6
f 1044/5/6 1039/5/6 1045/5/6
f 1040/5/6 1041/5/6 1048/5/6
f 1048/5/6 1041/5/6 1049/5/6
f 1042/5/6 1043/5/6 1050/5/6
f 1050/5/6 1043/5/6 1051/5/6
f 1046/5/6 1047/5/6 1056/5/6
f 1056/5/6 1047/5/6 1057/5/6
f 1052/5/6 1053/5/6 1060/5/6
f 1060/5/6 1053/5/6 1061/5/6
f 1054/5/6 1055/5/6 1062/5/6
f 1062/5/6 1055/5/6 1063/5/6
f 1058/5/6 1059/5/6 1066/5/6
f 1066/5/6 1059/5/6 1067/5/6
f 1064/5/6 1065/5/6 1069/5/6
f 1069/5/6 1065/5/6 1070/5/6
f 1067/5/6 1068/5/6 1071/5/6
f 1071/5/6 1068/5/6 1072/5/6
