# MagicaVoxel @ Ephtracy

# group
o 

# material
mtllib YellowPlayer1.mtl
usemtl palette

# normals
vn -1 0 0
vn 1 0 0
vn 0 0 1
vn 0 0 -1
vn 0 -1 0
vn 0 1 0

# texcoords
vt 0.0839844 0.5
vt 0.248047 0.5
vt 0.373047 0.5
vt 0.431641 0.5
vt 0.439453 0.5
vt 0.470703 0.5
vt 0.494141 0.5
vt 0.994141 0.5

# verts
v -0.7 2.2 0
v -0.7 2.2 -0.1
v -0.7 2.5 0
v -0.7 2.5 -0.1
v -0.6 1.3 0.1
v -0.6 1.3 -0.1
v -0.6 1.5 0.1
v -0.6 1.5 -0.1
v -0.6 1.6 0.1
v -0.6 1.6 -0.1
v -0.6 1.8 0.4
v -0.6 1.8 0.3
v -0.6 1.8 0
v -0.6 1.8 -0.1
v -0.6 1.8 -0.3
v -0.6 1.8 -0.4
v -0.6 1.9 0.1
v -0.6 1.9 0
v -0.6 1.9 -0.1
v -0.6 2.1 0.3
v -0.6 2.1 0.2
v -0.6 2.1 -0.2
v -0.6 2.1 -0.3
v -0.6 2.2 0.2
v -0.6 2.2 0
v -0.6 2.2 -0.1
v -0.6 2.2 -0.2
v -0.6 2.5 0
v -0.6 2.5 -0.1
v -0.6 2.7 0.4
v -0.6 2.7 -0.4
v -0.5 1.9 0.3
v -0.5 1.9 0.1
v -0.5 1.9 0
v -0.5 1.9 -0.1
v -0.5 1.9 -0.3
v -0.5 2 0.5
v -0.5 2 0.4
v -0.5 2.1 0.3
v -0.5 2.1 0.2
v -0.5 2.1 -0.2
v -0.5 2.1 -0.3
v -0.5 2.2 0.2
v -0.5 2.2 0
v -0.5 2.2 -0.1
v -0.5 2.2 -0.2
v -0.5 2.7 0.5
v -0.5 2.7 0.4
v -0.5 2.7 -0.4
v -0.5 2.8 0.4
v -0.5 2.8 -0.4
v -0.4 1 0.2
v -0.4 1 -0.1
v -0.4 1 -0.2
v -0.4 1.1 -0.1
v -0.4 1.1 -0.2
v -0.4 1.2 0.2
v -0.4 1.2 -0.1
v -0.4 1.2 -0.2
v -0.4 1.3 0.1
v -0.4 1.3 -0.1
v -0.4 1.4 0.3
v -0.4 1.4 0.2
v -0.4 1.4 -0.1
v -0.4 1.4 -0.2
v -0.4 1.5 0.3
v -0.4 1.5 0.1
v -0.4 1.5 -0.1
v -0.4 1.5 -0.2
v -0.4 1.6 0.1
v -0.4 1.6 -0.1
v -0.4 1.7 0.3
v -0.4 1.7 0.2
v -0.4 1.7 -0.1
v -0.4 1.7 -0.2
v -0.4 1.8 0.6
v -0.4 1.8 0.5
v -0.4 1.8 0.3
v -0.4 1.8 0.2
v -0.4 1.8 0.1
v -0.4 1.8 -0.1
v -0.4 1.8 -0.2
v -0.4 1.9 0.5
v -0.4 1.9 0.3
v -0.4 2 0.5
v -0.4 2 0.3
v -0.4 2.5 -0.4
v -0.4 2.5 -0.5
v -0.4 2.6 -0.4
v -0.4 2.6 -0.5
v -0.4 2.7 0.6
v -0.4 2.7 0.5
v -0.4 2.7 0.4
v -0.4 2.8 0.5
v -0.4 2.8 0.4
v -0.3 1.8 0.2
v -0.3 1.8 0.1
v -0.3 1.8 -0.1
v -0.3 1.8 -0.2
v -0.3 1.9 0.2
v -0.3 1.9 0.1
v -0.3 1.9 -0.1
v -0.3 1.9 -0.2
v -0.3 1.9 -0.3
v -0.3 1.9 -0.4
v -0.3 2 -0.3
v -0.3 2 -0.4
v -0.3 2.7 -0.4
v -0.3 2.7 -0.5
v -0.3 2.8 -0.4
v -0.3 2.8 -0.5
v -0.2 2.8 -0.2
v -0.2 2.8 -0.5
v -0.2 2.9 -0.2
v -0.2 2.9 -0.5
v -0.1 2.1 -0.4
v -0.1 2.1 -0.5
v -0.1 2.4 -0.4
v -0.1 2.4 -0.5
v -0.1 2.8 -0.1
v -0.1 2.8 -0.2
v -0.1 2.9 -0.1
v -0.1 2.9 -0.2
v 0.1 1 0.2
v 0.1 1 -0.2
v 0.1 1.1 -0.1
v 0.1 1.1 -0.2
v 0.1 1.2 0.2
v 0.1 1.2 -0.1
v 0.1 1.2 -0.2
v 0.1 1.4 0.3
v 0.1 1.4 0.2
v 0.1 1.4 -0.1
v 0.1 1.5 0.3
v 0.1 1.5 0.2
v 0.1 2.5 -0.4
v 0.1 2.5 -0.5
v 0.1 2.6 -0.4
v 0.1 2.6 -0.5
v 0.5 1.8 0.4
v 0.5 1.8 0.3
v 0.5 1.8 -0.3
v 0.5 1.8 -0.4
v 0.5 1.9 0.3
v 0.5 1.9 -0.3
v 0.5 2 0.4
v 0.5 2 0.3
v 0.5 2 -0.3
v 0.5 2 -0.4
v -0.5 1.8 0.4
v -0.5 1.8 0.3
v -0.5 1.8 -0.3
v -0.5 1.8 -0.4
v -0.5 1.9 0.3
v -0.5 1.9 -0.3
v -0.5 2 0.4
v -0.5 2 0.3
v -0.5 2 -0.3
v -0.5 2 -0.4
v -0.1 1 0.2
v -0.1 1 -0.2
v -0.1 1.1 -0.1
v -0.1 1.1 -0.2
v -0.1 1.2 0.2
v -0.1 1.2 -0.1
v -0.1 1.2 -0.2
v -0.1 1.4 0.3
v -0.1 1.4 0.2
v -0.1 1.4 -0.1
v -0.1 1.5 0.3
v -0.1 1.5 0.2
v -0.1 2.5 -0.4
v -0.1 2.5 -0.5
v -0.1 2.6 -0.4
v -0.1 2.6 -0.5
v 0.1 2.1 -0.4
v 0.1 2.1 -0.5
v 0.1 2.4 -0.4
v 0.1 2.4 -0.5
v 0.1 2.8 -0.1
v 0.1 2.8 -0.2
v 0.1 2.9 -0.1
v 0.1 2.9 -0.2
v 0.2 2.8 -0.2
v 0.2 2.8 -0.5
v 0.2 2.9 -0.2
v 0.2 2.9 -0.5
v 0.3 1.8 0.2
v 0.3 1.8 0.1
v 0.3 1.8 -0.1
v 0.3 1.8 -0.2
v 0.3 1.9 0.2
v 0.3 1.9 0.1
v 0.3 1.9 -0.1
v 0.3 1.9 -0.2
v 0.3 1.9 -0.3
v 0.3 1.9 -0.4
v 0.3 2 -0.3
v 0.3 2 -0.4
v 0.3 2.7 -0.4
v 0.3 2.7 -0.5
v 0.3 2.8 -0.4
v 0.3 2.8 -0.5
v 0.4 1 0.2
v 0.4 1 -0.1
v 0.4 1 -0.2
v 0.4 1.1 -0.1
v 0.4 1.1 -0.2
v 0.4 1.2 0.2
v 0.4 1.2 -0.1
v 0.4 1.2 -0.2
v 0.4 1.3 0.1
v 0.4 1.3 -0.1
v 0.4 1.4 0.3
v 0.4 1.4 0.2
v 0.4 1.4 -0.1
v 0.4 1.4 -0.2
v 0.4 1.5 0.3
v 0.4 1.5 0.1
v 0.4 1.5 -0.1
v 0.4 1.5 -0.2
v 0.4 1.6 0.3
v 0.4 1.6 0.2
v 0.4 1.6 0.1
v 0.4 1.6 -0.1
v 0.4 1.6 -0.2
v 0.4 1.7 0.3
v 0.4 1.7 0.2
v 0.4 1.7 -0.1
v 0.4 1.7 -0.2
v 0.4 1.8 0.6
v 0.4 1.8 0.5
v 0.4 1.8 0.3
v 0.4 1.8 0.1
v 0.4 1.8 -0.1
v 0.4 1.8 -0.2
v 0.4 1.9 0.5
v 0.4 1.9 0.3
v 0.4 2 0.5
v 0.4 2 0.3
v 0.4 2.5 -0.4
v 0.4 2.5 -0.5
v 0.4 2.6 -0.4
v 0.4 2.6 -0.5
v 0.4 2.7 0.6
v 0.4 2.7 0.5
v 0.4 2.7 0.4
v 0.4 2.8 0.5
v 0.4 2.8 0.4
v 0.5 1.9 0.3
v 0.5 1.9 0.1
v 0.5 1.9 0
v 0.5 1.9 -0.1
v 0.5 1.9 -0.3
v 0.5 2 0.5
v 0.5 2 0.4
v 0.5 2.1 0.3
v 0.5 2.1 0.2
v 0.5 2.1 -0.2
v 0.5 2.1 -0.3
v 0.5 2.2 0.2
v 0.5 2.2 0
v 0.5 2.2 -0.1
v 0.5 2.2 -0.2
v 0.5 2.7 0.5
v 0.5 2.7 0.4
v 0.5 2.7 -0.4
v 0.5 2.8 0.4
v 0.5 2.8 -0.4
v 0.6 1.3 0.1
v 0.6 1.3 -0.1
v 0.6 1.5 0.1
v 0.6 1.5 -0.1
v 0.6 1.6 0.1
v 0.6 1.6 -0.1
v 0.6 1.8 0.4
v 0.6 1.8 0.3
v 0.6 1.8 0
v 0.6 1.8 -0.1
v 0.6 1.8 -0.3
v 0.6 1.8 -0.4
v 0.6 1.9 0.1
v 0.6 1.9 0
v 0.6 1.9 -0.1
v 0.6 2.1 0.3
v 0.6 2.1 0.2
v 0.6 2.1 -0.2
v 0.6 2.1 -0.3
v 0.6 2.2 0.2
v 0.6 2.2 0
v 0.6 2.2 -0.1
v 0.6 2.2 -0.2
v 0.6 2.5 0
v 0.6 2.5 -0.1
v 0.6 2.7 0.4
v 0.6 2.7 -0.4
v 0.7 2.2 0
v 0.7 2.2 -0.1
v 0.7 2.5 0
v 0.7 2.5 -0.1
v -0.4 1.8 0.6
v -0.4 2.7 0.6
v 0.4 1.8 0.6
v 0.4 2.7 0.6
v -0.5 2 0.5
v -0.5 2.7 0.5
v -0.4 2 0.5
v -0.4 2.7 0.5
v -0.4 2.8 0.5
v 0.4 2 0.5
v 0.4 2.7 0.5
v 0.4 2.8 0.5
v 0.5 2 0.5
v 0.5 2.7 0.5
v -0.6 1.8 0.4
v -0.6 2.7 0.4
v -0.5 1.8 0.4
v -0.5 2 0.4
v -0.5 2.7 0.4
v -0.5 2.8 0.4
v -0.4 2.7 0.4
v -0.4 2.8 0.4
v 0.4 2.7 0.4
v 0.4 2.8 0.4
v 0.5 1.8 0.4
v 0.5 2 0.4
v 0.5 2.7 0.4
v 0.5 2.8 0.4
v 0.6 1.8 0.4
v 0.6 2.7 0.4
v -0.5 1.9 0.3
v -0.5 2 0.3
v -0.4 1.4 0.3
v -0.4 1.5 0.3
v -0.4 1.7 0.3
v -0.4 1.8 0.3
v -0.4 1.9 0.3
v -0.4 2 0.3
v -0.3 1.7 0.3
v -0.3 1.8 0.3
v -0.1 1.4 0.3
v -0.1 1.5 0.3
v 0.1 1.4 0.3
v 0.1 1.5 0.3
v 0.3 1.6 0.3
v 0.3 1.7 0.3
v 0.4 1.4 0.3
v 0.4 1.5 0.3
v 0.4 1.6 0.3
v 0.4 1.7 0.3
v 0.4 1.8 0.3
v 0.4 1.9 0.3
v 0.4 2 0.3
v 0.5 1.9 0.3
v 0.5 2 0.3
v -0.4 1 0.2
v -0.4 1.2 0.2
v -0.4 1.4 0.2
v -0.3 1.8 0.2
v -0.3 1.9 0.2
v -0.1 1 0.2
v -0.1 1.2 0.2
v -0.1 1.4 0.2
v -0.1 1.5 0.2
v 0.1 1 0.2
v 0.1 1.2 0.2
v 0.1 1.4 0.2
v 0.1 1.5 0.2
v 0.3 1.8 0.2
v 0.3 1.9 0.2
v 0.4 1 0.2
v 0.4 1.2 0.2
v 0.4 1.4 0.2
v -0.6 1.3 0.1
v -0.6 1.5 0.1
v -0.6 1.6 0.1
v -0.6 1.9 0.1
v -0.5 1.9 0.1
v -0.4 1.3 0.1
v -0.4 1.5 0.1
v -0.4 1.6 0.1
v -0.4 1.8 0.1
v -0.3 1.8 0.1
v -0.3 1.9 0.1
v 0.3 1.8 0.1
v 0.3 1.9 0.1
v 0.4 1.3 0.1
v 0.4 1.5 0.1
v 0.4 1.6 0.1
v 0.4 1.8 0.1
v 0.5 1.9 0.1
v 0.6 1.3 0.1
v 0.6 1.5 0.1
v 0.6 1.6 0.1
v 0.6 1.9 0.1
v -0.7 2.2 0
v -0.7 2.5 0
v -0.6 2.2 0
v -0.6 2.5 0
v 0.6 2.2 0
v 0.6 2.5 0
v 0.7 2.2 0
v 0.7 2.5 0
v -0.1 2.8 -0.1
v -0.1 2.9 -0.1
v 0.1 2.8 -0.1
v 0.1 2.9 -0.1
v -0.6 2.1 -0.2
v -0.6 2.2 -0.2
v -0.5 2.1 -0.2
v -0.5 2.2 -0.2
v -0.2 2.8 -0.2
v -0.2 2.9 -0.2
v -0.1 2.8 -0.2
v -0.1 2.9 -0.2
v 0.1 2.8 -0.2
v 0.1 2.9 -0.2
v 0.2 2.8 -0.2
v 0.2 2.9 -0.2
v 0.5 2.1 -0.2
v 0.5 2.2 -0.2
v 0.6 2.1 -0.2
v 0.6 2.2 -0.2
v -0.6 1.8 -0.3
v -0.6 2.1 -0.3
v -0.5 1.8 -0.3
v -0.5 1.9 -0.3
v -0.5 2.1 -0.3
v 0.5 1.8 -0.3
v 0.5 1.9 -0.3
v 0.5 2.1 -0.3
v 0.6 1.8 -0.3
v 0.6 2.1 -0.3
v -0.4 1.8 0.5
v -0.4 1.9 0.5
v 0.4 1.8 0.5
v 0.4 1.9 0.5
v -0.6 1.8 0.3
v -0.6 2.1 0.3
v -0.5 1.8 0.3
v -0.5 1.9 0.3
v -0.5 2.1 0.3
v 0.5 1.8 0.3
v 0.5 1.9 0.3
v 0.5 2.1 0.3
v 0.6 1.8 0.3
v 0.6 2.1 0.3
v -0.6 2.1 0.2
v -0.6 2.2 0.2
v -0.5 2.1 0.2
v -0.5 2.2 0.2
v 0.5 2.1 0.2
v 0.5 2.2 0.2
v 0.6 2.1 0.2
v 0.6 2.2 0.2
v -0.7 2.2 -0.1
v -0.7 2.5 -0.1
v -0.6 1.3 -0.1
v -0.6 1.5 -0.1
v -0.6 1.6 -0.1
v -0.6 1.8 -0.1
v -0.6 1.9 -0.1
v -0.6 2.2 -0.1
v -0.6 2.5 -0.1
v -0.5 1.8 -0.1
v -0.5 1.9 -0.1
v -0.4 1.2 -0.1
v -0.4 1.3 -0.1
v -0.4 1.4 -0.1
v -0.4 1.5 -0.1
v -0.4 1.6 -0.1
v -0.4 1.7 -0.1
v -0.4 1.8 -0.1
v -0.3 1.8 -0.1
v -0.3 1.9 -0.1
v -0.2 1.2 -0.1
v -0.1 1.2 -0.1
v -0.1 1.4 -0.1
v 0.1 1.2 -0.1
v 0.1 1.4 -0.1
v 0.2 1.2 -0.1
v 0.3 1.8 -0.1
v 0.3 1.9 -0.1
v 0.4 1.2 -0.1
v 0.4 1.3 -0.1
v 0.4 1.4 -0.1
v 0.4 1.5 -0.1
v 0.4 1.6 -0.1
v 0.4 1.7 -0.1
v 0.4 1.8 -0.1
v 0.5 1.8 -0.1
v 0.5 1.9 -0.1
v 0.6 1.3 -0.1
v 0.6 1.5 -0.1
v 0.6 1.6 -0.1
v 0.6 1.8 -0.1
v 0.6 1.9 -0.1
v 0.6 2.2 -0.1
v 0.6 2.5 -0.1
v 0.7 2.2 -0.1
v 0.7 2.5 -0.1
v -0.4 1 -0.2
v -0.4 1.1 -0.2
v -0.4 1.2 -0.2
v -0.4 1.4 -0.2
v -0.4 1.5 -0.2
v -0.4 1.7 -0.2
v -0.4 1.8 -0.2
v -0.3 1 -0.2
v -0.3 1.1 -0.2
v -0.3 1.7 -0.2
v -0.3 1.8 -0.2
v -0.3 1.9 -0.2
v -0.2 1.1 -0.2
v -0.2 1.2 -0.2
v -0.2 1.7 -0.2
v -0.2 1.8 -0.2
v -0.1 1 -0.2
v -0.1 1.1 -0.2
v -0.1 1.2 -0.2
v -0.1 1.8 -0.2
v -0.1 1.9 -0.2
v 0.1 1 -0.2
v 0.1 1.1 -0.2
v 0.1 1.2 -0.2
v 0.1 1.8 -0.2
v 0.1 1.9 -0.2
v 0.2 1.1 -0.2
v 0.2 1.2 -0.2
v 0.2 1.7 -0.2
v 0.2 1.8 -0.2
v 0.3 1 -0.2
v 0.3 1.1 -0.2
v 0.3 1.6 -0.2
v 0.3 1.7 -0.2
v 0.3 1.8 -0.2
v 0.3 1.9 -0.2
v 0.4 1 -0.2
v 0.4 1.1 -0.2
v 0.4 1.2 -0.2
v 0.4 1.4 -0.2
v 0.4 1.5 -0.2
v 0.4 1.6 -0.2
v 0.4 1.7 -0.2
v 0.4 1.8 -0.2
v -0.5 1.9 -0.3
v -0.5 2 -0.3
v -0.3 1.9 -0.3
v -0.3 2 -0.3
v 0.3 1.9 -0.3
v 0.3 2 -0.3
v 0.5 1.9 -0.3
v 0.5 2 -0.3
v -0.6 1.8 -0.4
v -0.6 2.7 -0.4
v -0.5 1.8 -0.4
v -0.5 2 -0.4
v -0.5 2.2 -0.4
v -0.5 2.7 -0.4
v -0.5 2.8 -0.4
v -0.4 2.4 -0.4
v -0.4 2.5 -0.4
v -0.4 2.6 -0.4
v -0.3 1.9 -0.4
v -0.3 2 -0.4
v -0.3 2.2 -0.4
v -0.3 2.4 -0.4
v -0.3 2.7 -0.4
v -0.3 2.8 -0.4
v -0.2 2.2 -0.4
v -0.2 2.5 -0.4
v -0.1 2.1 -0.4
v -0.1 2.4 -0.4
v -0.1 2.5 -0.4
v -0.1 2.6 -0.4
v 0.1 2.1 -0.4
v 0.1 2.4 -0.4
v 0.1 2.5 -0.4
v 0.1 2.6 -0.4
v 0.2 2.2 -0.4
v 0.2 2.5 -0.4
v 0.3 1.9 -0.4
v 0.3 2 -0.4
v 0.3 2.2 -0.4
v 0.3 2.4 -0.4
v 0.3 2.7 -0.4
v 0.3 2.8 -0.4
v 0.4 2.4 -0.4
v 0.4 2.5 -0.4
v 0.4 2.6 -0.4
v 0.5 1.8 -0.4
v 0.5 2 -0.4
v 0.5 2.2 -0.4
v 0.5 2.7 -0.4
v 0.5 2.8 -0.4
v 0.6 1.8 -0.4
v 0.6 2.7 -0.4
v -0.4 2.5 -0.5
v -0.4 2.6 -0.5
v -0.3 2.7 -0.5
v -0.3 2.8 -0.5
v -0.2 2.8 -0.5
v -0.2 2.9 -0.5
v -0.1 2.1 -0.5
v -0.1 2.4 -0.5
v -0.1 2.5 -0.5
v -0.1 2.6 -0.5
v 0.1 2.1 -0.5
v 0.1 2.4 -0.5
v 0.1 2.5 -0.5
v 0.1 2.6 -0.5
v 0.2 2.8 -0.5
v 0.2 2.9 -0.5
v 0.3 2.7 -0.5
v 0.3 2.8 -0.5
v 0.4 2.5 -0.5
v 0.4 2.6 -0.5
v -0.4 1 0.2
v -0.1 1 0.2
v 0.1 1 0.2
v 0.4 1 0.2
v -0.4 1 -0.1
v -0.3 1 -0.1
v 0.3 1 -0.1
v 0.4 1 -0.1
v -0.4 1 -0.2
v -0.3 1 -0.2
v -0.1 1 -0.2
v 0.1 1 -0.2
v 0.3 1 -0.2
v 0.4 1 -0.2
v -0.6 1.3 0.1
v -0.4 1.3 0.1
v 0.4 1.3 0.1
v 0.6 1.3 0.1
v -0.6 1.3 -0.1
v -0.4 1.3 -0.1
v 0.4 1.3 -0.1
v 0.6 1.3 -0.1
v -0.4 1.4 0.3
v -0.1 1.4 0.3
v 0.1 1.4 0.3
v 0.4 1.4 0.3
v -0.4 1.4 0.2
v -0.1 1.4 0.2
v 0.1 1.4 0.2
v 0.4 1.4 0.2
v -0.4 1.4 -0.1
v -0.1 1.4 -0.1
v 0.1 1.4 -0.1
v 0.4 1.4 -0.1
v -0.4 1.4 -0.2
v 0.4 1.4 -0.2
v -0.1 1.5 0.3
v 0.1 1.5 0.3
v -0.1 1.5 0.2
v 0.1 1.5 0.2
v -0.4 1.8 0.6
v 0.4 1.8 0.6
v -0.4 1.8 0.5
v 0.4 1.8 0.5
v -0.6 1.8 0.4
v -0.5 1.8 0.4
v 0.5 1.8 0.4
v 0.6 1.8 0.4
v -0.6 1.8 0.3
v -0.5 1.8 0.3
v 0.5 1.8 0.3
v 0.6 1.8 0.3
v -0.6 1.8 -0.3
v -0.5 1.8 -0.3
v 0.5 1.8 -0.3
v 0.6 1.8 -0.3
v -0.6 1.8 -0.4
v -0.5 1.8 -0.4
v 0.5 1.8 -0.4
v 0.6 1.8 -0.4
v -0.4 1.9 0.5
v 0.4 1.9 0.5
v -0.5 1.9 0.3
v -0.4 1.9 0.3
v 0.4 1.9 0.3
v 0.5 1.9 0.3
v -0.3 1.9 0.2
v 0.3 1.9 0.2
v -0.5 1.9 0.1
v -0.3 1.9 0.1
v 0.3 1.9 0.1
v 0.5 1.9 0.1
v -0.5 1.9 -0.1
v -0.3 1.9 -0.1
v 0.3 1.9 -0.1
v 0.5 1.9 -0.1
v -0.3 1.9 -0.2
v -0.1 1.9 -0.2
v 0.1 1.9 -0.2
v 0.3 1.9 -0.2
v -0.5 1.9 -0.3
v -0.3 1.9 -0.3
v 0.3 1.9 -0.3
v 0.5 1.9 -0.3
v -0.3 1.9 -0.4
v 0.3 1.9 -0.4
v -0.5 2 0.5
v -0.4 2 0.5
v 0.4 2 0.5
v 0.5 2 0.5
v -0.5 2 0.4
v 0.5 2 0.4
v -0.5 2 0.3
v -0.4 2 0.3
v 0.4 2 0.3
v 0.5 2 0.3
v -0.5 2 -0.3
v -0.3 2 -0.3
v 0.3 2 -0.3
v 0.5 2 -0.3
v -0.5 2 -0.4
v -0.3 2 -0.4
v 0.3 2 -0.4
v 0.5 2 -0.4
v -0.6 2.1 0.3
v -0.5 2.1 0.3
v 0.5 2.1 0.3
v 0.6 2.1 0.3
v -0.6 2.1 0.2
v -0.5 2.1 0.2
v 0.5 2.1 0.2
v 0.6 2.1 0.2
v -0.6 2.1 -0.2
v -0.5 2.1 -0.2
v 0.5 2.1 -0.2
v 0.6 2.1 -0.2
v -0.6 2.1 -0.3
v -0.5 2.1 -0.3
v 0.5 2.1 -0.3
v 0.6 2.1 -0.3
v -0.1 2.1 -0.4
v 0.1 2.1 -0.4
v -0.1 2.1 -0.5
v 0.1 2.1 -0.5
v -0.6 2.2 0.2
v -0.5 2.2 0.2
v 0.5 2.2 0.2
v 0.6 2.2 0.2
v -0.7 2.2 0
v -0.6 2.2 0
v -0.5 2.2 0
v 0.5 2.2 0
v 0.6 2.2 0
v 0.7 2.2 0
v -0.7 2.2 -0.1
v -0.6 2.2 -0.1
v -0.5 2.2 -0.1
v 0.5 2.2 -0.1
v 0.6 2.2 -0.1
v 0.7 2.2 -0.1
v -0.6 2.2 -0.2
v -0.5 2.2 -0.2
v 0.5 2.2 -0.2
v 0.6 2.2 -0.2
v -0.4 2.5 -0.4
v -0.2 2.5 -0.4
v -0.1 2.5 -0.4
v 0.1 2.5 -0.4
v 0.2 2.5 -0.4
v 0.4 2.5 -0.4
v -0.4 2.5 -0.5
v -0.1 2.5 -0.5
v 0.1 2.5 -0.5
v 0.4 2.5 -0.5
v -0.3 2.7 -0.4
v 0.3 2.7 -0.4
v -0.3 2.7 -0.5
v 0.3 2.7 -0.5
v -0.4 1.2 -0.1
v -0.2 1.2 -0.1
v -0.1 1.2 -0.1
v 0.1 1.2 -0.1
v 0.2 1.2 -0.1
v 0.4 1.2 -0.1
v -0.4 1.2 -0.2
v -0.2 1.2 -0.2
v -0.1 1.2 -0.2
v 0.1 1.2 -0.2
v 0.2 1.2 -0.2
v 0.4 1.2 -0.2
v -0.4 1.8 0.3
v -0.3 1.8 0.3
v 0.4 1.8 0.3
v -0.4 1.8 0.2
v -0.3 1.8 0.2
v 0.3 1.8 0.2
v -0.4 1.8 0.1
v -0.3 1.8 0.1
v 0.3 1.8 0.1
v 0.4 1.8 0.1
v -0.4 1.8 -0.1
v -0.3 1.8 -0.1
v 0.3 1.8 -0.1
v 0.4 1.8 -0.1
v -0.4 1.8 -0.2
v -0.3 1.8 -0.2
v 0.3 1.8 -0.2
v 0.4 1.8 -0.2
v -0.6 1.9 0.1
v -0.5 1.9 0.1
v 0.5 1.9 0.1
v 0.6 1.9 0.1
v -0.6 1.9 0
v -0.5 1.9 0
v 0.5 1.9 0
v 0.6 1.9 0
v -0.6 1.9 -0.1
v -0.5 1.9 -0.1
v 0.5 1.9 -0.1
v 0.6 1.9 -0.1
v -0.1 2.4 -0.4
v 0.1 2.4 -0.4
v -0.1 2.4 -0.5
v 0.1 2.4 -0.5
v -0.7 2.5 0
v -0.6 2.5 0
v 0.6 2.5 0
v 0.7 2.5 0
v -0.7 2.5 -0.1
v -0.6 2.5 -0.1
v 0.6 2.5 -0.1
v 0.7 2.5 -0.1
v -0.4 2.6 -0.4
v -0.1 2.6 -0.4
v 0.1 2.6 -0.4
v 0.4 2.6 -0.4
v -0.4 2.6 -0.5
v -0.1 2.6 -0.5
v 0.1 2.6 -0.5
v 0.4 2.6 -0.5
v -0.4 2.7 0.6
v 0.4 2.7 0.6
v -0.5 2.7 0.5
v -0.4 2.7 0.5
v 0.4 2.7 0.5
v 0.5 2.7 0.5
v -0.6 2.7 0.4
v -0.5 2.7 0.4
v -0.4 2.7 0.4
v 0.4 2.7 0.4
v 0.5 2.7 0.4
v 0.6 2.7 0.4
v -0.6 2.7 -0.4
v -0.5 2.7 -0.4
v 0.5 2.7 -0.4
v 0.6 2.7 -0.4
v -0.4 2.8 0.5
v 0.4 2.8 0.5
v -0.5 2.8 0.4
v -0.4 2.8 0.4
v 0.4 2.8 0.4
v 0.5 2.8 0.4
v -0.1 2.8 -0.1
v 0.1 2.8 -0.1
v -0.2 2.8 -0.2
v -0.1 2.8 -0.2
v 0.1 2.8 -0.2
v 0.2 2.8 -0.2
v -0.5 2.8 -0.4
v -0.3 2.8 -0.4
v 0.3 2.8 -0.4
v 0.5 2.8 -0.4
v -0.3 2.8 -0.5
v -0.2 2.8 -0.5
v 0.2 2.8 -0.5
v 0.3 2.8 -0.5
v -0.1 2.9 -0.1
v 0.1 2.9 -0.1
v -0.2 2.9 -0.2
v -0.1 2.9 -0.2
v 0.1 2.9 -0.2
v 0.2 2.9 -0.2
v -0.2 2.9 -0.5
v 0.2 2.9 -0.5

# faces
f 3/1/1 2/1/1 1/1/1
f 4/1/1 2/1/1 3/1/1
f 7/2/1 6/2/1 5/2/1
f 8/2/1 6/2/1 7/2/1
f 9/3/1 8/3/1 7/3/1
f 10/3/1 8/3/1 9/3/1
f 13/4/1 10/4/1 9/4/1
f 14/4/1 10/4/1 13/4/1
f 17/4/1 13/4/1 9/4/1
f 18/7/1 14/7/1 13/7/1
f 18/4/1 13/4/1 17/4/1
f 19/7/1 14/7/1 18/7/1
f 20/5/1 12/5/1 11/5/1
f 23/5/1 16/5/1 15/5/1
f 24/5/1 21/5/1 20/5/1
f 27/5/1 23/5/1 22/5/1
f 28/5/1 25/5/1 24/5/1
f 29/5/1 27/5/1 26/5/1
f 30/5/1 28/5/1 24/5/1
f 30/5/1 29/5/1 28/5/1
f 30/5/1 20/5/1 11/5/1
f 30/5/1 24/5/1 20/5/1
f 31/5/1 27/5/1 29/5/1
f 31/5/1 29/5/1 30/5/1
f 31/5/1 16/5/1 23/5/1
f 31/5/1 23/5/1 27/5/1
f 39/2/1 33/2/1 32/2/1
f 39/2/1 34/2/1 33/2/1
f 39/2/1 36/2/1 35/2/1
f 39/2/1 35/2/1 34/2/1
f 40/2/1 36/2/1 39/2/1
f 41/2/1 36/2/1 40/2/1
f 42/2/1 36/2/1 41/2/1
f 43/2/1 41/2/1 40/2/1
f 44/2/1 41/2/1 43/2/1
f 45/2/1 41/2/1 44/2/1
f 46/2/1 41/2/1 45/2/1
f 47/5/1 38/5/1 37/5/1
f 48/5/1 38/5/1 47/5/1
f 50/5/1 49/5/1 48/5/1
f 51/5/1 49/5/1 50/5/1
f 55/4/1 53/4/1 52/4/1
f 55/7/1 54/7/1 53/7/1
f 56/7/1 54/7/1 55/7/1
f 57/4/1 55/4/1 52/4/1
f 57/4/1 56/4/1 55/4/1
f 58/4/1 56/4/1 57/4/1
f 59/4/1 56/4/1 58/4/1
f 60/5/1 58/5/1 57/5/1
f 61/5/1 58/5/1 60/5/1
f 63/5/1 60/5/1 57/5/1
f 66/5/1 63/5/1 62/5/1
f 67/5/1 60/5/1 63/5/1
f 67/5/1 63/5/1 66/5/1
f 68/5/1 65/5/1 64/5/1
f 69/5/1 65/5/1 68/5/1
f 70/4/1 67/4/1 66/4/1
f 71/4/1 69/4/1 68/4/1
f 72/4/1 70/4/1 66/4/1
f 73/4/1 70/4/1 72/4/1
f 74/4/1 69/4/1 71/4/1
f 75/4/1 69/4/1 74/4/1
f 78/7/1 73/7/1 72/7/1
f 79/4/1 70/4/1 73/4/1
f 79/7/1 73/7/1 78/7/1
f 80/4/1 70/4/1 79/4/1
f 81/7/1 75/7/1 74/7/1
f 82/7/1 75/7/1 81/7/1
f 83/5/1 77/5/1 76/5/1
f 85/5/1 83/5/1 76/5/1
f 85/5/1 84/5/1 83/5/1
f 86/5/1 84/5/1 85/5/1
f 89/5/1 88/5/1 87/5/1
f 90/5/1 88/5/1 89/5/1
f 91/5/1 85/5/1 76/5/1
f 92/5/1 85/5/1 91/5/1
f 94/5/1 93/5/1 92/5/1
f 95/5/1 93/5/1 94/5/1
f 100/4/1 97/4/1 96/4/1
f 101/4/1 97/4/1 100/4/1
f 102/3/1 99/3/1 98/3/1
f 103/3/1 99/3/1 102/3/1
f 106/2/1 105/2/1 104/2/1
f 107/2/1 105/2/1 106/2/1
f 110/5/1 109/5/1 108/5/1
f 111/5/1 109/5/1 110/5/1
f 114/5/1 113/5/1 112/5/1
f 115/5/1 113/5/1 114/5/1
f 118/1/1 117/1/1 116/1/1
f 119/1/1 117/1/1 118/1/1
f 122/5/1 121/5/1 120/5/1
f 123/5/1 121/5/1 122/5/1
f 126/4/1 125/4/1 124/4/1
f 127/4/1 125/4/1 126/4/1
f 128/4/1 126/4/1 124/4/1
f 129/7/1 127/7/1 126/7/1
f 129/4/1 126/4/1 128/4/1
f 130/7/1 127/7/1 129/7/1
f 132/5/1 129/5/1 128/5/1
f 133/5/1 129/5/1 132/5/1
f 134/5/1 132/5/1 131/5/1
f 135/5/1 132/5/1 134/5/1
f 138/5/1 137/5/1 136/5/1
f 139/5/1 137/5/1 138/5/1
f 144/5/1 141/5/1 140/5/1
f 145/5/1 143/5/1 142/5/1
f 146/5/1 144/5/1 140/5/1
f 147/5/1 144/5/1 146/5/1
f 148/5/1 143/5/1 145/5/1
f 149/5/1 143/5/1 148/5/1
f 150/5/2 151/5/2 154/5/2
f 152/5/2 153/5/2 155/5/2
f 150/5/2 154/5/2 156/5/2
f 156/5/2 154/5/2 157/5/2
f 155/5/2 153/5/2 158/5/2
f 158/5/2 153/5/2 159/5/2
f 160/4/2 161/4/2 162/4/2
f 162/4/2 161/4/2 163/4/2
f 160/4/2 162/4/2 164/4/2
f 162/7/2 163/7/2 165/7/2
f 164/4/2 162/4/2 165/4/2
f 165/7/2 163/7/2 166/7/2
f 164/5/2 165/5/2 168/5/2
f 168/5/2 165/5/2 169/5/2
f 167/5/2 168/5/2 170/5/2
f 170/5/2 168/5/2 171/5/2
f 172/5/2 173/5/2 174/5/2
f 174/5/2 173/5/2 175/5/2
f 176/1/2 177/1/2 178/1/2
f 178/1/2 177/1/2 179/1/2
f 180/5/2 181/5/2 182/5/2
f 182/5/2 181/5/2 183/5/2
f 184/5/2 185/5/2 186/5/2
f 186/5/2 185/5/2 187/5/2
f 188/4/2 189/4/2 192/4/2
f 192/4/2 189/4/2 193/4/2
f 190/3/2 191/3/2 194/3/2
f 194/3/2 191/3/2 195/3/2
f 196/2/2 197/2/2 198/2/2
f 198/2/2 197/2/2 199/2/2
f 200/5/2 201/5/2 202/5/2
f 202/5/2 201/5/2 203/5/2
f 204/4/2 205/4/2 207/4/2
f 205/7/2 206/7/2 207/7/2
f 207/7/2 206/7/2 208/7/2
f 204/4/2 207/4/2 209/4/2
f 207/4/2 208/4/2 209/4/2
f 209/4/2 208/4/2 210/4/2
f 210/4/2 208/4/2 211/4/2
f 209/5/2 210/5/2 212/5/2
f 212/5/2 210/5/2 213/5/2
f 209/5/2 212/5/2 215/5/2
f 214/5/2 215/5/2 218/5/2
f 215/5/2 212/5/2 219/5/2
f 218/5/2 215/5/2 219/5/2
f 216/5/2 217/5/2 220/5/2
f 220/5/2 217/5/2 221/5/2
f 218/4/2 219/4/2 222/4/2
f 222/4/2 219/4/2 223/4/2
f 223/4/2 219/4/2 224/4/2
f 220/4/2 221/4/2 225/4/2
f 225/4/2 221/4/2 226/4/2
f 222/7/2 223/7/2 227/7/2
f 223/4/2 224/4/2 228/4/2
f 227/7/2 223/7/2 228/7/2
f 225/7/2 226/7/2 229/7/2
f 229/7/2 226/7/2 230/7/2
f 227/4/2 228/4/2 233/4/2
f 228/4/2 224/4/2 234/4/2
f 233/4/2 228/4/2 234/4/2
f 229/4/2 230/4/2 235/4/2
f 235/4/2 230/4/2 236/4/2
f 231/5/2 232/5/2 237/5/2
f 231/5/2 237/5/2 239/5/2
f 237/5/2 238/5/2 239/5/2
f 239/5/2 238/5/2 240/5/2
f 241/5/2 242/5/2 243/5/2
f 243/5/2 242/5/2 244/5/2
f 231/5/2 239/5/2 245/5/2
f 245/5/2 239/5/2 246/5/2
f 246/5/2 247/5/2 248/5/2
f 248/5/2 247/5/2 249/5/2
f 250/2/2 251/2/2 257/2/2
f 251/2/2 252/2/2 257/2/2
f 253/2/2 254/2/2 257/2/2
f 252/2/2 253/2/2 257/2/2
f 257/2/2 254/2/2 258/2/2
f 258/2/2 254/2/2 259/2/2
f 259/2/2 254/2/2 260/2/2
f 258/2/2 259/2/2 261/2/2
f 261/2/2 259/2/2 262/2/2
f 262/2/2 259/2/2 263/2/2
f 263/2/2 259/2/2 264/2/2
f 255/5/2 256/5/2 265/5/2
f 265/5/2 256/5/2 266/5/2
f 266/5/2 267/5/2 268/5/2
f 268/5/2 267/5/2 269/5/2
f 270/2/2 271/2/2 272/2/2
f 272/2/2 271/2/2 273/2/2
f 272/3/2 273/3/2 274/3/2
f 274/3/2 273/3/2 275/3/2
f 274/4/2 275/4/2 278/4/2
f 278/4/2 275/4/2 279/4/2
f 274/4/2 278/4/2 282/4/2
f 278/7/2 279/7/2 283/7/2
f 282/4/2 278/4/2 283/4/2
f 283/7/2 279/7/2 284/7/2
f 276/5/2 277/5/2 285/5/2
f 280/5/2 281/5/2 288/5/2
f 285/5/2 286/5/2 289/5/2
f 287/5/2 288/5/2 292/5/2
f 289/5/2 290/5/2 293/5/2
f 291/5/2 292/5/2 294/5/2
f 289/5/2 293/5/2 295/5/2
f 293/5/2 294/5/2 295/5/2
f 276/5/2 285/5/2 295/5/2
f 285/5/2 289/5/2 295/5/2
f 294/5/2 292/5/2 296/5/2
f 295/5/2 294/5/2 296/5/2
f 288/5/2 281/5/2 296/5/2
f 292/5/2 288/5/2 296/5/2
f 297/1/2 298/1/2 299/1/2
f 299/1/2 298/1/2 300/1/2
f 303/5/3 302/5/3 301/5/3
f 304/5/3 302/5/3 303/5/3
f 307/5/3 306/5/3 305/5/3
f 308/5/3 306/5/3 307/5/3
f 311/5/3 309/5/3 308/5/3
f 312/5/3 309/5/3 311/5/3
f 313/5/3 311/5/3 310/5/3
f 314/5/3 311/5/3 313/5/3
f 317/5/3 316/5/3 315/5/3
f 318/5/3 316/5/3 317/5/3
f 319/5/3 316/5/3 318/5/3
f 321/5/3 320/5/3 319/5/3
f 322/5/3 320/5/3 321/5/3
f 327/5/3 324/5/3 323/5/3
f 328/5/3 324/5/3 327/5/3
f 329/5/3 326/5/3 325/5/3
f 329/5/3 327/5/3 326/5/3
f 330/5/3 327/5/3 329/5/3
f 337/2/3 332/2/3 331/2/3
f 338/2/3 332/2/3 337/2/3
f 339/7/3 336/7/3 335/7/3
f 339/4/3 335/4/3 334/4/3
f 340/7/3 336/7/3 339/7/3
f 341/5/3 334/5/3 333/5/3
f 342/4/3 339/4/3 334/4/3
f 342/5/3 334/5/3 341/5/3
f 342/4/3 340/4/3 339/4/3
f 344/4/3 340/4/3 342/4/3
f 345/4/3 340/4/3 344/4/3
f 346/4/3 340/4/3 345/4/3
f 347/5/3 344/5/3 343/5/3
f 348/4/3 345/4/3 344/4/3
f 348/5/3 344/5/3 347/5/3
f 349/7/3 346/7/3 345/7/3
f 349/4/3 345/4/3 348/4/3
f 350/4/3 340/4/3 346/4/3
f 350/7/3 346/7/3 349/7/3
f 351/4/3 340/4/3 350/4/3
f 354/2/3 353/2/3 352/2/3
f 355/2/3 353/2/3 354/2/3
f 361/4/3 357/4/3 356/4/3
f 362/5/3 358/5/3 357/5/3
f 362/4/3 357/4/3 361/4/3
f 363/5/3 358/5/3 362/5/3
f 367/5/3 364/5/3 363/5/3
f 368/5/3 364/5/3 367/5/3
f 369/4/3 360/4/3 359/4/3
f 370/4/3 360/4/3 369/4/3
f 371/4/3 366/4/3 365/4/3
f 372/5/3 367/5/3 366/5/3
f 372/4/3 366/4/3 371/4/3
f 373/5/3 367/5/3 372/5/3
f 378/4/3 377/4/3 376/4/3
f 379/2/3 375/2/3 374/2/3
f 380/3/3 376/3/3 375/3/3
f 380/2/3 375/2/3 379/2/3
f 381/4/3 378/4/3 376/4/3
f 381/3/3 376/3/3 380/3/3
f 382/4/3 378/4/3 381/4/3
f 383/4/3 378/4/3 382/4/3
f 384/4/3 378/4/3 383/4/3
f 390/4/3 386/4/3 385/4/3
f 391/4/3 386/4/3 390/4/3
f 391/4/3 390/4/3 389/4/3
f 392/2/3 388/2/3 387/2/3
f 393/3/3 389/3/3 388/3/3
f 393/2/3 388/2/3 392/2/3
f 394/4/3 391/4/3 389/4/3
f 394/3/3 389/3/3 393/3/3
f 395/4/3 391/4/3 394/4/3
f 398/1/3 397/1/3 396/1/3
f 399/1/3 397/1/3 398/1/3
f 402/1/3 401/1/3 400/1/3
f 403/1/3 401/1/3 402/1/3
f 406/5/3 405/5/3 404/5/3
f 407/5/3 405/5/3 406/5/3
f 410/5/3 409/5/3 408/5/3
f 411/5/3 409/5/3 410/5/3
f 414/5/3 413/5/3 412/5/3
f 415/5/3 413/5/3 414/5/3
f 418/5/3 417/5/3 416/5/3
f 419/5/3 417/5/3 418/5/3
f 422/5/3 421/5/3 420/5/3
f 423/5/3 421/5/3 422/5/3
f 426/5/3 425/5/3 424/5/3
f 427/5/3 425/5/3 426/5/3
f 428/5/3 425/5/3 427/5/3
f 432/5/3 430/5/3 429/5/3
f 432/5/3 431/5/3 430/5/3
f 433/5/3 431/5/3 432/5/3
f 434/5/4 435/5/4 436/5/4
f 436/5/4 435/5/4 437/5/4
f 438/5/4 439/5/4 440/5/4
f 440/5/4 439/5/4 441/5/4
f 441/5/4 439/5/4 442/5/4
f 443/5/4 444/5/4 446/5/4
f 444/5/4 445/5/4 446/5/4
f 446/5/4 445/5/4 447/5/4
f 448/5/4 449/5/4 450/5/4
f 450/5/4 449/5/4 451/5/4
f 452/5/4 453/5/4 454/5/4
f 454/5/4 453/5/4 455/5/4
f 456/1/4 457/1/4 463/1/4
f 463/1/4 457/1/4 464/1/4
f 461/7/4 462/7/4 465/7/4
f 460/4/4 461/4/4 465/4/4
f 465/7/4 462/7/4 466/7/4
f 458/2/4 459/2/4 468/2/4
f 468/2/4 459/2/4 469/2/4
f 459/3/4 460/3/4 470/3/4
f 469/2/4 459/2/4 470/2/4
f 460/4/4 465/4/4 471/4/4
f 470/3/4 460/3/4 471/3/4
f 465/4/4 466/4/4 471/4/4
f 471/4/4 466/4/4 472/4/4
f 472/4/4 466/4/4 473/4/4
f 473/4/4 466/4/4 474/4/4
f 474/4/4 466/4/4 475/4/4
f 468/5/4 469/5/4 476/5/4
f 467/5/4 468/5/4 476/5/4
f 476/5/4 469/5/4 477/5/4
f 477/5/4 469/5/4 478/5/4
f 479/5/4 480/5/4 481/5/4
f 481/5/4 480/5/4 484/5/4
f 484/5/4 480/5/4 485/5/4
f 485/5/4 480/5/4 486/5/4
f 482/4/4 483/4/4 490/4/4
f 488/4/4 489/4/4 491/4/4
f 489/4/4 490/4/4 491/4/4
f 490/4/4 483/4/4 491/4/4
f 491/4/4 483/4/4 492/4/4
f 485/2/4 486/2/4 493/2/4
f 486/2/4 487/2/4 493/2/4
f 487/3/4 488/3/4 494/3/4
f 493/2/4 487/2/4 494/2/4
f 488/4/4 491/4/4 495/4/4
f 494/3/4 488/3/4 495/3/4
f 491/7/4 492/7/4 496/7/4
f 495/4/4 491/4/4 496/4/4
f 496/7/4 492/7/4 497/7/4
f 498/1/4 499/1/4 500/1/4
f 500/1/4 499/1/4 501/1/4
f 502/7/4 503/7/4 509/7/4
f 503/4/4 504/4/4 510/4/4
f 509/7/4 503/7/4 510/7/4
f 507/7/4 508/7/4 511/7/4
f 506/4/4 507/4/4 511/4/4
f 511/7/4 508/7/4 512/7/4
f 510/4/4 504/4/4 514/4/4
f 509/4/4 510/4/4 514/4/4
f 514/4/4 504/4/4 515/4/4
f 511/4/4 512/4/4 516/4/4
f 506/4/4 511/4/4 516/4/4
f 512/3/4 513/3/4 517/3/4
f 516/4/4 512/4/4 517/4/4
f 509/4/4 514/4/4 518/4/4
f 514/7/4 515/7/4 519/7/4
f 518/4/4 514/4/4 519/4/4
f 519/7/4 515/7/4 520/7/4
f 517/3/4 513/3/4 521/3/4
f 516/3/4 517/3/4 521/3/4
f 521/3/4 513/3/4 522/3/4
f 521/2/4 522/2/4 526/2/4
f 516/3/4 521/3/4 526/3/4
f 526/2/4 522/2/4 527/2/4
f 524/7/4 525/7/4 528/7/4
f 523/4/4 524/4/4 528/4/4
f 528/7/4 525/7/4 529/7/4
f 506/4/4 516/4/4 530/4/4
f 526/3/4 527/3/4 530/3/4
f 516/3/4 526/3/4 530/3/4
f 530/3/4 527/3/4 531/3/4
f 528/4/4 529/4/4 532/4/4
f 523/4/4 528/4/4 532/4/4
f 532/4/4 529/4/4 533/4/4
f 530/4/4 531/4/4 534/4/4
f 506/4/4 530/4/4 534/4/4
f 534/4/4 531/4/4 535/4/4
f 531/3/4 527/3/4 536/3/4
f 535/4/4 531/4/4 536/4/4
f 536/3/4 527/3/4 537/3/4
f 532/7/4 533/7/4 538/7/4
f 533/4/4 529/4/4 539/4/4
f 538/7/4 533/7/4 539/7/4
f 539/4/4 529/4/4 540/4/4
f 505/5/4 506/5/4 541/5/4
f 506/4/4 534/4/4 542/4/4
f 541/5/4 506/5/4 542/5/4
f 534/7/4 535/7/4 543/7/4
f 542/4/4 534/4/4 543/4/4
f 535/4/4 536/4/4 544/4/4
f 543/7/4 535/7/4 544/7/4
f 544/4/4 536/4/4 545/4/4
f 546/2/4 547/2/4 548/2/4
f 548/2/4 547/2/4 549/2/4
f 550/2/4 551/2/4 552/2/4
f 552/2/4 551/2/4 553/2/4
f 554/5/4 555/5/4 556/5/4
f 556/5/4 555/5/4 557/5/4
f 557/5/4 555/5/4 558/5/4
f 558/5/4 555/5/4 559/5/4
f 558/2/4 559/2/4 561/2/4
f 561/2/4 559/2/4 562/2/4
f 562/2/4 559/2/4 563/2/4
f 557/1/4 558/1/4 565/1/4
f 558/2/4 561/2/4 566/2/4
f 565/1/4 558/1/4 566/1/4
f 561/8/4 562/8/4 567/8/4
f 566/2/4 561/2/4 567/2/4
f 559/5/4 560/5/4 568/5/4
f 563/2/4 559/2/4 568/2/4
f 568/5/4 560/5/4 569/5/4
f 566/8/4 567/8/4 570/8/4
f 564/2/4 565/2/4 570/2/4
f 565/2/4 566/2/4 570/2/4
f 567/8/4 562/8/4 571/8/4
f 570/8/4 567/8/4 571/8/4
f 564/2/4 570/2/4 572/2/4
f 570/2/4 571/2/4 572/2/4
f 572/2/4 571/2/4 573/2/4
f 573/2/4 571/2/4 574/2/4
f 563/2/4 568/2/4 575/2/4
f 564/2/4 572/2/4 576/2/4
f 573/2/4 574/2/4 577/2/4
f 574/2/4 575/2/4 577/2/4
f 577/2/4 575/2/4 578/2/4
f 575/2/4 568/2/4 579/2/4
f 578/2/4 575/2/4 579/2/4
f 577/2/4 578/2/4 580/2/4
f 576/2/4 577/2/4 580/2/4
f 580/2/4 578/2/4 581/2/4
f 564/2/4 576/2/4 582/2/4
f 576/2/4 580/2/4 582/2/4
f 582/2/4 580/2/4 583/2/4
f 580/8/4 581/8/4 584/8/4
f 583/2/4 580/2/4 584/2/4
f 584/8/4 581/8/4 585/8/4
f 579/2/4 568/2/4 586/2/4
f 585/8/4 581/8/4 588/8/4
f 584/2/4 585/2/4 588/2/4
f 588/8/4 581/8/4 589/8/4
f 579/2/4 586/2/4 590/2/4
f 583/1/4 584/1/4 592/1/4
f 588/2/4 589/2/4 593/2/4
f 589/2/4 590/2/4 593/2/4
f 592/1/4 584/1/4 593/1/4
f 584/2/4 588/2/4 593/2/4
f 586/5/4 587/5/4 594/5/4
f 593/2/4 590/2/4 594/2/4
f 590/2/4 586/2/4 594/2/4
f 594/5/4 587/5/4 595/5/4
f 592/5/4 593/5/4 596/5/4
f 591/5/4 592/5/4 596/5/4
f 593/5/4 594/5/4 596/5/4
f 596/5/4 594/5/4 597/5/4
f 600/5/4 601/5/4 602/5/4
f 598/5/4 599/5/4 606/5/4
f 606/5/4 599/5/4 607/5/4
f 604/1/4 605/1/4 608/1/4
f 608/1/4 605/1/4 609/1/4
f 600/5/4 602/5/4 612/5/4
f 602/5/4 603/5/4 612/5/4
f 612/5/4 603/5/4 613/5/4
f 600/5/4 612/5/4 614/5/4
f 614/5/4 612/5/4 615/5/4
f 610/5/4 611/5/4 616/5/4
f 616/5/4 611/5/4 617/5/4
f 622/4/5 619/4/5 618/4/5
f 623/4/5 619/4/5 622/4/5
f 624/4/5 621/4/5 620/4/5
f 625/4/5 621/4/5 624/4/5
f 626/7/5 623/7/5 622/7/5
f 627/4/5 619/4/5 623/4/5
f 627/7/5 623/7/5 626/7/5
f 628/4/5 619/4/5 627/4/5
f 629/4/5 624/4/5 620/4/5
f 630/7/5 625/7/5 624/7/5
f 630/4/5 624/4/5 629/4/5
f 631/7/5 625/7/5 630/7/5
f 636/2/5 633/2/5 632/2/5
f 637/2/5 633/2/5 636/2/5
f 638/2/5 635/2/5 634/2/5
f 639/2/5 635/2/5 638/2/5
f 644/5/5 641/5/5 640/5/5
f 645/5/5 641/5/5 644/5/5
f 646/5/5 643/5/5 642/5/5
f 647/5/5 643/5/5 646/5/5
f 649/5/5 646/5/5 645/5/5
f 650/5/5 646/5/5 649/5/5
f 652/5/5 649/5/5 648/5/5
f 652/5/5 651/5/5 650/5/5
f 652/5/5 650/5/5 649/5/5
f 653/5/5 651/5/5 652/5/5
f 656/4/5 655/4/5 654/4/5
f 657/4/5 655/4/5 656/4/5
f 660/5/5 659/5/5 658/5/5
f 661/5/5 659/5/5 660/5/5
f 666/5/5 663/5/5 662/5/5
f 667/5/5 663/5/5 666/5/5
f 668/5/5 665/5/5 664/5/5
f 669/5/5 665/5/5 668/5/5
f 674/5/5 671/5/5 670/5/5
f 675/5/5 671/5/5 674/5/5
f 676/5/5 673/5/5 672/5/5
f 677/5/5 673/5/5 676/5/5
f 681/5/5 679/5/5 678/5/5
f 682/5/5 679/5/5 681/5/5
f 684/2/5 681/2/5 680/2/5
f 684/2/5 683/2/5 682/2/5
f 684/2/5 682/2/5 681/2/5
f 685/2/5 683/2/5 684/2/5
f 686/2/5 684/2/5 680/2/5
f 687/2/5 684/2/5 686/2/5
f 688/2/5 683/2/5 685/2/5
f 689/2/5 683/2/5 688/2/5
f 694/2/5 691/2/5 690/2/5
f 697/2/5 693/2/5 692/2/5
f 698/2/5 696/2/5 695/2/5
f 698/2/5 697/2/5 696/2/5
f 698/2/5 694/2/5 690/2/5
f 698/2/5 695/2/5 694/2/5
f 699/2/5 697/2/5 698/2/5
f 700/2/5 693/2/5 697/2/5
f 700/2/5 697/2/5 699/2/5
f 701/2/5 693/2/5 700/2/5
f 702/2/5 700/2/5 699/2/5
f 703/2/5 700/2/5 702/2/5
f 708/5/5 705/5/5 704/5/5
f 709/5/5 707/5/5 706/5/5
f 710/5/5 705/5/5 708/5/5
f 711/5/5 705/5/5 710/5/5
f 712/5/5 709/5/5 706/5/5
f 713/5/5 709/5/5 712/5/5
f 718/1/5 715/1/5 714/1/5
f 719/1/5 715/1/5 718/1/5
f 720/1/5 717/1/5 716/1/5
f 721/1/5 717/1/5 720/1/5
f 726/5/5 723/5/5 722/5/5
f 727/5/5 723/5/5 726/5/5
f 728/5/5 725/5/5 724/5/5
f 729/5/5 725/5/5 728/5/5
f 734/5/5 731/5/5 730/5/5
f 735/5/5 731/5/5 734/5/5
f 736/5/5 733/5/5 732/5/5
f 737/5/5 733/5/5 736/5/5
f 740/1/5 739/1/5 738/1/5
f 741/1/5 739/1/5 740/1/5
f 747/5/5 743/5/5 742/5/5
f 748/5/5 743/5/5 747/5/5
f 749/5/5 745/5/5 744/5/5
f 750/5/5 745/5/5 749/5/5
f 752/1/5 748/1/5 747/1/5
f 752/1/5 747/1/5 746/1/5
f 753/1/5 748/1/5 752/1/5
f 754/1/5 748/1/5 753/1/5
f 755/1/5 751/1/5 750/1/5
f 755/1/5 750/1/5 749/1/5
f 756/1/5 751/1/5 755/1/5
f 757/1/5 751/1/5 756/1/5
f 758/5/5 754/5/5 753/5/5
f 759/5/5 754/5/5 758/5/5
f 760/5/5 756/5/5 755/5/5
f 761/5/5 756/5/5 760/5/5
f 768/5/5 763/5/5 762/5/5
f 768/5/5 764/5/5 763/5/5
f 769/5/5 764/5/5 768/5/5
f 770/5/5 767/5/5 766/5/5
f 770/5/5 766/5/5 765/5/5
f 771/5/5 767/5/5 770/5/5
f 774/5/5 773/5/5 772/5/5
f 775/5/5 773/5/5 774/5/5
f 776/4/6 777/4/6 782/4/6
f 777/7/6 778/7/6 783/7/6
f 782/4/6 777/4/6 783/4/6
f 783/7/6 778/7/6 784/7/6
f 779/7/6 780/7/6 785/7/6
f 780/4/6 781/4/6 786/4/6
f 785/7/6 780/7/6 786/7/6
f 786/4/6 781/4/6 787/4/6
f 788/7/6 789/7/6 791/7/6
f 789/4/6 790/4/6 792/4/6
f 791/7/6 789/7/6 792/7/6
f 792/4/6 790/4/6 793/4/6
f 791/4/6 792/4/6 794/4/6
f 794/4/6 792/4/6 795/4/6
f 793/4/6 790/4/6 796/4/6
f 796/4/6 790/4/6 797/4/6
f 798/7/6 799/7/6 802/7/6
f 802/7/6 799/7/6 803/7/6
f 800/4/6 801/4/6 804/4/6
f 804/4/6 801/4/6 805/4/6
f 806/4/6 807/4/6 810/4/6
f 810/4/6 807/4/6 811/4/6
f 808/4/6 809/4/6 812/4/6
f 812/4/6 809/4/6 813/4/6
f 810/7/6 811/7/6 814/7/6
f 814/7/6 811/7/6 815/7/6
f 812/7/6 813/7/6 816/7/6
f 816/7/6 813/7/6 817/7/6
f 818/1/6 819/1/6 820/1/6
f 820/1/6 819/1/6 821/1/6
f 822/1/6 823/1/6 826/1/6
f 826/1/6 823/1/6 827/1/6
f 824/1/6 825/1/6 828/1/6
f 828/1/6 825/1/6 829/1/6
f 830/5/6 831/5/6 834/5/6
f 834/5/6 831/5/6 835/5/6
f 832/5/6 833/5/6 836/5/6
f 836/5/6 833/5/6 837/5/6
f 838/5/6 839/5/6 841/5/6
f 841/5/6 839/5/6 842/5/6
f 840/5/6 841/5/6 845/5/6
f 845/5/6 841/5/6 846/5/6
f 842/5/6 843/5/6 847/5/6
f 847/5/6 843/5/6 848/5/6
f 844/5/6 845/5/6 850/5/6
f 850/5/6 845/5/6 851/5/6
f 848/5/6 849/5/6 852/5/6
f 852/5/6 849/5/6 853/5/6
f 854/5/6 855/5/6 857/5/6
f 857/5/6 855/5/6 858/5/6
f 856/5/6 857/5/6 860/5/6
f 858/5/6 859/5/6 860/5/6
f 857/5/6 858/5/6 860/5/6
f 860/5/6 859/5/6 861/5/6
f 856/5/6 860/5/6 862/5/6
f 862/5/6 860/5/6 863/5/6
f 861/5/6 859/5/6 864/5/6
f 864/5/6 859/5/6 865/5/6
f 856/5/6 862/5/6 866/5/6
f 866/5/6 862/5/6 867/5/6
f 865/5/6 859/5/6 868/5/6
f 868/5/6 859/5/6 869/5/6
f 867/5/6 862/5/6 870/5/6
f 870/5/6 862/5/6 871/5/6
f 865/5/6 868/5/6 872/5/6
f 872/5/6 868/5/6 873/5/6
f 874/5/6 875/5/6 877/5/6
f 877/5/6 875/5/6 878/5/6
f 876/5/6 877/5/6 880/5/6
f 878/5/6 879/5/6 880/5/6
f 877/5/6 878/5/6 880/5/6
f 880/5/6 879/5/6 881/5/6
