# MagicaVoxel @ Ephtracy

# group
o 

# material
mtllib YellowPlayer2.mtl
usemtl palette

# normals
vn -1 0 0
vn 1 0 0
vn 0 0 1
vn 0 0 -1
vn 0 -1 0
vn 0 1 0

# texcoords
vt 0.197266 0.5
vt 0.431641 0.5
vt 0.439453 0.5
vt 0.470703 0.5
vt 0.494141 0.5
vt 0.955078 0.5
vt 0.994141 0.5

# verts
v -0.7 2.2 0
v -0.7 2.2 -0.1
v -0.7 2.5 0
v -0.7 2.5 -0.1
v -0.6 1.3 0.1
v -0.6 1.3 -0.1
v -0.6 1.7 0.1
v -0.6 1.7 -0.1
v -0.6 1.8 0
v -0.6 1.8 -0.1
v -0.6 1.9 0.1
v -0.6 1.9 0
v -0.6 1.9 -0.1
v -0.6 2.4 0.3
v -0.6 2.4 0
v -0.6 2.4 -0.1
v -0.6 2.4 -0.3
v -0.6 2.5 0.4
v -0.6 2.5 0.3
v -0.6 2.5 0
v -0.6 2.5 -0.1
v -0.6 2.5 -0.3
v -0.6 2.5 -0.4
v -0.6 2.6 0.4
v -0.6 2.6 0.3
v -0.6 2.6 0.2
v -0.6 2.6 0.1
v -0.6 2.6 0
v -0.6 2.6 -0.1
v -0.6 2.6 -0.3
v -0.6 2.6 -0.4
v -0.6 2.7 0.3
v -0.6 2.7 0.2
v -0.6 2.7 0.1
v -0.6 2.7 -0.3
v -0.5 1.9 0.3
v -0.5 1.9 0.1
v -0.5 1.9 0
v -0.5 1.9 -0.1
v -0.5 1.9 -0.3
v -0.5 1.9 -0.4
v -0.5 2 0.5
v -0.5 2 0.3
v -0.5 2 0.1
v -0.5 2 0
v -0.5 2 -0.3
v -0.5 2 -0.4
v -0.5 2.1 0.2
v -0.5 2.1 0.1
v -0.5 2.2 0
v -0.5 2.2 -0.1
v -0.5 2.2 -0.4
v -0.5 2.3 0.5
v -0.5 2.3 0.2
v -0.5 2.4 0.3
v -0.5 2.4 0
v -0.5 2.4 -0.1
v -0.5 2.4 -0.3
v -0.5 2.5 0.4
v -0.5 2.5 0.3
v -0.5 2.5 -0.3
v -0.5 2.5 -0.4
v -0.5 2.6 0.4
v -0.5 2.6 0.3
v -0.5 2.6 -0.3
v -0.5 2.6 -0.4
v -0.5 2.7 0.5
v -0.5 2.7 0.4
v -0.5 2.7 0.3
v -0.5 2.7 0.2
v -0.5 2.7 0.1
v -0.5 2.7 -0.2
v -0.5 2.7 -0.3
v -0.5 2.7 -0.4
v -0.5 2.8 0.4
v -0.5 2.8 -0.2
v -0.5 2.8 -0.3
v -0.5 2.8 -0.4
v -0.4 1 0.2
v -0.4 1 -0.1
v -0.4 1 -0.2
v -0.4 1.1 -0.1
v -0.4 1.1 -0.2
v -0.4 1.2 0.2
v -0.4 1.2 -0.1
v -0.4 1.2 -0.2
v -0.4 1.3 0.1
v -0.4 1.3 -0.1
v -0.4 1.4 0.3
v -0.4 1.4 0.2
v -0.4 1.4 -0.1
v -0.4 1.4 -0.2
v -0.4 1.5 0.3
v -0.4 1.5 0.1
v -0.4 1.5 -0.1
v -0.4 1.5 -0.2
v -0.4 1.7 0.3
v -0.4 1.7 0.2
v -0.4 1.7 0.1
v -0.4 1.7 -0.1
v -0.4 1.7 -0.2
v -0.4 1.8 0.3
v -0.4 1.8 0.2
v -0.4 1.8 -0.1
v -0.4 1.8 -0.2
v -0.4 1.8 -0.3
v -0.4 1.9 0.5
v -0.4 1.9 0.3
v -0.4 1.9 0.2
v -0.4 1.9 0.1
v -0.4 1.9 -0.1
v -0.4 1.9 -0.3
v -0.4 2 0.5
v -0.4 2 0.3
v -0.4 2.5 -0.4
v -0.4 2.5 -0.5
v -0.4 2.6 -0.4
v -0.4 2.6 -0.5
v -0.4 2.7 0.5
v -0.4 2.7 0.4
v -0.4 2.8 0.5
v -0.4 2.8 0.4
v -0.3 1.8 0.3
v -0.3 1.8 0.2
v -0.3 1.8 -0.3
v -0.3 1.8 -0.4
v -0.3 1.9 0.3
v -0.3 1.9 0.2
v -0.3 1.9 -0.3
v -0.3 1.9 -0.4
v -0.2 2.7 -0.4
v -0.2 2.7 -0.5
v -0.2 2.8 -0.4
v -0.2 2.8 -0.5
v -0.1 2.1 -0.4
v -0.1 2.1 -0.5
v -0.1 2.4 -0.4
v -0.1 2.4 -0.5
v 0.1 1 0.2
v 0.1 1 -0.2
v 0.1 1.1 -0.1
v 0.1 1.1 -0.2
v 0.1 1.2 0.2
v 0.1 1.2 -0.1
v 0.1 1.2 -0.2
v 0.1 1.4 0.3
v 0.1 1.4 0.2
v 0.1 1.4 -0.1
v 0.1 1.5 0.3
v 0.1 1.5 0.2
v 0.1 2.5 -0.4
v 0.1 2.5 -0.5
v 0.1 2.6 -0.4
v 0.1 2.6 -0.5
v -0.1 1 0.2
v -0.1 1 -0.2
v -0.1 1.1 -0.1
v -0.1 1.1 -0.2
v -0.1 1.2 0.2
v -0.1 1.2 -0.1
v -0.1 1.2 -0.2
v -0.1 1.4 0.3
v -0.1 1.4 0.2
v -0.1 1.4 -0.1
v -0.1 1.5 0.3
v -0.1 1.5 0.2
v -0.1 2.5 -0.4
v -0.1 2.5 -0.5
v -0.1 2.6 -0.4
v -0.1 2.6 -0.5
v 0.1 2.1 -0.4
v 0.1 2.1 -0.5
v 0.1 2.4 -0.4
v 0.1 2.4 -0.5
v 0.2 2.7 -0.4
v 0.2 2.7 -0.5
v 0.2 2.8 -0.4
v 0.2 2.8 -0.5
v 0.3 1.8 0.3
v 0.3 1.8 0.2
v 0.3 1.8 -0.3
v 0.3 1.8 -0.4
v 0.3 1.9 0.3
v 0.3 1.9 0.2
v 0.3 1.9 -0.3
v 0.3 1.9 -0.4
v 0.4 1 0.2
v 0.4 1 -0.1
v 0.4 1 -0.2
v 0.4 1.1 -0.1
v 0.4 1.1 -0.2
v 0.4 1.2 0.2
v 0.4 1.2 -0.1
v 0.4 1.2 -0.2
v 0.4 1.3 0.1
v 0.4 1.3 -0.1
v 0.4 1.4 0.3
v 0.4 1.4 0.2
v 0.4 1.4 -0.1
v 0.4 1.4 -0.2
v 0.4 1.5 0.3
v 0.4 1.5 0.1
v 0.4 1.5 -0.1
v 0.4 1.5 -0.2
v 0.4 1.6 0.3
v 0.4 1.6 0.2
v 0.4 1.6 -0.1
v 0.4 1.6 -0.2
v 0.4 1.7 0.3
v 0.4 1.7 0.2
v 0.4 1.7 0.1
v 0.4 1.7 -0.1
v 0.4 1.7 -0.2
v 0.4 1.8 0.3
v 0.4 1.8 0.2
v 0.4 1.8 -0.1
v 0.4 1.8 -0.2
v 0.4 1.8 -0.3
v 0.4 1.9 0.5
v 0.4 1.9 0.3
v 0.4 1.9 0.2
v 0.4 1.9 0.1
v 0.4 1.9 -0.1
v 0.4 1.9 -0.2
v 0.4 1.9 -0.3
v 0.4 2 0.5
v 0.4 2 0.3
v 0.4 2.5 -0.4
v 0.4 2.5 -0.5
v 0.4 2.6 -0.4
v 0.4 2.6 -0.5
v 0.4 2.7 0.5
v 0.4 2.7 0.4
v 0.4 2.8 0.5
v 0.4 2.8 0.4
v 0.5 1.9 0.3
v 0.5 1.9 0.1
v 0.5 1.9 0
v 0.5 1.9 -0.1
v 0.5 1.9 -0.2
v 0.5 1.9 -0.3
v 0.5 1.9 -0.4
v 0.5 2 0.5
v 0.5 2 0.3
v 0.5 2 0.1
v 0.5 2 0
v 0.5 2 -0.1
v 0.5 2 -0.2
v 0.5 2 -0.3
v 0.5 2 -0.4
v 0.5 2.1 0.2
v 0.5 2.1 0.1
v 0.5 2.1 0
v 0.5 2.1 -0.1
v 0.5 2.2 0.2
v 0.5 2.2 0.1
v 0.5 2.2 0
v 0.5 2.2 -0.1
v 0.5 2.2 -0.4
v 0.5 2.3 0.5
v 0.5 2.3 0.2
v 0.5 2.3 0.1
v 0.5 2.4 0.3
v 0.5 2.4 0
v 0.5 2.4 -0.1
v 0.5 2.4 -0.3
v 0.5 2.5 0.4
v 0.5 2.5 0.3
v 0.5 2.5 -0.3
v 0.5 2.5 -0.4
v 0.5 2.6 0.4
v 0.5 2.6 0.3
v 0.5 2.6 -0.3
v 0.5 2.6 -0.4
v 0.5 2.7 0.5
v 0.5 2.7 0.4
v 0.5 2.7 0.3
v 0.5 2.7 0.2
v 0.5 2.7 0.1
v 0.5 2.7 -0.2
v 0.5 2.7 -0.3
v 0.5 2.7 -0.4
v 0.5 2.8 0.4
v 0.5 2.8 -0.2
v 0.5 2.8 -0.3
v 0.5 2.8 -0.4
v 0.6 1.3 0.1
v 0.6 1.3 -0.1
v 0.6 1.7 0.1
v 0.6 1.7 -0.1
v 0.6 1.8 0
v 0.6 1.8 -0.1
v 0.6 1.9 0.1
v 0.6 1.9 0
v 0.6 1.9 -0.1
v 0.6 2.4 0.3
v 0.6 2.4 0
v 0.6 2.4 -0.1
v 0.6 2.4 -0.3
v 0.6 2.5 0.4
v 0.6 2.5 0.3
v 0.6 2.5 0
v 0.6 2.5 -0.1
v 0.6 2.5 -0.3
v 0.6 2.5 -0.4
v 0.6 2.6 0.4
v 0.6 2.6 0.3
v 0.6 2.6 0.2
v 0.6 2.6 0.1
v 0.6 2.6 0
v 0.6 2.6 -0.1
v 0.6 2.6 -0.3
v 0.6 2.6 -0.4
v 0.6 2.7 0.3
v 0.6 2.7 0.2
v 0.6 2.7 0.1
v 0.6 2.7 -0.3
v 0.7 2.2 0
v 0.7 2.2 -0.1
v 0.7 2.5 0
v 0.7 2.5 -0.1
v -0.5 2 0.5
v -0.5 2.3 0.5
v -0.5 2.7 0.5
v -0.4 1.9 0.5
v -0.4 2 0.5
v -0.4 2.7 0.5
v -0.4 2.8 0.5
v -0.3 2.5 0.5
v -0.3 2.6 0.5
v -0.3 2.7 0.5
v -0.3 2.8 0.5
v -0.2 2.5 0.5
v -0.2 2.6 0.5
v 0.2 2.5 0.5
v 0.2 2.6 0.5
v 0.3 2.5 0.5
v 0.3 2.6 0.5
v 0.3 2.7 0.5
v 0.3 2.8 0.5
v 0.4 1.9 0.5
v 0.4 2 0.5
v 0.4 2.7 0.5
v 0.4 2.8 0.5
v 0.5 2 0.5
v 0.5 2.3 0.5
v 0.5 2.7 0.5
v -0.6 2.5 0.4
v -0.6 2.6 0.4
v -0.5 2.5 0.4
v -0.5 2.6 0.4
v -0.5 2.7 0.4
v -0.5 2.8 0.4
v -0.4 2.7 0.4
v -0.4 2.8 0.4
v 0.4 2.7 0.4
v 0.4 2.8 0.4
v 0.5 2.5 0.4
v 0.5 2.6 0.4
v 0.5 2.7 0.4
v 0.5 2.8 0.4
v 0.6 2.5 0.4
v 0.6 2.6 0.4
v -0.6 2.4 0.3
v -0.6 2.5 0.3
v -0.6 2.6 0.3
v -0.6 2.7 0.3
v -0.5 1.9 0.3
v -0.5 2 0.3
v -0.5 2.4 0.3
v -0.5 2.5 0.3
v -0.5 2.6 0.3
v -0.5 2.7 0.3
v -0.4 1.4 0.3
v -0.4 1.5 0.3
v -0.4 1.7 0.3
v -0.4 1.8 0.3
v -0.4 1.9 0.3
v -0.4 2 0.3
v -0.3 1.7 0.3
v -0.3 1.8 0.3
v -0.3 1.9 0.3
v -0.1 1.4 0.3
v -0.1 1.5 0.3
v 0.1 1.4 0.3
v 0.1 1.5 0.3
v 0.3 1.6 0.3
v 0.3 1.7 0.3
v 0.3 1.8 0.3
v 0.3 1.9 0.3
v 0.4 1.4 0.3
v 0.4 1.5 0.3
v 0.4 1.6 0.3
v 0.4 1.7 0.3
v 0.4 1.8 0.3
v 0.4 1.9 0.3
v 0.4 2 0.3
v 0.5 1.9 0.3
v 0.5 2 0.3
v 0.5 2.4 0.3
v 0.5 2.5 0.3
v 0.5 2.6 0.3
v 0.5 2.7 0.3
v 0.6 2.4 0.3
v 0.6 2.5 0.3
v 0.6 2.6 0.3
v 0.6 2.7 0.3
v -0.4 1 0.2
v -0.4 1.2 0.2
v -0.4 1.4 0.2
v -0.4 1.8 0.2
v -0.4 1.9 0.2
v -0.3 1.8 0.2
v -0.3 1.9 0.2
v -0.1 1 0.2
v -0.1 1.2 0.2
v -0.1 1.4 0.2
v -0.1 1.5 0.2
v 0.1 1 0.2
v 0.1 1.2 0.2
v 0.1 1.4 0.2
v 0.1 1.5 0.2
v 0.3 1.8 0.2
v 0.3 1.9 0.2
v 0.4 1 0.2
v 0.4 1.2 0.2
v 0.4 1.4 0.2
v 0.4 1.8 0.2
v 0.4 1.9 0.2
v -0.6 1.3 0.1
v -0.6 1.7 0.1
v -0.6 1.9 0.1
v -0.5 1.9 0.1
v -0.4 1.3 0.1
v -0.4 1.5 0.1
v -0.4 1.7 0.1
v -0.4 1.9 0.1
v 0.4 1.3 0.1
v 0.4 1.5 0.1
v 0.4 1.7 0.1
v 0.4 1.9 0.1
v 0.5 1.9 0.1
v 0.6 1.3 0.1
v 0.6 1.7 0.1
v 0.6 1.9 0.1
v -0.7 2.2 0
v -0.7 2.5 0
v -0.6 2.4 0
v -0.6 2.5 0
v -0.5 2.2 0
v -0.5 2.4 0
v 0.5 2.2 0
v 0.5 2.4 0
v 0.6 2.4 0
v 0.6 2.5 0
v 0.7 2.2 0
v 0.7 2.5 0
v -0.7 2.2 -0.1
v -0.7 2.5 -0.1
v -0.6 1.3 -0.1
v -0.6 1.7 -0.1
v -0.6 1.8 -0.1
v -0.6 1.9 -0.1
v -0.6 2.4 -0.1
v -0.6 2.5 -0.1
v -0.5 1.8 -0.1
v -0.5 1.9 -0.1
v -0.5 2.2 -0.1
v -0.5 2.4 -0.1
v -0.4 1.2 -0.1
v -0.4 1.3 -0.1
v -0.4 1.4 -0.1
v -0.4 1.5 -0.1
v -0.4 1.7 -0.1
v -0.4 1.8 -0.1
v -0.4 1.9 -0.1
v -0.2 1.2 -0.1
v -0.1 1.2 -0.1
v -0.1 1.4 -0.1
v 0.1 1.2 -0.1
v 0.1 1.4 -0.1
v 0.2 1.2 -0.1
v 0.4 1.2 -0.1
v 0.4 1.3 -0.1
v 0.4 1.4 -0.1
v 0.4 1.5 -0.1
v 0.4 1.6 -0.1
v 0.4 1.7 -0.1
v 0.4 1.8 -0.1
v 0.4 1.9 -0.1
v 0.5 1.8 -0.1
v 0.5 1.9 -0.1
v 0.5 2.2 -0.1
v 0.5 2.4 -0.1
v 0.6 1.3 -0.1
v 0.6 1.7 -0.1
v 0.6 1.8 -0.1
v 0.6 1.9 -0.1
v 0.6 2.4 -0.1
v 0.6 2.5 -0.1
v 0.7 2.2 -0.1
v 0.7 2.5 -0.1
v -0.4 1 -0.2
v -0.4 1.1 -0.2
v -0.4 1.2 -0.2
v -0.4 1.4 -0.2
v -0.4 1.5 -0.2
v -0.4 1.7 -0.2
v -0.4 1.8 -0.2
v -0.3 1 -0.2
v -0.3 1.1 -0.2
v -0.3 1.7 -0.2
v -0.3 1.8 -0.2
v -0.2 1.1 -0.2
v -0.2 1.2 -0.2
v -0.1 1 -0.2
v -0.1 1.1 -0.2
v -0.1 1.2 -0.2
v 0.1 1 -0.2
v 0.1 1.1 -0.2
v 0.1 1.2 -0.2
v 0.2 1.1 -0.2
v 0.2 1.2 -0.2
v 0.3 1 -0.2
v 0.3 1.1 -0.2
v 0.3 1.6 -0.2
v 0.3 1.7 -0.2
v 0.4 1 -0.2
v 0.4 1.1 -0.2
v 0.4 1.2 -0.2
v 0.4 1.4 -0.2
v 0.4 1.5 -0.2
v 0.4 1.6 -0.2
v 0.4 1.7 -0.2
v 0.4 1.8 -0.2
v -0.6 2.4 -0.3
v -0.6 2.5 -0.3
v -0.6 2.6 -0.3
v -0.6 2.7 -0.3
v -0.5 2.4 -0.3
v -0.5 2.5 -0.3
v -0.5 2.6 -0.3
v -0.5 2.7 -0.3
v -0.4 1.8 -0.3
v -0.4 1.9 -0.3
v -0.3 1.8 -0.3
v -0.3 1.9 -0.3
v 0.3 1.8 -0.3
v 0.3 1.9 -0.3
v 0.4 1.8 -0.3
v 0.4 1.9 -0.3
v 0.5 2.4 -0.3
v 0.5 2.5 -0.3
v 0.5 2.6 -0.3
v 0.5 2.7 -0.3
v 0.6 2.4 -0.3
v 0.6 2.5 -0.3
v 0.6 2.6 -0.3
v 0.6 2.7 -0.3
v -0.6 2.5 -0.4
v -0.6 2.6 -0.4
v -0.5 1.9 -0.4
v -0.5 2 -0.4
v -0.5 2.2 -0.4
v -0.5 2.5 -0.4
v -0.5 2.6 -0.4
v -0.5 2.7 -0.4
v -0.5 2.8 -0.4
v -0.4 1.9 -0.4
v -0.4 2 -0.4
v -0.4 2.5 -0.4
v -0.4 2.6 -0.4
v -0.3 1.8 -0.4
v -0.3 1.9 -0.4
v -0.3 2.1 -0.4
v -0.3 2.2 -0.4
v -0.3 2.5 -0.4
v -0.2 1.9 -0.4
v -0.2 2 -0.4
v -0.2 2.2 -0.4
v -0.2 2.5 -0.4
v -0.2 2.7 -0.4
v -0.2 2.8 -0.4
v -0.1 2.1 -0.4
v -0.1 2.4 -0.4
v -0.1 2.5 -0.4
v -0.1 2.6 -0.4
v 0 2.7 -0.4
v 0.1 2.1 -0.4
v 0.1 2.4 -0.4
v 0.1 2.5 -0.4
v 0.1 2.6 -0.4
v 0.1 2.7 -0.4
v 0.2 1.9 -0.4
v 0.2 2 -0.4
v 0.2 2.2 -0.4
v 0.2 2.5 -0.4
v 0.2 2.7 -0.4
v 0.2 2.8 -0.4
v 0.3 1.8 -0.4
v 0.3 1.9 -0.4
v 0.3 2.1 -0.4
v 0.3 2.2 -0.4
v 0.3 2.5 -0.4
v 0.4 1.9 -0.4
v 0.4 2 -0.4
v 0.4 2.1 -0.4
v 0.4 2.2 -0.4
v 0.4 2.5 -0.4
v 0.4 2.6 -0.4
v 0.5 1.9 -0.4
v 0.5 2 -0.4
v 0.5 2.2 -0.4
v 0.5 2.5 -0.4
v 0.5 2.6 -0.4
v 0.5 2.7 -0.4
v 0.5 2.8 -0.4
v 0.6 2.5 -0.4
v 0.6 2.6 -0.4
v -0.4 2.5 -0.5
v -0.4 2.6 -0.5
v -0.2 2.7 -0.5
v -0.2 2.8 -0.5
v -0.1 2.1 -0.5
v -0.1 2.4 -0.5
v -0.1 2.5 -0.5
v -0.1 2.6 -0.5
v 0 2.7 -0.5
v 0 2.8 -0.5
v 0.1 2.1 -0.5
v 0.1 2.4 -0.5
v 0.1 2.5 -0.5
v 0.1 2.6 -0.5
v 0.1 2.7 -0.5
v 0.1 2.8 -0.5
v 0.2 2.7 -0.5
v 0.2 2.8 -0.5
v 0.4 2.5 -0.5
v 0.4 2.6 -0.5
v -0.4 1 0.2
v -0.1 1 0.2
v 0.1 1 0.2
v 0.4 1 0.2
v -0.4 1 -0.1
v -0.3 1 -0.1
v 0.3 1 -0.1
v 0.4 1 -0.1
v -0.4 1 -0.2
v -0.3 1 -0.2
v -0.1 1 -0.2
v 0.1 1 -0.2
v 0.3 1 -0.2
v 0.4 1 -0.2
v -0.6 1.3 0.1
v -0.4 1.3 0.1
v 0.4 1.3 0.1
v 0.6 1.3 0.1
v -0.6 1.3 -0.1
v -0.4 1.3 -0.1
v 0.4 1.3 -0.1
v 0.6 1.3 -0.1
v -0.4 1.4 0.3
v -0.1 1.4 0.3
v 0.1 1.4 0.3
v 0.4 1.4 0.3
v -0.4 1.4 0.2
v -0.1 1.4 0.2
v 0.1 1.4 0.2
v 0.4 1.4 0.2
v -0.4 1.4 -0.1
v -0.1 1.4 -0.1
v 0.1 1.4 -0.1
v 0.4 1.4 -0.1
v -0.4 1.4 -0.2
v 0.4 1.4 -0.2
v -0.1 1.5 0.3
v 0.1 1.5 0.3
v -0.1 1.5 0.2
v 0.1 1.5 0.2
v -0.4 1.8 -0.2
v -0.3 1.8 -0.2
v 0.4 1.8 -0.2
v -0.4 1.8 -0.3
v -0.3 1.8 -0.3
v 0.3 1.8 -0.3
v 0.4 1.8 -0.3
v -0.3 1.8 -0.4
v 0.3 1.8 -0.4
v -0.4 1.9 0.5
v 0.4 1.9 0.5
v -0.5 1.9 0.3
v -0.4 1.9 0.3
v -0.3 1.9 0.3
v 0.3 1.9 0.3
v 0.4 1.9 0.3
v 0.5 1.9 0.3
v -0.4 1.9 0.2
v -0.3 1.9 0.2
v 0.3 1.9 0.2
v 0.4 1.9 0.2
v -0.5 1.9 0.1
v -0.4 1.9 0.1
v 0.4 1.9 0.1
v 0.5 1.9 0.1
v -0.5 1.9 -0.1
v -0.4 1.9 -0.1
v 0.4 1.9 -0.1
v 0.5 1.9 -0.1
v 0.4 1.9 -0.2
v 0.5 1.9 -0.2
v -0.5 1.9 -0.3
v -0.4 1.9 -0.3
v -0.3 1.9 -0.3
v 0.3 1.9 -0.3
v 0.4 1.9 -0.3
v 0.5 1.9 -0.3
v -0.5 1.9 -0.4
v -0.4 1.9 -0.4
v -0.3 1.9 -0.4
v 0.3 1.9 -0.4
v 0.4 1.9 -0.4
v 0.5 1.9 -0.4
v -0.5 2 0.5
v -0.4 2 0.5
v 0.4 2 0.5
v 0.5 2 0.5
v -0.5 2 0.3
v -0.4 2 0.3
v 0.4 2 0.3
v 0.5 2 0.3
v -0.1 2.1 -0.4
v 0.1 2.1 -0.4
v -0.1 2.1 -0.5
v 0.1 2.1 -0.5
v -0.7 2.2 0
v -0.5 2.2 0
v 0.5 2.2 0
v 0.7 2.2 0
v -0.7 2.2 -0.1
v -0.5 2.2 -0.1
v 0.5 2.2 -0.1
v 0.7 2.2 -0.1
v -0.6 2.4 0.3
v -0.5 2.4 0.3
v 0.5 2.4 0.3
v 0.6 2.4 0.3
v -0.6 2.4 0
v -0.5 2.4 0
v 0.5 2.4 0
v 0.6 2.4 0
v -0.6 2.4 -0.1
v -0.5 2.4 -0.1
v 0.5 2.4 -0.1
v 0.6 2.4 -0.1
v -0.6 2.4 -0.3
v -0.5 2.4 -0.3
v 0.5 2.4 -0.3
v 0.6 2.4 -0.3
v -0.6 2.5 0.4
v -0.5 2.5 0.4
v 0.5 2.5 0.4
v 0.6 2.5 0.4
v -0.6 2.5 0.3
v -0.5 2.5 0.3
v 0.5 2.5 0.3
v 0.6 2.5 0.3
v -0.6 2.5 -0.3
v -0.5 2.5 -0.3
v 0.5 2.5 -0.3
v 0.6 2.5 -0.3
v -0.6 2.5 -0.4
v -0.5 2.5 -0.4
v -0.4 2.5 -0.4
v -0.3 2.5 -0.4
v -0.2 2.5 -0.4
v -0.1 2.5 -0.4
v 0.1 2.5 -0.4
v 0.2 2.5 -0.4
v 0.3 2.5 -0.4
v 0.4 2.5 -0.4
v 0.5 2.5 -0.4
v 0.6 2.5 -0.4
v -0.4 2.5 -0.5
v -0.1 2.5 -0.5
v 0.1 2.5 -0.5
v 0.4 2.5 -0.5
v -0.2 2.7 -0.4
v 0 2.7 -0.4
v 0.1 2.7 -0.4
v 0.2 2.7 -0.4
v -0.2 2.7 -0.5
v 0 2.7 -0.5
v 0.1 2.7 -0.5
v 0.2 2.7 -0.5
v -0.4 1.2 -0.1
v -0.2 1.2 -0.1
v -0.1 1.2 -0.1
v 0.1 1.2 -0.1
v 0.2 1.2 -0.1
v 0.4 1.2 -0.1
v -0.4 1.2 -0.2
v -0.2 1.2 -0.2
v -0.1 1.2 -0.2
v 0.1 1.2 -0.2
v 0.2 1.2 -0.2
v 0.4 1.2 -0.2
v -0.4 1.8 0.3
v -0.3 1.8 0.3
v 0.3 1.8 0.3
v 0.4 1.8 0.3
v -0.4 1.8 0.2
v -0.3 1.8 0.2
v 0.3 1.8 0.2
v 0.4 1.8 0.2
v -0.6 1.9 0.1
v -0.5 1.9 0.1
v 0.5 1.9 0.1
v 0.6 1.9 0.1
v -0.6 1.9 0
v -0.5 1.9 0
v 0.5 1.9 0
v 0.6 1.9 0
v -0.6 1.9 -0.1
v -0.5 1.9 -0.1
v 0.5 1.9 -0.1
v 0.6 1.9 -0.1
v -0.1 2.4 -0.4
v 0.1 2.4 -0.4
v -0.1 2.4 -0.5
v 0.1 2.4 -0.5
v -0.7 2.5 0
v -0.6 2.5 0
v 0.6 2.5 0
v 0.7 2.5 0
v -0.7 2.5 -0.1
v -0.6 2.5 -0.1
v 0.6 2.5 -0.1
v 0.7 2.5 -0.1
v -0.6 2.6 0.4
v -0.5 2.6 0.4
v 0.5 2.6 0.4
v 0.6 2.6 0.4
v -0.6 2.6 0.3
v -0.5 2.6 0.3
v 0.5 2.6 0.3
v 0.6 2.6 0.3
v -0.6 2.6 -0.3
v -0.5 2.6 -0.3
v 0.5 2.6 -0.3
v 0.6 2.6 -0.3
v -0.6 2.6 -0.4
v -0.5 2.6 -0.4
v -0.4 2.6 -0.4
v -0.1 2.6 -0.4
v 0.1 2.6 -0.4
v 0.4 2.6 -0.4
v 0.5 2.6 -0.4
v 0.6 2.6 -0.4
v -0.4 2.6 -0.5
v -0.1 2.6 -0.5
v 0.1 2.6 -0.5
v 0.4 2.6 -0.5
v -0.5 2.7 0.5
v -0.4 2.7 0.5
v 0.4 2.7 0.5
v 0.5 2.7 0.5
v -0.5 2.7 0.4
v -0.4 2.7 0.4
v 0.4 2.7 0.4
v 0.5 2.7 0.4
v -0.6 2.7 0.3
v -0.5 2.7 0.3
v 0.5 2.7 0.3
v 0.6 2.7 0.3
v -0.6 2.7 0.2
v -0.5 2.7 0.2
v 0.5 2.7 0.2
v 0.6 2.7 0.2
v -0.6 2.7 0.1
v -0.5 2.7 0.1
v 0.5 2.7 0.1
v 0.6 2.7 0.1
v -0.5 2.7 -0.2
v 0.5 2.7 -0.2
v -0.6 2.7 -0.3
v -0.5 2.7 -0.3
v 0.5 2.7 -0.3
v 0.6 2.7 -0.3
v -0.4 2.8 0.5
v -0.3 2.8 0.5
v 0.3 2.8 0.5
v 0.4 2.8 0.5
v -0.5 2.8 0.4
v -0.4 2.8 0.4
v -0.3 2.8 0.4
v 0.3 2.8 0.4
v 0.4 2.8 0.4
v 0.5 2.8 0.4
v -0.5 2.8 -0.2
v -0.4 2.8 -0.2
v 0.4 2.8 -0.2
v 0.5 2.8 -0.2
v -0.5 2.8 -0.3
v -0.4 2.8 -0.3
v 0.4 2.8 -0.3
v 0.5 2.8 -0.3
v -0.5 2.8 -0.4
v -0.2 2.8 -0.4
v 0 2.8 -0.4
v 0.1 2.8 -0.4
v 0.2 2.8 -0.4
v 0.5 2.8 -0.4
v -0.2 2.8 -0.5
v 0 2.8 -0.5
v 0.1 2.8 -0.5
v 0.2 2.8 -0.5

# faces
f 3/1/1 2/1/1 1/1/1
f 4/1/1 2/1/1 3/1/1
f 7/6/1 6/6/1 5/6/1
f 8/6/1 6/6/1 7/6/1
f 9/2/1 8/2/1 7/2/1
f 10/2/1 8/2/1 9/2/1
f 11/2/1 9/2/1 7/2/1
f 12/5/1 10/5/1 9/5/1
f 12/2/1 9/2/1 11/2/1
f 13/5/1 10/5/1 12/5/1
f 19/3/1 15/3/1 14/3/1
f 20/3/1 15/3/1 19/3/1
f 21/3/1 17/3/1 16/3/1
f 22/3/1 17/3/1 21/3/1
f 24/3/1 20/3/1 19/3/1
f 24/3/1 19/3/1 18/3/1
f 25/3/1 20/3/1 24/3/1
f 26/3/1 20/3/1 25/3/1
f 27/3/1 20/3/1 26/3/1
f 28/4/1 21/4/1 20/4/1
f 28/3/1 20/3/1 27/3/1
f 29/3/1 23/3/1 22/3/1
f 29/4/1 21/4/1 28/4/1
f 29/3/1 22/3/1 21/3/1
f 30/3/1 23/3/1 29/3/1
f 31/3/1 23/3/1 30/3/1
f 32/3/1 26/3/1 25/3/1
f 33/4/1 27/4/1 26/4/1
f 33/3/1 26/3/1 32/3/1
f 34/3/1 28/3/1 27/3/1
f 34/4/1 27/4/1 33/4/1
f 34/3/1 30/3/1 29/3/1
f 34/3/1 29/3/1 28/3/1
f 35/3/1 30/3/1 34/3/1
f 43/6/1 37/6/1 36/6/1
f 43/6/1 38/6/1 37/6/1
f 44/6/1 38/6/1 43/6/1
f 45/3/1 40/3/1 39/3/1
f 45/6/1 38/6/1 44/6/1
f 45/3/1 39/3/1 38/3/1
f 46/4/1 41/4/1 40/4/1
f 46/3/1 40/3/1 45/3/1
f 47/4/1 41/4/1 46/4/1
f 48/6/1 44/6/1 43/6/1
f 48/6/1 43/6/1 42/6/1
f 49/3/1 45/3/1 44/3/1
f 49/6/1 44/6/1 48/6/1
f 49/3/1 47/3/1 46/3/1
f 49/3/1 46/3/1 45/3/1
f 50/3/1 49/3/1 48/3/1
f 50/3/1 47/3/1 49/3/1
f 51/3/1 47/3/1 50/3/1
f 52/3/1 47/3/1 51/3/1
f 53/6/1 48/6/1 42/6/1
f 54/3/1 50/3/1 48/3/1
f 54/6/1 48/6/1 53/6/1
f 55/3/1 54/3/1 53/3/1
f 56/3/1 50/3/1 54/3/1
f 56/3/1 54/3/1 55/3/1
f 57/6/1 52/6/1 51/6/1
f 58/6/1 52/6/1 57/6/1
f 59/3/1 55/3/1 53/3/1
f 60/3/1 55/3/1 59/3/1
f 61/6/1 52/6/1 58/6/1
f 62/6/1 52/6/1 61/6/1
f 63/3/1 59/3/1 53/3/1
f 67/3/1 63/3/1 53/3/1
f 67/3/1 64/3/1 63/3/1
f 68/3/1 64/3/1 67/3/1
f 69/3/1 64/3/1 68/3/1
f 73/6/1 66/6/1 65/6/1
f 74/6/1 66/6/1 73/6/1
f 75/3/1 72/3/1 71/3/1
f 75/3/1 69/3/1 68/3/1
f 75/3/1 70/3/1 69/3/1
f 75/3/1 71/3/1 70/3/1
f 76/4/1 73/4/1 72/4/1
f 76/3/1 72/3/1 75/3/1
f 77/3/1 74/3/1 73/3/1
f 77/4/1 73/4/1 76/4/1
f 78/3/1 74/3/1 77/3/1
f 82/2/1 80/2/1 79/2/1
f 82/5/1 81/5/1 80/5/1
f 83/5/1 81/5/1 82/5/1
f 84/2/1 82/2/1 79/2/1
f 84/2/1 83/2/1 82/2/1
f 85/2/1 83/2/1 84/2/1
f 86/2/1 83/2/1 85/2/1
f 87/3/1 85/3/1 84/3/1
f 88/3/1 85/3/1 87/3/1
f 90/3/1 87/3/1 84/3/1
f 93/3/1 90/3/1 89/3/1
f 94/3/1 87/3/1 90/3/1
f 94/3/1 90/3/1 93/3/1
f 95/3/1 92/3/1 91/3/1
f 96/3/1 92/3/1 95/3/1
f 97/2/1 94/2/1 93/2/1
f 98/2/1 94/2/1 97/2/1
f 99/2/1 94/2/1 98/2/1
f 100/2/1 96/2/1 95/2/1
f 101/2/1 96/2/1 100/2/1
f 102/5/1 98/5/1 97/5/1
f 103/2/1 99/2/1 98/2/1
f 103/5/1 98/5/1 102/5/1
f 104/5/1 101/5/1 100/5/1
f 105/5/1 101/5/1 104/5/1
f 109/2/1 99/2/1 103/2/1
f 110/2/1 99/2/1 109/2/1
f 111/3/1 105/3/1 104/3/1
f 111/3/1 106/3/1 105/3/1
f 112/3/1 106/3/1 111/3/1
f 113/6/1 108/6/1 107/6/1
f 114/6/1 108/6/1 113/6/1
f 117/3/1 116/3/1 115/3/1
f 118/3/1 116/3/1 117/3/1
f 121/4/1 120/4/1 119/4/1
f 122/4/1 120/4/1 121/4/1
f 127/2/1 124/2/1 123/2/1
f 128/2/1 124/2/1 127/2/1
f 129/3/1 126/3/1 125/3/1
f 130/3/1 126/3/1 129/3/1
f 133/3/1 132/3/1 131/3/1
f 134/3/1 132/3/1 133/3/1
f 137/1/1 136/1/1 135/1/1
f 138/1/1 136/1/1 137/1/1
f 141/2/1 140/2/1 139/2/1
f 142/2/1 140/2/1 141/2/1
f 143/2/1 141/2/1 139/2/1
f 144/5/1 142/5/1 141/5/1
f 144/2/1 141/2/1 143/2/1
f 145/5/1 142/5/1 144/5/1
f 147/3/1 144/3/1 143/3/1
f 148/3/1 144/3/1 147/3/1
f 149/3/1 147/3/1 146/3/1
f 150/3/1 147/3/1 149/3/1
f 153/3/1 152/3/1 151/3/1
f 154/3/1 152/3/1 153/3/1
f 155/2/2 156/2/2 157/2/2
f 157/2/2 156/2/2 158/2/2
f 155/2/2 157/2/2 159/2/2
f 157/5/2 158/5/2 160/5/2
f 159/2/2 157/2/2 160/2/2
f 160/5/2 158/5/2 161/5/2
f 159/3/2 160/3/2 163/3/2
f 163/3/2 160/3/2 164/3/2
f 162/3/2 163/3/2 165/3/2
f 165/3/2 163/3/2 166/3/2
f 167/3/2 168/3/2 169/3/2
f 169/3/2 168/3/2 170/3/2
f 171/1/2 172/1/2 173/1/2
f 173/1/2 172/1/2 174/1/2
f 175/3/2 176/3/2 177/3/2
f 177/3/2 176/3/2 178/3/2
f 179/2/2 180/2/2 183/2/2
f 183/2/2 180/2/2 184/2/2
f 181/3/2 182/3/2 185/3/2
f 185/3/2 182/3/2 186/3/2
f 187/2/2 188/2/2 190/2/2
f 188/5/2 189/5/2 190/5/2
f 190/5/2 189/5/2 191/5/2
f 187/2/2 190/2/2 192/2/2
f 190/2/2 191/2/2 192/2/2
f 192/2/2 191/2/2 193/2/2
f 193/2/2 191/2/2 194/2/2
f 192/3/2 193/3/2 195/3/2
f 195/3/2 193/3/2 196/3/2
f 192/3/2 195/3/2 198/3/2
f 197/3/2 198/3/2 201/3/2
f 198/3/2 195/3/2 202/3/2
f 201/3/2 198/3/2 202/3/2
f 199/3/2 200/3/2 203/3/2
f 203/3/2 200/3/2 204/3/2
f 201/2/2 202/2/2 205/2/2
f 205/2/2 202/2/2 206/2/2
f 203/2/2 204/2/2 207/2/2
f 207/2/2 204/2/2 208/2/2
f 205/5/2 206/5/2 209/5/2
f 206/2/2 202/2/2 210/2/2
f 209/5/2 206/5/2 210/5/2
f 210/2/2 202/2/2 211/2/2
f 207/5/2 208/5/2 212/5/2
f 212/5/2 208/5/2 213/5/2
f 210/2/2 211/2/2 214/2/2
f 209/2/2 210/2/2 214/2/2
f 214/2/2 211/2/2 215/2/2
f 212/2/2 213/2/2 216/2/2
f 216/2/2 213/2/2 217/2/2
f 215/2/2 211/2/2 221/2/2
f 221/2/2 211/2/2 222/2/2
f 216/3/2 217/3/2 223/3/2
f 217/3/2 218/3/2 223/3/2
f 223/3/2 218/3/2 224/3/2
f 224/3/2 218/3/2 225/3/2
f 219/6/2 220/6/2 226/6/2
f 226/6/2 220/6/2 227/6/2
f 228/3/2 229/3/2 230/3/2
f 230/3/2 229/3/2 231/3/2
f 232/4/2 233/4/2 234/4/2
f 234/4/2 233/4/2 235/4/2
f 236/6/2 237/6/2 244/6/2
f 237/6/2 238/6/2 244/6/2
f 244/6/2 238/6/2 245/6/2
f 238/3/2 239/3/2 246/3/2
f 245/6/2 238/6/2 246/6/2
f 239/4/2 240/4/2 247/4/2
f 246/3/2 239/3/2 247/3/2
f 240/3/2 241/3/2 248/3/2
f 247/4/2 240/4/2 248/4/2
f 241/4/2 242/4/2 249/4/2
f 248/3/2 241/3/2 249/3/2
f 249/4/2 242/4/2 250/4/2
f 244/6/2 245/6/2 251/6/2
f 243/6/2 244/6/2 251/6/2
f 247/3/2 248/3/2 252/3/2
f 251/6/2 245/6/2 252/6/2
f 246/3/2 247/3/2 252/3/2
f 248/3/2 249/3/2 252/3/2
f 249/3/2 250/3/2 252/3/2
f 245/3/2 246/3/2 252/3/2
f 252/3/2 250/3/2 253/3/2
f 253/3/2 250/3/2 254/3/2
f 243/6/2 251/6/2 255/6/2
f 251/3/2 252/3/2 255/3/2
f 252/3/2 253/3/2 255/3/2
f 255/3/2 253/3/2 256/3/2
f 253/4/2 254/4/2 257/4/2
f 256/3/2 253/3/2 257/3/2
f 254/3/2 250/3/2 258/3/2
f 257/4/2 254/4/2 258/4/2
f 258/3/2 250/3/2 259/3/2
f 243/6/2 255/6/2 260/6/2
f 255/4/2 256/4/2 261/4/2
f 260/6/2 255/6/2 261/6/2
f 256/3/2 257/3/2 262/3/2
f 261/4/2 256/4/2 262/4/2
f 260/3/2 261/3/2 263/3/2
f 261/3/2 262/3/2 263/3/2
f 262/3/2 257/3/2 264/3/2
f 263/3/2 262/3/2 264/3/2
f 258/6/2 259/6/2 265/6/2
f 265/6/2 259/6/2 266/6/2
f 260/3/2 263/3/2 267/3/2
f 267/3/2 263/3/2 268/3/2
f 266/6/2 259/6/2 269/6/2
f 269/6/2 259/6/2 270/6/2
f 260/3/2 267/3/2 271/3/2
f 260/3/2 271/3/2 275/3/2
f 271/3/2 272/3/2 275/3/2
f 275/3/2 272/3/2 276/3/2
f 276/3/2 272/3/2 277/3/2
f 273/6/2 274/6/2 281/6/2
f 281/6/2 274/6/2 282/6/2
f 279/3/2 280/3/2 283/3/2
f 276/3/2 277/3/2 283/3/2
f 277/3/2 278/3/2 283/3/2
f 278/3/2 279/3/2 283/3/2
f 280/4/2 281/4/2 284/4/2
f 283/3/2 280/3/2 284/3/2
f 281/3/2 282/3/2 285/3/2
f 284/4/2 281/4/2 285/4/2
f 285/3/2 282/3/2 286/3/2
f 287/6/2 288/6/2 289/6/2
f 289/6/2 288/6/2 290/6/2
f 289/2/2 290/2/2 291/2/2
f 291/2/2 290/2/2 292/2/2
f 289/2/2 291/2/2 293/2/2
f 291/5/2 292/5/2 294/5/2
f 293/2/2 291/2/2 294/2/2
f 294/5/2 292/5/2 295/5/2
f 296/3/2 297/3/2 301/3/2
f 301/3/2 297/3/2 302/3/2
f 298/3/2 299/3/2 303/3/2
f 303/3/2 299/3/2 304/3/2
f 301/3/2 302/3/2 306/3/2
f 300/3/2 301/3/2 306/3/2
f 306/3/2 302/3/2 307/3/2
f 307/3/2 302/3/2 308/3/2
f 308/3/2 302/3/2 309/3/2
f 302/4/2 303/4/2 310/4/2
f 309/3/2 302/3/2 310/3/2
f 304/3/2 305/3/2 311/3/2
f 310/4/2 303/4/2 311/4/2
f 303/3/2 304/3/2 311/3/2
f 311/3/2 305/3/2 312/3/2
f 312/3/2 305/3/2 313/3/2
f 307/3/2 308/3/2 314/3/2
f 308/4/2 309/4/2 315/4/2
f 314/3/2 308/3/2 315/3/2
f 309/3/2 310/3/2 316/3/2
f 315/4/2 309/4/2 316/4/2
f 311/3/2 312/3/2 316/3/2
f 310/3/2 311/3/2 316/3/2
f 316/3/2 312/3/2 317/3/2
f 318/1/2 319/1/2 320/1/2
f 320/1/2 319/1/2 321/1/2
f 326/6/3 323/6/3 322/6/3
f 327/3/3 324/3/3 323/3/3
f 329/3/3 327/3/3 323/3/3
f 330/3/3 327/3/3 329/3/3
f 331/4/3 328/4/3 327/4/3
f 331/3/3 327/3/3 330/3/3
f 332/4/3 328/4/3 331/4/3
f 333/4/3 330/4/3 329/4/3
f 333/3/3 329/3/3 323/3/3
f 334/3/3 332/3/3 331/3/3
f 334/4/3 330/4/3 333/4/3
f 334/3/3 331/3/3 330/3/3
f 335/3/3 333/3/3 323/3/3
f 335/3/3 334/3/3 333/3/3
f 336/3/3 332/3/3 334/3/3
f 336/3/3 334/3/3 335/3/3
f 337/3/3 335/3/3 323/3/3
f 337/4/3 336/4/3 335/4/3
f 338/3/3 332/3/3 336/3/3
f 338/4/3 336/4/3 337/4/3
f 339/3/3 332/3/3 338/3/3
f 340/3/3 332/3/3 339/3/3
f 341/6/3 326/6/3 325/6/3
f 342/6/3 323/6/3 326/6/3
f 342/6/3 326/6/3 341/6/3
f 343/3/3 338/3/3 337/3/3
f 343/3/3 339/3/3 338/3/3
f 343/4/3 340/4/3 339/4/3
f 344/4/3 340/4/3 343/4/3
f 345/6/3 323/6/3 342/6/3
f 346/3/3 337/3/3 323/3/3
f 346/6/3 323/6/3 345/6/3
f 346/3/3 343/3/3 337/3/3
f 347/3/3 343/3/3 346/3/3
f 350/3/3 349/3/3 348/3/3
f 351/3/3 349/3/3 350/3/3
f 354/3/3 353/3/3 352/3/3
f 355/3/3 353/3/3 354/3/3
f 360/3/3 357/3/3 356/3/3
f 361/3/3 357/3/3 360/3/3
f 362/3/3 359/3/3 358/3/3
f 363/3/3 359/3/3 362/3/3
f 370/3/3 365/3/3 364/3/3
f 371/3/3 365/3/3 370/3/3
f 372/3/3 367/3/3 366/3/3
f 373/3/3 367/3/3 372/3/3
f 378/6/3 369/6/3 368/6/3
f 379/6/3 369/6/3 378/6/3
f 380/5/3 377/5/3 376/5/3
f 380/2/3 376/2/3 375/2/3
f 381/5/3 377/5/3 380/5/3
f 383/3/3 375/3/3 374/3/3
f 384/2/3 382/2/3 381/2/3
f 384/3/3 375/3/3 383/3/3
f 384/2/3 380/2/3 375/2/3
f 384/2/3 381/2/3 380/2/3
f 386/2/3 382/2/3 384/2/3
f 387/2/3 382/2/3 386/2/3
f 388/2/3 382/2/3 387/2/3
f 389/2/3 382/2/3 388/2/3
f 390/2/3 382/2/3 389/2/3
f 391/3/3 386/3/3 385/3/3
f 392/2/3 387/2/3 386/2/3
f 392/3/3 386/3/3 391/3/3
f 393/5/3 388/5/3 387/5/3
f 393/2/3 387/2/3 392/2/3
f 394/2/3 389/2/3 388/2/3
f 394/5/3 388/5/3 393/5/3
f 395/2/3 389/2/3 394/2/3
f 398/6/3 397/6/3 396/6/3
f 399/6/3 397/6/3 398/6/3
f 404/3/3 401/3/3 400/3/3
f 405/3/3 401/3/3 404/3/3
f 406/3/3 403/3/3 402/3/3
f 407/3/3 403/3/3 406/3/3
f 413/2/3 412/2/3 411/2/3
f 414/2/3 412/2/3 413/2/3
f 415/2/3 409/2/3 408/2/3
f 416/3/3 410/3/3 409/3/3
f 416/2/3 409/2/3 415/2/3
f 417/3/3 410/3/3 416/3/3
f 421/3/3 418/3/3 417/3/3
f 422/3/3 418/3/3 421/3/3
f 425/2/3 420/2/3 419/2/3
f 426/3/3 421/3/3 420/3/3
f 426/2/3 420/2/3 425/2/3
f 427/3/3 421/3/3 426/3/3
f 428/2/3 424/2/3 423/2/3
f 429/2/3 424/2/3 428/2/3
f 433/2/3 432/2/3 431/2/3
f 434/6/3 431/6/3 430/6/3
f 435/6/3 431/6/3 434/6/3
f 436/2/3 433/2/3 431/2/3
f 436/6/3 431/6/3 435/6/3
f 437/2/3 433/2/3 436/2/3
f 442/2/3 441/2/3 440/2/3
f 443/6/3 439/6/3 438/6/3
f 443/6/3 440/6/3 439/6/3
f 444/2/3 442/2/3 440/2/3
f 444/6/3 440/6/3 443/6/3
f 445/2/3 442/2/3 444/2/3
f 448/1/3 447/1/3 446/1/3
f 449/1/3 447/1/3 448/1/3
f 450/1/3 448/1/3 446/1/3
f 451/1/3 448/1/3 450/1/3
f 454/1/3 453/1/3 452/1/3
f 456/1/3 454/1/3 452/1/3
f 456/1/3 455/1/3 454/1/3
f 457/1/3 455/1/3 456/1/3
f 458/1/4 459/1/4 464/1/4
f 464/1/4 459/1/4 465/1/4
f 462/5/4 463/5/4 466/5/4
f 461/2/4 462/2/4 466/2/4
f 466/5/4 463/5/4 467/5/4
f 458/1/4 464/1/4 468/1/4
f 468/1/4 464/1/4 469/1/4
f 460/6/4 461/6/4 471/6/4
f 471/6/4 461/6/4 472/6/4
f 472/6/4 461/6/4 473/6/4
f 466/2/4 467/2/4 474/2/4
f 473/6/4 461/6/4 474/6/4
f 461/2/4 466/2/4 474/2/4
f 474/2/4 467/2/4 475/2/4
f 475/2/4 467/2/4 476/2/4
f 471/3/4 472/3/4 477/3/4
f 470/3/4 471/3/4 477/3/4
f 477/3/4 472/3/4 478/3/4
f 478/3/4 472/3/4 479/3/4
f 480/3/4 481/3/4 482/3/4
f 482/3/4 481/3/4 483/3/4
f 483/3/4 481/3/4 484/3/4
f 484/3/4 481/3/4 485/3/4
f 489/2/4 490/2/4 491/2/4
f 488/2/4 489/2/4 491/2/4
f 491/2/4 490/2/4 492/2/4
f 484/6/4 485/6/4 495/6/4
f 487/6/4 488/6/4 495/6/4
f 485/6/4 486/6/4 495/6/4
f 486/6/4 487/6/4 495/6/4
f 488/2/4 491/2/4 496/2/4
f 495/6/4 488/6/4 496/6/4
f 491/5/4 492/5/4 497/5/4
f 496/2/4 491/2/4 497/2/4
f 497/5/4 492/5/4 498/5/4
f 493/1/4 494/1/4 499/1/4
f 493/1/4 499/1/4 501/1/4
f 499/1/4 500/1/4 501/1/4
f 501/1/4 500/1/4 502/1/4
f 503/5/4 504/5/4 510/5/4
f 504/2/4 505/2/4 511/2/4
f 510/5/4 504/5/4 511/5/4
f 508/5/4 509/5/4 512/5/4
f 507/2/4 508/2/4 512/2/4
f 512/5/4 509/5/4 513/5/4
f 511/2/4 505/2/4 514/2/4
f 510/2/4 511/2/4 514/2/4
f 514/2/4 505/2/4 515/2/4
f 510/2/4 514/2/4 516/2/4
f 514/5/4 515/5/4 517/5/4
f 516/2/4 514/2/4 517/2/4
f 517/5/4 515/5/4 518/5/4
f 519/2/4 520/2/4 522/2/4
f 520/5/4 521/5/4 522/5/4
f 522/5/4 521/5/4 523/5/4
f 519/2/4 522/2/4 524/2/4
f 522/2/4 523/2/4 524/2/4
f 524/2/4 523/2/4 525/2/4
f 512/2/4 513/2/4 526/2/4
f 507/2/4 512/2/4 526/2/4
f 526/2/4 513/2/4 527/2/4
f 524/5/4 525/5/4 528/5/4
f 525/2/4 523/2/4 529/2/4
f 528/5/4 525/5/4 529/5/4
f 529/2/4 523/2/4 530/2/4
f 506/3/4 507/3/4 531/3/4
f 507/2/4 526/2/4 532/2/4
f 531/3/4 507/3/4 532/3/4
f 526/5/4 527/5/4 533/5/4
f 532/2/4 526/2/4 533/2/4
f 527/2/4 513/2/4 534/2/4
f 533/5/4 527/5/4 534/5/4
f 534/2/4 513/2/4 535/2/4
f 536/3/4 537/3/4 540/3/4
f 540/3/4 537/3/4 541/3/4
f 538/3/4 539/3/4 542/3/4
f 542/3/4 539/3/4 543/3/4
f 544/3/4 545/3/4 546/3/4
f 546/3/4 545/3/4 547/3/4
f 548/3/4 549/3/4 550/3/4
f 550/3/4 549/3/4 551/3/4
f 552/3/4 553/3/4 556/3/4
f 556/3/4 553/3/4 557/3/4
f 554/3/4 555/3/4 558/3/4
f 558/3/4 555/3/4 559/3/4
f 560/3/4 561/3/4 565/3/4
f 565/3/4 561/3/4 566/3/4
f 562/4/4 563/4/4 569/4/4
f 563/3/4 564/3/4 570/3/4
f 569/4/4 563/4/4 570/4/4
f 564/6/4 565/6/4 571/6/4
f 565/6/4 566/6/4 571/6/4
f 566/6/4 567/6/4 571/6/4
f 571/6/4 567/6/4 572/6/4
f 569/3/4 570/3/4 574/3/4
f 570/3/4 564/3/4 575/3/4
f 574/3/4 570/3/4 575/3/4
f 564/6/4 571/6/4 576/6/4
f 575/3/4 564/3/4 576/3/4
f 576/6/4 571/6/4 577/6/4
f 573/3/4 574/3/4 578/3/4
f 574/3/4 575/3/4 578/3/4
f 578/3/4 575/3/4 579/3/4
f 576/7/4 577/7/4 580/7/4
f 575/6/4 576/6/4 580/6/4
f 580/7/4 577/7/4 581/7/4
f 567/3/4 568/3/4 582/3/4
f 572/6/4 567/6/4 582/6/4
f 582/3/4 568/3/4 583/3/4
f 580/6/4 581/6/4 584/6/4
f 575/6/4 580/6/4 584/6/4
f 579/3/4 575/3/4 584/3/4
f 584/6/4 581/6/4 585/6/4
f 585/6/4 581/6/4 586/6/4
f 572/6/4 582/6/4 587/6/4
f 585/6/4 586/6/4 588/6/4
f 586/6/4 587/6/4 588/6/4
f 587/6/4 582/6/4 588/6/4
f 579/3/4 584/3/4 589/3/4
f 585/6/4 588/6/4 590/6/4
f 590/6/4 588/6/4 591/6/4
f 591/6/4 588/6/4 592/6/4
f 592/6/4 588/6/4 593/6/4
f 573/3/4 578/3/4 594/3/4
f 578/6/4 579/6/4 594/6/4
f 579/3/4 589/3/4 595/3/4
f 594/6/4 579/6/4 595/6/4
f 589/6/4 590/6/4 596/6/4
f 590/6/4 591/6/4 596/6/4
f 596/6/4 591/6/4 597/6/4
f 592/6/4 593/6/4 598/6/4
f 573/3/4 594/3/4 600/3/4
f 594/3/4 595/3/4 600/3/4
f 600/3/4 595/3/4 601/3/4
f 589/6/4 596/6/4 602/6/4
f 601/3/4 595/3/4 602/3/4
f 595/3/4 589/3/4 602/3/4
f 596/7/4 597/7/4 603/7/4
f 602/6/4 596/6/4 603/6/4
f 603/7/4 597/7/4 604/7/4
f 601/3/4 602/3/4 605/3/4
f 605/3/4 602/3/4 606/3/4
f 602/4/4 603/4/4 607/4/4
f 606/3/4 602/3/4 607/3/4
f 603/6/4 604/6/4 608/6/4
f 607/4/4 603/4/4 608/4/4
f 608/6/4 604/6/4 609/6/4
f 592/6/4 598/6/4 610/6/4
f 605/4/4 606/4/4 611/4/4
f 607/3/4 608/3/4 612/3/4
f 611/4/4 606/4/4 612/4/4
f 606/3/4 607/3/4 612/3/4
f 608/6/4 609/6/4 613/6/4
f 612/3/4 608/3/4 613/3/4
f 609/6/4 610/6/4 613/6/4
f 613/6/4 610/6/4 614/6/4
f 610/6/4 598/6/4 615/6/4
f 614/6/4 610/6/4 615/6/4
f 598/3/4 599/3/4 616/3/4
f 615/6/4 598/6/4 616/6/4
f 616/3/4 599/3/4 617/3/4
f 614/3/4 615/3/4 618/3/4
f 618/3/4 615/3/4 619/3/4
f 620/3/4 621/3/4 626/3/4
f 626/3/4 621/3/4 627/3/4
f 622/3/4 623/3/4 628/3/4
f 628/3/4 623/3/4 629/3/4
f 624/1/4 625/1/4 630/1/4
f 630/1/4 625/1/4 631/1/4
f 628/4/4 629/4/4 634/4/4
f 634/4/4 629/4/4 635/4/4
f 634/3/4 635/3/4 636/3/4
f 636/3/4 635/3/4 637/3/4
f 632/3/4 633/3/4 638/3/4
f 638/3/4 633/3/4 639/3/4
f 644/2/5 641/2/5 640/2/5
f 645/2/5 641/2/5 644/2/5
f 646/2/5 643/2/5 642/2/5
f 647/2/5 643/2/5 646/2/5
f 648/5/5 645/5/5 644/5/5
f 649/2/5 641/2/5 645/2/5
f 649/5/5 645/5/5 648/5/5
f 650/2/5 641/2/5 649/2/5
f 651/2/5 646/2/5 642/2/5
f 652/5/5 647/5/5 646/5/5
f 652/2/5 646/2/5 651/2/5
f 653/5/5 647/5/5 652/5/5
f 658/6/5 655/6/5 654/6/5
f 659/6/5 655/6/5 658/6/5
f 660/6/5 657/6/5 656/6/5
f 661/6/5 657/6/5 660/6/5
f 666/3/5 663/3/5 662/3/5
f 667/3/5 663/3/5 666/3/5
f 668/3/5 665/3/5 664/3/5
f 669/3/5 665/3/5 668/3/5
f 671/3/5 668/3/5 667/3/5
f 672/3/5 668/3/5 671/3/5
f 674/3/5 671/3/5 670/3/5
f 674/3/5 673/3/5 672/3/5
f 674/3/5 672/3/5 671/3/5
f 675/3/5 673/3/5 674/3/5
f 678/2/5 677/2/5 676/2/5
f 679/2/5 677/2/5 678/2/5
f 683/3/5 681/3/5 680/3/5
f 683/3/5 682/3/5 681/3/5
f 684/3/5 682/3/5 683/3/5
f 685/3/5 682/3/5 684/3/5
f 686/3/5 682/3/5 685/3/5
f 687/3/5 685/3/5 684/3/5
f 688/3/5 685/3/5 687/3/5
f 692/6/5 690/6/5 689/6/5
f 693/6/5 690/6/5 692/6/5
f 694/6/5 690/6/5 693/6/5
f 695/6/5 690/6/5 694/6/5
f 697/6/5 692/6/5 691/6/5
f 697/6/5 693/6/5 692/6/5
f 698/6/5 693/6/5 697/6/5
f 699/6/5 696/6/5 695/6/5
f 699/6/5 695/6/5 694/6/5
f 700/6/5 696/6/5 699/6/5
f 701/6/5 697/6/5 691/6/5
f 702/6/5 697/6/5 701/6/5
f 703/6/5 696/6/5 700/6/5
f 704/6/5 696/6/5 703/6/5
f 709/4/5 708/4/5 707/4/5
f 710/4/5 708/4/5 709/4/5
f 711/3/5 706/3/5 705/3/5
f 712/3/5 706/3/5 711/3/5
f 715/3/5 710/3/5 709/3/5
f 716/3/5 710/3/5 715/3/5
f 717/4/5 712/4/5 711/4/5
f 718/3/5 713/3/5 712/3/5
f 718/4/5 712/4/5 717/4/5
f 719/3/5 713/3/5 718/3/5
f 720/3/5 715/3/5 714/3/5
f 721/4/5 716/4/5 715/4/5
f 721/3/5 715/3/5 720/3/5
f 722/4/5 716/4/5 721/4/5
f 727/6/5 724/6/5 723/6/5
f 728/6/5 724/6/5 727/6/5
f 729/6/5 726/6/5 725/6/5
f 730/6/5 726/6/5 729/6/5
f 733/1/5 732/1/5 731/1/5
f 734/1/5 732/1/5 733/1/5
f 739/1/5 736/1/5 735/1/5
f 740/1/5 736/1/5 739/1/5
f 741/1/5 738/1/5 737/1/5
f 742/1/5 738/1/5 741/1/5
f 747/3/5 744/3/5 743/3/5
f 748/3/5 744/3/5 747/3/5
f 749/3/5 746/3/5 745/3/5
f 750/3/5 746/3/5 749/3/5
f 755/3/5 752/3/5 751/3/5
f 756/3/5 752/3/5 755/3/5
f 757/3/5 754/3/5 753/3/5
f 758/3/5 754/3/5 757/3/5
f 763/3/5 760/3/5 759/3/5
f 764/3/5 760/3/5 763/3/5
f 765/3/5 762/3/5 761/3/5
f 766/3/5 762/3/5 765/3/5
f 771/3/5 768/3/5 767/3/5
f 772/3/5 768/3/5 771/3/5
f 781/3/5 770/3/5 769/3/5
f 782/3/5 770/3/5 781/3/5
f 783/3/5 774/3/5 773/3/5
f 783/3/5 775/3/5 774/3/5
f 783/3/5 776/3/5 775/3/5
f 784/3/5 776/3/5 783/3/5
f 785/3/5 780/3/5 779/3/5
f 785/3/5 779/3/5 778/3/5
f 785/3/5 778/3/5 777/3/5
f 786/3/5 780/3/5 785/3/5
f 791/3/5 788/3/5 787/3/5
f 792/4/5 789/4/5 788/4/5
f 792/3/5 788/3/5 791/3/5
f 793/3/5 790/3/5 789/3/5
f 793/4/5 789/4/5 792/4/5
f 794/3/5 790/3/5 793/3/5
f 795/2/6 796/2/6 801/2/6
f 796/5/6 797/5/6 802/5/6
f 801/2/6 796/2/6 802/2/6
f 802/5/6 797/5/6 803/5/6
f 798/5/6 799/5/6 804/5/6
f 799/2/6 800/2/6 805/2/6
f 804/5/6 799/5/6 805/5/6
f 805/2/6 800/2/6 806/2/6
f 807/5/6 808/5/6 811/5/6
f 811/5/6 808/5/6 812/5/6
f 809/2/6 810/2/6 813/2/6
f 813/2/6 810/2/6 814/2/6
f 815/2/6 816/2/6 819/2/6
f 819/2/6 816/2/6 820/2/6
f 817/2/6 818/2/6 821/2/6
f 821/2/6 818/2/6 822/2/6
f 819/5/6 820/5/6 823/5/6
f 823/5/6 820/5/6 824/5/6
f 821/5/6 822/5/6 825/5/6
f 825/5/6 822/5/6 826/5/6
f 827/1/6 828/1/6 829/1/6
f 829/1/6 828/1/6 830/1/6
f 831/1/6 832/1/6 835/1/6
f 835/1/6 832/1/6 836/1/6
f 833/1/6 834/1/6 837/1/6
f 837/1/6 834/1/6 838/1/6
f 839/3/6 840/3/6 843/3/6
f 843/3/6 840/3/6 844/3/6
f 841/3/6 842/3/6 845/3/6
f 845/3/6 842/3/6 846/3/6
f 847/3/6 848/3/6 851/3/6
f 851/3/6 848/3/6 852/3/6
f 849/3/6 850/3/6 857/3/6
f 857/3/6 850/3/6 858/3/6
f 853/3/6 854/3/6 859/3/6
f 859/3/6 854/3/6 860/3/6
f 855/3/6 856/3/6 861/3/6
f 861/3/6 856/3/6 862/3/6
f 863/3/6 864/3/6 867/3/6
f 867/3/6 864/3/6 868/3/6
f 865/3/6 866/3/6 869/3/6
f 869/3/6 866/3/6 870/3/6
f 871/3/6 872/3/6 875/3/6
f 875/3/6 872/3/6 876/3/6
f 873/3/6 874/3/6 877/3/6
f 877/3/6 874/3/6 878/3/6
f 875/4/6 876/4/6 879/4/6
f 879/4/6 876/4/6 880/4/6
f 877/4/6 878/4/6 881/4/6
f 881/4/6 878/4/6 882/4/6
f 879/3/6 880/3/6 883/3/6
f 881/3/6 882/3/6 884/3/6
f 879/3/6 883/3/6 885/3/6
f 885/3/6 883/3/6 886/3/6
f 884/3/6 882/3/6 887/3/6
f 887/3/6 882/3/6 888/3/6
f 889/4/6 890/4/6 894/4/6
f 890/3/6 891/3/6 895/3/6
f 894/4/6 890/4/6 895/4/6
f 891/4/6 892/4/6 896/4/6
f 895/3/6 891/3/6 896/3/6
f 896/4/6 892/4/6 897/4/6
f 894/3/6 895/3/6 899/3/6
f 897/3/6 898/3/6 899/3/6
f 896/3/6 897/3/6 899/3/6
f 895/3/6 896/3/6 899/3/6
f 893/3/6 894/3/6 899/3/6
f 899/3/6 898/3/6 900/3/6
f 900/3/6 898/3/6 901/3/6
f 901/3/6 898/3/6 902/3/6
f 899/4/6 900/4/6 903/4/6
f 900/3/6 901/3/6 904/3/6
f 903/4/6 900/4/6 904/4/6
f 901/4/6 902/4/6 905/4/6
f 904/3/6 901/3/6 905/3/6
f 905/4/6 902/4/6 906/4/6
f 903/3/6 904/3/6 907/3/6
f 904/3/6 905/3/6 907/3/6
f 905/3/6 906/3/6 907/3/6
f 907/3/6 906/3/6 908/3/6
f 908/3/6 906/3/6 909/3/6
f 909/3/6 906/3/6 910/3/6
f 910/3/6 906/3/6 911/3/6
f 911/3/6 906/3/6 912/3/6
f 908/3/6 909/3/6 913/3/6
f 909/4/6 910/4/6 914/4/6
f 913/3/6 909/3/6 914/3/6
f 910/3/6 911/3/6 915/3/6
f 914/4/6 910/4/6 915/4/6
f 915/3/6 911/3/6 916/3/6
