# MagicaVoxel @ Ephtracy

# group
o 

# material
mtllib Dice.mtl
usemtl palette

# normals
vn -1 0 0
vn 1 0 0
vn 0 0 1
vn 0 0 -1
vn 0 -1 0
vn 0 1 0

# texcoords
vt 0.845703 0.5
vt 0.958984 0.5
vt 0.962891 0.5
vt 0.994141 0.5

# verts
v -1 1 1
v -1 1 -1
v -1 1.1 0.9
v -1 1.1 -0.9
v -1 2.9 0.9
v -1 2.9 -0.9
v -1 3 1
v -1 3 -1
v -0.9 1.1 0.9
v -0.9 1.1 -0.9
v -0.9 1.3 0.7
v -0.9 1.3 0.3
v -0.9 1.3 0.2
v -0.9 1.3 -0.2
v -0.9 1.3 -0.3
v -0.9 1.3 -0.7
v -0.9 1.7 0.7
v -0.9 1.7 0.3
v -0.9 1.7 0.2
v -0.9 1.7 -0.2
v -0.9 1.7 -0.3
v -0.9 1.7 -0.7
v -0.9 2.3 0.7
v -0.9 2.3 0.3
v -0.9 2.3 0.2
v -0.9 2.3 -0.2
v -0.9 2.3 -0.3
v -0.9 2.3 -0.7
v -0.9 2.7 0.7
v -0.9 2.7 0.3
v -0.9 2.7 0.2
v -0.9 2.7 -0.2
v -0.9 2.7 -0.3
v -0.9 2.7 -0.7
v -0.9 2.9 0.9
v -0.9 2.9 -0.9
v 0.9 1 0.9
v 0.9 1 -0.9
v 0.9 1.1 1
v 0.9 1.1 0.9
v 0.9 1.1 -0.9
v 0.9 1.1 -1
v 0.9 2.9 1
v 0.9 2.9 0.9
v 0.9 2.9 -0.9
v 0.9 2.9 -1
v 0.9 3 0.9
v 0.9 3 -0.9
v -0.9 1 0.9
v -0.9 1 -0.9
v -0.9 1.1 1
v -0.9 1.1 0.9
v -0.9 1.1 -0.9
v -0.9 1.1 -1
v -0.9 2.9 1
v -0.9 2.9 0.9
v -0.9 2.9 -0.9
v -0.9 2.9 -1
v -0.9 3 0.9
v -0.9 3 -0.9
v 0.9 1.1 0.9
v 0.9 1.1 -0.9
v 0.9 1.8 0.2
v 0.9 1.8 -0.2
v 0.9 2.2 0.2
v 0.9 2.2 -0.2
v 0.9 2.9 0.9
v 0.9 2.9 -0.9
v 1 1 1
v 1 1 -1
v 1 1.1 0.9
v 1 1.1 -0.9
v 1 2.9 0.9
v 1 2.9 -0.9
v 1 3 1
v 1 3 -1
v -1 1 1
v -1 3 1
v -0.9 1 1
v -0.9 1.1 1
v -0.9 2.9 1
v -0.9 3 1
v 0.9 1 1
v 0.9 1.1 1
v 0.9 2.9 1
v 0.9 3 1
v 1 1 1
v 1 3 1
v -0.9 1.1 0.9
v -0.9 2.9 0.9
v -0.7 1.3 0.9
v -0.7 1.7 0.9
v -0.7 2.3 0.9
v -0.7 2.7 0.9
v -0.3 1.3 0.9
v -0.3 1.7 0.9
v -0.3 2.3 0.9
v -0.3 2.7 0.9
v 0.3 1.3 0.9
v 0.3 1.7 0.9
v 0.3 2.3 0.9
v 0.3 2.7 0.9
v 0.7 1.3 0.9
v 0.7 1.7 0.9
v 0.7 2.3 0.9
v 0.7 2.7 0.9
v 0.9 1.1 0.9
v 0.9 2.9 0.9
v -1 1.1 -0.9
v -1 2.9 -0.9
v -0.9 1 -0.9
v -0.9 1.1 -0.9
v -0.9 2.9 -0.9
v -0.9 3 -0.9
v 0.9 1 -0.9
v 0.9 1.1 -0.9
v 0.9 2.9 -0.9
v 0.9 3 -0.9
v 1 1.1 -0.9
v 1 2.9 -0.9
v -1 1.1 0.9
v -1 2.9 0.9
v -0.9 1 0.9
v -0.9 1.1 0.9
v -0.9 2.9 0.9
v -0.9 3 0.9
v 0.9 1 0.9
v 0.9 1.1 0.9
v 0.9 2.9 0.9
v 0.9 3 0.9
v 1 1.1 0.9
v 1 2.9 0.9
v -0.9 1.1 -0.9
v -0.9 2.9 -0.9
v -0.7 1.3 -0.9
v -0.7 1.7 -0.9
v -0.3 1.3 -0.9
v -0.3 1.7 -0.9
v -0.2 1.8 -0.9
v -0.2 2.2 -0.9
v 0.2 1.8 -0.9
v 0.2 2.2 -0.9
v 0.3 2.3 -0.9
v 0.3 2.7 -0.9
v 0.7 2.3 -0.9
v 0.7 2.7 -0.9
v 0.9 1.1 -0.9
v 0.9 2.9 -0.9
v -1 1 -1
v -1 3 -1
v -0.9 1 -1
v -0.9 1.1 -1
v -0.9 2.9 -1
v -0.9 3 -1
v 0.9 1 -1
v 0.9 1.1 -1
v 0.9 2.9 -1
v 0.9 3 -1
v 1 1 -1
v 1 3 -1
v -1 1 1
v -0.9 1 1
v 0.9 1 1
v 1 1 1
v -0.9 1 0.9
v 0.9 1 0.9
v -0.9 1 -0.9
v 0.9 1 -0.9
v -1 1 -1
v -0.9 1 -1
v 0.9 1 -1
v 1 1 -1
v -0.9 1.1 0.9
v 0.9 1.1 0.9
v 0.3 1.1 0.7
v 0.7 1.1 0.7
v 0.3 1.1 0.3
v 0.7 1.1 0.3
v -0.7 1.1 -0.3
v -0.3 1.1 -0.3
v -0.7 1.1 -0.7
v -0.3 1.1 -0.7
v -0.9 1.1 -0.9
v 0.9 1.1 -0.9
v -0.9 2.9 1
v 0.9 2.9 1
v -1 2.9 0.9
v -0.9 2.9 0.9
v 0.9 2.9 0.9
v 1 2.9 0.9
v -1 2.9 -0.9
v -0.9 2.9 -0.9
v 0.9 2.9 -0.9
v 1 2.9 -0.9
v -0.9 2.9 -1
v 0.9 2.9 -1
v -0.9 1.1 1
v 0.9 1.1 1
v -1 1.1 0.9
v -0.9 1.1 0.9
v 0.9 1.1 0.9
v 1 1.1 0.9
v -1 1.1 -0.9
v -0.9 1.1 -0.9
v 0.9 1.1 -0.9
v 1 1.1 -0.9
v -0.9 1.1 -1
v 0.9 1.1 -1
v -0.9 2.9 0.9
v 0.9 2.9 0.9
v -0.7 2.9 0.7
v -0.3 2.9 0.7
v 0.3 2.9 0.7
v 0.7 2.9 0.7
v -0.7 2.9 0.3
v -0.3 2.9 0.3
v 0.3 2.9 0.3
v 0.7 2.9 0.3
v -0.2 2.9 0.2
v 0.2 2.9 0.2
v -0.2 2.9 -0.2
v 0.2 2.9 -0.2
v -0.7 2.9 -0.3
v -0.3 2.9 -0.3
v 0.3 2.9 -0.3
v 0.7 2.9 -0.3
v -0.7 2.9 -0.7
v -0.3 2.9 -0.7
v 0.3 2.9 -0.7
v 0.7 2.9 -0.7
v -0.9 2.9 -0.9
v 0.9 2.9 -0.9
v -1 3 1
v -0.9 3 1
v 0.9 3 1
v 1 3 1
v -0.9 3 0.9
v 0.9 3 0.9
v -0.9 3 -0.9
v 0.9 3 -0.9
v -1 3 -1
v -0.9 3 -1
v 0.9 3 -1
v 1 3 -1

# faces
f 3/2/1 2/2/1 1/2/1
f 4/2/1 2/2/1 3/2/1
f 5/2/1 3/2/1 1/2/1
f 6/2/1 2/2/1 4/2/1
f 7/2/1 5/2/1 1/2/1
f 7/2/1 6/2/1 5/2/1
f 8/2/1 2/2/1 6/2/1
f 8/2/1 6/2/1 7/2/1
f 11/3/1 10/3/1 9/3/1
f 12/3/1 10/3/1 11/3/1
f 13/3/1 10/3/1 12/3/1
f 14/3/1 10/3/1 13/3/1
f 15/3/1 10/3/1 14/3/1
f 16/3/1 10/3/1 15/3/1
f 17/3/1 11/3/1 9/3/1
f 17/4/1 12/4/1 11/4/1
f 18/3/1 13/3/1 12/3/1
f 18/4/1 12/4/1 17/4/1
f 19/4/1 14/4/1 13/4/1
f 19/3/1 13/3/1 18/3/1
f 20/3/1 15/3/1 14/3/1
f 20/4/1 14/4/1 19/4/1
f 21/4/1 16/4/1 15/4/1
f 21/3/1 15/3/1 20/3/1
f 22/3/1 10/3/1 16/3/1
f 22/4/1 16/4/1 21/4/1
f 23/3/1 21/3/1 20/3/1
f 23/3/1 20/3/1 19/3/1
f 23/3/1 22/3/1 21/3/1
f 23/3/1 19/3/1 18/3/1
f 23/3/1 18/3/1 17/3/1
f 23/3/1 17/3/1 9/3/1
f 24/3/1 22/3/1 23/3/1
f 25/3/1 22/3/1 24/3/1
f 26/3/1 22/3/1 25/3/1
f 27/3/1 22/3/1 26/3/1
f 28/3/1 10/3/1 22/3/1
f 28/3/1 22/3/1 27/3/1
f 29/3/1 23/3/1 9/3/1
f 29/4/1 24/4/1 23/4/1
f 30/3/1 25/3/1 24/3/1
f 30/4/1 24/4/1 29/4/1
f 31/4/1 26/4/1 25/4/1
f 31/3/1 25/3/1 30/3/1
f 32/3/1 27/3/1 26/3/1
f 32/4/1 26/4/1 31/4/1
f 33/4/1 28/4/1 27/4/1
f 33/3/1 27/3/1 32/3/1
f 34/3/1 10/3/1 28/3/1
f 34/4/1 28/4/1 33/4/1
f 35/3/1 31/3/1 30/3/1
f 35/3/1 33/3/1 32/3/1
f 35/3/1 34/3/1 33/3/1
f 35/3/1 30/3/1 29/3/1
f 35/3/1 29/3/1 9/3/1
f 35/3/1 32/3/1 31/3/1
f 36/3/1 10/3/1 34/3/1
f 36/3/1 34/3/1 35/3/1
f 40/2/1 38/2/1 37/2/1
f 41/2/1 38/2/1 40/2/1
f 43/2/1 40/2/1 39/2/1
f 44/2/1 40/2/1 43/2/1
f 45/2/1 42/2/1 41/2/1
f 46/2/1 42/2/1 45/2/1
f 47/2/1 45/2/1 44/2/1
f 48/2/1 45/2/1 47/2/1
f 49/2/2 50/2/2 52/2/2
f 52/2/2 50/2/2 53/2/2
f 51/2/2 52/2/2 55/2/2
f 55/2/2 52/2/2 56/2/2
f 53/2/2 54/2/2 57/2/2
f 57/2/2 54/2/2 58/2/2
f 56/2/2 57/2/2 59/2/2
f 59/2/2 57/2/2 60/2/2
f 61/3/2 62/3/2 63/3/2
f 63/3/2 62/3/2 64/3/2
f 61/3/2 63/3/2 65/3/2
f 63/1/2 64/1/2 65/1/2
f 64/3/2 62/3/2 66/3/2
f 65/1/2 64/1/2 66/1/2
f 61/3/2 65/3/2 67/3/2
f 65/3/2 66/3/2 67/3/2
f 66/3/2 62/3/2 68/3/2
f 67/3/2 66/3/2 68/3/2
f 69/2/2 70/2/2 71/2/2
f 71/2/2 70/2/2 72/2/2
f 69/2/2 71/2/2 73/2/2
f 72/2/2 70/2/2 74/2/2
f 69/2/2 73/2/2 75/2/2
f 73/2/2 74/2/2 75/2/2
f 74/2/2 70/2/2 76/2/2
f 75/2/2 74/2/2 76/2/2
f 79/2/3 78/2/3 77/2/3
f 80/2/3 78/2/3 79/2/3
f 81/2/3 78/2/3 80/2/3
f 82/2/3 78/2/3 81/2/3
f 83/3/3 80/3/3 79/3/3
f 84/3/3 80/3/3 83/3/3
f 85/3/3 82/3/3 81/3/3
f 86/3/3 82/3/3 85/3/3
f 87/2/3 84/2/3 83/2/3
f 87/2/3 85/2/3 84/2/3
f 87/2/3 86/2/3 85/2/3
f 88/2/3 86/2/3 87/2/3
f 91/3/3 90/3/3 89/3/3
f 92/3/3 90/3/3 91/3/3
f 93/3/3 90/3/3 92/3/3
f 94/3/3 90/3/3 93/3/3
f 95/3/3 91/3/3 89/3/3
f 95/4/3 92/4/3 91/4/3
f 96/3/3 93/3/3 92/3/3
f 96/4/3 92/4/3 95/4/3
f 97/4/3 94/4/3 93/4/3
f 97/3/3 93/3/3 96/3/3
f 98/3/3 90/3/3 94/3/3
f 98/4/3 94/4/3 97/4/3
f 99/3/3 97/3/3 96/3/3
f 99/3/3 96/3/3 95/3/3
f 99/3/3 98/3/3 97/3/3
f 99/3/3 95/3/3 89/3/3
f 100/3/3 98/3/3 99/3/3
f 101/3/3 98/3/3 100/3/3
f 102/3/3 90/3/3 98/3/3
f 102/3/3 98/3/3 101/3/3
f 103/3/3 99/3/3 89/3/3
f 103/4/3 100/4/3 99/4/3
f 104/3/3 101/3/3 100/3/3
f 104/4/3 100/4/3 103/4/3
f 105/4/3 102/4/3 101/4/3
f 105/3/3 101/3/3 104/3/3
f 106/3/3 90/3/3 102/3/3
f 106/4/3 102/4/3 105/4/3
f 107/3/3 103/3/3 89/3/3
f 107/3/3 105/3/3 104/3/3
f 107/3/3 106/3/3 105/3/3
f 107/3/3 104/3/3 103/3/3
f 108/3/3 90/3/3 106/3/3
f 108/3/3 106/3/3 107/3/3
f 112/2/3 110/2/3 109/2/3
f 113/2/3 110/2/3 112/2/3
f 115/3/3 112/3/3 111/3/3
f 116/3/3 112/3/3 115/3/3
f 117/3/3 114/3/3 113/3/3
f 118/3/3 114/3/3 117/3/3
f 119/2/3 117/2/3 116/2/3
f 120/2/3 117/2/3 119/2/3
f 121/2/4 122/2/4 124/2/4
f 124/2/4 122/2/4 125/2/4
f 123/3/4 124/3/4 127/3/4
f 127/3/4 124/3/4 128/3/4
f 125/3/4 126/3/4 129/3/4
f 129/3/4 126/3/4 130/3/4
f 128/2/4 129/2/4 131/2/4
f 131/2/4 129/2/4 132/2/4
f 133/3/4 134/3/4 135/3/4
f 135/3/4 134/3/4 136/3/4
f 133/3/4 135/3/4 137/3/4
f 135/4/4 136/4/4 137/4/4
f 136/3/4 134/3/4 138/3/4
f 137/4/4 136/4/4 138/4/4
f 137/3/4 138/3/4 139/3/4
f 138/3/4 134/3/4 139/3/4
f 139/3/4 134/3/4 140/3/4
f 137/3/4 139/3/4 141/3/4
f 139/4/4 140/4/4 141/4/4
f 140/3/4 134/3/4 142/3/4
f 141/4/4 140/4/4 142/4/4
f 141/3/4 142/3/4 143/3/4
f 142/3/4 134/3/4 143/3/4
f 143/3/4 134/3/4 144/3/4
f 141/3/4 143/3/4 145/3/4
f 143/4/4 144/4/4 145/4/4
f 144/3/4 134/3/4 146/3/4
f 145/4/4 144/4/4 146/4/4
f 133/3/4 137/3/4 147/3/4
f 137/3/4 141/3/4 147/3/4
f 145/3/4 146/3/4 147/3/4
f 141/3/4 145/3/4 147/3/4
f 146/3/4 134/3/4 148/3/4
f 147/3/4 146/3/4 148/3/4
f 149/2/4 150/2/4 151/2/4
f 151/2/4 150/2/4 152/2/4
f 152/2/4 150/2/4 153/2/4
f 153/2/4 150/2/4 154/2/4
f 151/3/4 152/3/4 155/3/4
f 155/3/4 152/3/4 156/3/4
f 153/3/4 154/3/4 157/3/4
f 157/3/4 154/3/4 158/3/4
f 155/2/4 156/2/4 159/2/4
f 156/2/4 157/2/4 159/2/4
f 157/2/4 158/2/4 159/2/4
f 159/2/4 158/2/4 160/2/4
f 165/2/5 162/2/5 161/2/5
f 165/3/5 163/3/5 162/3/5
f 166/2/5 164/2/5 163/2/5
f 166/3/5 163/3/5 165/3/5
f 167/2/5 165/2/5 161/2/5
f 168/2/5 164/2/5 166/2/5
f 169/2/5 167/2/5 161/2/5
f 170/3/5 168/3/5 167/3/5
f 170/2/5 167/2/5 169/2/5
f 171/2/5 164/2/5 168/2/5
f 171/3/5 168/3/5 170/3/5
f 172/2/5 164/2/5 171/2/5
f 175/3/5 174/3/5 173/3/5
f 176/3/5 174/3/5 175/3/5
f 177/3/5 175/3/5 173/3/5
f 177/4/5 176/4/5 175/4/5
f 178/3/5 174/3/5 176/3/5
f 178/4/5 176/4/5 177/4/5
f 179/3/5 177/3/5 173/3/5
f 179/3/5 178/3/5 177/3/5
f 180/3/5 178/3/5 179/3/5
f 181/3/5 179/3/5 173/3/5
f 181/4/5 180/4/5 179/4/5
f 182/3/5 178/3/5 180/3/5
f 182/4/5 180/4/5 181/4/5
f 183/3/5 181/3/5 173/3/5
f 183/3/5 182/3/5 181/3/5
f 184/3/5 174/3/5 178/3/5
f 184/3/5 182/3/5 183/3/5
f 184/3/5 178/3/5 182/3/5
f 188/3/5 186/3/5 185/3/5
f 189/3/5 186/3/5 188/3/5
f 191/2/5 188/2/5 187/2/5
f 192/2/5 188/2/5 191/2/5
f 193/2/5 190/2/5 189/2/5
f 194/2/5 190/2/5 193/2/5
f 195/3/5 193/3/5 192/3/5
f 196/3/5 193/3/5 195/3/5
f 197/3/6 198/3/6 200/3/6
f 200/3/6 198/3/6 201/3/6
f 199/2/6 200/2/6 203/2/6
f 203/2/6 200/2/6 204/2/6
f 201/2/6 202/2/6 205/2/6
f 205/2/6 202/2/6 206/2/6
f 204/3/6 205/3/6 207/3/6
f 207/3/6 205/3/6 208/3/6
f 209/3/6 210/3/6 211/3/6
f 211/3/6 210/3/6 212/3/6
f 212/3/6 210/3/6 213/3/6
f 213/3/6 210/3/6 214/3/6
f 209/3/6 211/3/6 215/3/6
f 211/4/6 212/4/6 215/4/6
f 212/3/6 213/3/6 216/3/6
f 215/4/6 212/4/6 216/4/6
f 213/4/6 214/4/6 217/4/6
f 216/3/6 213/3/6 217/3/6
f 214/3/6 210/3/6 218/3/6
f 217/4/6 214/4/6 218/4/6
f 216/3/6 217/3/6 219/3/6
f 215/3/6 216/3/6 219/3/6
f 217/3/6 218/3/6 219/3/6
f 219/3/6 218/3/6 220/3/6
f 215/3/6 219/3/6 221/3/6
f 219/4/6 220/4/6 221/4/6
f 220/3/6 218/3/6 222/3/6
f 221/4/6 220/4/6 222/4/6
f 209/3/6 215/3/6 223/3/6
f 215/3/6 221/3/6 223/3/6
f 221/3/6 222/3/6 223/3/6
f 223/3/6 222/3/6 224/3/6
f 222/3/6 218/3/6 225/3/6
f 224/3/6 222/3/6 225/3/6
f 218/3/6 210/3/6 226/3/6
f 225/3/6 218/3/6 226/3/6
f 223/4/6 224/4/6 227/4/6
f 209/3/6 223/3/6 227/3/6
f 224/3/6 225/3/6 228/3/6
f 227/4/6 224/4/6 228/4/6
f 225/4/6 226/4/6 229/4/6
f 228/3/6 225/3/6 229/3/6
f 226/3/6 210/3/6 230/3/6
f 229/4/6 226/4/6 230/4/6
f 209/3/6 227/3/6 231/3/6
f 228/3/6 229/3/6 231/3/6
f 229/3/6 230/3/6 231/3/6
f 227/3/6 228/3/6 231/3/6
f 230/3/6 210/3/6 232/3/6
f 231/3/6 230/3/6 232/3/6
f 233/2/6 234/2/6 237/2/6
f 234/3/6 235/3/6 237/3/6
f 235/2/6 236/2/6 238/2/6
f 237/3/6 235/3/6 238/3/6
f 233/2/6 237/2/6 239/2/6
f 238/2/6 236/2/6 240/2/6
f 233/2/6 239/2/6 241/2/6
f 239/3/6 240/3/6 242/3/6
f 241/2/6 239/2/6 242/2/6
f 240/2/6 236/2/6 243/2/6
f 242/3/6 240/3/6 243/3/6
f 243/2/6 236/2/6 244/2/6
