# Blender 3.3.21
# www.blender.org
mtllib flag.mtl
o Pole
v -0.200000 -0.000000 0.200000
v -0.200000 0.000000 -0.300000
v -0.200000 2.500000 0.200000
v -0.200000 2.500000 -0.300000
v 0.300000 -0.000000 0.200000
v 0.300000 0.000000 -0.300000
v 0.300000 1.600000 0.100000
v 0.300000 1.600000 -0.200000
v 0.300000 2.500000 0.200000
v 0.300000 2.500000 0.100000
v 0.300000 2.500000 -0.200000
v 0.300000 2.500000 -0.300000
v -0.200000 -0.000000 0.200000
v -0.200000 2.500000 0.200000
v 0.300000 -0.000000 0.200000
v 0.300000 2.500000 0.200000
v -0.200000 0.000000 -0.300000
v -0.200000 2.500000 -0.300000
v 0.300000 0.000000 -0.300000
v 0.300000 2.500000 -0.300000
v -0.200000 -0.000000 0.200000
v 0.300000 -0.000000 0.200000
v -0.200000 0.000000 -0.300000
v 0.300000 0.000000 -0.300000
v -0.200000 2.500000 0.200000
v 0.300000 2.500000 0.200000
v 0.300000 2.500000 0.100000
v 0.300000 2.500000 -0.200000
v -0.200000 2.500000 -0.300000
v 0.300000 2.500000 -0.300000
vn -1.0000 -0.0000 -0.0000
vn 1.0000 -0.0000 -0.0000
vn -0.0000 -0.0000 1.0000
vn -0.0000 -0.0000 -1.0000
vn -0.0000 -1.0000 -0.0000
vn -0.0000 1.0000 -0.0000
vt 0.306641 0.500000
vt 0.306641 0.500000
vt 0.306641 0.500000
vt 0.306641 0.500000
vt 0.306641 0.500000
vt 0.306641 0.500000
vt 0.306641 0.500000
vt 0.306641 0.500000
vt 0.306641 0.500000
vt 0.306641 0.500000
vt 0.306641 0.500000
vt 0.306641 0.500000
vt 0.306641 0.500000
vt 0.306641 0.500000
vt 0.306641 0.500000
vt 0.306641 0.500000
vt 0.306641 0.500000
vt 0.306641 0.500000
vt 0.306641 0.500000
vt 0.306641 0.500000
vt 0.306641 0.500000
vt 0.306641 0.500000
vt 0.306641 0.500000
vt 0.306641 0.500000
vt 0.306641 0.500000
vt 0.306641 0.500000
vt 0.306641 0.500000
vt 0.306641 0.500000
vt 0.306641 0.500000
vt 0.306641 0.500000
s 0
usemtl Pole
f 3/3/1 2/2/1 1/1/1
f 4/4/1 2/2/1 3/3/1
f 5/5/2 6/6/2 7/7/2
f 7/7/2 6/6/2 8/8/2
f 5/5/2 7/7/2 9/9/2
f 9/9/2 7/7/2 10/10/2
f 8/8/2 6/6/2 11/11/2
f 11/11/2 6/6/2 12/12/2
f 15/15/3 14/14/3 13/13/3
f 16/16/3 14/14/3 15/15/3
f 17/17/4 18/18/4 19/19/4
f 19/19/4 18/18/4 20/20/4
f 23/23/5 22/22/5 21/21/5
f 24/24/5 22/22/5 23/23/5
f 25/25/6 26/26/6 27/27/6
f 25/25/6 27/27/6 28/28/6
f 25/25/6 28/28/6 29/29/6
f 29/29/6 28/28/6 30/30/6
o Flag
v 1.600000 1.499448 0.100000
v 1.600000 1.499448 -0.200000
v 1.600000 2.399448 0.100000
v 1.600000 2.399448 -0.200000
v 0.300000 1.499448 0.100000
v 0.300000 2.399448 0.100000
v 1.600000 1.499448 0.100000
v 1.600000 2.399448 0.100000
v 0.300000 1.499448 -0.200000
v 0.300000 2.399448 -0.200000
v 1.600000 1.499448 -0.200000
v 1.600000 2.399448 -0.200000
v 0.300000 1.499448 0.100000
v 1.600000 1.499448 0.100000
v 0.300000 1.499448 -0.200000
v 1.600000 1.499448 -0.200000
v 0.300000 2.399448 0.100000
v 1.600000 2.399448 0.100000
v 0.300000 2.399448 -0.200000
v 1.600000 2.399448 -0.200000
vn 1.0000 -0.0000 -0.0000
vn -0.0000 -0.0000 1.0000
vn -0.0000 -0.0000 -1.0000
vn -0.0000 -1.0000 -0.0000
vn -0.0000 1.0000 -0.0000
vt 0.306641 0.500000
vt 0.306641 0.500000
vt 0.306641 0.500000
vt 0.306641 0.500000
vt 0.306641 0.500000
vt 0.306641 0.500000
vt 0.306641 0.500000
vt 0.306641 0.500000
vt 0.306641 0.500000
vt 0.306641 0.500000
vt 0.306641 0.500000
vt 0.306641 0.500000
vt 0.306641 0.500000
vt 0.306641 0.500000
vt 0.306641 0.500000
vt 0.306641 0.500000
vt 0.306641 0.500000
vt 0.306641 0.500000
vt 0.306641 0.500000
vt 0.306641 0.500000
s 0
usemtl Flag
f 31/31/7 32/32/7 33/33/7
f 33/33/7 32/32/7 34/34/7
f 37/37/8 36/36/8 35/35/8
f 38/38/8 36/36/8 37/37/8
f 39/39/9 40/40/9 41/41/9
f 41/41/9 40/40/9 42/42/9
f 45/45/10 44/44/10 43/43/10
f 46/46/10 44/44/10 45/45/10
f 47/47/11 48/48/11 49/49/11
f 49/49/11 48/48/11 50/50/11
