# Blender 3.3.21
# www.blender.org
mtllib clogoMat.mtl
o Logo1.001
v 0.439197 -0.054968 0.359378
v 0.439197 0.025989 0.359378
v 0.547957 -0.054968 0.292472
v 0.547957 0.025989 0.292472
v 0.644775 -0.054968 0.158183
v 0.644775 0.025989 0.158183
v -0.059042 -0.054968 0.333517
v -0.059042 0.025989 0.333517
v 0.102937 -0.054968 0.269146
v 0.102937 0.025989 0.269146
v 0.186433 -0.054968 0.343536
v 0.292192 -0.054968 0.371927
v 0.186433 0.025989 0.343536
v 0.292192 0.025989 0.371927
v -0.090688 -0.054968 0.430993
v -0.090688 0.025989 0.430993
v 0.130322 -0.054968 0.363810
v 0.130322 0.025989 0.363810
v -0.189742 -0.054968 0.524860
v -0.189742 0.025989 0.524860
v 0.219968 -0.054968 0.444663
v 0.219968 0.025989 0.444663
v -0.305619 -0.054968 0.570060
v -0.305619 0.025989 0.570060
v 0.331832 -0.054968 0.470343
v 0.331832 0.025989 0.470343
v -0.160272 -0.054968 0.612675
v -0.160272 0.025989 0.612675
v 0.215277 -0.054968 0.547120
v 0.215277 0.025989 0.547120
v -0.002578 -0.054968 0.610782
v -0.002578 0.025989 0.610782
v 0.096426 -0.054968 0.590775
v 0.096426 0.025989 0.590775
v 0.591209 -0.054968 -0.128895
v 0.435130 0.025989 -0.180987
v 0.435130 -0.054968 -0.180987
v 0.591209 0.025989 -0.128895
v 0.652421 -0.054968 0.076477
v 0.652421 0.025989 0.076477
v 0.018008 0.025989 0.228424
v 0.018008 -0.054968 0.228424
v 0.161916 0.025989 -0.011419
v 0.161916 -0.054968 -0.011419
v -0.624744 -0.054968 0.425718
v -0.503309 -0.054968 -0.432796
v 0.468543 -0.054968 -0.444939
v -0.503309 0.025989 -0.432796
v -0.624744 0.025989 0.425718
v 0.468543 0.025989 -0.444939
v -0.676812 -0.054968 -0.283592
v -0.739216 -0.054968 0.324743
v -0.676812 0.025989 -0.283592
v -0.739216 0.025989 0.324743
v 0.596980 -0.054968 -0.250423
v 0.596980 0.025989 -0.250423
v 0.660067 -0.054968 -0.005229
v 0.660067 0.025989 -0.005229
v -0.059042 -0.054968 0.333517
v -0.017383 -0.054968 -0.438867
v -0.059042 0.025989 0.333517
v 0.225580 -0.054968 -0.441903
v -0.410593 0.025989 0.495056
v -0.410593 -0.054968 0.495056
v -0.193454 -0.054968 0.439398
v -0.193454 0.025989 0.439398
v -0.804303 -0.054968 -0.080440
v -0.822785 -0.054968 0.117959
v -0.804303 0.025989 -0.080440
v -0.822785 0.025989 0.117959
v -0.107238 -0.054968 -0.591775
v -0.248298 -0.054968 -0.590584
v -0.248298 0.025989 -0.590584
v 0.276204 0.025989 -0.599474
v 0.276204 -0.054968 -0.599474
v 0.033242 -0.054968 -0.596438
v -0.013615 -0.054968 -0.720597
v -0.081472 -0.054968 -0.706391
v -0.081472 0.025989 -0.706391
v 0.055868 0.025989 -0.726668
v 0.055868 -0.054968 -0.726668
v 0.014620 -0.054968 -0.720379
v -0.023401 -0.014489 -0.760397
v 0.591209 -0.054968 -0.128895
v -0.708014 -0.054968 0.020575
v 0.435130 0.025989 -0.180987
v 0.435130 -0.054968 -0.180987
v -0.564026 -0.054968 -0.003539
v 0.591209 0.025989 -0.128895
v 0.652421 -0.054968 0.076477
v 0.652421 0.025989 0.076477
v 0.018008 0.025989 0.228424
v 0.018008 -0.054968 0.228424
v 0.161916 0.025989 -0.011419
v 0.161916 -0.054968 -0.011419
v -0.813544 -0.054968 0.018760
v -0.813544 0.025989 0.018760
v -0.564414 0.057089 -0.006884
v -0.625132 0.057089 0.422373
v 0.434742 0.057089 -0.184332
v 0.468155 0.057089 -0.448284
v -0.017771 0.057089 -0.442212
v -0.503697 0.057089 -0.436141
v -0.708402 0.057089 0.017230
v -0.739604 0.057089 0.321398
v -0.677200 0.057089 -0.286937
v 0.590822 0.057089 -0.132240
v 0.596593 0.057089 -0.253768
v 0.652033 0.057089 0.073132
v 0.659679 0.057089 -0.008574
v -0.059430 0.057089 0.330172
v 0.225192 0.057089 -0.445248
v 0.032853 0.057089 -0.599783
v 0.017620 0.057089 0.225079
v 0.275816 0.057089 -0.602819
v 0.161528 0.057089 -0.014764
v -0.410981 0.057089 0.491711
v -0.193842 0.057089 0.436053
v -0.813932 0.057089 0.015415
v -0.823173 0.057089 0.114614
v -0.804691 0.057089 -0.083785
v -0.107626 0.057089 -0.595120
v -0.248686 0.057089 -0.593929
v 0.014232 0.057089 -0.723724
v 0.055481 0.057089 -0.730013
v -0.014003 0.057089 -0.723942
v -0.081860 0.057089 -0.709736
v -0.023790 0.016611 -0.763742
vn -0.0000 1.0000 -0.0000
vn 0.8112 -0.0000 0.5848
vn 0.5240 -0.0000 0.8517
vn -0.0000 -1.0000 -0.0000
vn -0.2593 -0.0000 0.9658
vn -0.6652 -0.0000 0.7466
vn 0.0851 -0.0000 0.9964
vn -0.9511 -0.0000 -0.3088
vn 0.9606 -0.0000 -0.2779
vn 0.2237 -0.0000 -0.9746
vn -0.6878 -0.0000 -0.7259
vn 0.6697 -0.0000 -0.7426
vn -0.3634 -0.0000 -0.9316
vn 0.0120 -0.0000 0.9999
vn -0.2814 -0.0000 0.9596
vn 0.5501 -0.0000 0.8351
vn 0.1981 -0.0000 0.9802
vn 0.3448 -0.0000 0.9387
vn 0.9956 -0.0000 0.0932
vn 0.8556 0.0659 0.5134
vn -0.5262 -0.0000 -0.8504
vn -0.6520 -0.0000 -0.7582
vn -0.8470 -0.0000 -0.5316
vn 0.6245 -0.0758 -0.7773
vn -0.6615 -0.0000 0.7499
vn 0.8345 -0.0000 -0.5510
vn 0.9957 -0.0000 0.0932
vn 0.9685 -0.0000 -0.2492
vn -0.5677 -0.0950 -0.8178
vn -0.6598 0.0722 0.7480
vn 0.4290 -0.0913 -0.8987
vn 0.2469 0.1067 0.9632
vn 0.2483 -0.0000 0.9687
vn -0.3080 -0.0000 0.9514
vn 0.6188 -0.0000 0.7855
vn -0.9957 -0.0000 -0.0928
vn -0.9271 -0.0000 0.3747
vn 0.8335 -0.0488 -0.5504
vn -0.5702 -0.0000 -0.8215
vn -0.6494 -0.0893 -0.7552
vn -0.5237 -0.0976 -0.8463
vn 0.6263 -0.0000 -0.7796
vn -0.8451 -0.0676 -0.5303
vn -0.9954 -0.0224 -0.0927
vn -0.9582 0.0188 0.2856
vn 0.3915 -0.0000 -0.9202
vn 0.9954 0.0224 0.0931
vn 0.4999 -0.0000 -0.8661
vn 0.4981 -0.0866 -0.8628
vn 0.0055 -0.7004 -0.7137
vn -0.6810 -0.0000 -0.7323
vn -0.1440 -0.7113 -0.6880
vn -0.1004 -0.7456 -0.6588
vn 0.5248 0.0975 0.8456
vn -0.7094 -0.0841 -0.6998
vn 0.8043 0.0735 0.5897
vn 0.6162 0.0918 0.7822
vn -0.3151 0.0976 0.9440
vn -0.1004 0.7456 -0.6588
vn -0.1440 0.7113 -0.6880
vn 0.0055 0.7004 -0.7137
vn -0.9268 0.0287 0.3745
vn 0.9684 -0.0147 -0.2491
vn -0.3066 0.0980 0.9468
vt 1.000000 0.000000
vt 1.000000 0.000000
vt 1.000000 0.000000
vt 1.000000 0.000000
vt 1.000000 0.000000
vt 1.000000 0.000000
vt 0.500000 0.000000
vt 0.500000 0.000000
vt 0.750000 0.000000
vt 0.750000 0.000000
vt 0.750000 0.000000
vt 1.000000 0.000000
vt 0.750000 0.000000
vt 1.000000 0.000000
vt 0.500000 0.000000
vt 0.500000 0.000000
vt 0.750000 0.000000
vt 0.750000 0.000000
vt 0.500000 0.000000
vt 0.500000 0.000000
vt 0.750000 0.000000
vt 0.750000 0.000000
vt 0.500000 0.000000
vt 0.500000 0.000000
vt 0.750000 0.000000
vt 0.750000 0.000000
vt 0.500000 0.000000
vt 0.500000 0.000000
vt 0.750000 0.000000
vt 0.750000 0.000000
vt 0.500000 0.000000
vt 0.500000 0.000000
vt 0.750000 0.000000
vt 0.750000 0.000000
vt 1.000000 0.500000
vt 1.000000 0.500000
vt 1.000000 0.500000
vt 1.000000 0.500000
vt 1.000000 0.500000
vt 1.000000 0.500000
vt 0.500000 0.500000
vt 0.500000 0.500000
vt 0.750000 0.500000
vt 0.750000 0.500000
vt 0.000000 0.000000
vt 0.000000 1.000000
vt 1.000000 1.000000
vt 0.000000 1.000000
vt 0.000000 0.000000
vt 1.000000 1.000000
vt 0.000000 1.000000
vt 0.000000 0.000000
vt 0.000000 1.000000
vt 0.000000 0.000000
vt 1.000000 1.000000
vt 1.000000 1.000000
vt 1.000000 1.000000
vt 1.000000 1.000000
vt 0.500000 0.000000
vt 0.500000 1.000000
vt 0.500000 0.000000
vt 0.750000 1.000000
vt 0.000000 0.000000
vt 0.000000 0.000000
vt 0.500000 0.000000
vt 0.500000 0.000000
vt 0.000000 1.000000
vt 0.000000 0.000000
vt 0.000000 1.000000
vt 0.000000 0.000000
vt 0.500000 1.000000
vt 0.000000 1.000000
vt 0.000000 1.000000
vt 1.000000 1.000000
vt 1.000000 1.000000
vt 0.750000 1.000000
vt 0.500000 1.000000
vt 0.000000 1.000000
vt 0.000000 1.000000
vt 1.000000 1.000000
vt 1.000000 1.000000
vt 0.750000 1.000000
vt 0.750000 1.000000
vt 0.500000 1.000000
vt 1.000000 1.000000
vt 0.000000 1.000000
vt 1.000000 0.500000
vt 0.000000 0.500000
vt 1.000000 0.500000
vt 1.000000 0.500000
vt 0.000000 0.500000
vt 1.000000 0.500000
vt 1.000000 0.500000
vt 1.000000 0.500000
vt 0.500000 0.500000
vt 0.500000 0.500000
vt 0.750000 0.500000
vt 0.750000 0.500000
vt 0.000000 0.500000
vt 0.000000 0.500000
vt 0.000000 0.500000
vt 0.000000 0.000000
vt 1.000000 0.500000
vt 1.000000 1.000000
vt 0.500000 1.000000
vt 0.000000 1.000000
vt 0.000000 0.500000
vt 0.000000 0.000000
vt 0.000000 1.000000
vt 1.000000 0.500000
vt 1.000000 1.000000
vt 1.000000 0.500000
vt 1.000000 1.000000
vt 0.500000 0.000000
vt 0.750000 1.000000
vt 0.750000 1.000000
vt 0.500000 0.500000
vt 1.000000 1.000000
vt 0.750000 0.500000
vt 0.000000 0.000000
vt 0.500000 0.000000
vt 0.000000 0.500000
vt 0.000000 0.000000
vt 0.000000 1.000000
vt 0.500000 1.000000
vt 0.000000 1.000000
vt 0.750000 1.000000
vt 1.000000 1.000000
vt 0.500000 1.000000
vt 0.000000 1.000000
vt 1.000000 1.000000
vt 0.750000 1.000000
vt 0.000000 1.000000
vt 0.500000 1.000000
s 0
usemtl LighterColor
f 2/2/1 10/10/1 13/13/1 14/14/1
f 36/36/1 2/2/1 4/4/1 38/38/1
f 4/4/2 3/3/2 5/5/2 6/6/2
f 2/2/3 1/1/3 3/3/3 4/4/3
f 38/38/1 4/4/1 6/6/1 40/40/1
f 7/7/4 9/9/4 17/17/4 15/15/4
f 11/11/5 12/12/5 14/14/5 13/13/5
f 10/10/6 9/9/6 11/11/6 13/13/6
f 9/9/4 1/1/4 12/12/4 11/11/4
f 1/1/7 2/2/7 14/14/7 12/12/7
f 18/18/1 16/16/1 20/20/1 22/22/1
f 8/8/8 7/7/8 15/15/8 16/16/8
f 9/9/9 10/10/9 18/18/9 17/17/9
f 10/10/1 8/8/1 16/16/1 18/18/1
f 21/21/10 22/22/10 26/26/10 25/25/10
f 16/16/11 15/15/11 19/19/11 20/20/11
f 17/17/12 18/18/12 22/22/12 21/21/12
f 15/15/4 17/17/4 21/21/4 19/19/4
f 23/23/4 25/25/4 29/29/4 27/27/4
f 19/19/4 21/21/4 25/25/4 23/23/4
f 22/22/1 20/20/1 24/24/1 26/26/1
f 20/20/13 19/19/13 23/23/13 24/24/13
f 28/28/14 27/27/14 31/31/14 32/32/14
f 26/26/1 24/24/1 28/28/1 30/30/1
f 24/24/15 23/23/15 27/27/15 28/28/15
f 25/25/16 26/26/16 30/30/16 29/29/16
f 31/31/17 33/33/17 34/34/17 32/32/17
f 29/29/18 30/30/18 34/34/18 33/33/18
f 27/27/4 29/29/4 33/33/4 31/31/4
f 30/30/1 28/28/1 32/32/1 34/34/1
f 8/8/1 10/10/1 43/43/1 41/41/1
f 7/7/4 42/42/4 44/44/4 9/9/4
f 3/3/4 35/35/4 39/39/4 5/5/4
f 5/5/19 39/39/19 40/40/19 6/6/19
f 1/1/4 37/37/4 35/35/4 3/3/4
f 10/10/1 2/2/1 36/36/1 43/43/1
f 9/9/4 44/44/4 37/37/4 1/1/4
usemtl DarkerColor
f 95/98/4 62/62/4 47/47/4 87/90/4
f 92/95/20 94/97/20 116/119/20 114/117/20
f 46/46/21 48/48/21 73/73/21 72/72/21
f 48/48/22 46/46/22 51/51/22 53/53/22
f 53/53/23 51/51/23 67/67/23 69/69/23
f 50/50/24 74/74/24 115/118/24 101/104/24
f 88/91/4 45/45/4 52/52/4 85/88/4
f 45/45/25 49/49/25 54/54/25 52/52/25
f 87/90/4 47/47/4 55/55/4 84/87/4
f 47/47/26 50/50/26 56/56/26 55/55/26
f 90/93/27 57/57/27 58/58/27 91/94/27
f 55/55/28 56/56/28 58/58/28 57/57/28
f 84/87/4 55/55/4 57/57/4 90/93/4
f 79/79/29 73/73/29 123/126/29 127/130/29
f 60/60/4 46/46/4 72/72/4 71/71/4
f 54/54/30 49/49/30 99/102/30 105/108/30
f 88/91/4 46/46/4 60/60/4 93/96/4
f 80/80/31 83/85/31 128/131/31 125/128/31
f 63/63/32 66/66/32 118/121/32 117/120/32
f 93/96/4 60/60/4 62/62/4 95/98/4
f 64/64/33 65/65/33 66/66/33 63/63/33
f 45/45/4 59/59/4 65/65/4 64/64/4
f 49/49/34 45/45/34 64/64/34 63/63/34
f 59/59/35 61/61/35 66/66/35 65/65/35
f 96/99/36 68/68/36 70/70/36 97/100/36
f 85/88/4 52/52/4 68/68/4 96/99/4
f 52/52/37 54/54/37 70/70/37 68/68/37
f 56/56/38 50/50/38 101/104/38 108/111/38
f 72/72/39 73/73/39 79/79/39 78/78/39
f 76/76/4 71/71/4 77/77/4 82/82/4
f 48/48/40 53/53/40 106/109/40 103/106/40
f 73/73/41 48/48/41 103/106/41 123/126/41
f 62/62/4 60/60/4 71/71/4 76/76/4
f 47/47/4 62/62/4 76/76/4 75/75/4
f 50/50/42 47/47/42 75/75/42 74/74/42
f 53/53/43 69/69/43 121/124/43 106/109/43
f 69/69/44 97/100/44 119/122/44 121/124/44
f 89/92/45 91/94/45 109/112/45 107/110/45
f 80/80/46 81/81/46 83/85/46
f 71/71/4 72/72/4 78/78/4 77/77/4
f 75/75/4 76/76/4 82/82/4 81/81/4
f 91/94/47 58/58/47 110/113/47 109/112/47
f 74/74/48 75/75/48 81/81/48 80/80/48
f 74/74/49 80/80/49 125/128/49 115/118/49
f 67/67/36 96/99/36 97/100/36 69/69/36
f 82/82/50 77/77/50 83/83/50
f 78/78/51 79/79/51 83/86/51
f 77/77/52 78/78/52 83/84/52
f 81/81/53 82/82/53 83/85/53
f 94/97/54 86/89/54 100/103/54 116/119/54
f 51/51/4 85/88/4 96/99/4 67/67/4
f 83/86/55 79/79/55 127/130/55 128/133/55
f 45/45/4 88/91/4 93/96/4 59/59/4
f 61/61/56 92/95/56 114/117/56 111/114/56
f 66/66/57 61/61/57 111/114/57 118/121/57
f 46/46/4 88/91/4 85/88/4 51/51/4
f 97/100/44 70/70/44 120/123/44 119/122/44
f 86/89/58 89/92/58 107/110/58 100/103/58
f 116/119/1 100/103/1 101/104/1 112/115/1
f 98/101/1 103/106/1 106/109/1 104/107/1
f 111/114/1 99/102/1 117/120/1 118/121/1
f 98/101/1 114/117/1 102/105/1 103/106/1
f 112/115/1 101/104/1 115/118/1 113/116/1
f 114/117/1 116/119/1 112/115/1 102/105/1
f 104/107/1 106/109/1 121/124/1 119/122/1
f 113/116/1 115/118/1 125/128/1 124/127/1
f 102/105/1 112/115/1 113/116/1 122/125/1
f 103/106/1 102/105/1 122/125/1 123/126/1
f 124/127/59 125/128/59 128/132/59
f 127/130/60 126/129/60 128/133/60
f 122/125/1 113/116/1 124/127/1 126/129/1
f 123/126/1 122/125/1 126/129/1 127/130/1
f 126/129/61 124/127/61 128/134/61
f 105/108/1 104/107/1 119/122/1 120/123/1
f 99/102/1 111/114/1 114/117/1 98/101/1
f 108/111/1 107/110/1 109/112/1 110/113/1
f 99/102/1 98/101/1 104/107/1 105/108/1
f 101/104/1 100/103/1 107/110/1 108/111/1
f 70/70/62 54/54/62 105/108/62 120/123/62
f 58/58/63 56/56/63 108/111/63 110/113/63
f 49/49/64 63/63/64 117/120/64 99/102/64
