# Blender 3.6.5
# www.blender.org
mtllib cLogo.mtl
o Logo1
v 1.971104 -0.015438 0.526567
v 3.035045 -0.015438 0.460227
v 2.092539 -0.015438 -0.331947
v 3.064391 -0.015438 -0.344090
v 2.092539 0.065519 -0.331947
v 1.971104 0.065519 0.526567
v 3.035045 0.065519 0.460227
v 3.064391 0.065519 -0.344090
v 1.919036 -0.015438 -0.182743
v 1.856632 -0.015438 0.425592
v 1.919036 0.065519 -0.182743
v 1.856632 0.065519 0.425592
v 3.143805 -0.015438 0.393321
v 3.192828 -0.015438 -0.149574
v 3.143805 0.065519 0.393321
v 3.192828 0.065519 -0.149574
v 3.240623 -0.015438 0.259032
v 3.255915 -0.015438 0.095620
v 3.240623 0.065519 0.259032
v 3.255915 0.065519 0.095620
v 2.536806 -0.015438 0.434366
v 2.578465 -0.015438 -0.338018
v 2.536806 0.065519 0.434366
v 2.698785 -0.015438 0.369995
v 2.698785 0.065519 0.369995
v 2.821428 -0.015438 -0.341054
v 2.782281 -0.015438 0.444385
v 2.888040 -0.015438 0.472776
v 2.782281 0.065519 0.444385
v 2.888040 0.065519 0.472776
v 2.185255 0.065519 0.595905
v 2.185255 -0.015438 0.595905
v 2.402394 -0.015438 0.540247
v 2.402394 0.065519 0.540247
v 2.505160 -0.015438 0.531842
v 2.505160 0.065519 0.531842
v 2.726169 -0.015438 0.464659
v 2.726169 0.065519 0.464659
v 2.406106 -0.015438 0.625709
v 2.406106 0.065519 0.625709
v 2.815816 -0.015438 0.545512
v 2.815816 0.065519 0.545512
v 2.290229 -0.015438 0.670909
v 2.290229 0.065519 0.670909
v 2.927680 -0.015438 0.571192
v 2.927680 0.065519 0.571192
v 2.435576 -0.015438 0.713524
v 2.435576 0.065519 0.713524
v 2.811125 -0.015438 0.647969
v 2.811125 0.065519 0.647969
v 2.593269 -0.015438 0.711631
v 2.593269 0.065519 0.711631
v 2.692274 -0.015438 0.691624
v 2.692274 0.065519 0.691624
v 1.791545 -0.015438 0.020409
v 1.773063 -0.015438 0.218808
v 1.791545 0.065519 0.020409
v 1.773063 0.065519 0.218808
v 2.488610 -0.015438 -0.490926
v 2.347550 -0.015438 -0.489735
v 2.347550 0.065519 -0.489735
v 2.872052 0.065519 -0.498625
v 2.872052 -0.015438 -0.498625
v 2.629089 -0.015438 -0.495589
v 2.582233 -0.015438 -0.619748
v 2.514376 -0.015438 -0.605542
v 2.514376 0.065519 -0.605542
v 2.651716 0.065519 -0.625819
v 2.651716 -0.015438 -0.625819
v 2.610468 -0.015438 -0.619530
v 2.572446 0.025041 -0.659548
v 3.187057 -0.015438 -0.028046
v 1.887834 -0.015438 0.121424
v 3.030978 0.065519 -0.080138
v 3.030978 -0.015438 -0.080138
v 2.031822 -0.015438 0.097310
v 3.187057 0.065519 -0.028046
v 3.248269 -0.015438 0.177326
v 3.248269 0.065519 0.177326
v 2.613856 0.065519 0.329273
v 2.613856 -0.015438 0.329273
v 2.757764 0.065519 0.089430
v 2.757764 -0.015438 0.089430
v 1.782304 -0.015438 0.119609
v 1.782304 0.065519 0.119609
v 2.031434 0.096619 0.093965
v 1.970716 0.096619 0.523222
v 3.030590 0.096619 -0.083483
v 3.064003 0.096619 -0.347435
v 2.578077 0.096619 -0.341363
v 2.092151 0.096619 -0.335292
v 1.887446 0.096619 0.118079
v 1.856244 0.096619 0.422247
v 1.918648 0.096619 -0.186088
v 3.186669 0.096619 -0.031391
v 3.192441 0.096619 -0.152919
v 3.247881 0.096619 0.173981
v 3.255527 0.096619 0.092275
v 2.536418 0.096619 0.431021
v 2.821040 0.096619 -0.344399
v 2.628701 0.096619 -0.498934
v 2.613468 0.096619 0.325928
v 2.871664 0.096619 -0.501970
v 2.757376 0.096619 0.086085
v 2.184867 0.096619 0.592560
v 2.402006 0.096619 0.536902
v 1.781916 0.096619 0.116264
v 1.772675 0.096619 0.215463
v 1.791157 0.096619 0.017064
v 2.488222 0.096619 -0.494271
v 2.347162 0.096619 -0.493080
v 2.610080 0.096619 -0.622875
v 2.651329 0.096619 -0.629164
v 2.581845 0.096619 -0.623093
v 2.513988 0.096619 -0.608887
v 2.572058 0.056141 -0.662893
vn -0.0000 -1.0000 -0.0000
vn 0.8556 0.0659 0.5134
vn -0.5262 -0.0000 -0.8504
vn -0.0000 1.0000 -0.0000
vn -0.6520 -0.0000 -0.7582
vn -0.8470 -0.0000 -0.5316
vn 0.6245 -0.0758 -0.7773
vn -0.6615 -0.0000 0.7499
vn 0.8112 -0.0000 0.5848
vn 0.8345 -0.0000 -0.5510
vn 0.5240 -0.0000 0.8517
vn 0.9957 -0.0000 0.0932
vn 0.9685 -0.0000 -0.2492
vn -0.5677 -0.0950 -0.8178
vn -0.6598 0.0722 0.7480
vn 0.4290 -0.0913 -0.8987
vn 0.2469 0.1067 0.9632
vn -0.2593 -0.0000 0.9658
vn -0.6652 -0.0000 0.7466
vn 0.0851 -0.0000 0.9964
vn 0.2483 -0.0000 0.9687
vn -0.3080 -0.0000 0.9514
vn 0.6188 -0.0000 0.7855
vn -0.9511 -0.0000 -0.3088
vn 0.9606 -0.0000 -0.2779
vn 0.2237 -0.0000 -0.9746
vn -0.6878 -0.0000 -0.7259
vn 0.6697 -0.0000 -0.7426
vn -0.3634 -0.0000 -0.9316
vn 0.0120 -0.0000 0.9999
vn -0.2814 -0.0000 0.9596
vn 0.5501 -0.0000 0.8351
vn 0.1981 -0.0000 0.9802
vn 0.3448 -0.0000 0.9387
vn -0.9957 -0.0000 -0.0928
vn -0.9271 -0.0000 0.3747
vn 0.8335 -0.0488 -0.5504
vn -0.5702 -0.0000 -0.8215
vn -0.6494 -0.0893 -0.7552
vn -0.5237 -0.0976 -0.8463
vn 0.6263 -0.0000 -0.7796
vn -0.8451 -0.0676 -0.5303
vn -0.9954 -0.0224 -0.0927
vn -0.9582 0.0188 0.2856
vn 0.3915 -0.0000 -0.9202
vn 0.9954 0.0224 0.0931
vn 0.5000 -0.0000 -0.8661
vn 0.4981 -0.0866 -0.8628
vn 0.0055 -0.7004 -0.7137
vn -0.6810 -0.0000 -0.7323
vn -0.1440 -0.7113 -0.6880
vn -0.1004 -0.7456 -0.6588
vn 0.5248 0.0975 0.8456
vn -0.7094 -0.0841 -0.6998
vn 0.8043 0.0735 0.5897
vn 0.6162 0.0918 0.7822
vn -0.3151 0.0976 0.9440
vn -0.1004 0.7456 -0.6588
vn -0.1440 0.7113 -0.6880
vn 0.0055 0.7004 -0.7137
vn -0.9268 0.0287 0.3745
vn 0.9684 -0.0147 -0.2492
vn -0.3066 0.0980 0.9468
vt 0.750000 0.500000
vt 0.750000 1.000000
vt 1.000000 1.000000
vt 1.000000 0.500000
vt 0.500000 0.500000
vt 0.750000 0.500000
vt 0.000000 1.000000
vt 1.000000 0.000000
vt 0.750000 0.000000
vt 1.000000 0.500000
vt 0.000000 0.500000
vt 0.000000 0.000000
vt 1.000000 0.500000
vt 0.500000 1.000000
vt 0.500000 0.500000
vt 0.500000 0.000000
vt 0.000000 0.500000
vt 0.750000 1.000000
s 0
f 83/1/1 26/2/1 4/3/1 75/4/1
f 80/5/2 82/6/2 104/6/2 102/5/2
f 3/7/3 5/7/3 61/7/3 60/7/3
f 7/8/4 25/9/4 29/9/4 30/8/4
f 74/4/4 7/8/4 15/8/4 77/10/4
f 5/7/5 3/7/5 9/7/5 11/7/5
f 11/7/6 9/7/6 55/7/6 57/7/6
f 8/3/7 62/3/7 103/3/7 89/3/7
f 76/11/1 1/12/1 10/12/1 73/11/1
f 1/12/8 6/12/8 12/12/8 10/12/8
f 15/8/9 13/8/9 17/8/9 19/8/9
f 75/4/1 4/3/1 14/3/1 72/13/1
f 4/3/10 8/3/10 16/3/10 14/3/10
f 7/8/11 2/8/11 13/8/11 15/8/11
f 78/4/12 18/3/12 20/3/12 79/4/12
f 77/10/4 15/8/4 19/8/4 79/4/4
f 14/3/13 16/3/13 20/3/13 18/3/13
f 72/13/1 14/3/1 18/3/1 78/4/1
f 67/7/14 61/7/14 111/7/14 115/7/14
f 22/14/1 3/7/1 60/7/1 59/14/1
f 12/12/15 6/12/15 87/12/15 93/12/15
f 76/11/1 3/7/1 22/14/1 81/15/1
f 68/3/16 71/3/16 116/3/16 113/3/16
f 21/16/1 24/9/1 37/9/1 35/16/1
f 31/12/17 34/16/17 106/16/17 105/12/17
f 81/15/1 22/14/1 26/2/1 83/1/1
f 27/9/18 28/8/18 30/8/18 29/9/18
f 25/9/19 24/9/19 27/9/19 29/9/19
f 24/9/1 2/8/1 28/8/1 27/9/1
f 2/8/20 7/8/20 30/8/20 28/8/20
f 32/12/21 33/16/21 34/16/21 31/12/21
f 1/12/1 21/16/1 33/16/1 32/12/1
f 6/12/22 1/12/22 32/12/22 31/12/22
f 21/16/23 23/16/23 34/16/23 33/16/23
f 38/9/4 36/16/4 40/16/4 42/9/4
f 23/16/24 21/16/24 35/16/24 36/16/24
f 24/9/25 25/9/25 38/9/25 37/9/25
f 25/9/4 23/16/4 36/16/4 38/9/4
f 41/9/26 42/9/26 46/9/26 45/9/26
f 36/16/27 35/16/27 39/16/27 40/16/27
f 37/9/28 38/9/28 42/9/28 41/9/28
f 35/16/1 37/9/1 41/9/1 39/16/1
f 43/16/1 45/9/1 49/9/1 47/16/1
f 39/16/1 41/9/1 45/9/1 43/16/1
f 42/9/4 40/16/4 44/16/4 46/9/4
f 40/16/29 39/16/29 43/16/29 44/16/29
f 48/16/30 47/16/30 51/16/30 52/16/30
f 46/9/4 44/16/4 48/16/4 50/9/4
f 44/16/31 43/16/31 47/16/31 48/16/31
f 45/9/32 46/9/32 50/9/32 49/9/32
f 51/16/33 53/9/33 54/9/33 52/16/33
f 49/9/34 50/9/34 54/9/34 53/9/34
f 47/16/1 49/9/1 53/9/1 51/16/1
f 50/9/4 48/16/4 52/16/4 54/9/4
f 84/17/35 56/12/35 58/12/35 85/17/35
f 73/11/1 10/12/1 56/12/1 84/17/1
f 10/12/36 12/12/36 58/12/36 56/12/36
f 16/3/37 8/3/37 89/3/37 96/3/37
f 60/7/38 61/7/38 67/7/38 66/7/38
f 64/2/1 59/14/1 65/14/1 70/2/1
f 5/7/39 11/7/39 94/7/39 91/7/39
f 61/7/40 5/7/40 91/7/40 111/7/40
f 26/2/1 22/14/1 59/14/1 64/2/1
f 4/3/1 26/2/1 64/2/1 63/3/1
f 8/3/41 4/3/41 63/3/41 62/3/41
f 11/7/42 57/7/42 109/7/42 94/7/42
f 57/7/43 85/17/43 107/17/43 109/7/43
f 77/10/44 79/4/44 97/4/44 95/10/44
f 68/3/45 69/3/45 71/3/45
f 59/14/1 60/7/1 66/7/1 65/14/1
f 63/3/1 64/2/1 70/2/1 69/3/1
f 79/4/46 20/3/46 98/3/46 97/4/46
f 62/3/47 63/3/47 69/3/47 68/3/47
f 62/3/48 68/3/48 113/3/48 103/3/48
f 23/16/4 25/9/4 82/6/4 80/5/4
f 21/16/1 81/15/1 83/1/1 24/9/1
f 55/7/35 84/17/35 85/17/35 57/7/35
f 70/2/49 65/14/49 71/2/49
f 66/7/50 67/7/50 71/7/50
f 65/14/51 66/7/51 71/14/51
f 69/3/52 70/2/52 71/3/52
f 82/6/53 74/4/53 88/4/53 104/6/53
f 9/7/1 73/11/1 84/17/1 55/7/1
f 71/7/54 67/7/54 115/7/54 116/7/54
f 1/12/1 76/11/1 81/15/1 21/16/1
f 23/16/55 80/5/55 102/5/55 99/16/55
f 13/8/1 72/13/1 78/4/1 17/8/1
f 34/16/56 23/16/56 99/16/56 106/16/56
f 17/8/12 78/4/12 79/4/12 19/8/12
f 2/8/1 75/4/1 72/13/1 13/8/1
f 3/7/1 76/11/1 73/11/1 9/7/1
f 85/17/43 58/12/43 108/12/43 107/17/43
f 74/4/57 77/10/57 95/10/57 88/4/57
f 25/9/4 7/8/4 74/4/4 82/6/4
f 24/9/1 83/1/1 75/4/1 2/8/1
f 104/6/4 88/4/4 89/3/4 100/18/4
f 86/11/4 91/7/4 94/7/4 92/17/4
f 99/16/4 87/12/4 105/12/4 106/16/4
f 86/11/4 102/5/4 90/14/4 91/7/4
f 100/18/4 89/3/4 103/3/4 101/18/4
f 102/5/4 104/6/4 100/18/4 90/14/4
f 92/17/4 94/7/4 109/7/4 107/17/4
f 101/18/4 103/3/4 113/3/4 112/18/4
f 90/14/4 100/18/4 101/18/4 110/14/4
f 91/7/4 90/14/4 110/14/4 111/7/4
f 112/18/58 113/3/58 116/18/58
f 115/7/59 114/14/59 116/7/59
f 110/14/4 101/18/4 112/18/4 114/14/4
f 111/7/4 110/14/4 114/14/4 115/7/4
f 114/14/60 112/18/60 116/14/60
f 93/12/4 92/17/4 107/17/4 108/12/4
f 87/12/4 99/16/4 102/5/4 86/11/4
f 96/3/4 95/10/4 97/4/4 98/3/4
f 87/12/4 86/11/4 92/17/4 93/12/4
f 89/3/4 88/4/4 95/10/4 96/3/4
f 58/12/61 12/12/61 93/12/61 108/12/61
f 20/3/62 16/3/62 96/3/62 98/3/62
f 6/12/63 31/12/63 105/12/63 87/12/63
