# Blender 3.6.5
# www.blender.org
mtllib Field_7.mtl
o Block7
v -2.624959 -0.015438 2.300810
v -0.863781 -0.015438 1.863645
v -2.556146 -0.015438 1.393723
v -1.511433 -0.015438 1.171092
v -1.881996 -0.015438 2.272475
v -2.187607 -0.015438 1.420033
v -1.304076 -0.015438 2.102466
v -1.740229 -0.015438 1.303658
v -2.149340 -0.015438 1.907984
v -0.847590 -0.015438 1.229973
v -1.800028 -0.015438 1.807800
v -1.380478 -0.015438 1.664608
v -2.149340 0.144040 1.907984
v -2.624959 0.144040 2.300810
v -1.304076 0.144040 2.102466
v -0.863781 0.144040 1.863645
v -0.847590 0.144040 1.229973
v -1.511433 0.144040 1.171092
v -2.187607 0.144040 1.420033
v -2.556146 0.144040 1.393723
v -1.881996 0.144040 2.272475
v -1.740229 0.144040 1.303658
v -1.800028 0.144040 1.807800
v -1.380478 0.144040 1.664608
vn -0.0000 -1.0000 -0.0000
vn -0.0000 1.0000 -0.0000
vn 0.0712 -0.0000 -0.9975
vn -0.7843 -0.0000 0.6204
vn -0.6368 -0.0000 -0.7710
vn 0.2822 -0.0000 0.9594
vn 0.0381 -0.0000 0.9993
vn 0.9997 -0.0000 0.0255
vn 0.4768 -0.0000 0.8790
vn -0.5013 -0.0000 -0.8653
vn -0.2517 -0.0000 -0.9678
vn 0.0883 -0.0000 -0.9961
vt 0.750000 0.500000
vt 0.750000 1.000000
vt 1.000000 1.000000
vt 1.000000 0.500000
vt 0.000000 0.500000
vt 0.000000 1.000000
vt 0.500000 1.000000
vt 0.500000 0.500000
vt 0.500000 0.000000
vt 0.750000 0.000000
vt 0.000000 0.000000
vt 1.000000 0.000000
s 0
f 12/1/1 8/2/1 4/3/1 10/4/1
f 9/5/1 3/6/1 6/7/1 11/8/1
f 11/8/1 6/7/1 8/2/1 12/1/1
f 5/9/1 11/8/1 12/1/1 7/10/1
f 1/11/1 9/5/1 11/8/1 5/9/1
f 7/10/1 12/1/1 10/4/1 2/12/1
f 24/1/2 17/4/2 18/3/2 22/2/2
f 13/5/2 23/8/2 19/7/2 20/6/2
f 23/8/2 24/1/2 22/2/2 19/7/2
f 21/9/2 15/10/2 24/1/2 23/8/2
f 14/11/2 21/9/2 23/8/2 13/5/2
f 15/10/2 16/12/2 17/4/2 24/1/2
f 6/7/3 3/6/3 20/6/3 19/7/3
f 3/6/4 9/5/4 13/5/4 20/6/4
f 9/5/5 1/11/5 14/11/5 13/5/5
f 5/9/6 7/10/6 15/10/6 21/9/6
f 1/11/7 5/9/7 21/9/7 14/11/7
f 2/12/8 10/4/8 17/4/8 16/12/8
f 7/10/9 2/12/9 16/12/9 15/10/9
f 4/3/10 8/2/10 22/2/10 18/3/10
f 8/2/11 6/7/11 19/7/11 22/2/11
f 10/4/12 4/3/12 18/3/12 17/4/12
