# Blender 3.6.5
# www.blender.org
mtllib Field_9.mtl
o Block9
v -0.049537 -0.015438 -0.329849
v 0.609750 -0.015438 0.287327
v 1.027966 -0.015438 -1.540980
v 1.641234 -0.015438 -0.891474
v 0.489214 -0.015438 -0.935414
v 1.125492 -0.015438 -0.302074
v 0.583699 -0.015438 -0.348974
v 1.662016 -0.015438 -1.487435
v 0.805015 -0.015438 -0.621071
v 0.489214 0.144040 -0.935414
v -0.049537 0.144040 -0.329849
v 0.583699 0.144040 -0.348974
v 0.609750 0.144040 0.287327
v 1.125492 0.144040 -0.302074
v 1.641234 0.144040 -0.891474
v 1.662016 0.144040 -1.487435
v 1.027966 0.144040 -1.540980
v 0.805015 0.144040 -0.621071
vn -0.0000 -1.0000 -0.0000
vn -0.0000 1.0000 -0.0000
vn -0.7471 -0.0000 -0.6647
vn 0.0302 -0.0000 0.9995
vn 0.7526 -0.0000 0.6585
vn 0.0841 -0.0000 -0.9965
vn -0.9992 -0.0000 0.0409
vn 0.9994 -0.0000 0.0349
vt 0.496326 0.500000
vt 0.496326 1.000000
vt 1.000000 1.000000
vt 1.000000 0.500000
vt 0.496326 0.000000
vt 1.000000 0.000000
vt 0.000000 0.000000
vt 0.000000 0.500000
vt 0.000000 1.000000
s 0
f 9/1/1 8/2/1 4/3/1 6/4/1
f 7/5/1 9/1/1 6/4/1 2/6/1
f 1/7/1 5/8/1 9/1/1 7/5/1
f 5/8/1 3/9/1 8/2/1 9/1/1
f 18/1/2 14/4/2 15/3/2 16/2/2
f 12/5/2 13/6/2 14/4/2 18/1/2
f 11/7/2 12/5/2 18/1/2 10/8/2
f 10/8/2 18/1/2 16/2/2 17/9/2
f 5/8/3 1/7/3 11/7/3 10/8/3
f 1/7/4 7/5/4 12/5/4 11/7/4
f 2/6/5 6/4/5 14/4/5 13/6/5
f 8/2/6 3/9/6 17/9/6 16/2/6
f 7/5/7 2/6/7 13/6/7 12/5/7
f 4/3/8 8/2/8 16/2/8 15/3/8
f 3/9/3 5/8/3 10/8/3 17/9/3
f 6/4/5 4/3/5 15/3/5 14/4/5
