# Blender 3.6.5
# www.blender.org
mtllib Field_5.mtl
o Block5
v -4.150505 -0.015438 1.425346
v -3.449857 -0.015438 0.862698
v -4.636244 -0.015438 0.040615
v -3.680583 -0.015438 0.064902
v -4.595766 -0.015438 0.583211
v -3.658320 -0.015438 0.435466
v -4.405518 -0.015438 1.073092
v -3.566232 -0.015438 0.665273
v -3.484450 -0.015438 1.488087
v -4.097696 -0.015438 0.530402
v -4.094660 -0.015438 0.634821
v -3.921110 -0.015438 0.986569
v -4.405518 0.144040 1.073092
v -4.150505 0.144040 1.425346
v -3.484450 0.144040 1.488087
v -3.449857 0.144040 0.862698
v -3.658320 0.144040 0.435466
v -3.680583 0.144040 0.064902
v -4.097696 0.144040 0.530402
v -4.636244 0.144040 0.040615
v -4.595766 0.144040 0.583211
v -3.566232 0.144040 0.665273
v -4.094660 0.144040 0.634821
v -3.921110 0.144040 0.986569
vn -0.0000 -1.0000 -0.0000
vn -0.0000 1.0000 -0.0000
vn 0.8615 -0.0000 -0.5078
vn 0.9282 -0.0000 -0.3720
vn 0.9982 -0.0000 -0.0600
vn 0.6728 -0.0000 -0.7398
vn -0.0938 -0.0000 0.9956
vn -0.8100 -0.0000 0.5864
vn -0.9322 -0.0000 0.3620
vn -0.9972 -0.0000 0.0744
vn -0.7448 -0.0000 -0.6673
vn 0.9985 -0.0000 0.0552
vt 0.500000 0.500000
vt 0.500000 1.000000
vt 1.000000 1.000000
vt 1.000000 0.500000
vt 0.500000 0.250000
vt 1.000000 0.250000
vt 0.500000 0.000000
vt 1.000000 0.000000
vt 0.000000 0.000000
vt 0.000000 0.250000
vt 0.000000 0.500000
vt 0.000000 1.000000
s 0
f 11/1/1 10/2/1 4/3/1 6/4/1
f 12/5/1 11/1/1 6/4/1 8/6/1
f 9/7/1 12/5/1 8/6/1 2/8/1
f 1/9/1 7/10/1 12/5/1 9/7/1
f 7/10/1 5/11/1 11/1/1 12/5/1
f 5/11/1 3/12/1 10/2/1 11/1/1
f 23/1/2 17/4/2 18/3/2 19/2/2
f 24/5/2 22/6/2 17/4/2 23/1/2
f 15/7/2 16/8/2 22/6/2 24/5/2
f 14/9/2 15/7/2 24/5/2 13/10/2
f 13/10/2 24/5/2 23/1/2 21/11/2
f 21/11/2 23/1/2 19/2/2 20/12/2
f 2/8/3 8/6/3 22/6/3 16/8/3
f 8/6/4 6/4/4 17/4/4 22/6/4
f 6/4/5 4/3/5 18/3/5 17/4/5
f 10/2/6 3/12/6 20/12/6 19/2/6
f 1/9/7 9/7/7 15/7/7 14/9/7
f 7/10/8 1/9/8 14/9/8 13/10/8
f 5/11/9 7/10/9 13/10/9 21/11/9
f 3/12/10 5/11/10 21/11/10 20/12/10
f 4/3/11 10/2/11 19/2/11 18/3/11
f 9/7/12 2/8/12 16/8/12 15/7/12
