# Blender 3.6.5
# www.blender.org
mtllib Field_11.mtl
o Block11
v 2.700361 -0.015438 -1.237314
v 3.481156 -0.015438 -0.941013
v 2.952945 -0.015438 -2.105542
v 4.190335 -0.015438 -1.546942
v 3.239718 -0.015438 -1.102117
v 3.940802 -0.015438 -1.767953
v 3.464684 -0.015438 -1.998275
v 3.024281 -0.015438 -1.185907
v 3.255723 -0.015438 -1.554041
v 4.156333 -0.015438 -0.908818
v 3.666359 -0.015438 -1.428558
v 3.357214 -0.015438 -1.516779
v 3.255723 0.144040 -1.554041
v 2.700361 0.144040 -1.237314
v 3.239718 0.144040 -1.102117
v 3.481156 0.144040 -0.941013
v 4.156333 0.144040 -0.908818
v 4.190335 0.144040 -1.546942
v 3.464684 0.144040 -1.998275
v 2.952945 0.144040 -2.105542
v 3.024281 0.144040 -1.185907
v 3.940802 0.144040 -1.767953
v 3.666359 0.144040 -1.428558
v 3.357214 0.144040 -1.516779
vn -0.0000 -1.0000 -0.0000
vn -0.0000 1.0000 -0.0000
vn 0.2052 -0.0000 -0.9787
vn -0.8766 -0.0000 0.4812
vn -0.4954 -0.0000 -0.8687
vn 0.4355 -0.0000 -0.9002
vn -0.3625 -0.0000 0.9320
vn -0.0476 -0.0000 0.9989
vn -0.5550 -0.0000 0.8318
vn -0.1567 -0.0000 0.9876
vn 0.6630 -0.0000 -0.7486
vn 0.9986 -0.0000 0.0532
vt 0.500000 0.500000
vt 0.500000 1.000000
vt 1.000000 1.000000
vt 1.000000 0.500000
vt 0.250000 0.500000
vt 0.250000 1.000000
vt 0.000000 0.500000
vt 0.000000 1.000000
vt 0.000000 0.000000
vt 0.250000 0.000000
vt 0.500000 0.000000
vt 1.000000 0.000000
s 0
f 11/1/1 6/2/1 4/3/1 10/4/1
f 12/5/1 7/6/1 6/2/1 11/1/1
f 9/7/1 3/8/1 7/6/1 12/5/1
f 1/9/1 9/7/1 12/5/1 8/10/1
f 8/10/1 12/5/1 11/1/1 5/11/1
f 5/11/1 11/1/1 10/4/1 2/12/1
f 23/1/2 17/4/2 18/3/2 22/2/2
f 24/5/2 23/1/2 22/2/2 19/6/2
f 13/7/2 24/5/2 19/6/2 20/8/2
f 14/9/2 21/10/2 24/5/2 13/7/2
f 21/10/2 15/11/2 23/1/2 24/5/2
f 15/11/2 16/12/2 17/4/2 23/1/2
f 7/6/3 3/8/3 20/8/3 19/6/3
f 3/8/4 9/7/4 13/7/4 20/8/4
f 9/7/5 1/9/5 14/9/5 13/7/5
f 6/2/6 7/6/6 19/6/6 22/2/6
f 8/10/7 5/11/7 15/11/7 21/10/7
f 2/12/8 10/4/8 17/4/8 16/12/8
f 5/11/9 2/12/9 16/12/9 15/11/9
f 1/9/10 8/10/10 21/10/10 14/9/10
f 4/3/11 6/2/11 22/2/11 18/3/11
f 10/4/12 4/3/12 18/3/12 17/4/12
