# Blender 3.6.5
# www.blender.org
mtllib Field_14.mtl
o Block14
v 2.222717 -0.015438 2.275228
v 3.971752 -0.015438 1.858302
v 2.417013 -0.015438 1.396475
v 3.405056 -0.015438 1.145510
v 2.712691 -0.015438 2.291419
v 2.728882 -0.015438 1.408619
v 3.384724 -0.015438 2.178080
v 3.137806 -0.015438 1.301351
v 1.890795 -0.015438 1.712393
v 3.372674 -0.015438 1.809541
v 2.562922 -0.015438 1.977525
v 3.093280 -0.015438 1.936035
v 1.890795 0.144040 1.712393
v 2.222717 0.144040 2.275228
v 3.384724 0.144040 2.178080
v 3.971752 0.144040 1.858302
v 3.372674 0.144040 1.809541
v 3.405056 0.144040 1.145510
v 2.728882 0.144040 1.408619
v 2.417013 0.144040 1.396475
v 2.712691 0.144040 2.291419
v 3.137806 0.144040 1.301351
v 2.562922 0.144040 1.977525
v 3.093280 0.144040 1.936035
vn -0.0000 -1.0000 -0.0000
vn -0.0000 1.0000 -0.0000
vn -0.2537 -0.0000 -0.9673
vn 0.9988 -0.0000 0.0487
vn 0.0389 -0.0000 -0.9992
vn -0.5147 -0.0000 -0.8574
vn -0.8614 -0.0000 0.5080
vn 0.1663 -0.0000 0.9861
vn -0.0330 -0.0000 0.9995
vn 0.0811 -0.0000 -0.9967
vn 0.4784 -0.0000 0.8782
vn -0.5037 -0.0000 -0.8639
vt 0.750000 0.500000
vt 0.750000 1.000000
vt 1.000000 1.000000
vt 1.000000 0.500000
vt 0.000000 0.500000
vt 0.000000 1.000000
vt 0.500000 1.000000
vt 0.500000 0.500000
vt 0.500000 0.000000
vt 0.750000 0.000000
vt 0.000000 0.000000
vt 1.000000 0.000000
s 0
f 12/1/1 8/2/1 4/3/1 10/4/1
f 9/5/1 3/6/1 6/7/1 11/8/1
f 11/8/1 6/7/1 8/2/1 12/1/1
f 5/9/1 11/8/1 12/1/1 7/10/1
f 1/11/1 9/5/1 11/8/1 5/9/1
f 7/10/1 12/1/1 10/4/1 2/12/1
f 24/1/2 17/4/2 18/3/2 22/2/2
f 13/5/2 23/8/2 19/7/2 20/6/2
f 23/8/2 24/1/2 22/2/2 19/7/2
f 21/9/2 15/10/2 24/1/2 23/8/2
f 14/11/2 21/9/2 23/8/2 13/5/2
f 15/10/2 16/12/2 17/4/2 24/1/2
f 8/2/3 6/7/3 19/7/3 22/2/3
f 10/4/4 4/3/4 18/3/4 17/4/4
f 6/7/5 3/6/5 20/6/5 19/7/5
f 3/6/6 9/5/6 13/5/6 20/6/6
f 9/5/7 1/11/7 14/11/7 13/5/7
f 5/9/8 7/10/8 15/10/8 21/9/8
f 1/11/9 5/9/9 21/9/9 14/11/9
f 2/12/10 10/4/10 17/4/10 16/12/10
f 7/10/11 2/12/11 16/12/11 15/10/11
f 4/3/12 8/2/12 22/2/12 18/3/12
