# Blender 3.6.5
# www.blender.org
mtllib Field_3.mtl
o Block3
v -3.071677 -0.015438 -1.015493
v -2.220451 -0.015438 -1.232457
v -3.702167 -0.015438 -1.641661
v -2.173820 -0.015438 -2.107485
v -2.741188 -0.015438 -1.144214
v -3.377182 -0.015438 -1.844214
v -2.436293 -0.015438 -1.226790
v -2.824075 -0.015438 -2.036567
v -3.735035 -0.015438 -1.059397
v -2.622157 -0.015438 -1.649732
v -3.459919 -0.015438 -1.326230
v -2.947938 -0.015438 -1.560842
v -3.735035 0.144040 -1.059397
v -3.071677 0.144040 -1.015493
v -2.436293 0.144040 -1.226790
v -2.220451 0.144040 -1.232457
v -2.622157 0.144040 -1.649732
v -2.173820 0.144040 -2.107485
v -3.377182 0.144040 -1.844214
v -3.702167 0.144040 -1.641661
v -2.741188 0.144040 -1.144214
v -2.824075 0.144040 -2.036567
v -3.459919 0.144040 -1.326230
v -2.947938 0.144040 -1.560842
vn -0.0000 -1.0000 -0.0000
vn -0.0000 1.0000 -0.0000
vn -0.5289 -0.0000 -0.8487
vn -0.9984 -0.0000 -0.0564
vn -0.0660 -0.0000 0.9978
vn 0.2614 -0.0000 0.9652
vn 0.3629 -0.0000 0.9318
vn 0.7204 -0.0000 -0.6935
vn 0.0262 -0.0000 0.9997
vn -0.1084 -0.0000 -0.9941
vn -0.3285 -0.0000 -0.9445
vn 0.7144 -0.0000 0.6997
vt 0.750000 0.500000
vt 0.750000 1.000000
vt 1.000000 1.000000
vt 1.000000 0.500000
vt 0.000000 0.500000
vt 0.000000 1.000000
vt 0.500000 1.000000
vt 0.500000 0.500000
vt 0.500000 0.000000
vt 0.750000 0.000000
vt 0.000000 0.000000
vt 1.000000 0.000000
s 0
f 12/1/1 8/2/1 4/3/1 10/4/1
f 9/5/1 3/6/1 6/7/1 11/8/1
f 11/8/1 6/7/1 8/2/1 12/1/1
f 5/9/1 11/8/1 12/1/1 7/10/1
f 1/11/1 9/5/1 11/8/1 5/9/1
f 7/10/1 12/1/1 10/4/1 2/12/1
f 24/1/2 17/4/2 18/3/2 22/2/2
f 13/5/2 23/8/2 19/7/2 20/6/2
f 23/8/2 24/1/2 22/2/2 19/7/2
f 21/9/2 15/10/2 24/1/2 23/8/2
f 14/11/2 21/9/2 23/8/2 13/5/2
f 15/10/2 16/12/2 17/4/2 24/1/2
f 6/7/3 3/6/3 20/6/3 19/7/3
f 3/6/4 9/5/4 13/5/4 20/6/4
f 9/5/5 1/11/5 14/11/5 13/5/5
f 5/9/6 7/10/6 15/10/6 21/9/6
f 1/11/7 5/9/7 21/9/7 14/11/7
f 2/12/8 10/4/8 17/4/8 16/12/8
f 7/10/9 2/12/9 16/12/9 15/10/9
f 4/3/10 8/2/10 22/2/10 18/3/10
f 8/2/11 6/7/11 19/7/11 22/2/11
f 10/4/12 4/3/12 18/3/12 17/4/12
