# Blender 3.6.5
# www.blender.org
mtllib Field_16.mtl
o Block16
v 0.864887 -0.015438 1.573345
v 1.008743 -0.015438 1.742598
v 1.610011 -0.015438 1.049803
v 1.760667 -0.015438 1.188158
v 0.940609 -0.015438 1.023167
v 1.081119 -0.015438 1.158980
v 0.921636 -0.015438 1.644479
v 1.683653 -0.015438 1.113921
v 0.968699 -0.015438 1.046379
v 0.940609 0.138445 1.023167
v 0.864887 0.138445 1.573345
v 0.921636 0.138445 1.644479
v 1.008743 0.138445 1.742598
v 1.081119 0.138445 1.158980
v 1.760667 0.138445 1.188158
v 1.683653 0.138445 1.113921
v 1.610011 0.138445 1.049803
v 0.968699 0.138445 1.046379
vn -0.0000 -1.0000 -0.0000
vn -0.0000 1.0000 -0.0000
vn -0.9907 -0.0000 -0.1363
vn -0.7817 -0.0000 0.6236
vn 0.9924 -0.0000 0.1231
vn 0.6567 -0.0000 -0.7542
vn -0.7478 -0.0000 0.6639
vn 0.6940 -0.0000 -0.7200
vn 0.0398 -0.0000 -0.9992
vn -0.0429 -0.0000 0.9991
vt 0.500000 0.500000
vt 0.500000 1.000000
vt 1.000000 1.000000
vt 1.000000 0.500000
vt 0.500000 0.000000
vt 1.000000 0.000000
vt 0.000000 0.000000
vt 0.000000 0.500000
vt 0.000000 1.000000
s 0
f 9/1/1 8/2/1 4/3/1 6/4/1
f 7/5/1 9/1/1 6/4/1 2/6/1
f 1/7/1 5/8/1 9/1/1 7/5/1
f 5/8/1 3/9/1 8/2/1 9/1/1
f 18/1/2 14/4/2 15/3/2 16/2/2
f 12/5/2 13/6/2 14/4/2 18/1/2
f 11/7/2 12/5/2 18/1/2 10/8/2
f 10/8/2 18/1/2 16/2/2 17/9/2
f 5/8/3 1/7/3 11/7/3 10/8/3
f 1/7/4 7/5/4 12/5/4 11/7/4
f 2/6/5 6/4/5 14/4/5 13/6/5
f 8/2/6 3/9/6 17/9/6 16/2/6
f 7/5/7 2/6/7 13/6/7 12/5/7
f 4/3/8 8/2/8 16/2/8 15/3/8
f 3/9/9 5/8/9 10/8/9 17/9/9
f 6/4/10 4/3/10 15/3/10 14/4/10
