# Blender 3.6.5
# www.blender.org
mtllib Field_13.mtl
o Block13
v 3.552347 -0.015438 1.066871
v 4.180135 -0.015438 1.742858
v 3.944986 -0.015438 0.309553
v 4.884456 -0.015438 0.528136
v 3.501937 -0.015438 1.692260
v 4.273047 -0.015438 0.868153
v 3.886293 -0.015438 0.635590
v 4.738735 -0.015438 1.038349
v 4.168816 -0.015438 1.061624
v 3.719320 -0.015438 0.909924
v 4.404789 -0.015438 1.499895
v 4.023600 -0.015438 1.291938
v 3.719320 0.144040 0.909924
v 3.552347 0.144040 1.066871
v 3.501937 0.144040 1.692260
v 4.180135 0.144040 1.742858
v 4.738735 0.144040 1.038349
v 4.884456 0.144040 0.528136
v 4.273047 0.144040 0.868153
v 3.944986 0.144040 0.309553
v 4.168816 0.144040 1.061624
v 3.886293 0.144040 0.635590
v 4.404789 0.144040 1.499895
v 4.023600 0.144040 1.291938
vn -0.0000 -1.0000 -0.0000
vn -0.0000 1.0000 -0.0000
vn -0.9842 -0.0000 -0.1772
vn -0.9968 -0.0000 -0.0803
vn -0.0744 -0.0000 0.9972
vn 0.8102 -0.0000 0.5862
vn -0.4860 -0.0000 -0.8739
vn -0.8542 -0.0000 -0.5199
vn 0.9616 -0.0000 0.2746
vn 0.7342 -0.0000 0.6789
vn 0.8623 -0.0000 -0.5064
vn -0.6849 -0.0000 -0.7286
vt 0.500000 0.500000
vt 0.500000 1.000000
vt 1.000000 1.000000
vt 1.000000 0.500000
vt 0.000000 0.500000
vt 0.000000 1.000000
vt 0.000000 0.250000
vt 0.500000 0.250000
vt 1.000000 0.250000
vt 0.500000 0.000000
vt 1.000000 0.000000
vt 0.000000 0.000000
s 0
f 9/1/1 6/2/1 4/3/1 8/4/1
f 7/5/1 3/6/1 6/2/1 9/1/1
f 10/7/1 7/5/1 9/1/1 12/8/1
f 12/8/1 9/1/1 8/4/1 11/9/1
f 5/10/1 12/8/1 11/9/1 2/11/1
f 1/12/1 10/7/1 12/8/1 5/10/1
f 21/1/2 17/4/2 18/3/2 19/2/2
f 22/5/2 21/1/2 19/2/2 20/6/2
f 13/7/2 24/8/2 21/1/2 22/5/2
f 24/8/2 23/9/2 17/4/2 21/1/2
f 15/10/2 16/11/2 23/9/2 24/8/2
f 14/12/2 15/10/2 24/8/2 13/7/2
f 3/6/3 7/5/3 22/5/3 20/6/3
f 1/12/4 5/10/4 15/10/4 14/12/4
f 5/10/5 2/11/5 16/11/5 15/10/5
f 11/9/6 8/4/6 17/4/6 23/9/6
f 4/3/7 6/2/7 19/2/7 18/3/7
f 7/5/8 10/7/8 13/7/8 22/5/8
f 8/4/9 4/3/9 18/3/9 17/4/9
f 2/11/10 11/9/10 23/9/10 16/11/10
f 6/2/11 3/6/11 20/6/11 19/2/11
f 10/7/12 1/12/12 14/12/12 13/7/12
