# Blender 3.6.5
# www.blender.org
mtllib Field_1.mtl
o Block1
v -0.526668 -0.008283 0.065702
v -0.526668 0.154814 0.065702
v -1.149903 -0.008283 -0.618238
v -1.149903 0.154814 -0.618238
v 0.129705 -0.008283 -0.639366
v 0.129705 0.154814 -0.639366
v -0.433222 -0.008283 -1.287646
v -0.433222 0.154814 -1.287646
v -0.763772 -0.008283 -0.952264
v -0.763772 0.154814 -0.952264
v -0.204582 -0.008283 -0.288866
v -0.204582 0.154814 -0.288866
v -1.090092 0.154814 -1.324379
v -1.090092 -0.008283 -1.324379
vn -0.7391 -0.0000 0.6735
vn -0.0000 1.0000 -0.0000
vn 0.7551 -0.0000 -0.6557
vn 0.7402 -0.0000 0.6724
vn -0.0000 -1.0000 -0.0000
vn 0.7236 -0.0000 0.6902
vn -0.9964 -0.0000 -0.0844
vn 0.0558 -0.0000 -0.9984
vt 0.375000 0.000000
vt 0.625000 0.000000
vt 0.625000 0.250000
vt 0.375000 0.250000
vt 0.750000 0.500000
vt 0.625000 0.500000
vt 0.375000 0.500000
vt 0.625000 0.750000
vt 0.375000 0.750000
vt 0.375000 0.875000
vt 0.625000 0.875000
vt 0.625000 1.000000
vt 0.375000 1.000000
vt 0.250000 0.500000
vt 0.250000 0.750000
vt 0.875000 0.500000
vt 0.875000 0.750000
vt 0.750000 0.750000
vt 0.125000 0.500000
vt 0.125000 0.750000
s 0
f 1/1/1 2/2/1 4/3/1 3/4/1
f 10/5/2 8/6/2 13/5/2
f 7/7/3 8/6/3 6/8/3 5/9/3
f 11/10/4 12/11/4 2/12/4 1/13/4
f 9/14/5 7/7/5 5/9/5 11/15/5
f 10/5/2 4/16/2 2/17/2 12/18/2
f 8/6/2 10/5/2 12/18/2 6/8/2
f 3/19/5 9/14/5 11/15/5 1/20/5
f 5/9/6 6/8/6 12/11/6 11/10/6
f 4/16/2 10/5/2 13/16/2
f 3/4/7 4/3/7 13/3/7 14/4/7
f 7/7/5 9/14/5 14/7/5
f 8/6/8 7/7/8 14/7/8 13/6/8
f 9/14/5 3/19/5 14/14/5
