# Blender 3.6.5
# www.blender.org
mtllib Field_2.mtl
o Block2
v -2.094910 -0.015438 -1.220745
v -1.268779 -0.015438 -0.829455
v -2.513185 -0.015438 -1.618481
v -1.211434 -0.015438 -1.459941
v -1.543544 -0.015438 -1.020040
v -1.862310 -0.015438 -1.539211
v -2.067924 -0.015438 -2.110966
v -0.587395 -0.015438 -1.436329
v -1.194419 -0.015438 -1.856290
v -2.187747 -0.015438 -1.578846
v -1.858018 -0.015438 -1.170990
v -1.644664 -0.015438 -2.027480
v -2.513185 0.146475 -1.618481
v -2.094910 0.146475 -1.220745
v -1.543544 0.146475 -1.020040
v -1.268779 0.146475 -0.829455
v -1.211434 0.146475 -1.459941
v -2.187747 0.146475 -1.578846
v -1.858018 0.146475 -1.170990
v -1.862310 0.146475 -1.539211
v -1.644664 0.146475 -2.027480
v -2.067924 0.146475 -2.110966
v -0.587395 0.146475 -1.436329
v -1.194419 0.146475 -1.856290
vn -0.0000 -1.0000 -0.0000
vn -0.0000 1.0000 -0.0000
vn -0.2055 -0.0000 0.9786
vn -0.0378 -0.0000 0.9993
vn -0.6891 -0.0000 0.7247
vn 0.1935 -0.0000 -0.9811
vn 0.3554 -0.0000 -0.9347
vn -0.4327 -0.0000 0.9015
vn -0.7418 -0.0000 -0.6706
vn -0.5699 -0.0000 0.8217
vn 0.5689 -0.0000 -0.8224
vn 0.9959 -0.0000 0.0906
vt 0.500000 0.000000
vt 0.500000 1.000000
vt 1.000000 1.000000
vt 1.000000 0.000000
vt 0.250000 0.000000
vt 0.250000 1.000000
vt 0.000000 1.000000
vt 0.000000 0.000000
s 0
f 5/1/1 6/2/1 4/3/1 2/4/1
f 11/5/1 10/6/1 6/2/1 5/1/1
f 6/2/1 9/2/1 8/3/1 4/3/1
f 10/6/1 12/6/1 9/2/1 6/2/1
f 3/7/1 7/7/1 12/6/1 10/6/1
f 1/8/1 3/7/1 10/6/1 11/5/1
f 15/1/2 16/4/2 17/3/2 20/2/2
f 19/5/2 15/1/2 20/2/2 18/6/2
f 20/2/2 17/3/2 23/3/2 24/2/2
f 18/6/2 20/2/2 24/2/2 21/6/2
f 13/7/2 18/6/2 21/6/2 22/7/2
f 14/8/2 19/5/2 18/6/2 13/7/2
f 1/8/3 11/5/3 19/5/3 14/8/3
f 4/3/4 8/3/4 23/3/4 17/3/4
f 3/7/5 1/8/5 14/8/5 13/7/5
f 12/6/6 7/7/6 22/7/6 21/6/6
f 9/2/7 12/6/7 21/6/7 24/2/7
f 11/5/8 5/1/8 15/1/8 19/5/8
f 7/7/9 3/7/9 13/7/9 22/7/9
f 5/1/10 2/4/10 16/4/10 15/1/10
f 8/3/11 9/2/11 24/2/11 23/3/11
f 2/4/12 4/3/12 17/3/12 16/4/12
