# Blender 3.6.5
# www.blender.org
mtllib Field_10.mtl
o Block10
v 1.764827 -0.015438 -0.994444
v 2.574766 -0.015438 -1.227599
v 1.177083 -0.015438 -1.678092
v 2.866210 -0.015438 -2.105542
v 2.283945 -0.015438 -1.227599
v 2.322804 -0.015438 -2.100685
v 1.806115 -0.015438 -1.608282
v 3.169797 -0.015438 -1.583995
v 2.507385 -0.015438 -1.637426
v 1.701370 -0.015438 -1.954963
v 2.009814 -0.015438 -1.135309
v 2.032887 -0.015438 -1.620425
v 1.806115 0.144040 -1.608282
v 1.764827 0.144040 -0.994444
v 2.283945 0.144040 -1.227599
v 2.574766 0.144040 -1.227599
v 3.169797 0.144040 -1.583995
v 2.866210 0.144040 -2.105542
v 1.701370 0.144040 -1.954963
v 1.177083 0.144040 -1.678092
v 2.009814 0.144040 -1.135309
v 2.322804 0.144040 -2.100685
v 2.507385 0.144040 -1.637426
v 2.032887 0.144040 -1.620425
vn -0.0000 -1.0000 -0.0000
vn -0.0000 1.0000 -0.0000
vn -0.9977 -0.0000 -0.0671
vn -0.1103 -0.0000 0.9939
vn 0.3191 -0.0000 0.9477
vn -0.0000 -0.0000 1.0000
vn 0.5138 -0.0000 0.8579
vn -0.0089 -0.0000 -1.0000
vn -0.2283 -0.0000 -0.9736
vn 0.8642 -0.0000 -0.5031
vn 0.4985 -0.0000 0.8669
vn -0.4670 -0.0000 -0.8843
vt 0.500000 0.500000
vt 0.500000 1.000000
vt 1.000000 1.000000
vt 1.000000 0.500000
vt 0.250000 0.500000
vt 0.250000 1.000000
vt 0.250000 0.000000
vt 0.500000 0.000000
vt 1.000000 0.000000
vt 0.000000 0.000000
vt 0.000000 0.500000
vt 0.000000 1.000000
s 0
f 9/1/1 6/2/1 4/3/1 8/4/1
f 12/5/1 10/6/1 6/2/1 9/1/1
f 11/7/1 12/5/1 9/1/1 5/8/1
f 5/8/1 9/1/1 8/4/1 2/9/1
f 1/10/1 7/11/1 12/5/1 11/7/1
f 7/11/1 3/12/1 10/6/1 12/5/1
f 23/1/2 17/4/2 18/3/2 22/2/2
f 24/5/2 23/1/2 22/2/2 19/6/2
f 21/7/2 15/8/2 23/1/2 24/5/2
f 15/8/2 16/9/2 17/4/2 23/1/2
f 14/10/2 21/7/2 24/5/2 13/11/2
f 13/11/2 24/5/2 19/6/2 20/12/2
f 7/11/3 1/10/3 14/10/3 13/11/3
f 3/12/4 7/11/4 13/11/4 20/12/4
f 11/7/5 5/8/5 15/8/5 21/7/5
f 5/8/6 2/9/6 16/9/6 15/8/6
f 2/9/7 8/4/7 17/4/7 16/9/7
f 4/3/8 6/2/8 22/2/8 18/3/8
f 6/2/9 10/6/9 19/6/9 22/2/9
f 8/4/10 4/3/10 18/3/10 17/4/10
f 1/10/11 11/7/11 21/7/11 14/10/11
f 10/6/12 3/12/12 20/12/12 19/6/12
