# Blender 3.6.5
# www.blender.org
mtllib Field_15.mtl
o Block15
v 1.077895 -0.015438 1.780422
v 2.149259 -0.015438 2.277494
v 1.754464 -0.015438 1.228086
v 2.315220 -0.015438 1.378503
v 1.576304 -0.015438 2.111534
v 1.968943 -0.015438 1.295522
v 1.867063 -0.015438 1.242666
v 1.316559 -0.015438 1.964565
v 1.140571 -0.015438 1.230977
v 1.803170 -0.015438 1.682277
v 1.736194 -0.015438 1.569950
v 1.614074 -0.015438 1.538850
v 1.140571 0.144040 1.230977
v 1.077895 0.144040 1.780422
v 1.576304 0.144040 2.111534
v 2.149259 0.144040 2.277494
v 1.803170 0.144040 1.682277
v 2.315220 0.144040 1.378503
v 1.867063 0.144040 1.242666
v 1.754464 0.144040 1.228086
v 1.316559 0.144040 1.964565
v 1.968943 0.144040 1.295522
v 1.736194 0.144040 1.569950
v 1.614074 0.144040 1.538850
vn -0.0000 -1.0000 -0.0000
vn -0.0000 1.0000 -0.0000
vn 0.5102 -0.0000 0.8600
vn 0.1284 -0.0000 -0.9917
vn -0.0047 -0.0000 -1.0000
vn -0.9936 -0.0000 -0.1133
vn 0.4605 -0.0000 -0.8876
vn -0.4925 -0.0000 0.8703
vn 0.8645 -0.0000 -0.5027
vn -0.2782 -0.0000 0.9605
vn -0.6109 -0.0000 0.7917
vn 0.2330 -0.0000 -0.9725
vt 0.500000 0.500000
vt 0.500000 1.000000
vt 1.000000 1.000000
vt 1.000000 0.500000
vt 0.250000 0.500000
vt 0.250000 1.000000
vt 0.000000 0.500000
vt 0.000000 1.000000
vt 0.000000 0.000000
vt 0.250000 0.000000
vt 0.500000 0.000000
vt 1.000000 0.000000
s 0
f 11/1/1 6/2/1 4/3/1 10/4/1
f 12/5/1 7/6/1 6/2/1 11/1/1
f 9/7/1 3/8/1 7/6/1 12/5/1
f 1/9/1 9/7/1 12/5/1 8/10/1
f 8/10/1 12/5/1 11/1/1 5/11/1
f 5/11/1 11/1/1 10/4/1 2/12/1
f 23/1/2 17/4/2 18/3/2 22/2/2
f 24/5/2 23/1/2 22/2/2 19/6/2
f 13/7/2 24/5/2 19/6/2 20/8/2
f 14/9/2 21/10/2 24/5/2 13/7/2
f 21/10/2 15/11/2 23/1/2 24/5/2
f 15/11/2 16/12/2 17/4/2 23/1/2
f 10/4/3 4/3/3 18/3/3 17/4/3
f 7/6/4 3/8/4 20/8/4 19/6/4
f 3/8/5 9/7/5 13/7/5 20/8/5
f 9/7/6 1/9/6 14/9/6 13/7/6
f 6/2/7 7/6/7 19/6/7 22/2/7
f 8/10/8 5/11/8 15/11/8 21/10/8
f 2/12/9 10/4/9 17/4/9 16/12/9
f 5/11/10 2/12/10 16/12/10 15/11/10
f 1/9/11 8/10/11 21/10/11 14/9/11
f 4/3/12 6/2/12 22/2/12 18/3/12
