# Blender 3.6.5
# www.blender.org
mtllib Field_6.mtl
o Block6
v -4.030689 -0.015438 1.591145
v -2.718819 -0.015438 2.267132
v -3.322319 -0.015438 1.007884
v -2.670245 -0.015438 1.360045
v -3.385061 -0.015438 1.623341
v -2.247247 -0.015438 1.892521
v -3.567026 -0.015438 1.951402
v -3.109621 -0.015438 1.151582
v -3.176410 -0.015438 1.753883
v -3.132803 -0.015438 2.159865
v -2.861598 -0.015438 1.284148
v -2.863622 -0.015438 1.906182
v -3.385061 0.144040 1.623341
v -4.030689 0.144040 1.591145
v -3.132803 0.144040 2.159865
v -2.718819 0.144040 2.267132
v -2.247247 0.144040 1.892521
v -2.670245 0.144040 1.360045
v -3.109621 0.144040 1.151582
v -3.322319 0.144040 1.007884
v -3.176410 0.144040 1.753883
v -3.567026 0.144040 1.951402
v -2.861598 0.144040 1.284148
v -2.863622 0.144040 1.906182
vn -0.0000 -1.0000 -0.0000
vn -0.0000 1.0000 -0.0000
vn -0.9948 -0.0000 -0.1014
vn -0.2508 -0.0000 0.9680
vn 0.4714 -0.0000 -0.8819
vn 0.6220 -0.0000 0.7830
vn -0.4328 -0.0000 0.9015
vn 0.7830 -0.0000 -0.6220
vn 0.3687 -0.0000 -0.9296
vn 0.5598 -0.0000 -0.8286
vn 0.0498 -0.0000 -0.9988
vn -0.6135 -0.0000 0.7897
vt 0.750000 0.500000
vt 0.750000 1.000000
vt 1.000000 1.000000
vt 1.000000 0.500000
vt 0.750000 0.000000
vt 1.000000 0.000000
vt 0.000000 0.000000
vt 0.000000 0.500000
vt 0.500000 0.500000
vt 0.500000 0.000000
vt 0.000000 1.000000
vt 0.500000 1.000000
s 0
f 12/1/1 11/2/1 4/3/1 6/4/1
f 10/5/1 12/1/1 6/4/1 2/6/1
f 1/7/1 5/8/1 9/9/1 7/10/1
f 5/8/1 3/11/1 8/12/1 9/9/1
f 7/10/1 9/9/1 12/1/1 10/5/1
f 9/9/1 8/12/1 11/2/1 12/1/1
f 24/1/2 17/4/2 18/3/2 23/2/2
f 15/5/2 16/6/2 17/4/2 24/1/2
f 14/7/2 22/10/2 21/9/2 13/8/2
f 13/8/2 21/9/2 19/12/2 20/11/2
f 22/10/2 15/5/2 24/1/2 21/9/2
f 21/9/2 24/1/2 23/2/2 19/12/2
f 3/11/3 5/8/3 13/8/3 20/11/3
f 10/5/4 2/6/4 16/6/4 15/5/4
f 11/2/5 8/12/5 19/12/5 23/2/5
f 2/6/6 6/4/6 17/4/6 16/6/6
f 7/10/7 10/5/7 15/5/7 22/10/7
f 6/4/8 4/3/8 18/3/8 17/4/8
f 4/3/9 11/2/9 23/2/9 18/3/9
f 8/12/10 3/11/10 20/11/10 19/12/10
f 5/8/11 1/7/11 14/7/11 13/8/11
f 1/7/12 7/10/12 22/10/12 14/7/12
