# Blender 3.6.5
# www.blender.org
mtllib Field_4.mtl
o Block4
v -4.637539 -0.015438 -0.054863
v -3.689973 -0.015438 -0.038672
v -3.888691 -0.015438 -1.512454
v -3.264952 -0.015438 -0.885042
v -4.257043 -0.015438 -1.154035
v -3.542228 -0.015438 -0.538765
v -4.539976 -0.015438 -0.611751
v -3.640217 -0.015438 -0.293312
v -4.115182 -0.015438 0.430876
v -3.931006 -0.015438 -0.929568
v -3.992735 -0.015438 -0.755324
v -4.175101 -0.015438 -0.286571
v -4.539976 0.144040 -0.611751
v -4.637539 0.144040 -0.054863
v -4.115182 0.144040 0.430876
v -3.689973 0.144040 -0.038672
v -3.542228 0.144040 -0.538765
v -3.264952 0.144040 -0.885042
v -3.931006 0.144040 -0.929568
v -3.888691 0.144040 -1.512454
v -4.257043 0.144040 -1.154035
v -3.640217 0.144040 -0.293312
v -3.992735 0.144040 -0.755324
v -4.175101 0.144040 -0.286571
vn -0.0000 -1.0000 -0.0000
vn -0.0000 1.0000 -0.0000
vn 0.7412 -0.0000 0.6712
vn 0.9814 -0.0000 0.1918
vn 0.9287 -0.0000 0.3708
vn 0.7806 -0.0000 0.6250
vn 0.9974 -0.0000 0.0724
vn -0.6810 -0.0000 0.7323
vn -0.9850 -0.0000 -0.1726
vn -0.8866 -0.0000 -0.4626
vn -0.6974 -0.0000 -0.7167
vn 0.0667 -0.0000 -0.9978
vt 0.500000 0.500000
vt 0.500000 1.000000
vt 1.000000 1.000000
vt 1.000000 0.500000
vt 0.500000 0.250546
vt 1.000000 0.250546
vt 0.500000 0.000000
vt 1.000000 0.000000
vt 0.000000 0.000000
vt 0.000000 0.250546
vt 0.000000 0.500000
vt 0.000000 1.000000
s 0
f 11/1/1 10/2/1 4/3/1 6/4/1
f 12/5/1 11/1/1 6/4/1 8/6/1
f 9/7/1 12/5/1 8/6/1 2/8/1
f 1/9/1 7/10/1 12/5/1 9/7/1
f 7/10/1 5/11/1 11/1/1 12/5/1
f 5/11/1 3/12/1 10/2/1 11/1/1
f 23/1/2 17/4/2 18/3/2 19/2/2
f 24/5/2 22/6/2 17/4/2 23/1/2
f 15/7/2 16/8/2 22/6/2 24/5/2
f 14/9/2 15/7/2 24/5/2 13/10/2
f 13/10/2 24/5/2 23/1/2 21/11/2
f 21/11/2 23/1/2 19/2/2 20/12/2
f 9/7/3 2/8/3 16/8/3 15/7/3
f 2/8/4 8/6/4 22/6/4 16/8/4
f 8/6/5 6/4/5 17/4/5 22/6/5
f 6/4/6 4/3/6 18/3/6 17/4/6
f 10/2/7 3/12/7 20/12/7 19/2/7
f 1/9/8 9/7/8 15/7/8 14/9/8
f 7/10/9 1/9/9 14/9/9 13/10/9
f 5/11/10 7/10/10 13/10/10 21/11/10
f 3/12/11 5/11/11 21/11/11 20/12/11
f 4/3/12 10/2/12 19/2/12 18/3/12
