# Blender 3.6.5
# www.blender.org
mtllib Field_0.mtl
o Block0
v 0.221148 -0.015438 0.871765
v 0.833877 -0.015438 1.553743
v 0.844837 -0.015438 0.142459
v 1.585801 -0.015438 0.999303
v 0.532993 -0.015438 0.507112
v 0.906252 -0.015438 0.970125
v 0.527513 -0.015438 1.212754
v 1.215319 -0.015438 0.570881
v 0.770220 -0.015438 0.776567
v 0.532993 0.138445 0.507112
v 0.221148 0.138445 0.871765
v 0.527513 0.138445 1.212754
v 0.833877 0.138445 1.553743
v 0.906252 0.138445 0.970125
v 1.585801 0.138445 0.999303
v 1.215319 0.138445 0.570881
v 0.844837 0.138445 0.142459
v 0.770220 0.138445 0.776567
vn -0.0000 -1.0000 -0.0000
vn -0.0000 1.0000 -0.0000
vn -0.7600 -0.0000 -0.6499
vn -0.7439 -0.0000 0.6683
vn 0.9924 -0.0000 0.1231
vn 0.7564 -0.0000 -0.6541
vn -0.0429 -0.0000 0.9991
vt 0.500000 0.500000
vt 0.500000 1.000000
vt 1.000000 1.000000
vt 1.000000 0.500000
vt 0.500000 0.000000
vt 1.000000 0.000000
vt 0.000000 0.000000
vt 0.000000 0.500000
vt 0.000000 1.000000
s 0
f 9/1/1 8/2/1 4/3/1 6/4/1
f 7/5/1 9/1/1 6/4/1 2/6/1
f 1/7/1 5/8/1 9/1/1 7/5/1
f 5/8/1 3/9/1 8/2/1 9/1/1
f 18/1/2 14/4/2 15/3/2 16/2/2
f 12/5/2 13/6/2 14/4/2 18/1/2
f 11/7/2 12/5/2 18/1/2 10/8/2
f 10/8/2 18/1/2 16/2/2 17/9/2
f 5/8/3 1/7/3 11/7/3 10/8/3
f 1/7/4 7/5/4 12/5/4 11/7/4
f 2/6/5 6/4/5 14/4/5 13/6/5
f 8/2/6 3/9/6 17/9/6 16/2/6
f 7/5/4 2/6/4 13/6/4 12/5/4
f 4/3/6 8/2/6 16/2/6 15/3/6
f 3/9/3 5/8/3 10/8/3 17/9/3
f 6/4/7 4/3/7 15/3/7 14/4/7
