# Blender 3.6.5
# www.blender.org
mtllib Field_12.mtl
o Block12
v 3.963606 -0.015438 0.184283
v 4.903076 -0.015438 0.427152
v 3.579063 -0.015438 -0.836144
v 4.308046 -0.015438 -1.394744
v 3.957535 -0.015438 -0.139731
v 4.907124 -0.015438 -0.164018
v 4.591393 -0.015438 -1.008083
v 3.808777 -0.015438 -0.536511
v 4.293691 -0.015438 0.775265
v 4.271428 -0.015438 -0.803761
v 4.436377 -0.015438 -0.097228
v 4.252707 -0.015438 -0.573953
v 3.957535 0.144040 -0.139731
v 3.963606 0.144040 0.184283
v 4.293691 0.144040 0.775265
v 4.903076 0.144040 0.427152
v 4.591393 0.144040 -1.008083
v 4.308046 0.144040 -1.394744
v 4.271428 0.144040 -0.803761
v 3.579063 0.144040 -0.836144
v 3.808777 0.144040 -0.536511
v 4.907124 0.144040 -0.164018
v 4.436377 0.144040 -0.097228
v 4.252707 0.144040 -0.573953
vn -0.0000 -1.0000 -0.0000
vn -0.0000 1.0000 -0.0000
vn 0.0467 -0.0000 -0.9989
vn -0.8731 -0.0000 0.4876
vn -0.9998 -0.0000 0.0187
vn 0.9366 -0.0000 -0.3504
vn -0.9364 -0.0000 0.3511
vn -0.9981 -0.0000 -0.0618
vn 0.4960 -0.0000 0.8683
vn -0.7936 -0.0000 0.6084
vn 1.0000 -0.0000 0.0068
vn 0.8066 -0.0000 -0.5911
vt 0.500000 0.750000
vt 0.500000 1.000000
vt 1.000000 1.000000
vt 1.000000 0.750000
vt 0.500000 0.000000
vt 0.500000 0.500000
vt 1.000000 0.500000
vt 1.000000 0.000000
vt 0.000000 0.500000
vt 0.000000 0.750000
vt 0.000000 0.000000
vt 0.000000 1.000000
s 0
f 12/1/1 10/2/1 4/3/1 7/4/1
f 9/5/1 11/6/1 6/7/1 2/8/1
f 11/6/1 12/1/1 7/4/1 6/7/1
f 5/9/1 8/10/1 12/1/1 11/6/1
f 1/11/1 5/9/1 11/6/1 9/5/1
f 8/10/1 3/12/1 10/2/1 12/1/1
f 24/1/2 17/4/2 18/3/2 19/2/2
f 15/5/2 16/8/2 22/7/2 23/6/2
f 23/6/2 22/7/2 17/4/2 24/1/2
f 13/9/2 23/6/2 24/1/2 21/10/2
f 14/11/2 15/5/2 23/6/2 13/9/2
f 21/10/2 24/1/2 19/2/2 20/12/2
f 10/2/3 3/12/3 20/12/3 19/2/3
f 1/11/4 9/5/4 15/5/4 14/11/4
f 5/9/5 1/11/5 14/11/5 13/9/5
f 6/7/6 7/4/6 17/4/6 22/7/6
f 8/10/7 5/9/7 13/9/7 21/10/7
f 4/3/8 10/2/8 19/2/8 18/3/8
f 9/5/9 2/8/9 16/8/9 15/5/9
f 3/12/10 8/10/10 21/10/10 20/12/10
f 2/8/11 6/7/11 22/7/11 16/8/11
f 7/4/12 4/3/12 18/3/12 17/4/12
