# Blender 3.6.5
# www.blender.org
mtllib Field_8.mtl
o Block8
v -1.342828 -0.015438 1.065647
v -0.709284 -0.015438 1.732909
v -0.130662 -0.015438 -0.266506
v 0.545969 -0.015438 0.342017
v -0.742558 -0.015438 0.394420
v -0.073483 -0.015438 1.042882
v 0.284479 -0.015438 0.655547
v -0.420352 -0.015438 0.054715
v -0.672749 -0.015438 1.117549
v 0.508002 -0.015438 -0.291333
v -0.408021 -0.015438 0.718651
v -0.069623 -0.015438 0.324772
v -0.742558 0.144040 0.394420
v -1.342828 0.144040 1.065647
v -0.672749 0.144040 1.117549
v -0.709284 0.144040 1.732909
v 0.284479 0.144040 0.655547
v 0.545969 0.144040 0.342017
v 0.508002 0.144040 -0.291333
v -0.130662 0.144040 -0.266506
v -0.420352 0.144040 0.054715
v -0.073483 0.144040 1.042882
v -0.408021 0.144040 0.718651
v -0.069623 0.144040 0.324772
vn -0.0000 -1.0000 -0.0000
vn -0.0000 1.0000 -0.0000
vn 0.7680 -0.0000 0.6405
vn -0.0388 -0.0000 -0.9992
vn -0.0772 -0.0000 0.9970
vn -0.7454 -0.0000 -0.6666
vn 0.7344 -0.0000 0.6787
vn -0.7255 -0.0000 -0.6882
vn 0.9982 -0.0000 -0.0598
vn -0.9982 -0.0000 -0.0593
vn -0.7426 -0.0000 -0.6697
vn 0.7354 -0.0000 0.6776
vt 0.500000 0.750000
vt 0.500000 1.000000
vt 1.000000 1.000000
vt 1.000000 0.750000
vt 0.500000 0.000000
vt 0.500000 0.500000
vt 1.000000 0.500000
vt 1.000000 0.000000
vt 0.000000 0.500000
vt 0.000000 0.750000
vt 0.000000 0.000000
vt 0.000000 1.000000
s 0
f 12/1/1 10/2/1 4/3/1 7/4/1
f 9/5/1 11/6/1 6/7/1 2/8/1
f 11/6/1 12/1/1 7/4/1 6/7/1
f 5/9/1 8/10/1 12/1/1 11/6/1
f 1/11/1 5/9/1 11/6/1 9/5/1
f 8/10/1 3/12/1 10/2/1 12/1/1
f 24/1/2 17/4/2 18/3/2 19/2/2
f 15/5/2 16/8/2 22/7/2 23/6/2
f 23/6/2 22/7/2 17/4/2 24/1/2
f 13/9/2 23/6/2 24/1/2 21/10/2
f 14/11/2 15/5/2 23/6/2 13/9/2
f 21/10/2 24/1/2 19/2/2 20/12/2
f 7/4/3 4/3/3 18/3/3 17/4/3
f 10/2/4 3/12/4 20/12/4 19/2/4
f 1/11/5 9/5/5 15/5/5 14/11/5
f 5/9/6 1/11/6 14/11/6 13/9/6
f 6/7/7 7/4/7 17/4/7 22/7/7
f 8/10/8 5/9/8 13/9/8 21/10/8
f 4/3/9 10/2/9 19/2/9 18/3/9
f 9/5/10 2/8/10 16/8/10 15/5/10
f 3/12/11 8/10/11 21/10/11 20/12/11
f 2/8/12 6/7/12 22/7/12 16/8/12
