# Blender 3.6.5
# www.blender.org
mtllib Playfield.mtl
o Block1
v -0.526668 -0.008283 0.065702
v -0.526668 0.154814 0.065702
v -1.149903 -0.008283 -0.618238
v -1.149903 0.154814 -0.618238
v 0.129705 -0.008283 -0.639366
v 0.129705 0.154814 -0.639366
v -0.433222 -0.008283 -1.287646
v -0.433222 0.154814 -1.287646
v -0.763772 -0.008283 -0.952264
v -0.763772 0.154814 -0.952264
v -0.204582 -0.008283 -0.288866
v -0.204582 0.154814 -0.288866
v -1.090092 0.154814 -1.324379
v -1.090092 -0.008283 -1.324379
vn -0.7391 -0.0000 0.6735
vn -0.0000 1.0000 -0.0000
vn 0.7551 -0.0000 -0.6557
vn 0.7402 -0.0000 0.6724
vn -0.0000 -1.0000 -0.0000
vn 0.7236 -0.0000 0.6902
vn -0.9964 -0.0000 -0.0844
vn 0.0558 -0.0000 -0.9984
vt 0.375000 0.000000
vt 0.625000 0.000000
vt 0.625000 0.250000
vt 0.375000 0.250000
vt 0.750000 0.500000
vt 0.625000 0.500000
vt 0.375000 0.500000
vt 0.625000 0.750000
vt 0.375000 0.750000
vt 0.375000 0.875000
vt 0.625000 0.875000
vt 0.625000 1.000000
vt 0.375000 1.000000
vt 0.250000 0.500000
vt 0.250000 0.750000
vt 0.875000 0.500000
vt 0.875000 0.750000
vt 0.750000 0.750000
vt 0.125000 0.500000
vt 0.125000 0.750000
s 0
f 1/1/1 2/2/1 4/3/1 3/4/1
f 10/5/2 8/6/2 13/5/2
f 7/7/3 8/6/3 6/8/3 5/9/3
f 11/10/4 12/11/4 2/12/4 1/13/4
f 9/14/5 7/7/5 5/9/5 11/15/5
f 10/5/2 4/16/2 2/17/2 12/18/2
f 8/6/2 10/5/2 12/18/2 6/8/2
f 3/19/5 9/14/5 11/15/5 1/20/5
f 5/9/6 6/8/6 12/11/6 11/10/6
f 4/16/2 10/5/2 13/16/2
f 3/4/7 4/3/7 13/3/7 14/4/7
f 7/7/5 9/14/5 14/7/5
f 8/6/8 7/7/8 14/7/8 13/6/8
f 9/14/5 3/19/5 14/14/5
o Block2
v -2.094910 -0.015438 -1.220745
v -1.268779 -0.015438 -0.829455
v -2.513185 -0.015438 -1.618481
v -1.211434 -0.015438 -1.459941
v -1.543544 -0.015438 -1.020040
v -1.862310 -0.015438 -1.539211
v -2.067924 -0.015438 -2.110966
v -0.587395 -0.015438 -1.436329
v -1.194419 -0.015438 -1.856290
v -2.187747 -0.015438 -1.578846
v -1.858018 -0.015438 -1.170990
v -1.644664 -0.015438 -2.027480
v -2.513185 0.146475 -1.618481
v -2.094910 0.146475 -1.220745
v -1.543544 0.146475 -1.020040
v -1.268779 0.146475 -0.829455
v -1.211434 0.146475 -1.459941
v -2.187747 0.146475 -1.578846
v -1.858018 0.146475 -1.170990
v -1.862310 0.146475 -1.539211
v -1.644664 0.146475 -2.027480
v -2.067924 0.146475 -2.110966
v -0.587395 0.146475 -1.436329
v -1.194419 0.146475 -1.856290
vn -0.0000 -1.0000 -0.0000
vn -0.0000 1.0000 -0.0000
vn -0.2055 -0.0000 0.9786
vn -0.0378 -0.0000 0.9993
vn -0.6891 -0.0000 0.7247
vn 0.1935 -0.0000 -0.9811
vn 0.3554 -0.0000 -0.9347
vn -0.4327 -0.0000 0.9015
vn -0.7418 -0.0000 -0.6706
vn -0.5699 -0.0000 0.8217
vn 0.5689 -0.0000 -0.8224
vn 0.9959 -0.0000 0.0906
vt 0.500000 0.000000
vt 0.500000 1.000000
vt 1.000000 1.000000
vt 1.000000 0.000000
vt 0.250000 0.000000
vt 0.250000 1.000000
vt 0.000000 1.000000
vt 0.000000 0.000000
s 0
f 19/21/9 20/22/9 18/23/9 16/24/9
f 25/25/9 24/26/9 20/22/9 19/21/9
f 20/22/9 23/22/9 22/23/9 18/23/9
f 24/26/9 26/26/9 23/22/9 20/22/9
f 17/27/9 21/27/9 26/26/9 24/26/9
f 15/28/9 17/27/9 24/26/9 25/25/9
f 29/21/10 30/24/10 31/23/10 34/22/10
f 33/25/10 29/21/10 34/22/10 32/26/10
f 34/22/10 31/23/10 37/23/10 38/22/10
f 32/26/10 34/22/10 38/22/10 35/26/10
f 27/27/10 32/26/10 35/26/10 36/27/10
f 28/28/10 33/25/10 32/26/10 27/27/10
f 15/28/11 25/25/11 33/25/11 28/28/11
f 18/23/12 22/23/12 37/23/12 31/23/12
f 17/27/13 15/28/13 28/28/13 27/27/13
f 26/26/14 21/27/14 36/27/14 35/26/14
f 23/22/15 26/26/15 35/26/15 38/22/15
f 25/25/16 19/21/16 29/21/16 33/25/16
f 21/27/17 17/27/17 27/27/17 36/27/17
f 19/21/18 16/24/18 30/24/18 29/21/18
f 22/23/19 23/22/19 38/22/19 37/23/19
f 16/24/20 18/23/20 31/23/20 30/24/20
o Block3
v -3.071677 -0.015438 -1.015493
v -2.220451 -0.015438 -1.232457
v -3.702167 -0.015438 -1.641661
v -2.173820 -0.015438 -2.107485
v -2.741188 -0.015438 -1.144214
v -3.377182 -0.015438 -1.844214
v -2.436293 -0.015438 -1.226790
v -2.824075 -0.015438 -2.036567
v -3.735035 -0.015438 -1.059397
v -2.622157 -0.015438 -1.649732
v -3.459919 -0.015438 -1.326229
v -2.947938 -0.015438 -1.560841
v -3.735035 0.144040 -1.059397
v -3.071677 0.144040 -1.015493
v -2.436293 0.144040 -1.226790
v -2.220451 0.144040 -1.232457
v -2.622157 0.144040 -1.649732
v -2.173820 0.144040 -2.107485
v -3.377182 0.144040 -1.844214
v -3.702167 0.144040 -1.641661
v -2.741188 0.144040 -1.144214
v -2.824075 0.144040 -2.036567
v -3.459919 0.144040 -1.326229
v -2.947938 0.144040 -1.560841
vn -0.0000 -1.0000 -0.0000
vn -0.0000 1.0000 -0.0000
vn -0.5289 -0.0000 -0.8487
vn -0.9984 -0.0000 -0.0564
vn -0.0660 -0.0000 0.9978
vn 0.2614 -0.0000 0.9652
vn 0.3629 -0.0000 0.9318
vn 0.7204 -0.0000 -0.6935
vn 0.0262 -0.0000 0.9997
vn -0.1084 -0.0000 -0.9941
vn -0.3285 -0.0000 -0.9445
vn 0.7144 -0.0000 0.6997
vt 0.750000 0.500000
vt 0.750000 1.000000
vt 1.000000 1.000000
vt 1.000000 0.500000
vt 0.000000 0.500000
vt 0.000000 1.000000
vt 0.500000 1.000000
vt 0.500000 0.500000
vt 0.500000 0.000000
vt 0.750000 0.000000
vt 0.000000 0.000000
vt 1.000000 0.000000
s 0
f 50/29/21 46/30/21 42/31/21 48/32/21
f 47/33/21 41/34/21 44/35/21 49/36/21
f 49/36/21 44/35/21 46/30/21 50/29/21
f 43/37/21 49/36/21 50/29/21 45/38/21
f 39/39/21 47/33/21 49/36/21 43/37/21
f 45/38/21 50/29/21 48/32/21 40/40/21
f 62/29/22 55/32/22 56/31/22 60/30/22
f 51/33/22 61/36/22 57/35/22 58/34/22
f 61/36/22 62/29/22 60/30/22 57/35/22
f 59/37/22 53/38/22 62/29/22 61/36/22
f 52/39/22 59/37/22 61/36/22 51/33/22
f 53/38/22 54/40/22 55/32/22 62/29/22
f 44/35/23 41/34/23 58/34/23 57/35/23
f 41/34/24 47/33/24 51/33/24 58/34/24
f 47/33/25 39/39/25 52/39/25 51/33/25
f 43/37/26 45/38/26 53/38/26 59/37/26
f 39/39/27 43/37/27 59/37/27 52/39/27
f 40/40/28 48/32/28 55/32/28 54/40/28
f 45/38/29 40/40/29 54/40/29 53/38/29
f 42/31/30 46/30/30 60/30/30 56/31/30
f 46/30/31 44/35/31 57/35/31 60/30/31
f 48/32/32 42/31/32 56/31/32 55/32/32
o Block4
v -4.637539 -0.015438 -0.054863
v -3.689973 -0.015438 -0.038672
v -3.888691 -0.015438 -1.512454
v -3.264952 -0.015438 -0.885042
v -4.257043 -0.015438 -1.154035
v -3.542228 -0.015438 -0.538765
v -4.539976 -0.015438 -0.611751
v -3.640217 -0.015438 -0.293312
v -4.115182 -0.015438 0.430876
v -3.931006 -0.015438 -0.929568
v -3.992735 -0.015438 -0.755324
v -4.175101 -0.015438 -0.286571
v -4.539976 0.144040 -0.611751
v -4.637539 0.144040 -0.054863
v -4.115182 0.144040 0.430876
v -3.689973 0.144040 -0.038672
v -3.542228 0.144040 -0.538765
v -3.264952 0.144040 -0.885042
v -3.931006 0.144040 -0.929568
v -3.888691 0.144040 -1.512454
v -4.257043 0.144040 -1.154035
v -3.640217 0.144040 -0.293312
v -3.992735 0.144040 -0.755324
v -4.175101 0.144040 -0.286571
vn -0.0000 -1.0000 -0.0000
vn -0.0000 1.0000 -0.0000
vn 0.7412 -0.0000 0.6712
vn 0.9814 -0.0000 0.1918
vn 0.9287 -0.0000 0.3708
vn 0.7806 -0.0000 0.6250
vn 0.9974 -0.0000 0.0724
vn -0.6810 -0.0000 0.7323
vn -0.9850 -0.0000 -0.1726
vn -0.8866 -0.0000 -0.4626
vn -0.6974 -0.0000 -0.7167
vn 0.0667 -0.0000 -0.9978
vt 0.500000 0.500000
vt 0.500000 1.000000
vt 1.000000 1.000000
vt 1.000000 0.500000
vt 0.500000 0.250546
vt 1.000000 0.250546
vt 0.500000 0.000000
vt 1.000000 0.000000
vt 0.000000 0.000000
vt 0.000000 0.250546
vt 0.000000 0.500000
vt 0.000000 1.000000
s 0
f 73/41/33 72/42/33 66/43/33 68/44/33
f 74/45/33 73/41/33 68/44/33 70/46/33
f 71/47/33 74/45/33 70/46/33 64/48/33
f 63/49/33 69/50/33 74/45/33 71/47/33
f 69/50/33 67/51/33 73/41/33 74/45/33
f 67/51/33 65/52/33 72/42/33 73/41/33
f 85/41/34 79/44/34 80/43/34 81/42/34
f 86/45/34 84/46/34 79/44/34 85/41/34
f 77/47/34 78/48/34 84/46/34 86/45/34
f 76/49/34 77/47/34 86/45/34 75/50/34
f 75/50/34 86/45/34 85/41/34 83/51/34
f 83/51/34 85/41/34 81/42/34 82/52/34
f 71/47/35 64/48/35 78/48/35 77/47/35
f 64/48/36 70/46/36 84/46/36 78/48/36
f 70/46/37 68/44/37 79/44/37 84/46/37
f 68/44/38 66/43/38 80/43/38 79/44/38
f 72/42/39 65/52/39 82/52/39 81/42/39
f 63/49/40 71/47/40 77/47/40 76/49/40
f 69/50/41 63/49/41 76/49/41 75/50/41
f 67/51/42 69/50/42 75/50/42 83/51/42
f 65/52/43 67/51/43 83/51/43 82/52/43
f 66/43/44 72/42/44 81/42/44 80/43/44
o Block5
v -4.150505 -0.015438 1.425346
v -3.449857 -0.015438 0.862698
v -4.636244 -0.015438 0.040615
v -3.680583 -0.015438 0.064902
v -4.595766 -0.015438 0.583211
v -3.658320 -0.015438 0.435466
v -4.405518 -0.015438 1.073092
v -3.566232 -0.015438 0.665273
v -3.484450 -0.015438 1.488087
v -4.097696 -0.015438 0.530402
v -4.094660 -0.015438 0.634821
v -3.921110 -0.015438 0.986569
v -4.405518 0.144040 1.073092
v -4.150505 0.144040 1.425346
v -3.484450 0.144040 1.488087
v -3.449857 0.144040 0.862698
v -3.658320 0.144040 0.435466
v -3.680583 0.144040 0.064902
v -4.097696 0.144040 0.530402
v -4.636244 0.144040 0.040615
v -4.595766 0.144040 0.583211
v -3.566232 0.144040 0.665273
v -4.094660 0.144040 0.634821
v -3.921110 0.144040 0.986569
vn -0.0000 -1.0000 -0.0000
vn -0.0000 1.0000 -0.0000
vn 0.8615 -0.0000 -0.5078
vn 0.9282 -0.0000 -0.3720
vn 0.9982 -0.0000 -0.0600
vn 0.6728 -0.0000 -0.7398
vn -0.0938 -0.0000 0.9956
vn -0.8100 -0.0000 0.5864
vn -0.9322 -0.0000 0.3620
vn -0.9972 -0.0000 0.0744
vn -0.7448 -0.0000 -0.6673
vn 0.9985 -0.0000 0.0552
vt 0.500000 0.500000
vt 0.500000 1.000000
vt 1.000000 1.000000
vt 1.000000 0.500000
vt 0.500000 0.250000
vt 1.000000 0.250000
vt 0.500000 0.000000
vt 1.000000 0.000000
vt 0.000000 0.000000
vt 0.000000 0.250000
vt 0.000000 0.500000
vt 0.000000 1.000000
s 0
f 97/53/45 96/54/45 90/55/45 92/56/45
f 98/57/45 97/53/45 92/56/45 94/58/45
f 95/59/45 98/57/45 94/58/45 88/60/45
f 87/61/45 93/62/45 98/57/45 95/59/45
f 93/62/45 91/63/45 97/53/45 98/57/45
f 91/63/45 89/64/45 96/54/45 97/53/45
f 109/53/46 103/56/46 104/55/46 105/54/46
f 110/57/46 108/58/46 103/56/46 109/53/46
f 101/59/46 102/60/46 108/58/46 110/57/46
f 100/61/46 101/59/46 110/57/46 99/62/46
f 99/62/46 110/57/46 109/53/46 107/63/46
f 107/63/46 109/53/46 105/54/46 106/64/46
f 88/60/47 94/58/47 108/58/47 102/60/47
f 94/58/48 92/56/48 103/56/48 108/58/48
f 92/56/49 90/55/49 104/55/49 103/56/49
f 96/54/50 89/64/50 106/64/50 105/54/50
f 87/61/51 95/59/51 101/59/51 100/61/51
f 93/62/52 87/61/52 100/61/52 99/62/52
f 91/63/53 93/62/53 99/62/53 107/63/53
f 89/64/54 91/63/54 107/63/54 106/64/54
f 90/55/55 96/54/55 105/54/55 104/55/55
f 95/59/56 88/60/56 102/60/56 101/59/56
o Block6
v -4.030689 -0.015438 1.591145
v -2.718819 -0.015438 2.267132
v -3.322319 -0.015438 1.007884
v -2.670245 -0.015438 1.360045
v -3.385061 -0.015438 1.623341
v -2.247247 -0.015438 1.892521
v -3.567026 -0.015438 1.951402
v -3.109621 -0.015438 1.151582
v -3.176410 -0.015438 1.753883
v -3.132803 -0.015438 2.159865
v -2.861598 -0.015438 1.284148
v -2.863622 -0.015438 1.906182
v -3.385061 0.144040 1.623341
v -4.030689 0.144040 1.591145
v -3.132803 0.144040 2.159865
v -2.718819 0.144040 2.267132
v -2.247247 0.144040 1.892521
v -2.670245 0.144040 1.360045
v -3.109621 0.144040 1.151582
v -3.322319 0.144040 1.007884
v -3.176410 0.144040 1.753883
v -3.567026 0.144040 1.951402
v -2.861598 0.144040 1.284148
v -2.863622 0.144040 1.906182
vn -0.0000 -1.0000 -0.0000
vn -0.0000 1.0000 -0.0000
vn -0.9948 -0.0000 -0.1014
vn -0.2508 -0.0000 0.9680
vn 0.4714 -0.0000 -0.8819
vn 0.6220 -0.0000 0.7830
vn -0.4328 -0.0000 0.9015
vn 0.7830 -0.0000 -0.6220
vn 0.3687 -0.0000 -0.9296
vn 0.5598 -0.0000 -0.8286
vn 0.0498 -0.0000 -0.9988
vn -0.6135 -0.0000 0.7897
vt 0.750000 0.500000
vt 0.750000 1.000000
vt 1.000000 1.000000
vt 1.000000 0.500000
vt 0.750000 0.000000
vt 1.000000 0.000000
vt 0.000000 0.000000
vt 0.000000 0.500000
vt 0.500000 0.500000
vt 0.500000 0.000000
vt 0.000000 1.000000
vt 0.500000 1.000000
s 0
f 122/65/57 121/66/57 114/67/57 116/68/57
f 120/69/57 122/65/57 116/68/57 112/70/57
f 111/71/57 115/72/57 119/73/57 117/74/57
f 115/72/57 113/75/57 118/76/57 119/73/57
f 117/74/57 119/73/57 122/65/57 120/69/57
f 119/73/57 118/76/57 121/66/57 122/65/57
f 134/65/58 127/68/58 128/67/58 133/66/58
f 125/69/58 126/70/58 127/68/58 134/65/58
f 124/71/58 132/74/58 131/73/58 123/72/58
f 123/72/58 131/73/58 129/76/58 130/75/58
f 132/74/58 125/69/58 134/65/58 131/73/58
f 131/73/58 134/65/58 133/66/58 129/76/58
f 113/75/59 115/72/59 123/72/59 130/75/59
f 120/69/60 112/70/60 126/70/60 125/69/60
f 121/66/61 118/76/61 129/76/61 133/66/61
f 112/70/62 116/68/62 127/68/62 126/70/62
f 117/74/63 120/69/63 125/69/63 132/74/63
f 116/68/64 114/67/64 128/67/64 127/68/64
f 114/67/65 121/66/65 133/66/65 128/67/65
f 118/76/66 113/75/66 130/75/66 129/76/66
f 115/72/67 111/71/67 124/71/67 123/72/67
f 111/71/68 117/74/68 132/74/68 124/71/68
o Block7
v -2.624959 -0.015438 2.300810
v -0.863781 -0.015438 1.863645
v -2.556146 -0.015438 1.393723
v -1.511433 -0.015438 1.171092
v -1.881996 -0.015438 2.272475
v -2.187607 -0.015438 1.420033
v -1.304076 -0.015438 2.102466
v -1.740229 -0.015438 1.303658
v -2.149340 -0.015438 1.907984
v -0.847590 -0.015438 1.229973
v -1.800028 -0.015438 1.807800
v -1.380478 -0.015438 1.664608
v -2.149340 0.144040 1.907984
v -2.624959 0.144040 2.300810
v -1.304076 0.144040 2.102466
v -0.863781 0.144040 1.863645
v -0.847590 0.144040 1.229973
v -1.511433 0.144040 1.171092
v -2.187607 0.144040 1.420033
v -2.556146 0.144040 1.393723
v -1.881996 0.144040 2.272475
v -1.740229 0.144040 1.303658
v -1.800028 0.144040 1.807800
v -1.380478 0.144040 1.664608
vn -0.0000 -1.0000 -0.0000
vn -0.0000 1.0000 -0.0000
vn 0.0712 -0.0000 -0.9975
vn -0.7843 -0.0000 0.6204
vn -0.6368 -0.0000 -0.7710
vn 0.2822 -0.0000 0.9594
vn 0.0381 -0.0000 0.9993
vn 0.9997 -0.0000 0.0255
vn 0.4768 -0.0000 0.8790
vn -0.5013 -0.0000 -0.8653
vn -0.2517 -0.0000 -0.9678
vn 0.0883 -0.0000 -0.9961
vt 0.750000 0.500000
vt 0.750000 1.000000
vt 1.000000 1.000000
vt 1.000000 0.500000
vt 0.000000 0.500000
vt 0.000000 1.000000
vt 0.500000 1.000000
vt 0.500000 0.500000
vt 0.500000 0.000000
vt 0.750000 0.000000
vt 0.000000 0.000000
vt 1.000000 0.000000
s 0
f 146/77/69 142/78/69 138/79/69 144/80/69
f 143/81/69 137/82/69 140/83/69 145/84/69
f 145/84/69 140/83/69 142/78/69 146/77/69
f 139/85/69 145/84/69 146/77/69 141/86/69
f 135/87/69 143/81/69 145/84/69 139/85/69
f 141/86/69 146/77/69 144/80/69 136/88/69
f 158/77/70 151/80/70 152/79/70 156/78/70
f 147/81/70 157/84/70 153/83/70 154/82/70
f 157/84/70 158/77/70 156/78/70 153/83/70
f 155/85/70 149/86/70 158/77/70 157/84/70
f 148/87/70 155/85/70 157/84/70 147/81/70
f 149/86/70 150/88/70 151/80/70 158/77/70
f 140/83/71 137/82/71 154/82/71 153/83/71
f 137/82/72 143/81/72 147/81/72 154/82/72
f 143/81/73 135/87/73 148/87/73 147/81/73
f 139/85/74 141/86/74 149/86/74 155/85/74
f 135/87/75 139/85/75 155/85/75 148/87/75
f 136/88/76 144/80/76 151/80/76 150/88/76
f 141/86/77 136/88/77 150/88/77 149/86/77
f 138/79/78 142/78/78 156/78/78 152/79/78
f 142/78/79 140/83/79 153/83/79 156/78/79
f 144/80/80 138/79/80 152/79/80 151/80/80
o Block8
v -1.342828 -0.015438 1.065647
v -0.709284 -0.015438 1.732909
v -0.130662 -0.015438 -0.266506
v 0.545969 -0.015438 0.342017
v -0.742558 -0.015438 0.394420
v -0.073483 -0.015438 1.042882
v 0.284479 -0.015438 0.655547
v -0.420352 -0.015438 0.054715
v -0.672749 -0.015438 1.117549
v 0.508002 -0.015438 -0.291333
v -0.408021 -0.015438 0.718651
v -0.069623 -0.015438 0.324772
v -0.742558 0.144040 0.394420
v -1.342828 0.144040 1.065647
v -0.672749 0.144040 1.117549
v -0.709284 0.144040 1.732909
v 0.284479 0.144040 0.655547
v 0.545969 0.144040 0.342017
v 0.508002 0.144040 -0.291333
v -0.130662 0.144040 -0.266506
v -0.420352 0.144040 0.054715
v -0.073483 0.144040 1.042882
v -0.408021 0.144040 0.718651
v -0.069623 0.144040 0.324772
vn -0.0000 -1.0000 -0.0000
vn -0.0000 1.0000 -0.0000
vn 0.7680 -0.0000 0.6405
vn -0.0388 -0.0000 -0.9992
vn -0.0772 -0.0000 0.9970
vn -0.7454 -0.0000 -0.6666
vn 0.7344 -0.0000 0.6787
vn -0.7255 -0.0000 -0.6882
vn 0.9982 -0.0000 -0.0598
vn -0.9982 -0.0000 -0.0593
vn -0.7426 -0.0000 -0.6697
vn 0.7354 -0.0000 0.6776
vt 0.500000 0.750000
vt 0.500000 1.000000
vt 1.000000 1.000000
vt 1.000000 0.750000
vt 0.500000 0.000000
vt 0.500000 0.500000
vt 1.000000 0.500000
vt 1.000000 0.000000
vt 0.000000 0.500000
vt 0.000000 0.750000
vt 0.000000 0.000000
vt 0.000000 1.000000
s 0
f 170/89/81 168/90/81 162/91/81 165/92/81
f 167/93/81 169/94/81 164/95/81 160/96/81
f 169/94/81 170/89/81 165/92/81 164/95/81
f 163/97/81 166/98/81 170/89/81 169/94/81
f 159/99/81 163/97/81 169/94/81 167/93/81
f 166/98/81 161/100/81 168/90/81 170/89/81
f 182/89/82 175/92/82 176/91/82 177/90/82
f 173/93/82 174/96/82 180/95/82 181/94/82
f 181/94/82 180/95/82 175/92/82 182/89/82
f 171/97/82 181/94/82 182/89/82 179/98/82
f 172/99/82 173/93/82 181/94/82 171/97/82
f 179/98/82 182/89/82 177/90/82 178/100/82
f 165/92/83 162/91/83 176/91/83 175/92/83
f 168/90/84 161/100/84 178/100/84 177/90/84
f 159/99/85 167/93/85 173/93/85 172/99/85
f 163/97/86 159/99/86 172/99/86 171/97/86
f 164/95/87 165/92/87 175/92/87 180/95/87
f 166/98/88 163/97/88 171/97/88 179/98/88
f 162/91/89 168/90/89 177/90/89 176/91/89
f 167/93/90 160/96/90 174/96/90 173/93/90
f 161/100/91 166/98/91 179/98/91 178/100/91
f 160/96/92 164/95/92 180/95/92 174/96/92
o Block9
v -0.049537 -0.015438 -0.329849
v 0.609750 -0.015438 0.287327
v 1.027966 -0.015438 -1.540980
v 1.641234 -0.015438 -0.891474
v 0.489214 -0.015438 -0.935414
v 1.125492 -0.015438 -0.302074
v 0.583699 -0.015438 -0.348974
v 1.662016 -0.015438 -1.487435
v 0.805015 -0.015438 -0.621071
v 0.489214 0.144040 -0.935414
v -0.049537 0.144040 -0.329849
v 0.583699 0.144040 -0.348974
v 0.609750 0.144040 0.287327
v 1.125492 0.144040 -0.302074
v 1.641234 0.144040 -0.891474
v 1.662016 0.144040 -1.487435
v 1.027966 0.144040 -1.540980
v 0.805015 0.144040 -0.621071
vn -0.0000 -1.0000 -0.0000
vn -0.0000 1.0000 -0.0000
vn -0.7471 -0.0000 -0.6647
vn 0.0302 -0.0000 0.9995
vn 0.7526 -0.0000 0.6585
vn 0.0841 -0.0000 -0.9965
vn -0.9992 -0.0000 0.0409
vn 0.9994 -0.0000 0.0349
vt 0.496326 0.500000
vt 0.496326 1.000000
vt 1.000000 1.000000
vt 1.000000 0.500000
vt 0.496326 0.000000
vt 1.000000 0.000000
vt 0.000000 0.000000
vt 0.000000 0.500000
vt 0.000000 1.000000
s 0
f 191/101/93 190/102/93 186/103/93 188/104/93
f 189/105/93 191/101/93 188/104/93 184/106/93
f 183/107/93 187/108/93 191/101/93 189/105/93
f 187/108/93 185/109/93 190/102/93 191/101/93
f 200/101/94 196/104/94 197/103/94 198/102/94
f 194/105/94 195/106/94 196/104/94 200/101/94
f 193/107/94 194/105/94 200/101/94 192/108/94
f 192/108/94 200/101/94 198/102/94 199/109/94
f 187/108/95 183/107/95 193/107/95 192/108/95
f 183/107/96 189/105/96 194/105/96 193/107/96
f 184/106/97 188/104/97 196/104/97 195/106/97
f 190/102/98 185/109/98 199/109/98 198/102/98
f 189/105/99 184/106/99 195/106/99 194/105/99
f 186/103/100 190/102/100 198/102/100 197/103/100
f 185/109/95 187/108/95 192/108/95 199/109/95
f 188/104/97 186/103/97 197/103/97 196/104/97
o Block10
v 1.764827 -0.015438 -0.994444
v 2.574766 -0.015438 -1.227599
v 1.177083 -0.015438 -1.678092
v 2.866210 -0.015438 -2.105542
v 2.283945 -0.015438 -1.227599
v 2.322804 -0.015438 -2.100685
v 1.806115 -0.015438 -1.608282
v 3.169797 -0.015438 -1.583995
v 2.507385 -0.015438 -1.637426
v 1.701370 -0.015438 -1.954963
v 2.009814 -0.015438 -1.135309
v 2.032887 -0.015438 -1.620425
v 1.806115 0.144040 -1.608282
v 1.764827 0.144040 -0.994444
v 2.283945 0.144040 -1.227599
v 2.574766 0.144040 -1.227599
v 3.169797 0.144040 -1.583995
v 2.866210 0.144040 -2.105542
v 1.701370 0.144040 -1.954963
v 1.177083 0.144040 -1.678092
v 2.009814 0.144040 -1.135309
v 2.322804 0.144040 -2.100685
v 2.507385 0.144040 -1.637426
v 2.032887 0.144040 -1.620425
vn -0.0000 -1.0000 -0.0000
vn -0.0000 1.0000 -0.0000
vn -0.9977 -0.0000 -0.0671
vn -0.1103 -0.0000 0.9939
vn 0.3191 -0.0000 0.9477
vn -0.0000 -0.0000 1.0000
vn 0.5138 -0.0000 0.8579
vn -0.0089 -0.0000 -1.0000
vn -0.2283 -0.0000 -0.9736
vn 0.8642 -0.0000 -0.5031
vn 0.4985 -0.0000 0.8669
vn -0.4670 -0.0000 -0.8843
vt 0.500000 0.500000
vt 0.500000 1.000000
vt 1.000000 1.000000
vt 1.000000 0.500000
vt 0.250000 0.500000
vt 0.250000 1.000000
vt 0.250000 0.000000
vt 0.500000 0.000000
vt 1.000000 0.000000
vt 0.000000 0.000000
vt 0.000000 0.500000
vt 0.000000 1.000000
s 0
f 209/110/101 206/111/101 204/112/101 208/113/101
f 212/114/101 210/115/101 206/111/101 209/110/101
f 211/116/101 212/114/101 209/110/101 205/117/101
f 205/117/101 209/110/101 208/113/101 202/118/101
f 201/119/101 207/120/101 212/114/101 211/116/101
f 207/120/101 203/121/101 210/115/101 212/114/101
f 223/110/102 217/113/102 218/112/102 222/111/102
f 224/114/102 223/110/102 222/111/102 219/115/102
f 221/116/102 215/117/102 223/110/102 224/114/102
f 215/117/102 216/118/102 217/113/102 223/110/102
f 214/119/102 221/116/102 224/114/102 213/120/102
f 213/120/102 224/114/102 219/115/102 220/121/102
f 207/120/103 201/119/103 214/119/103 213/120/103
f 203/121/104 207/120/104 213/120/104 220/121/104
f 211/116/105 205/117/105 215/117/105 221/116/105
f 205/117/106 202/118/106 216/118/106 215/117/106
f 202/118/107 208/113/107 217/113/107 216/118/107
f 204/112/108 206/111/108 222/111/108 218/112/108
f 206/111/109 210/115/109 219/115/109 222/111/109
f 208/113/110 204/112/110 218/112/110 217/113/110
f 201/119/111 211/116/111 221/116/111 214/119/111
f 210/115/112 203/121/112 220/121/112 219/115/112
o Block11
v 2.700361 -0.015438 -1.237314
v 3.481156 -0.015438 -0.941013
v 2.952945 -0.015438 -2.105542
v 4.190335 -0.015438 -1.546942
v 3.239718 -0.015438 -1.102117
v 3.940802 -0.015438 -1.767953
v 3.464684 -0.015438 -1.998275
v 3.024281 -0.015438 -1.185907
v 3.255723 -0.015438 -1.554041
v 4.156333 -0.015438 -0.908818
v 3.666359 -0.015438 -1.428558
v 3.357214 -0.015438 -1.516779
v 3.255723 0.144040 -1.554041
v 2.700361 0.144040 -1.237314
v 3.239718 0.144040 -1.102117
v 3.481156 0.144040 -0.941013
v 4.156333 0.144040 -0.908818
v 4.190335 0.144040 -1.546942
v 3.464684 0.144040 -1.998275
v 2.952945 0.144040 -2.105542
v 3.024281 0.144040 -1.185907
v 3.940802 0.144040 -1.767953
v 3.666359 0.144040 -1.428558
v 3.357214 0.144040 -1.516779
vn -0.0000 -1.0000 -0.0000
vn -0.0000 1.0000 -0.0000
vn 0.2052 -0.0000 -0.9787
vn -0.8766 -0.0000 0.4812
vn -0.4954 -0.0000 -0.8687
vn 0.4355 -0.0000 -0.9002
vn -0.3625 -0.0000 0.9320
vn -0.0476 -0.0000 0.9989
vn -0.5550 -0.0000 0.8318
vn -0.1567 -0.0000 0.9876
vn 0.6630 -0.0000 -0.7486
vn 0.9986 -0.0000 0.0532
vt 0.500000 0.500000
vt 0.500000 1.000000
vt 1.000000 1.000000
vt 1.000000 0.500000
vt 0.250000 0.500000
vt 0.250000 1.000000
vt 0.000000 0.500000
vt 0.000000 1.000000
vt 0.000000 0.000000
vt 0.250000 0.000000
vt 0.500000 0.000000
vt 1.000000 0.000000
s 0
f 235/122/113 230/123/113 228/124/113 234/125/113
f 236/126/113 231/127/113 230/123/113 235/122/113
f 233/128/113 227/129/113 231/127/113 236/126/113
f 225/130/113 233/128/113 236/126/113 232/131/113
f 232/131/113 236/126/113 235/122/113 229/132/113
f 229/132/113 235/122/113 234/125/113 226/133/113
f 247/122/114 241/125/114 242/124/114 246/123/114
f 248/126/114 247/122/114 246/123/114 243/127/114
f 237/128/114 248/126/114 243/127/114 244/129/114
f 238/130/114 245/131/114 248/126/114 237/128/114
f 245/131/114 239/132/114 247/122/114 248/126/114
f 239/132/114 240/133/114 241/125/114 247/122/114
f 231/127/115 227/129/115 244/129/115 243/127/115
f 227/129/116 233/128/116 237/128/116 244/129/116
f 233/128/117 225/130/117 238/130/117 237/128/117
f 230/123/118 231/127/118 243/127/118 246/123/118
f 232/131/119 229/132/119 239/132/119 245/131/119
f 226/133/120 234/125/120 241/125/120 240/133/120
f 229/132/121 226/133/121 240/133/121 239/132/121
f 225/130/122 232/131/122 245/131/122 238/130/122
f 228/124/123 230/123/123 246/123/123 242/124/123
f 234/125/124 228/124/124 242/124/124 241/125/124
o Block12
v 3.963606 -0.015438 0.184283
v 4.903076 -0.015438 0.427152
v 3.579063 -0.015438 -0.836144
v 4.308046 -0.015438 -1.394744
v 3.957535 -0.015438 -0.139731
v 4.907124 -0.015438 -0.164018
v 4.591393 -0.015438 -1.008083
v 3.808777 -0.015438 -0.536511
v 4.293691 -0.015438 0.775265
v 4.271428 -0.015438 -0.803761
v 4.436377 -0.015438 -0.097228
v 4.252707 -0.015438 -0.573953
v 3.957535 0.144040 -0.139731
v 3.963606 0.144040 0.184283
v 4.293691 0.144040 0.775265
v 4.903076 0.144040 0.427152
v 4.591393 0.144040 -1.008083
v 4.308046 0.144040 -1.394744
v 4.271428 0.144040 -0.803761
v 3.579063 0.144040 -0.836144
v 3.808777 0.144040 -0.536511
v 4.907124 0.144040 -0.164018
v 4.436377 0.144040 -0.097228
v 4.252707 0.144040 -0.573953
vn -0.0000 -1.0000 -0.0000
vn -0.0000 1.0000 -0.0000
vn 0.0467 -0.0000 -0.9989
vn -0.8731 -0.0000 0.4876
vn -0.9998 -0.0000 0.0187
vn 0.9366 -0.0000 -0.3504
vn -0.9364 -0.0000 0.3511
vn -0.9981 -0.0000 -0.0618
vn 0.4960 -0.0000 0.8683
vn -0.7936 -0.0000 0.6084
vn 1.0000 -0.0000 0.0068
vn 0.8066 -0.0000 -0.5911
vt 0.500000 0.750000
vt 0.500000 1.000000
vt 1.000000 1.000000
vt 1.000000 0.750000
vt 0.500000 0.000000
vt 0.500000 0.500000
vt 1.000000 0.500000
vt 1.000000 0.000000
vt 0.000000 0.500000
vt 0.000000 0.750000
vt 0.000000 0.000000
vt 0.000000 1.000000
s 0
f 260/134/125 258/135/125 252/136/125 255/137/125
f 257/138/125 259/139/125 254/140/125 250/141/125
f 259/139/125 260/134/125 255/137/125 254/140/125
f 253/142/125 256/143/125 260/134/125 259/139/125
f 249/144/125 253/142/125 259/139/125 257/138/125
f 256/143/125 251/145/125 258/135/125 260/134/125
f 272/134/126 265/137/126 266/136/126 267/135/126
f 263/138/126 264/141/126 270/140/126 271/139/126
f 271/139/126 270/140/126 265/137/126 272/134/126
f 261/142/126 271/139/126 272/134/126 269/143/126
f 262/144/126 263/138/126 271/139/126 261/142/126
f 269/143/126 272/134/126 267/135/126 268/145/126
f 258/135/127 251/145/127 268/145/127 267/135/127
f 249/144/128 257/138/128 263/138/128 262/144/128
f 253/142/129 249/144/129 262/144/129 261/142/129
f 254/140/130 255/137/130 265/137/130 270/140/130
f 256/143/131 253/142/131 261/142/131 269/143/131
f 252/136/132 258/135/132 267/135/132 266/136/132
f 257/138/133 250/141/133 264/141/133 263/138/133
f 251/145/134 256/143/134 269/143/134 268/145/134
f 250/141/135 254/140/135 270/140/135 264/141/135
f 255/137/136 252/136/136 266/136/136 265/137/136
o Block13
v 3.552347 -0.015438 1.066871
v 4.180135 -0.015438 1.742858
v 3.944986 -0.015438 0.309553
v 4.884456 -0.015438 0.528136
v 3.501937 -0.015438 1.692260
v 4.273047 -0.015438 0.868153
v 3.886293 -0.015438 0.635590
v 4.738735 -0.015438 1.038349
v 4.168816 -0.015438 1.061624
v 3.719320 -0.015438 0.909924
v 4.404789 -0.015438 1.499895
v 4.023600 -0.015438 1.291938
v 3.719320 0.144040 0.909924
v 3.552347 0.144040 1.066871
v 3.501937 0.144040 1.692260
v 4.180135 0.144040 1.742858
v 4.738735 0.144040 1.038349
v 4.884456 0.144040 0.528136
v 4.273047 0.144040 0.868153
v 3.944986 0.144040 0.309553
v 4.168816 0.144040 1.061624
v 3.886293 0.144040 0.635590
v 4.404789 0.144040 1.499895
v 4.023600 0.144040 1.291938
vn -0.0000 -1.0000 -0.0000
vn -0.0000 1.0000 -0.0000
vn -0.9842 -0.0000 -0.1772
vn -0.9968 -0.0000 -0.0803
vn -0.0744 -0.0000 0.9972
vn 0.8102 -0.0000 0.5862
vn -0.4860 -0.0000 -0.8739
vn -0.8542 -0.0000 -0.5199
vn 0.9616 -0.0000 0.2746
vn 0.7342 -0.0000 0.6789
vn 0.8623 -0.0000 -0.5064
vn -0.6849 -0.0000 -0.7286
vt 0.500000 0.500000
vt 0.500000 1.000000
vt 1.000000 1.000000
vt 1.000000 0.500000
vt 0.000000 0.500000
vt 0.000000 1.000000
vt 0.000000 0.250000
vt 0.500000 0.250000
vt 1.000000 0.250000
vt 0.500000 0.000000
vt 1.000000 0.000000
vt 0.000000 0.000000
s 0
f 281/146/137 278/147/137 276/148/137 280/149/137
f 279/150/137 275/151/137 278/147/137 281/146/137
f 282/152/137 279/150/137 281/146/137 284/153/137
f 284/153/137 281/146/137 280/149/137 283/154/137
f 277/155/137 284/153/137 283/154/137 274/156/137
f 273/157/137 282/152/137 284/153/137 277/155/137
f 293/146/138 289/149/138 290/148/138 291/147/138
f 294/150/138 293/146/138 291/147/138 292/151/138
f 285/152/138 296/153/138 293/146/138 294/150/138
f 296/153/138 295/154/138 289/149/138 293/146/138
f 287/155/138 288/156/138 295/154/138 296/153/138
f 286/157/138 287/155/138 296/153/138 285/152/138
f 275/151/139 279/150/139 294/150/139 292/151/139
f 273/157/140 277/155/140 287/155/140 286/157/140
f 277/155/141 274/156/141 288/156/141 287/155/141
f 283/154/142 280/149/142 289/149/142 295/154/142
f 276/148/143 278/147/143 291/147/143 290/148/143
f 279/150/144 282/152/144 285/152/144 294/150/144
f 280/149/145 276/148/145 290/148/145 289/149/145
f 274/156/146 283/154/146 295/154/146 288/156/146
f 278/147/147 275/151/147 292/151/147 291/147/147
f 282/152/148 273/157/148 286/157/148 285/152/148
o Block14
v 2.222717 -0.015438 2.275228
v 3.971752 -0.015438 1.858302
v 2.417013 -0.015438 1.396475
v 3.405056 -0.015438 1.145510
v 2.712691 -0.015438 2.291419
v 2.728882 -0.015438 1.408619
v 3.384724 -0.015438 2.178080
v 3.137806 -0.015438 1.301351
v 1.890795 -0.015438 1.712393
v 3.372674 -0.015438 1.809541
v 2.562922 -0.015438 1.977525
v 3.093280 -0.015438 1.936035
v 1.890795 0.144040 1.712393
v 2.222717 0.144040 2.275228
v 3.384724 0.144040 2.178080
v 3.971752 0.144040 1.858302
v 3.372674 0.144040 1.809541
v 3.405056 0.144040 1.145510
v 2.728882 0.144040 1.408619
v 2.417013 0.144040 1.396475
v 2.712691 0.144040 2.291419
v 3.137806 0.144040 1.301351
v 2.562922 0.144040 1.977525
v 3.093280 0.144040 1.936035
vn -0.0000 -1.0000 -0.0000
vn -0.0000 1.0000 -0.0000
vn -0.2537 -0.0000 -0.9673
vn 0.9988 -0.0000 0.0487
vn 0.0389 -0.0000 -0.9992
vn -0.5147 -0.0000 -0.8574
vn -0.8614 -0.0000 0.5080
vn 0.1663 -0.0000 0.9861
vn -0.0330 -0.0000 0.9995
vn 0.0811 -0.0000 -0.9967
vn 0.4784 -0.0000 0.8782
vn -0.5037 -0.0000 -0.8639
vt 0.750000 0.500000
vt 0.750000 1.000000
vt 1.000000 1.000000
vt 1.000000 0.500000
vt 0.000000 0.500000
vt 0.000000 1.000000
vt 0.500000 1.000000
vt 0.500000 0.500000
vt 0.500000 0.000000
vt 0.750000 0.000000
vt 0.000000 0.000000
vt 1.000000 0.000000
s 0
f 308/158/149 304/159/149 300/160/149 306/161/149
f 305/162/149 299/163/149 302/164/149 307/165/149
f 307/165/149 302/164/149 304/159/149 308/158/149
f 301/166/149 307/165/149 308/158/149 303/167/149
f 297/168/149 305/162/149 307/165/149 301/166/149
f 303/167/149 308/158/149 306/161/149 298/169/149
f 320/158/150 313/161/150 314/160/150 318/159/150
f 309/162/150 319/165/150 315/164/150 316/163/150
f 319/165/150 320/158/150 318/159/150 315/164/150
f 317/166/150 311/167/150 320/158/150 319/165/150
f 310/168/150 317/166/150 319/165/150 309/162/150
f 311/167/150 312/169/150 313/161/150 320/158/150
f 304/159/151 302/164/151 315/164/151 318/159/151
f 306/161/152 300/160/152 314/160/152 313/161/152
f 302/164/153 299/163/153 316/163/153 315/164/153
f 299/163/154 305/162/154 309/162/154 316/163/154
f 305/162/155 297/168/155 310/168/155 309/162/155
f 301/166/156 303/167/156 311/167/156 317/166/156
f 297/168/157 301/166/157 317/166/157 310/168/157
f 298/169/158 306/161/158 313/161/158 312/169/158
f 303/167/159 298/169/159 312/169/159 311/167/159
f 300/160/160 304/159/160 318/159/160 314/160/160
o Block15
v 0.865724 -0.015438 1.605556
v 2.149259 -0.015438 2.277494
v 1.614572 -0.015438 1.018246
v 2.315220 -0.015438 1.378503
v 1.576304 -0.015438 2.111534
v 1.968943 -0.015438 1.295522
v 1.741160 -0.015438 1.144741
v 1.190655 -0.015438 1.866640
v 0.936561 -0.015438 1.008314
v 1.803170 -0.015438 1.682277
v 1.736194 -0.015438 1.569950
v 1.488171 -0.015438 1.440925
v 0.936561 0.144040 1.008314
v 0.865724 0.144040 1.605556
v 1.576304 0.144040 2.111534
v 2.149259 0.144040 2.277494
v 1.803170 0.144040 1.682277
v 2.315220 0.144040 1.378503
v 1.741160 0.144040 1.144741
v 1.614572 0.144040 1.018246
v 1.190655 0.144040 1.866640
v 1.968943 0.144040 1.295522
v 1.736194 0.144040 1.569950
v 1.488171 0.144040 1.440925
vn -0.0000 -1.0000 -0.0000
vn -0.0000 1.0000 -0.0000
vn 0.5102 -0.0000 0.8600
vn 0.7068 -0.0000 -0.7074
vn 0.0146 -0.0000 -0.9999
vn -0.9930 -0.0000 -0.1178
vn 0.5520 -0.0000 -0.8339
vn -0.5361 -0.0000 0.8442
vn 0.8645 -0.0000 -0.5027
vn -0.2782 -0.0000 0.9605
vn -0.6264 -0.0000 0.7795
vn 0.2330 -0.0000 -0.9725
vt 0.500000 0.500000
vt 0.500000 1.000000
vt 1.000000 1.000000
vt 1.000000 0.500000
vt 0.250000 0.500000
vt 0.250000 1.000000
vt 0.000000 0.500000
vt 0.000000 1.000000
vt 0.000000 0.000000
vt 0.250000 0.000000
vt 0.500000 0.000000
vt 1.000000 0.000000
s 0
f 331/170/161 326/171/161 324/172/161 330/173/161
f 332/174/161 327/175/161 326/171/161 331/170/161
f 329/176/161 323/177/161 327/175/161 332/174/161
f 321/178/161 329/176/161 332/174/161 328/179/161
f 328/179/161 332/174/161 331/170/161 325/180/161
f 325/180/161 331/170/161 330/173/161 322/181/161
f 343/170/162 337/173/162 338/172/162 342/171/162
f 344/174/162 343/170/162 342/171/162 339/175/162
f 333/176/162 344/174/162 339/175/162 340/177/162
f 334/178/162 341/179/162 344/174/162 333/176/162
f 341/179/162 335/180/162 343/170/162 344/174/162
f 335/180/162 336/181/162 337/173/162 343/170/162
f 330/173/163 324/172/163 338/172/163 337/173/163
f 327/175/164 323/177/164 340/177/164 339/175/164
f 323/177/165 329/176/165 333/176/165 340/177/165
f 329/176/166 321/178/166 334/178/166 333/176/166
f 326/171/167 327/175/167 339/175/167 342/171/167
f 328/179/168 325/180/168 335/180/168 341/179/168
f 322/181/169 330/173/169 337/173/169 336/181/169
f 325/180/170 322/181/170 336/181/170 335/180/170
f 321/178/171 328/179/171 341/179/171 334/178/171
f 324/172/172 326/171/172 342/171/172 338/172/172
o Block0
v 0.221148 -0.015438 0.871765
v 0.833877 -0.015438 1.553743
v 0.844837 -0.015438 0.142459
v 1.585801 -0.015438 0.999303
v 0.532993 -0.015438 0.507112
v 0.906252 -0.015438 0.970125
v 0.527513 -0.015438 1.212754
v 1.215319 -0.015438 0.570881
v 0.770220 -0.015438 0.776567
v 0.532993 0.138445 0.507112
v 0.221148 0.138445 0.871765
v 0.527513 0.138445 1.212754
v 0.833877 0.138445 1.553743
v 0.906252 0.138445 0.970125
v 1.585801 0.138445 0.999303
v 1.215319 0.138445 0.570881
v 0.844837 0.138445 0.142459
v 0.770220 0.138445 0.776567
vn -0.0000 -1.0000 -0.0000
vn -0.0000 1.0000 -0.0000
vn -0.7600 -0.0000 -0.6499
vn -0.7439 -0.0000 0.6683
vn 0.9924 -0.0000 0.1231
vn 0.7564 -0.0000 -0.6541
vn -0.0429 -0.0000 0.9991
vt 0.500000 0.500000
vt 0.500000 1.000000
vt 1.000000 1.000000
vt 1.000000 0.500000
vt 0.500000 0.000000
vt 1.000000 0.000000
vt 0.000000 0.000000
vt 0.000000 0.500000
vt 0.000000 1.000000
s 0
f 353/182/173 352/183/173 348/184/173 350/185/173
f 351/186/173 353/182/173 350/185/173 346/187/173
f 345/188/173 349/189/173 353/182/173 351/186/173
f 349/189/173 347/190/173 352/183/173 353/182/173
f 362/182/174 358/185/174 359/184/174 360/183/174
f 356/186/174 357/187/174 358/185/174 362/182/174
f 355/188/174 356/186/174 362/182/174 354/189/174
f 354/189/174 362/182/174 360/183/174 361/190/174
f 349/189/175 345/188/175 355/188/175 354/189/175
f 345/188/176 351/186/176 356/186/176 355/188/176
f 346/187/177 350/185/177 358/185/177 357/187/177
f 352/183/178 347/190/178 361/190/178 360/183/178
f 351/186/176 346/187/176 357/187/176 356/186/176
f 348/184/178 352/183/178 360/183/178 359/184/178
f 347/190/175 349/189/175 354/189/175 361/190/175
f 350/185/179 348/184/179 359/184/179 358/185/179
