# MagicaVoxel @ Ephtracy

# group
o 

# material
mtllib Hourglass.mtl
usemtl palette

# normals
vn -1 0 0
vn 1 0 0
vn 0 0 1
vn 0 0 -1
vn 0 -1 0
vn 0 1 0

# texcoords
vt 0.115234 0.5
vt 0.146484 0.5
vt 0.400391 0.5
vt 0.677734 0.5

# verts
v -0.6 0 0.3
v -0.6 0 0.1
v -0.6 0 0
v -0.6 0 -0.3
v -0.6 0.1 0.3
v -0.6 0.1 0.2
v -0.6 0.1 0.1
v -0.6 0.1 0
v -0.6 0.1 -0.2
v -0.6 0.1 -0.3
v -0.6 0.2 0.3
v -0.6 0.2 0.2
v -0.6 0.2 0.1
v -0.6 0.2 -0.1
v -0.6 0.2 -0.2
v -0.6 0.2 -0.3
v -0.6 0.3 0
v -0.6 0.3 -0.1
v -0.6 0.4 0
v -0.6 0.4 -0.1
v -0.6 0.8 0.1
v -0.6 0.8 0
v -0.6 0.9 0.1
v -0.6 0.9 0
v -0.6 1.4 0.1
v -0.6 1.4 0
v -0.6 1.5 0.1
v -0.6 1.5 0
v -0.6 1.7 0
v -0.6 1.7 -0.1
v -0.6 1.8 0
v -0.6 1.8 -0.1
v -0.6 2.2 0
v -0.6 2.2 -0.1
v -0.6 2.3 0
v -0.6 2.3 -0.1
v -0.6 2.5 0.1
v -0.6 2.5 0
v -0.6 2.6 0.1
v -0.6 2.6 0
v -0.6 2.8 0.3
v -0.6 2.8 0.2
v -0.6 2.8 0.1
v -0.6 2.8 -0.1
v -0.6 2.8 -0.2
v -0.6 2.8 -0.3
v -0.6 2.9 0.3
v -0.6 2.9 0.2
v -0.6 2.9 0.1
v -0.6 2.9 0
v -0.6 2.9 -0.2
v -0.6 2.9 -0.3
v -0.6 3 0.3
v -0.6 3 0.1
v -0.6 3 0
v -0.6 3 -0.3
v -0.5 0 0.5
v -0.5 0 0.4
v -0.5 0 0.3
v -0.5 0 -0.3
v -0.5 0 -0.4
v -0.5 0 -0.5
v -0.5 0.1 0.5
v -0.5 0.1 0.4
v -0.5 0.1 0.3
v -0.5 0.1 -0.3
v -0.5 0.1 -0.4
v -0.5 0.1 -0.5
v -0.5 0.2 0.5
v -0.5 0.2 0.3
v -0.5 0.2 0.2
v -0.5 0.2 0.1
v -0.5 0.2 -0.1
v -0.5 0.2 -0.2
v -0.5 0.2 -0.3
v -0.5 0.2 -0.5
v -0.5 0.3 -0.1
v -0.5 0.4 0.2
v -0.5 0.4 0.1
v -0.5 0.4 -0.1
v -0.5 0.4 -0.2
v -0.5 0.8 0.2
v -0.5 0.8 0.1
v -0.5 0.8 -0.1
v -0.5 0.8 -0.2
v -0.5 2.2 0.2
v -0.5 2.2 0.1
v -0.5 2.2 -0.1
v -0.5 2.2 -0.2
v -0.5 2.3 -0.1
v -0.5 2.5 0.1
v -0.5 2.6 0.1
v -0.5 2.8 0.5
v -0.5 2.8 0.3
v -0.5 2.8 0.2
v -0.5 2.8 0.1
v -0.5 2.8 -0.1
v -0.5 2.8 -0.2
v -0.5 2.8 -0.3
v -0.5 2.8 -0.5
v -0.5 2.9 0.5
v -0.5 2.9 0.4
v -0.5 2.9 0.3
v -0.5 2.9 -0.3
v -0.5 2.9 -0.4
v -0.5 2.9 -0.5
v -0.5 3 0.5
v -0.5 3 0.4
v -0.5 3 0.3
v -0.5 3 -0.3
v -0.5 3 -0.4
v -0.5 3 -0.5
v -0.4 0.2 0.3
v -0.4 0.2 0.2
v -0.4 0.2 -0.2
v -0.4 0.2 -0.3
v -0.4 0.4 0.3
v -0.4 0.4 0.2
v -0.4 0.4 -0.2
v -0.4 0.4 -0.3
v -0.4 0.8 0.3
v -0.4 0.8 0.2
v -0.4 0.8 0.1
v -0.4 0.8 -0.1
v -0.4 0.8 -0.2
v -0.4 0.8 -0.3
v -0.4 0.9 0.1
v -0.4 0.9 -0.1
v -0.4 1.1 0.2
v -0.4 1.1 0.1
v -0.4 1.1 -0.1
v -0.4 1.1 -0.2
v -0.4 1.2 0.1
v -0.4 1.2 -0.1
v -0.4 1.8 0.1
v -0.4 1.8 -0.1
v -0.4 1.9 0.2
v -0.4 1.9 0.1
v -0.4 1.9 -0.1
v -0.4 1.9 -0.2
v -0.4 2.1 0.1
v -0.4 2.1 -0.1
v -0.4 2.2 0.3
v -0.4 2.2 0.2
v -0.4 2.2 0.1
v -0.4 2.2 -0.1
v -0.4 2.2 -0.2
v -0.4 2.2 -0.3
v -0.4 2.8 0.3
v -0.4 2.8 0.2
v -0.4 2.8 -0.2
v -0.4 2.8 -0.3
v -0.3 0 0.6
v -0.3 0 0.5
v -0.3 0 -0.5
v -0.3 0 -0.6
v -0.3 0.1 0.6
v -0.3 0.1 0.5
v -0.3 0.1 -0.5
v -0.3 0.1 -0.6
v -0.3 0.2 0.6
v -0.3 0.2 0.5
v -0.3 0.2 0.4
v -0.3 0.2 0.3
v -0.3 0.2 -0.3
v -0.3 0.2 -0.4
v -0.3 0.2 -0.5
v -0.3 0.2 -0.6
v -0.3 0.4 0.4
v -0.3 0.4 0.3
v -0.3 0.4 -0.3
v -0.3 0.4 -0.4
v -0.3 0.8 0.4
v -0.3 0.8 0.3
v -0.3 0.8 0.2
v -0.3 0.8 -0.2
v -0.3 0.8 -0.3
v -0.3 0.8 -0.4
v -0.3 1.1 0.3
v -0.3 1.1 0.2
v -0.3 1.1 0.1
v -0.3 1.1 -0.1
v -0.3 1.1 -0.2
v -0.3 1.1 -0.3
v -0.3 1.2 0.1
v -0.3 1.2 -0.1
v -0.3 1.3 0.2
v -0.3 1.3 -0.2
v -0.3 1.7 0.2
v -0.3 1.7 -0.2
v -0.3 1.8 0.1
v -0.3 1.8 -0.1
v -0.3 1.9 0.3
v -0.3 1.9 0.2
v -0.3 1.9 0.1
v -0.3 1.9 -0.1
v -0.3 1.9 -0.2
v -0.3 1.9 -0.3
v -0.3 2.2 0.4
v -0.3 2.2 0.3
v -0.3 2.2 0.2
v -0.3 2.2 -0.2
v -0.3 2.2 -0.3
v -0.3 2.2 -0.4
v -0.3 2.8 0.6
v -0.3 2.8 0.5
v -0.3 2.8 0.4
v -0.3 2.8 0.3
v -0.3 2.8 -0.3
v -0.3 2.8 -0.4
v -0.3 2.8 -0.5
v -0.3 2.8 -0.6
v -0.3 2.9 0.6
v -0.3 2.9 0.5
v -0.3 2.9 -0.5
v -0.3 2.9 -0.6
v -0.3 3 0.6
v -0.3 3 0.5
v -0.3 3 -0.5
v -0.3 3 -0.6
v -0.2 0.2 0.5
v -0.2 0.2 0.4
v -0.2 0.2 -0.4
v -0.2 0.2 -0.5
v -0.2 0.4 0.5
v -0.2 0.4 0.4
v -0.2 0.4 -0.4
v -0.2 0.5 -0.4
v -0.2 0.5 -0.5
v -0.2 0.8 0.5
v -0.2 0.8 0.4
v -0.2 0.8 0.3
v -0.2 0.8 -0.3
v -0.2 0.8 -0.4
v -0.2 0.8 -0.5
v -0.2 1.1 0.4
v -0.2 1.1 0.3
v -0.2 1.1 0.2
v -0.2 1.1 -0.2
v -0.2 1.1 -0.3
v -0.2 1.1 -0.4
v -0.2 1.3 0.3
v -0.2 1.3 0.2
v -0.2 1.3 0.1
v -0.2 1.3 -0.1
v -0.2 1.3 -0.2
v -0.2 1.3 -0.3
v -0.2 1.4 0.1
v -0.2 1.4 -0.1
v -0.2 1.6 0.1
v -0.2 1.6 -0.1
v -0.2 1.7 0.3
v -0.2 1.7 0.2
v -0.2 1.7 0.1
v -0.2 1.7 -0.1
v -0.2 1.7 -0.2
v -0.2 1.7 -0.3
v -0.2 1.9 0.4
v -0.2 1.9 0.3
v -0.2 1.9 0.2
v -0.2 1.9 -0.2
v -0.2 1.9 -0.3
v -0.2 1.9 -0.4
v -0.2 2.2 0.5
v -0.2 2.2 0.4
v -0.2 2.2 0.3
v -0.2 2.2 -0.3
v -0.2 2.2 -0.4
v -0.2 2.2 -0.5
v -0.2 2.8 0.5
v -0.2 2.8 0.4
v -0.2 2.8 -0.4
v -0.2 2.8 -0.5
v -0.1 0.8 0.5
v -0.1 0.8 0.4
v -0.1 0.8 -0.4
v -0.1 0.8 -0.5
v -0.1 1 0.5
v -0.1 1 0.4
v -0.1 1 -0.4
v -0.1 1 -0.5
v -0.1 1.1 0.4
v -0.1 1.1 0.3
v -0.1 1.1 -0.3
v -0.1 1.1 -0.4
v -0.1 1.2 0.4
v -0.1 1.2 0.3
v -0.1 1.2 -0.3
v -0.1 1.2 -0.4
v -0.1 1.3 0.2
v -0.1 1.3 0.1
v -0.1 1.3 -0.1
v -0.1 1.3 -0.2
v -0.1 1.4 0.2
v -0.1 1.4 0.1
v -0.1 1.4 -0.1
v -0.1 1.4 -0.2
v -0.1 1.5 0.1
v -0.1 1.5 -0.1
v -0.1 1.6 0.2
v -0.1 1.6 0.1
v -0.1 1.6 -0.1
v -0.1 1.6 -0.2
v -0.1 1.7 0.2
v -0.1 1.7 0.1
v -0.1 1.7 -0.1
v -0.1 1.7 -0.2
v -0.1 1.8 0.4
v -0.1 1.8 0.3
v -0.1 1.8 -0.3
v -0.1 1.8 -0.4
v -0.1 1.9 0.4
v -0.1 1.9 0.3
v -0.1 1.9 -0.3
v -0.1 1.9 -0.4
v -0.1 2.1 0.5
v -0.1 2.1 0.4
v -0.1 2.1 -0.4
v -0.1 2.1 -0.5
v -0.1 2.2 0.5
v -0.1 2.2 0.4
v -0.1 2.2 -0.4
v -0.1 2.2 -0.5
v 0.1 0.6 0.4
v 0.1 0.6 0.3
v 0.1 0.6 -0.3
v 0.1 0.6 -0.4
v 0.1 0.8 0.4
v 0.1 0.8 0.3
v 0.1 0.8 0.2
v 0.1 0.8 -0.2
v 0.1 0.8 -0.3
v 0.1 0.8 -0.4
v 0.1 0.9 0.3
v 0.1 0.9 0.2
v 0.1 0.9 0.1
v 0.1 0.9 -0.1
v 0.1 0.9 -0.2
v 0.1 0.9 -0.3
v 0.1 1.1 0.2
v 0.1 1.1 0.1
v 0.1 1.1 -0.1
v 0.1 1.1 -0.2
v 0.1 1.3 0.1
v 0.1 1.3 -0.1
v 0.1 1.6 0.1
v 0.1 1.6 -0.1
v 0.1 1.9 0.2
v 0.1 1.9 0.1
v 0.1 1.9 -0.1
v 0.1 1.9 -0.2
v 0.1 2.1 0.3
v 0.1 2.1 0.2
v 0.1 2.1 0.1
v 0.1 2.1 -0.1
v 0.1 2.1 -0.2
v 0.1 2.1 -0.3
v 0.1 2.2 0.4
v 0.1 2.2 0.3
v 0.1 2.2 0.2
v 0.1 2.2 -0.2
v 0.1 2.2 -0.3
v 0.1 2.2 -0.4
v 0.1 2.4 0.4
v 0.1 2.4 0.3
v 0.1 2.4 -0.3
v 0.1 2.4 -0.4
v 0.2 0.2 0.4
v 0.2 0.2 0.3
v 0.2 0.2 -0.3
v 0.2 0.2 -0.4
v 0.2 0.5 0.4
v 0.2 0.5 0.3
v 0.2 0.5 -0.3
v 0.2 0.5 -0.4
v 0.2 0.6 0.4
v 0.2 0.6 0.3
v 0.2 0.6 -0.3
v 0.2 0.6 -0.4
v 0.2 0.8 0.2
v 0.2 0.8 0.1
v 0.2 0.8 -0.1
v 0.2 0.8 -0.2
v 0.2 0.9 0.2
v 0.2 0.9 0.1
v 0.2 0.9 -0.1
v 0.2 0.9 -0.2
v 0.2 1.1 0.1
v 0.2 1.1 -0.1
v 0.2 1.9 0.1
v 0.2 1.9 -0.1
v 0.2 2.1 0.2
v 0.2 2.1 0.1
v 0.2 2.1 -0.1
v 0.2 2.1 -0.2
v 0.2 2.2 0.2
v 0.2 2.2 0.1
v 0.2 2.2 -0.1
v 0.2 2.2 -0.2
v 0.2 2.4 0.4
v 0.2 2.4 0.3
v 0.2 2.4 -0.3
v 0.2 2.4 -0.4
v 0.2 2.8 0.4
v 0.2 2.8 0.3
v 0.2 2.8 -0.3
v 0.2 2.8 -0.4
v 0.3 0.2 0.3
v 0.3 0.2 0.2
v 0.3 0.2 -0.2
v 0.3 0.2 -0.3
v 0.3 0.4 0.3
v 0.3 0.4 0.2
v 0.3 0.4 -0.2
v 0.3 0.4 -0.3
v 0.3 0.5 0.3
v 0.3 0.5 -0.3
v 0.3 0.8 0.3
v 0.3 0.8 0.2
v 0.3 0.8 0.1
v 0.3 0.8 -0.1
v 0.3 0.8 -0.2
v 0.3 0.8 -0.3
v 0.3 0.9 0.1
v 0.3 0.9 -0.1
v 0.3 2.1 0.1
v 0.3 2.1 -0.1
v 0.3 2.2 0.3
v 0.3 2.2 0.2
v 0.3 2.2 0.1
v 0.3 2.2 -0.1
v 0.3 2.2 -0.2
v 0.3 2.2 -0.3
v 0.3 2.8 0.3
v 0.3 2.8 0.2
v 0.3 2.8 -0.2
v 0.3 2.8 -0.3
v 0.4 0.2 0.2
v 0.4 0.2 0.1
v 0.4 0.2 -0.1
v 0.4 0.2 -0.2
v 0.4 0.4 0.2
v 0.4 0.4 -0.1
v 0.4 0.4 -0.2
v 0.4 0.5 0.2
v 0.4 0.5 0.1
v 0.4 0.8 0.2
v 0.4 0.8 -0.2
v 0.4 2.2 0.2
v 0.4 2.2 -0.2
v 0.4 2.8 0.2
v 0.4 2.8 -0.2
v 0.5 0.9 0.1
v 0.5 0.9 -0.1
v 0.5 1.4 0.1
v 0.5 1.4 0
v 0.5 1.5 0.1
v 0.5 1.5 0
v 0.5 1.7 0
v 0.5 1.7 -0.1
v 0.5 1.8 0
v 0.5 1.8 -0.1
v 0.5 2.1 0.1
v 0.5 2.1 -0.1
v -0.5 0.9 0.1
v -0.5 0.9 -0.1
v -0.5 1.4 0.1
v -0.5 1.4 0
v -0.5 1.5 0.1
v -0.5 1.5 0
v -0.5 1.7 0
v -0.5 1.7 -0.1
v -0.5 1.8 0
v -0.5 1.8 -0.1
v -0.5 2.1 0.1
v -0.5 2.1 -0.1
v -0.4 0.2 0.2
v -0.4 0.2 0.1
v -0.4 0.2 -0.1
v -0.4 0.2 -0.2
v -0.4 0.4 0.2
v -0.4 0.4 0.1
v -0.4 0.4 -0.1
v -0.4 0.4 -0.2
v -0.4 0.8 0.2
v -0.4 0.8 -0.2
v -0.4 2.2 0.2
v -0.4 2.2 -0.2
v -0.4 2.8 0.2
v -0.4 2.8 -0.2
v -0.3 0.2 0.3
v -0.3 0.2 0.2
v -0.3 0.2 -0.2
v -0.3 0.2 -0.3
v -0.3 0.4 0.3
v -0.3 0.4 0.2
v -0.3 0.4 -0.2
v -0.3 0.4 -0.3
v -0.3 0.8 0.3
v -0.3 0.8 0.2
v -0.3 0.8 0.1
v -0.3 0.8 -0.1
v -0.3 0.8 -0.2
v -0.3 0.8 -0.3
v -0.3 0.9 0.1
v -0.3 0.9 -0.1
v -0.3 2.1 0.1
v -0.3 2.1 -0.1
v -0.3 2.2 0.3
v -0.3 2.2 0.2
v -0.3 2.2 0.1
v -0.3 2.2 -0.1
v -0.3 2.2 -0.2
v -0.3 2.2 -0.3
v -0.3 2.8 0.3
v -0.3 2.8 0.2
v -0.3 2.8 -0.2
v -0.3 2.8 -0.3
v -0.2 0.2 0.4
v -0.2 0.2 0.3
v -0.2 0.2 -0.3
v -0.2 0.2 -0.4
v -0.2 0.4 0.4
v -0.2 0.4 0.3
v -0.2 0.4 -0.3
v -0.2 0.4 -0.4
v -0.2 0.5 -0.4
v -0.2 0.6 0.4
v -0.2 0.6 0.3
v -0.2 0.6 -0.3
v -0.2 0.6 -0.4
v -0.2 0.8 0.2
v -0.2 0.8 0.1
v -0.2 0.8 -0.1
v -0.2 0.8 -0.2
v -0.2 0.9 0.2
v -0.2 0.9 0.1
v -0.2 0.9 -0.1
v -0.2 0.9 -0.2
v -0.2 1.1 0.1
v -0.2 1.1 -0.1
v -0.2 1.9 0.1
v -0.2 1.9 -0.1
v -0.2 2.1 0.2
v -0.2 2.1 0.1
v -0.2 2.1 -0.1
v -0.2 2.1 -0.2
v -0.2 2.2 0.2
v -0.2 2.2 0.1
v -0.2 2.2 -0.1
v -0.2 2.2 -0.2
v -0.2 2.4 0.4
v -0.2 2.4 0.3
v -0.2 2.4 -0.3
v -0.2 2.4 -0.4
v -0.2 2.8 0.4
v -0.2 2.8 0.3
v -0.2 2.8 -0.3
v -0.2 2.8 -0.4
v -0.1 0.6 0.4
v -0.1 0.6 0.3
v -0.1 0.6 -0.3
v -0.1 0.6 -0.4
v -0.1 0.7 0.4
v -0.1 0.8 0.4
v -0.1 0.8 0.3
v -0.1 0.8 0.2
v -0.1 0.8 -0.2
v -0.1 0.8 -0.3
v -0.1 0.8 -0.4
v -0.1 0.9 0.3
v -0.1 0.9 0.2
v -0.1 0.9 0.1
v -0.1 0.9 -0.1
v -0.1 0.9 -0.2
v -0.1 0.9 -0.3
v -0.1 1.1 0.2
v -0.1 1.1 0.1
v -0.1 1.1 -0.1
v -0.1 1.1 -0.2
v -0.1 1.3 0.1
v -0.1 1.3 -0.1
v -0.1 1.6 0.1
v -0.1 1.6 -0.1
v -0.1 1.9 0.2
v -0.1 1.9 0.1
v -0.1 1.9 -0.1
v -0.1 1.9 -0.2
v -0.1 2.1 0.3
v -0.1 2.1 0.2
v -0.1 2.1 0.1
v -0.1 2.1 -0.1
v -0.1 2.1 -0.2
v -0.1 2.1 -0.3
v -0.1 2.2 0.4
v -0.1 2.2 0.3
v -0.1 2.2 0.2
v -0.1 2.2 -0.2
v -0.1 2.2 -0.3
v -0.1 2.2 -0.4
v -0.1 2.4 0.4
v -0.1 2.4 0.3
v -0.1 2.4 -0.3
v -0.1 2.4 -0.4
v 0.1 0.8 0.5
v 0.1 0.8 0.4
v 0.1 0.8 -0.4
v 0.1 0.8 -0.5
v 0.1 1 0.5
v 0.1 1 0.4
v 0.1 1 -0.4
v 0.1 1 -0.5
v 0.1 1.1 0.4
v 0.1 1.1 0.3
v 0.1 1.1 -0.3
v 0.1 1.1 -0.4
v 0.1 1.2 0.4
v 0.1 1.2 0.3
v 0.1 1.2 -0.3
v 0.1 1.2 -0.4
v 0.1 1.3 0.2
v 0.1 1.3 0.1
v 0.1 1.3 -0.1
v 0.1 1.3 -0.2
v 0.1 1.4 0.2
v 0.1 1.4 0.1
v 0.1 1.4 0
v 0.1 1.4 -0.1
v 0.1 1.4 -0.2
v 0.1 1.5 0
v 0.1 1.5 -0.1
v 0.1 1.6 0.2
v 0.1 1.6 0.1
v 0.1 1.6 -0.1
v 0.1 1.6 -0.2
v 0.1 1.7 0.2
v 0.1 1.7 0.1
v 0.1 1.7 -0.1
v 0.1 1.7 -0.2
v 0.1 1.8 0.4
v 0.1 1.8 0.3
v 0.1 1.8 -0.3
v 0.1 1.8 -0.4
v 0.1 1.9 0.4
v 0.1 1.9 0.3
v 0.1 1.9 -0.3
v 0.1 1.9 -0.4
v 0.1 2.1 0.5
v 0.1 2.1 0.4
v 0.1 2.1 -0.4
v 0.1 2.1 -0.5
v 0.1 2.2 0.5
v 0.1 2.2 0.4
v 0.1 2.2 -0.4
v 0.1 2.2 -0.5
v 0.2 0.2 0.5
v 0.2 0.2 0.4
v 0.2 0.2 -0.4
v 0.2 0.2 -0.5
v 0.2 0.5 0.5
v 0.2 0.5 0.4
v 0.2 0.5 -0.4
v 0.2 0.5 -0.5
v 0.2 0.8 0.5
v 0.2 0.8 0.4
v 0.2 0.8 0.3
v 0.2 0.8 -0.3
v 0.2 0.8 -0.4
v 0.2 0.8 -0.5
v 0.2 1.1 0.4
v 0.2 1.1 0.3
v 0.2 1.1 0.2
v 0.2 1.1 -0.2
v 0.2 1.1 -0.3
v 0.2 1.1 -0.4
v 0.2 1.3 0.3
v 0.2 1.3 0.2
v 0.2 1.3 0.1
v 0.2 1.3 -0.1
v 0.2 1.3 -0.2
v 0.2 1.3 -0.3
v 0.2 1.4 0.1
v 0.2 1.4 -0.1
v 0.2 1.6 0.1
v 0.2 1.6 -0.1
v 0.2 1.7 0.3
v 0.2 1.7 0.2
v 0.2 1.7 0.1
v 0.2 1.7 -0.1
v 0.2 1.7 -0.2
v 0.2 1.7 -0.3
v 0.2 1.9 0.4
v 0.2 1.9 0.3
v 0.2 1.9 0.2
v 0.2 1.9 -0.2
v 0.2 1.9 -0.3
v 0.2 1.9 -0.4
v 0.2 2 0.4
v 0.2 2 0.3
v 0.2 2.2 0.5
v 0.2 2.2 0.4
v 0.2 2.2 0.3
v 0.2 2.2 -0.3
v 0.2 2.2 -0.4
v 0.2 2.2 -0.5
v 0.2 2.8 0.5
v 0.2 2.8 0.4
v 0.2 2.8 -0.4
v 0.2 2.8 -0.5
v 0.3 0 0.6
v 0.3 0 0.5
v 0.3 0 -0.5
v 0.3 0 -0.6
v 0.3 0.1 0.6
v 0.3 0.1 0.5
v 0.3 0.1 -0.5
v 0.3 0.1 -0.6
v 0.3 0.2 0.6
v 0.3 0.2 0.5
v 0.3 0.2 0.4
v 0.3 0.2 0.3
v 0.3 0.2 -0.3
v 0.3 0.2 -0.4
v 0.3 0.2 -0.5
v 0.3 0.2 -0.6
v 0.3 0.4 0.3
v 0.3 0.4 -0.3
v 0.3 0.5 0.4
v 0.3 0.5 0.3
v 0.3 0.5 -0.3
v 0.3 0.5 -0.4
v 0.3 0.8 0.4
v 0.3 0.8 0.3
v 0.3 0.8 0.2
v 0.3 0.8 -0.2
v 0.3 0.8 -0.3
v 0.3 0.8 -0.4
v 0.3 1.1 0.3
v 0.3 1.1 0.2
v 0.3 1.1 0.1
v 0.3 1.1 -0.1
v 0.3 1.1 -0.2
v 0.3 1.1 -0.3
v 0.3 1.2 0.1
v 0.3 1.2 -0.1
v 0.3 1.3 0.2
v 0.3 1.3 -0.2
v 0.3 1.7 0.2
v 0.3 1.7 -0.2
v 0.3 1.8 0.1
v 0.3 1.8 -0.1
v 0.3 1.9 0.3
v 0.3 1.9 0.2
v 0.3 1.9 0.1
v 0.3 1.9 -0.1
v 0.3 1.9 -0.2
v 0.3 1.9 -0.3
v 0.3 2 0.3
v 0.3 2 0.2
v 0.3 2.2 0.4
v 0.3 2.2 0.3
v 0.3 2.2 0.2
v 0.3 2.2 -0.2
v 0.3 2.2 -0.3
v 0.3 2.2 -0.4
v 0.3 2.8 0.6
v 0.3 2.8 0.5
v 0.3 2.8 0.4
v 0.3 2.8 0.3
v 0.3 2.8 -0.3
v 0.3 2.8 -0.4
v 0.3 2.8 -0.5
v 0.3 2.8 -0.6
v 0.3 2.9 0.6
v 0.3 2.9 0.5
v 0.3 2.9 -0.5
v 0.3 2.9 -0.6
v 0.3 3 0.6
v 0.3 3 0.5
v 0.3 3 -0.5
v 0.3 3 -0.6
v 0.4 0.2 0.3
v 0.4 0.2 0.2
v 0.4 0.2 -0.2
v 0.4 0.2 -0.3
v 0.4 0.4 0.3
v 0.4 0.4 0.2
v 0.4 0.4 -0.2
v 0.4 0.4 -0.3
v 0.4 0.5 0.2
v 0.4 0.8 0.3
v 0.4 0.8 0.2
v 0.4 0.8 0.1
v 0.4 0.8 -0.1
v 0.4 0.8 -0.2
v 0.4 0.8 -0.3
v 0.4 0.9 0.1
v 0.4 0.9 -0.1
v 0.4 1.1 0.2
v 0.4 1.1 0.1
v 0.4 1.1 -0.1
v 0.4 1.1 -0.2
v 0.4 1.2 0.1
v 0.4 1.2 -0.1
v 0.4 1.8 0.1
v 0.4 1.8 -0.1
v 0.4 1.9 0.2
v 0.4 1.9 0.1
v 0.4 1.9 0
v 0.4 1.9 -0.1
v 0.4 1.9 -0.2
v 0.4 2 0.1
v 0.4 2 0
v 0.4 2.1 0.1
v 0.4 2.1 -0.1
v 0.4 2.2 0.3
v 0.4 2.2 0.2
v 0.4 2.2 0.1
v 0.4 2.2 -0.1
v 0.4 2.2 -0.2
v 0.4 2.2 -0.3
v 0.4 2.8 0.3
v 0.4 2.8 0.2
v 0.4 2.8 -0.2
v 0.4 2.8 -0.3
v 0.5 0 0.5
v 0.5 0 0.4
v 0.5 0 0.3
v 0.5 0 -0.3
v 0.5 0 -0.4
v 0.5 0 -0.5
v 0.5 0.1 0.5
v 0.5 0.1 0.4
v 0.5 0.1 0.3
v 0.5 0.1 -0.3
v 0.5 0.1 -0.4
v 0.5 0.1 -0.5
v 0.5 0.2 0.5
v 0.5 0.2 0.3
v 0.5 0.2 0.2
v 0.5 0.2 0.1
v 0.5 0.2 -0.1
v 0.5 0.2 -0.2
v 0.5 0.2 -0.3
v 0.5 0.2 -0.5
v 0.5 0.3 -0.1
v 0.5 0.4 -0.1
v 0.5 0.4 -0.2
v 0.5 0.5 0.2
v 0.5 0.5 0.1
v 0.5 0.8 0.2
v 0.5 0.8 0.1
v 0.5 0.8 -0.1
v 0.5 0.8 -0.2
v 0.5 2.2 0.2
v 0.5 2.2 0.1
v 0.5 2.2 -0.1
v 0.5 2.2 -0.2
v 0.5 2.3 -0.1
v 0.5 2.5 0.1
v 0.5 2.6 0.1
v 0.5 2.8 0.5
v 0.5 2.8 0.3
v 0.5 2.8 0.2
v 0.5 2.8 0.1
v 0.5 2.8 -0.1
v 0.5 2.8 -0.2
v 0.5 2.8 -0.3
v 0.5 2.8 -0.5
v 0.5 2.9 0.5
v 0.5 2.9 0.4
v 0.5 2.9 0.3
v 0.5 2.9 -0.3
v 0.5 2.9 -0.4
v 0.5 2.9 -0.5
v 0.5 3 0.5
v 0.5 3 0.4
v 0.5 3 0.3
v 0.5 3 -0.3
v 0.5 3 -0.4
v 0.5 3 -0.5
v 0.6 0 0.3
v 0.6 0 0.1
v 0.6 0 0
v 0.6 0 -0.3
v 0.6 0.1 0.3
v 0.6 0.1 0.2
v 0.6 0.1 0.1
v 0.6 0.1 0
v 0.6 0.1 -0.2
v 0.6 0.1 -0.3
v 0.6 0.2 0.3
v 0.6 0.2 0.2
v 0.6 0.2 0.1
v 0.6 0.2 -0.1
v 0.6 0.2 -0.2
v 0.6 0.2 -0.3
v 0.6 0.3 0
v 0.6 0.3 -0.1
v 0.6 0.4 0
v 0.6 0.4 -0.1
v 0.6 0.8 0.1
v 0.6 0.8 0
v 0.6 0.9 0.1
v 0.6 0.9 0
v 0.6 1.4 0.1
v 0.6 1.4 0
v 0.6 1.5 0.1
v 0.6 1.5 0
v 0.6 1.7 0
v 0.6 1.7 -0.1
v 0.6 1.8 0
v 0.6 1.8 -0.1
v 0.6 2.2 0
v 0.6 2.2 -0.1
v 0.6 2.3 0
v 0.6 2.3 -0.1
v 0.6 2.5 0.1
v 0.6 2.5 0
v 0.6 2.6 0.1
v 0.6 2.6 0
v 0.6 2.8 0.3
v 0.6 2.8 0.2
v 0.6 2.8 0.1
v 0.6 2.8 -0.1
v 0.6 2.8 -0.2
v 0.6 2.8 -0.3
v 0.6 2.9 0.3
v 0.6 2.9 0.2
v 0.6 2.9 0.1
v 0.6 2.9 0
v 0.6 2.9 -0.2
v 0.6 2.9 -0.3
v 0.6 3 0.3
v 0.6 3 0.1
v 0.6 3 0
v 0.6 3 -0.3
v -0.3 0 0.6
v -0.3 0.1 0.6
v -0.3 0.2 0.6
v -0.3 2.8 0.6
v -0.3 2.9 0.6
v -0.3 3 0.6
v -0.2 0.1 0.6
v -0.2 0.2 0.6
v -0.2 2.8 0.6
v -0.2 2.9 0.6
v 0.2 0.1 0.6
v 0.2 0.2 0.6
v 0.2 2.8 0.6
v 0.2 2.9 0.6
v 0.3 0 0.6
v 0.3 0.1 0.6
v 0.3 0.2 0.6
v 0.3 2.8 0.6
v 0.3 2.9 0.6
v 0.3 3 0.6
v -0.5 0 0.5
v -0.5 0.1 0.5
v -0.5 0.2 0.5
v -0.5 2.8 0.5
v -0.5 2.9 0.5
v -0.5 3 0.5
v -0.4 0 0.5
v -0.4 0.1 0.5
v -0.4 2.9 0.5
v -0.4 3 0.5
v -0.3 0 0.5
v -0.3 0.1 0.5
v -0.3 0.2 0.5
v -0.3 2.8 0.5
v -0.3 2.9 0.5
v -0.3 3 0.5
v -0.2 0.2 0.5
v -0.2 0.4 0.5
v -0.2 0.8 0.5
v -0.2 2.2 0.5
v -0.2 2.8 0.5
v -0.1 0.6 0.5
v -0.1 0.7 0.5
v -0.1 0.8 0.5
v -0.1 1 0.5
v -0.1 2.1 0.5
v -0.1 2.2 0.5
v 0 0.4 0.5
v 0 0.5 0.5
v 0 0.6 0.5
v 0 0.7 0.5
v 0.1 0.8 0.5
v 0.1 1 0.5
v 0.1 2.1 0.5
v 0.1 2.2 0.5
v 0.2 0.2 0.5
v 0.2 0.5 0.5
v 0.2 0.8 0.5
v 0.2 2.2 0.5
v 0.2 2.8 0.5
v 0.3 0 0.5
v 0.3 0.1 0.5
v 0.3 0.2 0.5
v 0.3 2.8 0.5
v 0.3 2.9 0.5
v 0.3 3 0.5
v 0.4 0 0.5
v 0.4 0.1 0.5
v 0.4 2.9 0.5
v 0.4 3 0.5
v 0.5 0 0.5
v 0.5 0.1 0.5
v 0.5 0.2 0.5
v 0.5 2.8 0.5
v 0.5 2.9 0.5
v 0.5 3 0.5
v -0.3 0.2 0.4
v -0.3 0.4 0.4
v -0.3 0.8 0.4
v -0.3 2.2 0.4
v -0.3 2.8 0.4
v -0.2 0.2 0.4
v -0.2 0.4 0.4
v -0.2 0.8 0.4
v -0.2 1.1 0.4
v -0.2 1.9 0.4
v -0.2 2.2 0.4
v -0.2 2.8 0.4
v -0.1 0.8 0.4
v -0.1 1 0.4
v -0.1 1.1 0.4
v -0.1 1.2 0.4
v -0.1 1.8 0.4
v -0.1 1.9 0.4
v -0.1 2 0.4
v -0.1 2.1 0.4
v -0.1 2.2 0.4
v 0.1 0.8 0.4
v 0.1 1 0.4
v 0.1 1.1 0.4
v 0.1 1.2 0.4
v 0.1 1.8 0.4
v 0.1 1.9 0.4
v 0.1 2.1 0.4
v 0.1 2.2 0.4
v 0.2 0.2 0.4
v 0.2 0.5 0.4
v 0.2 0.8 0.4
v 0.2 1.1 0.4
v 0.2 1.9 0.4
v 0.2 2 0.4
v 0.2 2.2 0.4
v 0.2 2.8 0.4
v 0.3 0.2 0.4
v 0.3 0.5 0.4
v 0.3 0.8 0.4
v 0.3 2.2 0.4
v 0.3 2.8 0.4
v -0.6 0 0.3
v -0.6 0.1 0.3
v -0.6 0.2 0.3
v -0.6 2.8 0.3
v -0.6 2.9 0.3
v -0.6 3 0.3
v -0.5 0 0.3
v -0.5 0.1 0.3
v -0.5 0.2 0.3
v -0.5 2.8 0.3
v -0.5 2.9 0.3
v -0.5 3 0.3
v -0.4 0.2 0.3
v -0.4 0.4 0.3
v -0.4 0.8 0.3
v -0.4 2.2 0.3
v -0.4 2.8 0.3
v -0.3 0.2 0.3
v -0.3 0.4 0.3
v -0.3 0.8 0.3
v -0.3 1.1 0.3
v -0.3 1.9 0.3
v -0.3 2.2 0.3
v -0.3 2.8 0.3
v -0.2 0.8 0.3
v -0.2 1.1 0.3
v -0.2 1.3 0.3
v -0.2 1.7 0.3
v -0.2 1.9 0.3
v -0.2 2.2 0.3
v -0.1 1.1 0.3
v -0.1 1.2 0.3
v -0.1 1.8 0.3
v -0.1 1.9 0.3
v 0.1 1.1 0.3
v 0.1 1.2 0.3
v 0.1 1.8 0.3
v 0.1 1.9 0.3
v 0.2 0.8 0.3
v 0.2 1.1 0.3
v 0.2 1.3 0.3
v 0.2 1.7 0.3
v 0.2 1.9 0.3
v 0.2 2 0.3
v 0.2 2.2 0.3
v 0.3 0.2 0.3
v 0.3 0.4 0.3
v 0.3 0.5 0.3
v 0.3 0.8 0.3
v 0.3 1.1 0.3
v 0.3 1.9 0.3
v 0.3 2 0.3
v 0.3 2.2 0.3
v 0.3 2.8 0.3
v 0.4 0.2 0.3
v 0.4 0.4 0.3
v 0.4 0.8 0.3
v 0.4 2.2 0.3
v 0.4 2.8 0.3
v 0.5 0 0.3
v 0.5 0.1 0.3
v 0.5 0.2 0.3
v 0.5 2.8 0.3
v 0.5 2.9 0.3
v 0.5 3 0.3
v 0.6 0 0.3
v 0.6 0.1 0.3
v 0.6 0.2 0.3
v 0.6 2.8 0.3
v 0.6 2.9 0.3
v 0.6 3 0.3
v -0.5 0.2 0.2
v -0.5 0.4 0.2
v -0.5 0.8 0.2
v -0.5 2.2 0.2
v -0.5 2.8 0.2
v -0.4 0.2 0.2
v -0.4 0.4 0.2
v -0.4 0.8 0.2
v -0.4 1.1 0.2
v -0.4 1.9 0.2
v -0.4 2.2 0.2
v -0.4 2.8 0.2
v -0.3 0.8 0.2
v -0.3 1.1 0.2
v -0.3 1.3 0.2
v -0.3 1.7 0.2
v -0.3 1.9 0.2
v -0.3 2.2 0.2
v -0.2 1.1 0.2
v -0.2 1.3 0.2
v -0.2 1.7 0.2
v -0.2 1.9 0.2
v -0.1 1.3 0.2
v -0.1 1.4 0.2
v -0.1 1.6 0.2
v -0.1 1.7 0.2
v 0.1 1.3 0.2
v 0.1 1.4 0.2
v 0.1 1.6 0.2
v 0.1 1.7 0.2
v 0.2 1.1 0.2
v 0.2 1.3 0.2
v 0.2 1.7 0.2
v 0.2 1.9 0.2
v 0.3 0.8 0.2
v 0.3 1.1 0.2
v 0.3 1.3 0.2
v 0.3 1.7 0.2
v 0.3 1.9 0.2
v 0.3 2 0.2
v 0.3 2.2 0.2
v 0.4 0.2 0.2
v 0.4 0.4 0.2
v 0.4 0.5 0.2
v 0.4 0.8 0.2
v 0.4 1.1 0.2
v 0.4 1.9 0.2
v 0.4 2.2 0.2
v 0.4 2.8 0.2
v 0.5 0.2 0.2
v 0.5 0.5 0.2
v 0.5 0.8 0.2
v 0.5 2.2 0.2
v 0.5 2.8 0.2
v -0.6 0.2 0.1
v -0.6 0.8 0.1
v -0.6 0.9 0.1
v -0.6 1.4 0.1
v -0.6 1.5 0.1
v -0.6 2.5 0.1
v -0.6 2.6 0.1
v -0.6 2.8 0.1
v -0.5 0.2 0.1
v -0.5 0.4 0.1
v -0.5 0.8 0.1
v -0.5 0.9 0.1
v -0.5 1.4 0.1
v -0.5 1.5 0.1
v -0.5 2.1 0.1
v -0.5 2.2 0.1
v -0.5 2.5 0.1
v -0.5 2.6 0.1
v -0.5 2.8 0.1
v -0.4 0.8 0.1
v -0.4 0.9 0.1
v -0.4 1.1 0.1
v -0.4 1.2 0.1
v -0.4 1.8 0.1
v -0.4 1.9 0.1
v -0.4 2.1 0.1
v -0.4 2.2 0.1
v -0.3 1.1 0.1
v -0.3 1.2 0.1
v -0.3 1.8 0.1
v -0.3 1.9 0.1
v -0.2 1.3 0.1
v -0.2 1.4 0.1
v -0.2 1.6 0.1
v -0.2 1.7 0.1
v -0.1 1.3 0.1
v -0.1 1.4 0.1
v -0.1 1.5 0.1
v -0.1 1.6 0.1
v -0.1 1.7 0.1
v 0 1.4 0.1
v 0 1.5 0.1
v 0.1 1.3 0.1
v 0.1 1.4 0.1
v 0.1 1.6 0.1
v 0.1 1.7 0.1
v 0.2 1.3 0.1
v 0.2 1.4 0.1
v 0.2 1.6 0.1
v 0.2 1.7 0.1
v 0.3 1.1 0.1
v 0.3 1.2 0.1
v 0.3 1.8 0.1
v 0.3 1.9 0.1
v 0.4 0.8 0.1
v 0.4 0.9 0.1
v 0.4 1.1 0.1
v 0.4 1.2 0.1
v 0.4 1.8 0.1
v 0.4 1.9 0.1
v 0.4 2.1 0.1
v 0.4 2.2 0.1
v 0.5 0.2 0.1
v 0.5 0.5 0.1
v 0.5 0.8 0.1
v 0.5 0.9 0.1
v 0.5 1.4 0.1
v 0.5 1.5 0.1
v 0.5 2.1 0.1
v 0.5 2.2 0.1
v 0.5 2.5 0.1
v 0.5 2.6 0.1
v 0.5 2.8 0.1
v 0.6 0.2 0.1
v 0.6 0.8 0.1
v 0.6 0.9 0.1
v 0.6 1.4 0.1
v 0.6 1.5 0.1
v 0.6 2.5 0.1
v 0.6 2.6 0.1
v 0.6 2.8 0.1
v -0.3 0.8 -0.1
v -0.3 0.9 -0.1
v -0.3 2.1 -0.1
v -0.3 2.2 -0.1
v -0.2 0.8 -0.1
v -0.2 0.9 -0.1
v -0.2 1.1 -0.1
v -0.2 1.9 -0.1
v -0.2 2.1 -0.1
v -0.2 2.2 -0.1
v -0.1 0.9 -0.1
v -0.1 1.1 -0.1
v -0.1 1.3 -0.1
v -0.1 1.6 -0.1
v -0.1 1.9 -0.1
v -0.1 2.1 -0.1
v 0.1 0.9 -0.1
v 0.1 1.1 -0.1
v 0.1 1.3 -0.1
v 0.1 1.6 -0.1
v 0.1 1.9 -0.1
v 0.1 2.1 -0.1
v 0.2 0.8 -0.1
v 0.2 0.9 -0.1
v 0.2 1.1 -0.1
v 0.2 1.9 -0.1
v 0.2 2.1 -0.1
v 0.2 2.2 -0.1
v 0.3 0.8 -0.1
v 0.3 0.9 -0.1
v 0.3 2.1 -0.1
v 0.3 2.2 -0.1
v -0.4 0.2 -0.2
v -0.4 0.4 -0.2
v -0.4 0.8 -0.2
v -0.4 2.2 -0.2
v -0.4 2.8 -0.2
v -0.3 0.2 -0.2
v -0.3 0.4 -0.2
v -0.3 0.8 -0.2
v -0.3 2.2 -0.2
v -0.3 2.8 -0.2
v -0.2 0.8 -0.2
v -0.2 0.9 -0.2
v -0.2 2.1 -0.2
v -0.2 2.2 -0.2
v -0.1 0.8 -0.2
v -0.1 0.9 -0.2
v -0.1 1.1 -0.2
v -0.1 1.9 -0.2
v -0.1 2.1 -0.2
v -0.1 2.2 -0.2
v 0.1 0.8 -0.2
v 0.1 0.9 -0.2
v 0.1 1.1 -0.2
v 0.1 1.9 -0.2
v 0.1 2.1 -0.2
v 0.1 2.2 -0.2
v 0.2 0.8 -0.2
v 0.2 0.9 -0.2
v 0.2 2.1 -0.2
v 0.2 2.2 -0.2
v 0.3 0.2 -0.2
v 0.3 0.4 -0.2
v 0.3 0.8 -0.2
v 0.3 2.2 -0.2
v 0.3 2.8 -0.2
v 0.4 0.2 -0.2
v 0.4 0.4 -0.2
v 0.4 0.8 -0.2
v 0.4 2.2 -0.2
v 0.4 2.8 -0.2
v -0.3 0.2 -0.3
v -0.3 0.4 -0.3
v -0.3 0.8 -0.3
v -0.3 2.2 -0.3
v -0.3 2.8 -0.3
v -0.2 0.2 -0.3
v -0.2 0.4 -0.3
v -0.2 0.6 -0.3
v -0.2 2.4 -0.3
v -0.2 2.8 -0.3
v -0.1 0.6 -0.3
v -0.1 0.8 -0.3
v -0.1 0.9 -0.3
v -0.1 2.1 -0.3
v -0.1 2.2 -0.3
v -0.1 2.4 -0.3
v 0.1 0.6 -0.3
v 0.1 0.8 -0.3
v 0.1 0.9 -0.3
v 0.1 2.1 -0.3
v 0.1 2.2 -0.3
v 0.1 2.4 -0.3
v 0.2 0.2 -0.3
v 0.2 0.5 -0.3
v 0.2 0.6 -0.3
v 0.2 2.4 -0.3
v 0.2 2.8 -0.3
v 0.3 0.2 -0.3
v 0.3 0.4 -0.3
v 0.3 0.5 -0.3
v 0.3 0.8 -0.3
v 0.3 2.2 -0.3
v 0.3 2.8 -0.3
v -0.2 0.2 -0.4
v -0.2 0.4 -0.4
v -0.2 0.5 -0.4
v -0.2 0.6 -0.4
v -0.2 2.4 -0.4
v -0.2 2.8 -0.4
v -0.1 0.4 -0.4
v -0.1 0.5 -0.4
v -0.1 0.6 -0.4
v -0.1 0.8 -0.4
v -0.1 2.2 -0.4
v -0.1 2.4 -0.4
v 0.1 0.4 -0.4
v 0.1 0.5 -0.4
v 0.1 0.6 -0.4
v 0.1 0.8 -0.4
v 0.1 2.2 -0.4
v 0.1 2.4 -0.4
v 0.2 0.2 -0.4
v 0.2 0.5 -0.4
v 0.2 0.6 -0.4
v 0.2 2.4 -0.4
v 0.2 2.8 -0.4
v -0.2 0.2 0.4
v -0.2 0.4 0.4
v -0.2 0.6 0.4
v -0.2 2.4 0.4
v -0.2 2.8 0.4
v -0.1 0.6 0.4
v -0.1 0.7 0.4
v -0.1 0.8 0.4
v -0.1 2.2 0.4
v -0.1 2.4 0.4
v 0 0.4 0.4
v 0 0.5 0.4
v 0 0.6 0.4
v 0 0.7 0.4
v 0.1 0.6 0.4
v 0.1 0.8 0.4
v 0.1 2.2 0.4
v 0.1 2.4 0.4
v 0.2 0.2 0.4
v 0.2 0.5 0.4
v 0.2 0.6 0.4
v 0.2 2.4 0.4
v 0.2 2.8 0.4
v -0.3 0.2 0.3
v -0.3 0.4 0.3
v -0.3 0.8 0.3
v -0.3 2.2 0.3
v -0.3 2.8 0.3
v -0.2 0.2 0.3
v -0.2 0.4 0.3
v -0.2 0.6 0.3
v -0.2 2.4 0.3
v -0.2 2.8 0.3
v -0.1 0.6 0.3
v -0.1 0.8 0.3
v -0.1 0.9 0.3
v -0.1 2.1 0.3
v -0.1 2.2 0.3
v -0.1 2.4 0.3
v 0.1 0.6 0.3
v 0.1 0.8 0.3
v 0.1 0.9 0.3
v 0.1 2.1 0.3
v 0.1 2.2 0.3
v 0.1 2.4 0.3
v 0.2 0.2 0.3
v 0.2 0.5 0.3
v 0.2 0.6 0.3
v 0.2 2.4 0.3
v 0.2 2.8 0.3
v 0.3 0.2 0.3
v 0.3 0.4 0.3
v 0.3 0.5 0.3
v 0.3 0.8 0.3
v 0.3 2.2 0.3
v 0.3 2.8 0.3
v -0.4 0.2 0.2
v -0.4 0.4 0.2
v -0.4 0.8 0.2
v -0.4 2.2 0.2
v -0.4 2.8 0.2
v -0.3 0.2 0.2
v -0.3 0.4 0.2
v -0.3 0.8 0.2
v -0.3 2.2 0.2
v -0.3 2.8 0.2
v -0.2 0.8 0.2
v -0.2 0.9 0.2
v -0.2 2.1 0.2
v -0.2 2.2 0.2
v -0.1 0.8 0.2
v -0.1 0.9 0.2
v -0.1 1.1 0.2
v -0.1 1.9 0.2
v -0.1 2.1 0.2
v -0.1 2.2 0.2
v 0.1 0.8 0.2
v 0.1 0.9 0.2
v 0.1 1.1 0.2
v 0.1 1.9 0.2
v 0.1 2.1 0.2
v 0.1 2.2 0.2
v 0.2 0.8 0.2
v 0.2 0.9 0.2
v 0.2 2.1 0.2
v 0.2 2.2 0.2
v 0.3 0.2 0.2
v 0.3 0.4 0.2
v 0.3 0.8 0.2
v 0.3 2.2 0.2
v 0.3 2.8 0.2
v 0.4 0.2 0.2
v 0.4 0.4 0.2
v 0.4 0.5 0.2
v 0.4 0.8 0.2
v 0.4 2.2 0.2
v 0.4 2.8 0.2
v -0.3 0.8 0.1
v -0.3 0.9 0.1
v -0.3 2.1 0.1
v -0.3 2.2 0.1
v -0.2 0.8 0.1
v -0.2 0.9 0.1
v -0.2 1.1 0.1
v -0.2 1.9 0.1
v -0.2 2.1 0.1
v -0.2 2.2 0.1
v -0.1 0.9 0.1
v -0.1 1.1 0.1
v -0.1 1.3 0.1
v -0.1 1.6 0.1
v -0.1 1.9 0.1
v -0.1 2.1 0.1
v 0.1 0.9 0.1
v 0.1 1.1 0.1
v 0.1 1.3 0.1
v 0.1 1.6 0.1
v 0.1 1.9 0.1
v 0.1 2.1 0.1
v 0.2 0.8 0.1
v 0.2 0.9 0.1
v 0.2 1.1 0.1
v 0.2 1.9 0.1
v 0.2 2.1 0.1
v 0.2 2.2 0.1
v 0.3 0.8 0.1
v 0.3 0.9 0.1
v 0.3 2.1 0.1
v 0.3 2.2 0.1
v -0.6 0.2 -0.1
v -0.6 0.3 -0.1
v -0.6 0.4 -0.1
v -0.6 1.7 -0.1
v -0.6 1.8 -0.1
v -0.6 2.2 -0.1
v -0.6 2.3 -0.1
v -0.6 2.8 -0.1
v -0.5 0.2 -0.1
v -0.5 0.3 -0.1
v -0.5 0.4 -0.1
v -0.5 0.8 -0.1
v -0.5 0.9 -0.1
v -0.5 1.7 -0.1
v -0.5 1.8 -0.1
v -0.5 2.1 -0.1
v -0.5 2.2 -0.1
v -0.5 2.3 -0.1
v -0.5 2.8 -0.1
v -0.4 0.8 -0.1
v -0.4 0.9 -0.1
v -0.4 1.1 -0.1
v -0.4 1.2 -0.1
v -0.4 1.8 -0.1
v -0.4 1.9 -0.1
v -0.4 2.1 -0.1
v -0.4 2.2 -0.1
v -0.3 1.1 -0.1
v -0.3 1.2 -0.1
v -0.3 1.8 -0.1
v -0.3 1.9 -0.1
v -0.2 1.3 -0.1
v -0.2 1.4 -0.1
v -0.2 1.6 -0.1
v -0.2 1.7 -0.1
v -0.1 1.3 -0.1
v -0.1 1.4 -0.1
v -0.1 1.5 -0.1
v -0.1 1.6 -0.1
v -0.1 1.7 -0.1
v 0.1 1.3 -0.1
v 0.1 1.4 -0.1
v 0.1 1.5 -0.1
v 0.1 1.6 -0.1
v 0.1 1.7 -0.1
v 0.2 1.3 -0.1
v 0.2 1.4 -0.1
v 0.2 1.6 -0.1
v 0.2 1.7 -0.1
v 0.3 1.1 -0.1
v 0.3 1.2 -0.1
v 0.3 1.8 -0.1
v 0.3 1.9 -0.1
v 0.4 0.8 -0.1
v 0.4 0.9 -0.1
v 0.4 1.1 -0.1
v 0.4 1.2 -0.1
v 0.4 1.8 -0.1
v 0.4 1.9 -0.1
v 0.4 2.1 -0.1
v 0.4 2.2 -0.1
v 0.5 0.2 -0.1
v 0.5 0.3 -0.1
v 0.5 0.4 -0.1
v 0.5 0.8 -0.1
v 0.5 0.9 -0.1
v 0.5 1.7 -0.1
v 0.5 1.8 -0.1
v 0.5 2.1 -0.1
v 0.5 2.2 -0.1
v 0.5 2.3 -0.1
v 0.5 2.8 -0.1
v 0.6 0.2 -0.1
v 0.6 0.3 -0.1
v 0.6 0.4 -0.1
v 0.6 1.7 -0.1
v 0.6 1.8 -0.1
v 0.6 2.2 -0.1
v 0.6 2.3 -0.1
v 0.6 2.8 -0.1
v -0.5 0.2 -0.2
v -0.5 0.4 -0.2
v -0.5 0.8 -0.2
v -0.5 2.2 -0.2
v -0.5 2.8 -0.2
v -0.4 0.2 -0.2
v -0.4 0.4 -0.2
v -0.4 0.8 -0.2
v -0.4 1.1 -0.2
v -0.4 1.9 -0.2
v -0.4 2.2 -0.2
v -0.4 2.8 -0.2
v -0.3 0.8 -0.2
v -0.3 1.1 -0.2
v -0.3 1.3 -0.2
v -0.3 1.7 -0.2
v -0.3 1.9 -0.2
v -0.3 2.2 -0.2
v -0.2 1.1 -0.2
v -0.2 1.3 -0.2
v -0.2 1.7 -0.2
v -0.2 1.9 -0.2
v -0.1 1.3 -0.2
v -0.1 1.4 -0.2
v -0.1 1.6 -0.2
v -0.1 1.7 -0.2
v 0.1 1.3 -0.2
v 0.1 1.4 -0.2
v 0.1 1.6 -0.2
v 0.1 1.7 -0.2
v 0.2 1.1 -0.2
v 0.2 1.3 -0.2
v 0.2 1.7 -0.2
v 0.2 1.9 -0.2
v 0.3 0.8 -0.2
v 0.3 1.1 -0.2
v 0.3 1.3 -0.2
v 0.3 1.7 -0.2
v 0.3 1.9 -0.2
v 0.3 2.2 -0.2
v 0.4 0.2 -0.2
v 0.4 0.4 -0.2
v 0.4 0.8 -0.2
v 0.4 1.1 -0.2
v 0.4 1.9 -0.2
v 0.4 2.2 -0.2
v 0.4 2.8 -0.2
v 0.5 0.2 -0.2
v 0.5 0.4 -0.2
v 0.5 0.8 -0.2
v 0.5 2.2 -0.2
v 0.5 2.8 -0.2
v -0.6 0 -0.3
v -0.6 0.1 -0.3
v -0.6 0.2 -0.3
v -0.6 2.8 -0.3
v -0.6 2.9 -0.3
v -0.6 3 -0.3
v -0.5 0 -0.3
v -0.5 0.1 -0.3
v -0.5 0.2 -0.3
v -0.5 2.8 -0.3
v -0.5 2.9 -0.3
v -0.5 3 -0.3
v -0.4 0.2 -0.3
v -0.4 0.4 -0.3
v -0.4 0.8 -0.3
v -0.4 2.2 -0.3
v -0.4 2.8 -0.3
v -0.3 0.2 -0.3
v -0.3 0.4 -0.3
v -0.3 0.8 -0.3
v -0.3 1.1 -0.3
v -0.3 1.9 -0.3
v -0.3 2.2 -0.3
v -0.3 2.8 -0.3
v -0.2 0.8 -0.3
v -0.2 1.1 -0.3
v -0.2 1.3 -0.3
v -0.2 1.7 -0.3
v -0.2 1.9 -0.3
v -0.2 2.2 -0.3
v -0.1 1.1 -0.3
v -0.1 1.2 -0.3
v -0.1 1.8 -0.3
v -0.1 1.9 -0.3
v 0.1 1.1 -0.3
v 0.1 1.2 -0.3
v 0.1 1.8 -0.3
v 0.1 1.9 -0.3
v 0.2 0.8 -0.3
v 0.2 1.1 -0.3
v 0.2 1.3 -0.3
v 0.2 1.7 -0.3
v 0.2 1.9 -0.3
v 0.2 2.2 -0.3
v 0.3 0.2 -0.3
v 0.3 0.4 -0.3
v 0.3 0.5 -0.3
v 0.3 0.8 -0.3
v 0.3 1.1 -0.3
v 0.3 1.9 -0.3
v 0.3 2.2 -0.3
v 0.3 2.8 -0.3
v 0.4 0.2 -0.3
v 0.4 0.4 -0.3
v 0.4 0.8 -0.3
v 0.4 2.2 -0.3
v 0.4 2.8 -0.3
v 0.5 0 -0.3
v 0.5 0.1 -0.3
v 0.5 0.2 -0.3
v 0.5 2.8 -0.3
v 0.5 2.9 -0.3
v 0.5 3 -0.3
v 0.6 0 -0.3
v 0.6 0.1 -0.3
v 0.6 0.2 -0.3
v 0.6 2.8 -0.3
v 0.6 2.9 -0.3
v 0.6 3 -0.3
v -0.3 0.2 -0.4
v -0.3 0.4 -0.4
v -0.3 0.8 -0.4
v -0.3 2.2 -0.4
v -0.3 2.8 -0.4
v -0.2 0.2 -0.4
v -0.2 0.4 -0.4
v -0.2 0.5 -0.4
v -0.2 0.8 -0.4
v -0.2 1.1 -0.4
v -0.2 1.9 -0.4
v -0.2 2.2 -0.4
v -0.2 2.8 -0.4
v -0.1 0.8 -0.4
v -0.1 1 -0.4
v -0.1 1.1 -0.4
v -0.1 1.2 -0.4
v -0.1 1.8 -0.4
v -0.1 1.9 -0.4
v -0.1 2.1 -0.4
v -0.1 2.2 -0.4
v 0 1.9 -0.4
v 0 2 -0.4
v 0.1 0.8 -0.4
v 0.1 1 -0.4
v 0.1 1.1 -0.4
v 0.1 1.2 -0.4
v 0.1 1.8 -0.4
v 0.1 1.9 -0.4
v 0.1 2 -0.4
v 0.1 2.1 -0.4
v 0.1 2.2 -0.4
v 0.2 0.2 -0.4
v 0.2 0.5 -0.4
v 0.2 0.8 -0.4
v 0.2 1.1 -0.4
v 0.2 1.9 -0.4
v 0.2 2.2 -0.4
v 0.2 2.8 -0.4
v 0.3 0.2 -0.4
v 0.3 0.5 -0.4
v 0.3 0.8 -0.4
v 0.3 2.2 -0.4
v 0.3 2.8 -0.4
v -0.5 0 -0.5
v -0.5 0.1 -0.5
v -0.5 0.2 -0.5
v -0.5 2.8 -0.5
v -0.5 2.9 -0.5
v -0.5 3 -0.5
v -0.4 0 -0.5
v -0.4 0.1 -0.5
v -0.4 2.9 -0.5
v -0.4 3 -0.5
v -0.3 0 -0.5
v -0.3 0.1 -0.5
v -0.3 0.2 -0.5
v -0.3 2.8 -0.5
v -0.3 2.9 -0.5
v -0.3 3 -0.5
v -0.2 0.2 -0.5
v -0.2 0.5 -0.5
v -0.2 0.8 -0.5
v -0.2 2.2 -0.5
v -0.2 2.8 -0.5
v -0.1 0.4 -0.5
v -0.1 0.5 -0.5
v -0.1 0.8 -0.5
v -0.1 1 -0.5
v -0.1 2.1 -0.5
v -0.1 2.2 -0.5
v 0.1 0.4 -0.5
v 0.1 0.5 -0.5
v 0.1 0.8 -0.5
v 0.1 1 -0.5
v 0.1 2.1 -0.5
v 0.1 2.2 -0.5
v 0.2 0.2 -0.5
v 0.2 0.5 -0.5
v 0.2 0.8 -0.5
v 0.2 2.2 -0.5
v 0.2 2.8 -0.5
v 0.3 0 -0.5
v 0.3 0.1 -0.5
v 0.3 0.2 -0.5
v 0.3 2.8 -0.5
v 0.3 2.9 -0.5
v 0.3 3 -0.5
v 0.4 0 -0.5
v 0.4 0.1 -0.5
v 0.4 2.9 -0.5
v 0.4 3 -0.5
v 0.5 0 -0.5
v 0.5 0.1 -0.5
v 0.5 0.2 -0.5
v 0.5 2.8 -0.5
v 0.5 2.9 -0.5
v 0.5 3 -0.5
v -0.3 0 -0.6
v -0.3 0.1 -0.6
v -0.3 0.2 -0.6
v -0.3 2.8 -0.6
v -0.3 2.9 -0.6
v -0.3 3 -0.6
v -0.2 0.1 -0.6
v -0.2 0.2 -0.6
v -0.2 2.8 -0.6
v -0.2 2.9 -0.6
v 0.2 0.1 -0.6
v 0.2 0.2 -0.6
v 0.2 2.8 -0.6
v 0.2 2.9 -0.6
v 0.3 0 -0.6
v 0.3 0.1 -0.6
v 0.3 0.2 -0.6
v 0.3 2.8 -0.6
v 0.3 2.9 -0.6
v 0.3 3 -0.6
v -0.3 0 0.6
v 0.3 0 0.6
v -0.5 0 0.5
v -0.4 0 0.5
v -0.3 0 0.5
v 0.3 0 0.5
v 0.4 0 0.5
v 0.5 0 0.5
v -0.5 0 0.4
v -0.4 0 0.4
v 0.4 0 0.4
v 0.5 0 0.4
v -0.6 0 0.3
v -0.5 0 0.3
v 0.5 0 0.3
v 0.6 0 0.3
v -0.6 0 0.1
v -0.5 0 0.1
v 0.5 0 0.1
v 0.6 0 0.1
v -0.6 0 0
v -0.5 0 0
v 0.5 0 0
v 0.6 0 0
v -0.6 0 -0.3
v -0.5 0 -0.3
v 0.5 0 -0.3
v 0.6 0 -0.3
v -0.5 0 -0.4
v -0.4 0 -0.4
v 0.4 0 -0.4
v 0.5 0 -0.4
v -0.5 0 -0.5
v -0.4 0 -0.5
v -0.3 0 -0.5
v 0.3 0 -0.5
v 0.4 0 -0.5
v 0.5 0 -0.5
v -0.3 0 -0.6
v 0.3 0 -0.6
v -0.2 0.6 0.4
v -0.1 0.6 0.4
v 0.1 0.6 0.4
v 0.2 0.6 0.4
v -0.2 0.6 0.3
v -0.1 0.6 0.3
v 0.1 0.6 0.3
v 0.2 0.6 0.3
v -0.2 0.6 -0.3
v -0.1 0.6 -0.3
v 0.1 0.6 -0.3
v 0.2 0.6 -0.3
v -0.2 0.6 -0.4
v -0.1 0.6 -0.4
v 0.1 0.6 -0.4
v 0.2 0.6 -0.4
v -0.1 0.8 0.4
v 0.1 0.8 0.4
v -0.3 0.8 0.3
v -0.1 0.8 0.3
v 0.1 0.8 0.3
v 0.3 0.8 0.3
v -0.4 0.8 0.2
v -0.3 0.8 0.2
v -0.2 0.8 0.2
v -0.1 0.8 0.2
v 0.1 0.8 0.2
v 0.2 0.8 0.2
v 0.3 0.8 0.2
v 0.4 0.8 0.2
v -0.3 0.8 0.1
v -0.2 0.8 0.1
v 0.2 0.8 0.1
v 0.3 0.8 0.1
v -0.3 0.8 -0.1
v -0.2 0.8 -0.1
v 0.2 0.8 -0.1
v 0.3 0.8 -0.1
v -0.4 0.8 -0.2
v -0.3 0.8 -0.2
v -0.2 0.8 -0.2
v -0.1 0.8 -0.2
v 0.1 0.8 -0.2
v 0.2 0.8 -0.2
v 0.3 0.8 -0.2
v 0.4 0.8 -0.2
v -0.3 0.8 -0.3
v -0.1 0.8 -0.3
v 0.1 0.8 -0.3
v 0.3 0.8 -0.3
v -0.1 0.8 -0.4
v 0.1 0.8 -0.4
v -0.1 0.9 0.3
v 0.1 0.9 0.3
v -0.2 0.9 0.2
v -0.1 0.9 0.2
v 0.1 0.9 0.2
v 0.2 0.9 0.2
v -0.3 0.9 0.1
v -0.2 0.9 0.1
v -0.1 0.9 0.1
v 0.1 0.9 0.1
v 0.2 0.9 0.1
v 0.3 0.9 0.1
v -0.3 0.9 -0.1
v -0.2 0.9 -0.1
v -0.1 0.9 -0.1
v 0.1 0.9 -0.1
v 0.2 0.9 -0.1
v 0.3 0.9 -0.1
v -0.2 0.9 -0.2
v -0.1 0.9 -0.2
v 0.1 0.9 -0.2
v 0.2 0.9 -0.2
v -0.1 0.9 -0.3
v 0.1 0.9 -0.3
v -0.1 1.1 0.2
v 0.1 1.1 0.2
v -0.2 1.1 0.1
v -0.1 1.1 0.1
v 0.1 1.1 0.1
v 0.2 1.1 0.1
v -0.2 1.1 -0.1
v -0.1 1.1 -0.1
v 0.1 1.1 -0.1
v 0.2 1.1 -0.1
v -0.1 1.1 -0.2
v 0.1 1.1 -0.2
v -0.1 1.3 0.1
v 0.1 1.3 0.1
v -0.1 1.3 -0.1
v 0.1 1.3 -0.1
v -0.1 1.6 0.2
v 0.1 1.6 0.2
v -0.2 1.6 0.1
v -0.1 1.6 0.1
v 0.1 1.6 0.1
v 0.2 1.6 0.1
v -0.2 1.6 -0.1
v -0.1 1.6 -0.1
v 0.1 1.6 -0.1
v 0.2 1.6 -0.1
v -0.1 1.6 -0.2
v 0.1 1.6 -0.2
v -0.2 1.7 0.3
v 0.2 1.7 0.3
v -0.3 1.7 0.2
v -0.2 1.7 0.2
v -0.1 1.7 0.2
v 0.1 1.7 0.2
v 0.2 1.7 0.2
v 0.3 1.7 0.2
v -0.2 1.7 0.1
v -0.1 1.7 0.1
v 0.1 1.7 0.1
v 0.2 1.7 0.1
v -0.2 1.7 -0.1
v -0.1 1.7 -0.1
v 0.1 1.7 -0.1
v 0.2 1.7 -0.1
v -0.3 1.7 -0.2
v -0.2 1.7 -0.2
v -0.1 1.7 -0.2
v 0.1 1.7 -0.2
v 0.2 1.7 -0.2
v 0.3 1.7 -0.2
v -0.2 1.7 -0.3
v 0.2 1.7 -0.3
v -0.1 1.8 0.4
v 0.1 1.8 0.4
v -0.1 1.8 0.3
v 0.1 1.8 0.3
v -0.4 1.8 0.1
v -0.3 1.8 0.1
v 0.3 1.8 0.1
v 0.4 1.8 0.1
v -0.4 1.8 -0.1
v -0.3 1.8 -0.1
v 0.3 1.8 -0.1
v 0.4 1.8 -0.1
v -0.1 1.8 -0.3
v 0.1 1.8 -0.3
v -0.1 1.8 -0.4
v 0.1 1.8 -0.4
v -0.2 1.9 0.4
v -0.1 1.9 0.4
v 0.1 1.9 0.4
v 0.2 1.9 0.4
v -0.3 1.9 0.3
v -0.2 1.9 0.3
v -0.1 1.9 0.3
v 0.1 1.9 0.3
v 0.2 1.9 0.3
v 0.3 1.9 0.3
v -0.4 1.9 0.2
v -0.3 1.9 0.2
v -0.2 1.9 0.2
v 0.2 1.9 0.2
v 0.3 1.9 0.2
v 0.4 1.9 0.2
v -0.4 1.9 0.1
v -0.3 1.9 0.1
v 0.3 1.9 0.1
v 0.4 1.9 0.1
v -0.4 1.9 -0.1
v -0.3 1.9 -0.1
v 0.3 1.9 -0.1
v 0.4 1.9 -0.1
v -0.4 1.9 -0.2
v -0.3 1.9 -0.2
v -0.2 1.9 -0.2
v 0.2 1.9 -0.2
v 0.3 1.9 -0.2
v 0.4 1.9 -0.2
v -0.3 1.9 -0.3
v -0.2 1.9 -0.3
v -0.1 1.9 -0.3
v 0.1 1.9 -0.3
v 0.2 1.9 -0.3
v 0.3 1.9 -0.3
v -0.2 1.9 -0.4
v -0.1 1.9 -0.4
v 0.1 1.9 -0.4
v 0.2 1.9 -0.4
v -0.1 2.1 0.5
v 0.1 2.1 0.5
v -0.1 2.1 0.4
v 0.1 2.1 0.4
v -0.5 2.1 0.1
v -0.4 2.1 0.1
v 0.4 2.1 0.1
v 0.5 2.1 0.1
v -0.5 2.1 -0.1
v -0.4 2.1 -0.1
v 0.4 2.1 -0.1
v 0.5 2.1 -0.1
v -0.1 2.1 -0.4
v 0.1 2.1 -0.4
v -0.1 2.1 -0.5
v 0.1 2.1 -0.5
v -0.2 2.2 0.5
v -0.1 2.2 0.5
v 0.1 2.2 0.5
v 0.2 2.2 0.5
v -0.3 2.2 0.4
v -0.2 2.2 0.4
v -0.1 2.2 0.4
v 0.1 2.2 0.4
v 0.2 2.2 0.4
v 0.3 2.2 0.4
v -0.4 2.2 0.3
v -0.3 2.2 0.3
v -0.2 2.2 0.3
v 0.2 2.2 0.3
v 0.3 2.2 0.3
v 0.4 2.2 0.3
v -0.5 2.2 0.2
v -0.4 2.2 0.2
v -0.3 2.2 0.2
v 0.3 2.2 0.2
v 0.4 2.2 0.2
v 0.5 2.2 0.2
v -0.5 2.2 0.1
v -0.4 2.2 0.1
v 0.4 2.2 0.1
v 0.5 2.2 0.1
v -0.5 2.2 -0.1
v -0.4 2.2 -0.1
v 0.4 2.2 -0.1
v 0.5 2.2 -0.1
v -0.5 2.2 -0.2
v -0.4 2.2 -0.2
v -0.3 2.2 -0.2
v 0.3 2.2 -0.2
v 0.4 2.2 -0.2
v 0.5 2.2 -0.2
v -0.4 2.2 -0.3
v -0.3 2.2 -0.3
v -0.2 2.2 -0.3
v 0.2 2.2 -0.3
v 0.3 2.2 -0.3
v 0.4 2.2 -0.3
v -0.3 2.2 -0.4
v -0.2 2.2 -0.4
v -0.1 2.2 -0.4
v 0.1 2.2 -0.4
v 0.2 2.2 -0.4
v 0.3 2.2 -0.4
v -0.2 2.2 -0.5
v -0.1 2.2 -0.5
v 0.1 2.2 -0.5
v 0.2 2.2 -0.5
v -0.3 2.8 0.6
v -0.2 2.8 0.6
v 0.2 2.8 0.6
v 0.3 2.8 0.6
v -0.5 2.8 0.5
v -0.3 2.8 0.5
v -0.2 2.8 0.5
v 0.2 2.8 0.5
v 0.3 2.8 0.5
v 0.5 2.8 0.5
v -0.3 2.8 0.4
v -0.2 2.8 0.4
v 0.2 2.8 0.4
v 0.3 2.8 0.4
v -0.6 2.8 0.3
v -0.5 2.8 0.3
v -0.4 2.8 0.3
v -0.3 2.8 0.3
v -0.2 2.8 0.3
v 0.2 2.8 0.3
v 0.3 2.8 0.3
v 0.4 2.8 0.3
v 0.5 2.8 0.3
v 0.6 2.8 0.3
v -0.6 2.8 0.2
v -0.5 2.8 0.2
v -0.4 2.8 0.2
v -0.3 2.8 0.2
v 0.3 2.8 0.2
v 0.4 2.8 0.2
v 0.5 2.8 0.2
v 0.6 2.8 0.2
v -0.6 2.8 0.1
v -0.5 2.8 0.1
v 0.5 2.8 0.1
v 0.6 2.8 0.1
v -0.6 2.8 -0.1
v -0.5 2.8 -0.1
v 0.5 2.8 -0.1
v 0.6 2.8 -0.1
v -0.6 2.8 -0.2
v -0.5 2.8 -0.2
v -0.4 2.8 -0.2
v -0.3 2.8 -0.2
v 0.3 2.8 -0.2
v 0.4 2.8 -0.2
v 0.5 2.8 -0.2
v 0.6 2.8 -0.2
v -0.6 2.8 -0.3
v -0.5 2.8 -0.3
v -0.4 2.8 -0.3
v -0.3 2.8 -0.3
v -0.2 2.8 -0.3
v 0.2 2.8 -0.3
v 0.3 2.8 -0.3
v 0.4 2.8 -0.3
v 0.5 2.8 -0.3
v 0.6 2.8 -0.3
v -0.3 2.8 -0.4
v -0.2 2.8 -0.4
v 0.2 2.8 -0.4
v 0.3 2.8 -0.4
v -0.5 2.8 -0.5
v -0.3 2.8 -0.5
v -0.2 2.8 -0.5
v 0.2 2.8 -0.5
v 0.3 2.8 -0.5
v 0.5 2.8 -0.5
v -0.3 2.8 -0.6
v -0.2 2.8 -0.6
v 0.2 2.8 -0.6
v 0.3 2.8 -0.6
v -0.3 0.2 0.6
v -0.2 0.2 0.6
v 0.2 0.2 0.6
v 0.3 0.2 0.6
v -0.5 0.2 0.5
v -0.3 0.2 0.5
v -0.2 0.2 0.5
v 0.2 0.2 0.5
v 0.3 0.2 0.5
v 0.5 0.2 0.5
v -0.3 0.2 0.4
v -0.2 0.2 0.4
v 0.2 0.2 0.4
v 0.3 0.2 0.4
v -0.6 0.2 0.3
v -0.5 0.2 0.3
v -0.4 0.2 0.3
v -0.3 0.2 0.3
v -0.2 0.2 0.3
v 0.2 0.2 0.3
v 0.3 0.2 0.3
v 0.4 0.2 0.3
v 0.5 0.2 0.3
v 0.6 0.2 0.3
v -0.6 0.2 0.2
v -0.5 0.2 0.2
v -0.4 0.2 0.2
v -0.3 0.2 0.2
v 0.3 0.2 0.2
v 0.4 0.2 0.2
v 0.5 0.2 0.2
v 0.6 0.2 0.2
v -0.6 0.2 0.1
v -0.5 0.2 0.1
v -0.4 0.2 0.1
v 0.4 0.2 0.1
v 0.5 0.2 0.1
v 0.6 0.2 0.1
v -0.6 0.2 -0.1
v -0.5 0.2 -0.1
v -0.4 0.2 -0.1
v 0.4 0.2 -0.1
v 0.5 0.2 -0.1
v 0.6 0.2 -0.1
v -0.6 0.2 -0.2
v -0.5 0.2 -0.2
v -0.4 0.2 -0.2
v -0.3 0.2 -0.2
v 0.3 0.2 -0.2
v 0.4 0.2 -0.2
v 0.5 0.2 -0.2
v 0.6 0.2 -0.2
v -0.6 0.2 -0.3
v -0.5 0.2 -0.3
v -0.4 0.2 -0.3
v -0.3 0.2 -0.3
v -0.2 0.2 -0.3
v 0.2 0.2 -0.3
v 0.3 0.2 -0.3
v 0.4 0.2 -0.3
v 0.5 0.2 -0.3
v 0.6 0.2 -0.3
v -0.3 0.2 -0.4
v -0.2 0.2 -0.4
v 0.2 0.2 -0.4
v 0.3 0.2 -0.4
v -0.5 0.2 -0.5
v -0.3 0.2 -0.5
v -0.2 0.2 -0.5
v 0.2 0.2 -0.5
v 0.3 0.2 -0.5
v 0.5 0.2 -0.5
v -0.3 0.2 -0.6
v -0.2 0.2 -0.6
v 0.2 0.2 -0.6
v 0.3 0.2 -0.6
v -0.2 0.8 0.5
v -0.1 0.8 0.5
v 0.1 0.8 0.5
v 0.2 0.8 0.5
v -0.3 0.8 0.4
v -0.2 0.8 0.4
v -0.1 0.8 0.4
v 0.1 0.8 0.4
v 0.2 0.8 0.4
v 0.3 0.8 0.4
v -0.4 0.8 0.3
v -0.3 0.8 0.3
v -0.2 0.8 0.3
v 0.2 0.8 0.3
v 0.3 0.8 0.3
v 0.4 0.8 0.3
v -0.5 0.8 0.2
v -0.4 0.8 0.2
v -0.3 0.8 0.2
v 0.3 0.8 0.2
v 0.4 0.8 0.2
v 0.5 0.8 0.2
v -0.5 0.8 0.1
v -0.4 0.8 0.1
v 0.4 0.8 0.1
v 0.5 0.8 0.1
v -0.5 0.8 -0.1
v -0.4 0.8 -0.1
v 0.4 0.8 -0.1
v 0.5 0.8 -0.1
v -0.5 0.8 -0.2
v -0.4 0.8 -0.2
v -0.3 0.8 -0.2
v 0.3 0.8 -0.2
v 0.4 0.8 -0.2
v 0.5 0.8 -0.2
v -0.4 0.8 -0.3
v -0.3 0.8 -0.3
v -0.2 0.8 -0.3
v 0.2 0.8 -0.3
v 0.3 0.8 -0.3
v 0.4 0.8 -0.3
v -0.3 0.8 -0.4
v -0.2 0.8 -0.4
v -0.1 0.8 -0.4
v 0.1 0.8 -0.4
v 0.2 0.8 -0.4
v 0.3 0.8 -0.4
v -0.2 0.8 -0.5
v -0.1 0.8 -0.5
v 0.1 0.8 -0.5
v 0.2 0.8 -0.5
v -0.5 0.9 0.1
v -0.4 0.9 0.1
v 0.4 0.9 0.1
v 0.5 0.9 0.1
v -0.5 0.9 -0.1
v -0.4 0.9 -0.1
v 0.4 0.9 -0.1
v 0.5 0.9 -0.1
v -0.1 1 0.5
v 0.1 1 0.5
v -0.1 1 0.4
v 0.1 1 0.4
v -0.1 1 -0.4
v 0.1 1 -0.4
v -0.1 1 -0.5
v 0.1 1 -0.5
v -0.2 1.1 0.4
v -0.1 1.1 0.4
v 0.1 1.1 0.4
v 0.2 1.1 0.4
v -0.3 1.1 0.3
v -0.2 1.1 0.3
v -0.1 1.1 0.3
v 0.1 1.1 0.3
v 0.2 1.1 0.3
v 0.3 1.1 0.3
v -0.4 1.1 0.2
v -0.3 1.1 0.2
v -0.2 1.1 0.2
v 0.2 1.1 0.2
v 0.3 1.1 0.2
v 0.4 1.1 0.2
v -0.4 1.1 0.1
v -0.3 1.1 0.1
v 0.3 1.1 0.1
v 0.4 1.1 0.1
v -0.4 1.1 -0.1
v -0.3 1.1 -0.1
v 0.3 1.1 -0.1
v 0.4 1.1 -0.1
v -0.4 1.1 -0.2
v -0.3 1.1 -0.2
v -0.2 1.1 -0.2
v 0.2 1.1 -0.2
v 0.3 1.1 -0.2
v 0.4 1.1 -0.2
v -0.3 1.1 -0.3
v -0.2 1.1 -0.3
v -0.1 1.1 -0.3
v 0.1 1.1 -0.3
v 0.2 1.1 -0.3
v 0.3 1.1 -0.3
v -0.2 1.1 -0.4
v -0.1 1.1 -0.4
v 0.1 1.1 -0.4
v 0.2 1.1 -0.4
v -0.1 1.2 0.4
v 0.1 1.2 0.4
v -0.1 1.2 0.3
v 0.1 1.2 0.3
v -0.4 1.2 0.1
v -0.3 1.2 0.1
v 0.3 1.2 0.1
v 0.4 1.2 0.1
v -0.4 1.2 -0.1
v -0.3 1.2 -0.1
v 0.3 1.2 -0.1
v 0.4 1.2 -0.1
v -0.1 1.2 -0.3
v 0.1 1.2 -0.3
v -0.1 1.2 -0.4
v 0.1 1.2 -0.4
v -0.2 1.3 0.3
v 0.2 1.3 0.3
v -0.3 1.3 0.2
v -0.2 1.3 0.2
v -0.1 1.3 0.2
v 0.1 1.3 0.2
v 0.2 1.3 0.2
v 0.3 1.3 0.2
v -0.2 1.3 0.1
v -0.1 1.3 0.1
v 0.1 1.3 0.1
v 0.2 1.3 0.1
v -0.2 1.3 -0.1
v -0.1 1.3 -0.1
v 0.1 1.3 -0.1
v 0.2 1.3 -0.1
v -0.3 1.3 -0.2
v -0.2 1.3 -0.2
v -0.1 1.3 -0.2
v 0.1 1.3 -0.2
v 0.2 1.3 -0.2
v 0.3 1.3 -0.2
v -0.2 1.3 -0.3
v 0.2 1.3 -0.3
v -0.1 1.4 0.2
v 0.1 1.4 0.2
v -0.2 1.4 0.1
v -0.1 1.4 0.1
v 0 1.4 0.1
v 0.1 1.4 0.1
v 0.2 1.4 0.1
v 0.1 1.4 0
v -0.2 1.4 -0.1
v -0.1 1.4 -0.1
v 0.1 1.4 -0.1
v 0.2 1.4 -0.1
v -0.1 1.4 -0.2
v 0.1 1.4 -0.2
v -0.1 1.6 0.1
v 0.1 1.6 0.1
v -0.1 1.6 -0.1
v 0.1 1.6 -0.1
v -0.1 1.9 0.2
v 0.1 1.9 0.2
v -0.2 1.9 0.1
v -0.1 1.9 0.1
v 0.1 1.9 0.1
v 0.2 1.9 0.1
v -0.2 1.9 -0.1
v -0.1 1.9 -0.1
v 0.1 1.9 -0.1
v 0.2 1.9 -0.1
v -0.1 1.9 -0.2
v 0.1 1.9 -0.2
v -0.1 2.1 0.3
v 0.1 2.1 0.3
v -0.2 2.1 0.2
v -0.1 2.1 0.2
v 0.1 2.1 0.2
v 0.2 2.1 0.2
v -0.3 2.1 0.1
v -0.2 2.1 0.1
v -0.1 2.1 0.1
v 0.1 2.1 0.1
v 0.2 2.1 0.1
v 0.3 2.1 0.1
v -0.3 2.1 -0.1
v -0.2 2.1 -0.1
v -0.1 2.1 -0.1
v 0.1 2.1 -0.1
v 0.2 2.1 -0.1
v 0.3 2.1 -0.1
v -0.2 2.1 -0.2
v -0.1 2.1 -0.2
v 0.1 2.1 -0.2
v 0.2 2.1 -0.2
v -0.1 2.1 -0.3
v 0.1 2.1 -0.3
v -0.1 2.2 0.4
v 0.1 2.2 0.4
v -0.3 2.2 0.3
v -0.1 2.2 0.3
v 0.1 2.2 0.3
v 0.3 2.2 0.3
v -0.4 2.2 0.2
v -0.3 2.2 0.2
v -0.2 2.2 0.2
v -0.1 2.2 0.2
v 0.1 2.2 0.2
v 0.2 2.2 0.2
v 0.3 2.2 0.2
v 0.4 2.2 0.2
v -0.3 2.2 0.1
v -0.2 2.2 0.1
v 0.2 2.2 0.1
v 0.3 2.2 0.1
v -0.3 2.2 -0.1
v -0.2 2.2 -0.1
v 0.2 2.2 -0.1
v 0.3 2.2 -0.1
v -0.4 2.2 -0.2
v -0.3 2.2 -0.2
v -0.2 2.2 -0.2
v -0.1 2.2 -0.2
v 0.1 2.2 -0.2
v 0.2 2.2 -0.2
v 0.3 2.2 -0.2
v 0.4 2.2 -0.2
v -0.3 2.2 -0.3
v -0.1 2.2 -0.3
v 0.1 2.2 -0.3
v 0.3 2.2 -0.3
v -0.1 2.2 -0.4
v 0.1 2.2 -0.4
v -0.2 2.4 0.4
v -0.1 2.4 0.4
v 0.1 2.4 0.4
v 0.2 2.4 0.4
v -0.2 2.4 0.3
v -0.1 2.4 0.3
v 0.1 2.4 0.3
v 0.2 2.4 0.3
v -0.2 2.4 -0.3
v -0.1 2.4 -0.3
v 0.1 2.4 -0.3
v 0.2 2.4 -0.3
v -0.2 2.4 -0.4
v -0.1 2.4 -0.4
v 0.1 2.4 -0.4
v 0.2 2.4 -0.4
v -0.3 3 0.6
v 0.3 3 0.6
v -0.5 3 0.5
v -0.4 3 0.5
v -0.3 3 0.5
v 0.3 3 0.5
v 0.4 3 0.5
v 0.5 3 0.5
v -0.5 3 0.4
v -0.4 3 0.4
v 0.4 3 0.4
v 0.5 3 0.4
v -0.6 3 0.3
v -0.5 3 0.3
v 0.5 3 0.3
v 0.6 3 0.3
v -0.4 3 0.2
v -0.3 3 0.2
v 0.3 3 0.2
v 0.4 3 0.2
v -0.6 3 0.1
v -0.5 3 0.1
v -0.4 3 0.1
v -0.3 3 0.1
v 0.3 3 0.1
v 0.4 3 0.1
v 0.5 3 0.1
v 0.6 3 0.1
v -0.6 3 0
v -0.5 3 0
v 0.5 3 0
v 0.6 3 0
v -0.6 3 -0.3
v -0.5 3 -0.3
v -0.2 3 -0.3
v -0.1 3 -0.3
v 0.5 3 -0.3
v 0.6 3 -0.3
v -0.5 3 -0.4
v -0.4 3 -0.4
v -0.2 3 -0.4
v -0.1 3 -0.4
v 0.4 3 -0.4
v 0.5 3 -0.4
v -0.5 3 -0.5
v -0.4 3 -0.5
v -0.3 3 -0.5
v 0.3 3 -0.5
v 0.4 3 -0.5
v 0.5 3 -0.5
v -0.3 3 -0.6
v 0.3 3 -0.6

# faces
f 5/2/1 2/2/1 1/2/1
f 6/2/1 2/2/1 5/2/1
f 7/1/1 3/1/1 2/1/1
f 7/2/1 2/2/1 6/2/1
f 8/2/1 4/2/1 3/2/1
f 8/1/1 3/1/1 7/1/1
f 9/2/1 4/2/1 8/2/1
f 10/2/1 4/2/1 9/2/1
f 11/1/1 6/1/1 5/1/1
f 12/2/1 7/2/1 6/2/1
f 12/1/1 6/1/1 11/1/1
f 12/2/1 8/2/1 7/2/1
f 12/2/1 9/2/1 8/2/1
f 13/2/1 9/2/1 12/2/1
f 14/2/1 9/2/1 13/2/1
f 15/1/1 10/1/1 9/1/1
f 15/2/1 9/2/1 14/2/1
f 16/1/1 10/1/1 15/1/1
f 17/2/1 14/2/1 13/2/1
f 18/2/1 14/2/1 17/2/1
f 19/2/1 17/2/1 13/2/1
f 19/1/1 18/1/1 17/1/1
f 20/1/1 18/1/1 19/1/1
f 21/2/1 19/2/1 13/2/1
f 21/2/1 20/2/1 19/2/1
f 22/2/1 20/2/1 21/2/1
f 23/1/1 22/1/1 21/1/1
f 24/2/1 20/2/1 22/2/1
f 24/1/1 22/1/1 23/1/1
f 25/2/1 24/2/1 23/2/1
f 26/2/1 20/2/1 24/2/1
f 26/2/1 24/2/1 25/2/1
f 27/1/1 26/1/1 25/1/1
f 28/2/1 20/2/1 26/2/1
f 28/1/1 26/1/1 27/1/1
f 29/2/1 28/2/1 27/2/1
f 29/2/1 20/2/1 28/2/1
f 30/2/1 20/2/1 29/2/1
f 31/2/1 29/2/1 27/2/1
f 31/1/1 30/1/1 29/1/1
f 32/1/1 30/1/1 31/1/1
f 33/2/1 31/2/1 27/2/1
f 33/2/1 32/2/1 31/2/1
f 34/2/1 32/2/1 33/2/1
f 35/2/1 33/2/1 27/2/1
f 35/1/1 34/1/1 33/1/1
f 36/1/1 34/1/1 35/1/1
f 37/2/1 35/2/1 27/2/1
f 37/2/1 36/2/1 35/2/1
f 38/2/1 36/2/1 37/2/1
f 39/1/1 38/1/1 37/1/1
f 40/2/1 36/2/1 38/2/1
f 40/1/1 38/1/1 39/1/1
f 43/2/1 40/2/1 39/2/1
f 44/2/1 36/2/1 40/2/1
f 44/2/1 40/2/1 43/2/1
f 47/1/1 42/1/1 41/1/1
f 48/2/1 44/2/1 43/2/1
f 48/1/1 42/1/1 47/1/1
f 48/2/1 43/2/1 42/2/1
f 48/2/1 45/2/1 44/2/1
f 49/2/1 45/2/1 48/2/1
f 50/2/1 45/2/1 49/2/1
f 51/1/1 46/1/1 45/1/1
f 51/2/1 45/2/1 50/2/1
f 52/1/1 46/1/1 51/1/1
f 53/2/1 48/2/1 47/2/1
f 53/2/1 49/2/1 48/2/1
f 54/1/1 50/1/1 49/1/1
f 54/2/1 49/2/1 53/2/1
f 55/2/1 52/2/1 51/2/1
f 55/1/1 50/1/1 54/1/1
f 55/2/1 51/2/1 50/2/1
f 56/2/1 52/2/1 55/2/1
f 63/1/1 58/1/1 57/1/1
f 64/2/1 59/2/1 58/2/1
f 64/1/1 58/1/1 63/1/1
f 65/2/1 59/2/1 64/2/1
f 66/2/1 61/2/1 60/2/1
f 67/1/1 62/1/1 61/1/1
f 67/2/1 61/2/1 66/2/1
f 68/1/1 62/1/1 67/1/1
f 69/2/1 65/2/1 64/2/1
f 69/2/1 64/2/1 63/2/1
f 70/2/1 65/2/1 69/2/1
f 75/2/1 68/2/1 67/2/1
f 75/2/1 67/2/1 66/2/1
f 76/2/1 68/2/1 75/2/1
f 77/3/1 74/3/1 73/3/1
f 78/3/1 72/3/1 71/3/1
f 79/3/1 72/3/1 78/3/1
f 80/3/1 74/3/1 77/3/1
f 81/3/1 74/3/1 80/3/1
f 82/4/1 79/4/1 78/4/1
f 83/4/1 79/4/1 82/4/1
f 84/4/1 81/4/1 80/4/1
f 85/4/1 81/4/1 84/4/1
f 90/4/1 89/4/1 88/4/1
f 91/4/1 87/4/1 86/4/1
f 92/4/1 91/4/1 86/4/1
f 95/4/1 92/4/1 86/4/1
f 96/4/1 92/4/1 95/4/1
f 97/4/1 89/4/1 90/4/1
f 98/4/1 89/4/1 97/4/1
f 101/2/1 94/2/1 93/2/1
f 102/2/1 94/2/1 101/2/1
f 103/2/1 94/2/1 102/2/1
f 104/2/1 100/2/1 99/2/1
f 105/2/1 100/2/1 104/2/1
f 106/2/1 100/2/1 105/2/1
f 107/1/1 102/1/1 101/1/1
f 108/2/1 103/2/1 102/2/1
f 108/1/1 102/1/1 107/1/1
f 109/2/1 103/2/1 108/2/1
f 110/2/1 105/2/1 104/2/1
f 111/1/1 106/1/1 105/1/1
f 111/2/1 105/2/1 110/2/1
f 112/1/1 106/1/1 111/1/1
f 117/3/1 114/3/1 113/3/1
f 118/3/1 114/3/1 117/3/1
f 119/3/1 116/3/1 115/3/1
f 120/3/1 116/3/1 119/3/1
f 121/4/1 118/4/1 117/4/1
f 122/4/1 118/4/1 121/4/1
f 125/4/1 120/4/1 119/4/1
f 126/4/1 120/4/1 125/4/1
f 127/4/1 123/4/1 122/4/1
f 128/4/1 125/4/1 124/4/1
f 129/4/1 127/4/1 122/4/1
f 129/4/1 128/4/1 127/4/1
f 130/4/1 128/4/1 129/4/1
f 131/4/1 125/4/1 128/4/1
f 131/4/1 128/4/1 130/4/1
f 132/4/1 125/4/1 131/4/1
f 133/4/1 131/4/1 130/4/1
f 134/4/1 131/4/1 133/4/1
f 138/3/1 136/3/1 135/3/1
f 139/3/1 136/3/1 138/3/1
f 141/4/1 139/4/1 138/4/1
f 141/4/1 140/4/1 139/4/1
f 141/4/1 138/4/1 137/4/1
f 142/4/1 140/4/1 141/4/1
f 144/4/1 141/4/1 137/4/1
f 145/4/1 141/4/1 144/4/1
f 146/4/1 140/4/1 142/4/1
f 147/4/1 140/4/1 146/4/1
f 149/4/1 144/4/1 143/4/1
f 150/4/1 144/4/1 149/4/1
f 151/4/1 148/4/1 147/4/1
f 152/4/1 148/4/1 151/4/1
f 157/2/1 154/2/1 153/2/1
f 158/2/1 154/2/1 157/2/1
f 159/2/1 156/2/1 155/2/1
f 160/2/1 156/2/1 159/2/1
f 161/1/1 158/1/1 157/1/1
f 162/1/1 158/1/1 161/1/1
f 167/1/1 160/1/1 159/1/1
f 168/1/1 160/1/1 167/1/1
f 169/3/1 164/3/1 163/3/1
f 170/3/1 164/3/1 169/3/1
f 171/3/1 166/3/1 165/3/1
f 172/3/1 166/3/1 171/3/1
f 173/4/1 170/4/1 169/4/1
f 174/4/1 170/4/1 173/4/1
f 177/4/1 172/4/1 171/4/1
f 178/4/1 172/4/1 177/4/1
f 179/4/1 175/4/1 174/4/1
f 180/4/1 175/4/1 179/4/1
f 183/4/1 177/4/1 176/4/1
f 184/4/1 177/4/1 183/4/1
f 185/4/1 181/4/1 180/4/1
f 186/4/1 183/4/1 182/4/1
f 187/4/1 185/4/1 180/4/1
f 187/4/1 186/4/1 185/4/1
f 188/4/1 183/4/1 186/4/1
f 188/4/1 186/4/1 187/4/1
f 191/3/1 190/3/1 189/3/1
f 192/3/1 190/3/1 191/3/1
f 194/3/1 191/3/1 189/3/1
f 195/3/1 191/3/1 194/3/1
f 196/3/1 190/3/1 192/3/1
f 197/3/1 190/3/1 196/3/1
f 200/4/1 194/4/1 193/4/1
f 201/4/1 194/4/1 200/4/1
f 202/4/1 198/4/1 197/4/1
f 203/4/1 198/4/1 202/4/1
f 207/4/1 200/4/1 199/4/1
f 208/4/1 200/4/1 207/4/1
f 209/4/1 204/4/1 203/4/1
f 210/4/1 204/4/1 209/4/1
f 213/1/1 206/1/1 205/1/1
f 214/1/1 206/1/1 213/1/1
f 215/1/1 212/1/1 211/1/1
f 216/1/1 212/1/1 215/1/1
f 217/2/1 214/2/1 213/2/1
f 218/2/1 214/2/1 217/2/1
f 219/2/1 216/2/1 215/2/1
f 220/2/1 216/2/1 219/2/1
f 225/3/1 222/3/1 221/3/1
f 226/3/1 222/3/1 225/3/1
f 227/3/1 224/3/1 223/3/1
f 228/3/1 224/3/1 227/3/1
f 229/3/1 224/3/1 228/3/1
f 230/4/1 226/4/1 225/4/1
f 231/4/1 226/4/1 230/4/1
f 234/4/1 229/4/1 228/4/1
f 235/4/1 229/4/1 234/4/1
f 236/4/1 232/4/1 231/4/1
f 237/4/1 232/4/1 236/4/1
f 240/4/1 234/4/1 233/4/1
f 241/4/1 234/4/1 240/4/1
f 242/4/1 238/4/1 237/4/1
f 243/4/1 238/4/1 242/4/1
f 246/4/1 240/4/1 239/4/1
f 247/4/1 240/4/1 246/4/1
f 248/4/1 245/4/1 244/4/1
f 249/4/1 245/4/1 248/4/1
f 254/3/1 251/3/1 250/3/1
f 255/3/1 251/3/1 254/3/1
f 259/3/1 253/3/1 252/3/1
f 260/3/1 253/3/1 259/3/1
f 261/3/1 257/3/1 256/3/1
f 262/3/1 257/3/1 261/3/1
f 265/4/1 259/4/1 258/4/1
f 266/4/1 259/4/1 265/4/1
f 267/4/1 263/4/1 262/4/1
f 268/4/1 263/4/1 267/4/1
f 270/4/1 265/4/1 264/4/1
f 271/4/1 265/4/1 270/4/1
f 272/4/1 269/4/1 268/4/1
f 273/4/1 269/4/1 272/4/1
f 278/4/1 275/4/1 274/4/1
f 279/4/1 275/4/1 278/4/1
f 280/4/1 277/4/1 276/4/1
f 281/4/1 277/4/1 280/4/1
f 286/4/1 283/4/1 282/4/1
f 287/4/1 283/4/1 286/4/1
f 288/4/1 285/4/1 284/4/1
f 289/4/1 285/4/1 288/4/1
f 294/4/1 291/4/1 290/4/1
f 295/4/1 291/4/1 294/4/1
f 296/4/1 293/4/1 292/4/1
f 297/4/1 293/4/1 296/4/1
f 298/4/1 296/4/1 295/4/1
f 299/4/1 296/4/1 298/4/1
f 301/3/1 299/3/1 298/3/1
f 302/3/1 299/3/1 301/3/1
f 304/3/1 301/3/1 300/3/1
f 305/3/1 301/3/1 304/3/1
f 306/3/1 303/3/1 302/3/1
f 307/3/1 303/3/1 306/3/1
f 312/3/1 309/3/1 308/3/1
f 313/3/1 309/3/1 312/3/1
f 314/3/1 311/3/1 310/3/1
f 315/3/1 311/3/1 314/3/1
f 320/4/1 317/4/1 316/4/1
f 321/4/1 317/4/1 320/4/1
f 322/4/1 319/4/1 318/4/1
f 323/4/1 319/4/1 322/4/1
f 328/4/1 325/4/1 324/4/1
f 329/4/1 325/4/1 328/4/1
f 332/4/1 327/4/1 326/4/1
f 333/4/1 327/4/1 332/4/1
f 334/4/1 330/4/1 329/4/1
f 335/4/1 330/4/1 334/4/1
f 338/4/1 332/4/1 331/4/1
f 339/4/1 332/4/1 338/4/1
f 340/4/1 336/4/1 335/4/1
f 341/4/1 336/4/1 340/4/1
f 342/4/1 338/4/1 337/4/1
f 343/4/1 338/4/1 342/4/1
f 344/4/1 342/4/1 341/4/1
f 345/4/1 342/4/1 344/4/1
f 349/3/1 347/3/1 346/3/1
f 350/3/1 347/3/1 349/3/1
f 353/4/1 349/4/1 348/4/1
f 354/4/1 349/4/1 353/4/1
f 355/4/1 351/4/1 350/4/1
f 356/4/1 351/4/1 355/4/1
f 359/4/1 353/4/1 352/4/1
f 360/4/1 353/4/1 359/4/1
f 361/4/1 357/4/1 356/4/1
f 362/4/1 357/4/1 361/4/1
f 364/4/1 359/4/1 358/4/1
f 365/4/1 359/4/1 364/4/1
f 366/4/1 363/4/1 362/4/1
f 367/4/1 363/4/1 366/4/1
f 372/3/1 369/3/1 368/3/1
f 373/3/1 369/3/1 372/3/1
f 374/3/1 371/3/1 370/3/1
f 375/3/1 371/3/1 374/3/1
f 376/4/1 373/4/1 372/4/1
f 377/4/1 373/4/1 376/4/1
f 378/4/1 375/4/1 374/4/1
f 379/4/1 375/4/1 378/4/1
f 384/4/1 381/4/1 380/4/1
f 385/4/1 381/4/1 384/4/1
f 386/4/1 383/4/1 382/4/1
f 387/4/1 383/4/1 386/4/1
f 388/4/1 386/4/1 385/4/1
f 389/4/1 386/4/1 388/4/1
f 393/4/1 391/4/1 390/4/1
f 394/4/1 391/4/1 393/4/1
f 396/4/1 393/4/1 392/4/1
f 397/4/1 393/4/1 396/4/1
f 398/4/1 395/4/1 394/4/1
f 399/4/1 395/4/1 398/4/1
f 404/4/1 401/4/1 400/4/1
f 405/4/1 401/4/1 404/4/1
f 406/4/1 403/4/1 402/4/1
f 407/4/1 403/4/1 406/4/1
f 412/3/1 409/3/1 408/3/1
f 413/3/1 409/3/1 412/3/1
f 414/3/1 411/3/1 410/3/1
f 415/3/1 411/3/1 414/3/1
f 416/4/1 413/4/1 412/4/1
f 417/4/1 415/4/1 414/4/1
f 418/4/1 413/4/1 416/4/1
f 419/4/1 413/4/1 418/4/1
f 422/4/1 417/4/1 414/4/1
f 423/4/1 417/4/1 422/4/1
f 424/4/1 421/4/1 420/4/1
f 425/4/1 421/4/1 424/4/1
f 430/4/1 427/4/1 426/4/1
f 431/4/1 427/4/1 430/4/1
f 434/4/1 429/4/1 428/4/1
f 435/4/1 429/4/1 434/4/1
f 436/4/1 433/4/1 432/4/1
f 437/4/1 433/4/1 436/4/1
f 442/3/1 439/3/1 438/3/1
f 443/3/1 441/3/1 440/3/1
f 443/4/1 440/4/1 439/4/1
f 444/3/1 441/3/1 443/3/1
f 445/3/1 439/3/1 442/3/1
f 446/4/1 443/4/1 439/4/1
f 446/3/1 439/3/1 445/3/1
f 446/4/1 444/4/1 443/4/1
f 447/4/1 446/4/1 445/4/1
f 448/4/1 444/4/1 446/4/1
f 448/4/1 446/4/1 447/4/1
f 451/4/1 450/4/1 449/4/1
f 452/4/1 450/4/1 451/4/1
f 455/2/1 454/2/1 453/2/1
f 456/2/1 454/2/1 455/2/1
f 457/1/1 456/1/1 455/1/1
f 458/2/1 454/2/1 456/2/1
f 458/1/1 456/1/1 457/1/1
f 459/2/1 458/2/1 457/2/1
f 459/2/1 454/2/1 458/2/1
f 460/2/1 454/2/1 459/2/1
f 461/2/1 459/2/1 457/2/1
f 461/1/1 460/1/1 459/1/1
f 462/1/1 460/1/1 461/1/1
f 463/2/1 461/2/1 457/2/1
f 463/2/1 462/2/1 461/2/1
f 464/2/1 462/2/1 463/2/1
f 465/2/2 466/2/2 467/2/2
f 467/2/2 466/2/2 468/2/2
f 467/1/2 468/1/2 469/1/2
f 468/2/2 466/2/2 470/2/2
f 469/1/2 468/1/2 470/1/2
f 469/2/2 470/2/2 471/2/2
f 470/2/2 466/2/2 471/2/2
f 471/2/2 466/2/2 472/2/2
f 469/2/2 471/2/2 473/2/2
f 471/1/2 472/1/2 473/1/2
f 473/1/2 472/1/2 474/1/2
f 469/2/2 473/2/2 475/2/2
f 473/2/2 474/2/2 475/2/2
f 475/2/2 474/2/2 476/2/2
f 477/3/2 478/3/2 481/3/2
f 478/4/2 479/4/2 482/4/2
f 481/3/2 478/3/2 482/3/2
f 479/3/2 480/3/2 483/3/2
f 482/4/2 479/4/2 483/4/2
f 483/3/2 480/3/2 484/3/2
f 481/4/2 482/4/2 485/4/2
f 482/4/2 483/4/2 485/4/2
f 483/4/2 484/4/2 485/4/2
f 485/4/2 484/4/2 486/4/2
f 487/4/2 488/4/2 489/4/2
f 489/4/2 488/4/2 490/4/2
f 491/3/2 492/3/2 495/3/2
f 495/3/2 492/3/2 496/3/2
f 493/3/2 494/3/2 497/3/2
f 497/3/2 494/3/2 498/3/2
f 495/4/2 496/4/2 499/4/2
f 499/4/2 496/4/2 500/4/2
f 497/4/2 498/4/2 503/4/2
f 503/4/2 498/4/2 504/4/2
f 501/4/2 502/4/2 505/4/2
f 505/4/2 502/4/2 506/4/2
f 507/4/2 508/4/2 511/4/2
f 511/4/2 508/4/2 512/4/2
f 509/4/2 510/4/2 515/4/2
f 515/4/2 510/4/2 516/4/2
f 513/4/2 514/4/2 517/4/2
f 517/4/2 514/4/2 518/4/2
f 519/3/2 520/3/2 523/3/2
f 523/3/2 520/3/2 524/3/2
f 521/3/2 522/3/2 525/3/2
f 525/3/2 522/3/2 526/3/2
f 525/4/2 526/4/2 527/4/2
f 523/4/2 524/4/2 528/4/2
f 528/4/2 524/4/2 529/4/2
f 525/4/2 527/4/2 530/4/2
f 530/4/2 527/4/2 531/4/2
f 532/4/2 533/4/2 536/4/2
f 536/4/2 533/4/2 537/4/2
f 534/4/2 535/4/2 538/4/2
f 538/4/2 535/4/2 539/4/2
f 537/4/2 538/4/2 540/4/2
f 540/4/2 538/4/2 541/4/2
f 542/4/2 543/4/2 545/4/2
f 545/4/2 543/4/2 546/4/2
f 544/4/2 545/4/2 548/4/2
f 548/4/2 545/4/2 549/4/2
f 546/4/2 547/4/2 550/4/2
f 550/4/2 547/4/2 551/4/2
f 552/4/2 553/4/2 556/4/2
f 556/4/2 553/4/2 557/4/2
f 554/4/2 555/4/2 558/4/2
f 558/4/2 555/4/2 559/4/2
f 560/4/2 561/4/2 564/4/2
f 564/4/2 561/4/2 565/4/2
f 565/4/2 561/4/2 566/4/2
f 562/4/2 563/4/2 569/4/2
f 569/4/2 563/4/2 570/4/2
f 566/4/2 567/4/2 571/4/2
f 571/4/2 567/4/2 572/4/2
f 568/4/2 569/4/2 575/4/2
f 575/4/2 569/4/2 576/4/2
f 572/4/2 573/4/2 577/4/2
f 577/4/2 573/4/2 578/4/2
f 574/4/2 575/4/2 579/4/2
f 579/4/2 575/4/2 580/4/2
f 578/4/2 579/4/2 581/4/2
f 581/4/2 579/4/2 582/4/2
f 583/3/2 584/3/2 586/3/2
f 586/3/2 584/3/2 587/3/2
f 585/4/2 586/4/2 590/4/2
f 590/4/2 586/4/2 591/4/2
f 587/4/2 588/4/2 592/4/2
f 592/4/2 588/4/2 593/4/2
f 589/4/2 590/4/2 596/4/2
f 596/4/2 590/4/2 597/4/2
f 593/4/2 594/4/2 598/4/2
f 598/4/2 594/4/2 599/4/2
f 595/4/2 596/4/2 601/4/2
f 601/4/2 596/4/2 602/4/2
f 599/4/2 600/4/2 603/4/2
f 603/4/2 600/4/2 604/4/2
f 605/4/2 606/4/2 609/4/2
f 609/4/2 606/4/2 610/4/2
f 607/4/2 608/4/2 611/4/2
f 611/4/2 608/4/2 612/4/2
f 613/4/2 614/4/2 617/4/2
f 617/4/2 614/4/2 618/4/2
f 615/4/2 616/4/2 619/4/2
f 619/4/2 616/4/2 620/4/2
f 621/4/2 622/4/2 625/4/2
f 625/4/2 622/4/2 626/4/2
f 623/4/2 624/4/2 628/4/2
f 628/4/2 624/4/2 629/4/2
f 626/3/2 627/3/2 630/3/2
f 627/4/2 628/4/2 630/4/2
f 630/4/2 628/4/2 631/4/2
f 626/3/2 630/3/2 633/3/2
f 630/3/2 631/3/2 633/3/2
f 633/3/2 631/3/2 634/3/2
f 632/3/2 633/3/2 636/3/2
f 636/3/2 633/3/2 637/3/2
f 634/3/2 635/3/2 638/3/2
f 638/3/2 635/3/2 639/3/2
f 640/3/2 641/3/2 644/3/2
f 644/3/2 641/3/2 645/3/2
f 642/3/2 643/3/2 646/3/2
f 646/3/2 643/3/2 647/3/2
f 648/4/2 649/4/2 652/4/2
f 652/4/2 649/4/2 653/4/2
f 650/4/2 651/4/2 654/4/2
f 654/4/2 651/4/2 655/4/2
f 656/3/2 657/3/2 660/3/2
f 660/3/2 657/3/2 661/3/2
f 658/3/2 659/3/2 662/3/2
f 662/3/2 659/3/2 663/3/2
f 660/4/2 661/4/2 664/4/2
f 664/4/2 661/4/2 665/4/2
f 662/4/2 663/4/2 668/4/2
f 668/4/2 663/4/2 669/4/2
f 665/4/2 666/4/2 670/4/2
f 670/4/2 666/4/2 671/4/2
f 667/4/2 668/4/2 674/4/2
f 674/4/2 668/4/2 675/4/2
f 671/4/2 672/4/2 676/4/2
f 676/4/2 672/4/2 677/4/2
f 673/4/2 674/4/2 680/4/2
f 680/4/2 674/4/2 681/4/2
f 678/4/2 679/4/2 682/4/2
f 682/4/2 679/4/2 683/4/2
f 684/3/2 685/3/2 688/3/2
f 688/3/2 685/3/2 689/3/2
f 686/3/2 687/3/2 693/3/2
f 693/3/2 687/3/2 694/3/2
f 690/3/2 691/3/2 695/3/2
f 695/3/2 691/3/2 696/3/2
f 692/3/2 693/3/2 698/3/2
f 698/3/2 693/3/2 699/3/2
f 698/4/2 699/4/2 701/4/2
f 701/4/2 699/4/2 702/4/2
f 696/4/2 697/4/2 703/4/2
f 703/4/2 697/4/2 704/4/2
f 700/4/2 701/4/2 706/4/2
f 706/4/2 701/4/2 707/4/2
f 704/4/2 705/4/2 708/4/2
f 708/4/2 705/4/2 709/4/2
f 710/2/2 711/2/2 714/2/2
f 714/2/2 711/2/2 715/2/2
f 712/2/2 713/2/2 716/2/2
f 716/2/2 713/2/2 717/2/2
f 714/1/2 715/1/2 718/1/2
f 718/1/2 715/1/2 719/1/2
f 716/1/2 717/1/2 724/1/2
f 724/1/2 717/1/2 725/1/2
f 720/3/2 721/3/2 726/3/2
f 722/3/2 723/3/2 727/3/2
f 720/3/2 726/3/2 728/3/2
f 728/3/2 726/3/2 729/3/2
f 727/3/2 723/3/2 730/3/2
f 730/3/2 723/3/2 731/3/2
f 728/4/2 729/4/2 732/4/2
f 732/4/2 729/4/2 733/4/2
f 730/4/2 731/4/2 736/4/2
f 736/4/2 731/4/2 737/4/2
f 733/4/2 734/4/2 738/4/2
f 738/4/2 734/4/2 739/4/2
f 735/4/2 736/4/2 742/4/2
f 742/4/2 736/4/2 743/4/2
f 739/4/2 740/4/2 744/4/2
f 741/4/2 742/4/2 745/4/2
f 739/4/2 744/4/2 746/4/2
f 744/4/2 745/4/2 746/4/2
f 745/4/2 742/4/2 747/4/2
f 746/4/2 745/4/2 747/4/2
f 748/3/2 749/3/2 750/3/2
f 750/3/2 749/3/2 751/3/2
f 748/3/2 750/3/2 753/3/2
f 753/3/2 750/3/2 754/3/2
f 751/3/2 749/3/2 755/3/2
f 755/3/2 749/3/2 756/3/2
f 752/3/2 753/3/2 758/3/2
f 758/3/2 753/3/2 759/3/2
f 758/4/2 759/4/2 761/4/2
f 761/4/2 759/4/2 762/4/2
f 756/4/2 757/4/2 763/4/2
f 763/4/2 757/4/2 764/4/2
f 760/4/2 761/4/2 768/4/2
f 768/4/2 761/4/2 769/4/2
f 764/4/2 765/4/2 770/4/2
f 770/4/2 765/4/2 771/4/2
f 766/1/2 767/1/2 774/1/2
f 774/1/2 767/1/2 775/1/2
f 772/1/2 773/1/2 776/1/2
f 776/1/2 773/1/2 777/1/2
f 774/2/2 775/2/2 778/2/2
f 778/2/2 775/2/2 779/2/2
f 776/2/2 777/2/2 780/2/2
f 780/2/2 777/2/2 781/2/2
f 782/3/2 783/3/2 786/3/2
f 786/3/2 783/3/2 787/3/2
f 784/3/2 785/3/2 788/3/2
f 788/3/2 785/3/2 789/3/2
f 786/4/2 787/4/2 790/4/2
f 786/4/2 790/4/2 791/4/2
f 791/4/2 790/4/2 792/4/2
f 788/4/2 789/4/2 795/4/2
f 795/4/2 789/4/2 796/4/2
f 792/4/2 793/4/2 797/4/2
f 794/4/2 795/4/2 798/4/2
f 792/4/2 797/4/2 799/4/2
f 797/4/2 798/4/2 799/4/2
f 799/4/2 798/4/2 800/4/2
f 798/4/2 795/4/2 801/4/2
f 800/4/2 798/4/2 801/4/2
f 801/4/2 795/4/2 802/4/2
f 800/4/2 801/4/2 803/4/2
f 803/4/2 801/4/2 804/4/2
f 805/3/2 806/3/2 808/3/2
f 808/3/2 806/3/2 809/3/2
f 809/3/2 806/3/2 810/3/2
f 807/4/2 808/4/2 812/4/2
f 808/3/2 809/3/2 812/3/2
f 809/4/2 810/4/2 813/4/2
f 812/3/2 809/3/2 813/3/2
f 810/4/2 811/4/2 813/4/2
f 807/4/2 812/4/2 814/4/2
f 812/4/2 813/4/2 814/4/2
f 813/4/2 811/4/2 815/4/2
f 814/4/2 813/4/2 815/4/2
f 807/4/2 814/4/2 817/4/2
f 817/4/2 814/4/2 818/4/2
f 815/4/2 811/4/2 819/4/2
f 819/4/2 811/4/2 820/4/2
f 816/4/2 817/4/2 822/4/2
f 822/4/2 817/4/2 823/4/2
f 820/4/2 821/4/2 824/4/2
f 824/4/2 821/4/2 825/4/2
f 826/1/2 827/1/2 832/1/2
f 827/2/2 828/2/2 833/2/2
f 832/1/2 827/1/2 833/1/2
f 833/2/2 828/2/2 834/2/2
f 829/2/2 830/2/2 835/2/2
f 830/1/2 831/1/2 836/1/2
f 835/2/2 830/2/2 836/2/2
f 836/1/2 831/1/2 837/1/2
f 833/2/2 834/2/2 838/2/2
f 832/2/2 833/2/2 838/2/2
f 838/2/2 834/2/2 839/2/2
f 836/2/2 837/2/2 844/2/2
f 835/2/2 836/2/2 844/2/2
f 844/2/2 837/2/2 845/2/2
f 842/3/2 843/3/2 846/3/2
f 846/3/2 843/3/2 847/3/2
f 847/3/2 843/3/2 848/3/2
f 840/3/2 841/3/2 849/3/2
f 849/3/2 841/3/2 850/3/2
f 849/4/2 850/4/2 851/4/2
f 851/4/2 850/4/2 852/4/2
f 847/4/2 848/4/2 853/4/2
f 853/4/2 848/4/2 854/4/2
f 857/4/2 858/4/2 859/4/2
f 855/4/2 856/4/2 860/4/2
f 855/4/2 860/4/2 861/4/2
f 855/4/2 861/4/2 864/4/2
f 864/4/2 861/4/2 865/4/2
f 859/4/2 858/4/2 866/4/2
f 866/4/2 858/4/2 867/4/2
f 862/2/2 863/2/2 870/2/2
f 870/2/2 863/2/2 871/2/2
f 871/2/2 863/2/2 872/2/2
f 868/2/2 869/2/2 873/2/2
f 873/2/2 869/2/2 874/2/2
f 874/2/2 869/2/2 875/2/2
f 870/1/2 871/1/2 876/1/2
f 871/2/2 872/2/2 877/2/2
f 876/1/2 871/1/2 877/1/2
f 877/2/2 872/2/2 878/2/2
f 873/2/2 874/2/2 879/2/2
f 874/1/2 875/1/2 880/1/2
f 879/2/2 874/2/2 880/2/2
f 880/1/2 875/1/2 881/1/2
f 882/2/2 883/2/2 886/2/2
f 886/2/2 883/2/2 887/2/2
f 883/1/2 884/1/2 888/1/2
f 887/2/2 883/2/2 888/2/2
f 884/2/2 885/2/2 889/2/2
f 888/1/2 884/1/2 889/1/2
f 889/2/2 885/2/2 890/2/2
f 890/2/2 885/2/2 891/2/2
f 886/1/2 887/1/2 892/1/2
f 887/2/2 888/2/2 893/2/2
f 892/1/2 887/1/2 893/1/2
f 888/2/2 889/2/2 893/2/2
f 889/2/2 890/2/2 893/2/2
f 893/2/2 890/2/2 894/2/2
f 894/2/2 890/2/2 895/2/2
f 890/1/2 891/1/2 896/1/2
f 895/2/2 890/2/2 896/2/2
f 896/1/2 891/1/2 897/1/2
f 894/2/2 895/2/2 898/2/2
f 898/2/2 895/2/2 899/2/2
f 894/2/2 898/2/2 900/2/2
f 898/1/2 899/1/2 900/1/2
f 900/1/2 899/1/2 901/1/2
f 894/2/2 900/2/2 902/2/2
f 900/2/2 901/2/2 902/2/2
f 902/2/2 901/2/2 903/2/2
f 902/1/2 903/1/2 904/1/2
f 903/2/2 901/2/2 905/2/2
f 904/1/2 903/1/2 905/1/2
f 904/2/2 905/2/2 906/2/2
f 905/2/2 901/2/2 907/2/2
f 906/2/2 905/2/2 907/2/2
f 906/1/2 907/1/2 908/1/2
f 907/2/2 901/2/2 909/2/2
f 908/1/2 907/1/2 909/1/2
f 908/2/2 909/2/2 910/2/2
f 909/2/2 901/2/2 910/2/2
f 910/2/2 901/2/2 911/2/2
f 908/2/2 910/2/2 912/2/2
f 910/1/2 911/1/2 912/1/2
f 912/1/2 911/1/2 913/1/2
f 908/2/2 912/2/2 914/2/2
f 912/2/2 913/2/2 914/2/2
f 914/2/2 913/2/2 915/2/2
f 908/2/2 914/2/2 916/2/2
f 914/1/2 915/1/2 916/1/2
f 916/1/2 915/1/2 917/1/2
f 908/2/2 916/2/2 918/2/2
f 916/2/2 917/2/2 918/2/2
f 918/2/2 917/2/2 919/2/2
f 918/1/2 919/1/2 920/1/2
f 919/2/2 917/2/2 921/2/2
f 920/1/2 919/1/2 921/1/2
f 920/2/2 921/2/2 924/2/2
f 921/2/2 917/2/2 925/2/2
f 924/2/2 921/2/2 925/2/2
f 922/1/2 923/1/2 928/1/2
f 924/2/2 925/2/2 929/2/2
f 928/1/2 923/1/2 929/1/2
f 923/2/2 924/2/2 929/2/2
f 925/2/2 926/2/2 929/2/2
f 929/2/2 926/2/2 930/2/2
f 930/2/2 926/2/2 931/2/2
f 926/1/2 927/1/2 932/1/2
f 931/2/2 926/2/2 932/2/2
f 932/1/2 927/1/2 933/1/2
f 928/2/2 929/2/2 934/2/2
f 929/2/2 930/2/2 934/2/2
f 930/1/2 931/1/2 935/1/2
f 934/2/2 930/2/2 935/2/2
f 932/2/2 933/2/2 936/2/2
f 935/1/2 931/1/2 936/1/2
f 931/2/2 932/2/2 936/2/2
f 936/2/2 933/2/2 937/2/2
f 944/2/3 939/2/3 938/2/3
f 944/1/3 940/1/3 939/1/3
f 945/1/3 940/1/3 944/1/3
f 946/1/3 942/1/3 941/1/3
f 947/2/3 943/2/3 942/2/3
f 947/1/3 942/1/3 946/1/3
f 948/2/3 945/2/3 944/2/3
f 948/2/3 944/2/3 938/2/3
f 949/2/3 945/2/3 948/2/3
f 950/2/3 947/2/3 946/2/3
f 951/2/3 943/2/3 947/2/3
f 951/2/3 947/2/3 950/2/3
f 952/2/3 948/2/3 938/2/3
f 953/1/3 949/1/3 948/1/3
f 953/2/3 948/2/3 952/2/3
f 954/1/3 949/1/3 953/1/3
f 955/1/3 951/1/3 950/1/3
f 956/2/3 943/2/3 951/2/3
f 956/1/3 951/1/3 955/1/3
f 957/2/3 943/2/3 956/2/3
f 964/1/3 959/1/3 958/1/3
f 965/2/3 960/2/3 959/2/3
f 965/1/3 959/1/3 964/1/3
f 966/1/3 963/1/3 962/1/3
f 966/2/3 962/2/3 961/2/3
f 967/1/3 963/1/3 966/1/3
f 968/2/3 965/2/3 964/2/3
f 969/2/3 960/2/3 965/2/3
f 969/2/3 965/2/3 968/2/3
f 970/2/3 960/2/3 969/2/3
f 971/2/3 966/2/3 961/2/3
f 971/2/3 967/2/3 966/2/3
f 972/2/3 967/2/3 971/2/3
f 973/2/3 967/2/3 972/2/3
f 979/4/3 976/4/3 975/4/3
f 980/4/3 976/4/3 979/4/3
f 981/4/3 976/4/3 980/4/3
f 984/4/3 978/4/3 977/4/3
f 985/3/3 975/3/3 974/3/3
f 985/4/3 979/4/3 975/4/3
f 986/4/3 979/4/3 985/4/3
f 987/3/3 980/3/3 979/3/3
f 987/4/3 979/4/3 986/4/3
f 988/4/3 982/4/3 981/4/3
f 988/3/3 980/3/3 987/3/3
f 988/4/3 981/4/3 980/4/3
f 989/4/3 987/4/3 986/4/3
f 989/4/3 982/4/3 988/4/3
f 989/4/3 988/4/3 987/4/3
f 990/4/3 982/4/3 989/4/3
f 991/4/3 984/4/3 983/4/3
f 992/4/3 978/4/3 984/4/3
f 992/4/3 984/4/3 991/4/3
f 993/3/3 986/3/3 985/3/3
f 993/3/3 985/3/3 974/3/3
f 994/4/3 989/4/3 986/4/3
f 994/3/3 986/3/3 993/3/3
f 995/4/3 989/4/3 994/4/3
f 996/4/3 978/4/3 992/4/3
f 997/4/3 978/4/3 996/4/3
f 1004/2/3 1000/2/3 999/2/3
f 1004/2/3 999/2/3 998/2/3
f 1005/2/3 1000/2/3 1004/2/3
f 1006/2/3 1003/2/3 1002/2/3
f 1006/2/3 1002/2/3 1001/2/3
f 1007/2/3 1003/2/3 1006/2/3
f 1008/1/3 1005/1/3 1004/1/3
f 1009/2/3 1000/2/3 1005/2/3
f 1009/1/3 1005/1/3 1008/1/3
f 1010/2/3 1000/2/3 1009/2/3
f 1011/2/3 1006/2/3 1001/2/3
f 1012/1/3 1007/1/3 1006/1/3
f 1012/2/3 1006/2/3 1011/2/3
f 1013/1/3 1007/1/3 1012/1/3
f 1019/3/3 1015/3/3 1014/3/3
f 1020/4/3 1016/4/3 1015/4/3
f 1020/3/3 1015/3/3 1019/3/3
f 1021/4/3 1016/4/3 1020/4/3
f 1024/4/3 1018/4/3 1017/4/3
f 1025/4/3 1018/4/3 1024/4/3
f 1026/4/3 1022/4/3 1021/4/3
f 1027/4/3 1022/4/3 1026/4/3
f 1028/4/3 1022/4/3 1027/4/3
f 1031/4/3 1024/4/3 1023/4/3
f 1032/4/3 1024/4/3 1031/4/3
f 1033/4/3 1024/4/3 1032/4/3
f 1034/4/3 1024/4/3 1033/4/3
f 1036/4/3 1029/4/3 1028/4/3
f 1036/4/3 1028/4/3 1027/4/3
f 1037/4/3 1029/4/3 1036/4/3
f 1038/4/3 1029/4/3 1037/4/3
f 1039/3/3 1032/3/3 1031/3/3
f 1039/3/3 1031/3/3 1030/3/3
f 1040/3/3 1032/3/3 1039/3/3
f 1041/4/3 1033/4/3 1032/4/3
f 1045/4/3 1037/4/3 1036/4/3
f 1045/4/3 1036/4/3 1035/4/3
f 1046/4/3 1037/4/3 1045/4/3
f 1047/3/3 1032/3/3 1040/3/3
f 1048/4/3 1042/4/3 1041/4/3
f 1048/3/3 1032/3/3 1047/3/3
f 1048/4/3 1041/4/3 1032/4/3
f 1049/4/3 1042/4/3 1048/4/3
f 1051/3/3 1044/3/3 1043/3/3
f 1052/4/3 1045/4/3 1044/4/3
f 1052/3/3 1044/3/3 1051/3/3
f 1053/4/3 1045/4/3 1052/4/3
f 1054/4/3 1050/4/3 1049/4/3
f 1055/4/3 1050/4/3 1054/4/3
f 1062/2/3 1057/2/3 1056/2/3
f 1063/1/3 1058/1/3 1057/1/3
f 1063/2/3 1057/2/3 1062/2/3
f 1064/1/3 1058/1/3 1063/1/3
f 1065/1/3 1060/1/3 1059/1/3
f 1066/2/3 1061/2/3 1060/2/3
f 1066/1/3 1060/1/3 1065/1/3
f 1067/2/3 1061/2/3 1066/2/3
f 1073/3/3 1069/3/3 1068/3/3
f 1074/4/3 1070/4/3 1069/4/3
f 1074/3/3 1069/3/3 1073/3/3
f 1075/4/3 1070/4/3 1074/4/3
f 1078/4/3 1072/4/3 1071/4/3
f 1079/4/3 1072/4/3 1078/4/3
f 1080/4/3 1076/4/3 1075/4/3
f 1081/4/3 1076/4/3 1080/4/3
f 1084/4/3 1078/4/3 1077/4/3
f 1085/4/3 1078/4/3 1084/4/3
f 1086/4/3 1082/4/3 1081/4/3
f 1087/4/3 1082/4/3 1086/4/3
f 1088/3/3 1084/3/3 1083/3/3
f 1089/3/3 1084/3/3 1088/3/3
f 1091/4/3 1082/4/3 1087/4/3
f 1092/3/3 1088/3/3 1083/3/3
f 1095/4/3 1091/4/3 1090/4/3
f 1096/4/3 1082/4/3 1091/4/3
f 1096/4/3 1091/4/3 1095/4/3
f 1097/3/3 1093/3/3 1092/3/3
f 1097/3/3 1092/3/3 1083/3/3
f 1098/3/3 1093/3/3 1097/3/3
f 1104/4/3 1095/4/3 1094/4/3
f 1105/4/3 1095/4/3 1104/4/3
f 1106/3/3 1099/3/3 1098/3/3
f 1107/4/3 1100/4/3 1099/4/3
f 1107/3/3 1099/3/3 1106/3/3
f 1108/4/3 1100/4/3 1107/4/3
f 1110/3/3 1102/3/3 1101/3/3
f 1111/4/3 1104/4/3 1103/4/3
f 1111/3/3 1102/3/3 1110/3/3
f 1111/4/3 1103/4/3 1102/4/3
f 1112/4/3 1104/4/3 1111/4/3
f 1113/4/3 1109/4/3 1108/4/3
f 1114/4/3 1109/4/3 1113/4/3
f 1121/2/3 1116/2/3 1115/2/3
f 1122/1/3 1117/1/3 1116/1/3
f 1122/2/3 1116/2/3 1121/2/3
f 1123/1/3 1117/1/3 1122/1/3
f 1124/1/3 1119/1/3 1118/1/3
f 1125/2/3 1120/2/3 1119/2/3
f 1125/1/3 1119/1/3 1124/1/3
f 1126/2/3 1120/2/3 1125/2/3
f 1132/3/3 1128/3/3 1127/3/3
f 1133/4/3 1129/4/3 1128/4/3
f 1133/3/3 1128/3/3 1132/3/3
f 1134/4/3 1129/4/3 1133/4/3
f 1137/4/3 1131/4/3 1130/4/3
f 1138/4/3 1131/4/3 1137/4/3
f 1139/4/3 1135/4/3 1134/4/3
f 1140/4/3 1135/4/3 1139/4/3
f 1143/4/3 1137/4/3 1136/4/3
f 1144/4/3 1137/4/3 1143/4/3
f 1145/4/3 1141/4/3 1140/4/3
f 1146/4/3 1141/4/3 1145/4/3
f 1147/3/3 1143/3/3 1142/3/3
f 1148/3/3 1143/3/3 1147/3/3
f 1153/4/3 1150/4/3 1149/4/3
f 1154/4/3 1150/4/3 1153/4/3
f 1155/3/3 1152/3/3 1151/3/3
f 1156/3/3 1152/3/3 1155/3/3
f 1162/4/3 1158/4/3 1157/4/3
f 1163/4/3 1158/4/3 1162/4/3
f 1164/3/3 1160/3/3 1159/3/3
f 1165/3/3 1160/3/3 1164/3/3
f 1171/4/3 1162/4/3 1161/4/3
f 1172/4/3 1162/4/3 1171/4/3
f 1173/4/3 1167/4/3 1166/4/3
f 1173/4/3 1166/4/3 1165/4/3
f 1174/4/3 1167/4/3 1173/4/3
f 1176/3/3 1170/3/3 1169/3/3
f 1176/3/3 1169/3/3 1168/3/3
f 1177/4/3 1171/4/3 1170/4/3
f 1177/3/3 1170/3/3 1176/3/3
f 1178/4/3 1171/4/3 1177/4/3
f 1179/4/3 1175/4/3 1174/4/3
f 1180/4/3 1175/4/3 1179/4/3
f 1189/2/3 1182/2/3 1181/2/3
f 1190/2/3 1182/2/3 1189/2/3
f 1191/1/3 1183/1/3 1182/1/3
f 1191/2/3 1182/2/3 1190/2/3
f 1192/2/3 1184/2/3 1183/2/3
f 1192/1/3 1183/1/3 1191/1/3
f 1193/1/3 1185/1/3 1184/1/3
f 1193/2/3 1184/2/3 1192/2/3
f 1194/2/3 1186/2/3 1185/2/3
f 1194/1/3 1185/1/3 1193/1/3
f 1195/2/3 1186/2/3 1194/2/3
f 1196/2/3 1186/2/3 1195/2/3
f 1197/1/3 1187/1/3 1186/1/3
f 1197/2/3 1186/2/3 1196/2/3
f 1198/2/3 1188/2/3 1187/2/3
f 1198/1/3 1187/1/3 1197/1/3
f 1199/2/3 1188/2/3 1198/2/3
f 1200/4/3 1192/4/3 1191/4/3
f 1201/4/3 1192/4/3 1200/4/3
f 1206/4/3 1196/4/3 1195/4/3
f 1207/4/3 1196/4/3 1206/4/3
f 1208/4/3 1203/4/3 1202/4/3
f 1209/4/3 1203/4/3 1208/4/3
f 1210/3/3 1205/3/3 1204/3/3
f 1211/3/3 1205/3/3 1210/3/3
f 1216/4/3 1213/4/3 1212/4/3
f 1217/4/3 1213/4/3 1216/4/3
f 1219/3/3 1215/3/3 1214/3/3
f 1220/3/3 1215/3/3 1219/3/3
f 1221/4/3 1218/4/3 1217/4/3
f 1222/3/3 1219/3/3 1218/3/3
f 1222/4/3 1218/4/3 1221/4/3
f 1224/3/3 1222/3/3 1221/3/3
f 1225/3/3 1219/3/3 1222/3/3
f 1225/3/3 1222/3/3 1224/3/3
f 1227/4/3 1224/4/3 1223/4/3
f 1228/4/3 1224/4/3 1227/4/3
f 1229/3/3 1226/3/3 1225/3/3
f 1230/3/3 1226/3/3 1229/3/3
f 1237/4/3 1232/4/3 1231/4/3
f 1238/4/3 1232/4/3 1237/4/3
f 1239/3/3 1234/3/3 1233/3/3
f 1240/3/3 1234/3/3 1239/3/3
f 1245/4/3 1236/4/3 1235/4/3
f 1246/4/3 1236/4/3 1245/4/3
f 1249/4/3 1242/4/3 1241/4/3
f 1250/4/3 1242/4/3 1249/4/3
f 1254/2/3 1244/2/3 1243/2/3
f 1254/2/3 1245/2/3 1244/2/3
f 1255/1/3 1246/1/3 1245/1/3
f 1255/2/3 1245/2/3 1254/2/3
f 1256/2/3 1247/2/3 1246/2/3
f 1256/1/3 1246/1/3 1255/1/3
f 1257/1/3 1248/1/3 1247/1/3
f 1257/2/3 1247/2/3 1256/2/3
f 1258/2/3 1250/2/3 1249/2/3
f 1258/1/3 1248/1/3 1257/1/3
f 1258/2/3 1249/2/3 1248/2/3
f 1258/2/3 1251/2/3 1250/2/3
f 1259/1/3 1252/1/3 1251/1/3
f 1259/2/3 1251/2/3 1258/2/3
f 1260/2/3 1253/2/3 1252/2/3
f 1260/1/3 1252/1/3 1259/1/3
f 1261/2/3 1253/2/3 1260/2/3
f 1266/4/3 1263/4/3 1262/4/3
f 1267/4/3 1263/4/3 1266/4/3
f 1270/4/3 1265/4/3 1264/4/3
f 1271/4/3 1265/4/3 1270/4/3
f 1272/4/3 1268/4/3 1267/4/3
f 1273/4/3 1268/4/3 1272/4/3
f 1276/4/3 1270/4/3 1269/4/3
f 1277/4/3 1270/4/3 1276/4/3
f 1279/4/3 1274/4/3 1273/4/3
f 1280/4/3 1274/4/3 1279/4/3
f 1281/3/3 1276/3/3 1275/3/3
f 1282/3/3 1276/3/3 1281/3/3
f 1285/4/3 1279/4/3 1278/4/3
f 1286/4/3 1279/4/3 1285/4/3
f 1287/4/3 1283/4/3 1282/4/3
f 1288/4/3 1283/4/3 1287/4/3
f 1290/4/3 1285/4/3 1284/4/3
f 1291/4/3 1285/4/3 1290/4/3
f 1292/4/3 1289/4/3 1288/4/3
f 1293/4/3 1289/4/3 1292/4/3
f 1299/3/3 1295/3/3 1294/3/3
f 1300/4/3 1296/4/3 1295/4/3
f 1300/3/3 1295/3/3 1299/3/3
f 1301/4/3 1296/4/3 1300/4/3
f 1302/4/3 1298/4/3 1297/4/3
f 1303/4/3 1298/4/3 1302/4/3
f 1308/4/3 1305/4/3 1304/4/3
f 1309/4/3 1305/4/3 1308/4/3
f 1312/4/3 1307/4/3 1306/4/3
f 1313/4/3 1307/4/3 1312/4/3
f 1315/4/3 1310/4/3 1309/4/3
f 1316/4/3 1310/4/3 1315/4/3
f 1317/4/3 1312/4/3 1311/4/3
f 1318/4/3 1312/4/3 1317/4/3
f 1320/4/3 1315/4/3 1314/4/3
f 1321/4/3 1315/4/3 1320/4/3
f 1322/4/3 1319/4/3 1318/4/3
f 1323/4/3 1319/4/3 1322/4/3
f 1329/3/3 1325/3/3 1324/3/3
f 1330/4/3 1326/4/3 1325/4/3
f 1330/3/3 1325/3/3 1329/3/3
f 1331/4/3 1326/4/3 1330/4/3
f 1332/4/3 1328/4/3 1327/4/3
f 1333/4/3 1328/4/3 1332/4/3
f 1339/3/3 1335/3/3 1334/3/3
f 1340/4/3 1336/4/3 1335/4/3
f 1340/3/3 1335/3/3 1339/3/3
f 1341/4/3 1336/4/3 1340/4/3
f 1342/4/3 1338/4/3 1337/4/3
f 1343/4/3 1338/4/3 1342/4/3
f 1344/4/3 1336/4/3 1341/4/3
f 1345/4/3 1336/4/3 1344/4/3
f 1348/4/3 1342/4/3 1337/4/3
f 1349/4/3 1342/4/3 1348/4/3
f 1351/4/3 1346/4/3 1345/4/3
f 1352/4/3 1346/4/3 1351/4/3
f 1353/4/3 1348/4/3 1347/4/3
f 1354/4/3 1348/4/3 1353/4/3
f 1358/4/3 1351/4/3 1350/4/3
f 1359/4/3 1355/4/3 1354/4/3
f 1361/3/3 1357/3/3 1356/3/3
f 1362/3/3 1357/3/3 1361/3/3
f 1363/4/3 1358/4/3 1357/4/3
f 1363/3/3 1357/3/3 1362/3/3
f 1364/4/3 1351/4/3 1358/4/3
f 1364/4/3 1358/4/3 1363/4/3
f 1365/4/3 1359/4/3 1354/4/3
f 1365/4/3 1360/4/3 1359/4/3
f 1366/4/3 1360/4/3 1365/4/3
f 1373/3/3 1368/3/3 1367/3/3
f 1373/3/3 1369/3/3 1368/3/3
f 1374/4/3 1370/4/3 1369/4/3
f 1374/3/3 1369/3/3 1373/3/3
f 1375/4/3 1370/4/3 1374/4/3
f 1378/4/3 1372/4/3 1371/4/3
f 1379/4/3 1376/4/3 1375/4/3
f 1379/3/3 1373/3/3 1367/3/3
f 1379/4/3 1374/4/3 1373/4/3
f 1379/4/3 1375/4/3 1374/4/3
f 1380/4/3 1376/4/3 1379/4/3
f 1381/4/3 1376/4/3 1380/4/3
f 1382/4/3 1376/4/3 1381/4/3
f 1383/4/3 1378/4/3 1377/4/3
f 1384/4/3 1372/4/3 1378/4/3
f 1384/4/3 1378/4/3 1383/4/3
f 1385/3/3 1379/3/3 1367/3/3
f 1385/3/3 1380/3/3 1379/3/3
f 1386/4/3 1381/4/3 1380/4/3
f 1386/3/3 1380/3/3 1385/3/3
f 1387/4/3 1381/4/3 1386/4/3
f 1388/4/3 1372/4/3 1384/4/3
f 1389/4/3 1372/4/3 1388/4/3
f 1391/4/4 1392/4/4 1395/4/4
f 1393/4/4 1394/4/4 1399/4/4
f 1390/3/4 1391/3/4 1400/3/4
f 1391/4/4 1395/4/4 1400/4/4
f 1400/4/4 1395/4/4 1401/4/4
f 1395/3/4 1396/3/4 1402/3/4
f 1401/4/4 1395/4/4 1402/4/4
f 1396/4/4 1397/4/4 1403/4/4
f 1402/3/4 1396/3/4 1403/3/4
f 1401/4/4 1402/4/4 1404/4/4
f 1402/4/4 1403/4/4 1404/4/4
f 1403/4/4 1397/4/4 1405/4/4
f 1404/4/4 1403/4/4 1405/4/4
f 1398/4/4 1399/4/4 1406/4/4
f 1399/4/4 1394/4/4 1407/4/4
f 1406/4/4 1399/4/4 1407/4/4
f 1400/3/4 1401/3/4 1408/3/4
f 1390/3/4 1400/3/4 1408/3/4
f 1401/4/4 1404/4/4 1409/4/4
f 1408/3/4 1401/3/4 1409/3/4
f 1409/4/4 1404/4/4 1410/4/4
f 1407/4/4 1394/4/4 1411/4/4
f 1411/4/4 1394/4/4 1412/4/4
f 1413/3/4 1414/3/4 1418/3/4
f 1414/4/4 1415/4/4 1419/4/4
f 1418/3/4 1414/3/4 1419/3/4
f 1419/4/4 1415/4/4 1420/4/4
f 1416/4/4 1417/4/4 1421/4/4
f 1421/4/4 1417/4/4 1422/4/4
f 1420/4/4 1415/4/4 1423/4/4
f 1423/4/4 1415/4/4 1424/4/4
f 1416/4/4 1421/4/4 1427/4/4
f 1427/4/4 1421/4/4 1428/4/4
f 1424/4/4 1425/4/4 1430/4/4
f 1430/4/4 1425/4/4 1431/4/4
f 1426/4/4 1427/4/4 1432/4/4
f 1432/4/4 1427/4/4 1433/4/4
f 1429/4/4 1430/4/4 1437/4/4
f 1433/4/4 1434/4/4 1438/4/4
f 1435/3/4 1436/3/4 1440/3/4
f 1440/3/4 1436/3/4 1441/3/4
f 1436/4/4 1437/4/4 1442/4/4
f 1441/3/4 1436/3/4 1442/3/4
f 1437/4/4 1430/4/4 1443/4/4
f 1442/4/4 1437/4/4 1443/4/4
f 1433/4/4 1438/4/4 1444/4/4
f 1438/4/4 1439/4/4 1444/4/4
f 1444/4/4 1439/4/4 1445/4/4
f 1446/3/4 1447/3/4 1451/3/4
f 1447/4/4 1448/4/4 1452/4/4
f 1451/3/4 1447/3/4 1452/3/4
f 1452/4/4 1448/4/4 1453/4/4
f 1449/4/4 1450/4/4 1454/4/4
f 1454/4/4 1450/4/4 1455/4/4
f 1456/4/4 1457/4/4 1460/4/4
f 1460/4/4 1457/4/4 1461/4/4
f 1458/4/4 1459/4/4 1464/4/4
f 1464/4/4 1459/4/4 1465/4/4
f 1461/4/4 1462/4/4 1467/4/4
f 1467/4/4 1462/4/4 1468/4/4
f 1463/4/4 1464/4/4 1469/4/4
f 1469/4/4 1464/4/4 1470/4/4
f 1466/4/4 1467/4/4 1472/4/4
f 1472/4/4 1467/4/4 1473/4/4
f 1470/4/4 1471/4/4 1474/4/4
f 1474/4/4 1471/4/4 1475/4/4
f 1476/3/4 1477/3/4 1481/3/4
f 1477/4/4 1478/4/4 1482/4/4
f 1481/3/4 1477/3/4 1482/3/4
f 1482/4/4 1478/4/4 1483/4/4
f 1483/4/4 1478/4/4 1484/4/4
f 1479/4/4 1480/4/4 1485/4/4
f 1485/4/4 1480/4/4 1486/4/4
f 1487/4/4 1488/4/4 1491/4/4
f 1491/4/4 1488/4/4 1492/4/4
f 1489/4/4 1490/4/4 1495/4/4
f 1495/4/4 1490/4/4 1496/4/4
f 1492/4/4 1493/4/4 1497/4/4
f 1497/4/4 1493/4/4 1498/4/4
f 1494/4/4 1495/4/4 1501/4/4
f 1501/4/4 1495/4/4 1502/4/4
f 1498/4/4 1499/4/4 1504/4/4
f 1504/4/4 1499/4/4 1505/4/4
f 1500/3/4 1501/3/4 1506/3/4
f 1506/3/4 1501/3/4 1507/3/4
f 1503/4/4 1504/4/4 1510/4/4
f 1510/4/4 1504/4/4 1511/4/4
f 1507/4/4 1508/4/4 1512/4/4
f 1512/4/4 1508/4/4 1513/4/4
f 1509/4/4 1510/4/4 1515/4/4
f 1515/4/4 1510/4/4 1516/4/4
f 1513/4/4 1514/4/4 1517/4/4
f 1517/4/4 1514/4/4 1518/4/4
f 1519/2/4 1520/2/4 1527/2/4
f 1520/1/4 1521/1/4 1528/1/4
f 1527/2/4 1520/2/4 1528/2/4
f 1521/2/4 1522/2/4 1529/2/4
f 1528/1/4 1521/1/4 1529/1/4
f 1529/2/4 1522/2/4 1530/2/4
f 1530/2/4 1522/2/4 1531/2/4
f 1522/1/4 1523/1/4 1532/1/4
f 1531/2/4 1522/2/4 1532/2/4
f 1523/2/4 1524/2/4 1533/2/4
f 1532/1/4 1523/1/4 1533/1/4
f 1533/2/4 1524/2/4 1534/2/4
f 1524/1/4 1525/1/4 1535/1/4
f 1534/2/4 1524/2/4 1535/2/4
f 1525/2/4 1526/2/4 1536/2/4
f 1535/1/4 1525/1/4 1536/1/4
f 1536/2/4 1526/2/4 1537/2/4
f 1530/4/4 1531/4/4 1538/4/4
f 1538/4/4 1531/4/4 1539/4/4
f 1534/4/4 1535/4/4 1544/4/4
f 1544/4/4 1535/4/4 1545/4/4
f 1540/4/4 1541/4/4 1546/4/4
f 1546/4/4 1541/4/4 1547/4/4
f 1542/3/4 1543/3/4 1548/3/4
f 1548/3/4 1543/3/4 1549/3/4
f 1550/4/4 1551/4/4 1554/4/4
f 1554/4/4 1551/4/4 1555/4/4
f 1552/3/4 1553/3/4 1557/3/4
f 1557/3/4 1553/3/4 1558/3/4
f 1555/4/4 1556/4/4 1560/4/4
f 1556/3/4 1557/3/4 1561/3/4
f 1560/4/4 1556/4/4 1561/4/4
f 1561/3/4 1557/3/4 1562/3/4
f 1559/4/4 1560/4/4 1564/4/4
f 1564/4/4 1560/4/4 1565/4/4
f 1562/3/4 1563/3/4 1566/3/4
f 1566/3/4 1563/3/4 1567/3/4
f 1568/4/4 1569/4/4 1574/4/4
f 1574/4/4 1569/4/4 1575/4/4
f 1570/3/4 1571/3/4 1576/3/4
f 1576/3/4 1571/3/4 1577/3/4
f 1572/4/4 1573/4/4 1583/4/4
f 1583/4/4 1573/4/4 1584/4/4
f 1578/4/4 1579/4/4 1587/4/4
f 1587/4/4 1579/4/4 1588/4/4
f 1580/2/4 1581/2/4 1591/2/4
f 1581/1/4 1582/1/4 1592/1/4
f 1591/2/4 1581/2/4 1592/2/4
f 1582/2/4 1583/2/4 1593/2/4
f 1592/1/4 1582/1/4 1593/1/4
f 1583/2/4 1584/2/4 1593/2/4
f 1584/2/4 1585/2/4 1593/2/4
f 1585/1/4 1586/1/4 1594/1/4
f 1593/2/4 1585/2/4 1594/2/4
f 1587/2/4 1588/2/4 1595/2/4
f 1594/1/4 1586/1/4 1595/1/4
f 1586/2/4 1587/2/4 1595/2/4
f 1588/1/4 1589/1/4 1596/1/4
f 1595/2/4 1588/2/4 1596/2/4
f 1589/2/4 1590/2/4 1597/2/4
f 1596/1/4 1589/1/4 1597/1/4
f 1597/2/4 1590/2/4 1598/2/4
f 1599/3/4 1600/3/4 1604/3/4
f 1600/4/4 1601/4/4 1605/4/4
f 1604/3/4 1600/3/4 1605/3/4
f 1605/4/4 1601/4/4 1606/4/4
f 1602/4/4 1603/4/4 1609/4/4
f 1609/4/4 1603/4/4 1610/4/4
f 1606/4/4 1607/4/4 1611/4/4
f 1611/4/4 1607/4/4 1612/4/4
f 1608/4/4 1609/4/4 1615/4/4
f 1615/4/4 1609/4/4 1616/4/4
f 1612/4/4 1613/4/4 1617/4/4
f 1617/4/4 1613/4/4 1618/4/4
f 1614/3/4 1615/3/4 1619/3/4
f 1619/3/4 1615/3/4 1620/3/4
f 1621/4/4 1622/4/4 1625/4/4
f 1625/4/4 1622/4/4 1626/4/4
f 1623/3/4 1624/3/4 1627/3/4
f 1627/3/4 1624/3/4 1628/3/4
f 1629/4/4 1630/4/4 1634/4/4
f 1634/4/4 1630/4/4 1635/4/4
f 1631/3/4 1632/3/4 1636/3/4
f 1636/3/4 1632/3/4 1637/3/4
f 1633/4/4 1634/4/4 1641/4/4
f 1641/4/4 1634/4/4 1642/4/4
f 1637/4/4 1638/4/4 1643/4/4
f 1643/4/4 1638/4/4 1644/4/4
f 1639/3/4 1640/3/4 1646/3/4
f 1640/4/4 1641/4/4 1647/4/4
f 1646/3/4 1640/3/4 1647/3/4
f 1647/4/4 1641/4/4 1648/4/4
f 1644/4/4 1645/4/4 1649/4/4
f 1649/4/4 1645/4/4 1650/4/4
f 1651/2/4 1652/2/4 1657/2/4
f 1652/1/4 1653/1/4 1658/1/4
f 1657/2/4 1652/2/4 1658/2/4
f 1658/1/4 1653/1/4 1659/1/4
f 1654/1/4 1655/1/4 1660/1/4
f 1655/2/4 1656/2/4 1661/2/4
f 1660/1/4 1655/1/4 1661/1/4
f 1661/2/4 1656/2/4 1662/2/4
f 1663/3/4 1664/3/4 1668/3/4
f 1664/4/4 1665/4/4 1669/4/4
f 1668/3/4 1664/3/4 1669/3/4
f 1669/4/4 1665/4/4 1670/4/4
f 1666/4/4 1667/4/4 1673/4/4
f 1673/4/4 1667/4/4 1674/4/4
f 1670/4/4 1671/4/4 1675/4/4
f 1675/4/4 1671/4/4 1676/4/4
f 1672/4/4 1673/4/4 1679/4/4
f 1679/4/4 1673/4/4 1680/4/4
f 1676/4/4 1677/4/4 1681/4/4
f 1681/4/4 1677/4/4 1682/4/4
f 1678/3/4 1679/3/4 1683/3/4
f 1683/3/4 1679/3/4 1684/3/4
f 1682/4/4 1677/4/4 1686/4/4
f 1678/3/4 1683/3/4 1687/3/4
f 1685/4/4 1686/4/4 1690/4/4
f 1686/4/4 1677/4/4 1691/4/4
f 1690/4/4 1686/4/4 1691/4/4
f 1687/3/4 1688/3/4 1692/3/4
f 1678/3/4 1687/3/4 1692/3/4
f 1692/3/4 1688/3/4 1693/3/4
f 1689/4/4 1690/4/4 1698/4/4
f 1698/4/4 1690/4/4 1699/4/4
f 1693/4/4 1694/4/4 1700/4/4
f 1700/4/4 1694/4/4 1701/4/4
f 1695/3/4 1696/3/4 1703/3/4
f 1696/4/4 1697/4/4 1704/4/4
f 1703/3/4 1696/3/4 1704/3/4
f 1697/4/4 1698/4/4 1704/4/4
f 1704/4/4 1698/4/4 1705/4/4
f 1701/4/4 1702/4/4 1706/4/4
f 1706/4/4 1702/4/4 1707/4/4
f 1708/2/4 1709/2/4 1714/2/4
f 1709/1/4 1710/1/4 1715/1/4
f 1714/2/4 1709/2/4 1715/2/4
f 1715/1/4 1710/1/4 1716/1/4
f 1711/1/4 1712/1/4 1717/1/4
f 1712/2/4 1713/2/4 1718/2/4
f 1717/1/4 1712/1/4 1718/1/4
f 1718/2/4 1713/2/4 1719/2/4
f 1720/3/4 1721/3/4 1725/3/4
f 1721/4/4 1722/4/4 1726/4/4
f 1725/3/4 1721/3/4 1726/3/4
f 1726/4/4 1722/4/4 1727/4/4
f 1727/4/4 1722/4/4 1728/4/4
f 1723/4/4 1724/4/4 1731/4/4
f 1731/4/4 1724/4/4 1732/4/4
f 1728/4/4 1729/4/4 1733/4/4
f 1733/4/4 1729/4/4 1734/4/4
f 1734/4/4 1729/4/4 1735/4/4
f 1730/4/4 1731/4/4 1738/4/4
f 1738/4/4 1731/4/4 1739/4/4
f 1739/4/4 1731/4/4 1740/4/4
f 1737/3/4 1738/3/4 1741/3/4
f 1738/4/4 1739/4/4 1741/4/4
f 1741/4/4 1739/4/4 1742/4/4
f 1735/4/4 1736/4/4 1744/4/4
f 1734/4/4 1735/4/4 1744/4/4
f 1744/4/4 1736/4/4 1745/4/4
f 1745/4/4 1736/4/4 1746/4/4
f 1741/3/4 1742/3/4 1747/3/4
f 1737/3/4 1741/3/4 1747/3/4
f 1747/3/4 1742/3/4 1748/3/4
f 1742/4/4 1739/4/4 1749/4/4
f 1748/3/4 1742/3/4 1749/3/4
f 1749/4/4 1739/4/4 1750/4/4
f 1744/4/4 1745/4/4 1754/4/4
f 1743/4/4 1744/4/4 1754/4/4
f 1754/4/4 1745/4/4 1755/4/4
f 1750/4/4 1751/4/4 1756/4/4
f 1749/4/4 1750/4/4 1756/4/4
f 1748/4/4 1749/4/4 1756/4/4
f 1756/4/4 1751/4/4 1757/4/4
f 1752/3/4 1753/3/4 1759/3/4
f 1753/4/4 1754/4/4 1760/4/4
f 1759/3/4 1753/3/4 1760/3/4
f 1760/4/4 1754/4/4 1761/4/4
f 1757/4/4 1758/4/4 1762/4/4
f 1762/4/4 1758/4/4 1763/4/4
f 1764/1/4 1765/1/4 1770/1/4
f 1765/2/4 1766/2/4 1771/2/4
f 1770/1/4 1765/1/4 1771/1/4
f 1768/1/4 1769/1/4 1772/1/4
f 1767/2/4 1768/2/4 1772/2/4
f 1772/1/4 1769/1/4 1773/1/4
f 1770/2/4 1771/2/4 1774/2/4
f 1771/2/4 1766/2/4 1775/2/4
f 1774/2/4 1771/2/4 1775/2/4
f 1775/2/4 1766/2/4 1776/2/4
f 1767/2/4 1772/2/4 1777/2/4
f 1772/2/4 1773/2/4 1777/2/4
f 1777/2/4 1773/2/4 1778/2/4
f 1778/2/4 1773/2/4 1779/2/4
f 1780/3/4 1781/3/4 1785/3/4
f 1781/4/4 1782/4/4 1786/4/4
f 1785/3/4 1781/3/4 1786/3/4
f 1786/4/4 1782/4/4 1787/4/4
f 1783/4/4 1784/4/4 1790/4/4
f 1787/4/4 1788/4/4 1791/4/4
f 1780/3/4 1785/3/4 1791/3/4
f 1785/4/4 1786/4/4 1791/4/4
f 1786/4/4 1787/4/4 1791/4/4
f 1791/4/4 1788/4/4 1792/4/4
f 1792/4/4 1788/4/4 1793/4/4
f 1793/4/4 1788/4/4 1794/4/4
f 1789/4/4 1790/4/4 1795/4/4
f 1790/4/4 1784/4/4 1796/4/4
f 1795/4/4 1790/4/4 1796/4/4
f 1780/3/4 1791/3/4 1797/3/4
f 1791/3/4 1792/3/4 1797/3/4
f 1792/4/4 1793/4/4 1798/4/4
f 1797/3/4 1792/3/4 1798/3/4
f 1798/4/4 1793/4/4 1799/4/4
f 1796/4/4 1784/4/4 1800/4/4
f 1800/4/4 1784/4/4 1801/4/4
f 1803/2/4 1804/2/4 1808/2/4
f 1802/2/4 1803/2/4 1808/2/4
f 1808/2/4 1804/2/4 1809/2/4
f 1806/2/4 1807/2/4 1810/2/4
f 1805/2/4 1806/2/4 1810/2/4
f 1810/2/4 1807/2/4 1811/2/4
f 1808/1/4 1809/1/4 1812/1/4
f 1809/2/4 1804/2/4 1813/2/4
f 1812/1/4 1809/1/4 1813/1/4
f 1813/2/4 1804/2/4 1814/2/4
f 1805/2/4 1810/2/4 1815/2/4
f 1810/1/4 1811/1/4 1816/1/4
f 1815/2/4 1810/2/4 1816/2/4
f 1816/1/4 1811/1/4 1817/1/4
f 1818/2/4 1819/2/4 1824/2/4
f 1819/1/4 1820/1/4 1824/1/4
f 1824/1/4 1820/1/4 1825/1/4
f 1821/1/4 1822/1/4 1826/1/4
f 1822/2/4 1823/2/4 1827/2/4
f 1826/1/4 1822/1/4 1827/1/4
f 1824/2/4 1825/2/4 1828/2/4
f 1818/2/4 1824/2/4 1828/2/4
f 1828/2/4 1825/2/4 1829/2/4
f 1826/2/4 1827/2/4 1830/2/4
f 1827/2/4 1823/2/4 1831/2/4
f 1830/2/4 1827/2/4 1831/2/4
f 1818/2/4 1828/2/4 1832/2/4
f 1828/1/4 1829/1/4 1833/1/4
f 1832/2/4 1828/2/4 1833/2/4
f 1833/1/4 1829/1/4 1834/1/4
f 1830/1/4 1831/1/4 1835/1/4
f 1831/2/4 1823/2/4 1836/2/4
f 1835/1/4 1831/1/4 1836/1/4
f 1836/2/4 1823/2/4 1837/2/4
f 1842/2/5 1839/2/5 1838/2/5
f 1843/2/5 1839/2/5 1842/2/5
f 1846/1/5 1841/1/5 1840/1/5
f 1847/2/5 1842/2/5 1841/2/5
f 1847/1/5 1841/1/5 1846/1/5
f 1847/2/5 1843/2/5 1842/2/5
f 1847/2/5 1844/2/5 1843/2/5
f 1848/1/5 1845/1/5 1844/1/5
f 1848/2/5 1844/2/5 1847/2/5
f 1849/1/5 1845/1/5 1848/1/5
f 1851/2/5 1847/2/5 1846/2/5
f 1851/2/5 1848/2/5 1847/2/5
f 1851/2/5 1849/2/5 1848/2/5
f 1852/2/5 1849/2/5 1851/2/5
f 1854/2/5 1852/2/5 1851/2/5
f 1854/2/5 1853/2/5 1852/2/5
f 1854/2/5 1851/2/5 1850/2/5
f 1855/2/5 1853/2/5 1854/2/5
f 1856/2/5 1853/2/5 1855/2/5
f 1857/2/5 1853/2/5 1856/2/5
f 1858/1/5 1855/1/5 1854/1/5
f 1859/2/5 1856/2/5 1855/2/5
f 1859/1/5 1855/1/5 1858/1/5
f 1860/1/5 1857/1/5 1856/1/5
f 1860/2/5 1856/2/5 1859/2/5
f 1861/1/5 1857/1/5 1860/1/5
f 1862/2/5 1859/2/5 1858/2/5
f 1862/2/5 1860/2/5 1859/2/5
f 1862/2/5 1861/2/5 1860/2/5
f 1863/2/5 1861/2/5 1862/2/5
f 1864/2/5 1861/2/5 1863/2/5
f 1865/2/5 1861/2/5 1864/2/5
f 1866/2/5 1864/2/5 1863/2/5
f 1867/2/5 1864/2/5 1866/2/5
f 1868/2/5 1864/2/5 1867/2/5
f 1869/2/5 1864/2/5 1868/2/5
f 1870/1/5 1867/1/5 1866/1/5
f 1871/2/5 1868/2/5 1867/2/5
f 1871/1/5 1867/1/5 1870/1/5
f 1872/2/5 1868/2/5 1871/2/5
f 1873/2/5 1868/2/5 1872/2/5
f 1874/1/5 1869/1/5 1868/1/5
f 1874/2/5 1868/2/5 1873/2/5
f 1875/1/5 1869/1/5 1874/1/5
f 1876/2/5 1873/2/5 1872/2/5
f 1877/2/5 1873/2/5 1876/2/5
f 1882/4/5 1879/4/5 1878/4/5
f 1883/4/5 1879/4/5 1882/4/5
f 1884/4/5 1881/4/5 1880/4/5
f 1885/4/5 1881/4/5 1884/4/5
f 1890/4/5 1887/4/5 1886/4/5
f 1891/4/5 1887/4/5 1890/4/5
f 1892/4/5 1889/4/5 1888/4/5
f 1893/4/5 1889/4/5 1892/4/5
f 1897/4/5 1895/4/5 1894/4/5
f 1898/4/5 1895/4/5 1897/4/5
f 1901/4/5 1897/4/5 1896/4/5
f 1902/4/5 1897/4/5 1901/4/5
f 1903/4/5 1897/4/5 1902/4/5
f 1904/4/5 1899/4/5 1898/4/5
f 1905/4/5 1899/4/5 1904/4/5
f 1906/4/5 1899/4/5 1905/4/5
f 1908/4/5 1901/4/5 1900/4/5
f 1908/4/5 1902/4/5 1901/4/5
f 1909/4/5 1902/4/5 1908/4/5
f 1910/4/5 1907/4/5 1906/4/5
f 1910/4/5 1906/4/5 1905/4/5
f 1911/4/5 1907/4/5 1910/4/5
f 1912/4/5 1908/4/5 1900/4/5
f 1915/4/5 1907/4/5 1911/4/5
f 1916/4/5 1913/4/5 1912/4/5
f 1916/4/5 1912/4/5 1900/4/5
f 1917/4/5 1913/4/5 1916/4/5
f 1918/4/5 1913/4/5 1917/4/5
f 1921/4/5 1915/4/5 1914/4/5
f 1922/4/5 1907/4/5 1915/4/5
f 1922/4/5 1915/4/5 1921/4/5
f 1923/4/5 1907/4/5 1922/4/5
f 1924/4/5 1919/4/5 1918/4/5
f 1924/4/5 1918/4/5 1917/4/5
f 1925/4/5 1919/4/5 1924/4/5
f 1926/4/5 1921/4/5 1920/4/5
f 1926/4/5 1922/4/5 1921/4/5
f 1927/4/5 1922/4/5 1926/4/5
f 1928/4/5 1926/4/5 1925/4/5
f 1929/4/5 1926/4/5 1928/4/5
f 1933/4/5 1931/4/5 1930/4/5
f 1934/4/5 1931/4/5 1933/4/5
f 1937/4/5 1933/4/5 1932/4/5
f 1938/4/5 1933/4/5 1937/4/5
f 1939/4/5 1935/4/5 1934/4/5
f 1940/4/5 1935/4/5 1939/4/5
f 1942/4/5 1937/4/5 1936/4/5
f 1943/4/5 1937/4/5 1942/4/5
f 1946/4/5 1941/4/5 1940/4/5
f 1947/4/5 1941/4/5 1946/4/5
f 1948/4/5 1944/4/5 1943/4/5
f 1949/4/5 1944/4/5 1948/4/5
f 1950/4/5 1946/4/5 1945/4/5
f 1951/4/5 1946/4/5 1950/4/5
f 1952/4/5 1950/4/5 1949/4/5
f 1953/4/5 1950/4/5 1952/4/5
f 1957/4/5 1955/4/5 1954/4/5
f 1958/4/5 1955/4/5 1957/4/5
f 1960/4/5 1957/4/5 1956/4/5
f 1961/4/5 1957/4/5 1960/4/5
f 1962/4/5 1959/4/5 1958/4/5
f 1963/4/5 1959/4/5 1962/4/5
f 1964/4/5 1962/4/5 1961/4/5
f 1965/4/5 1962/4/5 1964/4/5
f 1968/4/5 1967/4/5 1966/4/5
f 1969/4/5 1967/4/5 1968/4/5
f 1973/3/5 1971/3/5 1970/3/5
f 1974/3/5 1971/3/5 1973/3/5
f 1976/3/5 1973/3/5 1972/3/5
f 1977/3/5 1973/3/5 1976/3/5
f 1978/3/5 1975/3/5 1974/3/5
f 1979/3/5 1975/3/5 1978/3/5
f 1980/3/5 1978/3/5 1977/3/5
f 1981/3/5 1978/3/5 1980/3/5
f 1985/3/5 1983/3/5 1982/3/5
f 1986/3/5 1983/3/5 1985/3/5
f 1987/3/5 1983/3/5 1986/3/5
f 1988/3/5 1983/3/5 1987/3/5
f 1990/3/5 1985/3/5 1984/3/5
f 1990/3/5 1986/3/5 1985/3/5
f 1991/3/5 1986/3/5 1990/3/5
f 1992/3/5 1989/3/5 1988/3/5
f 1992/3/5 1988/3/5 1987/3/5
f 1993/3/5 1989/3/5 1992/3/5
f 1994/3/5 1990/3/5 1984/3/5
f 1997/3/5 1989/3/5 1993/3/5
f 1998/3/5 1995/3/5 1994/3/5
f 1998/3/5 1994/3/5 1984/3/5
f 1999/3/5 1995/3/5 1998/3/5
f 2000/3/5 1995/3/5 1999/3/5
f 2001/3/5 1997/3/5 1996/3/5
f 2002/3/5 1989/3/5 1997/3/5
f 2002/3/5 1997/3/5 2001/3/5
f 2003/3/5 1989/3/5 2002/3/5
f 2004/3/5 2000/3/5 1999/3/5
f 2004/3/5 2001/3/5 2000/3/5
f 2004/3/5 2002/3/5 2001/3/5
f 2005/3/5 2002/3/5 2004/3/5
f 2008/3/5 2007/3/5 2006/3/5
f 2009/3/5 2007/3/5 2008/3/5
f 2014/3/5 2011/3/5 2010/3/5
f 2015/3/5 2011/3/5 2014/3/5
f 2016/3/5 2013/3/5 2012/3/5
f 2017/3/5 2013/3/5 2016/3/5
f 2020/3/5 2019/3/5 2018/3/5
f 2021/3/5 2019/3/5 2020/3/5
f 2027/4/5 2023/4/5 2022/4/5
f 2028/4/5 2023/4/5 2027/4/5
f 2029/3/5 2025/3/5 2024/3/5
f 2030/3/5 2025/3/5 2029/3/5
f 2033/4/5 2027/4/5 2026/4/5
f 2034/4/5 2027/4/5 2033/4/5
f 2035/3/5 2031/3/5 2030/3/5
f 2036/3/5 2031/3/5 2035/3/5
f 2038/4/5 2033/4/5 2032/4/5
f 2039/4/5 2033/4/5 2038/4/5
f 2040/4/5 2037/4/5 2036/4/5
f 2041/4/5 2037/4/5 2040/4/5
f 2046/4/5 2043/4/5 2042/4/5
f 2047/4/5 2043/4/5 2046/4/5
f 2050/4/5 2045/4/5 2044/4/5
f 2051/4/5 2045/4/5 2050/4/5
f 2052/4/5 2048/4/5 2047/4/5
f 2053/4/5 2048/4/5 2052/4/5
f 2056/4/5 2050/4/5 2049/4/5
f 2057/4/5 2050/4/5 2056/4/5
f 2058/4/5 2054/4/5 2053/4/5
f 2059/4/5 2054/4/5 2058/4/5
f 2060/4/5 2056/4/5 2055/4/5
f 2061/4/5 2056/4/5 2060/4/5
f 2064/4/5 2063/4/5 2062/4/5
f 2065/4/5 2063/4/5 2064/4/5
f 2070/4/5 2067/4/5 2066/4/5
f 2071/4/5 2067/4/5 2070/4/5
f 2072/4/5 2069/4/5 2068/4/5
f 2073/4/5 2069/4/5 2072/4/5
f 2076/4/5 2075/4/5 2074/4/5
f 2077/4/5 2075/4/5 2076/4/5
f 2083/4/5 2079/4/5 2078/4/5
f 2084/4/5 2079/4/5 2083/4/5
f 2085/4/5 2081/4/5 2080/4/5
f 2086/4/5 2081/4/5 2085/4/5
f 2089/4/5 2083/4/5 2082/4/5
f 2090/4/5 2083/4/5 2089/4/5
f 2091/4/5 2087/4/5 2086/4/5
f 2092/4/5 2087/4/5 2091/4/5
f 2095/4/5 2089/4/5 2088/4/5
f 2096/4/5 2089/4/5 2095/4/5
f 2097/4/5 2093/4/5 2092/4/5
f 2098/4/5 2093/4/5 2097/4/5
f 2100/4/5 2095/4/5 2094/4/5
f 2101/4/5 2095/4/5 2100/4/5
f 2102/4/5 2099/4/5 2098/4/5
f 2103/4/5 2099/4/5 2102/4/5
f 2108/4/5 2105/4/5 2104/4/5
f 2109/4/5 2105/4/5 2108/4/5
f 2112/4/5 2107/4/5 2106/4/5
f 2113/4/5 2107/4/5 2112/4/5
f 2114/4/5 2110/4/5 2109/4/5
f 2115/4/5 2110/4/5 2114/4/5
f 2118/4/5 2112/4/5 2111/4/5
f 2119/4/5 2112/4/5 2118/4/5
f 2120/4/5 2116/4/5 2115/4/5
f 2121/4/5 2116/4/5 2120/4/5
f 2124/4/5 2118/4/5 2117/4/5
f 2125/4/5 2118/4/5 2124/4/5
f 2126/4/5 2122/4/5 2121/4/5
f 2127/4/5 2122/4/5 2126/4/5
f 2128/4/5 2124/4/5 2123/4/5
f 2129/4/5 2124/4/5 2128/4/5
f 2135/1/5 2131/1/5 2130/1/5
f 2136/2/5 2132/2/5 2131/2/5
f 2136/1/5 2131/1/5 2135/1/5
f 2137/1/5 2133/1/5 2132/1/5
f 2137/2/5 2132/2/5 2136/2/5
f 2138/1/5 2133/1/5 2137/1/5
f 2140/2/5 2136/2/5 2135/2/5
f 2140/2/5 2135/2/5 2134/2/5
f 2141/2/5 2136/2/5 2140/2/5
f 2142/2/5 2139/2/5 2138/2/5
f 2142/2/5 2138/2/5 2137/2/5
f 2143/2/5 2139/2/5 2142/2/5
f 2145/2/5 2140/2/5 2134/2/5
f 2146/2/5 2140/2/5 2145/2/5
f 2147/2/5 2140/2/5 2146/2/5
f 2148/2/5 2142/2/5 2141/2/5
f 2149/2/5 2142/2/5 2148/2/5
f 2150/2/5 2139/2/5 2143/2/5
f 2151/2/5 2139/2/5 2150/2/5
f 2152/2/5 2139/2/5 2151/2/5
f 2154/1/5 2145/1/5 2144/1/5
f 2155/2/5 2146/2/5 2145/2/5
f 2155/1/5 2145/1/5 2154/1/5
f 2156/2/5 2146/2/5 2155/2/5
f 2157/2/5 2149/2/5 2148/2/5
f 2157/2/5 2148/2/5 2147/2/5
f 2157/2/5 2150/2/5 2149/2/5
f 2158/2/5 2150/2/5 2157/2/5
f 2159/2/5 2152/2/5 2151/2/5
f 2160/1/5 2153/1/5 2152/1/5
f 2160/2/5 2152/2/5 2159/2/5
f 2161/1/5 2153/1/5 2160/1/5
f 2162/2/5 2155/2/5 2154/2/5
f 2163/2/5 2155/2/5 2162/2/5
f 2164/2/5 2161/2/5 2160/2/5
f 2165/2/5 2161/2/5 2164/2/5
f 2170/2/5 2167/2/5 2166/2/5
f 2171/2/5 2167/2/5 2170/2/5
f 2172/2/5 2159/2/5 2158/2/5
f 2172/2/5 2158/2/5 2157/2/5
f 2172/2/5 2157/2/5 2156/2/5
f 2173/2/5 2159/2/5 2172/2/5
f 2174/2/5 2159/2/5 2173/2/5
f 2175/2/5 2159/2/5 2174/2/5
f 2176/2/5 2169/2/5 2168/2/5
f 2177/2/5 2169/2/5 2176/2/5
f 2178/1/5 2171/1/5 2170/1/5
f 2179/2/5 2172/2/5 2171/2/5
f 2179/1/5 2171/1/5 2178/1/5
f 2180/2/5 2172/2/5 2179/2/5
f 2181/2/5 2174/2/5 2173/2/5
f 2182/2/5 2174/2/5 2181/2/5
f 2183/2/5 2174/2/5 2182/2/5
f 2184/2/5 2174/2/5 2183/2/5
f 2185/2/5 2176/2/5 2175/2/5
f 2186/1/5 2177/1/5 2176/1/5
f 2186/2/5 2176/2/5 2185/2/5
f 2187/1/5 2177/1/5 2186/1/5
f 2188/2/5 2180/2/5 2179/2/5
f 2188/2/5 2181/2/5 2180/2/5
f 2189/2/5 2183/2/5 2182/2/5
f 2190/2/5 2183/2/5 2189/2/5
f 2191/2/5 2185/2/5 2184/2/5
f 2191/2/5 2186/2/5 2185/2/5
f 2192/2/5 2189/2/5 2188/2/5
f 2192/2/5 2188/2/5 2179/2/5
f 2193/2/5 2189/2/5 2192/2/5
f 2194/2/5 2189/2/5 2193/2/5
f 2195/2/5 2191/2/5 2190/2/5
f 2196/2/5 2186/2/5 2191/2/5
f 2196/2/5 2191/2/5 2195/2/5
f 2197/2/5 2186/2/5 2196/2/5
f 2198/1/5 2194/1/5 2193/1/5
f 2199/2/5 2195/2/5 2194/2/5
f 2199/1/5 2194/1/5 2198/1/5
f 2200/1/5 2196/1/5 2195/1/5
f 2200/2/5 2195/2/5 2199/2/5
f 2201/1/5 2196/1/5 2200/1/5
f 2202/1/6 2203/1/6 2207/1/6
f 2203/2/6 2204/2/6 2208/2/6
f 2207/1/6 2203/1/6 2208/1/6
f 2204/1/6 2205/1/6 2209/1/6
f 2208/2/6 2204/2/6 2209/2/6
f 2209/1/6 2205/1/6 2210/1/6
f 2207/2/6 2208/2/6 2212/2/6
f 2206/2/6 2207/2/6 2212/2/6
f 2212/2/6 2208/2/6 2213/2/6
f 2210/2/6 2211/2/6 2214/2/6
f 2209/2/6 2210/2/6 2214/2/6
f 2214/2/6 2211/2/6 2215/2/6
f 2206/2/6 2212/2/6 2217/2/6
f 2217/2/6 2212/2/6 2218/2/6
f 2218/2/6 2212/2/6 2219/2/6
f 2213/2/6 2214/2/6 2220/2/6
f 2220/2/6 2214/2/6 2221/2/6
f 2215/2/6 2211/2/6 2222/2/6
f 2222/2/6 2211/2/6 2223/2/6
f 2223/2/6 2211/2/6 2224/2/6
f 2216/1/6 2217/1/6 2226/1/6
f 2217/2/6 2218/2/6 2227/2/6
f 2226/1/6 2217/1/6 2227/1/6
f 2227/2/6 2218/2/6 2228/2/6
f 2220/2/6 2221/2/6 2229/2/6
f 2219/2/6 2220/2/6 2229/2/6
f 2221/2/6 2222/2/6 2229/2/6
f 2229/2/6 2222/2/6 2230/2/6
f 2223/2/6 2224/2/6 2231/2/6
f 2224/1/6 2225/1/6 2232/1/6
f 2231/2/6 2224/2/6 2232/2/6
f 2232/1/6 2225/1/6 2233/1/6
f 2226/2/6 2227/2/6 2234/2/6
f 2234/2/6 2227/2/6 2235/2/6
f 2230/2/6 2231/2/6 2236/2/6
f 2229/2/6 2230/2/6 2236/2/6
f 2228/2/6 2229/2/6 2236/2/6
f 2236/2/6 2231/2/6 2237/2/6
f 2232/2/6 2233/2/6 2238/2/6
f 2238/2/6 2233/2/6 2239/2/6
f 2236/2/6 2237/2/6 2242/2/6
f 2242/2/6 2237/2/6 2243/2/6
f 2240/2/6 2241/2/6 2246/2/6
f 2246/2/6 2241/2/6 2247/2/6
f 2242/2/6 2243/2/6 2248/2/6
f 2248/2/6 2243/2/6 2249/2/6
f 2249/2/6 2243/2/6 2250/2/6
f 2250/2/6 2243/2/6 2251/2/6
f 2244/2/6 2245/2/6 2252/2/6
f 2252/2/6 2245/2/6 2253/2/6
f 2246/1/6 2247/1/6 2254/1/6
f 2247/2/6 2248/2/6 2255/2/6
f 2254/1/6 2247/1/6 2255/1/6
f 2255/2/6 2248/2/6 2256/2/6
f 2249/2/6 2250/2/6 2257/2/6
f 2257/2/6 2250/2/6 2258/2/6
f 2258/2/6 2250/2/6 2259/2/6
f 2259/2/6 2250/2/6 2260/2/6
f 2251/2/6 2252/2/6 2261/2/6
f 2252/1/6 2253/1/6 2262/1/6
f 2261/2/6 2252/2/6 2262/2/6
f 2262/1/6 2253/1/6 2263/1/6
f 2255/2/6 2256/2/6 2264/2/6
f 2256/2/6 2257/2/6 2264/2/6
f 2258/2/6 2259/2/6 2265/2/6
f 2265/2/6 2259/2/6 2266/2/6
f 2260/2/6 2261/2/6 2267/2/6
f 2261/2/6 2262/2/6 2267/2/6
f 2264/2/6 2265/2/6 2268/2/6
f 2255/2/6 2264/2/6 2268/2/6
f 2268/2/6 2265/2/6 2269/2/6
f 2269/2/6 2265/2/6 2270/2/6
f 2266/2/6 2267/2/6 2271/2/6
f 2267/2/6 2262/2/6 2272/2/6
f 2271/2/6 2267/2/6 2272/2/6
f 2272/2/6 2262/2/6 2273/2/6
f 2269/1/6 2270/1/6 2274/1/6
f 2270/2/6 2271/2/6 2275/2/6
f 2274/1/6 2270/1/6 2275/1/6
f 2271/1/6 2272/1/6 2276/1/6
f 2275/2/6 2271/2/6 2276/2/6
f 2276/1/6 2272/1/6 2277/1/6
f 2278/4/6 2279/4/6 2283/4/6
f 2283/4/6 2279/4/6 2284/4/6
f 2280/4/6 2281/4/6 2285/4/6
f 2285/4/6 2281/4/6 2286/4/6
f 2282/4/6 2283/4/6 2289/4/6
f 2289/4/6 2283/4/6 2290/4/6
f 2286/4/6 2287/4/6 2291/4/6
f 2291/4/6 2287/4/6 2292/4/6
f 2288/4/6 2289/4/6 2295/4/6
f 2295/4/6 2289/4/6 2296/4/6
f 2292/4/6 2293/4/6 2297/4/6
f 2297/4/6 2293/4/6 2298/4/6
f 2294/4/6 2295/4/6 2300/4/6
f 2300/4/6 2295/4/6 2301/4/6
f 2298/4/6 2299/4/6 2302/4/6
f 2302/4/6 2299/4/6 2303/4/6
f 2304/4/6 2305/4/6 2308/4/6
f 2308/4/6 2305/4/6 2309/4/6
f 2306/4/6 2307/4/6 2312/4/6
f 2312/4/6 2307/4/6 2313/4/6
f 2309/4/6 2310/4/6 2314/4/6
f 2314/4/6 2310/4/6 2315/4/6
f 2311/4/6 2312/4/6 2318/4/6
f 2318/4/6 2312/4/6 2319/4/6
f 2315/4/6 2316/4/6 2320/4/6
f 2320/4/6 2316/4/6 2321/4/6
f 2317/4/6 2318/4/6 2324/4/6
f 2324/4/6 2318/4/6 2325/4/6
f 2321/4/6 2322/4/6 2326/4/6
f 2326/4/6 2322/4/6 2327/4/6
f 2323/4/6 2324/4/6 2328/4/6
f 2328/4/6 2324/4/6 2329/4/6
f 2330/4/6 2331/4/6 2334/4/6
f 2334/4/6 2331/4/6 2335/4/6
f 2332/4/6 2333/4/6 2336/4/6
f 2336/4/6 2333/4/6 2337/4/6
f 2338/4/6 2339/4/6 2340/4/6
f 2340/4/6 2339/4/6 2341/4/6
f 2342/4/6 2343/4/6 2344/4/6
f 2344/4/6 2343/4/6 2345/4/6
f 2346/4/6 2347/4/6 2351/4/6
f 2351/4/6 2347/4/6 2352/4/6
f 2348/4/6 2349/4/6 2353/4/6
f 2353/4/6 2349/4/6 2354/4/6
f 2350/4/6 2351/4/6 2357/4/6
f 2357/4/6 2351/4/6 2358/4/6
f 2354/4/6 2355/4/6 2359/4/6
f 2359/4/6 2355/4/6 2360/4/6
f 2356/4/6 2357/4/6 2362/4/6
f 2362/4/6 2357/4/6 2363/4/6
f 2360/4/6 2361/4/6 2364/4/6
f 2364/4/6 2361/4/6 2365/4/6
f 2366/4/6 2367/4/6 2370/4/6
f 2370/4/6 2367/4/6 2371/4/6
f 2368/4/6 2369/4/6 2374/4/6
f 2374/4/6 2369/4/6 2375/4/6
f 2371/4/6 2372/4/6 2376/4/6
f 2376/4/6 2372/4/6 2377/4/6
f 2373/4/6 2374/4/6 2380/4/6
f 2380/4/6 2374/4/6 2381/4/6
f 2377/4/6 2378/4/6 2382/4/6
f 2382/4/6 2378/4/6 2383/4/6
f 2379/4/6 2380/4/6 2384/4/6
f 2384/4/6 2380/4/6 2385/4/6
f 2386/4/6 2387/4/6 2388/4/6
f 2388/4/6 2387/4/6 2389/4/6
f 2390/4/6 2391/4/6 2394/4/6
f 2394/4/6 2391/4/6 2395/4/6
f 2392/4/6 2393/4/6 2396/4/6
f 2396/4/6 2393/4/6 2397/4/6
f 2398/4/6 2399/4/6 2400/4/6
f 2400/4/6 2399/4/6 2401/4/6
f 2402/4/6 2403/4/6 2405/4/6
f 2405/4/6 2403/4/6 2406/4/6
f 2406/4/6 2403/4/6 2407/4/6
f 2407/4/6 2403/4/6 2408/4/6
f 2404/4/6 2405/4/6 2410/4/6
f 2405/4/6 2406/4/6 2410/4/6
f 2410/4/6 2406/4/6 2411/4/6
f 2408/4/6 2409/4/6 2412/4/6
f 2407/4/6 2408/4/6 2412/4/6
f 2412/4/6 2409/4/6 2413/4/6
f 2404/4/6 2410/4/6 2414/4/6
f 2413/4/6 2409/4/6 2417/4/6
f 2414/4/6 2415/4/6 2418/4/6
f 2404/4/6 2414/4/6 2418/4/6
f 2418/4/6 2415/4/6 2419/4/6
f 2419/4/6 2415/4/6 2420/4/6
f 2416/4/6 2417/4/6 2421/4/6
f 2417/4/6 2409/4/6 2422/4/6
f 2421/4/6 2417/4/6 2422/4/6
f 2422/4/6 2409/4/6 2423/4/6
f 2419/4/6 2420/4/6 2424/4/6
f 2420/4/6 2421/4/6 2424/4/6
f 2421/4/6 2422/4/6 2424/4/6
f 2424/4/6 2422/4/6 2425/4/6
f 2426/4/6 2427/4/6 2429/4/6
f 2429/4/6 2427/4/6 2430/4/6
f 2430/4/6 2427/4/6 2431/4/6
f 2431/4/6 2432/4/6 2433/4/6
f 2428/4/6 2429/4/6 2434/4/6
f 2434/4/6 2429/4/6 2435/4/6
f 2433/4/6 2432/4/6 2436/4/6
f 2436/4/6 2432/4/6 2437/4/6
f 2435/4/6 2436/4/6 2438/4/6
f 2438/4/6 2436/4/6 2439/4/6
f 2440/3/6 2441/3/6 2442/3/6
f 2442/3/6 2441/3/6 2443/3/6
f 2444/3/6 2445/3/6 2447/3/6
f 2447/3/6 2445/3/6 2448/3/6
f 2446/3/6 2447/3/6 2450/3/6
f 2450/3/6 2447/3/6 2451/3/6
f 2448/3/6 2449/3/6 2452/3/6
f 2452/3/6 2449/3/6 2453/3/6
f 2451/3/6 2452/3/6 2454/3/6
f 2454/3/6 2452/3/6 2455/3/6
f 2456/4/6 2457/4/6 2459/4/6
f 2459/4/6 2457/4/6 2460/4/6
f 2458/4/6 2459/4/6 2463/4/6
f 2463/4/6 2459/4/6 2464/4/6
f 2460/4/6 2461/4/6 2465/4/6
f 2465/4/6 2461/4/6 2466/4/6
f 2462/4/6 2463/4/6 2468/4/6
f 2468/4/6 2463/4/6 2469/4/6
f 2466/4/6 2467/4/6 2472/4/6
f 2472/4/6 2467/4/6 2473/4/6
f 2469/4/6 2470/4/6 2474/4/6
f 2474/4/6 2470/4/6 2475/4/6
f 2471/4/6 2472/4/6 2476/4/6
f 2476/4/6 2472/4/6 2477/4/6
f 2475/4/6 2476/4/6 2478/4/6
f 2478/4/6 2476/4/6 2479/4/6
f 2480/4/6 2481/4/6 2483/4/6
f 2483/4/6 2481/4/6 2484/4/6
f 2482/4/6 2483/4/6 2487/4/6
f 2487/4/6 2483/4/6 2488/4/6
f 2488/4/6 2483/4/6 2489/4/6
f 2484/4/6 2485/4/6 2490/4/6
f 2490/4/6 2485/4/6 2491/4/6
f 2491/4/6 2485/4/6 2492/4/6
f 2486/4/6 2487/4/6 2494/4/6
f 2487/4/6 2488/4/6 2494/4/6
f 2494/4/6 2488/4/6 2495/4/6
f 2492/4/6 2493/4/6 2496/4/6
f 2491/4/6 2492/4/6 2496/4/6
f 2496/4/6 2493/4/6 2497/4/6
f 2486/4/6 2494/4/6 2498/4/6
f 2497/4/6 2493/4/6 2501/4/6
f 2498/4/6 2499/4/6 2502/4/6
f 2486/4/6 2498/4/6 2502/4/6
f 2502/4/6 2499/4/6 2503/4/6
f 2503/4/6 2499/4/6 2504/4/6
f 2500/4/6 2501/4/6 2507/4/6
f 2501/4/6 2493/4/6 2508/4/6
f 2507/4/6 2501/4/6 2508/4/6
f 2508/4/6 2493/4/6 2509/4/6
f 2504/4/6 2505/4/6 2510/4/6
f 2503/4/6 2504/4/6 2510/4/6
f 2510/4/6 2505/4/6 2511/4/6
f 2506/4/6 2507/4/6 2512/4/6
f 2507/4/6 2508/4/6 2512/4/6
f 2512/4/6 2508/4/6 2513/4/6
f 2511/4/6 2512/4/6 2514/4/6
f 2514/4/6 2512/4/6 2515/4/6
f 2516/4/6 2517/4/6 2520/4/6
f 2520/4/6 2517/4/6 2521/4/6
f 2518/4/6 2519/4/6 2522/4/6
f 2522/4/6 2519/4/6 2523/4/6
f 2524/4/6 2525/4/6 2528/4/6
f 2528/4/6 2525/4/6 2529/4/6
f 2526/4/6 2527/4/6 2530/4/6
f 2530/4/6 2527/4/6 2531/4/6
f 2532/2/6 2533/2/6 2536/2/6
f 2536/2/6 2533/2/6 2537/2/6
f 2534/1/6 2535/1/6 2540/1/6
f 2535/2/6 2536/2/6 2541/2/6
f 2540/1/6 2535/1/6 2541/1/6
f 2536/2/6 2537/2/6 2541/2/6
f 2537/2/6 2538/2/6 2541/2/6
f 2538/1/6 2539/1/6 2542/1/6
f 2541/2/6 2538/2/6 2542/2/6
f 2542/1/6 2539/1/6 2543/1/6
f 2540/2/6 2541/2/6 2545/2/6
f 2541/2/6 2542/2/6 2545/2/6
f 2542/2/6 2543/2/6 2545/2/6
f 2545/2/6 2543/2/6 2546/2/6
f 2545/2/6 2546/2/6 2548/2/6
f 2546/2/6 2547/2/6 2548/2/6
f 2544/2/6 2545/2/6 2548/2/6
f 2548/2/6 2547/2/6 2549/2/6
f 2549/2/6 2547/2/6 2550/2/6
f 2550/2/6 2547/2/6 2551/2/6
f 2544/2/6 2548/2/6 2552/2/6
f 2552/2/6 2548/2/6 2553/2/6
f 2548/1/6 2549/1/6 2554/1/6
f 2553/2/6 2548/2/6 2554/2/6
f 2549/2/6 2550/2/6 2555/2/6
f 2554/1/6 2549/1/6 2555/1/6
f 2550/1/6 2551/1/6 2556/1/6
f 2555/2/6 2550/2/6 2556/2/6
f 2551/2/6 2547/2/6 2557/2/6
f 2556/1/6 2551/1/6 2557/1/6
f 2557/2/6 2547/2/6 2558/2/6
f 2558/2/6 2547/2/6 2559/2/6
f 2552/1/6 2553/1/6 2560/1/6
f 2555/2/6 2556/2/6 2561/2/6
f 2560/1/6 2553/1/6 2561/1/6
f 2553/2/6 2554/2/6 2561/2/6
f 2554/2/6 2555/2/6 2561/2/6
f 2557/2/6 2558/2/6 2561/2/6
f 2556/2/6 2557/2/6 2561/2/6
f 2558/1/6 2559/1/6 2562/1/6
f 2561/2/6 2558/2/6 2562/2/6
f 2562/1/6 2559/1/6 2563/1/6
f 2560/2/6 2561/2/6 2564/2/6
f 2561/2/6 2562/2/6 2564/2/6
f 2562/2/6 2563/2/6 2564/2/6
f 2564/2/6 2563/2/6 2565/2/6
f 2565/2/6 2563/2/6 2566/2/6
f 2566/2/6 2563/2/6 2567/2/6
f 2567/2/6 2563/2/6 2568/2/6
f 2568/2/6 2563/2/6 2569/2/6
f 2565/2/6 2566/2/6 2570/2/6
f 2570/2/6 2566/2/6 2571/2/6
f 2566/1/6 2567/1/6 2572/1/6
f 2571/2/6 2566/2/6 2572/2/6
f 2567/2/6 2568/2/6 2573/2/6
f 2572/1/6 2567/1/6 2573/1/6
f 2573/2/6 2568/2/6 2574/2/6
f 2574/2/6 2568/2/6 2575/2/6
f 2570/1/6 2571/1/6 2576/1/6
f 2571/2/6 2572/2/6 2577/2/6
f 2576/1/6 2571/1/6 2577/1/6
f 2572/2/6 2573/2/6 2577/2/6
f 2573/2/6 2574/2/6 2577/2/6
f 2577/2/6 2574/2/6 2578/2/6
f 2578/2/6 2574/2/6 2579/2/6
f 2574/1/6 2575/1/6 2580/1/6
f 2579/2/6 2574/2/6 2580/2/6
f 2580/1/6 2575/1/6 2581/1/6
f 2578/2/6 2579/2/6 2582/2/6
f 2582/2/6 2579/2/6 2583/2/6
